<?xml version="1.0" encoding="utf-8"?>
<!-- Generator: Adobe Illustrator 23.0.1, SVG Export Plug-In . SVG Version: 6.00 Build 0)  -->
<svg version="1.1" id="Layer_3" xmlns="http://www.w3.org/2000/svg" xmlns:xlink="http://www.w3.org/1999/xlink" x="0px" y="0px"
	 viewBox="0 0 454.5 136.8" enable-background="new 0 0 454.5 136.8" xml:space="preserve">
<g>
	<rect x="-6.2" y="1.8" fill="none" width="380.3" height="138"/>
	<path fill="#181138" d="M186.9,1.6c1.5,0,2.8,0.5,4,1.5c1.2,1,1.8,2.3,1.8,3.8c0,0.3-0.1,0.9-0.4,1.9l-43.6,123.3
		c-0.5,1.4-1.3,2.4-2.5,3.2c-1.2,0.8-2.5,1.1-3.9,1.1c-1.3,0-2.4-0.4-3.6-1.1c-1.1-0.8-1.9-1.8-2.4-3.2L97,20.8L57.3,132.1
		c-0.5,1.4-1.3,2.4-2.4,3.2s-2.4,1.1-3.8,1.1c-1.3,0-2.4-0.4-3.6-1.1s-1.9-1.8-2.4-3.2L1.5,8.7C1.3,7.7,1.1,7,1.1,6.7
		c0-1.5,0.6-2.7,1.7-3.7C3.9,2,5.3,1.6,6.8,1.6c1.1,0,2.1,0.3,3,0.9c0.9,0.6,1.6,1.5,2.1,2.6l39.7,113.9L91,6.7
		c0.5-1.5,1.3-2.6,2.4-3.4c1.1-0.8,2.2-1.1,3.5-1.1c1.4,0,2.6,0.4,3.8,1.2c1.1,0.8,1.9,2,2.4,3.5l39.3,112.2L182,5.2
		C182.9,2.8,184.5,1.6,186.9,1.6z"/>
	<path fill="#181138" d="M229.1,132.3c-8.6-2.9-15.3-6.9-20.2-11.9c-1.6-1.4-2.4-3.2-2.4-5.5c0-1.4,0.4-2.6,1.2-3.6
		c0.8-1,1.7-1.5,2.7-1.5c1.3,0,2.7,0.6,4.3,1.9c11.8,9.8,25.5,14.7,41.2,14.7c11.4,0,20.2-2.3,26.4-6.9c6.2-4.6,9.3-11.1,9.3-19.5
		c0-4.9-1.5-8.8-4.5-11.8c-3-3-6.8-5.4-11.5-7c-4.6-1.7-10.8-3.4-18.6-5.2c-10.3-2.3-18.6-4.6-24.9-7c-6.3-2.4-11.7-6-16.1-10.8
		c-4.4-4.8-6.6-11.3-6.6-19.5c0-7.4,2-13.9,5.9-19.6c3.9-5.7,9.5-10.1,16.6-13.3c7.1-3.1,15.4-4.7,24.6-4.7c8.6,0,16.8,1.4,24.4,4.2
		c7.6,2.8,14,6.9,19,12.1c1.6,1.6,2.4,3.4,2.4,5.5c0,1.4-0.4,2.6-1.2,3.6c-0.8,1-1.7,1.5-2.7,1.5c-1.3,0-2.7-0.6-4.3-1.9
		c-6.8-5.5-12.9-9.3-18.3-11.5c-5.5-2.1-11.9-3.2-19.3-3.2c-11.2,0-19.9,2.4-26.1,7.1c-6.3,4.8-9.4,11.4-9.4,19.9
		c0,5.1,1.4,9.3,4.1,12.5c2.8,3.2,6.4,5.7,10.8,7.6c4.4,1.9,10.2,3.7,17.2,5.5l4.9,1.1c10.2,2.5,18.2,4.8,24.1,7
		c5.9,2.1,10.9,5.4,14.9,9.9c4.1,4.5,6.1,10.4,6.1,18c0,7.1-2,13.5-5.9,19.1c-3.9,5.6-9.5,9.9-16.7,13c-7.2,3.1-15.4,4.6-24.7,4.6
		C246.6,136.8,237.7,135.3,229.1,132.3z"/>
</g>
<g id="Layer_2">
	<circle fill="#C396C4" stroke="#181038" stroke-width="8" stroke-miterlimit="10" cx="386.3" cy="69" r="64.2"/>
	<path fill="#FFFFFF" stroke="#181138" stroke-width="2" stroke-miterlimit="10" d="M352.3,107.3c-3.8-6-2.7-24.5-2.7-24.5
		c-14.6-3.1-16.2-7.2-16.2-7.2c-0.9-1.8-6-0.8-5.7-1.6c10.6-16.3,24.7-7,22.3-10.1c-11.2-23,0.1-37.1-1.6-32.2
		c4,30.9,31,32.3,37.7,32.2c1-0.2,33.4,3.1,38-32.2c-1.7-5,9.7,9.1-1.6,32.2c-2.3,3.1,11.7-6.2,22.3,10.1c0.2,0.7-4.8-0.3-5.7,1.6
		c0,0-1.6,4-16.2,7.2c0,0,1,18.5-2.7,24.5H352.3z"/>
	<path fill="#EBDCEC" d="M409.1,58.3c0,0,7.3,6.2,14.7,3.1c2.1,9.1-0.8,21.4-0.8,21.4l0.9,11.5c0,0-33.5,7.4-37.7-30.3
		C403.8,65.2,409.1,58.3,409.1,58.3z"/>
	<path fill="#EADFA9" d="M350.3,81.9l0.1-4.4c0,0,0-3.1-5.4-3.4c0,0-8.7-0.6-10.8,0.6C333.9,74.6,342,82.9,350.3,81.9z"/>
	<path fill="#EADFA9" d="M422.9,81.9l-0.1-4.4c0,0,0-3.1,5.4-3.4c0,0,8.7-0.6,10.8,0.6C439.3,74.6,431.2,82.9,422.9,81.9z"/>
	<path fill="#C49A6C" d="M407.8,59.2c0,0,17.6-13.2,17.2-26.8c0,0,8.5,12.2-1.9,30.8C420.8,63.7,413.7,66,407.8,59.2z"/>
	<path fill="#C49A6C" d="M365.5,59.2c0,0-17.6-13.2-17.2-26.8c0,0-8.5,12.2,1.9,30.8C352.4,63.7,359.5,66,365.5,59.2z"/>
	<path fill="none" stroke="#181138" stroke-width="2" stroke-miterlimit="10" d="M352.4,107.3c-3.8-6-2.7-24.5-2.7-24.5
		c-14.6-3.1-16.2-7.2-16.2-7.2c-0.9-1.8-6-0.8-5.7-1.6c10.6-16.3,24.7-7,22.3-10.1c-11.2-23,0.1-37.1-1.6-32.2
		c4,30.9,31,32.3,37.7,32.2c1-0.2,33.4,3.1,38-32.2c-1.7-5,9.7,9.1-1.6,32.2c-2.3,3.1,11.7-6.2,22.3,10.1c0.2,0.7-4.8-0.3-5.7,1.6
		c0,0-1.6,4-16.2,7.2c0,0,1,18.5-2.7,24.5H352.4z"/>
	<path fill="#694FA0" stroke="#181038" stroke-width="3" stroke-miterlimit="10" d="M339.8,113.4c0,0,47.4-22.7,92.9,0
		c-11.9,17.9-35.2,17.9-35.2,17.9S367.1,141.3,339.8,113.4z"/>
	<circle fill="none" stroke="#181038" stroke-width="8" stroke-miterlimit="10" cx="386.3" cy="69" r="64.2"/>
	<circle fill="#181038" cx="408.4" cy="98.9" r="2.3"/>
	<circle fill="#181038" cx="368.4" cy="98.9" r="2.3"/>
</g>
<g>
</g>
<g>
</g>
<g>
</g>
<g>
</g>
<g>
</g>
<g>
</g>
</svg>
