<?xml version="1.0" encoding="utf-8"?>
<!-- Generator: Adobe Illustrator 23.0.1, SVG Export Plug-In . SVG Version: 6.00 Build 0)  -->
<svg version="1.1" id="Layer_3" xmlns="http://www.w3.org/2000/svg" xmlns:xlink="http://www.w3.org/1999/xlink" x="0px" y="0px"
	 viewBox="0 0 137.8 137.8" style="enable-background:new 0 0 137.8 137.8;" xml:space="preserve">
<style type="text/css">
	.st0{fill:#C396C4;stroke:#FFFFFF;stroke-width:8;stroke-miterlimit:10;}
	.st1{fill:#FFFFFF;stroke:#181138;stroke-width:2;stroke-miterlimit:10;}
	.st2{fill:#EBDCEC;}
	.st3{fill:#EADFA9;}
	.st4{fill:#C49A6C;}
	.st5{fill:none;stroke:#181138;stroke-width:2;stroke-miterlimit:10;}
	.st6{fill:#694FA0;stroke:#181038;stroke-width:3;stroke-miterlimit:10;}
	.st7{fill:none;stroke:#FFFFFF;stroke-width:8;stroke-miterlimit:10;}
	.st8{fill:#181038;}
</style>
<g id="Layer_2">
	<circle class="st0" cx="69" cy="69.4" r="64.2"/>
	<path class="st1" d="M35.1,107.6c-3.8-6-2.7-24.5-2.7-24.5c-14.6-3.1-16.2-7.2-16.2-7.2c-0.9-1.8-6-0.8-5.7-1.6
		C21,58,35.1,67.3,32.7,64.3c-11.2-23,0.1-37.1-1.6-32.2c4,30.9,31,32.3,37.7,32.2c1-0.2,33.4,3.1,38-32.2c-1.7-5,9.7,9.1-1.6,32.2
		c-2.3,3.1,11.7-6.2,22.3,10.1c0.2,0.7-4.8-0.3-5.7,1.6c0,0-1.6,4-16.2,7.2c0,0,1,18.5-2.7,24.5H35.1z"/>
	<path class="st2" d="M91.9,58.6c0,0,7.3,6.2,14.7,3.1c2.1,9.1-0.8,21.4-0.8,21.4l0.9,11.5c0,0-33.5,7.4-37.7-30.3
		C86.6,65.5,91.9,58.6,91.9,58.6z"/>
	<path class="st3" d="M33,82.2l0.1-4.4c0,0,0-3.1-5.4-3.4c0,0-8.7-0.6-10.8,0.6C16.6,75,24.7,83.3,33,82.2z"/>
	<path class="st3" d="M105.7,82.2l-0.1-4.4c0,0,0-3.1,5.4-3.4c0,0,8.7-0.6,10.8,0.6C122.1,75,114,83.3,105.7,82.2z"/>
	<path class="st4" d="M90.5,59.5c0,0,17.6-13.2,17.2-26.8c0,0,8.5,12.2-1.9,30.8C103.5,64,96.4,66.3,90.5,59.5z"/>
	<path class="st4" d="M48.2,59.5c0,0-17.6-13.2-17.2-26.8c0,0-8.5,12.2,1.9,30.8C35.2,64,42.3,66.3,48.2,59.5z"/>
	<path class="st5" d="M35.1,107.6c-3.8-6-2.7-24.5-2.7-24.5c-14.6-3.1-16.2-7.2-16.2-7.2c-0.9-1.8-6-0.8-5.7-1.6
		C21,58,35.1,67.3,32.8,64.3c-11.2-23,0.1-37.1-1.6-32.2c4,30.9,31,32.3,37.7,32.2c1-0.2,33.4,3.1,38-32.2c-1.7-5,9.7,9.1-1.6,32.2
		c-2.3,3.1,11.7-6.2,22.3,10.1c0.2,0.7-4.8-0.3-5.7,1.6c0,0-1.6,4-16.2,7.2c0,0,1,18.5-2.7,24.5H35.1z"/>
	<path class="st6" d="M22.6,113.7c0,0,47.4-22.7,92.9,0c-11.9,17.9-35.2,17.9-35.2,17.9S49.8,141.6,22.6,113.7z"/>
	<circle class="st7" cx="69" cy="69.4" r="64.2"/>
	<circle class="st8" cx="91.1" cy="99.3" r="2.3"/>
	<circle class="st8" cx="51.1" cy="99.3" r="2.3"/>
</g>
<g>
</g>
<g>
</g>
<g>
</g>
<g>
</g>
<g>
</g>
<g>
</g>
</svg>
