<svg width="250" height="176" viewBox="0 0 250 176" fill="none" xmlns="http://www.w3.org/2000/svg">
<g clip-path="url(#clip0)">
<path d="M200.765 163.193C199.143 169.372 193.456 173.234 193.456 173.234C193.456 173.234 190.401 167.077 192.024 160.897C193.647 154.718 199.333 150.856 199.333 150.856C199.333 150.856 202.388 157.013 200.765 163.193Z" fill="#3F3D56"/>
<path d="M198.304 161.885C193.759 166.376 193.251 173.23 193.251 173.23C193.251 173.23 200.111 172.805 204.656 168.315C209.201 163.824 209.709 156.97 209.709 156.97C209.709 156.97 202.849 157.395 198.304 161.885Z" fill="#856FB3"/>
<path d="M33.6259 139.817H42.1852L63.2777 131.563C63.2777 131.563 78.2565 125.45 77.0338 137.066C75.811 148.682 73.6712 164.272 73.6712 164.272C73.6712 164.272 66.946 161.215 63.2777 162.132C59.6095 163.049 62.055 143.485 62.055 143.485C62.055 143.485 32.0974 157.853 29.3462 156.019C26.595 154.184 25.9836 141.345 25.9836 141.345L33.6259 139.817Z" fill="#2F2E41"/>
<path opacity="0.1" d="M33.6259 139.817H42.1852L63.2777 131.563C63.2777 131.563 78.2565 125.45 77.0338 137.066C75.811 148.682 73.6712 164.272 73.6712 164.272C73.6712 164.272 66.946 161.215 63.2777 162.132C59.6095 163.049 62.055 143.485 62.055 143.485C62.055 143.485 32.0974 157.853 29.3462 156.019C26.595 154.184 25.9836 141.345 25.9836 141.345L33.6259 139.817Z" fill="black"/>
<path d="M47.1112 113.012L57.4697 127.895L81.6192 148.07C81.6192 148.07 103.935 153.267 100.878 156.935C97.8207 160.604 79.1737 153.267 79.1737 153.267C79.1737 153.267 51.356 133.092 50.4389 131.563C49.5218 130.035 39.4341 115.667 39.4341 115.667L47.1112 113.012Z" fill="#A0616A"/>
<path opacity="0.1" d="M47.1112 113.012L57.4697 127.895L81.6192 148.07C81.6192 148.07 103.935 153.267 100.878 156.935C97.8207 160.604 79.1737 153.267 79.1737 153.267C79.1737 153.267 51.356 133.092 50.4389 131.563C49.5218 130.035 39.4341 115.667 39.4341 115.667L47.1112 113.012Z" fill="black"/>
<path d="M40.962 100.995L47.6872 114.139C47.6872 114.139 46.1587 120.559 43.7132 121.17C41.2677 121.781 30.8743 113.222 30.8743 113.222L40.962 100.995Z" fill="#B3A3D4"/>
<path d="M123.007 133.011L124.993 141.206C125.015 141.297 125.012 141.393 124.983 141.483L115.972 169.643C115.936 169.755 115.863 169.851 115.766 169.915C115.668 169.979 115.551 170.008 115.434 169.997C115.318 169.985 115.209 169.934 115.125 169.852C115.042 169.77 114.989 169.661 114.976 169.545L113.729 158.575C113.721 158.502 113.728 158.428 113.751 158.358L122.023 132.973C122.057 132.867 122.125 132.776 122.217 132.712C122.308 132.648 122.418 132.616 122.529 132.62C122.64 132.625 122.747 132.665 122.833 132.736C122.92 132.806 122.98 132.903 123.007 133.011Z" fill="#2F2E41"/>
<path d="M122.276 133.703L124.11 140.734L116.162 166.412L114.328 158.464L122.276 133.703Z" fill="#F2F2F2"/>
<path d="M82.23 171.914C82.5357 172.831 114.022 171.609 114.327 171.303C114.594 170.92 114.819 170.51 115 170.08C115.287 169.469 115.55 168.857 115.55 168.857L114.327 158.959L83.147 157.853C83.147 157.853 82.3675 166.241 82.2086 170.08C82.1689 171.049 82.1689 171.731 82.23 171.914Z" fill="#2F2E41"/>
<path opacity="0.1" d="M110.355 160.298L110.966 168.858H97.2098V160.298H110.355Z" fill="black"/>
<path opacity="0.1" d="M92.6241 163.049L92.7061 163.033L92.3183 166.718H84.6761V163.049H92.6241Z" fill="black"/>
<path opacity="0.1" d="M82.23 171.914C82.5357 172.831 114.022 171.609 114.327 171.303C114.594 170.92 114.819 170.51 115 170.08H82.2086C82.1689 171.049 82.1689 171.731 82.23 171.914Z" fill="black"/>
<path d="M45.5474 96.7147C53.1446 96.7147 59.3034 90.5559 59.3034 82.9586C59.3034 75.3614 53.1446 69.2026 45.5474 69.2026C37.9502 69.2026 31.7914 75.3614 31.7914 82.9586C31.7914 90.5559 37.9502 96.7147 45.5474 96.7147Z" fill="#A0616A"/>
<path d="M44.6306 95.1863C44.6306 95.1863 40.0453 103.134 39.1282 107.414C38.2112 111.694 25.3722 98.8546 25.3722 98.8546L23.6909 94.4221C23.6909 94.4221 35.7656 88.7669 34.8486 84.1815C33.9315 79.5962 44.6306 95.1863 44.6306 95.1863Z" fill="#A0616A"/>
<path d="M47.0764 119.03L59.6097 135.537L89.5672 157.853C89.5672 157.853 111.271 162.438 106.38 165.801C101.489 169.163 87.4274 162.744 87.4274 162.744C87.4274 162.744 57.1642 146.542 50.7447 139.817C44.3252 133.092 32.4033 121.781 32.4033 121.781L47.0764 119.03Z" fill="#A0616A"/>
<path d="M30.2636 144.708L33.9319 150.516L55.8244 143.629C60.628 142.118 65.8954 142.674 70.156 145.358C73.9771 147.765 76.4226 151.586 70.9202 157.242C59.9154 168.552 52.5789 162.438 52.5789 162.438C52.5789 162.438 15.5905 179.863 9.47671 171.303C3.36293 162.744 3.05725 158.464 3.05725 158.464C3.05725 158.464 26.5953 143.791 30.2636 144.708Z" fill="#2F2E41"/>
<path d="M76.1169 164.884C76.1169 164.884 85.8989 171.303 74.2828 174.36C62.6666 177.417 54.1073 173.137 54.1073 173.137C54.1073 173.137 44.0195 173.137 44.0195 167.94C44.0195 162.744 47.3821 162.132 47.3821 162.132L57.7755 163.661C57.7755 163.661 70.3088 160.298 76.1169 164.884Z" fill="#D0CDE1"/>
<path d="M56.8323 79.4985C57.7686 79.9159 58.697 80.4099 59.7149 80.5311C60.7328 80.6522 61.892 80.2968 62.3736 79.392C62.6338 78.9032 62.6635 78.3283 62.6757 77.7747C62.7125 76.0961 62.5911 74.2815 61.5274 72.9824C60.8504 72.1557 59.8621 71.6345 59.1614 70.8278C58.6593 70.2499 58.3252 69.5493 57.9654 68.8736C56.6026 66.314 54.5847 63.854 51.7804 63.1161C50.6093 62.808 49.3809 62.823 48.1701 62.8401L41.108 62.9397C39.9651 62.9558 38.8047 62.9746 37.7106 63.3054C35.4375 63.9926 33.7825 65.9042 32.2667 67.7322C31.1326 69.0999 29.9956 70.4816 29.1445 72.0412C27.9243 74.317 27.3073 76.8674 27.3523 79.4494C27.3428 80.1116 27.4283 80.7717 27.6062 81.4096C27.8142 81.9947 28.072 82.5608 28.3766 83.1019C29.701 85.7032 30.4874 88.9525 28.9959 91.4617C31.5868 90.4034 34.1503 89.0157 35.8594 86.7994C36.624 85.8079 37.2236 84.6473 38.2425 83.9198C39.2615 83.1922 40.9217 83.1291 41.5755 84.1969C41.8002 84.6288 41.9159 85.1092 41.9125 85.5961C41.9603 86.3976 41.959 87.2299 42.2988 87.9574C42.6386 88.6848 43.4481 89.2718 44.2209 89.0541C45.5519 88.6792 45.4244 86.6365 46.4496 85.7086C47.2281 85.0039 48.4292 85.1386 49.4293 84.8187C50.5947 84.446 51.469 83.4365 51.9672 82.319C52.3459 81.4696 52.3405 79.2469 53.0571 78.787C53.9557 78.2101 55.9993 79.1272 56.8323 79.4985Z" fill="#2F2E41"/>
<path d="M22.5989 92.9722C23.2178 92.8071 23.8693 92.8088 24.4873 92.977C26.4496 93.5039 30.8485 94.8985 31.7917 97.0206C33.0144 99.7718 37.2941 104.051 37.2941 104.051C37.2941 104.051 43.1022 109.86 41.8794 113.834C40.6567 117.808 36.0713 122.393 36.0713 122.393C36.0713 122.393 37.2941 141.346 31.1803 146.237C25.0665 151.128 22.621 147.765 22.621 152.35C22.621 156.936 3.66827 171.303 0 162.438C0 162.438 1.83414 145.931 1.22276 140.123C0.620196 134.398 1.50231 98.6836 22.5989 92.9722Z" fill="#B3A3D4"/>
<path d="M32.4028 100.689C32.4028 100.689 51.0498 114.445 47.6872 120.253C47.6872 120.253 36.3767 125.755 33.9312 125.45C31.4857 125.144 22.0093 114.445 19.5638 113.528C17.1183 112.611 15.8955 96.1034 32.4028 100.689Z" fill="#B3A3D4"/>
<path d="M115.714 70.2696C124.054 70.2696 130.815 63.5085 130.815 55.1682C130.815 46.828 124.054 40.0669 115.714 40.0669C107.373 40.0669 100.612 46.828 100.612 55.1682C100.612 63.5085 107.373 70.2696 115.714 70.2696Z" fill="#F2F2F2"/>
<path d="M240.443 35.5556H155.818V17.8477H240.443V35.5556ZM156.19 35.1828H240.07V18.2204H156.19V35.1828Z" fill="#3F3D56"/>
<path d="M234.293 21.3892H150.04V38.7243H234.293V21.3892Z" fill="#856FB3"/>
<path d="M96.7793 4.84644C97.4999 4.84644 98.0841 4.26226 98.0841 3.54163C98.0841 2.821 97.4999 2.23682 96.7793 2.23682C96.0587 2.23682 95.4745 2.821 95.4745 3.54163C95.4745 4.26226 96.0587 4.84644 96.7793 4.84644Z" fill="#856FB3"/>
<path d="M101.254 4.84644C101.975 4.84644 102.559 4.26226 102.559 3.54163C102.559 2.821 101.975 2.23682 101.254 2.23682C100.534 2.23682 99.9493 2.821 99.9493 3.54163C99.9493 4.26226 100.534 4.84644 101.254 4.84644Z" fill="#856FB3"/>
<path d="M105.727 4.84644C106.448 4.84644 107.032 4.26226 107.032 3.54163C107.032 2.821 106.448 2.23682 105.727 2.23682C105.007 2.23682 104.422 2.821 104.422 3.54163C104.422 4.26226 105.007 4.84644 105.727 4.84644Z" fill="#856FB3"/>
<path d="M249.999 102.147H93.0513V0H249.999V102.147ZM93.4241 101.774H249.627V0.372799H93.4241V101.774Z" fill="#3F3D56"/>
<path d="M249.814 5.6543H93.2389V6.02709H249.814V5.6543Z" fill="#3F3D56"/>
<path d="M97.152 4.4736C96.857 4.4736 96.5687 4.38614 96.3235 4.22229C96.0783 4.05844 95.8871 3.82554 95.7743 3.55306C95.6614 3.28058 95.6319 2.98075 95.6894 2.69149C95.747 2.40223 95.889 2.13652 96.0975 1.92797C96.3061 1.71942 96.5718 1.5774 96.861 1.51986C97.1503 1.46233 97.4501 1.49186 97.7226 1.60472C97.9951 1.71759 98.228 1.90872 98.3918 2.15394C98.5557 2.39917 98.6432 2.68748 98.6432 2.98241C98.6427 3.37775 98.4855 3.75678 98.2059 4.03633C97.9263 4.31589 97.5473 4.47314 97.152 4.4736ZM97.152 1.86401C96.9308 1.86401 96.7145 1.9296 96.5306 2.05249C96.3467 2.17538 96.2034 2.35006 96.1187 2.55442C96.0341 2.75878 96.0119 2.98365 96.0551 3.20059C96.0982 3.41754 96.2047 3.61682 96.3611 3.77323C96.5175 3.92964 96.7168 4.03616 96.9338 4.07931C97.1507 4.12247 97.3756 4.10032 97.58 4.01567C97.7843 3.93102 97.959 3.78767 98.0819 3.60375C98.2048 3.41983 98.2704 3.2036 98.2704 2.98241C98.27 2.68589 98.1521 2.40163 97.9424 2.19196C97.7327 1.9823 97.4485 1.86435 97.152 1.86401Z" fill="#3F3D56"/>
<path d="M101.627 4.4736C101.332 4.4736 101.044 4.38614 100.798 4.22229C100.553 4.05844 100.362 3.82554 100.249 3.55306C100.136 3.28058 100.107 2.98075 100.164 2.69149C100.222 2.40223 100.364 2.13652 100.572 1.92797C100.781 1.71942 101.047 1.5774 101.336 1.51986C101.625 1.46233 101.925 1.49186 102.197 1.60472C102.47 1.71759 102.703 1.90872 102.867 2.15394C103.031 2.39917 103.118 2.68748 103.118 2.98241C103.118 3.37775 102.96 3.75678 102.681 4.03633C102.401 4.31589 102.022 4.47314 101.627 4.4736ZM101.627 1.86401C101.406 1.86401 101.189 1.9296 101.005 2.05249C100.822 2.17538 100.678 2.35006 100.594 2.55442C100.509 2.75878 100.487 2.98365 100.53 3.20059C100.573 3.41754 100.68 3.61682 100.836 3.77323C100.992 3.92964 101.192 4.03616 101.409 4.07931C101.626 4.12247 101.85 4.10032 102.055 4.01567C102.259 3.93102 102.434 3.78767 102.557 3.60375C102.68 3.41983 102.745 3.2036 102.745 2.98241C102.745 2.68589 102.627 2.40163 102.417 2.19196C102.208 1.9823 101.923 1.86435 101.627 1.86401Z" fill="#3F3D56"/>
<path d="M106.1 4.4736C105.805 4.4736 105.517 4.38614 105.271 4.22229C105.026 4.05843 104.835 3.82554 104.722 3.55306C104.609 3.28058 104.58 2.98075 104.637 2.69149C104.695 2.40223 104.837 2.13652 105.046 1.92797C105.254 1.71943 105.52 1.5774 105.809 1.51986C106.098 1.46233 106.398 1.49186 106.671 1.60472C106.943 1.71759 107.176 1.90871 107.34 2.15394C107.504 2.39916 107.591 2.68747 107.591 2.9824C107.591 3.37775 107.433 3.75678 107.154 4.03633C106.874 4.31589 106.495 4.47314 106.1 4.4736ZM106.1 1.86401C105.879 1.86401 105.663 1.9296 105.479 2.05249C105.295 2.17538 105.151 2.35005 105.067 2.55441C104.982 2.75877 104.96 2.98364 105.003 3.20059C105.046 3.41754 105.153 3.61682 105.309 3.77323C105.466 3.92964 105.665 4.03616 105.882 4.07931C106.099 4.12247 106.324 4.10032 106.528 4.01567C106.732 3.93102 106.907 3.78767 107.03 3.60375C107.153 3.41983 107.218 3.2036 107.218 2.9824C107.218 2.68589 107.1 2.40163 106.89 2.19196C106.681 1.9823 106.396 1.86435 106.1 1.86401Z" fill="#3F3D56"/>
<path d="M142.583 5.84082H142.21V102.105H142.583V5.84082Z" fill="#3F3D56"/>
<path d="M187.413 53.1704H160.012V56.8984H187.413V53.1704Z" fill="#F2F2F2"/>
<path d="M230.471 53.1704H203.07V56.8984H230.471V53.1704Z" fill="#F2F2F2"/>
<path d="M189.09 55.2209H161.317V51.1201H189.09V55.2209ZM161.689 54.8481H188.717V51.4929H161.689V54.8481Z" fill="#3F3D56"/>
<path d="M187.413 82.0625H160.012V85.7905H187.413V82.0625Z" fill="#F2F2F2"/>
<path d="M189.09 84.1125H161.317V80.0117H189.09V84.1125ZM161.689 83.7397H188.717V80.3845H161.689V83.7397Z" fill="#3F3D56"/>
<path d="M230.564 67.2437H160.105V70.9716H230.564V67.2437Z" fill="#F2F2F2"/>
<path d="M232.242 69.6667H161.41V65.5659H232.242V69.6667ZM161.783 69.2939H231.869V65.9387H161.783V69.2939Z" fill="#3F3D56"/>
<path d="M232.148 55.2209H204.375V51.1201H232.148V55.2209ZM204.747 54.8481H231.775V51.4929H204.747V54.8481Z" fill="#3F3D56"/>
<path d="M118.269 66.3202C115.237 66.3202 112.272 65.4209 109.75 63.736C107.229 62.0511 105.263 59.6563 104.103 56.8544C102.942 54.0526 102.639 50.9695 103.23 47.9951C103.822 45.0206 105.282 42.2884 107.427 40.144C109.571 37.9995 112.303 36.5391 115.278 35.9475C118.252 35.3558 121.335 35.6595 124.137 36.82C126.939 37.9806 129.334 39.946 131.019 42.4676C132.704 44.9892 133.603 47.9538 133.603 50.9865C133.598 55.0518 131.981 58.9493 129.107 61.824C126.232 64.6986 122.335 66.3156 118.269 66.3202ZM118.269 36.1175C115.329 36.1175 112.454 36.9895 110.009 38.6234C107.563 40.2572 105.658 42.5794 104.532 45.2964C103.407 48.0133 103.112 51.003 103.686 53.8873C104.26 56.7716 105.676 59.421 107.755 61.5005C109.835 63.58 112.484 64.9961 115.369 65.5698C118.253 66.1435 121.243 65.8491 123.96 64.7237C126.676 63.5983 128.999 61.6925 130.633 59.2473C132.266 56.8021 133.138 53.9273 133.138 50.9865C133.134 47.0444 131.566 43.265 128.778 40.4775C125.991 37.69 122.212 36.122 118.269 36.1175Z" fill="#3F3D56"/>
<path d="M239.545 172.958H173.796V173.423H239.545V172.958Z" fill="#3F3D56"/>
</g>
<defs>
<clipPath id="clip0">
<rect width="250" height="175.461" fill="white"/>
</clipPath>
</defs>
</svg>
