<svg width="250" height="153" viewBox="0 0 250 153" fill="none" xmlns="http://www.w3.org/2000/svg">
<g clip-path="url(#clip0)">
<path d="M224.923 152.015H27.1208V152.625H224.923V152.015Z" fill="#2F2E41"/>
<path d="M67.2609 6.05225H0V73.3132H67.2609V6.05225Z" fill="#3F3D56"/>
<path d="M67.2606 22.7864V24.3302C66.2355 23.651 65.408 22.7131 64.8619 21.6114C63.9664 19.78 63.9948 17.6689 64.0232 15.6268C64.0556 13.1997 64.088 10.9104 62.5483 9.41935C60.8546 7.78238 58.1439 8.01333 55.5224 8.23621C55.2144 8.26052 54.9065 8.28886 54.6026 8.31317C51.9729 8.51173 49.0434 7.84722 47.6212 6.05225H49.3959C50.6966 6.92744 52.6861 7.23538 54.5134 7.09761C54.8092 7.07735 55.1131 7.04899 55.417 7.02468C58.1763 6.78969 61.3044 6.52225 63.3911 8.54413C65.3117 10.3999 65.2752 13.066 65.2387 15.643C65.2104 17.5433 65.186 19.5044 65.9559 21.0765C66.2753 21.726 66.7185 22.3069 67.2606 22.7864Z" fill="#CDAB3C"/>
<path d="M67.2613 33.4631V35.2702C66.9661 34.8846 66.6351 34.5278 66.2726 34.2046C64.1819 32.361 61.1794 31.9558 58.2783 31.5587C57.9015 31.5101 57.5328 31.4574 57.164 31.4048C52.4598 30.7281 49.5425 29.1114 48.2499 26.4736C47.3545 24.6422 47.3828 22.5312 47.4112 20.489C47.4436 18.062 47.476 15.7727 45.9363 14.2816C44.2426 12.6446 41.5319 12.8756 38.9104 13.0984C38.6024 13.1228 38.2945 13.1511 37.9906 13.1754C34.6113 13.4307 30.7337 12.2597 30.2029 9.0952C30.0206 8.00928 30.2921 7.01254 30.6932 6.05225H32.0222C31.5765 7.01659 31.2442 7.94852 31.4023 8.89261C31.8034 11.3075 35.053 12.1746 37.9015 11.9598C38.1973 11.9396 38.5012 11.9112 38.805 11.8869C41.5644 11.6519 44.6924 11.3845 46.7791 13.4064C48.6997 15.2621 48.6632 17.9283 48.6268 20.5052C48.5984 22.4056 48.5741 24.3667 49.344 25.9388C50.446 28.1916 53.0595 29.5855 57.3383 30.2013C57.7029 30.254 58.0717 30.3067 58.4404 30.3553C61.5198 30.7727 64.7086 31.2062 67.0789 33.2929C67.1397 33.3456 67.2005 33.4023 67.2613 33.4631Z" fill="#CDAB3C"/>
<path d="M67.2607 63.925V66.421C65.798 64.865 64.5743 62.7297 63.6383 60.0595C63.4398 59.4923 63.2494 58.9128 63.0589 58.3334C62.0095 55.1608 60.9236 51.8829 58.3385 49.7881C55.5751 47.5514 51.6165 47.0571 47.7875 46.579C47.2972 46.5182 46.8069 46.4574 46.3207 46.3926C40.1132 45.5701 36.268 43.613 34.5622 40.412C33.379 38.1876 33.4155 35.6268 33.452 33.1511C33.4965 30.2095 33.5411 27.4299 31.5071 25.6227C29.2745 23.6373 25.6967 23.9169 22.2405 24.1884C21.8312 24.2208 21.426 24.2532 21.0289 24.2816C16.5678 24.5895 11.4503 23.1714 10.7534 19.3342C10.409 17.4542 11.2883 15.7889 12.1351 14.1762C12.6213 13.2524 13.0832 12.3731 13.3182 11.4696C13.8126 9.60977 13.2007 7.51496 11.8434 6.05225H13.8288C14.4017 6.88433 14.7915 7.82855 14.9724 8.82249C15.1533 9.81642 15.1212 10.8374 14.8782 11.818C14.5986 12.8756 14.08 13.8642 13.5776 14.8205C12.8036 16.2873 12.0784 17.673 12.3336 19.0911C12.8685 22.0166 17.1513 23.0701 20.9074 22.8107C21.3004 22.7824 21.7015 22.75 22.1027 22.7216C25.7413 22.4339 29.8661 22.1138 32.6213 24.5652C35.1537 26.814 35.1051 30.0474 35.0565 33.1714C35.0241 35.4769 34.9876 37.8553 36.0006 39.7638C37.4552 42.4906 40.9074 44.1843 46.5516 44.9339C47.0297 44.9987 47.516 45.0595 48.0022 45.1203C52.0703 45.6268 56.272 46.1495 59.396 48.6819C62.3255 51.0563 63.4803 54.5368 64.5905 57.9039C64.781 58.4793 64.9714 59.0465 65.1659 59.6098C65.6811 61.1301 66.3848 62.5798 67.2607 63.925Z" fill="#CDAB3C"/>
<path d="M0 33.2116C1.84765 35.4482 5.7658 36.2748 9.27877 36.0317C9.67585 36.0033 10.081 35.9709 10.4903 35.9385C13.9465 35.667 17.5243 35.3875 19.7569 37.3729C21.7909 39.18 21.7464 41.9596 21.7018 44.9012C21.6653 47.3769 21.6288 49.9377 22.812 52.1622C24.5178 55.3631 28.363 57.3202 34.5705 58.1427C35.0567 58.2076 35.547 58.2683 36.0373 58.3291C39.8663 58.8072 43.825 59.3016 46.5883 61.5382C49.1734 63.633 50.2593 66.911 51.3088 70.0836C51.4992 70.663 51.6896 71.2424 51.8882 71.8097C52.0705 72.3323 52.265 72.8307 52.4676 73.3129H54.2018C53.8979 72.6524 53.6386 71.992 53.4157 71.3599C53.2212 70.7967 53.0308 70.2294 52.8404 69.6541C51.7301 66.287 50.5754 62.8064 47.6459 60.432C44.5219 57.8996 40.3201 57.3769 36.252 56.8704C35.7658 56.8097 35.2796 56.7489 34.8015 56.6841C29.1572 55.9345 25.705 54.2408 24.2504 51.5139C23.2374 49.6055 23.2739 47.227 23.3063 44.9215C23.355 41.7975 23.4036 38.5641 20.8712 36.3153C18.1159 33.864 13.9911 34.1841 10.3525 34.4718C9.95139 34.5001 9.55025 34.5325 9.15722 34.5609C5.40114 34.8202 1.11832 33.7667 0.583477 30.8413C0.328219 29.4231 1.0535 28.0374 1.8274 26.5706C2.32983 25.6144 2.84847 24.6257 3.12805 23.5682C3.8898 20.6752 2.60536 17.4701 9.11735e-06 15.7197V17.7051C1.42221 19.1719 2.07052 21.3154 1.56808 23.2197C1.33307 24.1233 0.87116 25.0025 0.384936 25.9264C0.255278 26.1735 0.125614 26.4166 9.11735e-06 26.6679L0 33.2116Z" fill="#CDAB3C"/>
<path d="M29.7528 73.3132H28.0713C27.9822 73.0498 27.8971 72.7824 27.8079 72.515C26.7585 69.3424 25.6726 66.0644 23.0875 63.9696C20.3241 61.733 16.3655 61.2387 12.5365 60.7605C12.0462 60.6998 11.5559 60.639 11.0697 60.5741C5.59157 59.8489 1.94895 58.2362 0 55.6674V51.6357C0.125257 52.4406 0.378308 53.2203 0.749584 53.9453C2.20422 56.6722 5.65641 58.3659 11.3007 59.1155C11.7788 59.1803 12.265 59.2411 12.7512 59.3019C16.8193 59.8083 21.0211 60.331 24.1451 62.8634C27.0746 65.2379 28.2293 68.7184 29.3395 72.0855C29.4773 72.4988 29.611 72.908 29.7528 73.3132Z" fill="#CDAB3C"/>
<path d="M158.428 6.05225H91.167V73.3132H158.428V6.05225Z" fill="#3F3D56"/>
<path d="M123.582 10.9145C123.582 14.7039 122.579 18.4258 120.675 21.7023C118.771 24.9789 116.034 27.6933 112.742 29.5702C109.45 31.447 105.72 32.4194 101.931 32.3887C98.1418 32.3579 94.4281 31.3251 91.167 29.395V6.05225H123.027C123.398 7.64635 123.584 9.27782 123.582 10.9145Z" fill="#CDAB3C"/>
<path d="M141.005 37.2513C148.166 37.2513 153.971 31.4462 153.971 24.2853C153.971 17.1244 148.166 11.3193 141.005 11.3193C133.844 11.3193 128.039 17.1244 128.039 24.2853C128.039 31.4462 133.844 37.2513 141.005 37.2513Z" fill="#CDAB3C"/>
<path d="M111.831 61.1576C116.978 61.1576 121.151 56.9852 121.151 51.8383C121.151 46.6914 116.978 42.519 111.831 42.519C106.684 42.519 102.512 46.6914 102.512 51.8383C102.512 56.9852 106.684 61.1576 111.831 61.1576Z" fill="#CDAB3C"/>
<path d="M158.428 62.2918V73.3128H145.093C144.527 71.54 144.504 69.6383 145.028 67.8526C145.552 66.0668 146.599 64.4789 148.034 63.2933C149.468 62.1077 151.225 61.3787 153.077 61.2002C154.93 61.0217 156.793 61.4019 158.428 62.2918H158.428Z" fill="#CDAB3C"/>
<path d="M135.332 53.8642C136.675 53.8642 137.763 52.7757 137.763 51.4331C137.763 50.0904 136.675 49.002 135.332 49.002C133.989 49.002 132.901 50.0904 132.901 51.4331C132.901 52.7757 133.989 53.8642 135.332 53.8642Z" fill="#CDAB3C"/>
<path d="M250 6.05225H182.739V73.3132H250V6.05225Z" fill="#3F3D56"/>
<path d="M215.559 6.05225V33.6049H182.739V35.2257H217.18V6.05225H215.559Z" fill="#CDAB3C"/>
<path d="M247.216 73.3128L250 69.3541V66.5381L245.235 73.3128H247.216ZM235.912 44.3096L220.997 65.5211L232.079 73.3128H234.895L223.254 65.1281L236.305 46.5665L250 56.1978V54.2164L235.912 44.3096Z" fill="#CDAB3C"/>
<path d="M211.102 41.6235L202.508 50.2175L211.102 58.8115L219.696 50.2176L211.102 41.6235ZM204.797 50.2175L211.102 43.9128L217.407 50.2175L211.102 56.5222L204.797 50.2175Z" fill="#CDAB3C"/>
<path d="M121.032 41.6669C124.235 41.6669 126.831 39.0703 126.831 35.8671C126.831 32.664 124.235 30.0674 121.032 30.0674C117.828 30.0674 115.232 32.664 115.232 35.8671C115.232 39.0703 117.828 41.6669 121.032 41.6669Z" fill="#FFB8B8"/>
<path d="M117.979 38.6142C117.979 38.6142 119.506 46.5507 118.895 48.0769C118.285 49.6032 127.442 47.4664 127.442 47.4664C127.442 47.4664 125.611 39.5299 125.916 37.6984C126.221 35.8669 117.979 38.6142 117.979 38.6142Z" fill="#FFB8B8"/>
<path d="M107.906 66.0869L108.517 74.3286L111.547 87.2722L112.485 90.8121L114.011 85.3176L112.485 72.8023L111.967 67.1677L107.906 66.0869Z" fill="#FFB8B8"/>
<path d="M139.957 64.8657V73.4127C139.957 73.4127 139.042 84.4017 137.21 87.149C135.379 89.8963 134.768 76.16 134.768 76.16L136.203 66.0867L139.957 64.8657Z" fill="#FFB8B8"/>
<path d="M112.79 91.4223C112.79 91.4223 111.264 93.2538 112.485 111.874C113.706 130.494 111.874 143.925 115.843 143.925C115.843 143.925 114.622 147.894 117.979 148.199C121.337 148.504 122.863 148.809 123.169 147.894C123.474 146.978 124.084 142.704 123.169 142.704C123.169 142.704 123.169 143.925 123.779 139.041C124.39 134.157 124.39 110.958 125.916 107.906L130.8 119.2C130.8 119.2 130.8 124.389 131.716 126.831C132.631 129.273 134.158 143.315 134.158 143.315L133.852 145.452C133.852 145.452 141.178 146.673 141.484 145.452C141.789 144.231 141.789 142.399 141.484 141.789C141.178 141.178 141.178 141.178 141.789 139.957C142.399 138.736 142.399 137.82 142.094 136.905C141.789 135.989 141.789 116.148 141.789 116.148C141.789 116.148 141.178 92.0328 137.515 90.8118C133.852 89.5908 112.79 91.4223 112.79 91.4223Z" fill="#2F2E41"/>
<path d="M116.758 145.757L114.316 150.03C114.316 150.03 110.501 148.657 111.264 152.167C117.827 152.625 122.405 152.014 122.405 152.014C122.405 152.014 123.932 152.625 124.237 151.709C124.542 150.793 123.474 147.588 122.558 147.588C121.642 147.588 116.758 145.757 116.758 145.757Z" fill="#2F2E41"/>
<path d="M134.463 144.536C134.463 144.536 132.021 150.031 132.937 150.336C133.852 150.641 142.094 151.862 142.705 152.167C143.315 152.473 146.368 152.778 146.673 150.946C146.978 149.115 145.147 148.504 145.147 148.504C145.147 148.504 141.789 147.894 140.873 144.841C139.957 141.789 134.463 144.536 134.463 144.536Z" fill="#2F2E41"/>
<path d="M128.052 46.5509C128.052 46.5509 119.811 45.0246 117.979 46.5509C116.148 48.0771 108.516 51.1296 108.516 52.6559C108.516 54.1822 112.485 69.1394 112.485 69.1394C112.485 69.1394 110.348 91.7279 112.485 92.3384C114.621 92.9489 118.284 91.1174 122.558 93.2542C126.831 95.3909 139.041 91.4227 139.041 91.4227C139.041 91.4227 134.463 71.8867 135.684 68.2237C136.905 64.5607 137.82 52.0454 137.82 52.0454C137.82 52.0454 132.631 46.5509 128.052 46.5509Z" fill="#8985A8"/>
<path d="M110.653 51.7397L108.516 52.3503C108.516 52.3503 103.937 66.697 105.769 67.3075C107.6 67.918 112.79 69.139 113.4 69.139C114.011 69.139 110.653 51.7397 110.653 51.7397Z" fill="#8985A8"/>
<path d="M132.937 50.2139L137.821 52.0454C137.821 52.0454 144.231 63.9501 142.705 65.4764C141.179 67.0026 134.463 68.5289 134.463 68.5289L132.937 50.2139Z" fill="#8985A8"/>
<path d="M120.855 28.7034C120.373 28.616 119.877 28.6379 119.405 28.7674C119.026 28.935 118.678 29.1635 118.374 29.4438C117.821 29.8839 117.231 30.2748 116.611 30.6118C116.116 30.8803 115.584 31.1288 115.239 31.5733C115.076 31.7979 114.945 32.0446 114.852 32.3061C114.257 33.8253 114.097 35.4802 114.39 37.0852C114.423 37.3132 114.492 37.5347 114.594 37.7414C114.911 38.326 115.612 38.5563 116.202 38.8627C117.323 39.4445 118.172 40.4241 119.091 41.2898C119.433 41.6306 119.816 41.9263 120.233 42.1696C121.544 42.8846 123.147 42.6513 124.619 42.3985C124.723 42.3983 124.827 42.3775 124.923 42.3372C125.019 42.2969 125.106 42.238 125.18 42.1638C125.253 42.0896 125.311 42.0016 125.35 41.905C125.389 41.8083 125.409 41.7048 125.408 41.6005L126.57 36.3745C126.781 35.6002 126.881 34.8 126.868 33.9977C126.787 32.7291 126.1 30.9717 125.169 30.0706C124.084 29.0206 122.274 28.8535 120.855 28.7034Z" fill="#2F2E41"/>
</g>
<defs>
<clipPath id="clip0">
<rect width="250" height="152.625" fill="white"/>
</clipPath>
</defs>
</svg>
