<svg width="250" height="162" viewBox="0 0 250 162" fill="none" xmlns="http://www.w3.org/2000/svg">
<g clip-path="url(#clip0)">
<path d="M22.0624 128.634C23.678 128.634 24.9878 127.324 24.9878 125.709C24.9878 124.093 23.678 122.783 22.0624 122.783C20.4467 122.783 19.137 124.093 19.137 125.709C19.137 127.324 20.4467 128.634 22.0624 128.634Z" fill="#D0CDE1"/>
<path d="M14.749 140.092C17.4417 140.092 19.6246 137.909 19.6246 135.216C19.6246 132.523 17.4417 130.34 14.749 130.34C12.0562 130.34 9.87329 132.523 9.87329 135.216C9.87329 137.909 12.0562 140.092 14.749 140.092Z" fill="#CDAB3C"/>
<path d="M71.9177 34.9234C77.3315 34.9234 81.7202 30.5346 81.7202 25.1209C81.7202 19.7071 77.3315 15.3184 71.9177 15.3184C66.504 15.3184 62.1152 19.7071 62.1152 25.1209C62.1152 30.5346 66.504 34.9234 71.9177 34.9234Z" fill="#2F2E41"/>
<path d="M85.8513 84.5L87.3375 87.4723C87.3375 87.4723 92.0932 95.2004 88.8237 96.0921C85.5541 96.9838 84.5138 90.296 84.5138 90.296L83.9193 86.7293L85.8513 84.5Z" fill="#A0616A"/>
<path d="M79.9068 69.3408L83.6223 79.1494L87.3376 85.9859L82.7306 88.9583L79.0151 82.4191L74.5568 72.1646L79.9068 69.3408Z" fill="#D0CDE1"/>
<path d="M69.3554 115.263L61.9246 123.14L48.8463 145.284L43.1989 143.5L49.8866 130.274C49.8866 130.274 53.7506 120.168 55.6827 118.83C57.6147 117.492 60.8842 108.724 60.8842 108.724L64.451 105.9L69.3554 115.263Z" fill="#A0616A"/>
<path d="M84.6626 119.573L85.2571 122.1C85.2571 122.1 87.1891 129.976 90.1614 133.543L97.295 145.878L102.645 144.095L92.0934 119.127L84.6626 119.573Z" fill="#A0616A"/>
<path d="M73.5906 36.5711C78.0229 36.5711 81.6159 32.9781 81.6159 28.5458C81.6159 24.1136 78.0229 20.5205 73.5906 20.5205C69.1584 20.5205 65.5653 24.1136 65.5653 28.5458C65.5653 32.9781 69.1584 36.5711 73.5906 36.5711Z" fill="#A0616A"/>
<path d="M67.2746 32.4839L66.2343 41.1037L72.922 44.3732C72.922 44.3732 72.922 36.9424 74.7054 35.0104L67.2746 32.4839Z" fill="#A0616A"/>
<path d="M46.3194 88.0664L45.5763 90.5929C45.5763 90.5929 40.672 100.253 44.8332 100.253C48.9945 100.253 49.7376 91.336 49.7376 91.336L50.1834 89.1067L46.3194 88.0664Z" fill="#A0616A"/>
<path d="M80.5012 77.9604L79.4609 85.2427L92.0933 111.845L92.8364 119.573L69.2064 122.545L64.0048 108.13L55.6823 118.83L60.438 107.832C60.438 107.832 61.9241 100.402 61.4783 98.4695C61.0324 96.5375 61.7755 86.8774 63.1131 84.4996C64.4506 82.1217 80.5012 77.9604 80.5012 77.9604Z" fill="#2F2E41"/>
<path d="M49.7377 145.284L42.6041 142.906L40.3748 146.473C40.3748 146.473 36.0649 147.662 36.2135 150.783C36.3622 153.904 35.4705 159.254 35.4705 159.254L38.5914 159.551L39.7803 153.458L45.8736 160.74C45.8736 160.74 56.7226 161.335 57.1685 159.551C57.6143 157.768 49.4404 155.836 49.4404 155.836L48.1029 149.445L49.7377 145.284Z" fill="#2F2E41"/>
<path d="M103.091 143.203L96.552 145.284V146.77C96.552 146.77 94.62 149.742 94.9172 152.269C95.2144 154.795 96.552 160.889 96.552 160.889H99.9702L99.8215 155.241L106.658 160.889C106.658 160.889 118.844 159.997 118.844 158.065C118.844 156.133 109.482 154.795 109.482 154.795L103.091 143.203Z" fill="#2F2E41"/>
<path d="M73.3681 42.5897C73.3681 42.5897 67.2748 36.4964 64.4511 37.9826V40.6576C64.4511 40.6576 60.2898 42.5897 60.1412 45.562C59.9926 48.5343 55.6827 75.5826 55.6827 75.5826L45.5768 110.805C45.5768 110.805 48.6977 115.709 60.1412 110.21L67.2748 85.9858C67.2748 85.9858 59.6954 113.331 63.4108 112.885C67.1262 112.44 81.6906 78.5549 81.6906 78.5549L80.6503 62.5043C80.6503 62.5043 83.0282 55.5193 78.2725 50.7636L73.3681 42.5897Z" fill="#D0CDE1"/>
<path d="M62.9642 43.4814C62.9642 43.4814 60.4377 44.3732 58.6543 48.2372C56.8709 52.1012 47.9539 79.2981 47.9539 79.2981L45.576 88.9581L52.2638 90.5929L55.5334 80.6356L67.7199 58.0459C67.7199 58.0459 69.652 46.1565 62.9642 43.4814Z" fill="#D0CDE1"/>
<path d="M63.5517 22.1434C63.702 20.3089 64.5803 18.4285 66.2045 17.5628C65.3889 15.9245 64.66 14.0547 65.1977 12.3054C65.4158 11.6268 65.8108 11.0185 66.342 10.5431C66.8733 10.0677 67.5215 9.7425 68.2202 9.60085C69.0001 9.49353 69.7917 9.50378 70.5686 9.63124L74.2306 10.0466C75.4187 10.1814 76.6525 10.3317 77.663 10.9709C78.1889 11.3036 78.6294 11.7551 78.9491 12.2892C79.2687 12.8232 79.4584 13.4248 79.5031 14.0456C79.5478 14.6663 79.4461 15.2889 79.2063 15.8632C78.9664 16.4375 78.5951 16.9475 78.1222 17.3521C80.6843 19.4015 82.3966 20.9572 83.5624 24.024C81.426 22.3042 79.3814 21.6951 76.6428 21.5469C74.9284 21.4541 73.2453 22.0335 71.9513 23.162C70.6573 24.2905 69.8544 25.8791 69.7131 27.5902C69.6425 28.446 69.7369 29.3273 69.4879 30.1491C69.2388 30.9709 68.4884 31.7408 67.6382 31.6207C67.7561 31.6374 68.482 29.4574 67.971 28.4512L67.963 28.435C67.8505 28.227 67.6652 28.068 67.4425 27.9885C67.244 27.9123 67.0314 27.8793 66.8191 27.8916C66.6068 27.9039 66.3995 27.9613 66.2111 28.0599C66.0226 28.1585 65.8573 28.2961 65.7261 28.4635C65.595 28.6309 65.5009 28.8243 65.4502 29.0308C65.166 30.1227 64.7111 31.5158 64.3137 31.146C63.7934 30.6617 64.0123 26.3915 63.8719 25.7296C63.5916 24.556 63.4838 23.348 63.5517 22.1434Z" fill="#2F2E41"/>
<path d="M66.245 17.5335C66.245 17.5335 74.2995 18.0588 78.1517 17.3584L66.245 17.5335Z" fill="#D0CDE1"/>
<path d="M66.7016 16.4554C65.8859 14.8171 65.157 12.9473 65.6946 11.1981C65.9458 10.4094 66.437 9.71897 67.0997 9.22314C66.5935 9.45584 66.1411 9.79118 65.7713 10.2079C65.4016 10.6246 65.1224 11.1136 64.9515 11.6439C64.4139 13.3932 65.1428 15.263 65.9585 16.9012C66.6054 16.8046 65.0772 17.3212 66.7016 16.4554Z" fill="#2F2E41"/>
<path opacity="0.2" d="M69.2812 58.1201L57.689 78.6294L53.2305 89.7757L59.4725 79.0753L69.2812 58.1201Z" fill="black"/>
<path d="M16.3095 138.142H15.8219V160.813H16.3095V138.142Z" fill="#3F3D56"/>
<path d="M16.2116 138.629C15.1991 138.629 14.2093 138.329 13.3674 137.766C12.5255 137.204 11.8693 136.404 11.4819 135.469C11.0944 134.533 10.993 133.504 11.1905 132.511C11.3881 131.518 11.8757 130.606 12.5916 129.89C13.3076 129.174 14.2198 128.686 15.2129 128.489C16.2059 128.291 17.2353 128.392 18.1707 128.78C19.1062 129.167 19.9058 129.823 20.4683 130.665C21.0308 131.507 21.3311 132.497 21.3311 133.51C21.3295 134.867 20.7897 136.168 19.8299 137.128C18.8702 138.088 17.5689 138.628 16.2116 138.629ZM16.2116 128.878C15.2955 128.878 14.4 129.149 13.6383 129.658C12.8766 130.167 12.2829 130.891 11.9323 131.737C11.5817 132.583 11.49 133.515 11.6687 134.413C11.8475 135.312 12.2886 136.137 12.9364 136.785C13.5842 137.433 14.4095 137.874 15.308 138.052C16.2065 138.231 17.1378 138.139 17.9842 137.789C18.8305 137.438 19.5539 136.845 20.0629 136.083C20.5719 135.321 20.8435 134.426 20.8435 133.51C20.8421 132.282 20.3537 131.104 19.4853 130.236C18.617 129.368 17.4396 128.879 16.2116 128.878Z" fill="#3F3D56"/>
<path d="M20.356 129.853C19.7292 129.853 19.1164 129.667 18.5953 129.319C18.0741 128.971 17.6679 128.476 17.428 127.897C17.1881 127.318 17.1254 126.68 17.2477 126.066C17.3699 125.451 17.6718 124.886 18.115 124.443C18.5582 124 19.1229 123.698 19.7377 123.576C20.3524 123.453 20.9897 123.516 21.5688 123.756C22.1478 123.996 22.6428 124.402 22.991 124.923C23.3393 125.444 23.5251 126.057 23.5251 126.684C23.5242 127.524 23.19 128.33 22.5959 128.924C22.0017 129.518 21.1962 129.852 20.356 129.853ZM20.356 124.002C19.8256 124.002 19.3071 124.16 18.8661 124.454C18.4251 124.749 18.0814 125.168 17.8785 125.658C17.6755 126.148 17.6224 126.687 17.7259 127.207C17.8293 127.727 18.0847 128.205 18.4598 128.58C18.8348 128.955 19.3126 129.21 19.8328 129.314C20.353 129.417 20.8922 129.364 21.3822 129.161C21.8722 128.958 22.291 128.615 22.5856 128.174C22.8803 127.733 23.0376 127.214 23.0376 126.684C23.0368 125.973 22.754 125.291 22.2513 124.789C21.7485 124.286 21.0669 124.003 20.356 124.002Z" fill="#3F3D56"/>
<path d="M120.535 67.739C122.15 67.739 123.46 66.4292 123.46 64.8136C123.46 63.1979 122.15 61.8882 120.535 61.8882C118.919 61.8882 117.609 63.1979 117.609 64.8136C117.609 66.4292 118.919 67.739 120.535 67.739Z" fill="#D0CDE1"/>
<path d="M109.716 64.5087C112.408 64.5087 114.591 62.3257 114.591 59.633C114.591 56.9402 112.408 54.7573 109.716 54.7573C107.023 54.7573 104.84 56.9402 104.84 59.633C104.84 62.3257 107.023 64.5087 109.716 64.5087Z" fill="#CDAB3C"/>
<path d="M111.679 65.8304C110.363 65.8304 109.098 65.3257 108.144 64.4203C107.189 63.5149 106.619 62.2778 106.549 60.9641C106.48 59.6505 106.918 58.3603 107.772 57.3597C108.626 56.359 109.831 55.7242 111.139 55.586C112.448 55.4479 113.759 55.8169 114.803 56.6171C115.847 57.4173 116.545 58.5875 116.751 59.8867C116.958 61.1858 116.658 62.5148 115.914 63.5996C115.17 64.6844 114.038 65.4423 112.752 65.7171C112.399 65.7923 112.039 65.8302 111.679 65.8304ZM111.698 56.0759C111.372 56.076 111.047 56.1103 110.728 56.1782C109.526 56.4333 108.475 57.1552 107.805 58.1852C107.136 59.2153 106.903 60.4691 107.158 61.6708C107.413 62.8725 108.135 63.9236 109.165 64.593C110.195 65.2625 111.449 65.4953 112.651 65.2403C113.769 65.0023 114.76 64.3588 115.433 63.4338C116.106 62.5088 116.413 61.3677 116.295 60.23C116.176 59.0923 115.642 58.0386 114.793 57.2717C113.944 56.5047 112.842 56.0788 111.698 56.0759Z" fill="#3F3D56"/>
<path d="M119.22 66.517C118.405 66.517 117.622 66.2045 117.032 65.644C116.441 65.0836 116.088 64.3178 116.045 63.5046C116.002 62.6915 116.273 61.8929 116.802 61.2735C117.33 60.6542 118.076 60.2613 118.886 60.1758C119.696 60.0903 120.508 60.3188 121.154 60.8141C121.8 61.3094 122.232 62.0339 122.36 62.8381C122.488 63.6422 122.302 64.4648 121.842 65.1363C121.381 65.8078 120.68 66.2769 119.884 66.4469C119.666 66.4934 119.443 66.5169 119.22 66.517ZM119.227 60.6648C118.672 60.6646 118.131 60.8362 117.679 61.156C117.226 61.4758 116.883 61.928 116.698 62.4505C116.513 62.9731 116.494 63.5401 116.644 64.0737C116.794 64.6073 117.106 65.0813 117.537 65.4303C117.968 65.7794 118.496 65.9864 119.049 66.0228C119.602 66.0593 120.153 65.9235 120.626 65.634C121.099 65.3445 121.47 64.9156 121.689 64.4064C121.908 63.8971 121.964 63.3325 121.849 62.7902C121.722 62.189 121.392 61.6498 120.914 61.2629C120.437 60.8759 119.841 60.6648 119.227 60.6648H119.227Z" fill="#3F3D56"/>
<path d="M192.823 16.4201C194.439 16.4201 195.749 15.1104 195.749 13.4947C195.749 11.8791 194.439 10.5693 192.823 10.5693C191.207 10.5693 189.898 11.8791 189.898 13.4947C189.898 15.1104 191.207 16.4201 192.823 16.4201Z" fill="#D0CDE1"/>
<path d="M201.166 9.75183C203.859 9.75183 206.042 7.56892 206.042 4.87616C206.042 2.1834 203.859 0.000488281 201.166 0.000488281C198.473 0.000488281 196.29 2.1834 196.29 4.87616C196.29 7.56892 198.473 9.75183 201.166 9.75183Z" fill="#CDAB3C"/>
<path d="M199.523 11.5259C198.802 11.526 198.089 11.3738 197.43 11.0791C196.772 10.7844 196.183 10.3539 195.702 9.81581C195.222 9.27774 194.86 8.64422 194.642 7.95675C194.423 7.26927 194.352 6.54334 194.433 5.82652C194.545 4.84525 194.938 3.9173 195.566 3.15453C196.193 2.39176 197.028 1.82674 197.969 1.5276C198.91 1.22845 199.918 1.20795 200.87 1.46856C201.823 1.72917 202.68 2.25976 203.338 2.99638C203.996 3.73299 204.427 4.64418 204.578 5.62008C204.73 6.59598 204.596 7.59494 204.193 8.49651C203.79 9.39808 203.134 10.1638 202.306 10.7013C201.477 11.2388 200.511 11.5252 199.523 11.5259ZM194.917 5.88176C194.796 6.94649 195.048 8.02036 195.629 8.92039C196.211 9.82043 197.087 10.4909 198.107 10.8177C199.128 11.1444 200.23 11.1072 201.226 10.7123C202.223 10.3174 203.051 9.5893 203.571 8.65205C204.09 7.71481 204.269 6.6264 204.076 5.57229C203.883 4.51817 203.33 3.56357 202.513 2.87113C201.695 2.17869 200.662 1.79126 199.591 1.77485C198.519 1.75844 197.475 2.11407 196.636 2.78113C195.675 3.54623 195.057 4.66136 194.917 5.88176Z" fill="#3F3D56"/>
<path d="M194.635 15.8885C194.513 15.8885 194.392 15.8816 194.27 15.8677C193.436 15.7716 192.673 15.3484 192.15 14.6908C191.627 14.0332 191.386 13.195 191.48 12.36C191.55 11.7528 191.793 11.1787 192.181 10.7067C192.57 10.2347 193.086 9.88504 193.668 9.69982C194.251 9.51461 194.874 9.50174 195.464 9.66278C196.053 9.82381 196.584 10.1519 196.991 10.6074C197.398 11.063 197.665 11.6266 197.76 12.2304C197.854 12.8342 197.772 13.4524 197.523 14.0106C197.274 14.5687 196.869 15.0429 196.356 15.3761C195.844 15.7093 195.246 15.8872 194.635 15.8885V15.8885ZM191.965 12.4153C191.905 12.9423 192.002 13.4753 192.245 13.9469C192.488 14.4185 192.865 14.8075 193.329 15.0647C193.793 15.3219 194.323 15.4357 194.851 15.3918C195.38 15.3479 195.884 15.1483 196.299 14.8181C196.714 14.4879 197.022 14.042 197.183 13.5368C197.345 13.0316 197.353 12.4898 197.207 11.9799C197.061 11.47 196.767 11.015 196.362 10.6722C195.957 10.3295 195.46 10.1146 194.933 10.0546C194.226 9.97494 193.517 10.1788 192.961 10.6213C192.404 11.0639 192.046 11.709 191.965 12.4153Z" fill="#3F3D56"/>
<path d="M192.711 33.3145H142.979V89.8722H192.711V33.3145Z" fill="#D0CDE1"/>
<path d="M242.443 33.3145H191.492V89.8722H242.443V33.3145Z" fill="#3F3D56"/>
<path d="M192.711 41.1157H142.979V50.3795H192.711V41.1157Z" fill="#CDAB3C"/>
<path d="M242.443 41.1157H192.711V50.3795H242.443V41.1157Z" fill="#D0CDE1"/>
<path d="M192.711 72.0762H142.979V81.34H192.711V72.0762Z" fill="#3F3D56"/>
<path d="M242.443 72.0762H192.711V81.34H242.443V72.0762Z" fill="#CDAB3C"/>
<path d="M191.492 36.2402V86.9472C198.216 86.9472 204.665 84.276 209.42 79.5213C214.174 74.7666 216.845 68.3179 216.845 61.5937C216.845 54.8696 214.174 48.4208 209.42 43.6661C204.665 38.9114 198.216 36.2402 191.492 36.2402Z" fill="#D0CDE1"/>
<path d="M166.138 61.5937C166.138 64.9232 166.794 68.22 168.068 71.2961C169.342 74.3721 171.21 77.167 173.564 79.5213C178.319 84.276 184.768 86.9472 191.492 86.9472V36.2402C184.768 36.2402 178.319 38.9114 173.564 43.6661C168.81 48.4208 166.138 54.8696 166.138 61.5937Z" fill="#CDAB3C"/>
<path d="M178.328 61.5935C178.328 65.0849 179.715 68.4333 182.183 70.9021C184.652 73.3709 188.001 74.7578 191.492 74.7578V48.4292C188.001 48.4292 184.652 49.8161 182.183 52.2849C179.715 54.7537 178.328 58.1021 178.328 61.5935Z" fill="#3F3D56"/>
<path d="M204.656 61.5935C204.656 65.0849 203.269 68.4333 200.801 70.9021C198.332 73.3709 194.983 74.7578 191.492 74.7578V48.4292C194.983 48.4292 198.332 49.8161 200.801 52.2849C203.269 54.7537 204.656 58.1021 204.656 61.5935Z" fill="#CDAB3C"/>
<path d="M250 99.8674H135.422V23.3193H250V99.8674ZM135.909 99.3798H249.512V23.8069H135.909V99.3798Z" fill="#3F3D56"/>
<path d="M141.638 160.57H0V161.057H141.638V160.57Z" fill="#3F3D56"/>
</g>
<defs>
<clipPath id="clip0">
<rect width="250" height="161.057" fill="white"/>
</clipPath>
</defs>
</svg>
