<svg width="250" height="161" viewBox="0 0 250 161" fill="none" xmlns="http://www.w3.org/2000/svg">
<g clip-path="url(#clip0)">
<path d="M250 0.141602H0.106689V160.184H250V0.141602Z" fill="#E2E2E2"/>
<path d="M242.854 17.5718H7.2522V153.315H242.854V17.5718Z" fill="white"/>
<path d="M249.893 0H0V10.6164H249.893V0Z" fill="#644A98"/>
<path d="M7.88936 7.5585C9.06631 7.5585 10.0204 6.60439 10.0204 5.42744C10.0204 4.25049 9.06631 3.29639 7.88936 3.29639C6.71241 3.29639 5.7583 4.25049 5.7583 5.42744C5.7583 6.60439 6.71241 7.5585 7.88936 7.5585Z" fill="white"/>
<path d="M15.3579 7.5585C16.5348 7.5585 17.4889 6.60439 17.4889 5.42744C17.4889 4.25049 16.5348 3.29639 15.3579 3.29639C14.1809 3.29639 13.2268 4.25049 13.2268 5.42744C13.2268 6.60439 14.1809 7.5585 15.3579 7.5585Z" fill="white"/>
<path d="M22.8265 7.5585C24.0034 7.5585 24.9575 6.60439 24.9575 5.42744C24.9575 4.25049 24.0034 3.29639 22.8265 3.29639C21.6495 3.29639 20.6954 4.25049 20.6954 5.42744C20.6954 6.60439 21.6495 7.5585 22.8265 7.5585Z" fill="white"/>
<path d="M150.585 48.4565H99.8344V92.7825H150.585V48.4565Z" fill="#E2E2E2"/>
<path d="M117.363 51.7139L118.921 57.9454L118.253 67.0703L124.263 71.7438L126.265 56.1649L125.153 52.3816L117.363 51.7139Z" fill="#FFB8B8"/>
<path d="M122.927 65.7347L124.04 59.7257L126.266 55.4971L131.829 77.9752L119.144 79.7556L115.806 61.7288L118.652 56.8689L120.702 60.6159L122.927 65.7347Z" fill="white"/>
<path d="M137.242 92.782H116.137L116.251 91.1058L121.145 87.9907H127.823L137.171 91.9971L137.242 92.782Z" fill="#2F2E41"/>
<path d="M121.592 55.0522C124.542 55.0522 126.934 52.6609 126.934 49.7109C126.934 46.761 124.542 44.3696 121.592 44.3696C118.642 44.3696 116.251 46.761 116.251 49.7109C116.251 52.6609 118.642 55.0522 121.592 55.0522Z" fill="#FFB8B8"/>
<path d="M141.845 75.5278L136.727 71.2976L137.238 82.3613L137.288 83.4234L137.352 84.8263L137.494 87.8879L137.721 92.7822H126.579L125.819 90.4381L125.517 92.7822H115.327C115.256 91.5533 115.217 90.0722 115.281 88.5769C115.32 87.2051 115.495 85.8405 115.803 84.5031C115.994 83.5937 116.374 82.7346 116.918 81.9813L114.915 74.86L114.024 79.3104L107.794 79.7544C107.794 79.7544 107.797 79.6407 107.808 79.4276V79.4241C107.897 77.2326 108.554 64.8299 111.8 62.3969L118.41 55.9007C118.41 55.9007 118.414 56.3731 118.478 57.1687V57.1723C118.527 57.8471 118.62 58.7528 118.787 59.8006V59.8112C119.16 62.1732 119.898 65.2454 121.369 67.959C121.912 68.9606 122.353 69.813 122.711 70.5376C124.263 73.6809 124.263 74.4161 124.263 74.4161L124.906 66.7549L124.91 66.7265L124.913 66.6981L125.769 56.4406L125.897 54.9098V54.9062C125.897 54.9062 136.059 56.6111 139.174 61.2852C141.678 65.0359 146.334 71.0916 148.067 73.3257C148.089 73.3506 148.106 73.3754 148.128 73.4003L148.387 73.7377C148.437 73.8016 148.483 73.8585 148.522 73.9118C148.565 73.965 148.6 74.0077 148.629 74.0467L148.742 74.1923L141.845 75.5278Z" fill="#B3A3D4"/>
<path d="M124.708 78.4203C125.077 78.4203 125.376 78.1214 125.376 77.7526C125.376 77.3839 125.077 77.085 124.708 77.085C124.339 77.085 124.04 77.3839 124.04 77.7526C124.04 78.1214 124.339 78.4203 124.708 78.4203Z" fill="#2F2E41"/>
<path d="M125.598 84.4296C125.967 84.4296 126.266 84.1306 126.266 83.7619C126.266 83.3932 125.967 83.0942 125.598 83.0942C125.229 83.0942 124.93 83.3932 124.93 83.7619C124.93 84.1306 125.229 84.4296 125.598 84.4296Z" fill="#2F2E41"/>
<path d="M139.174 86.2098L137.171 88.2127L135.835 84.6518L137.287 83.4248L139.174 86.2098Z" fill="#FFB8B8"/>
<path d="M113.803 87.1L115.806 89.1029L116.251 84.6518L114.916 84.2065L113.803 87.1Z" fill="#FFB8B8"/>
<path d="M115.361 45.6003C115.361 45.6003 113.803 43.624 115.361 42.6359V43.1299C115.361 43.1299 118.699 39.4244 120.702 40.4125L122.482 39.9185V40.4125L123.595 39.9185L123.372 40.6596H124.93L124.263 41.1536C124.263 41.1536 129.381 40.9066 126.266 44.6121C126.266 44.6121 127.747 46.8338 126.339 48.0698C126.339 48.0698 125.153 45.3532 123.595 46.0944C123.173 46.3134 122.697 46.4066 122.223 46.3628C121.75 46.3191 121.299 46.1401 120.924 45.8473C120.924 45.8473 117.809 45.6003 118.254 47.0825C118.699 48.5647 118.476 49.0588 118.476 49.0588C118.476 49.0588 117.363 49.7999 117.586 50.294C117.809 50.7881 117.809 52.2703 117.809 52.2703C117.809 52.2703 116.696 50.541 116.251 50.788C115.806 51.0351 113.358 48.5647 115.361 45.6003Z" fill="#2F2E41"/>
<path d="M108.684 78.8653L107.794 79.4357V79.9781C107.844 80.9323 108.152 81.855 108.684 82.6488C109.574 83.9841 114.47 88.4352 114.47 88.4352L115.806 83.7615L114.025 79.3104L112.912 77.9751L108.684 78.8653Z" fill="#B3A3D4"/>
<path d="M145.628 73.0791L148.07 73.3269L148.744 74.1919C148.744 74.1919 149.189 76.1949 148.299 77.3077C147.409 78.4204 139.619 87.5452 139.619 87.5452L136.281 83.5392L142.067 76.4174L141.845 75.5272L145.628 73.0791Z" fill="#B3A3D4"/>
<path d="M227.445 48.021H176.196V92.7818H227.445V48.021Z" fill="#E2E2E2"/>
<path d="M207.859 57.7511L196.286 57.9736L194.728 47.291H207.859V57.7511Z" fill="#2F2E41"/>
<path d="M213.534 59.4199C213.534 59.4199 217.54 59.4199 217.985 63.6485C218.431 67.877 216.873 78.7822 216.873 78.7822L215.537 92.8032H212.4L212.644 82.1205L213.534 66.7642L210.864 63.871L213.534 59.4199Z" fill="#A0616A"/>
<path d="M197.065 59.4201C197.065 59.4201 193.282 58.5299 189.721 63.6487C189.721 63.6487 180.596 70.3253 183.489 72.7734C186.383 75.2215 194.172 76.7794 194.172 76.7794C194.172 76.7794 191.279 82.7884 193.059 83.011C194.84 83.2335 197.51 76.5569 196.843 75.4441C196.175 74.3313 193.727 73.6637 193.727 73.6637L187.94 70.7704C187.94 70.7704 195.365 64.3925 195.77 67.1364L197.955 66.0968L197.065 59.4201Z" fill="#A0616A"/>
<path d="M205.3 51.853C205.77 53.4495 206.595 54.9191 207.712 56.1523C208.83 57.3855 210.211 58.3503 211.754 58.9748L205.968 63.871L199.068 59.4199C199.068 59.4199 201.517 57.862 200.849 54.5237L205.3 51.853Z" fill="#A0616A"/>
<path d="M200.849 55.4141C203.798 55.4141 206.19 53.0227 206.19 50.0728C206.19 47.1228 203.798 44.7314 200.849 44.7314C197.899 44.7314 195.507 47.1228 195.507 50.0728C195.507 53.0227 197.899 55.4141 200.849 55.4141Z" fill="#A0616A"/>
<path d="M196.175 58.975L200.237 58.1787C200.237 58.1787 201.516 61.2005 205.745 60.7554C209.974 60.3103 210.719 58.4838 210.719 58.4838L214.647 59.4201C214.647 59.4201 212.422 61.8682 213.534 66.7644C213.534 66.7644 213.98 74.7764 211.531 77.6696L211.309 82.1207C211.309 82.1207 214.202 89.6876 212.644 92.8033H190.834C190.834 92.8033 191.724 81.6756 195.73 78.7824L196.62 76.7794C196.62 76.7794 194.84 68.99 195.73 67.6546C195.73 67.6546 196.398 59.1975 196.175 58.975Z" fill="#F0C864"/>
<path d="M211.003 55.0916C209.791 54.4258 209.227 52.9314 209.187 51.5487C209.146 50.166 209.482 48.7976 209.508 47.4146C209.522 47.1316 209.497 46.8481 209.436 46.5715C209.336 46.2282 209.179 45.9039 208.973 45.6117C207.396 43.1958 204.655 41.4963 201.768 41.4695C201.351 41.464 200.937 41.5402 200.549 41.6936C200.251 41.8132 200.153 41.7985 200.096 42.165C199.412 41.9394 198.67 41.963 198.002 42.2316C197.34 42.5006 196.723 42.8683 196.171 43.322C195.843 43.5659 195.534 43.8338 195.245 44.1235C193.72 45.704 193.368 48.1399 193.81 50.2917C193.954 50.9913 193.265 51.6667 192.694 52.0964C192.124 52.5261 191.465 52.9207 191.185 53.5776C190.915 54.2096 191.063 54.9323 191.009 55.6172C190.948 56.2646 190.708 56.8821 190.314 57.4C189.921 57.9179 189.391 58.3155 188.784 58.5481C188.908 58.6964 189.069 58.8085 189.252 58.8727C189.434 58.9368 189.63 58.9505 189.819 58.9124C190.215 58.8291 190.585 58.6529 190.899 58.3985C192.08 57.5235 192.925 56.27 193.292 54.8471C193.46 55.6092 193.395 56.3953 193.389 57.1756C193.403 58.0463 193.243 58.9112 192.917 59.7188C192.586 60.5303 191.979 61.1988 191.203 61.6067C191.951 61.9731 192.776 61.7075 193.41 61.167C194.018 60.59 194.457 59.8584 194.68 59.0507C195.105 57.7615 195.278 56.4023 195.188 55.0476C195.884 56.2195 196.139 57.6015 195.905 58.9445C195.662 60.3137 194.947 61.5545 193.885 62.452C195.737 62.4363 197.558 61.9776 199.197 61.1141C199.62 60.9223 199.993 60.6351 200.287 60.2749C200.814 59.5434 200.689 58.5457 200.541 57.6561C200.425 56.9527 201.303 55.9359 200.8 55.4308C200.67 55.2995 200.498 55.2175 200.314 55.1991C198.492 54.9389 196.853 53.8925 196.064 52.2298C195.723 51.5462 195.536 50.7961 195.516 50.0323C195.516 49.2298 195.698 48.4377 196.046 47.7148C196.394 46.9919 196.901 46.3568 197.529 45.8567C198.156 45.3565 198.888 45.0042 199.671 44.8259C200.453 44.6476 201.266 44.6478 202.048 44.8267C202.83 45.0055 203.562 45.3583 204.19 45.8588C204.817 46.3593 205.323 46.9948 205.671 47.7179C206.019 48.441 206.2 49.2332 206.199 50.0357C206.199 50.8382 206.018 51.6303 205.67 52.3532C205.611 53.4298 205.433 54.4966 205.137 55.5335C204.756 56.8595 204.111 58.2126 202.917 58.9043C203.335 59.0831 203.783 59.178 204.237 59.1838C205.735 59.3488 207.311 59.3124 208.667 58.6545C210.023 57.9966 211.1 56.5955 211.003 55.0916Z" fill="#2F2E41"/>
<path d="M207.192 48.8486C203.188 47.2439 199.241 46.9016 195.396 48.8486V45.614C195.396 45.3374 195.451 45.0634 195.557 44.8078C195.662 44.5522 195.818 44.32 196.013 44.1244C196.209 43.9287 196.441 43.7736 196.697 43.6677C196.952 43.5618 197.226 43.5073 197.503 43.5073H205.527C205.969 43.5073 206.392 43.6827 206.704 43.9948C207.016 44.3069 207.192 44.7302 207.192 45.1717V48.8486Z" fill="#2F2E41"/>
<path d="M206.19 50.8518C206.651 50.8518 207.025 50.254 207.025 49.5165C207.025 48.779 206.651 48.1812 206.19 48.1812C205.729 48.1812 205.355 48.779 205.355 49.5165C205.355 50.254 205.729 50.8518 206.19 50.8518Z" fill="#A0616A"/>
<path d="M77.2197 48.3213H26.3123V92.7822H77.2197V48.3213Z" fill="#E2E2E2"/>
<path d="M55.4156 59.0339L44.5105 58.8114V43.6777L55.4156 44.7904V59.0339Z" fill="#2F2E41"/>
<path d="M65.4027 92.7823H41.8368C41.9897 91.9258 42.2523 91.0925 42.6182 90.3031C43.2859 89.0778 44.1206 86.4068 44.7883 84.0414C45.1755 82.6704 45.5058 81.4024 45.7153 80.582C45.8681 79.9817 45.9569 79.6194 45.9569 79.6194L57.5285 74.9453C57.5285 74.9453 57.8553 75.5384 58.3809 76.5365C58.3879 76.5514 58.3962 76.5657 58.4058 76.5791C58.7787 77.2859 59.2476 78.1952 59.7661 79.2358H59.7697C61.6663 83.0149 64.2555 88.5628 65.4027 92.7823Z" fill="#2F2E41"/>
<path d="M46.7357 52.5796L45.1779 60.369L50.5192 60.8141C50.5192 60.8141 51.4094 53.9149 51.6319 53.6924C51.8545 53.4698 46.7357 52.5796 46.7357 52.5796Z" fill="#FFB8B8"/>
<path d="M50.1856 55.1392C53.1355 55.1392 55.5269 52.7478 55.5269 49.7979C55.5269 46.8479 53.1355 44.4565 50.1856 44.4565C47.2356 44.4565 44.8442 46.8479 44.8442 49.7979C44.8442 52.7478 47.2356 55.1392 50.1856 55.1392Z" fill="#FFB8B8"/>
<path d="M45.1783 58.1436C45.1783 58.1436 50.297 59.2563 50.5196 59.0338C50.7422 58.8112 56.7511 59.924 57.1962 61.927C57.6414 63.93 56.5286 71.7194 56.5286 71.7194C56.5286 71.7194 58.9767 72.8322 58.7541 73.2773C58.5316 73.7224 60.0895 74.1675 59.6443 74.8352C59.1992 75.5028 51.1873 87.0757 47.4038 86.8531C43.6204 86.6306 36.7212 61.4819 36.7212 61.4819C36.7212 61.4819 36.9437 58.3661 39.837 58.3661C42.7302 58.3661 45.1783 58.1436 45.1783 58.1436Z" fill="#CDAB3C"/>
<path d="M59.7557 76.0596C59.7557 76.0596 56.636 76.7656 57.1943 78.193C57.7527 79.6205 61.091 79.1753 61.091 79.1753L59.7557 76.0596Z" fill="#FFB8B8"/>
<path d="M50.0199 92.7825H41.8366C41.8118 92.9104 41.7834 93.0418 41.755 93.1732C41.3612 93.0106 40.955 92.8799 40.5403 92.7825C40.4479 92.7612 40.3946 92.7505 40.3946 92.7505C40.3946 92.7505 38.6117 86.0732 36.1645 77.8402C33.9944 70.5343 36.2 63.0507 36.7257 61.456V61.4524C36.7931 61.2535 36.8322 61.147 36.8322 61.147L38.8354 59.5913L45.7152 80.5822L47.5159 86.0732C47.5159 86.0732 47.5727 86.3787 47.6686 86.8511C47.9599 88.2576 48.6276 91.138 49.2953 91.6389C49.6281 91.954 49.8771 92.347 50.0199 92.7825Z" fill="#CDAB3C"/>
<path d="M54.1917 61.1479L56.969 61.4363L63.3164 69.3825C63.3164 69.3825 65.7645 71.608 64.2066 72.4982C62.6487 73.3885 61.9811 75.1689 61.9811 75.1689C61.9811 75.1689 63.9841 79.62 61.0909 80.2877C61.0909 80.2877 59.0879 75.8366 58.4202 75.3915C57.7525 74.9464 59.3104 73.1659 59.3104 73.1659L54.1917 69.8276L54.1917 61.1479Z" fill="#CDAB3C"/>
<path d="M50.1854 41.1182C50.1854 41.1182 43.9539 40.0054 42.8411 45.5693C42.5744 46.8611 42.3981 48.17 42.3137 49.4864C42.1386 52.7105 41.2549 55.8564 39.7253 58.7L49.7403 61.5932C49.7403 61.5932 47.0697 57.3647 47.5148 55.5843C47.5973 55.1377 47.5911 54.6792 47.4965 54.235C46.4582 53.5952 45.6703 52.6192 45.2636 51.4693C44.857 50.3195 44.8562 49.0651 45.2615 47.9148C45.6667 46.7645 46.4534 45.7875 47.4909 45.1464C48.5284 44.5053 49.7541 44.2386 50.9642 44.3907C52.1743 44.5429 53.2959 45.1047 54.1424 45.9827C54.9888 46.8607 55.5093 48.002 55.6171 49.2168C55.725 50.4317 55.4137 51.6468 54.7351 52.6602C54.0565 53.6736 53.0514 54.4241 51.8871 54.7871C51.1423 56.4075 50.7372 58.1603 51.7433 59.3677C53.0148 60.9215 54.5157 62.2724 56.1944 63.3737C56.1944 63.3737 55.0816 58.0323 56.8621 54.9166C58.6425 51.8008 56.8621 41.5633 50.1854 41.1182Z" fill="#2F2E41"/>
<path d="M55.72 48.2559L45.278 48.8685L44.9907 43.9761L54.0787 43.6494L55.72 48.2559Z" fill="#2F2E41"/>
<path d="M28.4032 111.124C29.384 111.124 30.1791 110.328 30.1791 109.348C30.1791 108.367 29.384 107.572 28.4032 107.572C27.4224 107.572 26.6273 108.367 26.6273 109.348C26.6273 110.328 27.4224 111.124 28.4032 111.124Z" fill="#E2E2E2"/>
<path d="M28.4032 121.068C29.384 121.068 30.1791 120.273 30.1791 119.292C30.1791 118.312 29.384 117.517 28.4032 117.517C27.4224 117.517 26.6273 118.312 26.6273 119.292C26.6273 120.273 27.4224 121.068 28.4032 121.068Z" fill="#E2E2E2"/>
<path d="M28.4032 131.014C29.384 131.014 30.1791 130.219 30.1791 129.238C30.1791 128.257 29.384 127.462 28.4032 127.462C27.4224 127.462 26.6273 128.257 26.6273 129.238C26.6273 130.219 27.4224 131.014 28.4032 131.014Z" fill="#E2E2E2"/>
<path d="M69.6039 107.927H35.8622V110.769H69.6039V107.927Z" fill="#E2E2E2"/>
<path d="M69.6039 117.872H35.8622V120.713H69.6039V117.872Z" fill="#E2E2E2"/>
<path d="M69.6039 127.817H35.8622V130.658H69.6039V127.817Z" fill="#E2E2E2"/>
<path d="M105.498 111.124C106.479 111.124 107.274 110.328 107.274 109.348C107.274 108.367 106.479 107.572 105.498 107.572C104.517 107.572 103.722 108.367 103.722 109.348C103.722 110.328 104.517 111.124 105.498 111.124Z" fill="#E2E2E2"/>
<path d="M105.498 121.068C106.479 121.068 107.274 120.273 107.274 119.292C107.274 118.312 106.479 117.517 105.498 117.517C104.517 117.517 103.722 118.312 103.722 119.292C103.722 120.273 104.517 121.068 105.498 121.068Z" fill="#E2E2E2"/>
<path d="M105.498 131.014C106.479 131.014 107.274 130.219 107.274 129.238C107.274 128.257 106.479 127.462 105.498 127.462C104.517 127.462 103.722 128.257 103.722 129.238C103.722 130.219 104.517 131.014 105.498 131.014Z" fill="#E2E2E2"/>
<path d="M146.698 107.927H112.956V110.769H146.698V107.927Z" fill="#E2E2E2"/>
<path d="M146.698 117.872H112.956V120.713H146.698V117.872Z" fill="#E2E2E2"/>
<path d="M146.698 127.817H112.956V130.658H146.698V127.817Z" fill="#E2E2E2"/>
<path d="M182.108 111.124C183.089 111.124 183.884 110.328 183.884 109.348C183.884 108.367 183.089 107.572 182.108 107.572C181.127 107.572 180.332 108.367 180.332 109.348C180.332 110.328 181.127 111.124 182.108 111.124Z" fill="#E2E2E2"/>
<path d="M182.108 121.068C183.089 121.068 183.884 120.273 183.884 119.292C183.884 118.312 183.089 117.517 182.108 117.517C181.127 117.517 180.332 118.312 180.332 119.292C180.332 120.273 181.127 121.068 182.108 121.068Z" fill="#E2E2E2"/>
<path d="M182.108 131.014C183.089 131.014 183.884 130.219 183.884 129.238C183.884 128.257 183.089 127.462 182.108 127.462C181.127 127.462 180.332 128.257 180.332 129.238C180.332 130.219 181.127 131.014 182.108 131.014Z" fill="#E2E2E2"/>
<path d="M223.309 107.927H189.567V110.769H223.309V107.927Z" fill="#E2E2E2"/>
<path d="M223.309 117.872H189.567V120.713H223.309V117.872Z" fill="#E2E2E2"/>
<path d="M223.309 127.817H189.567V130.658H223.309V127.817Z" fill="#E2E2E2"/>
</g>
<defs>
<clipPath id="clip0">
<rect width="250" height="160.184" fill="white"/>
</clipPath>
</defs>
</svg>
