<svg width="250" height="226" viewBox="0 0 250 226" fill="none" xmlns="http://www.w3.org/2000/svg">
<g clip-path="url(#clip0)">
<path d="M153.172 211.913C154.514 215.974 151.766 220.533 151.766 220.533C151.766 220.533 146.842 218.509 145.5 214.449C144.158 210.388 146.907 205.829 146.907 205.829C146.907 205.829 151.83 207.853 153.172 211.913Z" fill="#E6E6E6"/>
<path d="M244.82 215.598C242.262 219.024 236.95 219.385 236.95 219.385C236.95 219.385 235.787 214.19 238.346 210.763C240.905 207.337 246.216 206.976 246.216 206.976C246.216 206.976 247.379 212.171 244.82 215.598Z" fill="#E6E6E6"/>
<path d="M193.103 225.638C224.526 225.638 250 223.829 250 221.598C250 219.366 224.526 217.558 193.103 217.558C161.68 217.558 136.206 219.366 136.206 221.598C136.206 223.829 161.68 225.638 193.103 225.638Z" fill="#E6E6E6"/>
<path d="M220.566 0.125H0.0942383V141.325H220.566V0.125Z" fill="#E6E6E6"/>
<path d="M214.261 17.835H6.39844V132.971H214.261V17.835Z" fill="white"/>
<path d="M220.471 0H0V9.36643H220.471V0Z" fill="#644A98"/>
<path d="M6.96036 6.52472C7.91912 6.52472 8.69635 5.74749 8.69635 4.78873C8.69635 3.82997 7.91912 3.05273 6.96036 3.05273C6.0016 3.05273 5.22437 3.82997 5.22437 4.78873C5.22437 5.74749 6.0016 6.52472 6.96036 6.52472Z" fill="white"/>
<path d="M13.5497 6.52472C14.5085 6.52472 15.2857 5.74749 15.2857 4.78873C15.2857 3.82997 14.5085 3.05273 13.5497 3.05273C12.591 3.05273 11.8137 3.82997 11.8137 4.78873C11.8137 5.74749 12.591 6.52472 13.5497 6.52472Z" fill="white"/>
<path d="M20.1391 6.52472C21.0978 6.52472 21.8751 5.74749 21.8751 4.78873C21.8751 3.82997 21.0978 3.05273 20.1391 3.05273C19.1803 3.05273 18.4031 3.82997 18.4031 4.78873C18.4031 5.74749 19.1803 6.52472 20.1391 6.52472Z" fill="white"/>
<path d="M149.197 27.9331H71.3699V35.6674H149.197V27.9331Z" fill="#E6E6E6"/>
<path d="M149.197 46.1514H71.3699V49.0808H149.197V46.1514Z" fill="#E6E6E6"/>
<path d="M149.197 55.0928H71.3699V58.0222H149.197V55.0928Z" fill="#E6E6E6"/>
<path d="M111.583 64.1475H71.3699V67.0769H111.583V64.1475Z" fill="#E6E6E6"/>
<path d="M149.197 73.3628H71.3699V76.2922H149.197V73.3628Z" fill="#E6E6E6"/>
<path d="M149.197 82.5776H71.3699V85.5071H149.197V82.5776Z" fill="#E6E6E6"/>
<path d="M110.236 91.793H71.3699V94.7224H110.236V91.793Z" fill="#E6E6E6"/>
<path d="M149.197 101.008H71.3699V103.938H149.197V101.008Z" fill="#E6E6E6"/>
<path d="M149.197 110.224H71.3699V113.153H149.197V110.224Z" fill="#E6E6E6"/>
<path d="M149.29 121.527H124.713V129.607H149.29V121.527Z" fill="#644A98"/>
<path d="M154.107 118.731L153.919 118.878L149.603 122.27C149.603 122.27 143.491 128.703 141.239 125.165C138.987 121.626 147.673 117.444 147.673 117.444L150.89 115.192L154.107 118.731Z" fill="#9F616A"/>
<path d="M223.11 123.074C223.11 123.074 220.536 132.081 219.893 132.725L215.068 125.647L217.319 121.787L223.11 123.074Z" fill="#9F616A"/>
<path d="M215.55 124.2L220.054 132.885L217.802 141.571V168.915L220.054 209.77H208.151L196.892 143.501L184.346 209.77H172.122L174.695 167.307L174.052 142.536C174.052 142.536 174.373 128.06 177.59 126.773C180.807 125.486 215.55 124.2 215.55 124.2Z" fill="#2F2E41"/>
<path d="M217.48 208.162L218.445 212.022C218.445 212.022 221.984 214.595 221.019 217.491C220.054 220.386 220.697 221.994 218.445 222.638C216.194 223.281 208.795 224.246 209.116 221.029C209.438 217.812 209.116 211.057 209.116 211.057L210.081 208.805L217.48 208.162Z" fill="#2F2E41"/>
<path d="M175.017 208.162L174.052 212.022C174.052 212.022 170.513 214.595 171.478 217.491C172.443 220.386 171.8 221.994 174.052 222.638C176.303 223.281 183.702 224.246 183.381 221.029C183.059 217.812 183.381 211.057 183.381 211.057L182.416 208.805L175.017 208.162Z" fill="#2F2E41"/>
<path d="M187.402 55.2538C193.591 55.2538 198.609 50.236 198.609 44.0463C198.609 37.8566 193.591 32.8389 187.402 32.8389C181.212 32.8389 176.194 37.8566 176.194 44.0463C176.194 50.236 181.212 55.2538 187.402 55.2538Z" fill="#9F616A"/>
<path d="M196.097 48.877L197.643 61.6303H183.73L184.89 50.8091L196.097 48.877Z" fill="#9F616A"/>
<path d="M169.387 66.7774C169.387 66.7774 183.22 57.4482 189.975 57.4482C196.731 57.4482 213.781 60.9869 216.354 65.1689L214.424 110.206C214.424 110.206 218.928 116.962 216.354 119.535C213.781 122.109 216.837 127.417 216.837 127.417C216.837 127.417 196.731 126.291 189.975 129.186C183.22 132.081 175.177 129.186 175.177 129.186C175.177 129.186 178.555 124.843 175.338 123.556C172.121 122.269 177.268 101.681 177.268 101.681L175.821 88.6525L169.387 66.7774Z" fill="#856FB3"/>
<path d="M213.459 65.1691L215.872 64.6865C215.872 64.6865 231.474 89.9395 230.509 95.4082C229.544 100.877 223.431 125.647 223.431 125.647L215.067 123.396L219.893 99.912L212.172 80.2887L213.459 65.1691Z" fill="#856FB3"/>
<path d="M172.926 68.0643L169.548 66.6167C168.994 68.1412 168.332 69.6244 167.569 71.0554C163.578 78.5608 162.31 103.129 162.31 103.129L148.477 114.71L153.302 121.787C153.302 121.787 171.306 111.356 174.212 105.381C176.64 100.391 176.303 82.7014 176.303 82.7014L172.926 68.0643Z" fill="#856FB3"/>
<path d="M196.564 51.7253C196.564 51.7253 207.941 43.5991 201.981 33.8478C197.847 27.0829 189.281 27.6183 184.421 28.5808C183.112 28.8225 181.881 29.3789 180.835 30.202C179.789 31.0252 178.958 32.0905 178.416 33.306C177.603 35.2021 177.603 37.0982 180.853 37.0982C187.354 37.0982 184.104 41.9739 184.104 41.9739C184.104 41.9739 188.438 43.0574 187.354 46.8496C186.271 50.6418 196.564 51.7253 196.564 51.7253Z" fill="#2F2E41"/>
</g>
<defs>
<clipPath id="clip0">
<rect width="250" height="225.637" fill="white"/>
</clipPath>
</defs>
</svg>
