<svg width="200" height="181" viewBox="0 0 200 181" fill="none" xmlns="http://www.w3.org/2000/svg">
<g clip-path="url(#clip0)">
<path d="M122.538 169.531C123.611 172.779 121.413 176.427 121.413 176.427C121.413 176.427 117.474 174.807 116.4 171.559C115.327 168.31 117.525 164.663 117.525 164.663C117.525 164.663 121.464 166.282 122.538 169.531Z" fill="#E6E6E6"/>
<path d="M195.856 172.479C193.809 175.22 189.56 175.508 189.56 175.508C189.56 175.508 188.63 171.352 190.677 168.611C192.724 165.87 196.973 165.581 196.973 165.581C196.973 165.581 197.903 169.737 195.856 172.479Z" fill="#E6E6E6"/>
<path d="M154.482 180.51C179.621 180.51 200 179.063 200 177.278C200 175.493 179.621 174.046 154.482 174.046C129.344 174.046 108.965 175.493 108.965 177.278C108.965 179.063 129.344 180.51 154.482 180.51Z" fill="#E6E6E6"/>
<path d="M176.452 0.100098H0.0751953V113.06H176.452V0.100098Z" fill="#E6E6E6"/>
<path d="M171.409 14.2681H5.11865V106.377H171.409V14.2681Z" fill="white"/>
<path d="M176.377 0H0V7.49315H176.377V0Z" fill="#CDAB3C"/>
<path d="M5.56848 5.21949C6.33549 5.21949 6.95728 4.5977 6.95728 3.83069C6.95728 3.06368 6.33549 2.44189 5.56848 2.44189C4.80147 2.44189 4.17969 3.06368 4.17969 3.83069C4.17969 4.5977 4.80147 5.21949 5.56848 5.21949Z" fill="white"/>
<path d="M10.84 5.21949C11.607 5.21949 12.2288 4.5977 12.2288 3.83069C12.2288 3.06368 11.607 2.44189 10.84 2.44189C10.073 2.44189 9.45117 3.06368 9.45117 3.83069C9.45117 4.5977 10.073 5.21949 10.84 5.21949Z" fill="white"/>
<path d="M16.1114 5.21949C16.8785 5.21949 17.5002 4.5977 17.5002 3.83069C17.5002 3.06368 16.8785 2.44189 16.1114 2.44189C15.3444 2.44189 14.7227 3.06368 14.7227 3.83069C14.7227 4.5977 15.3444 5.21949 16.1114 5.21949Z" fill="white"/>
<path d="M119.357 22.3464H57.0957V28.5339H119.357V22.3464Z" fill="#E6E6E6"/>
<path d="M119.357 36.9211H57.0957V39.2647H119.357V36.9211Z" fill="#E6E6E6"/>
<path d="M119.357 44.0745H57.0957V46.418H119.357V44.0745Z" fill="#E6E6E6"/>
<path d="M89.2663 51.3181H57.0957V53.6616H89.2663V51.3181Z" fill="#E6E6E6"/>
<path d="M119.357 58.6902H57.0957V61.0337H119.357V58.6902Z" fill="#E6E6E6"/>
<path d="M119.357 66.0623H57.0957V68.4058H119.357V66.0623Z" fill="#E6E6E6"/>
<path d="M88.1889 73.4346H57.0957V75.7781H88.1889V73.4346Z" fill="#E6E6E6"/>
<path d="M119.357 80.8066H57.0957V83.1502H119.357V80.8066Z" fill="#E6E6E6"/>
<path d="M119.357 88.1787H57.0957V90.5222H119.357V88.1787Z" fill="#E6E6E6"/>
<path d="M119.432 97.2214H99.7705V103.685H119.432V97.2214Z" fill="#CDAB3C"/>
<path d="M123.285 94.9845L123.136 95.102L119.682 97.8154C119.682 97.8154 114.793 102.962 112.991 100.132C111.19 97.3007 118.138 93.955 118.138 93.955L120.712 92.1536L123.285 94.9845Z" fill="#9F616A"/>
<path d="M178.488 98.4589C178.488 98.4589 176.429 105.665 175.915 106.179L172.054 100.518L173.856 97.4294L178.488 98.4589Z" fill="#9F616A"/>
<path d="M172.44 99.3599L176.043 106.308L174.242 113.257V135.132L176.043 167.816H166.521L157.514 114.801L147.477 167.816H137.697L139.756 133.845L139.241 114.029C139.241 114.029 139.499 102.448 142.072 101.419C144.646 100.389 172.44 99.3599 172.44 99.3599Z" fill="#2F2E41"/>
<path d="M173.984 166.529L174.756 169.617C174.756 169.617 177.587 171.676 176.815 173.992C176.043 176.309 176.558 177.595 174.756 178.11C172.955 178.625 167.035 179.397 167.293 176.823C167.55 174.25 167.293 168.845 167.293 168.845L168.065 167.044L173.984 166.529Z" fill="#2F2E41"/>
<path d="M140.013 166.529L139.241 169.617C139.241 169.617 136.41 171.676 137.182 173.992C137.954 176.309 137.44 177.595 139.241 178.11C141.043 178.625 146.962 179.397 146.704 176.823C146.447 174.25 146.704 168.845 146.704 168.845L145.932 167.044L140.013 166.529Z" fill="#2F2E41"/>
<path d="M149.922 44.2032C154.873 44.2032 158.887 40.189 158.887 35.2372C158.887 30.2854 154.873 26.2712 149.922 26.2712C144.97 26.2712 140.956 30.2854 140.956 35.2372C140.956 40.189 144.97 44.2032 149.922 44.2032Z" fill="#9F616A"/>
<path d="M156.878 39.1018L158.115 49.3045H146.984L147.912 40.6475L156.878 39.1018Z" fill="#9F616A"/>
<path d="M135.51 53.422C135.51 53.422 146.576 45.9587 151.98 45.9587C157.385 45.9587 171.025 48.7896 173.084 52.1353L171.539 88.1649C171.539 88.1649 175.142 93.5694 173.084 95.6282C171.025 97.687 173.47 101.933 173.47 101.933C173.47 101.933 157.385 101.033 151.98 103.349C146.576 105.665 140.142 103.349 140.142 103.349C140.142 103.349 142.844 99.8746 140.271 98.8451C137.697 97.8157 141.815 81.345 141.815 81.345L140.657 70.9221L135.51 53.422Z" fill="#F0C864"/>
<path d="M170.767 52.1353L172.697 51.7493C172.697 51.7493 185.179 71.9516 184.407 76.3266C183.635 80.7017 178.745 100.518 178.745 100.518L172.054 98.7165L175.914 79.9296L169.738 64.231L170.767 52.1353Z" fill="#F0C864"/>
<path d="M138.341 54.4513L135.638 53.2932C135.195 54.5128 134.666 55.6994 134.055 56.8442C130.863 62.8485 129.848 82.503 129.848 82.503L118.782 91.7677L122.642 97.4295C122.642 97.4295 137.045 89.0845 139.37 84.3044C141.312 80.3124 141.043 66.1609 141.043 66.1609L138.341 54.4513Z" fill="#F0C864"/>
<path d="M157.251 41.3801C157.251 41.3801 166.352 34.8792 161.585 27.0781C158.278 21.6661 151.424 22.0945 147.537 22.8645C146.49 23.0578 145.505 23.5029 144.668 24.1615C143.831 24.82 143.167 25.6723 142.732 26.6447C142.082 28.1616 142.082 29.6784 144.683 29.6784C149.883 29.6784 147.283 33.579 147.283 33.579C147.283 33.579 150.75 34.4458 149.883 37.4795C149.016 40.5133 157.251 41.3801 157.251 41.3801Z" fill="#2F2E41"/>
</g>
<defs>
<clipPath id="clip0">
<rect width="200" height="180.51" fill="white"/>
</clipPath>
</defs>
</svg>
