<svg width="250" height="175" viewBox="0 0 250 175" fill="none" xmlns="http://www.w3.org/2000/svg">
<g clip-path="url(#clip0)">
<path d="M11.1356 67.0601C11.3746 81.8183 16.8906 83.416 23.6645 81.8768C31.4028 80.1184 37.7542 74.6069 40.8846 67.3148L43.0434 62.2858C44.4786 58.9425 44.527 55.166 43.1777 51.787C41.8285 48.408 39.1922 45.7035 35.8489 44.2682H35.8489C34.1934 43.5576 32.4142 43.1799 30.6128 43.1569C28.8114 43.1338 27.0231 43.4658 25.35 44.1339C23.6769 44.802 22.1518 45.793 20.8617 47.0505C19.5716 48.308 18.5419 49.8073 17.8312 51.4627C10.8843 54.1917 9.5123 59.8413 11.1356 67.0601Z" fill="#2F2E41"/>
<path d="M54.6921 37.3567L56.7712 33.8385C57.025 33.4089 57.1783 32.9274 57.2196 32.43C57.2608 31.9327 57.1888 31.4325 57.0091 30.967C56.8295 30.5014 56.5467 30.0826 56.182 29.7419C55.8173 29.4013 55.3802 29.1476 54.9035 29C54.4004 28.8442 53.8673 28.8109 53.3487 28.9028C52.83 28.9948 52.3409 29.2094 51.922 29.5288C51.5032 29.8481 51.1667 30.263 50.9406 30.7387C50.7146 31.2145 50.6055 31.7373 50.6226 32.2638L50.7447 36.0456L40.9739 62.8227L46.3021 63.9351L54.6921 37.3567Z" fill="#9F616A"/>
<path d="M3.28837 103.367L0.729248 106.553C0.416745 106.942 0.196403 107.397 0.0847549 107.883C-0.0268935 108.37 -0.0269502 108.875 0.0845886 109.361C0.196127 109.848 0.416366 110.302 0.728781 110.692C1.0412 111.081 1.43768 111.394 1.88848 111.608C2.36429 111.834 2.88721 111.943 3.41365 111.926C3.94009 111.909 4.45481 111.766 4.91491 111.509C5.375 111.253 5.76715 110.89 6.05867 110.452C6.35018 110.013 6.53263 109.511 6.5908 108.988L7.00864 105.227L20.4947 80.115L15.3793 78.2549L3.28837 103.367Z" fill="#9F616A"/>
<path d="M19.0994 129.874L19.476 134.399L19.5644 135.454L44.6112 133.045C45.4746 132.948 46.3028 132.648 47.0285 132.171C47.7543 131.693 48.3571 131.051 48.788 130.297C49.2189 129.542 49.4658 128.697 49.5084 127.829C49.5511 126.961 49.3885 126.095 49.0337 125.302L40.956 107.961L38.1658 101.972L26.0749 99.1814C16.1046 106.813 25.0751 115.234 36.3615 123.754C36.8033 124.089 37.2497 124.424 37.7008 124.758L19.0994 129.874Z" fill="#2F2E41"/>
<path d="M10.6598 145.542C10.965 145.586 11.2762 145.55 11.5637 145.439C11.8512 145.328 12.1053 145.145 12.3017 144.907L20.4946 134.989L20.0295 130.339L17.236 128.663C17.0075 128.526 16.7519 128.44 16.4869 128.412C16.2219 128.383 15.9539 128.413 15.7016 128.499C15.4492 128.584 15.2185 128.724 15.0256 128.908C14.8326 129.091 14.682 129.315 14.5841 129.563L9.24043 143.1C9.14063 143.353 9.0994 143.625 9.11984 143.896C9.14028 144.167 9.22185 144.43 9.35843 144.665C9.49501 144.9 9.68306 145.101 9.90845 145.253C10.1338 145.405 10.3907 145.504 10.6598 145.542Z" fill="#2F2E41"/>
<path opacity="0.2" d="M17.7041 128.944L18.1691 134.524L19.4759 134.399L43.2159 132.115C44.0793 132.018 44.9075 131.718 45.6333 131.241C46.359 130.763 46.9618 130.121 47.3928 129.366C47.8237 128.612 48.0705 127.767 48.1132 126.899C48.1559 126.031 47.9932 125.165 47.6384 124.372L40.9559 109.412V107.961L38.1657 101.972L26.0747 99.1814C16.1044 106.813 25.0749 115.234 36.3613 123.754L36.3055 123.828L17.7041 128.944Z" fill="black"/>
<path d="M8.3346 143.682C8.63977 143.726 8.95103 143.69 9.23853 143.579C9.52603 143.468 9.78012 143.284 9.97646 143.047L18.1694 133.129L17.7043 128.479L14.9108 126.803C14.6823 126.666 14.4267 126.58 14.1617 126.551C13.8967 126.523 13.6287 126.553 13.3764 126.638C13.124 126.724 12.8933 126.864 12.7004 127.047C12.5074 127.231 12.3568 127.455 12.2589 127.703L6.91524 141.24C6.81544 141.493 6.77421 141.765 6.79464 142.036C6.81508 142.307 6.89665 142.57 7.03323 142.805C7.16982 143.04 7.35786 143.241 7.58325 143.393C7.80864 143.545 8.06551 143.644 8.3346 143.682Z" fill="#2F2E41"/>
<path d="M16.7742 128.014L17.2392 133.594L42.286 131.184C43.1493 131.087 43.9775 130.788 44.7033 130.31C45.4291 129.833 46.032 129.191 46.463 128.436C46.8941 127.682 47.1412 126.837 47.1842 125.969C47.2272 125.101 47.0649 124.236 46.7105 123.443L40.0259 108.482V100.112L23.7497 97.3213C13.387 105.252 23.4838 114.038 35.3756 122.898L16.7742 128.014Z" fill="#2F2E41"/>
<path d="M32.5854 62.4437C36.4379 62.4437 39.5609 59.3207 39.5609 55.4682C39.5609 51.6157 36.4379 48.4927 32.5854 48.4927C28.7329 48.4927 25.6099 51.6157 25.6099 55.4682C25.6099 59.3207 28.7329 62.4437 32.5854 62.4437Z" fill="#9F616A"/>
<path d="M23.2847 67.0941L33.0504 73.6046L41.421 71.7445L36.7707 67.0941V60.1186L29.3301 59.6536C29.1739 62.4391 27.5778 64.9881 23.2847 67.0941Z" fill="#9F616A"/>
<path d="M21.8896 99.6466L40.026 101.972L44.2113 82.4402C46.1557 77.2558 45.0401 72.6752 41.4403 68.585C41.3026 67.8966 40.9359 67.2752 40.3998 66.822C39.8637 66.3688 39.1899 66.1105 38.4883 66.0892L36.7708 66.164C36.9651 72.3316 32.421 70.8461 25.6099 65.699L24.7875 65.9457C23.7243 66.2647 22.8115 66.9558 22.2161 67.8926C21.6207 68.8295 21.3826 69.9494 21.5452 71.0474L22.2952 76.1095C22.6132 78.1164 23.1072 80.0914 23.7715 82.0117C25.6309 87.5688 24.9664 93.4519 21.8896 99.6466Z" fill="#CDAB3C"/>
<path d="M13.519 78.72L21.8897 81.5102L25.61 68.0242L24.3496 67.4513C23.3047 66.9763 22.1182 66.9167 21.0309 67.2845C19.9436 67.6523 19.0369 68.4199 18.4949 69.4317L13.519 78.72Z" fill="#CDAB3C"/>
<path d="M38.1658 66.164L42.8162 71.2792L48.3965 62.4436L41.4209 58.7234L38.1658 66.164Z" fill="#CDAB3C"/>
<path d="M24.4475 53.3753C28.8309 55.0282 33.5089 54.8569 38.3986 53.3753V47.7949H24.4475V53.3753Z" fill="#2F2E41"/>
<path d="M242.003 149.169L237.194 151.173L205.134 107.491L181.89 151.974L175.879 150.772L193.512 89.4573H213.95L242.003 149.169Z" fill="#2F2E41"/>
<path d="M248.455 159.359C248.188 159.432 247.91 159.451 247.636 159.416C247.362 159.38 247.097 159.291 246.858 159.153L236.716 153.314C236.442 153.156 236.208 152.938 236.033 152.675C235.857 152.413 235.744 152.113 235.703 151.8C235.661 151.487 235.692 151.169 235.794 150.87C235.895 150.57 236.064 150.299 236.288 150.075L237.194 149.169L242.003 148.768L249.355 155.826C249.622 156.082 249.816 156.405 249.918 156.762C250.02 157.118 250.025 157.495 249.934 157.854C249.843 158.214 249.657 158.542 249.398 158.806C249.138 159.071 248.812 159.261 248.455 159.359Z" fill="#2F2E41"/>
<path d="M169.828 160.962C170.095 161.035 170.373 161.054 170.647 161.019C170.921 160.983 171.186 160.894 171.425 160.756L181.567 154.917C181.841 154.759 182.075 154.541 182.25 154.278C182.426 154.016 182.539 153.716 182.58 153.403C182.622 153.09 182.591 152.772 182.489 152.473C182.388 152.173 182.219 151.902 181.995 151.678L181.089 150.772L176.28 150.371L168.928 157.429C168.661 157.685 168.467 158.008 168.365 158.365C168.263 158.721 168.258 159.098 168.349 159.457C168.44 159.817 168.626 160.145 168.885 160.409C169.145 160.674 169.471 160.864 169.828 160.962Z" fill="#2F2E41"/>
<path d="M179.887 25.7384L177.883 26.9406L173.731 20.193C173.476 19.7786 173.324 19.309 173.289 18.8236C173.253 18.3383 173.335 17.8516 173.527 17.4045C173.719 16.9575 174.016 16.5631 174.392 16.2548C174.769 15.9465 175.214 15.7332 175.69 15.633C176.113 15.5438 176.551 15.5463 176.973 15.6401C177.396 15.7339 177.793 15.917 178.139 16.177C178.485 16.437 178.771 16.7679 178.978 17.1476C179.186 17.5273 179.31 17.9469 179.342 18.3784L179.887 25.7384Z" fill="#FFB9B9"/>
<path d="M235.393 78.2718L236.225 76.0879L243.66 78.8232C244.117 78.9912 244.527 79.2665 244.855 79.626C245.183 79.9855 245.419 80.4186 245.545 80.8887C245.67 81.3589 245.681 81.8523 245.576 82.3274C245.47 82.8025 245.253 83.2453 244.94 83.6185C244.663 83.9504 244.317 84.219 243.927 84.4064C243.537 84.5939 243.112 84.6958 242.679 84.7053C242.247 84.7148 241.817 84.6317 241.419 84.4615C241.022 84.2914 240.665 84.0382 240.373 83.7189L235.393 78.2718Z" fill="#FFB9B9"/>
<path d="M203.932 49.7832C207.252 49.7832 209.943 47.0919 209.943 43.772C209.943 40.4521 207.252 37.7607 203.932 37.7607C200.612 37.7607 197.92 40.4521 197.92 43.772C197.92 47.0919 200.612 49.7832 203.932 49.7832Z" fill="#FFB9B9"/>
<path d="M209.141 56.5958H200.726V47.3787L207.939 46.5771L209.141 56.5958Z" fill="#FFB9B9"/>
<path d="M215.153 91.8619H192.31C193.116 79.1167 193.753 66.7999 192.31 59.802L193.638 53.4266C193.822 52.5432 194.332 51.7615 195.066 51.2368C195.8 50.7121 196.705 50.483 197.6 50.5949L200.726 50.9856C202.842 54.7066 205.4 54.6707 208.34 51.3863H212.105C212.607 51.3863 213.103 51.4864 213.566 51.6808C214.029 51.8752 214.448 52.1599 214.8 52.5183C215.151 52.8767 215.427 53.3015 215.613 53.7681C215.798 54.2346 215.888 54.7333 215.878 55.2351C216.859 59.7255 217.185 64.3342 216.847 68.918L215.153 91.8619Z" fill="#3F3D56"/>
<path d="M176.681 25.7381L179.887 24.1353L197.119 52.5885L192.31 59.8018L176.681 25.7381Z" fill="#3F3D56"/>
<path d="M235.439 79.4119L238.178 77.1008L223.62 56.7008C222.196 54.705 220.232 53.1564 217.96 52.2362C215.687 51.3161 213.199 51.0626 210.788 51.5053L210.328 51.5897L215.833 61.2233L223.084 66.7127L235.439 79.4119Z" fill="#3F3D56"/>
<path d="M210.884 40.2236C210.884 40.2236 212.007 37.7524 209.087 36.6291C209.087 36.6291 206.616 32.5853 201.673 35.2812C201.673 35.2812 198.303 36.6291 198.303 40.2236C198.303 43.818 197.18 44.492 197.18 44.492C197.18 44.492 198.853 42.7759 199.302 41.428C199.752 40.0801 203.246 39.7742 204.594 41.1222C205.942 42.4701 209.311 42.2454 209.311 42.2454L209.087 47.1878C209.087 47.1878 210.21 44.2673 210.659 44.2673C211.109 44.2673 211.558 40.2236 210.884 40.2236Z" fill="#2F2E41"/>
<path d="M210.329 174.745C230.643 174.745 247.11 173.887 247.11 172.829C247.11 171.771 230.643 170.913 210.329 170.913C190.015 170.913 173.548 171.771 173.548 172.829C173.548 173.887 190.015 174.745 210.329 174.745Z" fill="#E6E6E6"/>
<path d="M26.6852 173.842C37.4225 173.842 46.1267 173.388 46.1267 172.829C46.1267 172.27 37.4225 171.816 26.6852 171.816C15.9479 171.816 7.24365 172.27 7.24365 172.829C7.24365 173.388 15.9479 173.842 26.6852 173.842Z" fill="#E6E6E6"/>
<path d="M175.225 33.7044L57.0337 44.2971C56.4534 44.3484 55.8764 44.1675 55.4293 43.7939C54.9822 43.4204 54.7015 42.8848 54.6489 42.3046L52.0213 12.9864C51.9699 12.4061 52.1509 11.8291 52.5244 11.382C52.898 10.9349 53.4336 10.6542 54.0138 10.6015L172.205 0.00880371C172.785 -0.0425203 173.362 0.138437 173.809 0.51198C174.256 0.885522 174.537 1.42115 174.59 2.00136L177.217 31.3195C177.269 31.8999 177.088 32.4768 176.714 32.9239C176.341 33.371 175.805 33.6517 175.225 33.7044Z" fill="#856FB3"/>
<path d="M70.8444 35.3056C75.9417 35.3056 80.0739 31.1734 80.0739 26.0761C80.0739 20.9789 75.9417 16.8467 70.8444 16.8467C65.7472 16.8467 61.615 20.9789 61.615 26.0761C61.615 31.1734 65.7472 35.3056 70.8444 35.3056Z" fill="white"/>
<path d="M91.526 18.0448C91.1202 18.082 90.7457 18.2786 90.4848 18.5915C90.2238 18.9045 90.0977 19.3082 90.1341 19.714C90.1704 20.1198 90.3664 20.4947 90.6788 20.7562C90.9912 21.0177 91.3947 21.1446 91.8006 21.109L164.028 14.6357C164.23 14.618 164.426 14.5607 164.605 14.4671C164.784 14.3736 164.943 14.2456 165.073 14.0905C165.203 13.9355 165.301 13.7563 165.361 13.5634C165.421 13.3705 165.443 13.1675 165.425 12.9661C165.407 12.7647 165.35 12.5689 165.256 12.3898C165.162 12.2107 165.034 12.0518 164.879 11.9223C164.723 11.7927 164.544 11.6951 164.351 11.6349C164.158 11.5747 163.955 11.5532 163.754 11.5715L91.526 18.0448Z" fill="white"/>
<path d="M92.3497 27.2377C92.1482 27.2554 91.9522 27.3126 91.7728 27.4061C91.5935 27.4996 91.4344 27.6276 91.3045 27.7827C91.1747 27.9377 91.0767 28.1169 91.0162 28.3099C90.9557 28.5029 90.9339 28.7059 90.9519 28.9074C90.97 29.1088 91.0276 29.3047 91.1215 29.4839C91.2153 29.6631 91.3436 29.8219 91.4989 29.9515C91.6543 30.081 91.8336 30.1786 92.0267 30.2388C92.2198 30.2989 92.4229 30.3203 92.6243 30.3019L164.852 23.8286C165.053 23.8108 165.249 23.7535 165.429 23.66C165.608 23.5664 165.767 23.4385 165.897 23.2834C166.026 23.1283 166.124 22.9492 166.185 22.7563C166.245 22.5633 166.267 22.3604 166.249 22.159C166.231 21.9576 166.173 21.7618 166.08 21.5826C165.986 21.4035 165.858 21.2447 165.702 21.1151C165.547 20.9856 165.368 20.888 165.175 20.8278C164.982 20.7676 164.779 20.7461 164.577 20.7644L92.3497 27.2377Z" fill="white"/>
</g>
<defs>
<clipPath id="clip0">
<rect width="250" height="174.745" fill="white"/>
</clipPath>
</defs>
</svg>
