<svg width="250" height="120" viewBox="0 0 250 120" fill="none" xmlns="http://www.w3.org/2000/svg">
<g clip-path="url(#clip0)">
<path d="M124.649 99.7712L123.423 101.027L123.305 98.5361L123.158 102.214L122.029 101.056L123.148 102.468L122.778 111.768H123.934L123.436 101.3L124.649 99.7712Z" fill="#E6E6E6"/>
<path d="M126.929 102.868L125.704 104.124L125.585 101.633L125.439 105.311L124.31 104.153L125.429 105.565L125.058 114.865H126.215L125.717 104.397L126.929 102.868Z" fill="#E6E6E6"/>
<path d="M130.349 101.179L129.124 102.435L129.005 99.9436L128.858 103.622L127.729 102.464L128.848 103.875L128.478 113.176H129.634L129.137 102.708L130.349 101.179Z" fill="#E6E6E6"/>
<path d="M121.989 102.586L120.764 103.842L120.645 101.351L120.499 105.029L119.369 103.872L120.488 105.283L120.118 114.583H121.275L120.776 104.116L121.989 102.586Z" fill="#E6E6E6"/>
<path d="M96.0023 0H3.65991V118.243H96.0023V0Z" fill="#E6E6E6"/>
<path d="M89.6811 7.12988H9.78955V57.7106H89.6811V7.12988Z" fill="white"/>
<path d="M89.6818 55.6362H9.78882V109.848H89.6818V55.6362Z" fill="white"/>
<path d="M51.8101 6.87061H47.6599V57.7107H51.8101V6.87061Z" fill="#3F3D56"/>
<path d="M89.6807 6.87061H85.5305V57.7107H89.6807V6.87061Z" fill="#3F3D56"/>
<path d="M89.6811 53.5605H9.78955V57.7108H89.6811V53.5605Z" fill="#3F3D56"/>
<path d="M21.0799 34.3657L13.9397 39.1653V43.136L24.7564 34.3657H21.0799Z" fill="white"/>
<path d="M32.8443 34.3657L13.9397 49.165V52.5476L38.5793 34.3657H32.8443Z" fill="#E6E6E6"/>
<path d="M13.9398 6.87061H9.78955V57.7107H13.9398V6.87061Z" fill="#3F3D56"/>
<path d="M78.1373 11.0208L62.186 31.2531L67.1145 31.7717L80.862 10.2427L78.1373 11.0208Z" fill="#E6E6E6"/>
<path d="M89.6811 6.87061H9.78955V11.0208H89.6811V6.87061Z" fill="#3F3D56"/>
<path d="M89.6811 30.2156H9.78955V34.3658H89.6811V30.2156Z" fill="#3F3D56"/>
<path d="M247.185 0H154.842V118.243H247.185V0Z" fill="#E6E6E6"/>
<path d="M240.857 6.98145H160.965V57.5621H240.857V6.98145Z" fill="white"/>
<path d="M240.856 55.4871H160.966V109.699H240.856V55.4871Z" fill="white"/>
<path d="M202.986 6.72192H198.836V57.562H202.986V6.72192Z" fill="#3F3D56"/>
<path d="M240.857 6.72192H236.707V57.562H240.857V6.72192Z" fill="#3F3D56"/>
<path d="M240.857 53.4119H160.965V57.5621H240.857V53.4119Z" fill="#3F3D56"/>
<path d="M172.256 34.217L165.115 39.0169V42.9873L175.932 34.217H172.256Z" fill="#E6E6E6"/>
<path d="M184.02 34.217L165.115 49.0163V52.3989L189.755 34.217H184.02Z" fill="#E6E6E6"/>
<path d="M165.115 6.72192H160.965V57.562H165.115V6.72192Z" fill="#3F3D56"/>
<path d="M229.313 10.8721L213.362 31.1044L218.29 31.623L232.038 10.094L229.313 10.8721Z" fill="#E6E6E6"/>
<path d="M240.857 6.72192H160.965V10.8721H240.857V6.72192Z" fill="#3F3D56"/>
<path d="M240.857 30.0669H160.965V34.2171H240.857V30.0669Z" fill="#3F3D56"/>
<path d="M199.144 67.7769C199.144 67.7769 199.448 68.7899 197.726 69.7017C196.003 70.6134 195.497 74.0578 197.523 75.0709C199.549 76.0839 200.157 77.4009 199.144 78.3127C198.131 79.2244 196.307 81.6557 198.739 82.2636C201.17 82.8714 201.474 84.0871 200.765 84.5936C200.056 85.1001 202.386 83.6818 202.386 83.6818C202.386 83.6818 202.791 86.1132 204.918 85.5053C207.046 84.8975 213.023 73.3487 209.984 71.7278C206.944 70.1069 199.144 67.7769 199.144 67.7769Z" fill="#2F2E41"/>
<path d="M196.38 90.8812L186.659 97.7117C186.659 97.7117 179.303 90.0931 179.303 85.627C179.303 81.1609 175.363 72.7541 173.524 76.1693C171.685 79.5846 175.625 87.7287 175.625 87.7287L182.981 105.068C182.981 105.068 187.185 105.856 189.549 104.017C191.913 102.178 198.481 98.4998 198.481 98.4998L196.38 90.8812Z" fill="#FFB9B9"/>
<path d="M205.969 79.4533C210.031 79.4533 213.325 76.1599 213.325 72.0974C213.325 68.0348 210.031 64.7415 205.969 64.7415C201.906 64.7415 198.613 68.0348 198.613 72.0974C198.613 76.1599 201.906 79.4533 205.969 79.4533Z" fill="#FFB9B9"/>
<path d="M202.159 77.2203C202.159 77.2203 204.786 84.0508 203.735 85.627C202.684 87.2033 201.371 87.2033 200.32 87.7287C199.795 87.9914 194.278 90.0932 194.278 91.6694C194.303 92.6822 194.573 93.6738 195.066 94.5592L195.854 99.0253L202.422 103.229L211.091 102.178L217.659 98.4999C217.659 98.4999 218.71 88.7796 215.82 87.2033C212.93 85.6271 209.515 81.9491 209.778 80.6355C210.04 79.322 210.303 76.1694 210.303 76.1694L202.159 77.2203Z" fill="#FFB9B9"/>
<path d="M216.084 97.1874V97.1959L215.847 99.5157L215.546 102.491L215.203 105.856L214.814 109.699H195.777C195.521 107.598 195.068 105.372 194.277 104.017C193.779 103.212 193.558 102.266 193.646 101.323C193.823 99.5635 195.065 98.3361 195.065 97.9757C195.065 97.5816 192.852 95.2702 191.746 94.1356C191.374 93.7556 191.126 93.5078 191.126 93.5078L194.541 90.8811L194.589 90.9628L195.068 91.8017L196.641 94.5579L196.118 96.661C196.118 96.661 196.931 96.8017 198.063 96.9819C200.02 97.2888 202.931 97.7111 204.26 97.7111C205.493 97.7111 206.999 98.3445 208.243 98.7077C208.283 98.719 208.319 98.7302 208.356 98.7415C209.139 98.9611 209.809 99.0624 210.231 98.809C210.256 98.7947 210.281 98.7788 210.304 98.7612C210.524 98.6121 210.763 98.4919 211.014 98.4036H211.016C211.926 98.0817 212.858 97.8239 213.804 97.6322C214.868 97.3986 215.802 97.2353 216.03 97.1959C216.031 97.1955 216.031 97.1952 216.032 97.195C216.032 97.1948 216.033 97.1947 216.033 97.1947C216.034 97.1947 216.034 97.1948 216.035 97.195C216.035 97.1952 216.036 97.1955 216.036 97.1959C216.067 97.1902 216.084 97.1874 216.084 97.1874Z" fill="#CDAB3C"/>
<path d="M216.903 96.7877C216.883 96.9284 216.866 97.072 216.849 97.2128C216.768 97.8322 216.7 98.4515 216.641 99.0709C216.478 100.715 216.379 102.364 216.345 104.017C216.336 104.635 216.271 105.25 216.151 105.856C215.89 107.16 215.538 108.444 215.098 109.699H207.66C207.857 108.235 208.122 105.983 208.251 103.623V103.62C208.271 103.254 208.285 102.886 208.299 102.517C208.348 101.277 208.331 100.036 208.249 98.7978C208.246 98.7668 208.246 98.7359 208.243 98.7077C208.229 98.5472 208.215 98.3924 208.201 98.2376C207.677 92.9842 210.827 87.2043 210.827 87.2043C211.894 87.2043 212.936 87.7927 213.865 88.6035C215 89.6173 215.869 90.8927 216.399 92.319C216.928 93.7453 217.101 95.2793 216.903 96.7877Z" fill="#FFB9B9"/>
<path opacity="0.1" d="M216.346 104.017C216.336 104.635 216.271 105.25 216.151 105.856C215.89 107.16 215.538 108.444 215.098 109.699H207.604C207.833 107.332 207.904 104.952 207.815 102.576C207.801 102.227 207.781 101.872 207.753 101.52V101.515C207.734 101.211 207.708 100.907 207.677 100.602C207.631 100.251 207.65 99.894 207.734 99.5495V99.5439C207.793 99.2822 207.937 99.0471 208.142 98.8739C208.175 98.8454 208.211 98.8199 208.249 98.7979C208.282 98.7753 208.318 98.7564 208.356 98.7416C208.39 98.7228 208.426 98.7068 208.463 98.6937C208.756 98.5966 209.069 98.5696 209.375 98.6149C209.666 98.6496 209.953 98.7147 210.231 98.8091C211.471 99.2636 212.63 99.9158 213.663 100.74C214.349 101.258 214.98 101.845 215.546 102.492C216.042 103.077 216.346 103.618 216.346 104.017Z" fill="black"/>
<path d="M207.413 100.076L208.251 103.623L212.93 105.856H216.871L218.71 97.4491C218.71 97.4491 215.463 96.7623 213.803 97.6311C212.142 98.4999 208.243 98.7078 208.243 98.7078L207.413 100.076Z" fill="#CDAB3C"/>
<path d="M206.029 64.7144C206.029 64.7144 206.366 65.8366 204.458 66.8467C202.55 67.8567 201.989 71.6724 204.233 72.7947C206.478 73.9169 207.151 75.3759 206.029 76.3859C204.907 77.396 202.887 80.0894 205.58 80.7628C208.274 81.4361 208.61 82.7828 207.825 83.344C207.039 83.9051 209.62 82.3339 209.62 82.3339C209.62 82.3339 210.069 85.0274 212.426 84.354C214.783 83.6806 217.134 71.4405 214.507 68.288C212.064 65.3567 206.029 64.7144 206.029 64.7144Z" fill="#2F2E41"/>
<path d="M205.312 63.5593C205.312 61.9151 215.531 63.7201 217.64 66.0157C219.101 67.6054 221.319 69.997 219.46 71.6829C217.601 73.3688 217.346 74.9552 218.699 75.6253C220.052 76.2953 222.724 78.3444 220.311 79.719C217.899 81.0936 217.938 82.4813 218.846 82.8098C219.754 83.1383 216.845 82.3213 216.845 82.3213C216.845 82.3213 217.138 85.036 214.687 85.023C212.236 85.01 205.205 71.5399 206.884 67.7958C208.446 64.3144 205.312 63.5593 205.312 63.5593Z" fill="#2F2E41"/>
<path d="M206.377 63.1991C199.799 62.803 199.139 67.7545 199.139 67.7545C199.184 70.6199 203.735 69.2237 204.999 69.6509C206.523 68.554 209.463 66.4786 211.564 64.9975C210.038 63.923 208.241 63.2997 206.377 63.1991Z" fill="#2F2E41"/>
<path d="M117.166 108.108L117.68 111.346C117.68 113.25 118.437 115.076 119.783 116.422C121.129 117.768 122.955 118.525 124.859 118.525C126.763 118.525 128.589 117.768 129.936 116.422C131.282 115.076 132.038 113.25 132.038 111.346L132.042 111.301L132.553 108.108H117.166Z" fill="#E6E6E6"/>
<path d="M250 118.198H0V118.761H250V118.198Z" fill="#3F3D56"/>
<path d="M25.9667 109.073V110.728C25.9667 110.728 24.8634 119.279 21.8293 119.279C18.7952 119.279 21.2777 110.452 21.2777 110.452V109.073L25.9667 109.073Z" fill="#9E616A"/>
<path d="M72.0299 77.905L71.4782 76.5259C71.4782 76.5259 67.8925 71.2851 70.375 69.906C72.8574 68.5269 75.8915 75.4225 75.8915 75.4225L76.4432 77.6292L72.0299 77.905Z" fill="#9E616A"/>
<path d="M60.5828 76.2213C64.6039 76.2213 67.8637 72.9616 67.8637 68.9405C67.8637 64.9194 64.6039 61.6597 60.5828 61.6597C56.5617 61.6597 53.302 64.9194 53.302 68.9405C53.302 72.9616 56.5617 76.2213 60.5828 76.2213Z" fill="#9E616A"/>
<path d="M55.342 69.7681L50.3774 73.6296L57.273 79.4218L61.1342 74.7329L55.342 69.7681Z" fill="#9E616A"/>
<path d="M59.8731 109.848H34.5183L36.4412 89.4567L37.8685 74.3131V74.3104C37.8991 73.9854 37.9934 73.6697 38.1461 73.3813C38.2988 73.0929 38.5069 72.8374 38.7585 72.6295C39.01 72.4216 39.3001 72.2654 39.6122 72.1697C39.9242 72.0741 40.252 72.041 40.5769 72.0722L51.0977 73.0688L58.8398 77.5198L59.0651 79.5609L66.7903 85.0761L61.5397 95.0648L58.2373 101.351L59.8731 109.848Z" fill="#B3A3D4"/>
<path d="M38.103 87.2831L30.9315 96.6612L26.5183 109.901H19.8984L24.5875 90.3171L36.9648 73.393C37.2832 72.9599 37.7331 72.6414 38.2473 72.4848C38.7615 72.3282 39.3125 72.3421 39.8182 72.5242C39.9762 72.5893 40.1411 72.6362 40.3096 72.6642L38.103 87.2831Z" fill="#B3A3D4"/>
<path d="M60.7212 94.7303L77.9605 101.764L80.9943 98.73L76.7192 76.5256L71.2026 77.6292L73.4093 90.8688L66.7896 85.0766L64.5827 84.5248L60.7212 94.7303Z" fill="#B3A3D4"/>
<path d="M53.4537 71.2989C53.1048 68.402 53.4291 65.4636 54.4015 62.7125C56.0168 58.3764 61.1671 59.6832 64.1 60.6665C67.0328 61.6499 70.9191 65.7632 69.9079 68.0084C68.8967 70.2536 64.0978 67.4171 62.3861 65.971C60.6743 64.5249 57.6836 68.9168 57.6836 68.9168L53.4537 71.2989Z" fill="#2F2E41"/>
<path d="M58.6122 68.6927C58.881 67.9533 58.7659 67.2328 58.3551 67.0835C57.9443 66.9342 57.3934 67.4125 57.1246 68.1519C56.8558 68.8913 56.9709 69.6118 57.3817 69.7611C57.7925 69.9104 58.3434 69.4321 58.6122 68.6927Z" fill="#9E616A"/>
</g>
<defs>
<clipPath id="clip0">
<rect width="250" height="119.279" fill="white"/>
</clipPath>
</defs>
</svg>
