<svg width="250" height="186" viewBox="0 0 250 186" fill="none" xmlns="http://www.w3.org/2000/svg">
<g clip-path="url(#clip0)">
<path d="M73.5133 182.763H0V182.163H73.6223L73.5133 182.763Z" fill="#3F3D56"/>
<path d="M250 17.0303H201.038V90.1187H250V17.0303Z" fill="#E6E6E6"/>
<path d="M247.386 20.9331H203.652V86.216H247.386V20.9331Z" fill="#F6F6F6"/>
<path d="M234.383 67.3859H232.267V74.7132H234.383V67.3859Z" fill="#3F3D56"/>
<path d="M235.826 73.6388L230.557 67.3046H220.299L214.03 73.4107L214.156 73.4919H214.111V86.1927H235.768V73.4919L235.826 73.6388Z" fill="#3F3D56"/>
<path d="M230.639 67.2229L224.207 74.7637V86.1926H235.768V73.329L230.639 67.2229Z" fill="#856FB3"/>
<path d="M231.209 79.8723H228.848V81.9592H231.209V79.8723Z" fill="#3F3D56"/>
<path d="M231.209 76.2601H228.848V78.3139H231.209V76.2601Z" fill="#3F3D56"/>
<path d="M231.209 79.8723H228.848V81.9592H231.209V79.8723Z" fill="white"/>
<path d="M231.209 76.2601H228.848V78.3139H231.209V76.2601Z" fill="white"/>
<path d="M222.604 85.8203C222.604 85.8203 222.654 84.7597 223.692 84.883Z" fill="#E6E6E6"/>
<path d="M222.31 84.8111C222.597 84.8111 222.83 84.5786 222.83 84.2918C222.83 84.005 222.597 83.7725 222.31 83.7725C222.024 83.7725 221.791 84.005 221.791 84.2918C221.791 84.5786 222.024 84.8111 222.31 84.8111Z" fill="#856FB3"/>
<path d="M222.372 85.1663H222.226V86.1924H222.372V85.1663Z" fill="#E6E6E6"/>
<path d="M182.943 17.0303H133.981V90.1187H182.943V17.0303Z" fill="#E6E6E6"/>
<path d="M180.328 20.9331H136.595V86.216H180.328V20.9331Z" fill="#F6F6F6"/>
<path d="M216.541 45.2419L217.801 44.234C216.822 44.126 216.42 44.6599 216.256 45.0825C215.73 44.9082 215.158 44.9435 214.658 45.1811L217.18 46.0964C217.052 45.7567 216.831 45.4602 216.541 45.2419V45.2419Z" fill="#3F3D56"/>
<path d="M162.127 43.2682L163.387 42.2603C162.408 42.1523 162.006 42.6862 161.842 43.1088C161.316 42.9346 160.744 42.9699 160.244 43.2075L162.766 44.1228C162.638 43.7831 162.417 43.4866 162.127 43.2682V43.2682Z" fill="#3F3D56"/>
<path d="M233.693 35.7211L234.953 34.7132C233.974 34.6052 233.572 35.1391 233.407 35.5617C232.882 35.3874 232.309 35.4228 231.81 35.6603L234.331 36.5757C234.204 36.2359 233.982 35.9395 233.693 35.7211V35.7211Z" fill="#3F3D56"/>
<path d="M168.923 60.1488H166.807V67.4762H168.923V60.1488Z" fill="#3F3D56"/>
<path d="M168.923 59.4161H166.807V66.7435H168.923V59.4161Z" fill="#3F3D56"/>
<path d="M172.122 68.7618L164.897 60.1799H150.72L142.057 68.6186L142.231 68.731H142.169V86.2832H172.098V68.731L172.122 68.7618Z" fill="#3F3D56"/>
<path d="M165.009 60.0675L156.121 70.4885V86.2831H172.098V68.5059L165.009 60.0675Z" fill="#856FB3"/>
<path d="M163.545 77.2737H160.282V80.4325H163.545V77.2737Z" fill="#3F3D56"/>
<path d="M163.545 72.5565H160.282V75.7153H163.545V72.5565Z" fill="#3F3D56"/>
<path d="M163.545 77.2737H160.282V80.4325H163.545V77.2737Z" fill="white"/>
<path d="M163.545 72.5565H160.282V75.7153H163.545V72.5565Z" fill="white"/>
<path d="M168.317 77.2737H165.054V80.4325H168.317V77.2737Z" fill="#3F3D56"/>
<path d="M168.317 72.5565H165.054V75.7153H168.317V72.5565Z" fill="#3F3D56"/>
<path d="M168.317 77.2737H165.054V80.4325H168.317V77.2737Z" fill="white"/>
<path d="M168.317 72.5565H165.054V75.7153H168.317V72.5565Z" fill="white"/>
<path d="M112.217 25.1217C119.154 25.1217 124.778 19.498 124.778 12.5608C124.778 5.62368 119.154 0 112.217 0C105.28 0 99.6562 5.62368 99.6562 12.5608C99.6562 19.498 105.28 25.1217 112.217 25.1217Z" fill="#F0C864"/>
<path d="M115.886 17.0303H66.9238V90.1187H115.886V17.0303Z" fill="#E6E6E6"/>
<path d="M113.272 20.9331H69.5386V86.216H113.272V20.9331Z" fill="#F6F6F6"/>
<path d="M109.941 64.7757L101.123 54.2749H83.788L73.1938 64.5938L73.4081 64.7312H73.3316V86.1941H109.929V64.7312L109.941 64.7757Z" fill="#3F3D56"/>
<path d="M99.216 42.2894L100.406 41.3377C99.4816 41.2357 99.1018 41.7398 98.9463 42.1389C98.4503 41.9743 97.91 42.0077 97.438 42.232L99.8188 43.0963C99.6987 42.7755 99.4896 42.4956 99.216 42.2894V42.2894Z" fill="#3F3D56"/>
<path d="M104.636 53.2916H102.637V60.2104H104.636V53.2916Z" fill="#3F3D56"/>
<path d="M101.261 54.1375L90.3921 66.8802V86.1942H109.929V64.456L101.261 54.1375Z" fill="#856FB3"/>
<path d="M81.5972 85.8425C81.5972 85.8425 81.645 84.8411 82.6247 84.9575Z" fill="#E6E6E6"/>
<path d="M81.3204 84.8897C81.5913 84.8897 81.8108 84.6701 81.8108 84.3993C81.8108 84.1285 81.5913 83.9089 81.3204 83.9089C81.0496 83.9089 80.8301 84.1285 80.8301 84.3993C80.8301 84.6701 81.0496 84.8897 81.3204 84.8897Z" fill="#856FB3"/>
<path d="M81.3791 85.225H81.2407V86.1939H81.3791V85.225Z" fill="#E6E6E6"/>
<path d="M85.979 85.8425C85.979 85.8425 86.0268 84.8411 87.0065 84.9575Z" fill="#E6E6E6"/>
<path d="M85.7023 84.8897C85.9731 84.8897 86.1926 84.6701 86.1926 84.3993C86.1926 84.1285 85.9731 83.9089 85.7023 83.9089C85.4315 83.9089 85.2119 84.1285 85.2119 84.3993C85.2119 84.6701 85.4315 84.8897 85.7023 84.8897Z" fill="#856FB3"/>
<path d="M85.761 85.225H85.6226V86.1939H85.761V85.225Z" fill="#E6E6E6"/>
<path d="M75.6011 85.8425C75.6011 85.8425 75.6489 84.8411 76.6286 84.9575Z" fill="#E6E6E6"/>
<path d="M75.3243 84.8897C75.5952 84.8897 75.8147 84.6701 75.8147 84.3993C75.8147 84.1285 75.5952 83.9089 75.3243 83.9089C75.0535 83.9089 74.834 84.1285 74.834 84.3993C74.834 84.6701 75.0535 84.8897 75.3243 84.8897Z" fill="#856FB3"/>
<path d="M75.3826 85.225H75.2441V86.1939H75.3826V85.225Z" fill="#E6E6E6"/>
<path d="M96.8937 69.4091H92.9038V73.4887H96.8937V69.4091Z" fill="#3F3D56"/>
<path d="M96.8937 74.9602H92.9038V79.0399H96.8937V74.9602Z" fill="#3F3D56"/>
<path d="M96.8937 69.4091H92.9038V73.4887H96.8937V69.4091Z" fill="white"/>
<path d="M96.8937 74.9602H92.9038V79.0399H96.8937V74.9602Z" fill="white"/>
<path d="M102.412 69.4091H98.4219V73.4887H102.412V69.4091Z" fill="#3F3D56"/>
<path d="M102.412 74.9602H98.4219V79.0399H102.412V74.9602Z" fill="#3F3D56"/>
<path d="M102.412 69.4091H98.4219V73.4887H102.412V69.4091Z" fill="white"/>
<path d="M102.412 74.9602H98.4219V79.0399H102.412V74.9602Z" fill="white"/>
<path d="M107.93 69.4091H103.94V73.4887H107.93V69.4091Z" fill="#3F3D56"/>
<path d="M107.93 74.9602H103.94V79.0399H107.93V74.9602Z" fill="#3F3D56"/>
<path d="M107.93 69.4091H103.94V73.4887H107.93V69.4091Z" fill="white"/>
<path d="M107.93 74.9602H103.94V79.0399H107.93V74.9602Z" fill="white"/>
<path d="M249.582 90.4906H66.9995C66.9995 90.4906 104.07 81.5639 158.671 81.6652C158.977 81.6652 159.283 81.666 159.59 81.6678C160.679 81.6717 161.775 81.6792 162.876 81.6902C163.739 81.6994 164.605 81.7108 165.474 81.7243C165.85 81.7296 166.226 81.7362 166.604 81.7428C166.755 81.7454 166.904 81.748 167.053 81.7507C167.399 81.7572 167.747 81.7642 168.098 81.7717C168.755 81.7849 169.414 81.7998 170.075 81.8164C170.654 81.8309 171.236 81.8467 171.821 81.8638C172.043 81.869 172.27 81.8756 172.494 81.8835C173.554 81.9137 174.618 81.9488 175.686 81.9887C175.934 81.9979 176.182 82.0071 176.431 82.0163C176.774 82.0282 177.118 82.0426 177.46 82.0558C177.913 82.0742 178.366 82.0931 178.82 82.1124C179.409 82.1373 179.997 82.1637 180.587 82.1913C181.821 82.2478 183.062 82.3101 184.31 82.378C185.237 82.4267 186.168 82.4793 187.101 82.5359C187.498 82.5595 187.896 82.5845 188.295 82.6095C188.906 82.6464 189.518 82.6854 190.131 82.7266C190.522 82.7529 190.914 82.7792 191.305 82.8055C191.777 82.8371 192.247 82.87 192.719 82.9042C193.189 82.9383 193.663 82.9725 194.136 83.0081C194.61 83.0436 195.084 83.0795 195.559 83.1159C196.035 83.1527 196.509 83.1896 196.986 83.229C197.456 83.2658 197.926 83.3053 198.398 83.3448C200.409 83.5118 202.434 83.6937 204.474 83.8906C204.864 83.9274 205.259 83.9656 205.651 84.005C206.056 84.0445 206.462 84.0853 206.87 84.1274C207.437 84.1839 208.006 84.2427 208.577 84.3036C209.066 84.3549 209.555 84.4071 210.046 84.4601C210.488 84.5075 210.935 84.5561 211.38 84.6061L211.519 84.6219C212.01 84.6758 212.503 84.7324 212.994 84.7889C213.487 84.8455 213.983 84.9034 214.476 84.9612C214.971 85.0191 215.466 85.0783 215.962 85.1388C216.459 85.1993 216.954 85.2598 217.452 85.3216C217.84 85.3703 218.226 85.419 218.614 85.4676C218.807 85.4926 219.001 85.5163 219.194 85.5413C219.609 85.5952 220.026 85.6496 220.444 85.7044C220.944 85.7701 221.444 85.8363 221.945 85.903C222.002 85.9109 222.056 85.9188 222.113 85.9253C222.889 86.0306 223.666 86.1375 224.444 86.2463C224.549 86.2607 224.656 86.2765 224.763 86.291C225.171 86.3475 225.578 86.4054 225.985 86.4646C226.392 86.5238 226.799 86.5817 227.208 86.6422C227.225 86.6435 227.242 86.6461 227.259 86.6487C227.836 86.7329 228.411 86.8184 228.99 86.9065C229.278 86.9486 229.565 86.992 229.853 87.0367C230.247 87.0959 230.64 87.1564 231.034 87.2183C231.292 87.259 231.55 87.2998 231.811 87.3406C232.002 87.3682 232.193 87.3984 232.384 87.43C232.787 87.4918 233.19 87.5558 233.595 87.622C233.97 87.6825 234.346 87.7435 234.721 87.8049C234.732 87.806 234.743 87.8077 234.753 87.8101C234.843 87.8246 234.931 87.8391 235.022 87.8535C235.297 87.8982 235.571 87.9443 235.848 87.9903C236.132 88.0377 236.417 88.085 236.703 88.1337C236.952 88.1758 237.204 88.2179 237.454 88.2613C237.461 88.2614 237.468 88.2622 237.475 88.2639C237.511 88.2691 237.546 88.2757 237.582 88.2823C237.872 88.331 238.161 88.3796 238.451 88.4309C238.74 88.4809 239.03 88.5309 239.322 88.5822C239.351 88.5861 239.38 88.5914 239.41 88.5967C239.634 88.6348 239.859 88.6743 240.084 88.715C240.084 88.715 240.084 88.7137 240.086 88.715C240.214 88.7361 240.342 88.7597 240.47 88.7821C240.812 88.8426 241.154 88.9035 241.496 88.9649C241.716 89.0044 241.939 89.0438 242.159 89.0846C242.774 89.1964 243.39 89.3091 244.008 89.4226C244.625 89.5371 245.244 89.6528 245.861 89.7699C246.233 89.8396 246.602 89.9106 246.973 89.9829C247.322 90.0487 247.67 90.1158 248.019 90.1842C248.539 90.2855 249.062 90.3867 249.582 90.4906Z" fill="#E6E6E6"/>
<path d="M249.526 90.7704C249.063 90.6781 248.598 90.5877 248.135 90.4976L247.964 90.4643C247.616 90.3958 247.268 90.3288 246.92 90.2635C246.548 90.1908 246.179 90.1199 245.808 90.0504C245.191 89.9332 244.574 89.8175 243.956 89.7032C243.416 89.603 242.876 89.5043 242.337 89.4068L242.108 89.3653C241.92 89.3305 241.73 89.2968 241.542 89.2631L241.446 89.2458C241.134 89.1896 240.824 89.1341 240.513 89.0795L240.368 89.054V89.057L240.032 88.9958L240.014 88.9925L239.982 88.9866C239.775 88.9493 239.569 88.9131 239.362 88.878C239.332 88.8727 239.308 88.8683 239.284 88.8651L238.402 88.7121C238.126 88.6631 237.851 88.6169 237.576 88.5706L237.534 88.5637C237.498 88.557 237.465 88.5509 237.433 88.5461C237.185 88.5041 236.963 88.4667 236.742 88.4297L234.675 88.0864C234.3 88.0246 233.924 87.9637 233.549 87.9038C233.144 87.8379 232.742 87.774 232.34 87.712C232.148 87.6803 231.959 87.6503 231.77 87.6231L230.989 87.5001C230.596 87.4384 230.204 87.3781 229.81 87.3189C229.522 87.2742 229.235 87.2309 228.949 87.1888C228.368 87.1005 227.794 87.0151 227.217 86.9312L227.166 86.9245C226.904 86.8856 226.642 86.8476 226.382 86.8103L225.944 86.747C225.537 86.6879 225.13 86.6301 224.724 86.5737L224.405 86.5289C223.626 86.4198 222.849 86.3128 222.074 86.2081C222.03 86.2031 221.983 86.1964 221.934 86.1895L217.416 85.6048C216.919 85.5431 216.424 85.4826 215.927 85.422C215.432 85.3616 214.937 85.3024 214.442 85.2446C213.949 85.1868 213.454 85.1289 212.961 85.0725C212.471 85.0159 211.978 84.9594 211.487 84.9056L211.348 84.8896C210.904 84.8399 210.457 84.7911 210.015 84.7438C209.555 84.6934 209.098 84.6445 208.641 84.5973L208.547 84.5874C207.976 84.5269 207.408 84.4682 206.842 84.4113C206.434 84.3693 206.028 84.3285 205.623 84.2889C205.231 84.2495 204.836 84.2115 204.447 84.1747C202.451 83.9815 200.408 83.7981 198.374 83.6292C197.893 83.5889 197.428 83.5499 196.963 83.5135C196.486 83.4739 196.012 83.4373 195.536 83.4004C195.063 83.3636 194.589 83.3277 194.114 83.2926C193.691 83.2608 193.266 83.23 192.845 83.1994L192.698 83.1888C192.227 83.1546 191.757 83.1217 191.286 83.0904L190.112 83.0112C189.5 82.9706 188.889 82.9316 188.278 82.8943L188.171 82.8876C187.808 82.8649 187.445 82.8425 187.084 82.8206C186.151 82.7656 185.221 82.713 184.295 82.6629C183.048 82.5946 181.808 82.5323 180.573 82.4763C179.984 82.4487 179.397 82.4224 178.807 82.3973C178.396 82.3795 177.985 82.3624 177.574 82.346L177.101 82.3273C176.874 82.3182 176.647 82.3093 176.422 82.3015L175.676 82.274C174.608 82.2344 173.545 82.1993 172.486 82.1687C172.261 82.1609 172.035 82.1542 171.814 82.149C171.227 82.1319 170.646 82.116 170.067 82.1017C169.407 82.0859 168.748 82.071 168.092 82.057L166.598 82.0281C166.221 82.0215 165.845 82.0153 165.47 82.0096C164.599 81.9953 163.735 81.9847 162.873 81.9755C161.772 81.9637 160.677 81.9562 159.589 81.9531L159.505 81.9527C159.227 81.9516 158.949 81.9508 158.67 81.9504C158.368 81.9499 158.062 81.9496 157.76 81.9496C104.307 81.9496 67.4344 90.6793 67.0662 90.768L66.9326 90.2135C67.3015 90.1246 104.246 81.3792 157.76 81.3792C158.066 81.3792 158.364 81.3794 158.671 81.38C158.949 81.38 159.228 81.3808 159.507 81.3824L159.591 81.3826C160.68 81.3867 161.777 81.3941 162.879 81.4051C163.742 81.4142 164.608 81.4248 165.479 81.4392C165.854 81.4445 166.231 81.4506 166.608 81.4577L168.104 81.4865C168.761 81.4998 169.42 81.5148 170.081 81.5315C170.661 81.5459 171.244 81.5616 171.829 81.5789C172.051 81.584 172.279 81.5907 172.504 81.5985C173.563 81.6287 174.627 81.6638 175.697 81.7038L176.442 81.7314C176.668 81.7393 176.896 81.7482 177.124 81.7573L177.597 81.7761C178.009 81.7928 178.42 81.8099 178.832 81.8275C179.422 81.8525 180.01 81.8789 180.6 81.9064C181.835 81.963 183.077 82.0253 184.325 82.0933C185.253 82.1421 186.184 82.1947 187.117 82.2513C187.48 82.2728 187.843 82.2952 188.207 82.3182L188.313 82.3249C188.924 82.3618 189.536 82.4009 190.15 82.4421L191.324 82.5212C191.796 82.5526 192.267 82.5855 192.74 82.6198L192.886 82.6305C193.308 82.6611 193.734 82.6919 194.157 82.7238C194.631 82.7593 195.106 82.7952 195.58 82.8316C196.057 82.8685 196.532 82.9054 197.009 82.9448C197.474 82.9813 197.94 83.0196 198.408 83.0596C200.458 83.2298 202.503 83.4136 204.501 83.6068C204.891 83.6436 205.286 83.6819 205.679 83.7213C206.084 83.7608 206.492 83.8016 206.899 83.8438C207.466 83.9004 208.035 83.9591 208.607 84.02L208.701 84.03C209.159 84.0781 209.617 84.127 210.077 84.1767C210.519 84.224 210.966 84.2728 211.412 84.3228L211.551 84.3386C212.041 84.3926 212.535 84.4491 213.027 84.5056C213.52 84.5623 214.015 84.6203 214.509 84.678C215.005 84.736 215.5 84.7952 215.996 84.8557C216.494 84.9163 216.989 84.9768 217.487 85.0387L222.013 85.6246C222.057 85.6308 222.1 85.6369 222.145 85.642C222.928 85.748 223.705 85.8546 224.484 85.9639L224.801 86.0083C225.21 86.0652 225.618 86.1232 226.026 86.1824L226.463 86.2456C226.725 86.2834 226.987 86.3216 227.25 86.3601C227.257 86.3624 227.279 86.3633 227.303 86.3671C227.877 86.4508 228.454 86.5366 229.033 86.6246C229.32 86.6665 229.607 86.71 229.896 86.7549C230.29 86.814 230.683 86.8746 231.078 86.9366L231.855 87.059C232.044 87.0863 232.237 87.1168 232.43 87.1488C232.83 87.2102 233.234 87.2742 233.64 87.3407C234.016 87.401 234.392 87.4619 234.768 87.5234C234.786 87.5257 234.804 87.5291 234.822 87.5335L236.837 87.867C237.05 87.903 237.265 87.9392 237.478 87.9761L237.531 87.9844C237.556 87.9876 237.594 87.9946 237.633 88.0018L237.67 88.008C237.947 88.0546 238.224 88.1011 238.501 88.1501L239.371 88.3014C239.392 88.3039 239.424 88.3096 239.457 88.3155C239.65 88.3482 239.842 88.3818 240.033 88.4163L240.092 88.3837L240.188 88.4432C240.254 88.4543 240.32 88.466 240.386 88.4777L240.613 88.5178C240.924 88.573 241.235 88.6285 241.546 88.6844L241.643 88.7015C241.832 88.7354 242.022 88.7693 242.211 88.8042L242.439 88.8455C242.978 88.9437 243.519 89.0426 244.06 89.1422C244.677 89.2568 245.297 89.3725 245.914 89.4898C246.286 89.5594 246.656 89.6306 247.028 89.7031C247.375 89.7686 247.724 89.8358 248.073 89.9044L248.244 89.9377C248.708 90.0279 249.174 90.1184 249.637 90.211L249.526 90.7704Z" fill="#3F3D56"/>
<path d="M192.58 47.7379C204.457 47.7379 214.085 38.1099 214.085 26.2332C214.085 14.3565 204.457 4.72852 192.58 4.72852C180.704 4.72852 171.076 14.3565 171.076 26.2332C171.076 38.1099 180.704 47.7379 192.58 47.7379Z" fill="#856FB3"/>
<path opacity="0.2" d="M208.577 11.8698C210.583 16.5619 210.855 21.8145 209.345 26.6888C207.834 31.5631 204.64 35.7416 200.332 38.4776C196.025 41.2136 190.885 42.3287 185.831 41.6238C180.777 40.9189 176.138 38.4399 172.744 34.6297C173.969 37.4964 175.803 40.0625 178.119 42.15C180.434 44.2376 183.176 45.7968 186.154 46.7196C189.132 47.6424 192.275 47.9067 195.365 47.4942C198.455 47.0818 201.419 46.0024 204.05 44.3308C206.682 42.6593 208.919 40.4356 210.606 37.8138C212.292 35.192 213.389 32.2348 213.82 29.147C214.25 26.0593 214.005 22.9148 213.099 19.9315C212.194 16.9483 210.651 14.1975 208.577 11.8698V11.8698Z" fill="black"/>
<path d="M192.639 26.2333H192.698L193.762 87.2024H191.517L192.639 26.2333Z" fill="#3F3D56"/>
<path d="M196.555 59.4428L196.06 58.5018L192.505 60.3734L193 61.3143L196.555 59.4428Z" fill="#3F3D56"/>
<path d="M141.239 87.7187C141.239 87.7187 141.33 85.8155 143.192 86.0367Z" fill="#3F3D56"/>
<path d="M140.713 85.9075C141.227 85.9075 141.645 85.4903 141.645 84.9756C141.645 84.4609 141.227 84.0437 140.713 84.0437C140.198 84.0437 139.781 84.4609 139.781 84.9756C139.781 85.4903 140.198 85.9075 140.713 85.9075Z" fill="#856FB3"/>
<path d="M140.825 86.5449H140.562V88.3863H140.825V86.5449Z" fill="#3F3D56"/>
<path d="M175.173 88.1132C175.173 88.1132 175.264 86.21 177.126 86.4312Z" fill="#3F3D56"/>
<path d="M174.647 86.302C175.161 86.302 175.579 85.8848 175.579 85.3701C175.579 84.8555 175.161 84.4382 174.647 84.4382C174.132 84.4382 173.715 84.8555 173.715 85.3701C173.715 85.8848 174.132 86.302 174.647 86.302Z" fill="#856FB3"/>
<path d="M174.758 86.9395H174.495V88.7808H174.758V86.9395Z" fill="#3F3D56"/>
<path d="M119.274 84.825C119.274 84.825 119.365 82.9218 121.227 83.143Z" fill="#3F3D56"/>
<path d="M118.748 83.014C119.262 83.014 119.68 82.5967 119.68 82.0821C119.68 81.5674 119.262 81.1501 118.748 81.1501C118.233 81.1501 117.816 81.5674 117.816 82.0821C117.816 82.5967 118.233 83.014 118.748 83.014Z" fill="#856FB3"/>
<path d="M118.859 83.6512H118.596V85.4926H118.859V83.6512Z" fill="#3F3D56"/>
<path d="M133.61 82.326C133.61 82.326 133.701 80.4228 135.563 80.644Z" fill="#3F3D56"/>
<path d="M133.084 80.5149C133.599 80.5149 134.016 80.0977 134.016 79.583C134.016 79.0683 133.599 78.6511 133.084 78.6511C132.57 78.6511 132.152 79.0683 132.152 79.583C132.152 80.0977 132.57 80.5149 133.084 80.5149Z" fill="#856FB3"/>
<path d="M133.196 81.1522H132.933V82.9936H133.196V81.1522Z" fill="#3F3D56"/>
<path d="M169.517 85.8772C169.517 85.8772 169.608 83.9741 171.47 84.1953Z" fill="#3F3D56"/>
<path d="M168.991 84.0661C169.506 84.0661 169.923 83.6489 169.923 83.1342C169.923 82.6195 169.506 82.2023 168.991 82.2023C168.476 82.2023 168.059 82.6195 168.059 83.1342C168.059 83.6489 168.476 84.0661 168.991 84.0661Z" fill="#856FB3"/>
<path d="M169.103 84.7035H168.84V86.5449H169.103V84.7035Z" fill="#3F3D56"/>
<path d="M143.428 5.19083L144.639 4.22242C143.698 4.11865 143.312 4.63164 143.153 5.03768C142.649 4.87023 142.099 4.90417 141.619 5.13244L144.041 6.01192C143.919 5.68549 143.706 5.40066 143.428 5.19083V5.19083Z" fill="#3F3D56"/>
<path d="M161.842 15.0553L163.052 14.0869C162.112 13.9832 161.725 14.4961 161.567 14.9022C161.062 14.7347 160.512 14.7687 160.032 14.9969L162.455 15.8764C162.333 15.55 162.12 15.2652 161.842 15.0553V15.0553Z" fill="#3F3D56"/>
<path d="M141.981 23.4731L143.192 22.5047C142.251 22.4009 141.865 22.9139 141.707 23.3199C141.202 23.1524 140.652 23.1864 140.172 23.4147L142.594 24.2941C142.472 23.9677 142.26 23.6829 141.981 23.4731V23.4731Z" fill="#3F3D56"/>
<path d="M42.5538 93.6518C43.7973 93.2652 44.3354 91.4398 43.7556 89.5745C43.1758 87.7093 41.6977 86.5105 40.4542 86.897C39.2107 87.2836 38.6727 89.109 39.2525 90.9743C39.8322 92.8396 41.3103 94.0383 42.5538 93.6518Z" fill="#2F2E41"/>
<path d="M14.9786 75.0664C14.9786 75.0664 14.2712 89.2134 15.686 98.6447C17.1007 108.076 18.7511 117.036 18.7511 117.036C18.7511 117.036 22.7595 113.971 25.1173 114.914L20.8732 82.1399L14.9786 75.0664Z" fill="#644A98"/>
<path d="M29.9508 59.6226C34.248 59.6226 37.7316 56.139 37.7316 51.8418C37.7316 47.5445 34.248 44.0609 29.9508 44.0609C25.6535 44.0609 22.1699 47.5445 22.1699 51.8418C22.1699 56.139 25.6535 59.6226 29.9508 59.6226Z" fill="#FFB8B8"/>
<path d="M24.8815 53.8459L21.5806 62.3343L26.2962 64.4563L31.0118 55.968L24.8815 53.8459Z" fill="#FFB8B8"/>
<path d="M27.704 61.9219C27.704 61.9219 22.9952 58.7973 20.8731 59.9763L18.9868 64.4561C18.9868 64.4561 12.3849 72.7086 14.9785 78.8389C17.5721 84.9693 23.4667 92.0428 23.4667 92.0428L24.1741 95.3437C24.1741 95.3437 14.9785 107.369 15.9217 116.328L4.83984 146.509C4.83984 146.509 10.9702 149.102 31.4833 150.045C51.9965 150.989 51.9965 150.045 51.9965 150.045C51.9965 150.045 49.4029 99.8236 41.3862 91.807L40.2073 88.0345C40.2073 88.0345 41.8578 77.4242 38.0853 72.9443L36.8106 70.395C34.8957 66.5652 31.6617 63.5561 27.704 61.9219V61.9219Z" fill="#2F2E41"/>
<path d="M39.5 112.556L39.9716 118.922C39.9716 118.922 39.2642 127.175 43.9799 125.524C48.6956 123.874 44.923 114.678 44.923 114.678L44.2156 111.849L39.5 112.556Z" fill="#FFB8B8"/>
<path d="M6.72625 145.33L4.13264 170.559C4.13264 170.559 0.831672 172.445 2.48215 177.632C4.13264 182.819 3.66107 185.413 3.66107 185.413L5.31155 184.941L6.01891 178.575C6.01891 178.575 8.78936 182.112 11.2061 182.819C12.8845 183.311 14.6196 183.688 15.7602 182.373C17.0888 180.84 16.4478 178.474 14.6111 177.614C14.4254 177.526 14.2329 177.453 14.0356 177.396C12.3851 176.925 10.7346 170.559 10.7346 170.559L13.564 159.005L17.8081 146.273L6.72625 145.33Z" fill="#2F2E41"/>
<path d="M38.7927 145.33L36.199 170.559C36.199 170.559 32.8981 172.445 34.5486 177.632C36.199 182.819 35.7275 185.413 35.7275 185.413L37.378 184.941L38.0853 178.575C38.0853 178.575 40.8558 182.112 43.2726 182.819C44.9509 183.311 46.686 183.688 47.8266 182.373C49.1553 180.84 48.5142 178.474 46.6775 177.614C46.4918 177.526 46.2993 177.453 46.102 177.396C44.4515 176.925 42.801 170.559 42.801 170.559L45.6304 159.005L49.8745 146.273L38.7927 145.33Z" fill="#2F2E41"/>
<path opacity="0.4" d="M28.8901 66.3424C28.8901 66.3424 23.2313 69.6434 24.8818 77.1884C26.5323 84.7335 38.0857 117.036 38.0857 117.036C39.0948 116.053 40.3493 115.36 41.718 115.028C43.0868 114.696 44.5195 114.738 45.8665 115.15L35.2563 74.359C35.2563 74.359 35.9636 65.1635 28.8901 66.3424Z" fill="black"/>
<path d="M29.833 64.9276C29.833 64.9276 24.1742 68.2286 25.8247 75.7737C27.4752 83.3187 39.0285 115.621 39.0285 115.621C40.0376 114.639 41.2921 113.945 42.6609 113.613C44.0296 113.282 45.4624 113.323 46.8094 113.735L36.1991 72.9443C36.1991 72.9443 36.9065 63.7487 29.833 64.9276Z" fill="#644A98"/>
<path d="M37.144 48.8243C37.144 48.8243 38.3426 39.4958 28.5625 42.5549C28.5625 42.5549 21.5774 41.2732 19.2867 50.0104L16.9673 59.1692L18.0977 58.554L18.6247 59.7059L20.4564 60.1698L21.2403 58.614L21.6195 60.5033L36.6226 61.999C36.6226 61.999 29.903 58.0251 29.7964 50.9029L31.0764 52.2555L37.144 48.8243Z" fill="#2F2E41"/>
<path d="M20.5196 46.4187C22.6031 46.4187 24.2921 44.7297 24.2921 42.6462C24.2921 40.5627 22.6031 38.8737 20.5196 38.8737C18.4361 38.8737 16.7471 40.5627 16.7471 42.6462C16.7471 44.7297 18.4361 46.4187 20.5196 46.4187Z" fill="#2F2E41"/>
<path d="M24.407 41.7226C24.345 40.7655 23.9205 39.8679 23.2199 39.2128C22.5193 38.5577 21.5954 38.1943 20.6362 38.1966C20.7141 38.1868 20.7913 38.1747 20.8708 38.1696C21.3652 38.1379 21.861 38.2038 22.3299 38.3636C22.7988 38.5234 23.2317 38.774 23.6037 39.1012C23.9758 39.4283 24.2798 39.8255 24.4984 40.2701C24.7169 40.7147 24.8458 41.198 24.8776 41.6923C24.9094 42.1867 24.8435 42.6826 24.6836 43.1515C24.5238 43.6204 24.2732 44.0533 23.9461 44.4253C23.6189 44.7974 23.2217 45.1014 22.7771 45.3199C22.3325 45.5385 21.8493 45.6674 21.3549 45.6991C21.2754 45.7043 21.1973 45.7022 21.1188 45.7024C22.0703 45.5819 22.9402 45.1031 23.5511 44.3637C24.162 43.6243 24.4681 42.6798 24.407 41.7226V41.7226Z" fill="#2F2E41"/>
<path d="M29.9509 54.1995C30.602 54.1995 31.1298 53.4606 31.1298 52.549C31.1298 51.6375 30.602 50.8986 29.9509 50.8986C29.2998 50.8986 28.772 51.6375 28.772 52.549C28.772 53.4606 29.2998 54.1995 29.9509 54.1995Z" fill="#FFB8B8"/>
</g>
<defs>
<clipPath id="clip0">
<rect width="250" height="185.413" fill="white"/>
</clipPath>
</defs>
</svg>
