<svg width="230" height="150" viewBox="0 0 230 150" fill="none" xmlns="http://www.w3.org/2000/svg">
<g clip-path="url(#clip0)">
<path d="M77.5763 149.277H10.0522C10.0522 149.277 8.68347 129.202 16.7818 128.974C24.8801 128.746 23.9676 137.871 34.1191 125.324C44.2705 112.777 56.5891 113.462 58.1859 120.876C59.7828 128.29 55.1063 134.221 63.6609 132.396C72.2154 130.571 84.534 135.361 77.5763 149.277Z" fill="#856FB3"/>
<path d="M42.6742 149.282L42.4463 149.272C42.9778 136.055 45.7459 127.563 47.9744 122.767C50.3941 117.559 52.7258 115.45 52.749 115.43L52.9006 115.6C52.8777 115.621 50.5732 117.708 48.1729 122.881C45.9567 127.657 43.2037 136.114 42.6742 149.282Z" fill="#F2F2F2"/>
<path d="M67.113 149.309L66.894 149.245C69.531 140.194 75.7408 134.479 75.8033 134.423L75.9565 134.591C75.8946 134.648 69.7313 140.322 67.113 149.309Z" fill="#F2F2F2"/>
<path d="M20.6873 149.293L20.4613 149.261C21.356 142.809 19.7399 137.802 18.2266 134.739C16.588 131.422 14.7184 129.611 14.6997 129.593L14.8575 129.428C14.8765 129.446 16.775 131.286 18.4311 134.638C19.9586 137.73 21.5899 142.783 20.6873 149.293Z" fill="#F2F2F2"/>
<path d="M86.7409 149.582H2.76936L2.74999 149.298C2.70172 148.59 1.63052 131.899 7.03877 125.943C8.24779 124.612 9.70416 123.913 11.3673 123.866C14.8926 123.766 17.108 125.086 18.8949 126.146C22.2628 128.144 24.4878 129.464 32.5774 119.466C41.3409 108.634 50.7964 106.304 56.2321 107.6C59.7441 108.437 62.1647 110.804 62.8732 114.093C63.544 117.207 63.3303 120.134 63.1587 122.485C62.975 125.001 62.8298 126.988 63.8632 127.889C64.7258 128.64 66.4475 128.709 69.2813 128.104C75.0452 126.874 83.0877 127.927 87.1245 133.142C89.2964 135.948 91.0073 141.049 86.8252 149.413L86.7409 149.582ZM3.34243 148.972H86.363C89.4794 142.649 89.5767 137.308 86.6419 133.516C82.9387 128.731 75.1695 127.472 69.4085 128.701C66.3298 129.358 64.4953 129.249 63.4622 128.349C62.1988 127.248 62.3538 125.127 62.5499 122.441C62.7188 120.128 62.9289 117.25 62.2766 114.221C61.6196 111.171 59.3649 108.974 56.0905 108.193C50.8283 106.938 41.637 109.239 33.0518 119.85C24.6307 130.258 22.0939 128.753 18.5836 126.671C16.7747 125.598 14.7208 124.382 11.3846 124.476C9.89371 124.518 8.58366 125.15 7.49057 126.353C2.62989 131.706 3.22337 146.715 3.34243 148.972Z" fill="#CFCCE0"/>
<path d="M169.715 106.569L145.285 102.321C149.652 93.2647 151.647 84.3164 149.942 75.5374L174.372 79.7851C170.572 88.1734 168.97 97.3905 169.715 106.569Z" fill="#F2F2F2"/>
<path d="M167.641 83.6179L154.984 81.4172L154.882 82.0059L167.538 84.2065L167.641 83.6179Z" fill="#3F3D56"/>
<path d="M167.231 85.9726L154.575 83.772L154.472 84.3606L167.129 86.5613L167.231 85.9726Z" fill="#3F3D56"/>
<path d="M166.822 88.3281L154.166 86.1274L154.063 86.7161L166.719 88.9168L166.822 88.3281Z" fill="#3F3D56"/>
<path d="M166.412 90.6818L153.756 88.4812L153.654 89.0699L166.31 91.2705L166.412 90.6818Z" fill="#3F3D56"/>
<path d="M166.002 93.0363L153.346 90.8357L153.244 91.4244L165.9 93.625L166.002 93.0363Z" fill="#3F3D56"/>
<path d="M165.593 95.3911L152.937 93.1904L152.835 93.7791L165.491 95.9797L165.593 95.3911Z" fill="#3F3D56"/>
<path d="M165.184 97.7458L152.527 95.5452L152.425 96.1338L165.081 98.3345L165.184 97.7458Z" fill="#3F3D56"/>
<path d="M164.774 100.1L152.118 97.8997L152.016 98.4883L164.672 100.689L164.774 100.1Z" fill="#3F3D56"/>
<path d="M180.594 115.172L156.165 110.924C160.532 101.868 162.527 92.9195 160.822 84.1404L185.252 88.3881C181.452 96.7765 179.85 105.994 180.594 115.172Z" fill="#F2F2F2"/>
<path d="M178.52 92.2209L165.864 90.0203L165.762 90.6089L178.418 92.8095L178.52 92.2209Z" fill="#3F3D56"/>
<path d="M178.111 94.5754L165.455 92.3748L165.353 92.9634L178.009 95.164L178.111 94.5754Z" fill="#3F3D56"/>
<path d="M177.702 96.9311L165.045 94.7305L164.943 95.3191L177.599 97.5198L177.702 96.9311Z" fill="#3F3D56"/>
<path d="M177.292 99.2848L164.636 97.0842L164.534 97.6729L177.19 99.8735L177.292 99.2848Z" fill="#3F3D56"/>
<path d="M176.883 101.639L164.227 99.4387L164.124 100.027L176.78 102.228L176.883 101.639Z" fill="#3F3D56"/>
<path d="M176.473 103.994L163.817 101.793L163.715 102.382L176.371 104.582L176.473 103.994Z" fill="#3F3D56"/>
<path d="M176.064 106.349L163.408 104.148L163.305 104.737L175.962 106.937L176.064 106.349Z" fill="#3F3D56"/>
<path d="M175.655 108.703L162.999 106.502L162.896 107.091L175.552 109.292L175.655 108.703Z" fill="#3F3D56"/>
<path d="M187.253 149.254H143.678L143.67 149.01L141.589 89.5049H189.342L187.253 149.254ZM144.167 148.748H186.765L188.818 90.0109H142.113L144.167 148.748Z" fill="#3F3D56"/>
<path d="M184.867 146.057H146.064L144.199 92.7029H186.733L184.867 146.057Z" fill="#3F3D56"/>
<g opacity="0.2">
<path opacity="0.2" d="M154.073 100.53H150.758V141.544H154.073V100.53Z" fill="white"/>
<path opacity="0.2" d="M167.123 100.53H163.809V141.544H167.123V100.53Z" fill="white"/>
<path opacity="0.2" d="M180.173 100.53H176.858V141.544H180.173V100.53Z" fill="white"/>
</g>
<path d="M166.205 66.315L161.777 73.3186L215.704 107.412L220.132 100.408L166.205 66.315Z" fill="#3F3D56"/>
<path d="M198.651 74.6888C197.078 73.6931 195.252 73.1697 193.39 73.1806C191.529 73.1915 189.709 73.7363 188.147 74.7504C186.586 75.7645 185.348 77.2053 184.581 78.9018C183.814 80.5982 183.549 82.4792 183.819 84.3215L186.399 85.9524C185.75 84.4464 185.601 82.7723 185.972 81.1753C186.344 79.5782 187.217 78.1421 188.464 77.0772C189.711 76.0123 191.266 75.3745 192.902 75.2573C194.537 75.1401 196.167 75.5496 197.553 76.4258C198.939 77.3021 200.008 78.599 200.604 80.1267C201.199 81.6545 201.29 83.3328 200.863 84.9159C200.436 86.499 199.513 87.9037 198.23 88.9244C196.946 89.9451 195.37 90.5282 193.731 90.5882L196.311 92.2192C198.091 91.6727 199.677 90.6271 200.88 89.2065C202.084 87.7858 202.855 86.0497 203.101 84.2042C203.347 82.3586 203.059 80.4812 202.27 78.7946C201.482 77.1079 200.226 75.683 198.651 74.6888V74.6888Z" fill="#3F3D56"/>
<path d="M230 148.905H0V149.411H230V148.905Z" fill="#3F3D56"/>
<path d="M121.452 62.8767C121.452 62.8767 131.32 70.2144 127.272 71.4796C123.223 72.7447 118.163 67.1781 118.416 65.66C118.669 64.1418 121.452 62.8767 121.452 62.8767Z" fill="#FFB8B8"/>
<path d="M112.849 53.5149L122.97 62.8768L118.922 67.1783L112.09 62.1178L112.849 53.5149Z" fill="#644A98"/>
<path d="M135.497 91.9595L114.63 78.5645C122.169 71.9121 127.481 64.4395 129.316 55.6868L150.183 69.0817C143.426 75.3383 138.372 83.2112 135.497 91.9595Z" fill="#856FB3"/>
<path d="M142.492 70.0021L131.682 63.0625L131.359 63.5653L142.17 70.5049L142.492 70.0021Z" fill="#3F3D56"/>
<path d="M141.201 72.0133L130.391 65.0737L130.068 65.5765L140.878 72.5161L141.201 72.0133Z" fill="#3F3D56"/>
<path d="M139.91 74.0245L129.1 67.085L128.777 67.5878L139.587 74.5273L139.91 74.0245Z" fill="#3F3D56"/>
<path d="M138.619 76.0358L127.809 69.0962L127.486 69.599L138.296 76.5386L138.619 76.0358Z" fill="#3F3D56"/>
<path d="M137.328 78.047L126.518 71.1074L126.195 71.6102L137.005 78.5498L137.328 78.047Z" fill="#3F3D56"/>
<path d="M136.037 80.0582L125.227 73.1187L124.904 73.6215L135.714 80.561L136.037 80.0582Z" fill="#3F3D56"/>
<path d="M134.745 82.0694L123.935 75.1299L123.612 75.6327L134.423 82.5722L134.745 82.0694Z" fill="#3F3D56"/>
<path d="M133.454 84.0807L122.644 77.1411L122.321 77.6439L133.132 84.5835L133.454 84.0807Z" fill="#3F3D56"/>
<path d="M76.7086 124.088L72.8682 132.167L83.6114 134.738L83.312 126.949L76.7086 124.088Z" fill="#FFB8B8"/>
<path d="M115.126 134.989L116.392 143.845L126.766 140.05L122.211 133.724L115.126 134.989Z" fill="#FFB8B8"/>
<path d="M92.1497 51.5933C92.1497 51.5933 90.5599 61.7727 90.9925 66.6138C91.4252 71.455 89.7195 91.8805 89.7195 91.8805C89.7195 91.8805 82.09 100.18 80.3582 109.658C79.2198 115.629 77.397 121.45 74.9258 127.004L83.9154 129.93L101.73 96.2028C101.73 96.2028 114.506 68.242 113.236 65.5783C111.967 62.9146 109.976 52.1823 109.976 52.1823L92.1497 51.5933Z" fill="#2F2E41"/>
<path d="M75.1784 130.057C75.1784 130.057 75.1675 125.495 73.5581 127.464C71.9488 129.433 66.6946 133.235 69.7887 135.894C72.8828 138.553 90.9527 152.967 91.9251 148.754C92.4649 146.415 83.4528 130.627 83.4528 130.627C83.4528 130.627 80.4435 130.816 80.2348 131.588C80.0261 132.361 75.1784 130.057 75.1784 130.057Z" fill="#2F2E41"/>
<path d="M107.283 10.2476L100.451 18.0913L107.283 25.1761L113.608 15.5611L107.283 10.2476Z" fill="#FFB8B8"/>
<path d="M118.922 10.7536C118.923 12.51 118.248 14.1992 117.036 15.4709C115.825 16.7425 114.17 17.499 112.416 17.5833C110.661 17.6676 108.942 17.0733 107.614 15.9236C106.286 14.774 105.452 13.1573 105.284 11.4089C105.117 9.66055 105.628 7.91476 106.714 6.53374C107.799 5.15271 109.374 4.24246 111.112 3.99184C112.851 3.74122 114.619 4.16946 116.05 5.18772C117.481 6.20599 118.465 7.7361 118.798 9.46062C118.881 9.88669 118.922 10.3196 118.922 10.7536Z" fill="#FFB8B8"/>
<path d="M107.59 5.58135C109.961 4.47949 112.755 4.62019 115.256 5.3827C116.675 5.81526 118.075 6.46734 119.068 7.56909C120.061 8.67084 120.572 10.2938 120.055 11.6842L117.988 10.1204L117.798 11.4987C116.433 9.36961 113.841 8.44457 111.437 7.66004C110.685 7.41467 109.687 7.24714 109.253 7.90866C109.071 8.18746 109.05 8.55132 108.855 8.82213C108.491 9.32964 107.73 9.28495 107.172 9.56645C106.65 9.83004 106.334 10.3682 106.052 10.881C105.77 11.3937 105.895 12.1117 105.385 12.3982C103.34 13.5471 104.546 9.1229 104.879 8.3498C105.538 6.82301 106.087 6.28012 107.59 5.58135Z" fill="#2F2E41"/>
<path d="M87.9263 66.0397C87.9263 66.0397 92.2277 75.4016 95.264 79.197C98.3003 82.9924 108.168 100.957 108.168 100.957C108.168 100.957 106.397 112.09 110.192 120.946C112.544 126.552 114.243 132.41 115.253 138.405L124.362 135.875L120.567 97.9209C120.567 97.9209 115.759 67.5578 113.229 66.0397C110.699 64.5215 103.108 56.6777 103.108 56.6777L87.9263 66.0397Z" fill="#2F2E41"/>
<path d="M109.054 24.67C109.054 24.67 104.752 13.2839 98.9329 16.8263C93.1133 20.3686 88.5588 51.9968 88.5588 51.9968C88.5588 51.9968 83.2453 66.4192 88.5588 67.9374C93.8724 69.4555 98.1738 71.4797 98.9329 68.6964C99.6919 65.9132 99.1859 61.1057 100.451 63.6359C101.716 66.1662 101.21 69.2025 103.74 69.2025C106.271 69.2025 116.139 67.9374 115.886 66.1662C115.633 64.395 109.054 24.67 109.054 24.67Z" fill="#644A98"/>
<path d="M88.0528 69.4553C88.0528 69.4553 84.7635 79.3232 89.318 79.3232C93.8724 79.3232 93.2142 69.3606 93.2142 69.3606L88.0528 69.4553Z" fill="#FFB8B8"/>
<path d="M117.151 140.809C117.151 140.809 114.62 137.013 114.367 139.543C114.114 142.074 111.837 148.146 115.885 148.652C119.934 149.158 142.959 151.183 141.441 147.134C140.598 144.887 124.362 136.711 124.362 136.711C124.362 136.711 121.958 138.531 122.211 139.29C122.464 140.049 117.151 140.809 117.151 140.809Z" fill="#2F2E41"/>
<path d="M123.35 12.3982C123.35 12.3982 122.15 13.4281 120.594 11.3912C120.187 10.837 119.838 10.2417 119.554 9.61496C118.302 8.37055 116.623 7.64952 114.858 7.59835C114.739 7.5933 114.618 7.59077 114.494 7.59076C111.204 7.59076 110.445 5.31353 110.445 5.31353L105.132 7.08471C105.132 7.08471 105.891 0 113.229 0C120.566 0 120.819 6.07261 120.819 6.07261C120.819 6.07261 126.639 8.34984 123.35 12.3982Z" fill="#F0C864"/>
<path opacity="0.2" d="M120.595 11.3911C120.187 10.8369 119.838 10.2416 119.555 9.61489C118.302 8.37048 116.623 7.64945 114.858 7.59828C116.708 7.01885 119.924 6.3458 121.326 8.09674C122.616 9.70852 121.543 10.8066 120.595 11.3911Z" fill="black"/>
<path d="M99.186 18.8504C99.186 18.8504 92.3543 17.5853 90.5832 23.6579C88.812 29.7305 85.0166 47.6953 85.0166 47.6953L87.2938 66.1661L87.0408 70.7206H94.3785V65.9131C94.3785 65.4071 95.3906 45.6711 95.3906 45.6711L103.74 26.6942C103.74 26.6942 105.512 20.6216 99.186 18.8504Z" fill="#644A98"/>
<path opacity="0.2" d="M103.867 29.3508L95.5167 45.7975L94.4922 69.3607L97.2879 45.5444L103.867 29.3508Z" fill="black"/>
<path opacity="0.2" d="M113.994 54.574L115.89 64.2922L114.942 55.451L113.994 54.574Z" fill="black"/>
<path opacity="0.2" d="M92.481 77.2993L103.361 92.7339L102.222 95.0111L92.481 77.2993Z" fill="black"/>
</g>
<defs>
<clipPath id="clip0">
<rect width="230" height="149.606" fill="white"/>
</clipPath>
</defs>
</svg>
