<svg width="250" height="189" viewBox="0 0 250 189" fill="none" xmlns="http://www.w3.org/2000/svg">
<g clip-path="url(#clip0)">
<path d="M115.288 40.2674H53.6162C53.3134 40.267 53.0231 40.1466 52.809 39.9325C52.5949 39.7184 52.4745 39.4281 52.4741 39.1253V23.8271C52.4745 23.5243 52.5949 23.2341 52.809 23.02C53.0231 22.8059 53.3134 22.6854 53.6162 22.6851H115.288C115.591 22.6854 115.881 22.8059 116.095 23.02C116.309 23.2341 116.43 23.5243 116.43 23.8271V39.1253C116.43 39.4281 116.309 39.7184 116.095 39.9325C115.881 40.1466 115.591 40.267 115.288 40.2674ZM53.6162 23.1419C53.4345 23.1421 53.2603 23.2143 53.1319 23.3428C53.0034 23.4713 52.9311 23.6454 52.9309 23.8271V39.1253C52.9311 39.307 53.0034 39.4811 53.1319 39.6096C53.2603 39.7381 53.4345 39.8103 53.6162 39.8105H115.288C115.47 39.8103 115.644 39.7381 115.772 39.6096C115.901 39.4811 115.973 39.307 115.973 39.1253V23.8271C115.973 23.6455 115.901 23.4713 115.772 23.3428C115.644 23.2143 115.47 23.1421 115.288 23.1419L53.6162 23.1419Z" fill="#3F3D56"/>
<path d="M63.1993 35.5412C65.7687 35.5412 67.8515 33.4583 67.8515 30.889C67.8515 28.3197 65.7687 26.2368 63.1993 26.2368C60.63 26.2368 58.5471 28.3197 58.5471 30.889C58.5471 33.4583 60.63 35.5412 63.1993 35.5412Z" fill="#856FB3"/>
<path d="M73.9433 27.7876C73.7377 27.7876 73.5405 27.8693 73.3951 28.0147C73.2497 28.1601 73.168 28.3573 73.168 28.563C73.168 28.7686 73.2497 28.9658 73.3951 29.1112C73.5405 29.2566 73.7377 29.3383 73.9433 29.3383H110.496C110.702 29.3383 110.899 29.2566 111.045 29.1112C111.19 28.9658 111.272 28.7686 111.272 28.563C111.272 28.3573 111.19 28.1601 111.045 28.0147C110.899 27.8693 110.702 27.7876 110.496 27.7876H73.9433Z" fill="#E6E6E6"/>
<path d="M73.9433 32.4399C73.7377 32.4399 73.5405 32.5216 73.3951 32.667C73.2497 32.8125 73.168 33.0097 73.168 33.2153C73.168 33.421 73.2497 33.6182 73.3951 33.7636C73.5405 33.909 73.7377 33.9907 73.9433 33.9907H89.6722C89.7741 33.9909 89.8751 33.9709 89.9693 33.9321C90.0636 33.8932 90.1492 33.8361 90.2213 33.7641C90.2935 33.6921 90.3507 33.6065 90.3898 33.5124C90.4288 33.4182 90.4489 33.3173 90.4489 33.2153C90.4489 33.1134 90.4288 33.0124 90.3898 32.9183C90.3507 32.8241 90.2935 32.7386 90.2213 32.6665C90.1492 32.5945 90.0636 32.5374 89.9693 32.4986C89.8751 32.4597 89.7741 32.4398 89.6722 32.4399H73.9433Z" fill="#E6E6E6"/>
<path d="M88.514 94.7981H61.1042C60.8014 94.7977 60.5112 94.6773 60.2971 94.4632C60.0829 94.2491 59.9625 93.9588 59.9622 93.656V65.1098C59.9625 64.8071 60.0829 64.5168 60.2971 64.3027C60.5112 64.0886 60.8014 63.9681 61.1042 63.9678H88.514C88.8168 63.9681 89.1071 64.0886 89.3212 64.3027C89.5353 64.5168 89.6557 64.8071 89.6561 65.1098V93.656C89.6557 93.9588 89.5353 94.2491 89.3212 94.4632C89.1071 94.6773 88.8168 94.7977 88.514 94.7981ZM61.1042 64.4246C60.9225 64.4248 60.7484 64.4971 60.6199 64.6255C60.4914 64.754 60.4192 64.9282 60.419 65.1098V93.656C60.4192 93.8377 60.4914 94.0119 60.6199 94.1403C60.7484 94.2688 60.9225 94.3411 61.1042 94.3413H88.514C88.6957 94.3411 88.8699 94.2688 88.9983 94.1403C89.1268 94.0119 89.1991 93.8377 89.1993 93.656V65.1098C89.1991 64.9282 89.1268 64.754 88.9983 64.6255C88.8699 64.4971 88.6957 64.4248 88.514 64.4246H61.1042Z" fill="#3F3D56"/>
<path d="M66.9446 69.8545C66.7389 69.8545 66.5417 69.9362 66.3963 70.0816C66.2509 70.227 66.1692 70.4242 66.1692 70.6299C66.1692 70.8355 66.2509 71.0327 66.3963 71.1781C66.5417 71.3235 66.7389 71.4052 66.9446 71.4052H82.6734C82.879 71.4052 83.0762 71.3235 83.2217 71.1781C83.3671 71.0327 83.4488 70.8355 83.4488 70.6299C83.4488 70.4242 83.3671 70.227 83.2217 70.0816C83.0762 69.9362 82.879 69.8545 82.6734 69.8545H66.9446Z" fill="#E6E6E6"/>
<path d="M66.9448 74.4229C66.8428 74.4227 66.7418 74.4426 66.6476 74.4815C66.5534 74.5203 66.4677 74.5774 66.3956 74.6495C66.3234 74.7215 66.2662 74.807 66.2271 74.9012C66.1881 74.9953 66.168 75.0963 66.168 75.1982C66.168 75.3002 66.1881 75.4011 66.2271 75.4953C66.2662 75.5894 66.3234 75.675 66.3956 75.747C66.4677 75.819 66.5534 75.8761 66.6476 75.915C66.7418 75.9539 66.8428 75.9738 66.9448 75.9736H82.6736C82.8792 75.9736 83.0764 75.8919 83.2218 75.7465C83.3672 75.6011 83.4489 75.4039 83.4489 75.1982C83.4489 74.9926 83.3672 74.7954 83.2218 74.65C83.0764 74.5045 82.8792 74.4229 82.6736 74.4229H66.9448Z" fill="#E6E6E6"/>
<path d="M74.8095 88.9115C73.8442 88.9115 72.9006 88.6253 72.098 88.089C71.2954 87.5527 70.6699 86.7905 70.3005 85.8987C69.9311 85.0069 69.8344 84.0255 70.0227 83.0788C70.2111 82.1321 70.6759 81.2624 71.3584 80.5799C72.041 79.8973 72.9106 79.4325 73.8574 79.2442C74.8041 79.0559 75.7854 79.1525 76.6772 79.5219C77.569 79.8913 78.3313 80.5169 78.8675 81.3195C79.4038 82.1221 79.6901 83.0657 79.6901 84.031C79.6886 85.3249 79.1739 86.5655 78.259 87.4804C77.344 88.3954 76.1035 88.91 74.8095 88.9115Z" fill="#856FB3"/>
<path d="M133.416 0H160.826C161.128 0.000355539 161.419 0.120794 161.633 0.334897C161.847 0.549 161.967 0.839284 161.968 1.14207V29.6882C161.967 29.991 161.847 30.2813 161.633 30.4954C161.419 30.7095 161.128 30.83 160.826 30.8303H133.416C133.113 30.83 132.823 30.7095 132.609 30.4954C132.394 30.2813 132.274 29.991 132.274 29.6882V1.14207C132.274 0.839284 132.394 0.549 132.609 0.334897C132.823 0.120794 133.113 0.000355539 133.416 0ZM160.826 30.3735C161.007 30.3733 161.181 30.301 161.31 30.1726C161.438 30.0441 161.511 29.8699 161.511 29.6882V1.14207C161.511 0.960394 161.438 0.786214 161.31 0.657749C161.181 0.529284 161.007 0.457026 160.826 0.456827H133.416C133.234 0.457026 133.06 0.529284 132.931 0.657749C132.803 0.786214 132.731 0.960394 132.731 1.14207V29.6882C132.731 29.8699 132.803 30.0441 132.931 30.1726C133.06 30.301 133.234 30.3733 133.416 30.3735H160.826Z" fill="#3F3D56"/>
<path d="M154.985 24.9433C155.191 24.9433 155.388 24.8616 155.533 24.7162C155.679 24.5708 155.76 24.3736 155.76 24.1679C155.76 23.9623 155.679 23.7651 155.533 23.6197C155.388 23.4743 155.191 23.3926 154.985 23.3926H139.256C139.05 23.3926 138.853 23.4743 138.708 23.6197C138.562 23.7651 138.481 23.9623 138.481 24.1679C138.481 24.3736 138.562 24.5708 138.708 24.7162C138.853 24.8616 139.05 24.9433 139.256 24.9433H154.985Z" fill="#E6E6E6"/>
<path d="M154.985 20.3754C155.191 20.3754 155.388 20.2938 155.533 20.1483C155.679 20.0029 155.76 19.8057 155.76 19.6001C155.76 19.3944 155.679 19.1972 155.533 19.0518C155.388 18.9064 155.191 18.8247 154.985 18.8247H139.256C139.05 18.8247 138.853 18.9064 138.708 19.0518C138.562 19.1972 138.481 19.3944 138.481 19.6001C138.481 19.8057 138.562 20.0029 138.708 20.1483C138.853 20.2938 139.05 20.3754 139.256 20.3754H154.985Z" fill="#E6E6E6"/>
<path d="M147.121 5.88672C148.086 5.88672 149.03 6.17296 149.832 6.70924C150.635 7.24553 151.26 8.00777 151.63 8.89957C151.999 9.79138 152.096 10.7727 151.908 11.7194C151.719 12.6662 151.254 13.5358 150.572 14.2184C149.889 14.9009 149.02 15.3658 148.073 15.5541C147.126 15.7424 146.145 15.6457 145.253 15.2763C144.361 14.9069 143.599 14.2814 143.063 13.4788C142.526 12.6762 142.24 11.7326 142.24 10.7673C142.242 9.47333 142.756 8.23279 143.671 7.31782C144.586 6.40285 145.827 5.88818 147.121 5.88672Z" fill="#856FB3"/>
<path d="M52.8267 59.0577C57.677 55.3011 63.3438 52.7394 69.3682 51.58C75.4406 50.4228 81.7022 50.7446 87.624 52.518C90.6008 53.4044 93.4609 54.6436 96.1433 56.2094C98.8764 57.8072 101.346 59.774 103.722 61.8565C106.129 63.9661 108.457 66.1696 110.97 68.1557C118.144 73.8901 127.05 77.0232 136.235 77.0432C136.993 77.0444 137.752 77.0235 138.509 76.9805C138.92 76.9579 138.923 76.316 138.509 76.3387C129.147 76.8542 119.902 74.0606 112.393 68.4469C109.788 66.4994 107.41 64.2727 104.983 62.1149C102.629 60.0228 100.212 57.9878 97.5417 56.3071C91.01 52.1922 83.4113 50.0916 75.6935 50.2675C67.9757 50.4435 60.4805 52.888 54.1431 57.2963C53.5406 57.7153 52.952 58.1531 52.3728 58.6039C52.0473 58.8573 52.5044 59.3086 52.8267 59.0577V59.0577Z" fill="#3F3D56"/>
<path d="M52.4858 62.1597C54.3279 62.1597 55.8213 60.6663 55.8213 58.8242C55.8213 56.9821 54.3279 55.4888 52.4858 55.4888C50.6437 55.4888 49.1504 56.9821 49.1504 58.8242C49.1504 60.6663 50.6437 62.1597 52.4858 62.1597Z" fill="#3F3D56"/>
<path d="M176.571 106.445C178.413 106.445 179.906 104.952 179.906 103.11C179.906 101.268 178.413 99.7744 176.571 99.7744C174.728 99.7744 173.235 101.268 173.235 103.11C173.235 104.952 174.728 106.445 176.571 106.445Z" fill="#3F3D56"/>
<path d="M194.045 84.1097H139.62C139.318 84.1094 139.027 83.9889 138.813 83.7748C138.599 83.5607 138.479 83.2704 138.478 82.9677V54.6499C138.479 54.3471 138.599 54.0568 138.813 53.8427C139.027 53.6286 139.318 53.5082 139.62 53.5078H194.045C194.347 53.5082 194.638 53.6286 194.852 53.8427C195.066 54.0568 195.186 54.3471 195.187 54.6499V82.9676C195.186 83.2704 195.066 83.5607 194.852 83.7748C194.638 83.9889 194.347 84.1094 194.045 84.1097ZM139.62 53.9647C139.439 53.9649 139.264 54.0371 139.136 54.1656C139.008 54.294 138.935 54.4682 138.935 54.6499V82.9676C138.935 83.1493 139.008 83.3235 139.136 83.452C139.264 83.5804 139.439 83.6527 139.62 83.6529H194.045C194.226 83.6527 194.4 83.5804 194.529 83.452C194.657 83.3235 194.73 83.1493 194.73 82.9676V54.6499C194.73 54.4682 194.657 54.294 194.529 54.1656C194.4 54.0371 194.226 53.9649 194.045 53.9647H139.62Z" fill="#3F3D56"/>
<path d="M148.745 68.1916C151.315 68.1916 153.398 66.1087 153.398 63.5394C153.398 60.9701 151.315 58.8872 148.745 58.8872C146.176 58.8872 144.093 60.9701 144.093 63.5394C144.093 66.1087 146.176 68.1916 148.745 68.1916Z" fill="#856FB3"/>
<path d="M159.49 60.438C159.388 60.4378 159.287 60.4577 159.193 60.4966C159.099 60.5355 159.013 60.5926 158.941 60.6646C158.869 60.7366 158.811 60.8221 158.772 60.9163C158.733 61.0105 158.713 61.1114 158.713 61.2134C158.713 61.3153 158.733 61.4162 158.772 61.5104C158.811 61.6046 158.869 61.6901 158.941 61.7621C159.013 61.8342 159.099 61.8912 159.193 61.9301C159.287 61.969 159.388 61.9889 159.49 61.9887H188.795C189.001 61.9887 189.198 61.9071 189.343 61.7616C189.489 61.6162 189.571 61.419 189.571 61.2134C189.571 61.0077 189.489 60.8105 189.343 60.6651C189.198 60.5197 189.001 60.438 188.795 60.438H159.49Z" fill="#E6E6E6"/>
<path d="M159.49 65.0898C159.388 65.0897 159.287 65.1096 159.193 65.1485C159.099 65.1873 159.013 65.2444 158.941 65.3164C158.869 65.3885 158.811 65.474 158.772 65.5682C158.733 65.6623 158.713 65.7633 158.713 65.8652C158.713 65.9671 158.733 66.0681 158.772 66.1623C158.811 66.2564 158.869 66.342 158.941 66.414C159.013 66.486 159.099 66.5431 159.193 66.582C159.287 66.6208 159.388 66.6408 159.49 66.6406H175.219C175.424 66.6406 175.622 66.5589 175.767 66.4135C175.912 66.2681 175.994 66.0708 175.994 65.8652C175.994 65.6596 175.912 65.4624 175.767 65.3169C175.622 65.1715 175.424 65.0898 175.219 65.0898H159.49Z" fill="#E6E6E6"/>
<path d="M145.178 72.5273C144.588 72.5273 144.108 72.8752 144.108 73.3027C144.108 73.7302 144.588 74.0781 145.178 74.0781H188.362C188.952 74.0781 189.432 73.7302 189.432 73.3027C189.432 72.8752 188.952 72.5273 188.362 72.5273H145.178Z" fill="#E6E6E6"/>
<path d="M145.178 77.1797C144.588 77.1797 144.108 77.5276 144.108 77.955C144.108 78.3825 144.588 78.7304 145.178 78.7304H188.362C188.952 78.7304 189.432 78.3825 189.432 77.955C189.432 77.5276 188.952 77.1797 188.362 77.1797H145.178Z" fill="#E6E6E6"/>
<path d="M135.245 106.215C138.316 104.883 141.744 106.045 144.638 107.272C146.128 107.904 147.603 108.579 149.145 109.079C150.443 109.497 151.772 109.812 153.119 110.02C155.824 110.435 158.574 110.451 161.283 110.07C164.006 109.691 166.66 108.919 169.162 107.779C171.65 106.652 173.95 105.148 175.98 103.321C176.239 103.088 176.492 102.849 176.741 102.605C177.036 102.316 176.582 101.862 176.287 102.151C174.331 104.058 172.086 105.643 169.635 106.847C167.194 108.047 164.59 108.884 161.907 109.33C159.214 109.784 156.469 109.831 153.763 109.47C152.413 109.288 151.079 108.998 149.775 108.604C148.278 108.116 146.808 107.546 145.374 106.894C142.453 105.64 139.208 104.411 135.998 105.277C135.63 105.378 135.27 105.507 134.921 105.661C134.543 105.825 134.87 106.378 135.245 106.215V106.215Z" fill="#3F3D56"/>
<path d="M134.059 114.087H108.346L114.397 103.606C114.506 103.418 114.662 103.262 114.85 103.154C115.037 103.045 115.25 102.988 115.467 102.988C115.684 102.988 115.897 103.045 116.085 103.154C116.273 103.262 116.429 103.418 116.538 103.606L119.122 108.083L123.518 100.47C123.654 100.235 123.849 100.04 124.084 99.9041C124.319 99.7683 124.586 99.6968 124.858 99.6968C125.129 99.6968 125.396 99.7683 125.631 99.9041C125.866 100.04 126.062 100.235 126.197 100.47L134.059 114.087Z" fill="#856FB3"/>
<path d="M134.084 114.084H106.674C106.371 114.084 106.081 113.963 105.867 113.749C105.653 113.535 105.532 113.245 105.532 112.942V97.644C105.532 97.3412 105.653 97.051 105.867 96.8369C106.081 96.6228 106.371 96.5023 106.674 96.502H134.084C134.386 96.5023 134.677 96.6228 134.891 96.8369C135.105 97.051 135.225 97.3412 135.226 97.644V112.942C135.225 113.245 135.105 113.535 134.891 113.749C134.677 113.963 134.386 114.084 134.084 114.084ZM106.674 96.9588C106.492 96.959 106.318 97.0312 106.189 97.1597C106.061 97.2882 105.989 97.4623 105.989 97.644V112.942C105.989 113.124 106.061 113.298 106.189 113.426C106.318 113.555 106.492 113.627 106.674 113.627H134.084C134.265 113.627 134.439 113.555 134.568 113.426C134.696 113.298 134.769 113.124 134.769 112.942V97.644C134.769 97.4623 134.696 97.2882 134.568 97.1597C134.439 97.0312 134.265 96.959 134.084 96.9588H106.674Z" fill="#3F3D56"/>
<path d="M187.844 100.62L182.958 103.101C181.214 103.987 179.531 103.836 178.887 101.989C178.734 101.55 178.677 101.082 178.721 100.619C178.765 100.156 178.909 99.7073 179.142 99.3046C179.375 98.9019 179.693 98.5544 180.073 98.2859C180.453 98.0173 180.887 97.8341 181.344 97.7487L185.988 96.8818L205.875 90.2838L217.921 81.7417L222.338 88.7773L208.418 96.2885L187.844 100.62Z" fill="#FFB8B8"/>
<path d="M210.651 182.971L206.913 182.348L207.328 175.287H211.274L210.651 182.971Z" fill="#FFB8B8"/>
<path d="M246.931 176.075L243.313 177.203L240.502 170.713L244.024 168.935L246.931 176.075Z" fill="#FFB8B8"/>
<path d="M244.917 169.888L240.348 171.757L218.543 143.098L211.689 176.741L207.121 175.91C204.19 146.906 201.8 117.322 204.733 103.33L221.658 102.603L229.341 127.108L233.079 143.721L244.917 169.888Z" fill="#2F2E41"/>
<path d="M210.445 188.681C209.762 188.828 209.049 188.752 208.412 188.465L206.191 187.466C204.329 187.37 203.061 187.741 202.025 186.388C201.732 186.002 201.549 185.544 201.493 185.062C201.437 184.58 201.511 184.093 201.708 183.649C201.902 183.204 202.212 182.819 202.604 182.534C202.997 182.248 203.459 182.072 203.942 182.024L206.992 180.102L207.152 181.543C208.546 182.332 210.201 181.991 211.954 181.222L212.912 184.573C213.035 185.005 213.068 185.458 213.01 185.903C212.951 186.349 212.801 186.777 212.57 187.162C212.339 187.548 212.031 187.881 211.665 188.142C211.3 188.404 210.884 188.587 210.445 188.681Z" fill="#2F2E41"/>
<path d="M248.411 181.809C247.812 182.169 247.114 182.329 246.418 182.264L243.993 182.04C242.201 182.555 241.123 183.317 239.703 182.374C239.301 182.103 238.978 181.73 238.769 181.293C238.56 180.855 238.472 180.37 238.513 179.887C238.553 179.403 238.721 178.938 238.999 178.54C239.278 178.143 239.657 177.826 240.098 177.624L242.359 174.816L242.978 176.126C244.553 176.421 246.008 175.56 247.417 174.264L249.41 177.122C249.667 177.49 249.846 177.908 249.935 178.348C250.024 178.789 250.021 179.243 249.928 179.682C249.834 180.121 249.651 180.537 249.39 180.903C249.129 181.269 248.796 181.577 248.411 181.809Z" fill="#2F2E41"/>
<path d="M215.427 73.1138C219.556 73.1138 222.903 69.7666 222.903 65.6377C222.903 61.5088 219.556 58.1616 215.427 58.1616C211.298 58.1616 207.951 61.5088 207.951 65.6377C207.951 69.7666 211.298 73.1138 215.427 73.1138Z" fill="#FFB8B8"/>
<path d="M224.564 81.4209L214.804 79.3442L213.558 71.2452L220.411 69.7915L224.564 81.4209Z" fill="#FFB8B8"/>
<path d="M221.865 103.641H204.421L208.353 93.7695C208.067 90.3727 209.507 87.8744 211.567 85.6993L214.181 79.1363C218.405 76.3565 221.589 76.5642 224.98 80.1747C229 85.8669 226.217 94.4236 221.865 103.641Z" fill="#644A98"/>
<path d="M213.974 124.616L213.477 130.073C213.3 132.021 212.277 133.366 210.371 132.93C209.917 132.826 209.491 132.626 209.122 132.342C208.753 132.058 208.45 131.699 208.233 131.287C208.016 130.875 207.89 130.421 207.865 129.957C207.84 129.492 207.915 129.027 208.086 128.594L209.82 124.201L214.804 103.849L213.974 89.1045H222.28L221.242 104.887L213.974 124.616Z" fill="#FFB8B8"/>
<path d="M222.903 89.5199H213.351L214.02 83.2882C214.064 82.2105 214.51 81.188 215.269 80.4218C216.028 79.6556 217.046 79.2009 218.124 79.147C218.695 79.1185 219.266 79.2034 219.803 79.397C220.341 79.5905 220.835 79.8888 221.257 80.2746C221.679 80.6604 222.02 81.126 222.261 81.6444C222.501 82.1629 222.637 82.724 222.659 83.2951L222.903 89.5199Z" fill="#CDAB3C"/>
<path d="M224.68 57.9507C226.232 57.9507 227.49 56.6926 227.49 55.1406C227.49 53.5887 226.232 52.3306 224.68 52.3306C223.128 52.3306 221.87 53.5887 221.87 55.1406C221.87 56.6926 223.128 57.9507 224.68 57.9507Z" fill="#2F2E41"/>
<path d="M221.784 54.453C221.83 53.74 222.146 53.0715 222.668 52.5835C223.19 52.0956 223.878 51.8249 224.593 51.8266C224.535 51.8192 224.477 51.8103 224.418 51.8065C223.675 51.7591 222.943 52.0089 222.383 52.501C221.824 52.9931 221.483 53.6871 221.435 54.4305C221.387 55.174 221.637 55.906 222.129 56.4657C222.62 57.0253 223.314 57.3668 224.058 57.415C224.117 57.4188 224.175 57.4173 224.233 57.4174C223.525 57.3277 222.877 56.9711 222.422 56.4203C221.967 55.8695 221.739 55.166 221.784 54.453Z" fill="#2F2E41"/>
<path d="M221.768 55.653C219.262 53.574 212.074 56.2163 211.61 57.614C208.221 58.0758 205.655 60.0531 205.655 63.5688V63.5688C207.67 64.3943 209.962 64.2925 212.439 63.5688C216.387 66.7868 216.658 70.8322 214.257 75.4785L217.211 75.5376L220.873 70.1853L221.048 75.6144L227.821 75.4785V67.6984C227.842 65.1116 227.247 62.5568 226.084 60.2462C225.028 58.196 223.391 56.9988 221.768 55.653Z" fill="#2F2E41"/>
<path d="M215.462 69.3983C216.205 69.3983 216.806 68.556 216.806 67.517C216.806 66.478 216.205 65.6357 215.462 65.6357C214.72 65.6357 214.119 66.478 214.119 67.517C214.119 68.556 214.72 69.3983 215.462 69.3983Z" fill="#FFB8B8"/>
<path d="M46.384 69.9047C46.384 69.9047 47.1929 55.9037 51.3923 59.085C55.5917 62.2664 49.5584 71.2031 49.5584 71.2031L46.384 69.9047Z" fill="#FFB9B9"/>
<path d="M30.7604 111.435C30.7604 111.435 40.0886 121.907 34.8696 122.627C29.6507 123.347 27.5977 112.762 27.5977 112.762L30.7604 111.435Z" fill="#FFB9B9"/>
<path d="M18.5881 61.8645C19.7589 62.1726 20.8125 62.8198 21.6167 63.7247C22.4209 64.6297 22.9398 65.7521 23.1083 66.9509L26.0755 88.0705L30.2352 104.917C30.2352 104.917 32.315 106.789 31.4831 107.829C30.6511 108.869 32.523 113.237 32.523 113.237L27.3234 114.9C27.3234 114.9 26.6994 110.533 25.6595 110.325C24.7456 110.142 14.515 82.8123 12.049 76.1916C11.709 75.2787 11.5166 74.7595 11.5166 74.7595C11.5166 74.7595 11.9326 60.8246 18.5881 61.8645Z" fill="#644A98"/>
<path d="M19.5377 172.001L22.7315 177.661C25.2047 182.941 23.0069 183.9 16.9428 181.283L15.5605 174.6L19.5377 172.001Z" fill="#FFB9B9"/>
<path d="M21.1486 179.523C21.1486 179.523 22.6647 177.055 23.213 177.468C23.7614 177.881 26.0232 179.671 26.0232 179.671L28.9693 182.493C28.9693 182.493 38.9228 183.546 32.5981 187.033C26.2734 190.521 22.7782 187.629 22.7782 187.629C22.7782 187.629 13.9199 188.09 14.0627 185.618C14.2056 183.147 17.0625 179.237 17.0625 179.237C17.0625 179.237 20.6631 181.651 21.1486 179.523Z" fill="#2F2E41"/>
<path d="M5.36523 108.026L8.35937 144.255C8.35937 144.255 8.45918 165.913 11.6529 170.104C14.8466 174.296 14.9464 176.392 14.9464 176.392L21.5335 172.999C21.5335 172.999 18.1402 167.344 18.8388 166.479C19.2695 165.93 19.5759 165.294 19.737 164.615L17.9406 142.259L21.3339 103.335L5.36523 108.026Z" fill="#2F2E41"/>
<path d="M13.5486 172.001L10.7541 179.387L4.4165 176.737L7.76002 171.203L13.5486 172.001Z" fill="#FFB9B9"/>
<path d="M8.88706 176.899C8.88706 176.899 11.264 175.413 11.5611 176.008C11.8582 176.602 13.0467 179.127 13.0467 179.127L14.3837 182.841C14.3837 182.841 22.5544 188.041 15.5721 188.338C8.58994 188.635 6.80725 184.624 6.80725 184.624C6.80725 184.624 -1.06629 181.207 0.122176 179.127C1.31064 177.047 5.47025 174.89 5.47025 174.89C5.47025 174.89 7.55004 178.533 8.88706 176.899Z" fill="#2F2E41"/>
<path d="M30.7155 108.126L32.3124 141.461C32.3124 141.461 17.741 171.602 16.1441 172.4C15.6683 172.646 15.2465 172.984 14.9036 173.396C14.5608 173.807 14.3039 174.283 14.148 174.795L5.36523 172.6L9.35742 166.212L18.1402 144.854C18.1402 144.854 19.5374 144.255 19.9367 142.259C20.3359 140.263 21.1343 140.263 19.1382 139.864C17.1422 139.465 17.1421 137.468 17.1421 137.468L10.5551 107.128L30.7155 108.126Z" fill="#2F2E41"/>
<path d="M31.4106 49.1234C32.1169 44.7707 29.161 40.6696 24.8083 39.9632C20.4556 39.2569 16.3544 42.2128 15.6481 46.5655C14.9417 50.9182 17.8977 55.0194 22.2504 55.7257C26.6031 56.4321 30.7042 53.4761 31.4106 49.1234Z" fill="#FFB9B9"/>
<path d="M16.4433 48.3438C16.4433 48.3438 15.8445 58.5238 15.046 59.5218C14.2476 60.5199 23.4296 60.3203 23.4296 60.3203C23.4296 60.3203 22.8308 51.7371 23.4296 50.9387C24.0284 50.1402 16.4433 48.3438 16.4433 48.3438Z" fill="#FFB9B9"/>
<path d="M31.3139 110.322C31.3139 110.322 8.7581 108.327 4.56738 110.322C4.56738 110.322 6.1101 104.599 5.71148 104.001C5.42157 103.564 6.22141 87.2617 5.97033 77.8578C5.82796 72.5515 4.60362 67.3694 8.16275 63.4297C9.37415 62.0915 10.7253 60.9681 12.1516 60.4194C12.1516 60.4194 11.7529 56.6273 13.7486 56.4279C13.7486 56.4279 21.3354 55.6281 24.1284 58.025C25.0214 58.786 25.5831 61.1053 25.6426 63.1036C24.2604 69.9009 24.7496 77.4437 26.0179 85.2686C26.0956 85.7656 26.181 86.2651 26.2664 86.7647C27.6124 94.5249 29.647 102.526 31.3139 110.322Z" fill="#644A98"/>
<path d="M19.3585 50.1972C20.0337 50.157 20.6931 50.3852 21.3636 50.4742C23.7627 50.7927 26.2584 49.0518 26.7881 46.6904C26.8306 46.3759 26.9243 46.0706 27.0656 45.7864C27.4348 45.1836 28.2757 45.0687 28.9689 45.2073C29.662 45.3459 30.3191 45.6703 31.0251 45.7074C32.1151 45.7646 33.1615 45.0935 33.7424 44.1694C34.2913 43.2161 34.5248 42.1136 34.4093 41.0196L33.8868 41.5681C33.6745 41.1189 33.5925 40.6191 33.6502 40.1256C33.3733 40.0519 33.0821 40.0504 32.8045 40.1215C32.5269 40.1925 32.2722 40.3336 32.0647 40.5313C31.604 40.5803 31.9517 39.6767 31.6094 39.3644C31.4429 39.2621 31.2445 39.225 31.0523 39.2602C30.0721 39.2696 29.2792 38.5199 28.5068 37.9164C27.1685 36.873 25.6034 36.1591 23.9382 35.8324C22.8314 35.6166 21.6544 35.5819 20.6047 35.994C19.7574 36.3744 18.9926 36.9169 18.3536 37.5909C16.7102 39.1711 15.255 41.0278 14.5713 43.2027C14.0155 44.9842 13.9998 46.8903 14.5261 48.6807C14.8015 49.6105 15.6318 52.7948 16.8472 52.8689C18.3745 52.9621 17.4575 50.3107 19.3585 50.1972Z" fill="#2F2E41"/>
<path d="M22.6636 62.8447L25.5242 63.1512C25.5242 63.1512 28.3322 68.599 28.1283 69.7353C27.9243 70.8716 27.4802 70.1817 28.7441 71.9998C30.0079 73.8178 33.5942 78.517 34.0383 79.2069C34.4824 79.8967 46.5894 70.6594 45.8367 67.8917C45.8367 67.8917 49.6605 70.6348 51.2986 71C51.2986 71 38.8214 87.3637 37.0827 89.4578C35.3439 91.552 33.9446 91.1219 31.5551 89.8802C29.1656 88.6386 17.0771 76.2536 17.0771 76.2536L22.6636 62.8447Z" fill="#644A98"/>
<path opacity="0.1" d="M26.2665 86.7648L16.3242 76.8225L18.8402 76.002L26.018 85.2686C26.0957 85.7656 26.1811 86.2652 26.2665 86.7648Z" fill="black"/>
</g>
<defs>
<clipPath id="clip0">
<rect width="250" height="188.754" fill="white"/>
</clipPath>
</defs>
</svg>
