<svg width="250" height="120" viewBox="0 0 250 120" fill="none" xmlns="http://www.w3.org/2000/svg">
<g clip-path="url(#clip0)">
<path d="M124.649 99.7712L123.423 101.027L123.305 98.5361L123.158 102.214L122.029 101.056L123.148 102.468L122.778 111.768H123.934L123.436 101.3L124.649 99.7712Z" fill="#E6E6E6"/>
<path d="M126.929 102.868L125.704 104.124L125.585 101.633L125.439 105.311L124.31 104.153L125.429 105.565L125.058 114.865H126.215L125.717 104.397L126.929 102.868Z" fill="#E6E6E6"/>
<path d="M130.349 101.179L129.124 102.435L129.005 99.9438L128.859 103.622L127.729 102.464L128.849 103.876L128.478 113.176H129.635L129.137 102.708L130.349 101.179Z" fill="#E6E6E6"/>
<path d="M121.989 102.587L120.764 103.843L120.645 101.352L120.499 105.029L119.369 103.872L120.488 105.283L120.118 114.584H121.275L120.776 104.116L121.989 102.587Z" fill="#E6E6E6"/>
<path d="M96.0023 0H3.65991V118.243H96.0023V0Z" fill="#E6E6E6"/>
<path d="M89.6811 7.12988H9.78955V57.7106H89.6811V7.12988Z" fill="white"/>
<path d="M89.6818 55.6362H9.78882V109.848H89.6818V55.6362Z" fill="white"/>
<path d="M51.8104 6.87061H47.6602V57.7107H51.8104V6.87061Z" fill="#3F3D56"/>
<path d="M89.6812 6.87061H85.531V57.7107H89.6812V6.87061Z" fill="#3F3D56"/>
<path d="M89.6811 53.5605H9.78955V57.7108H89.6811V53.5605Z" fill="#3F3D56"/>
<path d="M21.0799 34.3657L13.9397 39.1653V43.136L24.7564 34.3657H21.0799Z" fill="white"/>
<path d="M32.8443 34.3657L13.9397 49.165V52.5476L38.5793 34.3657H32.8443Z" fill="#E6E6E6"/>
<path d="M13.9398 6.87061H9.78955V57.7107H13.9398V6.87061Z" fill="#3F3D56"/>
<path d="M78.1373 11.0208L62.186 31.2531L67.1145 31.7717L80.862 10.2427L78.1373 11.0208Z" fill="#E6E6E6"/>
<path d="M89.6811 6.87061H9.78955V11.0208H89.6811V6.87061Z" fill="#3F3D56"/>
<path d="M89.6811 30.2153H9.78955V34.3655H89.6811V30.2153Z" fill="#3F3D56"/>
<path d="M247.185 0H154.842V118.243H247.185V0Z" fill="#E6E6E6"/>
<path d="M240.857 6.98145H160.965V57.5621H240.857V6.98145Z" fill="white"/>
<path d="M240.856 55.4868H160.966V109.699H240.856V55.4868Z" fill="white"/>
<path d="M202.986 6.72217H198.836V57.5623H202.986V6.72217Z" fill="#3F3D56"/>
<path d="M240.857 6.72217H236.707V57.5623H240.857V6.72217Z" fill="#3F3D56"/>
<path d="M240.857 53.4121H160.965V57.5623H240.857V53.4121Z" fill="#3F3D56"/>
<path d="M172.256 34.2168L165.115 39.0166V42.9871L175.932 34.2168H172.256Z" fill="#E6E6E6"/>
<path d="M184.02 34.2168L165.115 49.0161V52.3987L189.755 34.2168H184.02Z" fill="#E6E6E6"/>
<path d="M165.115 6.72217H160.965V57.5623H165.115V6.72217Z" fill="#3F3D56"/>
<path d="M229.313 10.8724L213.362 31.1047L218.29 31.6232L232.038 10.0942L229.313 10.8724Z" fill="#E6E6E6"/>
<path d="M240.857 6.72217H160.965V10.8724H240.857V6.72217Z" fill="#3F3D56"/>
<path d="M240.857 30.0669H160.965V34.2171H240.857V30.0669Z" fill="#3F3D56"/>
<path d="M199.144 67.7769C199.144 67.7769 199.448 68.7899 197.726 69.7017C196.003 70.6134 195.497 74.0578 197.523 75.0709C199.549 76.0839 200.157 77.4009 199.144 78.3127C198.131 79.2244 196.307 81.6557 198.739 82.2636C201.17 82.8714 201.474 84.0871 200.765 84.5936C200.056 85.1001 202.386 83.6818 202.386 83.6818C202.386 83.6818 202.791 86.1132 204.918 85.5053C207.046 84.8975 213.023 73.3487 209.984 71.7278C206.944 70.1069 199.144 67.7769 199.144 67.7769Z" fill="#2F2E41"/>
<path d="M196.38 90.8814L186.659 97.7119C186.659 97.7119 179.303 90.0933 179.303 85.6272C179.303 81.1611 175.363 72.7543 173.524 76.1696C171.685 79.5848 175.625 87.7289 175.625 87.7289L182.981 105.068C182.981 105.068 187.185 105.856 189.549 104.017C191.913 102.178 198.481 98.5001 198.481 98.5001L196.38 90.8814Z" fill="#FFB9B9"/>
<path d="M205.969 79.4535C210.031 79.4535 213.325 76.1602 213.325 72.0976C213.325 68.0351 210.031 64.7417 205.969 64.7417C201.906 64.7417 198.613 68.0351 198.613 72.0976C198.613 76.1602 201.906 79.4535 205.969 79.4535Z" fill="#FFB9B9"/>
<path d="M202.159 77.2203C202.159 77.2203 204.786 84.0508 203.735 85.627C202.684 87.2033 201.371 87.2033 200.32 87.7287C199.795 87.9915 194.278 90.0932 194.278 91.6694C194.303 92.6822 194.573 93.6738 195.066 94.5592L195.854 99.0253L202.422 103.229L211.091 102.178L217.659 98.4999C217.659 98.4999 218.71 88.7796 215.82 87.2033C212.93 85.6271 209.515 81.9491 209.778 80.6355C210.04 79.322 210.303 76.1694 210.303 76.1694L202.159 77.2203Z" fill="#FFB9B9"/>
<path d="M216.084 97.1877V97.1961L215.847 99.5159L215.546 102.492L215.203 105.856L214.814 109.699H195.777C195.521 107.599 195.068 105.372 194.277 104.018C193.779 103.212 193.558 102.266 193.646 101.323C193.823 99.5638 195.065 98.3363 195.065 97.9759C195.065 97.5818 192.852 95.2704 191.746 94.1359C191.374 93.7558 191.126 93.508 191.126 93.508L194.541 90.8813L194.589 90.963L195.068 91.802L196.641 94.5582L196.118 96.6612C196.118 96.6612 196.931 96.802 198.063 96.9822C200.02 97.289 202.931 97.7113 204.26 97.7113C205.493 97.7113 206.999 98.3448 208.243 98.7079C208.283 98.7192 208.319 98.7305 208.356 98.7417C209.139 98.9613 209.809 99.0627 210.231 98.8093C210.256 98.795 210.281 98.779 210.304 98.7614C210.524 98.6123 210.763 98.4922 211.014 98.4039H211.016C211.926 98.0819 212.858 97.8242 213.804 97.6325C214.868 97.3988 215.802 97.2355 216.03 97.1961C216.031 97.1957 216.031 97.1954 216.032 97.1952C216.032 97.195 216.033 97.1949 216.033 97.1949C216.034 97.1949 216.034 97.195 216.035 97.1952C216.035 97.1954 216.036 97.1957 216.036 97.1961C216.067 97.1905 216.084 97.1877 216.084 97.1877Z" fill="#CDAB3C"/>
<path d="M216.903 96.7879C216.883 96.9287 216.866 97.0723 216.849 97.213C216.768 97.8324 216.7 98.4518 216.641 99.0711C216.478 100.715 216.379 102.364 216.345 104.018C216.336 104.635 216.271 105.25 216.151 105.856C215.89 107.16 215.538 108.444 215.098 109.699H207.66C207.857 108.235 208.122 105.983 208.251 103.624V103.621C208.271 103.255 208.285 102.886 208.299 102.517C208.348 101.277 208.331 100.036 208.249 98.7981C208.246 98.7671 208.246 98.7361 208.243 98.708C208.229 98.5475 208.215 98.3927 208.201 98.2378C207.677 92.9844 210.827 87.2046 210.827 87.2046C211.894 87.2046 212.936 87.793 213.865 88.6038C215 89.6175 215.869 90.893 216.399 92.3192C216.928 93.7455 217.101 95.2795 216.903 96.7879Z" fill="#FFB9B9"/>
<path opacity="0.1" d="M216.346 104.018C216.336 104.635 216.271 105.25 216.151 105.856C215.89 107.16 215.538 108.444 215.098 109.699H207.604C207.833 107.332 207.904 104.953 207.815 102.576C207.801 102.227 207.781 101.872 207.753 101.52V101.515C207.734 101.211 207.708 100.907 207.677 100.603C207.631 100.251 207.65 99.8943 207.734 99.5498V99.5441C207.793 99.2825 207.937 99.0473 208.142 98.8741C208.175 98.8456 208.211 98.8202 208.249 98.7981C208.282 98.7755 208.318 98.7566 208.356 98.7418C208.39 98.723 208.426 98.707 208.463 98.6939C208.756 98.5968 209.069 98.5698 209.375 98.6151C209.666 98.6498 209.953 98.7149 210.231 98.8094C211.471 99.2638 212.63 99.916 213.663 100.741C214.349 101.258 214.98 101.845 215.546 102.492C216.042 103.077 216.346 103.618 216.346 104.018Z" fill="black"/>
<path d="M207.413 100.076L208.251 103.623L212.93 105.856H216.871L218.71 97.4491C218.71 97.4491 215.463 96.7623 213.803 97.6311C212.142 98.4999 208.243 98.7078 208.243 98.7078L207.413 100.076Z" fill="#CDAB3C"/>
<path d="M206.029 64.7144C206.029 64.7144 206.366 65.8366 204.458 66.8467C202.55 67.8567 201.989 71.6724 204.233 72.7947C206.478 73.9169 207.151 75.3759 206.029 76.3859C204.907 77.396 202.887 80.0894 205.58 80.7628C208.274 81.4361 208.61 82.7828 207.825 83.344C207.039 83.9051 209.62 82.3339 209.62 82.3339C209.62 82.3339 210.069 85.0274 212.426 84.354C214.783 83.6806 217.134 71.4405 214.507 68.288C212.064 65.3567 206.029 64.7144 206.029 64.7144Z" fill="#2F2E41"/>
<path d="M205.312 63.5595C205.312 61.9153 215.531 63.7203 217.64 66.0159C219.101 67.6056 221.319 69.9973 219.46 71.6831C217.601 73.369 217.346 74.9555 218.699 75.6255C220.052 76.2956 222.724 78.3446 220.311 79.7192C217.899 81.0939 217.938 82.4815 218.846 82.81C219.754 83.1386 216.845 82.3215 216.845 82.3215C216.845 82.3215 217.138 85.0362 214.687 85.0232C212.236 85.0103 205.205 71.5401 206.884 67.796C208.446 64.3147 205.312 63.5595 205.312 63.5595Z" fill="#2F2E41"/>
<path d="M206.377 63.1988C199.799 62.8027 199.139 67.7542 199.139 67.7542C199.184 70.6196 203.735 69.2235 204.999 69.6506C206.523 68.5538 209.463 66.4784 211.564 64.9973C210.038 63.9227 208.241 63.2995 206.377 63.1988Z" fill="#2F2E41"/>
<path d="M117.166 108.108L117.68 111.346C117.68 113.25 118.437 115.076 119.783 116.422C121.129 117.768 122.955 118.525 124.859 118.525C126.763 118.525 128.589 117.768 129.936 116.422C131.282 115.076 132.038 113.25 132.038 111.346L132.042 111.301L132.553 108.108H117.166Z" fill="#E6E6E6"/>
<path d="M250 118.198H0V118.761H250V118.198Z" fill="#3F3D56"/>
<path d="M25.9667 109.073V110.728C25.9667 110.728 24.8634 119.279 21.8293 119.279C18.7952 119.279 21.2777 110.452 21.2777 110.452V109.073L25.9667 109.073Z" fill="#9E616A"/>
<path d="M72.0299 77.905L71.4782 76.5259C71.4782 76.5259 67.8925 71.2851 70.375 69.906C72.8574 68.5269 75.8915 75.4225 75.8915 75.4225L76.4432 77.6292L72.0299 77.905Z" fill="#9E616A"/>
<path d="M60.5833 76.2213C64.6044 76.2213 67.8641 72.9616 67.8641 68.9405C67.8641 64.9194 64.6044 61.6597 60.5833 61.6597C56.5622 61.6597 53.3025 64.9194 53.3025 68.9405C53.3025 72.9616 56.5622 76.2213 60.5833 76.2213Z" fill="#9E616A"/>
<path d="M55.3425 69.7681L50.3779 73.6296L57.2735 79.4218L61.1347 74.7329L55.3425 69.7681Z" fill="#9E616A"/>
<path d="M59.8733 109.848H34.5186L36.4414 89.4565L37.8688 74.3129V74.3101C37.8993 73.9852 37.9936 73.6695 38.1463 73.3811C38.299 73.0926 38.5071 72.8372 38.7587 72.6293C39.0103 72.4214 39.3004 72.2651 39.6124 72.1695C39.9244 72.0739 40.2523 72.0407 40.5771 72.0719L51.0979 73.0686L58.8401 77.5196L59.0653 79.5607L66.7905 85.0759L61.5399 95.0646L58.2376 101.351L59.8733 109.848Z" fill="#B3A3D4"/>
<path d="M38.103 87.2828L30.9315 96.6609L26.5183 109.901H19.8984L24.5875 90.3169L36.9648 73.3927C37.2832 72.9597 37.7331 72.6411 38.2473 72.4846C38.7615 72.328 39.3125 72.3418 39.8182 72.524C39.9762 72.589 40.1411 72.636 40.3096 72.664L38.103 87.2828Z" fill="#B3A3D4"/>
<path d="M60.7209 94.7305L77.9603 101.764L80.994 98.7303L76.719 76.5259L71.2024 77.6295L73.409 90.8691L66.7894 85.0768L64.5824 84.525L60.7209 94.7305Z" fill="#B3A3D4"/>
<path d="M53.4537 71.2987C53.1048 68.4017 53.4291 65.4633 54.4015 62.7123C56.0168 58.3761 61.1671 59.6829 64.1 60.6663C67.0328 61.6496 70.9191 65.7629 69.9079 68.0081C68.8967 70.2533 64.0978 67.4168 62.3861 65.9708C60.6743 64.5247 57.6836 68.9165 57.6836 68.9165L53.4537 71.2987Z" fill="#2F2E41"/>
<path d="M58.6117 68.6927C58.8805 67.9533 58.7654 67.2328 58.3546 67.0835C57.9438 66.9342 57.3929 67.4125 57.1241 68.1519C56.8553 68.8913 56.9705 69.6118 57.3812 69.7611C57.792 69.9104 58.3429 69.4321 58.6117 68.6927Z" fill="#9E616A"/>
</g>
<defs>
<clipPath id="clip0">
<rect width="250" height="119.279" fill="white"/>
</clipPath>
</defs>
</svg>
