<svg width="250" height="165" viewBox="0 0 250 165" fill="none" xmlns="http://www.w3.org/2000/svg">
<g clip-path="url(#clip0)">
<path d="M125 164.009C194.036 164.009 250 160.496 250 156.163C250 151.83 194.036 148.317 125 148.317C55.9644 148.317 0 151.83 0 156.163C0 160.496 55.9644 164.009 125 164.009Z" fill="#E6E6E6"/>
<path d="M191.05 0C190.815 0.000247207 190.589 0.0939693 190.422 0.260598C190.256 0.427226 190.162 0.65315 190.162 0.888798V35.7284C190.162 35.9641 190.256 36.19 190.422 36.3566C190.589 36.5233 190.815 36.617 191.05 36.6172H231.744C231.979 36.617 232.205 36.5233 232.372 36.3566C232.539 36.19 232.632 35.9641 232.633 35.7284V0.888807C232.632 0.653159 232.539 0.427235 232.372 0.260606C232.205 0.0939779 231.979 0.00025648 231.744 8.53272e-06L191.05 0Z" fill="#E6E6E6"/>
<path d="M196.694 20.9702C196.606 20.9882 196.526 21.0361 196.469 21.1059C196.412 21.1757 196.381 21.263 196.381 21.3531C196.381 21.4432 196.412 21.5306 196.469 21.6003C196.526 21.6701 196.606 21.7181 196.694 21.736H226.466C226.554 21.7181 226.634 21.6701 226.691 21.6003C226.748 21.5306 226.779 21.4432 226.779 21.3531C226.779 21.263 226.748 21.1757 226.691 21.1059C226.634 21.0361 226.554 20.9882 226.466 20.9702H196.694Z" fill="#4B3081"/>
<path d="M196.328 25.52C196.24 25.538 196.161 25.5859 196.104 25.6557C196.047 25.7255 196.015 25.8128 196.015 25.9029C196.015 25.993 196.047 26.0804 196.104 26.1501C196.161 26.2199 196.24 26.2679 196.328 26.2858H226.1C226.188 26.2679 226.268 26.2199 226.325 26.1501C226.382 26.0804 226.413 25.993 226.413 25.9029C226.413 25.8128 226.382 25.7255 226.325 25.6557C226.268 25.5859 226.188 25.538 226.1 25.52H196.328Z" fill="#4B3081"/>
<path d="M196.694 30.0703C196.606 30.0883 196.526 30.1362 196.469 30.206C196.412 30.2758 196.381 30.3631 196.381 30.4532C196.381 30.5433 196.412 30.6307 196.469 30.7004C196.526 30.7702 196.606 30.8182 196.694 30.8361H226.466C226.554 30.8182 226.634 30.7702 226.691 30.7004C226.748 30.6307 226.779 30.5433 226.779 30.4532C226.779 30.3631 226.748 30.2758 226.691 30.206C226.634 30.1362 226.554 30.0883 226.466 30.0703H196.694Z" fill="#4B3081"/>
<path d="M196.694 5.78125C196.606 5.79925 196.526 5.84721 196.469 5.91701C196.412 5.98681 196.381 6.07416 196.381 6.16428C196.381 6.25439 196.412 6.34174 196.469 6.41154C196.526 6.48134 196.606 6.5293 196.694 6.5473H226.466C226.554 6.5293 226.634 6.48134 226.691 6.41154C226.748 6.34174 226.779 6.25439 226.779 6.16428C226.779 6.07416 226.748 5.98681 226.691 5.91701C226.634 5.84721 226.554 5.79925 226.466 5.78125H196.694Z" fill="#4B3081"/>
<path d="M196.328 10.3311C196.24 10.3491 196.16 10.397 196.103 10.4668C196.046 10.5366 196.015 10.624 196.015 10.7141C196.015 10.8042 196.046 10.8915 196.103 10.9613C196.16 11.0311 196.24 11.0791 196.328 11.0971H226.1C226.188 11.0791 226.268 11.0311 226.325 10.9613C226.382 10.8915 226.413 10.8042 226.413 10.7141C226.413 10.624 226.382 10.5366 226.325 10.4668C226.268 10.397 226.188 10.3491 226.1 10.3311H196.328Z" fill="#4B3081"/>
<path d="M196.694 14.8813C196.606 14.8993 196.526 14.9473 196.469 15.0171C196.412 15.0869 196.381 15.1743 196.381 15.2644C196.381 15.3545 196.412 15.4418 196.469 15.5116C196.526 15.5814 196.606 15.6294 196.694 15.6474H226.466C226.554 15.6294 226.634 15.5814 226.691 15.5116C226.748 15.4418 226.779 15.3545 226.779 15.2644C226.779 15.1743 226.748 15.0869 226.691 15.0171C226.634 14.9473 226.554 14.8993 226.466 14.8813H196.694Z" fill="#4B3081"/>
<path d="M172.861 14.2466C172.626 14.2468 172.4 14.3405 172.233 14.5072C172.067 14.6738 171.973 14.8997 171.973 15.1354V49.975C171.973 50.2107 172.067 50.4366 172.233 50.6032C172.4 50.7698 172.626 50.8636 172.861 50.8638H213.555C213.79 50.8636 214.016 50.7698 214.183 50.6032C214.35 50.4366 214.443 50.2107 214.444 49.975V15.1354C214.443 14.8997 214.35 14.6738 214.183 14.5072C214.016 14.3405 213.79 14.2468 213.555 14.2466H172.861Z" fill="#856FB3"/>
<path d="M178.506 35.2168C178.417 35.2348 178.338 35.2827 178.281 35.3525C178.224 35.4223 178.193 35.5096 178.193 35.5997C178.193 35.6898 178.224 35.7771 178.281 35.8469C178.338 35.9167 178.417 35.9646 178.506 35.9826H208.278C208.366 35.9646 208.445 35.9167 208.502 35.8469C208.559 35.7771 208.59 35.6898 208.59 35.5997C208.59 35.5096 208.559 35.4223 208.502 35.3525C208.445 35.2827 208.366 35.2348 208.278 35.2168H178.506Z" fill="#4B3081"/>
<path d="M178.139 39.7671C178.051 39.7851 177.972 39.833 177.915 39.9028C177.858 39.9726 177.827 40.0599 177.827 40.15C177.827 40.2401 177.858 40.3274 177.915 40.3972C177.972 40.467 178.051 40.5149 178.139 40.5329H207.911C208 40.5149 208.079 40.467 208.136 40.3972C208.193 40.3274 208.224 40.2401 208.224 40.15C208.224 40.0599 208.193 39.9726 208.136 39.9028C208.079 39.833 208 39.7851 207.911 39.7671H178.139Z" fill="#4B3081"/>
<path d="M178.506 44.3174C178.417 44.3354 178.338 44.3833 178.281 44.4531C178.224 44.5229 178.193 44.6102 178.193 44.7003C178.193 44.7904 178.224 44.8777 178.281 44.9475C178.338 45.0173 178.417 45.0652 178.506 45.0832H208.278C208.366 45.0652 208.445 45.0173 208.502 44.9475C208.559 44.8777 208.59 44.7904 208.59 44.7003C208.59 44.6102 208.559 44.5229 208.502 44.4531C208.445 44.3833 208.366 44.3354 208.278 44.3174H178.506Z" fill="#4B3081"/>
<path d="M178.505 20.0278C178.417 20.0458 178.338 20.0938 178.281 20.1636C178.224 20.2334 178.193 20.3207 178.193 20.4109C178.193 20.501 178.224 20.5883 178.281 20.6581C178.338 20.7279 178.417 20.7759 178.505 20.7939H208.277C208.366 20.7759 208.445 20.7279 208.502 20.6581C208.559 20.5883 208.59 20.501 208.59 20.4109C208.59 20.3207 208.559 20.2334 208.502 20.1636C208.445 20.0938 208.366 20.0458 208.277 20.0278H178.505Z" fill="#4B3081"/>
<path d="M178.139 24.5781C178.051 24.5961 177.972 24.6441 177.915 24.7139C177.858 24.7837 177.827 24.871 177.827 24.9611C177.827 25.0513 177.858 25.1386 177.915 25.2084C177.972 25.2782 178.051 25.3262 178.139 25.3442H207.911C208 25.3262 208.079 25.2782 208.136 25.2084C208.193 25.1386 208.224 25.0513 208.224 24.9611C208.224 24.871 208.193 24.7837 208.136 24.7139C208.079 24.6441 208 24.5961 207.911 24.5781H178.139Z" fill="#4B3081"/>
<path d="M178.505 29.1279C178.417 29.1459 178.338 29.1939 178.281 29.2637C178.224 29.3335 178.193 29.4208 178.193 29.511C178.193 29.6011 178.224 29.6884 178.281 29.7582C178.338 29.828 178.417 29.876 178.505 29.894H208.277C208.366 29.876 208.445 29.828 208.502 29.7582C208.559 29.6884 208.59 29.6011 208.59 29.511C208.59 29.4208 208.559 29.3335 208.502 29.2637C208.445 29.1939 208.366 29.1459 208.277 29.1279H178.505Z" fill="#4B3081"/>
<path d="M230.348 144.214L230.562 148.266L235.041 147.839L234.614 143.787L230.348 144.214Z" fill="#FBBEBE"/>
<path d="M213.072 139.521L213.285 143.573L217.764 143.147L217.338 139.094L213.072 139.521Z" fill="#FBBEBE"/>
<path d="M233.441 89.0781L217.231 91.8509L216.165 121.285L211.899 140.054L218.724 143.04L225.336 124.484L227.682 108.061L229.389 124.484L229.602 145.173L240.053 144.533L237.554 104.019C237.233 98.8077 235.832 93.7198 233.441 89.0781V89.0781Z" fill="#2F2E41"/>
<path d="M230.988 146.773C230.988 146.773 229.495 145.067 229.495 145.707C229.495 146.346 228.642 152.532 228.642 152.532C228.642 152.532 234.401 154.238 234.401 155.305C234.401 156.371 242.719 158.077 242.506 155.944C242.292 153.812 235.041 145.707 235.041 145.707C235.041 145.707 232.054 145.28 230.988 146.773Z" fill="#2F2E41"/>
<path d="M213.971 142.106C213.971 142.106 213.517 139.885 213.2 140.441C212.884 140.998 209.085 145.953 209.085 145.953C209.085 145.953 213.249 150.283 212.721 151.21C212.194 152.137 218.582 157.731 219.451 155.772C220.32 153.812 218.021 143.182 218.021 143.182C218.021 143.182 215.636 141.336 213.971 142.106Z" fill="#2F2E41"/>
<path d="M213.644 65.5659L225.452 66.6949L229.388 55.9689L218.084 53.2456L213.644 65.5659Z" fill="#2F2E41"/>
<path d="M223.309 63.3768C226.608 63.3768 229.281 60.703 229.281 57.4047C229.281 54.1064 226.608 51.4326 223.309 51.4326C220.011 51.4326 217.337 54.1064 217.337 57.4047C217.337 60.703 220.011 63.3768 223.309 63.3768Z" fill="#FBBEBE"/>
<path d="M219.897 61.0308C219.897 61.0308 219.897 65.0833 216.698 66.7896C213.498 68.4959 224.376 70.4155 224.376 70.4155L225.442 66.7896C225.442 66.7896 222.243 65.2965 225.016 61.8839L219.897 61.0308Z" fill="#FBBEBE"/>
<path d="M225.016 65.7229C225.016 65.7229 221.11 68.1425 217.837 65.9729L216.484 65.7229L212.432 66.5761L210.512 73.8279L217.764 91.9575C217.764 91.9575 230.348 94.0904 232.908 89.398L231.414 70.202L227.362 65.2964L225.016 65.7229Z" fill="#644A98"/>
<path d="M226.936 65.9366L233.974 56.1251L233.335 55.0588L224.163 50.3665V47.3804L238.453 51.2196L239.42 52.7518L230.988 71.0555L226.936 65.9366Z" fill="#644A98"/>
<path d="M212.858 66.7897L212.432 66.5764L201.767 66.15L209.872 59.1113L207.313 55.9121L195.155 65.0836V67.2164L212.432 74.4681L212.858 66.7897Z" fill="#644A98"/>
<path d="M207.207 56.8716L208.7 56.0185C208.7 56.0185 211.899 51.7527 213.179 53.459C214.458 55.1653 210.193 58.3647 210.193 58.3647L207.846 59.2178L207.207 56.8716Z" fill="#FBBEBE"/>
<path d="M224.802 48.02L222.456 46.7402C222.456 46.7402 215.418 47.3801 216.271 48.8731C217.124 50.3661 222.03 49.0864 222.03 49.0864L224.802 49.9396V48.02Z" fill="#FBBEBE"/>
<path d="M218.725 51.6408C218.725 51.6408 215.983 52.5546 215.844 56.1634C215.83 56.7406 215.894 57.317 216.034 57.877C216.189 58.5312 216.288 59.9389 215.092 61.7784C214.291 62.9928 213.559 64.2516 212.9 65.5486L212.891 65.5658L215.902 65.9421L216.542 60.9515C216.853 58.5319 217.517 56.1712 218.516 53.9454L218.536 53.8989C218.536 53.8989 219.854 56.3452 222.488 56.3452L221.547 55.4043C221.547 55.4043 225.687 57.0979 227.192 57.0979C227.192 57.0979 228.322 57.8506 227.192 58.9796C226.063 60.1087 223.805 62.7431 225.123 64.8131C226.44 66.883 225.311 67.4475 225.311 67.4475L227.381 66.3185L228.322 65.754V66.5067L233.214 65.9422C233.214 65.9422 234.531 65.754 231.709 62.555C231.709 62.555 230.963 61.3127 231.289 60.2413C231.557 59.427 231.628 58.5607 231.495 57.7138C230.863 54.1861 228.382 47.1727 218.725 51.6408Z" fill="#2F2E41"/>
<path d="M47.0729 55.1245C46.9254 55.1247 46.784 55.1833 46.6797 55.2876C46.5754 55.3919 46.5168 55.5333 46.5166 55.6808V98.1847C46.5167 98.3322 46.5754 98.4736 46.6797 98.5779C46.784 98.6822 46.9254 98.7409 47.0729 98.741H144.097C144.245 98.7409 144.386 98.6822 144.491 98.5779C144.595 98.4736 144.654 98.3322 144.654 98.1847V55.6808C144.654 55.5333 144.595 55.3919 144.491 55.2876C144.386 55.1833 144.245 55.1247 144.097 55.1245H47.0729Z" fill="#E6E6E6"/>
<path d="M130.967 63.51H60.2019C60.1141 63.5102 60.0272 63.4931 59.946 63.4596C59.8649 63.4261 59.7911 63.377 59.729 63.315C59.6668 63.253 59.6175 63.1793 59.5839 63.0982C59.5503 63.0171 59.533 62.9302 59.533 62.8424C59.533 62.7546 59.5503 62.6677 59.5839 62.5866C59.6175 62.5055 59.6668 62.4319 59.729 62.3699C59.7911 62.3079 59.8649 62.2587 59.946 62.2252C60.0272 62.1918 60.1141 62.1746 60.2019 62.1748H130.967C131.144 62.1752 131.314 62.2457 131.439 62.3708C131.564 62.496 131.634 62.6656 131.634 62.8424C131.634 63.0192 131.564 63.1888 131.439 63.314C131.314 63.4392 131.144 63.5097 130.967 63.51Z" fill="#4B3081"/>
<path d="M130.967 68.8508H60.2018C60.0247 68.8508 59.8549 68.7805 59.7297 68.6553C59.6045 68.5301 59.5342 68.3603 59.5342 68.1832C59.5342 68.0062 59.6045 67.8364 59.7297 67.7112C59.8549 67.586 60.0247 67.5156 60.2018 67.5156H130.967C131.144 67.5156 131.314 67.586 131.439 67.7112C131.565 67.8364 131.635 68.0062 131.635 68.1832C131.635 68.3603 131.565 68.5301 131.439 68.6553C131.314 68.7805 131.144 68.8508 130.967 68.8508Z" fill="#4B3081"/>
<path d="M130.967 74.1917H60.2019C60.1141 74.1918 60.0272 74.1747 59.946 74.1412C59.8649 74.1078 59.7911 74.0586 59.729 73.9966C59.6668 73.9346 59.6175 73.8609 59.5839 73.7798C59.5503 73.6988 59.533 73.6118 59.533 73.5241C59.533 73.4363 59.5503 73.3493 59.5839 73.2683C59.6175 73.1872 59.6668 73.1135 59.729 73.0515C59.7911 72.9895 59.8649 72.9403 59.946 72.9069C60.0272 72.8734 60.1141 72.8563 60.2019 72.8564H130.967C131.144 72.8568 131.314 72.9273 131.439 73.0525C131.564 73.1776 131.634 73.3472 131.634 73.5241C131.634 73.7009 131.564 73.8705 131.439 73.9956C131.314 74.1208 131.144 74.1913 130.967 74.1917Z" fill="#4B3081"/>
<path d="M130.967 79.4919H60.2018C60.0247 79.4919 59.8549 79.4216 59.7297 79.2964C59.6045 79.1712 59.5342 79.0014 59.5342 78.8243C59.5342 78.6473 59.6045 78.4775 59.7297 78.3523C59.8549 78.2271 60.0247 78.1567 60.2018 78.1567H130.967C131.144 78.1567 131.314 78.2271 131.439 78.3523C131.565 78.4775 131.635 78.6473 131.635 78.8243C131.635 79.0014 131.565 79.1712 131.439 79.2964C131.314 79.4216 131.144 79.4919 130.967 79.4919Z" fill="#4B3081"/>
<path d="M130.967 84.8327H60.2019C60.1141 84.8329 60.0272 84.8158 59.946 84.7823C59.8649 84.7488 59.7911 84.6997 59.729 84.6377C59.6668 84.5757 59.6175 84.502 59.5839 84.4209C59.5503 84.3398 59.533 84.2529 59.533 84.1651C59.533 84.0774 59.5503 83.9904 59.5839 83.9094C59.6175 83.8283 59.6668 83.7546 59.729 83.6926C59.7911 83.6306 59.8649 83.5815 59.946 83.548C60.0272 83.5145 60.1141 83.4974 60.2019 83.4976H130.967C131.145 83.4976 131.314 83.5679 131.44 83.6931C131.565 83.8183 131.635 83.9881 131.635 84.1651C131.635 84.3422 131.565 84.512 131.44 84.6372C131.314 84.7624 131.145 84.8327 130.967 84.8327Z" fill="#4B3081"/>
<path d="M113.005 89.2769C112.955 89.2769 112.906 89.297 112.87 89.3327C112.835 89.3685 112.815 89.4169 112.814 89.4675V94.521C112.815 94.5715 112.835 94.62 112.87 94.6557C112.906 94.6914 112.955 94.7115 113.005 94.7116H130.682C130.733 94.7115 130.781 94.6914 130.817 94.6557C130.853 94.62 130.873 94.5715 130.873 94.521V89.4675C130.873 89.4169 130.853 89.3685 130.817 89.3327C130.781 89.297 130.733 89.2769 130.682 89.2769H113.005Z" fill="#4B3081"/>
<path d="M16.1729 98.6441C16.1729 98.6441 14.7134 116.193 14.4 119.953C14.1852 122.311 13.6583 124.629 12.8332 126.848C12.4582 127.633 12.245 128.485 12.2065 129.355V145.336C12.2065 145.336 10.953 145.336 11.2664 146.59C11.5797 147.843 11.8931 150.037 11.8931 150.037H16.5936C16.5936 150.037 16.2803 149.097 17.2204 148.783C18.1605 148.47 17.2204 145.963 17.2204 145.963L22.2343 127.161L29.7551 111.492C29.7551 111.492 34.1423 125.594 35.0824 127.161C35.0824 127.161 38.5294 144.71 39.1562 146.276C39.7829 147.843 40.0963 147.843 39.7829 148.47C39.4695 149.097 39.4695 149.723 39.7829 150.037C40.0963 150.35 46.0503 150.037 46.0503 150.037L44.4835 127.788L41.6631 101.151L27.2482 96.7642L16.1729 98.6441Z" fill="#2F2E41"/>
<path d="M15.3404 147.53C15.3404 147.53 13.7735 141.889 11.2666 146.277C8.75962 150.664 8.75962 152.231 8.75962 152.231C8.75962 152.231 4.68582 158.185 10.3265 157.558C15.9671 156.931 14.7136 154.111 14.7136 154.111C14.7136 154.111 16.9072 152.857 16.9072 151.917C16.9072 150.977 15.3404 147.53 15.3404 147.53Z" fill="#2F2E41"/>
<path d="M40.7231 146.904C40.7231 146.904 42.2899 141.263 44.7969 145.65C47.3038 150.037 47.3038 151.604 47.3038 151.604C47.3038 151.604 51.3776 157.558 45.737 156.931C40.0964 156.305 41.3498 153.484 41.3498 153.484C41.3498 153.484 39.1562 152.231 39.1562 151.291C39.1562 150.351 40.7231 146.904 40.7231 146.904Z" fill="#2F2E41"/>
<path d="M25.9954 56.3398C25.9954 56.3398 26.6221 60.4136 24.7419 61.3537C22.8617 62.2938 28.8157 65.7409 30.3825 65.7409C31.9494 65.7409 34.7697 62.6072 34.7697 62.6072C34.7697 62.6072 33.2029 57.9067 33.5162 56.9666L25.9954 56.3398Z" fill="#FFB9B9"/>
<path d="M29.4418 59.4735C33.0763 59.4735 36.0226 56.5272 36.0226 52.8928C36.0226 49.2583 33.0763 46.312 29.4418 46.312C25.8074 46.312 22.8611 49.2583 22.8611 52.8928C22.8611 56.5272 25.8074 59.4735 29.4418 59.4735Z" fill="#FFB9B9"/>
<path d="M42.2901 66.3678L34.4562 61.6215C34.4562 61.6215 29.9989 66.6812 25.1766 61.0405L16.9073 63.2341L18.1607 84.5432C18.1607 84.5432 16.2805 93.0042 16.9073 94.571C17.534 96.1378 15.3404 96.7646 15.9671 97.078C16.5939 97.3913 15.9671 99.5849 15.9671 99.5849C15.9671 99.5849 28.1885 105.852 41.6634 101.152L40.4099 97.078C40.5805 96.5454 40.6125 95.9782 40.5028 95.4299C40.3932 94.8815 40.1455 94.3702 39.7832 93.9443C39.7832 93.9443 41.0367 92.0641 39.4698 90.4972C39.4698 90.4972 40.0966 87.6769 38.5297 86.4234L38.2164 82.0363L39.1565 79.8427L42.2901 66.3678Z" fill="#4B3081"/>
<path d="M26.0743 49.8372C26.0743 49.8372 25.2897 51.5351 28.4279 50.8559C28.4279 50.8559 29.6048 51.5351 29.6048 50.5163C29.6048 50.5163 31.1739 52.2142 31.5662 51.1955C31.9584 50.1768 32.743 51.5351 32.743 51.5351L33.5276 49.8372L34.3121 50.8559H37.0581C37.0581 50.8559 37.8426 44.0644 28.4279 44.7435C19.0132 45.4227 23.6448 56.1832 23.6448 56.1832C23.6448 56.1832 23.7206 54.2517 24.5051 55.2704C25.2897 56.2891 26.0743 49.8372 26.0743 49.8372Z" fill="#2F2E41"/>
<path d="M45.1107 78.9023L45.424 85.4831C45.424 85.4831 46.6775 97.7045 44.1706 103.032V105.852C44.1706 105.852 43.5438 113.06 40.4101 112.746C37.2765 112.433 41.3503 102.405 41.3503 102.405L40.7235 88.6168L40.0968 80.7826L45.1107 78.9023Z" fill="#FFB9B9"/>
<path d="M38.8433 66.6807L41.9693 66.1729C44.2211 68.3365 45.7551 71.1387 46.3641 74.2016C47.3042 79.2155 47.6176 80.1556 47.6176 80.1556L40.0968 82.0358L36.0229 74.2016L38.8433 66.6807Z" fill="#4B3081"/>
<path d="M25.7221 68.5376C25.5746 68.5378 25.4332 68.5964 25.3289 68.7007C25.2246 68.805 25.1659 68.9464 25.1658 69.0939V111.598C25.1659 111.745 25.2246 111.887 25.3289 111.991C25.4332 112.095 25.5746 112.154 25.7221 112.154H122.747C122.894 112.154 123.035 112.095 123.14 111.991C123.244 111.887 123.303 111.745 123.303 111.598V69.0939C123.303 68.9464 123.244 68.805 123.14 68.7007C123.035 68.5964 122.894 68.5378 122.747 68.5376H25.7221Z" fill="#856FB3"/>
<path d="M109.617 76.9226H38.851C38.6742 76.9222 38.5048 76.8517 38.3799 76.7266C38.255 76.6014 38.1848 76.4318 38.1848 76.255C38.1848 76.0782 38.255 75.9086 38.3799 75.7834C38.5048 75.6583 38.6742 75.5878 38.851 75.5874H109.617C109.794 75.5874 109.963 75.6577 110.089 75.7829C110.214 75.9081 110.284 76.0779 110.284 76.255C110.284 76.4321 110.214 76.6019 110.089 76.7271C109.963 76.8523 109.794 76.9226 109.617 76.9226Z" fill="#4B3081"/>
<path d="M109.617 82.2634H38.851C38.6742 82.2631 38.5048 82.1926 38.3799 82.0674C38.255 81.9422 38.1848 81.7726 38.1848 81.5958C38.1848 81.419 38.255 81.2494 38.3799 81.1242C38.5048 80.9991 38.6742 80.9286 38.851 80.9282H109.617C109.794 80.9282 109.963 80.9986 110.089 81.1238C110.214 81.249 110.284 81.4188 110.284 81.5958C110.284 81.7729 110.214 81.9427 110.089 82.0679C109.963 82.1931 109.794 82.2634 109.617 82.2634Z" fill="#4B3081"/>
<path d="M109.617 87.6043H38.851C38.6742 87.6039 38.5048 87.5334 38.3799 87.4082C38.255 87.2831 38.1848 87.1135 38.1848 86.9366C38.1848 86.7598 38.255 86.5902 38.3799 86.4651C38.5048 86.3399 38.6742 86.2694 38.851 86.269H109.617C109.704 86.2689 109.791 86.286 109.872 86.3195C109.954 86.3529 110.027 86.4021 110.09 86.4641C110.152 86.5261 110.201 86.5998 110.235 86.6809C110.268 86.7619 110.286 86.8489 110.286 86.9366C110.286 87.0244 110.268 87.1114 110.235 87.1924C110.201 87.2735 110.152 87.3472 110.09 87.4092C110.027 87.4712 109.954 87.5204 109.872 87.5538C109.791 87.5873 109.704 87.6044 109.617 87.6043Z" fill="#4B3081"/>
<path d="M109.617 92.905H38.851C38.6742 92.9047 38.5048 92.8342 38.3799 92.709C38.255 92.5839 38.1848 92.4143 38.1848 92.2374C38.1848 92.0606 38.255 91.891 38.3799 91.7658C38.5048 91.6407 38.6742 91.5702 38.851 91.5698H109.617C109.704 91.5696 109.791 91.5868 109.872 91.6202C109.954 91.6537 110.027 91.7029 110.09 91.7649C110.152 91.8269 110.201 91.9005 110.235 91.9816C110.268 92.0627 110.286 92.1496 110.286 92.2374C110.286 92.3252 110.268 92.4121 110.235 92.4932C110.201 92.5743 110.152 92.648 110.09 92.71C110.027 92.772 109.954 92.8211 109.872 92.8546C109.791 92.8881 109.704 92.9052 109.617 92.905Z" fill="#4B3081"/>
<path d="M109.617 98.2459H38.8512C38.6741 98.2459 38.5043 98.1755 38.3791 98.0503C38.2539 97.9251 38.1836 97.7553 38.1836 97.5783C38.1836 97.4012 38.2539 97.2314 38.3791 97.1062C38.5043 96.981 38.6741 96.9106 38.8512 96.9106H109.617C109.794 96.9106 109.964 96.981 110.089 97.1062C110.214 97.2314 110.284 97.4012 110.284 97.5783C110.284 97.7553 110.214 97.9251 110.089 98.0503C109.964 98.1755 109.794 98.2459 109.617 98.2459Z" fill="#4B3081"/>
<path d="M91.6545 102.69C91.6039 102.69 91.5555 102.71 91.5198 102.746C91.484 102.782 91.4639 102.83 91.4639 102.881V107.934C91.4639 107.985 91.484 108.033 91.5198 108.069C91.5555 108.105 91.6039 108.125 91.6545 108.125H109.332C109.382 108.125 109.431 108.105 109.466 108.069C109.502 108.033 109.522 107.985 109.522 107.934V102.881C109.522 102.83 109.502 102.782 109.466 102.746C109.431 102.71 109.382 102.69 109.332 102.69H91.6545Z" fill="#4B3081"/>
<path d="M12.2072 75.1417C12.2072 75.1417 9.38683 87.0498 12.8339 87.0498C16.281 87.0498 24.4285 73.5749 24.4285 73.5749C24.4285 73.5749 32.8895 69.1877 29.4424 67.6209C25.9954 66.0541 21.6082 70.1278 21.6082 70.1278L16.5461 77.156L16.2809 73.5749L12.2072 75.1417Z" fill="#FFB9B9"/>
<path d="M18.7876 65.1141L16.9074 63.2339C16.9074 63.2339 13.147 65.4275 12.8336 67.6211C12.5202 69.8146 10.9534 76.7087 10.9534 76.7087L16.7507 77.1788L18.6309 74.3585L18.7876 65.1141Z" fill="#4B3081"/>
</g>
<defs>
<clipPath id="clip0">
<rect width="250" height="164.009" fill="white"/>
</clipPath>
</defs>
</svg>
