<svg width="250" height="223" viewBox="0 0 250 223" fill="none" xmlns="http://www.w3.org/2000/svg">
<g clip-path="url(#clip0)">
<path d="M210.457 206.28C210.457 210.416 172.166 222.834 124.931 222.834C77.6962 222.834 39.4048 210.416 39.4048 206.28C39.4048 202.144 77.6962 207.857 124.931 207.857C172.166 207.857 210.457 202.144 210.457 206.28Z" fill="#3F3D56"/>
<path opacity="0.2" d="M210.457 206.28C210.457 210.416 172.166 222.834 124.931 222.834C77.6962 222.834 39.4048 210.416 39.4048 206.28C39.4048 202.144 77.6962 207.857 124.931 207.857C172.166 207.857 210.457 202.144 210.457 206.28Z" fill="black"/>
<path d="M124.931 213.768C172.166 213.768 210.457 210.416 210.457 206.28C210.457 202.144 172.166 198.792 124.931 198.792C77.6962 198.792 39.4048 202.144 39.4048 206.28C39.4048 210.416 77.6962 213.768 124.931 213.768Z" fill="#3F3D56"/>
<path opacity="0.2" d="M124.273 210.319C143.712 210.319 159.471 208.846 159.471 207.03C159.471 205.213 143.712 203.74 124.273 203.74C104.834 203.74 89.0759 205.213 89.0759 207.03C89.0759 208.846 104.834 210.319 124.273 210.319Z" fill="black"/>
<path d="M192.819 131.458H154.372V131.701H62.4312V145.023C62.4312 179.269 90.1924 207.03 124.438 207.03H124.438C135.276 207.034 145.925 204.196 155.324 198.8C164.723 193.403 172.542 185.636 178.001 176.273H192.819C198.762 176.273 204.462 173.913 208.664 169.71C212.866 165.508 215.227 159.808 215.227 153.865C215.227 147.923 212.866 142.223 208.664 138.021C204.462 133.818 198.762 131.458 192.819 131.458ZM192.819 169.365H181.481C184.766 161.671 186.455 153.39 186.444 145.023V138.365H192.819C196.93 138.365 200.873 139.998 203.779 142.905C206.686 145.812 208.319 149.755 208.319 153.865C208.319 157.976 206.686 161.919 203.779 164.826C200.873 167.732 196.93 169.365 192.819 169.365Z" fill="#3F3D56"/>
<path d="M68.1877 137.458V145.023C68.1877 176.04 93.4214 201.273 124.438 201.273C155.454 201.273 180.688 176.04 180.688 145.023V137.458H68.1877Z" fill="#856FB3"/>
<path d="M109.73 190.967L96.8523 177.695C95.5527 176.356 94.8384 174.555 94.8665 172.689C94.8946 170.823 95.6629 169.044 97.0023 167.745L116.479 148.846C116.943 148.396 117.491 148.041 118.092 147.801L122.323 146.11C123.235 145.746 124.235 145.66 125.196 145.865C126.157 146.07 127.036 146.556 127.72 147.262L141.168 161.121C141.831 161.805 142.284 162.665 142.471 163.599C142.658 164.533 142.572 165.501 142.224 166.388L140.8 170.007C140.542 170.664 140.146 171.259 139.639 171.75L119.68 191.117C118.341 192.416 116.54 193.131 114.674 193.103C112.808 193.074 111.03 192.306 109.73 190.967Z" fill="#E6E6E6"/>
<path d="M135.838 158.853L129.582 152.405L128.615 153.344L134.871 159.791L135.838 158.853Z" fill="#3F3D56"/>
<path d="M132.837 156.438C133.976 153.737 137.369 153.155 139.893 152.619C142.576 152.05 145.632 151.059 146.746 148.269C146.987 147.698 147.08 147.075 147.017 146.459C146.954 145.842 146.737 145.251 146.386 144.741C145.73 143.8 144.626 143.034 143.432 143.141C140.933 143.365 140.488 146.316 141.443 148.178C142.731 150.692 146.04 150.911 148.516 150.973C150.908 151.033 153.475 150.941 155.661 149.86C156.69 149.359 157.551 148.568 158.136 147.584C158.721 146.6 159.006 145.466 158.955 144.322C158.878 141.908 157.813 139.656 157.177 137.363C156.566 135.158 156.374 132.714 158.001 130.881C159.577 129.104 162.062 128.403 164.328 128.044C164.909 127.952 165.495 127.889 166.082 127.842C166.711 127.792 166.716 126.804 166.082 126.855C161.881 127.193 156.376 128.641 155.773 133.601C155.497 135.869 156.354 138.106 157.045 140.223C157.687 142.19 158.439 144.457 157.617 146.486C156.754 148.617 154.52 149.483 152.403 149.808C151.262 149.966 150.109 150.028 148.958 149.995C147.624 150.03 146.29 149.896 144.99 149.596C143.876 149.291 142.801 148.706 142.273 147.636C141.885 146.851 141.761 145.791 142.196 144.997C142.31 144.795 142.464 144.617 142.649 144.476C142.834 144.335 143.045 144.233 143.271 144.177C143.497 144.12 143.732 144.111 143.961 144.148C144.191 144.186 144.41 144.27 144.606 144.395C145.083 144.662 145.472 145.06 145.727 145.543C145.982 146.026 146.091 146.573 146.041 147.116C145.681 149.912 142.484 151.035 140.145 151.556C137.568 152.13 134.66 152.551 132.819 154.66C132.428 155.112 132.113 155.623 131.885 156.176C131.852 156.302 131.869 156.436 131.933 156.55C131.998 156.664 132.104 156.747 132.23 156.783C132.356 156.814 132.49 156.796 132.603 156.732C132.716 156.668 132.8 156.563 132.837 156.438Z" fill="#3F3D56"/>
<path d="M93.0232 152.424C95.0216 152.424 96.6416 150.804 96.6416 148.806C96.6416 146.808 95.0216 145.188 93.0232 145.188C91.0248 145.188 89.4048 146.808 89.4048 148.806C89.4048 150.804 91.0248 152.424 93.0232 152.424Z" fill="#D1C1F2"/>
<path d="M159.471 165.911C161.469 165.911 163.089 164.291 163.089 162.293C163.089 160.294 161.469 158.674 159.471 158.674C157.472 158.674 155.852 160.294 155.852 162.293C155.852 164.291 157.472 165.911 159.471 165.911Z" fill="#D1C1F2"/>
<path d="M141.379 184.003C142.832 184.003 144.01 182.825 144.01 181.372C144.01 179.918 142.832 178.74 141.379 178.74C139.925 178.74 138.747 179.918 138.747 181.372C138.747 182.825 139.925 184.003 141.379 184.003Z" fill="#D1C1F2"/>
<path d="M47.5689 205.133C58.3149 207.531 70.1743 205.759 70.1743 205.759C70.1743 205.759 64.6109 200.102 53.8649 197.704C43.1189 195.307 31.2595 197.078 31.2595 197.078C31.2595 197.078 36.8229 202.736 47.5689 205.133Z" fill="#E6E6E6"/>
<path d="M48.6288 209.176C60.3282 209.514 70.2557 205.743 70.2557 205.743C63.6957 202.903 56.6597 201.324 49.5154 201.088C37.816 200.75 27.8884 204.521 27.8884 204.521C34.4484 207.36 41.4844 208.94 48.6288 209.176Z" fill="#856FB3"/>
<path d="M49.4601 201.101C57.8181 205.315 70.1269 205.842 70.1269 205.842C70.1269 205.842 68.8847 199.537 60.5267 195.323C52.1687 191.109 39.8599 190.583 39.8599 190.583C39.8599 190.583 41.102 196.888 49.4601 201.101Z" fill="#856FB3"/>
<path d="M39.5175 151.649C37.6071 154.614 35.4812 154.709 33.6816 153.549C33.6398 153.522 33.5986 153.495 33.5579 153.467C33.4759 153.411 33.3963 153.353 33.3192 153.294C31.7845 152.108 31.2237 150.207 33.0003 147.45C34.8389 144.597 40.1779 142.941 40.5759 142.821H40.5764L40.5993 142.814C40.5993 142.814 41.4277 148.685 39.5175 151.649Z" fill="#E6E6E6"/>
<path d="M172.083 75.605C170.173 78.5696 168.047 78.6645 166.247 77.5049C166.205 77.4779 166.164 77.4505 166.124 77.4227C166.042 77.3668 165.962 77.309 165.885 77.2494C164.35 76.0639 163.789 74.1626 165.566 71.4055C167.405 68.5522 172.744 66.8967 173.142 66.7764H173.142L173.165 66.7695C173.165 66.7695 173.993 72.6406 172.083 75.605Z" fill="#E6E6E6"/>
<path d="M96.4368 53.603C98.8259 56.1975 98.3832 58.2789 96.8083 59.7291C96.7718 59.7628 96.7349 59.7958 96.6978 59.8282C96.623 59.8935 96.5471 59.956 96.47 60.0157C94.9367 61.203 92.9554 61.2677 90.7336 58.8549C88.4343 56.358 88.1744 50.7742 88.158 50.3588L88.1581 50.3583L88.1572 50.3345C88.1572 50.3345 94.048 51.0089 96.4368 53.603Z" fill="#E6E6E6"/>
<path d="M174.729 137.088L169.061 139.947C168.519 140.245 167.882 140.315 167.288 140.143C166.694 139.971 166.192 139.571 165.893 139.03L161.993 131.299C161.9 131.113 161.847 130.911 161.837 130.704L161.762 129.236C161.753 128.907 161.839 128.582 162.01 128.301C162.181 128.02 162.43 127.795 162.726 127.652L168.644 124.666C168.927 124.518 169.246 124.452 169.564 124.475C169.882 124.498 170.188 124.61 170.446 124.797L171.447 125.558C171.628 125.694 171.775 125.87 171.877 126.073L175.874 133.996C176.131 134.558 176.155 135.199 175.941 135.779C175.726 136.358 175.29 136.829 174.729 137.088Z" fill="#E6E6E6"/>
<path d="M167.331 126.131L164.578 127.52L164.771 127.904L167.525 126.515L167.331 126.131Z" fill="#3F3D56"/>
<path d="M170.215 127.528L164.107 130.574L164.988 132.34L171.095 129.294L170.215 127.528Z" fill="#856FB3"/>
<path d="M171.53 129.831L165.423 132.877L166.303 134.643L172.411 131.597L171.53 129.831Z" fill="#856FB3"/>
<path d="M172.846 132.463L166.739 135.509L167.619 137.275L173.727 134.229L172.846 132.463Z" fill="#856FB3"/>
</g>
<defs>
<clipPath id="clip0">
<rect width="250" height="222.834" fill="white"/>
</clipPath>
</defs>
</svg>
