<svg width="250" height="238" viewBox="0 0 250 238" fill="none" xmlns="http://www.w3.org/2000/svg">
<g clip-path="url(#clip0)">
<path d="M178.693 40.9428C184.601 37.6686 190.601 34.1602 194.776 28.8504C199.135 23.3051 200.996 15.0112 196.956 9.22919C193.562 4.37224 186.804 2.6645 181.048 4.06814C175.291 5.47177 170.472 9.47079 166.729 14.0641C167.954 8.41846 162 2.96727 156.245 3.46725C150.49 3.96723 145.872 8.99756 144.335 14.5664C142.798 20.1352 143.798 26.0947 145.447 31.6314C148.224 40.9147 152.761 49.5769 158.812 57.145C159.74 55.4641 160.861 53.8975 162.153 52.4771C166.697 47.4799 172.786 44.2169 178.693 40.9428Z" fill="#B3A3D4"/>
<path d="M158.273 57.4154C150.542 48.8918 144.88 38.701 141.727 27.6345C140.106 21.8858 139.156 15.3498 141.585 9.67824C143.464 5.29161 147.468 1.32268 152.432 0.955247C157.671 0.567491 163.486 5.41832 162.364 10.9652C162.28 11.3794 162.825 11.8164 163.149 11.4221C167.341 6.30425 173.105 1.59003 179.973 1.1279C186.091 0.716293 192.517 3.77336 194.299 9.98789C196.155 16.4608 192.953 23.3087 188.468 27.8859C183.494 32.9633 177.018 36.1306 170.905 39.5886C164.891 42.991 158.775 46.92 155.076 52.9343C153.318 55.716 152.232 58.8686 151.903 62.1425C151.613 65.5218 152.458 68.717 154.094 71.6638C155.832 74.7937 157.981 77.6471 159.55 80.8789C161.093 84.073 162.267 87.4327 163.049 90.8929C164.628 97.7901 164.638 104.954 163.079 111.856C160.196 124.434 151.782 135.505 140.585 141.874C139.232 142.641 137.841 143.341 136.418 143.969C135.866 144.213 136.344 145.022 136.892 144.78C142.823 142.118 148.155 138.284 152.568 133.51C156.98 128.735 160.382 123.118 162.569 116.996C167.306 103.548 165.49 88.0533 157.912 75.9981C155.928 72.8431 153.637 69.7834 152.984 66.0246C152.386 62.5801 153.123 58.9869 154.577 55.8447C157.692 49.1153 163.865 44.7409 170.101 41.1306C176.335 37.5213 182.995 34.3954 188.279 29.3891C192.982 24.9324 196.452 18.5735 195.637 11.9117C195.301 8.86739 193.884 6.04469 191.643 3.95663C189.384 1.97009 186.581 0.706053 183.597 0.327626C176.939 -0.611024 170.698 2.54783 165.953 7.01306C164.717 8.1852 163.559 9.43611 162.484 10.758L163.269 11.2148C164.282 6.20815 160.302 1.60846 155.642 0.342188C150.574 -1.03487 145.55 1.92786 142.63 5.94439C138.982 10.9614 138.684 17.3954 139.75 23.3109C140.856 29.4474 143.146 35.4552 145.927 41.0186C149.028 47.2097 152.958 52.9495 157.609 58.0795C158.016 58.5285 158.678 57.8626 158.273 57.4154L158.273 57.4154Z" fill="#3F3D56"/>
<path d="M155.004 226.447L150.572 227.704L133.158 172.25L145.936 170.047L155.004 226.447Z" fill="#9F616A"/>
<path d="M102.986 226.765L98.6035 225.826L109.941 168.999L122.27 173.016L102.986 226.765Z" fill="#9F616A"/>
<path d="M149.663 237.219C150.877 237.772 151.893 234.34 152.917 235.346C155.78 238.16 162.649 237.529 162.649 237.529C162.88 237.455 163.093 237.335 163.276 237.176C163.459 237.017 163.607 236.822 163.713 236.604C163.818 236.386 163.878 236.149 163.889 235.907C163.9 235.665 163.862 235.423 163.777 235.196C163.675 234.925 163.509 234.682 163.293 234.489C163.077 234.296 162.817 234.159 162.535 234.088L159.49 233.327L154.709 224.919L149.498 224.259L149.367 224.475C148.359 226.098 147.71 227.918 147.462 229.812C147.213 231.707 147.372 233.632 147.927 235.46C148.36 236.849 148.95 236.893 149.663 237.219Z" fill="#2F2E41"/>
<path d="M96.6201 234.772C97.712 235.539 99.3387 232.35 100.161 233.526C102.462 236.815 109.331 237.451 109.331 237.451C109.571 237.42 109.802 237.341 110.011 237.218C110.22 237.095 110.402 236.931 110.545 236.736C110.689 236.541 110.791 236.319 110.846 236.083C110.901 235.847 110.908 235.602 110.866 235.364C110.816 235.078 110.696 234.809 110.519 234.58C110.342 234.351 110.111 234.168 109.848 234.047L106.993 232.742L103.829 223.602L98.8264 222.001L98.6576 222.189C97.3706 223.601 96.3995 225.271 95.8092 227.088C95.2188 228.906 95.0229 230.828 95.2344 232.727C95.4067 234.171 95.9785 234.322 96.6201 234.772Z" fill="#2F2E41"/>
<path d="M140.236 130.01C142.57 133.599 144.832 137.223 145.833 141.348C148.253 151.446 149.981 161.696 151.005 172.029C142.896 176.681 135.862 179.351 128.99 179.812C128.67 179.833 128.351 179.848 128.032 179.86L125.527 165.717L123.529 179.704C122.54 179.599 121.549 179.449 120.553 179.248C116.245 178.384 111.859 176.618 107.172 173.907C105.492 167.224 104.787 160.333 105.078 153.448C105.463 144.241 107.545 136.358 109.561 130.028L140.236 130.01Z" fill="#2F2E41"/>
<path d="M123.024 88.3124L112.009 84.5671C115.994 80.666 117.621 76.3828 115.974 71.5688L128.311 73.7719C125.384 79.4141 121.551 82.8115 123.024 88.3124Z" fill="#9F616A"/>
<path d="M140.236 130.01C130.215 137.981 120.014 138.9 109.561 130.028C113.775 116.798 105.178 104.357 106.43 94.9648C107.211 89.1053 109.648 81.8473 115.315 80.1599L121.401 82.0195C123.512 82.6637 125.422 83.8392 126.949 85.4332C128.476 87.0273 129.567 88.9866 130.12 91.1235L130.84 93.9254C134.324 97.6321 135.486 102.503 134.581 108.417C135.345 110.095 134.994 112.212 134.644 114.331C134.312 116.347 133.98 118.366 134.606 120.01C135.953 123.544 138.124 126.762 140.236 130.01" fill="#CDAB3C"/>
<path d="M54.674 229.606H47.2236C43.3265 229.606 39.845 229.881 37.5469 231.358C36.4662 229.391 34.8768 227.751 32.9451 226.609C31.0133 225.466 28.8101 224.864 26.5659 224.865H19.1155C17.4701 224.865 15.8407 225.189 14.3205 225.818C12.8003 226.448 11.419 227.371 10.2554 228.534C9.0919 229.698 8.16894 231.079 7.53924 232.6C6.90955 234.12 6.58545 235.749 6.58545 237.395V237.395H67.2041V237.395C67.2041 230.474 61.5942 229.606 54.674 229.606Z" fill="#E6E6E6"/>
<path d="M209.104 237.733H240.928C240.767 231.796 236.32 230.622 228.741 230.622H221.291C213.711 230.622 209.264 231.796 209.104 237.733Z" fill="#E6E6E6"/>
<path d="M250 236.924H0V237.601H250V236.924Z" fill="#3F3D56"/>
<path d="M125.227 78.8391C130.703 78.8391 135.141 74.4005 135.141 68.9252C135.141 63.4499 130.703 59.0112 125.227 59.0112C119.752 59.0112 115.313 63.4499 115.313 68.9252C115.313 74.4005 119.752 78.8391 125.227 78.8391Z" fill="#9F616A"/>
<path d="M159.271 125.373L152.326 123.1L152.832 117.527L160.458 117.357C161.06 117.344 161.657 117.463 162.207 117.705C162.758 117.948 163.248 118.309 163.644 118.762C164.04 119.215 164.332 119.749 164.499 120.327C164.665 120.906 164.703 121.513 164.609 122.108C164.516 122.695 164.297 123.256 163.966 123.751C163.636 124.245 163.202 124.662 162.694 124.973C162.186 125.283 161.617 125.48 161.026 125.549C160.435 125.618 159.836 125.558 159.271 125.373Z" fill="#9F616A"/>
<path opacity="0.2" d="M145.833 141.349C142.962 140.002 136.428 136.609 126.989 129.731C113.991 120.257 117.297 97.125 117.297 97.125L134.644 114.331C134.312 116.347 133.98 118.367 134.606 120.01C137.443 127.449 143.926 133.491 145.833 141.349Z" fill="black"/>
<path d="M153.647 124.884C144.242 126.968 136.548 128.217 130.294 123.782C120.377 112.248 114.74 100.668 116.85 89.0066C117.046 87.9562 117.535 86.9828 118.261 86.1991C118.988 85.4155 119.921 84.8537 120.954 84.5788C122.309 84.2126 123.751 84.3604 125.004 84.9938C126.257 85.6272 127.231 86.7015 127.739 88.0099L135.232 113.122L154.642 116.879L153.647 124.884Z" fill="#F0C864"/>
<path d="M138.907 149.778C137.804 149.776 136.733 149.399 135.873 148.708C135.012 148.018 134.412 147.054 134.171 145.977L133.594 143.379L143.068 141.275L143.645 143.872C143.924 145.129 143.693 146.445 143.002 147.53C142.311 148.616 141.217 149.383 139.96 149.662C139.615 149.739 139.261 149.778 138.907 149.778ZM134.341 143.855L134.782 145.842C134.902 146.383 135.128 146.896 135.447 147.351C135.765 147.805 136.17 148.192 136.639 148.49C137.107 148.788 137.629 148.991 138.176 149.087C138.722 149.183 139.283 149.171 139.824 149.051C140.366 148.93 140.879 148.704 141.333 148.386C141.788 148.067 142.175 147.662 142.473 147.194C142.771 146.726 142.974 146.203 143.07 145.657C143.166 145.11 143.154 144.55 143.033 144.008L142.592 142.022L134.341 143.855Z" fill="#3F3D56"/>
<path d="M135.106 64.7814C135.106 64.7814 136.697 52.3954 123.711 56.4571C123.711 56.4571 114.437 54.7553 111.395 66.3564L108.316 78.5171L109.816 77.7002L110.516 79.2297L112.948 79.8456L113.989 77.7799L114.493 80.2885L134.413 82.2744C134.413 82.2744 125.491 76.998 125.35 67.5413L127.049 69.3372L135.106 64.7814Z" fill="#2F2E41"/>
<path d="M17.1019 230.791C17.1019 230.791 23.1977 164.415 17.1019 153.917C17.1019 153.917 42.8394 194.894 28.2774 232.823L17.1019 230.791Z" fill="#E6E6E6"/>
<path d="M22.0818 230.452C22.0818 230.452 41.6353 195.664 40.8649 188.434C40.8649 188.434 44.936 217.127 27.7004 234.297L22.0818 230.452Z" fill="#E6E6E6"/>
<path d="M218.6 233.511C218.6 233.511 222.911 186.569 218.6 179.145C218.6 179.145 236.801 208.124 226.503 234.948L218.6 233.511Z" fill="#E6E6E6"/>
<path d="M222.121 233.271C222.121 233.271 235.95 208.668 235.405 203.556C235.405 203.556 238.284 223.848 226.095 235.99L222.121 233.271Z" fill="#E6E6E6"/>
</g>
<defs>
<clipPath id="clip0">
<rect width="250" height="237.733" fill="white"/>
</clipPath>
</defs>
</svg>
