<svg width="250" height="236" viewBox="0 0 250 236" fill="none" xmlns="http://www.w3.org/2000/svg">
<g clip-path="url(#clip0)">
<path d="M50.0464 189.667C50.0975 194.907 47.0004 196.766 43.1582 196.804C43.069 196.805 42.9801 196.805 42.8917 196.803C42.7136 196.801 42.5373 196.795 42.3629 196.784C38.8928 196.573 36.1797 194.676 36.1321 189.803C36.0829 184.76 42.466 178.333 42.9448 177.858L42.9456 177.857C42.9638 177.839 42.9731 177.83 42.9731 177.83C42.9731 177.83 49.9953 184.428 50.0464 189.667Z" fill="#F0C864"/>
<path d="M159.881 189.372C159.933 194.612 156.835 196.472 152.993 196.509C152.904 196.51 152.815 196.51 152.727 196.509C152.549 196.507 152.372 196.5 152.198 196.49C148.728 196.278 146.015 194.381 145.967 189.508C145.918 184.465 152.301 178.038 152.78 177.563L152.781 177.563C152.799 177.544 152.808 177.535 152.808 177.535C152.808 177.535 159.83 184.133 159.881 189.372Z" fill="#F0C864"/>
<path d="M250 196.132H0V196.721H250V196.132Z" fill="#3F3D56"/>
<path d="M50.9423 97.7621C77.9386 97.7621 99.8233 75.8773 99.8233 48.881C99.8233 21.8848 77.9386 0 50.9423 0C23.9461 0 2.06128 21.8848 2.06128 48.881C2.06128 75.8773 23.9461 97.7621 50.9423 97.7621Z" fill="#F0C864"/>
<path d="M110.424 152.532H110.424C122.139 152.532 133.373 157.186 141.657 165.469C149.94 173.753 154.594 184.988 154.594 196.702V196.702H85.3945V177.562C85.3945 170.924 88.0316 164.557 92.7255 159.863C97.4194 155.169 103.786 152.532 110.424 152.532Z" fill="#3F3D56"/>
<path d="M206.39 94.2461C206.39 94.2461 208.405 120.441 205.584 121.247C202.763 122.053 192.688 128.098 176.568 126.486C176.568 126.486 160.851 134.949 163.269 126.889C165.687 118.829 176.568 120.844 176.568 120.844C176.568 120.844 195.912 116.814 196.718 113.993C197.524 111.172 194.3 99.485 195.509 99.082C196.718 98.6791 206.39 94.2461 206.39 94.2461Z" fill="#A0616A"/>
<path d="M182.251 139.917C182.251 139.917 183.822 177.76 186.24 183.402C188.254 188.101 189.429 203.426 189.766 208.414C189.833 209.415 189.867 209.999 189.867 209.999C189.867 209.999 196.315 209.999 196.718 208.387C197.121 206.775 198.33 189.044 196.718 183.402C195.106 177.76 198.774 138.708 198.774 138.708L182.251 139.917Z" fill="#2F2E41"/>
<path d="M191.479 207.984C191.479 207.984 187.449 209.193 186.643 210.805C185.837 212.417 172.538 215.238 176.568 217.253C180.598 219.268 192.688 215.641 192.688 215.641C192.688 215.641 199.136 215.238 198.733 212.82C198.33 210.402 196.862 207.423 196.862 207.423L191.479 207.984Z" fill="#2F2E41"/>
<path d="M202.763 212.323C202.763 212.323 198.733 213.532 197.927 215.144C197.121 216.756 183.822 219.577 187.852 221.592C191.882 223.607 203.972 219.98 203.972 219.98C203.972 219.98 210.42 219.577 210.017 217.159C209.614 214.741 208.146 211.762 208.146 211.762L202.763 212.323Z" fill="#2F2E41"/>
<path d="M185.837 138.978L191.479 148.65L200.895 182.278C200.895 182.278 199.942 213.129 201.151 213.129C202.36 213.129 208.808 215.144 209.211 213.129C209.551 211.427 214.065 195.123 211.815 184.27C210.352 177.411 209.41 170.451 208.999 163.45L208.002 144.62C208.002 144.62 212.032 137.366 207.599 136.157C203.166 134.948 185.837 138.978 185.837 138.978Z" fill="#2F2E41"/>
<path d="M191.076 76.9172C196.418 76.9172 200.748 72.587 200.748 67.2453C200.748 61.9037 196.418 57.5735 191.076 57.5735C185.734 57.5735 181.404 61.9037 181.404 67.2453C181.404 72.587 185.734 76.9172 191.076 76.9172Z" fill="#A0616A"/>
<path d="M189.867 73.6934C189.867 73.6934 191.479 86.5892 191.076 87.3952C190.673 88.2012 200.748 78.5293 200.748 78.5293C200.748 78.5293 197.121 72.8874 197.927 70.0664L189.867 73.6934Z" fill="#A0616A"/>
<path d="M212.435 86.5891C212.435 86.5891 201.151 78.5292 200.748 76.9172L192.285 84.1711L190.847 82.4594C190.847 82.4594 184.225 89.0071 184.225 91.828C184.225 94.649 183.822 103.112 185.031 105.53C186.24 107.948 181.404 138.575 181.404 138.575C181.404 138.575 185.434 142.202 185.837 142.605C186.24 143.008 202.36 140.187 202.36 140.187C202.36 140.187 210.42 139.381 210.42 138.172C210.42 136.963 208.002 118.829 208.808 113.993C209.614 109.157 212.435 86.5891 212.435 86.5891Z" fill="#CDAB3C"/>
<path d="M214.853 97.873C214.853 97.873 216.868 124.068 214.047 124.874C211.226 125.68 201.151 131.725 185.031 130.113C185.031 130.113 169.314 138.575 171.732 130.516C174.15 122.456 185.031 124.471 185.031 124.471C185.031 124.471 204.375 120.441 205.181 117.62C205.987 114.799 202.763 103.112 203.972 102.709C205.181 102.306 214.853 97.873 214.853 97.873Z" fill="#A0616A"/>
<path d="M186.944 62.4138C188.267 61.9432 189.725 61.7016 191.073 62.0917C192.981 62.6437 194.302 64.3161 195.727 65.6994C197.153 67.0827 199.151 68.3085 201.028 67.658C200.915 66.8446 201.128 66.0195 201.621 65.363C201.866 65.1182 202.047 64.817 202.148 64.4857C202.229 63.9677 201.793 63.5209 201.662 63.0133C201.433 62.1237 202.061 60.9058 201.289 60.4072C201.086 60.2756 200.828 60.2456 200.629 60.1067C199.849 59.5615 200.715 58.2056 200.2 57.4059C200.045 57.1993 199.845 57.0319 199.614 56.917C195.874 54.735 191.301 54.729 186.972 54.784C186.369 54.7916 185.53 55.091 185.7 55.6692C184.882 55.0819 183.811 55.9066 183.151 56.6677L181.801 58.2257C181.167 58.9032 180.613 59.652 180.152 60.457C179.739 61.2456 179.648 62.4578 180.469 62.8016C179.859 62.546 179.119 66.1598 181.931 65.5652C183.565 65.2198 185.167 63.0464 186.944 62.4138Z" fill="#2F2E41"/>
<path d="M205.987 87.3951L212.435 86.5891C212.435 86.5891 218.883 99.0819 215.256 101.097C211.629 103.112 202.36 104.724 202.36 103.918C202.36 103.112 205.987 87.3951 205.987 87.3951Z" fill="#CDAB3C"/>
<path d="M117.616 90.1362C117.616 90.1362 119.539 96.4563 118.44 98.3797C117.341 100.303 120.364 104.425 125.31 102.501C130.256 100.578 130.531 98.3797 130.531 98.3797C130.531 98.3797 128.607 95.3571 128.058 89.0371L117.616 90.1362Z" fill="#FFB9B9"/>
<path d="M92.4735 152.1C92.4735 152.1 82.5813 157.046 86.9778 163.641C89.5334 167.474 94.4099 174.928 98.0457 180.498C101.089 185.16 103.422 190.248 104.97 195.596L105.663 197.989L108.411 201.286L114.181 194.691C114.181 194.691 105.663 179.029 105.663 176.006C105.663 172.983 98.7935 163.366 98.7935 163.366L105.663 158.969C105.663 158.969 97.9691 150.176 92.4735 152.1Z" fill="#FFB9B9"/>
<path d="M124.623 169.136C124.623 169.136 124.898 176.83 125.173 179.853C125.399 182.347 123.195 189.329 123.959 197.096C124.426 202.122 124.37 207.182 123.793 212.196L122.7 222.169L130.943 222.994L133.691 200.462C133.691 200.462 135.34 184.524 134.515 179.303L134.79 168.312C134.79 168.312 128.745 166.114 124.623 169.136Z" fill="#FFB9B9"/>
<path d="M109.922 137.124C109.922 137.124 90.6874 149.489 90.4126 153.336C90.4126 153.336 101.404 152.237 101.679 161.855C101.679 161.855 108.273 159.382 109.922 158.832C111.571 158.282 120.364 152.512 120.364 152.512C120.364 152.512 123.936 155.26 123.936 159.656C123.936 164.053 123.661 171.747 123.936 172.296C124.211 172.846 130.531 164.877 135.752 171.747L139.324 152.787C139.324 152.787 140.423 141.246 138.225 140.422L122.837 134.651L109.922 137.124Z" fill="#2F2E41"/>
<path d="M121.601 93.5712C126.153 93.5712 129.844 89.8805 129.844 85.3277C129.844 80.775 126.153 77.0842 121.601 77.0842C117.048 77.0842 113.357 80.775 113.357 85.3277C113.357 89.8805 117.048 93.5712 121.601 93.5712Z" fill="#FFB9B9"/>
<path d="M119.54 99.7538C119.54 99.7538 128.838 102.21 130.097 97.5469C130.097 97.5469 141.522 99.7538 143.446 107.173C145.369 114.592 138.774 132.453 138.774 133.002C138.774 133.552 144.27 136.849 141.797 138.498C139.324 140.147 137.126 138.223 138.225 140.422C139.324 142.62 141.247 143.169 139.599 143.719C137.95 144.269 128.058 135.75 120.364 137.949C112.67 140.147 108.823 138.498 108.823 138.498L105.373 108.681C105.239 107.539 105.392 106.381 105.82 105.313C106.248 104.245 106.936 103.302 107.822 102.568C109.544 101.151 111.829 99.6195 114.044 99.2042C118.441 98.3799 118.623 97.9286 118.623 97.9286L119.54 99.7538Z" fill="#B3A3D4"/>
<path d="M110.746 147.841C110.746 147.841 113.22 161.855 116.517 159.931C119.814 158.008 115.693 147.841 115.693 147.841H110.746Z" fill="#FFB9B9"/>
<path d="M122.225 149.654C122.225 149.654 117.94 163.224 121.754 163.043C125.567 162.861 126.611 151.941 126.611 151.941L122.225 149.654Z" fill="#FFB9B9"/>
<path d="M107.037 197.439C107.037 197.439 105.114 195.241 104.014 198.263C102.915 201.286 99.8927 205.133 99.8927 205.133C99.8927 205.133 93.2979 212.552 97.9692 212.827C102.641 213.102 109.235 206.232 109.235 206.232L116.929 199.088C116.929 199.088 114.379 192.877 113.181 192.823C111.983 192.768 112.258 200.187 107.037 197.439Z" fill="#2F2E41"/>
<path d="M124.898 220.246C124.898 220.246 122.961 220.811 123.105 218.468C123.105 218.468 116.105 222.169 118.028 224.917C119.952 227.665 122.15 230.413 122.15 230.413C122.15 230.413 132.317 236.183 133.141 234.809C133.966 233.436 133.966 230.688 133.416 229.589C132.867 228.489 130.119 226.566 130.943 224.917C131.767 223.269 130.668 218.872 129.294 218.872C127.92 218.872 124.898 220.246 124.898 220.246Z" fill="#2F2E41"/>
<path d="M114.407 78.3425C114.407 78.3425 117.059 72.5969 122.141 73.9228C127.224 75.2487 130.097 77.2376 130.318 79.2265C130.539 81.2153 130.207 84.1987 130.207 84.1987C130.207 84.1987 129.655 80.1104 126.119 80.9943C122.583 81.8783 117.059 81.2153 117.059 81.2153L116.175 89.1709C116.175 89.1709 115.18 87.7344 114.075 88.6184C112.97 89.5023 110.871 80.1104 114.407 78.3425Z" fill="#2F2E41"/>
<path d="M138.775 106.898C138.775 106.898 132.18 124.759 132.729 126.957C133.279 129.156 132.729 129.43 131.905 129.98C131.081 130.529 128.882 136.3 128.882 136.3C128.882 136.3 127.508 139.597 126.409 140.422C125.31 141.246 125.31 143.444 125.31 143.444C125.31 143.444 122.562 146.192 123.112 146.742C123.661 147.291 123.661 148.116 122.562 148.94C121.463 149.764 120.364 150.863 120.914 151.138C121.463 151.413 125.31 154.436 126.409 154.161C127.508 153.886 125.86 152.787 127.234 152.237C128.608 151.688 129.432 150.863 128.882 150.589C128.333 150.314 126.684 150.314 128.333 149.764C129.981 149.215 135.752 145.643 137.675 141.246C139.599 136.85 148.815 110.25 143.245 106.513C143.245 106.513 140.973 103.601 138.775 106.898Z" fill="#B3A3D4"/>
<path d="M108.274 103.875L108.162 103.922C107.124 104.355 106.207 105.034 105.491 105.901C104.775 106.768 104.28 107.797 104.051 108.897C103.451 111.769 102.861 115.923 103.328 119.813C104.152 126.682 104.701 129.705 105.801 131.903C106.9 134.102 107.174 133.277 106.9 134.926C106.625 136.575 105.251 135.201 106.625 137.399C107.999 139.597 108.823 139.048 108.274 140.147C107.724 141.246 106.9 141.246 107.999 142.62C109.098 143.994 109.098 144.543 109.373 145.093C109.648 145.642 110.472 149.764 110.472 149.764C110.472 149.764 114.868 148.39 117.341 148.94C117.341 148.94 115.143 145.093 115.693 144.269C116.242 143.444 117.067 143.169 116.242 142.345C115.418 141.521 114.044 141.796 115.418 140.971C116.792 140.147 114.319 131.629 114.319 131.629L108.274 103.875Z" fill="#B3A3D4"/>
<path d="M55.6537 196.113H45.642L50.2062 41.5195L55.6537 196.113Z" fill="#3F3D56"/>
<path d="M51.0895 70.8187L61.8374 55.9482L50.9423 74.4995L49.7644 72.4382L51.0895 70.8187Z" fill="#3F3D56"/>
<path d="M49.9116 85.8363L39.1637 70.9658L50.0589 89.5171L51.2367 87.4558L49.9116 85.8363Z" fill="#3F3D56"/>
<path d="M55.4261 115.701L50.5808 118.498L52.0531 121.048L56.8984 118.251L55.4261 115.701Z" fill="#3F3D56"/>
</g>
<defs>
<clipPath id="clip0">
<rect width="250" height="235.021" fill="white"/>
</clipPath>
</defs>
</svg>
