<svg width="250" height="194" viewBox="0 0 250 194" fill="none" xmlns="http://www.w3.org/2000/svg">
<g clip-path="url(#clip0)">
<path d="M225.717 92.5588L221.993 109.307L218.97 122.894L216.561 133.73L213.54 147.317L203.669 191.705L81.3508 135.184L72.3597 131.028L60.9788 125.768L51.9844 121.613L41.1665 116.614L47.2993 107.691L52.3992 100.271L58.851 90.8845L63.9494 83.4697L121.322 0L182.1 53.8877L192.923 63.4834L201.553 71.1351L212.377 80.7307L225.717 92.5588Z" fill="#F2F2F2"/>
<path d="M47.9204 141.832C39.7411 137.272 34.6493 131.047 32.7861 123.33C31.4027 117.599 31.8002 111.151 33.9675 104.165C35.5742 99.0133 37.983 94.1475 41.1054 89.7466C57.6699 66.3 59.165 51.0221 57.5023 42.3342C55.6793 32.8082 49.7565 28.8519 49.6969 28.8131L49.9526 28.4199C50.0137 28.4597 56.0926 32.5078 57.9594 42.2272C59.0356 47.8304 58.5293 54.2195 56.4545 61.2171C53.8723 69.9258 48.837 79.6156 41.4885 90.0173C38.3946 94.378 36.0076 99.1992 34.4155 104.303C30.8609 115.763 30.358 131.505 48.1487 141.423L47.9204 141.832Z" fill="#2F2E41"/>
<path d="M51.8536 141.832C60.0329 137.272 65.1247 131.047 66.9879 123.33C68.3713 117.599 67.9738 111.151 65.8065 104.165C64.1998 99.0133 61.791 94.1475 58.6686 89.7466C42.1041 66.3 40.609 51.0221 42.2717 42.3342C44.0947 32.8082 50.0175 28.8519 50.0771 28.8131L49.8214 28.4199C49.7603 28.4597 43.6814 32.5078 41.8146 42.2272C40.7384 47.8304 41.2447 54.2195 43.3195 61.2171C45.9017 69.9258 50.937 79.6156 58.2855 90.0173C61.3794 94.378 63.7664 99.1992 65.3585 104.303C68.9131 115.763 69.416 131.505 51.6253 141.423L51.8536 141.832Z" fill="#2F2E41"/>
<path d="M230.126 122.134C221.946 117.574 216.855 111.349 214.991 103.632C213.608 97.9015 214.006 91.4534 216.173 84.4666C217.779 79.3153 220.188 74.4495 223.311 70.0486C239.875 46.602 241.37 31.3241 239.708 22.6362C237.885 13.1102 231.962 9.15394 231.902 9.11512L232.158 8.72192C232.219 8.76165 238.298 12.8098 240.165 22.5292C241.241 28.1324 240.735 34.5215 238.66 41.5191C236.078 50.2278 231.042 59.9176 223.694 70.3193C220.6 74.68 218.213 79.5012 216.621 84.6054C213.066 96.0646 212.563 111.806 230.354 121.725L230.126 122.134Z" fill="#2F2E41"/>
<path d="M234.059 122.134C242.238 117.574 247.33 111.349 249.193 103.632C250.576 97.9015 250.179 91.4534 248.012 84.4666C246.405 79.3153 243.996 74.4495 240.874 70.0486C224.309 46.602 222.814 31.3241 224.477 22.6362C226.3 13.1102 232.223 9.15394 232.282 9.11512L232.027 8.72192C231.965 8.76165 225.887 12.8098 224.02 22.5292C222.944 28.1324 223.45 34.5215 225.525 41.5191C228.107 50.2278 233.142 59.9176 240.491 70.3193C243.585 74.68 245.972 79.5012 247.564 84.6054C251.118 96.0646 251.621 111.806 233.83 121.725L234.059 122.134Z" fill="#2F2E41"/>
<path d="M109.701 70.3365C103.556 59.9526 91.3977 59.4686 91.3977 59.4686C91.3977 59.4686 79.5501 57.9536 71.9499 73.7684C64.866 88.5092 55.0892 102.742 70.376 106.192L73.1372 97.5982L74.8472 106.832C77.0237 106.989 79.2072 107.026 81.3878 106.944C97.7587 106.415 113.349 107.099 112.847 101.224C112.18 93.4147 115.615 80.3279 109.701 70.3365Z" fill="#2F2E41"/>
<path d="M84.4774 92.0693C86.595 96.7535 87.9303 102.337 88.7276 108.539L105.729 107.476C101.82 101.938 100.522 95.5807 102.01 88.3503L84.4774 92.0693Z" fill="#FFB8B8"/>
<path opacity="0.2" d="M84.4774 92.0693C86.595 96.7535 87.9303 102.337 88.7276 108.539L105.729 107.476C101.82 101.938 100.522 95.5807 102.01 88.3503L84.4774 92.0693Z" fill="black"/>
<path d="M5.59798 181.254C5.59798 181.254 -3.20105 185.967 1.26399 189.991C5.72904 194.015 11.6271 184.665 11.6271 184.665L5.59798 181.254Z" fill="#FFB8B8"/>
<path d="M113.166 167.51L113.029 173.949L112.736 187.862V187.864L112.65 191.893H56.3818L58.6687 179.195L58.671 179.186L60.7186 167.82L61.6325 162.73V162.728L107.854 156.353L113.166 167.51Z" fill="#2F2E41"/>
<path d="M113.166 167.511L113.028 173.95C96.6755 173.53 71.3282 169.583 60.7186 167.819L61.6324 162.729L107.854 156.354L113.166 167.511Z" fill="#3F3D56"/>
<path d="M92.7124 96.5852C100.048 96.5852 105.994 90.6386 105.994 83.3032C105.994 75.9678 100.048 70.0212 92.7124 70.0212C85.377 70.0212 79.4304 75.9678 79.4304 83.3032C79.4304 90.6386 85.377 96.5852 92.7124 96.5852Z" fill="#FFB8B8"/>
<path d="M118.213 174.683C118.213 174.683 119.807 189.028 110.244 187.965L108.65 173.62L100.15 165.12L76.2422 164.589L58.71 181.058C58.71 181.058 58.1788 164.057 60.3039 162.464C62.429 160.87 67.2105 157.151 67.2105 157.151V154.494L52.866 125.274C52.866 125.274 61.3664 107.742 68.2731 107.211L77.3048 106.679C77.3048 106.679 80.4925 105.085 80.4925 104.554C80.4925 104.023 79.9612 99.7727 82.6176 100.835C82.6176 100.835 82.8566 95.3843 85.6565 97.0472C85.6565 97.0472 94.4704 103.954 103.417 97.3501C103.417 97.3501 107.588 96.585 107.056 98.7101C106.525 100.835 107.056 102.429 108.119 102.429C109.182 102.429 113.963 104.023 113.963 105.085C113.963 105.314 114.308 107.513 114.85 110.823V110.829C116.821 122.894 121.401 149.713 121.401 149.713C121.401 149.713 126.182 156.62 118.213 174.683Z" fill="#CDAB3C"/>
<path d="M56.5855 122.618L52.8666 125.274L18.8647 168.839L0.80127 183.183C0.80127 183.183 10.8956 181.59 8.77046 190.09L70.9301 154.494L56.5855 122.618Z" fill="#CDAB3C"/>
<path d="M114.851 110.823V110.829C114.144 114.983 91.1187 114.117 87.931 114.117C84.7433 114.117 82.087 113.586 78.8993 111.461C75.7116 109.336 77.3054 106.679 77.3054 106.679C77.3054 106.679 80.0197 104.612 80.0197 104.081C80.0197 103.55 79.4884 99.2993 82.1448 100.362C82.1448 100.362 82.3838 94.911 85.1837 96.5739C85.1837 96.5739 94.4711 103.954 103.418 97.3501C103.418 97.3501 107.588 96.5851 107.057 98.7102C106.526 100.835 107.057 102.429 108.12 102.429C109.182 102.429 113.964 104.023 113.964 105.086C113.964 105.314 114.309 107.513 114.851 110.823Z" fill="#3F3D56"/>
<path d="M112.104 91.0067C112.104 91.0067 107.854 81.9749 103.603 86.2251C99.3531 90.4754 108.385 96.8507 108.385 96.8507L112.104 91.0067Z" fill="#FFB8B8"/>
<path d="M112.104 88.8816C112.104 88.8816 105.541 97.1757 103.51 97.8102C103.51 97.8102 109.448 121.29 116.886 127.665L121.136 149.447C121.136 149.447 139.199 142.01 134.949 129.79C134.907 129.668 134.864 129.546 134.822 129.426C131.273 119.25 126.376 109.595 120.26 100.721L112.104 88.8816Z" fill="#CDAB3C"/>
<path opacity="0.2" d="M108.597 113.481L121.667 149.447L116.886 127.665L108.597 113.481Z" fill="black"/>
<path d="M106.985 69.3355L94.9731 63.0437L78.3854 65.6176L74.9532 80.7753L83.4965 80.4468L85.8832 74.8779V80.3551L89.8251 80.2033L92.1131 71.3374L93.5431 80.7753L107.557 80.4894L106.985 69.3355Z" fill="#2F2E41"/>
<path d="M220.458 151.096L227.274 175.407C227.274 175.407 225.869 196.94 232.423 192.727C239.129 188.416 236.636 170.257 236.636 170.257L232.708 148.448L220.458 151.096Z" fill="#A0616A"/>
<path d="M224.1 82.8987L229.728 88.5266V115.342C229.728 115.342 233.039 120.308 232.377 121.632C231.715 122.956 231.052 122.956 231.715 123.95C232.377 124.943 233.039 125.605 232.377 126.267C231.715 126.929 231.715 128.584 232.377 129.246C233.039 129.909 234.363 130.902 233.37 131.895C232.377 132.888 231.052 132.226 232.377 135.868C233.701 139.509 236.018 140.502 235.356 141.827C234.694 143.151 234.694 146.461 234.694 146.461L220.459 148.448L217.479 111.038L224.1 82.8987Z" fill="#F0C864"/>
<path d="M235.356 146.13L218.803 146.792L219.465 153.745L234.032 151.096L235.356 146.13Z" fill="#3F3D56"/>
<path d="M189.836 48.3035L187.849 68.1666L208.044 71.1462L209.534 59.7249L211.023 48.3035H189.836Z" fill="#A0616A"/>
<path opacity="0.1" d="M189.836 48.1958L187.849 68.0592L208.044 71.0387L209.534 59.6173L211.023 48.1958H189.836Z" fill="black"/>
<path d="M145.971 142.82L157.227 166.987C157.227 166.987 159.213 178.243 162.193 178.574C165.172 178.905 168.152 166.987 168.152 166.987L164.179 160.697L159.544 142.82H145.971Z" fill="#A0616A"/>
<path d="M223.021 192.128H159.385C159.89 184.152 160.207 179.235 160.207 179.235L161.052 177.905L165.15 171.466L168.076 166.869L169.096 165.264L169.475 164.669L173.483 163.938L214.83 156.393C215.514 159.455 216.482 162.447 217.721 165.33C218.002 165.971 218.305 166.613 218.63 167.247C219.669 169.276 220.938 171.198 222.446 172.614C222.789 172.936 223.038 173.795 223.199 175.116C223.596 178.352 223.483 184.37 223.021 192.128Z" fill="#2F2E41"/>
<path d="M200.926 54.7589C209.702 54.7589 216.817 47.6444 216.817 38.8682C216.817 30.092 209.702 22.9775 200.926 22.9775C192.15 22.9775 185.036 30.092 185.036 38.8682C185.036 47.6444 192.15 54.7589 200.926 54.7589Z" fill="#A0616A"/>
<path d="M165.504 71.3118L163.186 69.9875C163.186 69.9875 152.924 76.9397 149.613 92.4993C146.302 108.059 143.985 112.032 143.985 112.032C143.985 112.032 140.674 112.694 142.992 115.011C145.309 117.328 145.309 116.997 143.323 118.322C141.337 119.646 140.012 116.997 141.337 119.646C142.661 122.294 144.316 121.632 142.992 123.287C141.668 124.943 139.35 124.943 140.674 126.267C141.999 127.591 139.35 130.571 141.006 131.895C142.661 133.219 143.323 133.55 143.323 135.868C143.313 137.22 143.537 138.564 143.985 139.84H161.2C161.2 139.84 157.889 133.55 158.883 132.226C159.876 130.902 160.207 129.578 159.545 128.915C158.883 128.253 156.896 129.578 158.883 127.922C160.869 126.267 161.531 127.26 160.869 125.274C160.207 123.287 158.883 124.281 160.207 123.287C161.531 122.294 162.524 122.625 161.862 121.632C161.2 120.639 159.876 120.639 161.2 119.977C162.524 119.315 163.517 119.977 163.186 118.322C162.855 116.666 162.524 117.328 163.186 116.666C163.848 116.004 170.801 93.4925 170.801 92.8304C170.801 92.1682 165.504 71.3118 165.504 71.3118Z" fill="#F0C864"/>
<path d="M162.193 138.516L141.337 139.84L146.633 144.806L161.2 145.137L162.193 138.516Z" fill="#3F3D56"/>
<path d="M168.152 163.345L163.848 171.29C163.848 171.29 176.759 172.946 181.394 174.601C186.029 176.256 197.947 178.574 197.947 178.574L200.926 166.987L168.152 163.345Z" fill="#3F3D56"/>
<path d="M205.892 166.987L209.534 177.912L224.1 174.932L222.445 164.669L205.892 166.987Z" fill="#3F3D56"/>
<path d="M211.851 60.0558C211.851 60.0558 210.858 59.3936 208.54 60.7179C206.223 62.0421 198.609 62.7042 194.967 58.7315C191.325 54.7589 188.677 51.4483 187.684 52.1104C186.691 52.7725 186.029 60.3868 186.029 60.3868L182.718 63.0352L163.186 69.9874L164.841 114.68L167.821 124.943C167.821 124.943 165.503 132.888 168.483 137.523C171.462 142.158 166.827 143.813 166.827 143.813C166.827 143.813 165.834 145.137 166.496 148.448C167.158 151.758 165.834 164.007 165.834 164.007C165.834 164.007 193.974 176.587 223.438 165.662L220.127 153.082L218.472 124.943C218.472 124.943 220.127 120.308 219.796 118.322C219.465 116.335 229.728 88.5265 229.728 88.5265C229.728 88.5265 228.073 74.6222 219.465 71.6427C210.858 68.6632 209.534 65.6837 209.534 65.6837C209.534 65.6837 213.506 61.38 211.851 60.0558Z" fill="#F0C864"/>
<path d="M184.925 40.9038C184.925 40.9038 183.275 38.4286 183.91 35.7629C184.289 34.2495 184.439 32.6877 184.354 31.1298C184.354 31.1298 185.687 26.814 187.02 24.4022C188.353 21.9904 187.718 20.9749 191.907 20.2133C196.096 19.4517 194.382 13.9935 205.426 19.896C205.798 20.4162 206.316 20.8144 206.915 21.0403C207.514 21.2662 208.166 21.3097 208.789 21.1653C211.074 20.7211 211.899 23.8945 211.899 23.8945C211.899 23.8945 213.422 23.0059 213.994 24.2753C214.565 25.5446 218.638 23.5134 218.638 32.0816C218.638 40.6497 214.003 48.3033 214.003 48.3033C214.003 48.3033 214.343 33.8906 206.79 32.4309C199.237 30.9711 191.114 26.7188 189.146 32.177C187.179 37.6352 184.925 40.9038 184.925 40.9038Z" fill="#2F2E41"/>
<path d="M214.169 44.3306C214.991 44.3306 215.658 43.4413 215.658 42.3442C215.658 41.2472 214.991 40.3579 214.169 40.3579C213.346 40.3579 212.679 41.2472 212.679 42.3442C212.679 43.4413 213.346 44.3306 214.169 44.3306Z" fill="#A0616A"/>
</g>
<defs>
<clipPath id="clip0">
<rect width="250" height="193.273" fill="white"/>
</clipPath>
</defs>
</svg>
