<svg width="250" height="196" viewBox="0 0 250 196" fill="none" xmlns="http://www.w3.org/2000/svg">
<g clip-path="url(#clip0)">
<path d="M224.476 187.397L247.13 153.708L224.523 191.021L224.57 194.812C222.916 194.824 221.278 194.797 219.657 194.729L220.78 146.001L220.75 145.625L220.791 145.553L220.898 140.948L196.09 104.929L220.869 137.502L220.957 138.475L221.806 101.659L200.378 64.3159L221.867 95.1918L221.643 18.9189L221.643 18.665L221.65 18.9147L223.073 79.028L242.602 54.61L223.137 84.2067L223.563 117.138L241.533 84.9983L223.629 121.979L223.866 140.29L250 95.5206L223.946 146.678L224.476 187.397Z" fill="#E6E6E6"/>
<path d="M173.968 190.957L184.943 174.637L173.99 192.713L174.013 194.549C173.212 194.556 172.419 194.542 171.633 194.509L172.177 170.903L172.162 170.721L172.182 170.685L172.234 168.455L160.216 151.005L172.22 166.785L172.263 167.257L172.674 149.421L162.293 131.33L172.704 146.288L172.595 109.337L172.595 109.214L172.599 109.335L173.288 138.457L182.749 126.627L173.319 140.966L173.525 156.92L182.231 141.349L173.557 159.265L173.672 168.136L186.333 146.447L173.711 171.231L173.968 190.957Z" fill="#E6E6E6"/>
<path d="M14.9192 191.057L25.894 174.736L14.9416 192.813L14.9645 194.649C14.1633 194.655 13.3699 194.642 12.5843 194.609L13.1286 171.003L13.1137 170.82L13.1338 170.785L13.1859 168.555L1.16724 151.105L13.1717 166.885L13.2143 167.357L13.6254 149.521L3.24456 131.429L13.655 146.388L13.5463 109.436L13.5466 109.313L13.5501 109.434L14.2392 138.557L23.7001 126.727L14.2702 141.066L14.4767 157.019L23.1827 141.449L14.5087 159.365L14.6236 168.236L27.2845 146.547L14.6621 171.331L14.9192 191.057Z" fill="#E6E6E6"/>
<path d="M148.358 106.06C148.358 106.06 144.287 94.5245 141.346 98.1435C138.406 101.762 145.87 107.869 145.87 107.869L148.358 106.06Z" fill="#FFB9B9"/>
<path d="M167.584 94.7507L165.135 95.6584C165.135 95.6584 163.965 100.858 164.417 101.762C164.87 102.667 165.096 101.989 164.417 103.798C163.739 105.608 161.703 110.357 161.477 111.036C161.251 111.714 148.358 106.738 148.358 104.25C148.358 104.25 145.644 107.417 144.287 108.096C144.287 108.096 159.215 118.952 161.251 120.309C163.286 121.667 164.417 120.988 166.227 119.405C168.036 117.821 175.726 104.703 175.726 104.703L167.584 94.7507Z" fill="#856FB3"/>
<path d="M162.871 183.75C162.871 183.75 163.097 186.238 163.549 186.464C164.001 186.69 167.394 192.345 163.549 193.476C159.704 194.607 157.442 194.154 156.537 194.607C155.633 195.059 139.8 195.964 139.574 193.476C139.348 190.988 147.264 190.535 147.264 190.535C147.264 190.535 154.502 185.785 155.633 183.297C156.764 180.809 162.871 183.75 162.871 183.75Z" fill="#2F2E41"/>
<path d="M206.939 179.569C206.939 179.569 212.368 188.843 211.011 189.974C209.653 191.105 196.437 195.226 194.499 195.402C192.011 195.628 190.202 193.593 192.237 192.462C194.273 191.331 198.57 186.581 198.57 184.998V180.926L206.939 179.569Z" fill="#2F2E41"/>
<path d="M212.142 118.952C212.142 118.952 216.892 124.833 209.428 134.333L196.988 150.165C196.988 150.165 204.678 162.379 204.904 168.712C205.13 175.046 206.713 173.688 207.166 176.403C207.618 179.117 209.654 177.76 208.071 179.795C206.487 181.831 200.607 183.641 198.797 182.057C198.175 181.488 197.689 180.785 197.375 180.002C197.062 179.219 196.93 178.375 196.988 177.534C196.988 176.629 193.821 171.427 193.595 169.843C193.369 168.26 185 155.368 185 155.368C185 155.368 182.286 147.677 185.452 143.38C188.619 139.082 190.711 132.987 190.711 132.987C190.711 132.987 181.381 144.285 174.822 146.999C174.822 146.999 172.334 147.451 172.786 148.582C173.238 149.713 172.786 150.392 172.107 151.523C171.429 152.653 168.525 174.476 166.942 177.869C165.359 181.262 166.037 183.297 164.228 184.428C162.418 185.559 154.276 184.654 154.276 183.524C154.276 182.393 155.407 179.452 156.085 177.869C156.764 176.286 160.346 149.261 159.894 146.094C159.441 142.928 160.12 138.63 163.513 136.821C166.905 135.011 184.095 120.309 185 120.309C185.905 120.309 212.142 118.952 212.142 118.952Z" fill="#2F2E41"/>
<path d="M166.679 83.4415C171.926 83.4415 176.179 79.1884 176.179 73.9418C176.179 68.6953 171.926 64.4421 166.679 64.4421C161.433 64.4421 157.18 68.6953 157.18 73.9418C157.18 79.1884 161.433 83.4415 166.679 83.4415Z" fill="#FFB9B9"/>
<path d="M174.369 74.8464C174.369 74.8464 177.309 80.0486 180.928 80.7272C184.547 81.4058 171.429 91.8102 171.429 91.8102C171.429 91.8102 168.262 81.8581 165.548 81.4058C162.834 80.9534 174.369 74.8464 174.369 74.8464Z" fill="#FFB9B9"/>
<path d="M165.096 96.1077C165.096 99.0481 173.917 107.417 173.917 107.417L182.286 114.429C182.286 114.429 182.512 116.917 183.417 117.143C184.321 117.369 185.452 117.369 184.547 118.726C183.643 120.083 181.381 123.023 183.417 123.476C184.03 123.569 184.649 123.628 185.269 123.652C185.812 123.684 186.45 123.713 187.167 123.74C188.84 123.799 190.935 123.838 193.203 123.822C193.848 123.82 194.504 123.812 195.171 123.799C203.723 123.63 213.63 122.646 212.82 119.405C211.463 113.976 212.368 112.167 209.428 109.226C206.487 106.286 201.737 96.1077 201.737 96.1077C201.737 96.1077 192.238 80.0487 184.321 80.0487L182.677 79.6167C181.913 79.4154 181.105 79.4595 180.367 79.7429C179.63 80.0262 179 80.5344 178.567 81.1954C176.979 83.6133 174.476 87.2458 173.012 88.4174C170.75 90.2269 170.397 88.9286 170.397 88.9286C170.397 88.9286 165.096 93.1673 165.096 96.1077Z" fill="#856FB3"/>
<path d="M185.226 130.488C185.226 130.488 178.666 140.666 182.738 142.475C186.809 144.285 189.071 131.845 189.071 131.845L185.226 130.488Z" fill="#FFB9B9"/>
<path d="M172.889 72.8688C172.524 72.8228 172.409 72.3628 172.348 72.0005C172.019 70.0602 170.573 68.2203 168.63 67.9071C167.888 67.8083 167.133 67.8692 166.416 68.0856C165.388 68.3676 164.424 68.8423 163.574 69.4845C163.158 69.8647 162.677 70.1668 162.154 70.3762C161.797 70.4809 160.284 71.1538 159.93 71.2677C159.152 71.518 158.509 72.3318 157.708 72.1707C156.942 72.0165 156.651 71.0914 156.528 70.3197C156.248 68.5616 157.254 65.9384 158.254 64.4658C159.014 63.3483 160.298 62.7052 161.583 62.2868C163.088 61.83 164.634 61.5227 166.199 61.3695C168.312 61.12 170.501 60.9876 172.526 61.6407C174.551 62.2938 176.395 63.8916 176.773 65.9854C176.852 66.4216 176.866 66.8683 176.963 67.3009C177.198 68.3562 177.896 69.2432 178.304 70.2448C178.598 70.9804 178.734 71.7694 178.704 72.5609C178.674 73.3524 178.479 74.1289 178.131 74.8404C177.567 75.9746 176.586 77.0645 176.798 78.3134L175.052 76.9371C174.8 76.7938 174.605 76.5683 174.499 76.2983C174.393 76.0283 174.382 75.7301 174.47 75.4534L174.723 73.2679C174.811 72.8719 174.772 72.4584 174.61 72.0863C173.834 70.7311 173.497 72.9455 172.889 72.8688Z" fill="#2F2E41"/>
<path opacity="0.1" d="M189.297 114.881L187.167 123.741C189.316 123.818 192.159 123.858 195.171 123.799C195.931 121.52 196.657 119.142 197.214 116.917C199.25 108.774 195.857 96.334 194.047 90.4533C192.238 84.5725 187.714 82.9893 187.714 82.9893C185.86 83.6415 184.108 84.5554 182.512 85.7035C179.572 87.7391 189.297 114.881 189.297 114.881Z" fill="black"/>
<path opacity="0.1" d="M187.487 114.429L185.269 123.652C185.811 123.684 186.449 123.713 187.166 123.741C188.84 123.799 190.934 123.838 193.203 123.822C194.02 121.4 194.809 118.844 195.404 116.464C197.44 108.322 194.047 95.8816 192.237 90.0008C190.428 84.1201 186.47 90.5663 186.47 90.5663C186.47 90.5663 188.053 86.7212 185.113 88.7568C182.172 90.7924 187.487 114.429 187.487 114.429Z" fill="black"/>
<path d="M186.809 82.5369C186.809 82.5369 191.333 84.1201 193.142 90.0009C194.952 95.8817 198.344 108.322 196.309 116.464C194.273 124.607 189.976 134.785 189.976 134.785C189.976 134.785 185.678 131.619 184.095 132.297L188.392 114.429C188.392 114.429 178.666 87.2867 181.607 85.2511C183.203 84.103 184.954 83.1891 186.809 82.5369Z" fill="#856FB3"/>
<path d="M143.187 100.821V106.689H143.767V101.691" fill="#3F3D56"/>
<path d="M143.767 99.5152V84.9419H143.187V98.6472" fill="#3F3D56"/>
<path d="M143.477 86.5342C147.415 86.5342 150.608 83.3414 150.608 79.4028C150.608 75.4643 147.415 72.2715 143.477 72.2715C139.538 72.2715 136.345 75.4643 136.345 79.4028C136.345 83.3414 139.538 86.5342 143.477 86.5342Z" fill="#F0C864"/>
<path d="M120.905 135.888H35.8657V194.485H120.905V135.888Z" fill="#E6E6E6"/>
<path d="M85.4863 51.0859H85.4862C78.2648 51.0859 72.4106 57.5827 72.4106 65.597V75.7791H75.5422L77.3552 72.0066L76.902 75.7791H97.0304L98.6786 72.3495L98.2666 75.7791H100.533V67.7843C100.533 58.5621 93.7963 51.0859 85.4863 51.0859Z" fill="#2F2E41"/>
<path d="M70.5035 117.611L62.4752 121.023L34.5768 143.703C33.551 144.963 24.14 164.376 27.1506 166.182C30.1613 167.988 40.9995 173.407 41.6016 169.795C42.2037 166.182 45.415 150.727 45.415 150.727L72.3099 126.642L70.5035 117.611Z" fill="#2F2E41"/>
<path d="M38.9928 166.784L35.5807 176.819C35.5807 176.819 39.1935 180.633 37.3871 183.844V194.883H34.5772L33.7744 189.063C33.7744 189.063 30.5739 194.81 28.9574 194.883C25.5687 195.037 18.858 196.243 18.6573 194.436C18.4566 192.63 23.739 190.869 23.739 190.869L29.3588 175.414L31.7673 165.981L38.9928 166.784Z" fill="#2F2E41"/>
<path d="M91.3774 115.001C91.3774 115.001 93.1837 132.664 87.9653 135.875C82.7469 139.086 59.6655 149.322 59.6655 149.322C59.6655 149.322 69.5002 158.555 67.4931 160.763C65.4861 162.971 56.4542 168.992 55.25 167.787C54.0457 166.583 40.5983 152.132 42.204 147.516C43.8096 142.9 66.0882 127.847 66.0882 127.847L68.6974 118.413L69.5002 110.787L77.9299 105.367L91.3774 115.001Z" fill="#2F2E41"/>
<path d="M82.1821 73.8791C86.8032 73.8791 90.5493 70.133 90.5493 65.5119C90.5493 60.8909 86.8032 57.1448 82.1821 57.1448C77.561 57.1448 73.8149 60.8909 73.8149 65.5119C73.8149 70.133 77.561 73.8791 82.1821 73.8791Z" fill="#A0616A"/>
<path d="M88.6678 68.939C88.6678 68.939 88.2664 76.5659 94.4883 78.9744C100.71 81.3828 79.0338 97.038 79.0338 97.038V79.5765C79.0338 79.5765 81.8437 76.5659 79.0338 71.9496L88.6678 68.939Z" fill="#A0616A"/>
<path d="M102.015 104.765L100.409 112.593L95.5924 139.488C95.5924 139.488 99.6066 150.928 94.1875 150.727C88.7684 150.527 91.3775 138.284 91.3775 138.284L94.1875 116.005V107.375L102.015 104.765Z" fill="#A0616A"/>
<path d="M67.4935 100.952L65.6872 107.977L57.4582 127.847C57.4582 127.847 51.8383 137.28 56.4546 137.079C61.0709 136.879 61.0709 127.847 61.0709 127.847L70.5041 111.79V102.758L67.4935 100.952Z" fill="#A0616A"/>
<path d="M66.0881 159.559L72.7114 165.781C72.7114 165.781 77.3277 164.777 79.1341 170.196C80.9404 175.615 82.1447 179.027 82.1447 179.027L79.7362 180.432L76.7256 176.217C76.7256 176.217 74.9192 183.844 73.1128 184.446C71.3064 185.048 62.2746 189.063 63.0774 184.446L67.493 178.024C67.493 178.024 68.0951 170.798 66.2888 170.196C64.4824 169.594 59.6654 163.573 59.6654 163.573L66.0881 159.559Z" fill="#2F2E41"/>
<path d="M79.8713 80.6309C79.7658 83.4544 82.4354 85.6737 85.1456 84.8752C85.6209 84.7469 86.0597 84.5096 86.4272 84.1821C86.7948 83.8546 87.0809 83.4459 87.2629 82.9885C88.2788 80.6766 90.1435 78.8431 92.472 77.8662C92.472 77.8662 104.524 80.58 104.323 85.397C104.122 90.2139 96.6962 97.6401 96.6962 97.6401C96.6962 97.6401 97.6997 124.334 92.2806 123.933C91.1117 122.538 90.2868 120.888 89.8721 119.116C87.1524 123.413 68.4762 120.438 70.6042 113.295C70.6042 113.295 68.9985 116.105 68.7978 114.901C68.5971 113.697 70.4035 84.1927 70.4035 84.1927L79.9746 77.8662L79.8713 80.6309Z" fill="#CDAB3C"/>
<path d="M102.777 83.458L102.911 83.5334C103.34 83.7742 103.697 84.1248 103.946 84.5493C104.194 84.9737 104.325 85.4568 104.325 85.9486L104.323 100.844C104.326 101.663 103.187 106.947 103.813 107.475C104.587 108.133 101.951 123.375 100.472 123.869C98.0632 124.671 90.1551 123.17 89.9544 121.765C89.7537 120.36 92.6819 105.468 93.284 105.468C93.7554 105.468 96.564 91.0753 98.8208 84.9217C98.9586 84.5449 99.1766 84.2026 99.4598 83.9185C99.7429 83.6343 100.084 83.415 100.461 83.2758C100.837 83.1366 101.239 83.0808 101.639 83.1123C102.039 83.1437 102.427 83.2617 102.777 83.458Z" fill="#CDAB3C"/>
<path d="M73.1127 83.4902L70.3028 84.2931L67.0915 98.1419C67.0915 98.1419 61.1046 114.651 62.3088 116.056C63.5131 117.461 71.0231 117.258 71.0231 117.258L73.1127 83.4902Z" fill="#CDAB3C"/>
<path d="M89.203 55.0832C88.5738 54.2383 87.7584 53.5496 86.82 53.0708C85.8817 52.5919 84.8456 52.3357 83.7922 52.322H83.5355C78.5859 52.322 74.5735 56.8008 74.5735 62.3257V62.3258H76.232L76.4998 60.2871L76.8925 62.3258H86.7289L87.553 60.601L87.3469 62.3258H89.282C90.185 66.8102 88.8876 71.2946 85.3897 75.7791H88.6861L90.3343 72.3295L89.9222 75.7791H96.2059L97.4421 67.845C97.4421 61.9032 93.9897 56.8646 89.203 55.0832Z" fill="#2F2E41"/>
<path d="M234.221 194.628H0V195.156H234.221V194.628Z" fill="#3F3D56"/>
<path d="M147.371 93.0012C145.659 94.3585 143.287 94.2186 143.287 94.2186C143.287 94.2186 143.692 91.8781 145.405 90.5208C147.117 89.1635 149.488 89.3034 149.488 89.3034C149.488 89.3034 149.083 91.6439 147.371 93.0012Z" fill="#856FB3"/>
<path d="M141.713 90.387C143.246 91.9441 143.361 94.3167 143.361 94.3167C143.361 94.3167 140.991 94.1646 139.458 92.6074C137.925 91.0503 137.81 88.6777 137.81 88.6777C137.81 88.6777 140.18 88.8298 141.713 90.387Z" fill="#856FB3"/>
<path d="M68.0703 9.30208C67.6241 9.30304 67.1784 9.33073 66.7355 9.385C65.5057 6.59349 63.4905 4.21995 60.9354 2.55359C58.3804 0.887233 55.3958 0 52.3454 0C49.295 0 46.3104 0.887233 43.7553 2.55359C41.2003 4.21995 39.1851 6.59349 37.9552 9.385C36.4738 9.20249 34.9707 9.32194 33.5367 9.73614C32.1027 10.1503 30.7674 10.8507 29.6114 11.795C28.4555 12.7393 27.5027 13.908 26.8107 15.2305C26.1187 16.553 25.7017 18.002 25.585 19.4901H79.1058C78.8835 16.7158 77.6245 14.1269 75.5795 12.239C73.5345 10.351 70.8535 9.30248 68.0703 9.30208Z" fill="#F2F2F2"/>
<path d="M119.18 26.8164C118.911 26.817 118.643 26.8337 118.377 26.8663C117.638 25.1879 116.426 23.7608 114.89 22.759C113.354 21.7571 111.559 21.2236 109.725 21.2236C107.891 21.2236 106.097 21.7571 104.56 22.759C103.024 23.7608 101.813 25.1879 101.073 26.8663C100.182 26.7566 99.2787 26.8284 98.4165 27.0774C97.5543 27.3264 96.7515 27.7475 96.0565 28.3153C95.3615 28.883 94.7887 29.5857 94.3726 30.3808C93.9565 31.176 93.7058 32.0472 93.6356 32.9419H125.815C125.681 31.2739 124.924 29.7173 123.694 28.5822C122.465 27.4471 120.853 26.8167 119.18 26.8164Z" fill="#F2F2F2"/>
</g>
<defs>
<clipPath id="clip0">
<rect width="250" height="195.419" fill="white"/>
</clipPath>
</defs>
</svg>
