<svg width="250" height="194" viewBox="0 0 250 194" fill="none" xmlns="http://www.w3.org/2000/svg">
<g clip-path="url(#clip0)">
<path d="M123.774 155.804C107.934 155.804 92.584 150.312 80.3397 140.263C68.0953 130.214 59.714 116.231 56.6239 100.696C53.5337 85.1601 55.9258 69.0338 63.3927 55.0643C70.8596 41.0948 82.9392 30.1465 97.5733 24.0849C112.207 18.0233 128.491 17.2233 143.648 21.8214C158.806 26.4195 171.901 36.1311 180.701 49.3014C189.501 62.4718 193.462 78.286 191.91 94.0496C190.357 109.813 183.387 124.551 172.186 135.751C165.843 142.129 158.299 147.185 149.989 150.627C141.679 154.069 132.768 155.829 123.774 155.804ZM123.774 19.319C86.2674 19.319 55.754 49.8324 55.754 87.3386C55.754 124.845 86.2674 155.358 123.774 155.358C161.28 155.358 191.793 124.845 191.793 87.3386C191.793 49.8324 161.28 19.319 123.774 19.319Z" fill="#3F3D56"/>
<path d="M129.541 148.244C128.273 152.931 123.93 155.834 123.93 155.834C123.93 155.834 121.643 151.137 122.911 146.451C124.179 141.764 128.521 138.861 128.521 138.861C128.521 138.861 130.808 143.557 129.541 148.244Z" fill="#F0C864"/>
<path d="M118.007 148.244C119.275 152.931 123.617 155.834 123.617 155.834C123.617 155.834 125.904 151.137 124.636 146.451C123.369 141.764 119.026 138.861 119.026 138.861C119.026 138.861 116.739 143.557 118.007 148.244Z" fill="#F0C864"/>
<path d="M119.869 147.237C123.348 150.624 123.773 155.83 123.773 155.83C123.773 155.83 118.558 155.545 115.079 152.158C111.6 148.772 111.175 143.565 111.175 143.565C111.175 143.565 116.39 143.85 119.869 147.237Z" fill="#3F3D56"/>
<path d="M127.677 147.237C124.198 150.624 123.773 155.83 123.773 155.83C123.773 155.83 128.989 155.545 132.468 152.158C135.947 148.772 136.372 143.565 136.372 143.565C136.372 143.565 131.156 143.85 127.677 147.237Z" fill="#3F3D56"/>
<path d="M118.007 26.6914C119.275 22.0047 123.617 19.1021 123.617 19.1021C123.617 19.1021 125.904 23.7982 124.636 28.4849C123.369 33.1717 119.026 36.0743 119.026 36.0743C119.026 36.0743 116.739 31.3782 118.007 26.6914Z" fill="#856FB3"/>
<path d="M129.541 26.6914C128.273 22.0047 123.93 19.1021 123.93 19.1021C123.93 19.1021 121.643 23.7982 122.911 28.4849C124.179 33.1717 128.521 36.0743 128.521 36.0743C128.521 36.0743 130.808 31.3782 129.541 26.6914Z" fill="#856FB3"/>
<path d="M127.677 27.6988C124.198 24.3121 123.773 19.106 123.773 19.106C123.773 19.106 128.989 19.3907 132.468 22.7774C135.947 26.1641 136.372 31.3702 136.372 31.3702C136.372 31.3702 131.156 31.0854 127.677 27.6988Z" fill="#3F3D56"/>
<path d="M119.869 27.6988C123.348 24.3121 123.773 19.106 123.773 19.106C123.773 19.106 118.558 19.3907 115.079 22.7774C111.6 26.1641 111.175 31.3702 111.175 31.3702C111.175 31.3702 116.39 31.0854 119.869 27.6988Z" fill="#3F3D56"/>
<path d="M91.9009 2.82715H3.26233V92.9624H91.9009V2.82715Z" fill="#FAF0D2"/>
<path d="M88.5514 5.11475H9.59021H5.11475V9.91002V89.5104H9.59021V9.91002H88.5514V5.11475Z" fill="#3F3D56"/>
<path opacity="0.3" d="M88.5514 5.11475H9.59021H5.11475V9.91002V89.5104H9.59021V9.91002H88.5514V5.11475Z" fill="black"/>
<path opacity="0.1" d="M75.7643 9.91016H72.2478H9.59033V21.4186H72.2478V89.5105H88.5515V9.91016H75.7643Z" fill="black"/>
<path d="M0 0V94.6254H93.6664V0H0ZM88.5515 89.5105H5.11489V5.11489H88.5515V89.5105Z" fill="#3F3D56"/>
<path d="M65.7336 98.114C65.7336 98.114 69.969 106.32 72.3515 108.173C74.7339 110.026 68.5131 112.276 68.5131 112.276L61.2334 100.894L65.7336 98.114Z" fill="#A0616A"/>
<path d="M40.0563 78.1279C40.0563 78.1279 59.7776 83.2899 61.4983 86.7312C63.2189 90.1725 68.5133 98.5111 68.5133 98.5111L60.7041 104.732L53.0274 93.2167L31.8501 83.687L40.0563 78.1279Z" fill="#2F2E41"/>
<path d="M67.8515 108.967C67.8515 108.967 65.9985 107.379 65.4691 108.438C64.9396 109.497 63.3513 114.923 63.3513 114.923C63.3513 114.923 65.6014 117.041 70.2339 115.718C70.2339 115.718 71.4252 114.791 73.2782 115.718C75.1312 116.644 82.0138 114.791 81.7491 111.747C81.4844 108.703 74.4694 108.967 74.4694 108.967C74.4694 108.967 71.5147 105.657 71.1391 106.915C70.7634 108.173 71.2928 108.306 71.2928 108.306C71.2928 108.306 68.9104 110.82 67.8515 108.967Z" fill="#2F2E41"/>
<path d="M45.2184 106.188L43.8948 117.306H50.3803C50.3803 117.306 49.8509 108.703 49.9832 107.644C50.1156 106.585 45.2184 106.188 45.2184 106.188Z" fill="#A0616A"/>
<path d="M48.9242 81.7017C48.9242 81.7017 52.4979 86.996 50.3801 87.3931C48.2624 87.7901 46.5417 81.7017 46.5417 81.7017H48.9242Z" fill="#A0616A"/>
<path d="M21.9232 81.1721C21.9232 81.1721 19.2761 88.9813 29.7324 91.099C40.1886 93.2167 43.3652 94.9374 43.3652 94.9374L44.6888 108.438L53.8215 108.967C53.8215 108.967 58.1893 88.4518 52.4979 85.8047C46.8065 83.1575 34.762 80.1133 34.762 80.1133L21.9232 81.1721Z" fill="#2F2E41"/>
<path d="M44.6888 115.585C44.6888 115.585 46.5418 114.659 46.8065 114.659C46.8065 114.659 47.9699 111.975 50.1016 112.258L54.748 119.027C54.748 119.027 61.763 124.056 56.8657 125.38C51.9685 126.703 48.1301 125.644 48.1301 125.644L46.1447 124.189C46.1447 124.189 46.4094 122.733 44.6888 122.997C44.6888 122.997 41.1151 121.541 41.2475 120.482C41.3798 119.424 44.1912 114.815 44.1912 114.815L44.6888 115.585Z" fill="#2F2E41"/>
<path d="M45.8137 55.4285C48.7377 55.4285 51.1081 53.0581 51.1081 50.1342C51.1081 47.2102 48.7377 44.8398 45.8137 44.8398C42.8898 44.8398 40.5194 47.2102 40.5194 50.1342C40.5194 53.0581 42.8898 55.4285 45.8137 55.4285Z" fill="#A0616A"/>
<path d="M41.5123 48.4797C41.5123 48.4797 36.7474 51.921 35.8209 52.0534C34.8944 52.1858 40.1887 58.6713 40.1887 58.6713C40.1887 58.6713 42.7035 54.5682 44.2918 54.0388C45.8801 53.5093 41.5123 48.4797 41.5123 48.4797Z" fill="#A0616A"/>
<path d="M37.9386 52.8476C37.9386 52.8476 35.9532 50.2004 34.762 50.2004C33.5708 50.2004 22.8498 51.3917 21.9233 60.2596C20.9968 69.1276 21.5262 84.6135 21.5262 84.6135C21.5262 84.6135 20.732 80.7751 29.6 82.3634C29.6 82.3634 40.1887 80.1133 42.0417 80.1133C43.8947 80.1133 44.6889 61.1862 44.6889 61.1862L41.6752 56.5137C41.6752 56.5137 40.321 59.0684 37.9386 52.8476Z" fill="#D0CDE1"/>
<path d="M42.7034 60.1272L44.6887 61.1861L47.0712 75.7455L50.3801 83.2899C50.3801 83.2899 46.8065 82.0596 46.5418 83.5351L41.2474 75.8778L42.7034 60.1272Z" fill="#D0CDE1"/>
<path d="M44.6235 45.7924L47.5037 46.1521C47.4488 46.7383 47.464 47.4644 47.9834 47.7416C48.2275 47.872 48.5373 47.8653 48.7537 48.0378C49.2741 48.4528 48.765 49.3451 49.0589 49.9424L49.9013 50.1653C50.0025 50.3546 50.1401 50.5221 50.3063 50.658C50.4725 50.794 50.6639 50.8957 50.8695 50.9574C51.0752 51.0191 51.291 51.0395 51.5045 51.0174C51.7181 50.9954 51.9252 50.9313 52.1139 50.8289C52.6799 50.489 52.9684 49.8396 53.2231 49.2304C53.5274 48.5026 53.8379 47.7207 53.6856 46.9467C53.522 46.1152 52.8426 45.4242 52.8118 44.5772C52.798 44.1983 52.878 43.726 52.5586 43.5217C52.4116 43.4527 52.2534 43.4107 52.0915 43.3978C51.3557 43.2441 50.946 42.4825 50.3973 41.9688C49.2473 40.8922 47.4813 40.9204 45.9088 41.0143C45.4587 41.016 45.012 41.0938 44.5879 41.2446C44.1085 41.485 43.6846 41.823 43.3434 42.2369C42.5001 43.1364 41.6791 44.0785 41.1227 45.1788C40.5664 46.2791 40.2924 47.5647 40.5947 48.76C40.5649 48.645 41.5658 47.8924 41.6904 47.7718C42.0816 47.393 42.1172 47.2121 42.3289 46.7762C42.8223 45.7602 43.5085 45.6531 44.6235 45.7924Z" fill="#2F2E41"/>
<path opacity="0.1" d="M36.1516 62.8406L36.5488 72.1057L42.4362 79.0101L37.0782 71.3116L36.1516 62.8406Z" fill="black"/>
<path opacity="0.1" d="M25.5631 65.3555L30.1956 76.0765L36.1516 80.9737L29.7984 76.6059L25.5631 65.3555Z" fill="black"/>
<path d="M50.7264 74.0452L53.5255 75.9706C53.6649 76.0805 53.7623 76.235 53.8012 76.4081C53.8401 76.5813 53.8183 76.7626 53.7393 76.9216L53.365 77.6941L53.4517 77.7538L53.0263 78.6316L52.9396 78.572L49.8564 84.9347C49.8243 85.0183 49.7739 85.0937 49.7088 85.1552C49.6438 85.2167 49.5657 85.2627 49.4804 85.29C49.3951 85.3172 49.3047 85.3249 49.216 85.3125C49.1274 85.3001 49.0426 85.2679 48.9681 85.2183L46.3376 83.4088C46.1773 83.2825 46.0653 83.1048 46.0206 82.9057C45.9758 82.7066 46.0009 82.4982 46.0917 82.3154L49.9845 74.282C50.0112 74.2122 50.0533 74.1492 50.1077 74.0979C50.162 74.0465 50.2273 74.008 50.2985 73.9853C50.3697 73.9625 50.4452 73.9561 50.5193 73.9665C50.5933 73.9769 50.6641 74.0037 50.7264 74.0452Z" fill="#3F3D56"/>
<path d="M46.3817 82.2452L49.3944 84.3176L53.3246 76.2072L50.3117 74.1348L46.3817 82.2452Z" fill="white"/>
<path d="M45.0738 80.4597C45.0738 80.4597 50.324 84.0979 48.4944 85.2359C46.6647 86.3738 42.8535 81.3236 42.8535 81.3236L45.0738 80.4597Z" fill="#A0616A"/>
<path d="M29.4676 53.5093C29.4676 53.5093 22.5849 55.4947 24.5703 61.5831C25.0492 63.0518 25.6283 64.6283 26.2313 66.1752C28.128 71.0408 30.2617 75.6131 30.2617 75.6131L36.2442 81.0222L44.2917 83.2898L45.2182 82.4957C45.2182 82.4957 45.4829 79.9809 44.2917 79.7162C43.1004 79.4514 41.2474 78.3926 41.2474 78.3926L36.4825 71.3776C36.4825 71.3776 36.3502 53.9064 29.4676 53.5093Z" fill="#D0CDE1"/>
<path d="M160.287 157.763H246.815V69.774L160.287 69.774V157.763Z" fill="#D1C1F2"/>
<path d="M163.557 72.0073H240.638H245.007V76.6884V154.394H240.638V76.6884H163.557V72.0073Z" fill="#3F3D56"/>
<path opacity="0.3" d="M163.557 72.0073H240.638H245.007V76.6884V154.394H240.638V76.6884H163.557V72.0073Z" fill="black"/>
<path opacity="0.1" d="M176.04 76.6885H179.473H240.638V87.9229H179.473V154.394H163.557V76.6885H176.04Z" fill="black"/>
<path d="M158.564 67.0142V159.387H250V67.0142H158.564ZM163.557 72.0073H245.007V154.393H163.557V72.0073Z" fill="#3F3D56"/>
<path d="M211.992 110.564C210.023 107.237 206.128 107.082 206.128 107.082C206.128 107.082 202.332 106.597 199.897 111.664C197.627 116.386 194.495 120.946 199.393 122.052L200.277 119.299L200.825 122.257C201.523 122.307 202.222 122.319 202.921 122.293C208.166 122.123 213.161 122.342 213 120.46C212.787 117.958 213.887 113.765 211.992 110.564Z" fill="#2F2E41"/>
<path d="M197.801 137.415L197.386 144.872L209.537 146.114L209.952 138.382L205.809 135.759L197.801 137.415Z" fill="#A0616A"/>
<path d="M230.456 153.777C230.092 150.255 215.626 148.656 212.149 148.322L210.849 147.564L210.435 143.146C210.435 143.146 197.594 142.041 196.627 141.903C195.661 141.765 194.832 143.56 194.832 143.974C194.832 144.273 194.652 146.411 193.926 147.678C192.36 148.937 187.583 152.898 187.583 154.399C187.583 156.194 191.38 178.769 191.38 178.769L191.795 183.464L195.661 184.154L195.385 169.518C195.385 169.518 196.765 161.096 194.832 158.748V157.782C194.832 157.782 200.502 156.304 202.5 154.696C203.079 154.572 204.707 154.265 205.605 154.532C205.728 154.604 205.871 154.679 206.028 154.755C206.049 154.773 206.068 154.792 206.086 154.813L206.101 154.789C208.686 155.999 215.317 157.525 218.029 157.091C220.121 156.772 222.259 157.161 224.105 158.196C222.586 160.129 223.69 165.652 223.69 165.652L223.829 177.527L225.762 179.874H228.385V173.384C228.385 173.384 230.87 157.782 230.456 153.777Z" fill="#2F2E41"/>
<path d="M204.912 119.672C207.428 119.672 209.468 117.632 209.468 115.116C209.468 112.599 207.428 110.559 204.912 110.559C202.395 110.559 200.355 112.599 200.355 115.116C200.355 117.632 202.395 119.672 204.912 119.672Z" fill="#A0616A"/>
<path d="M202.15 118.016C202.15 118.016 202.841 121.053 201.874 121.329C201.109 121.583 200.37 121.906 199.665 122.296L198.56 125.886V129.476L211.954 130.995L212.368 129.752V127.957L210.849 125.196L210.159 124.505C210.159 124.505 207.121 121.191 207.811 118.016H202.15Z" fill="#A0616A"/>
<path d="M214.094 128.993C214.094 128.993 214.508 133.825 214.094 136.035C213.679 138.244 213.817 141.558 213.817 141.558L210.78 141.005V133.549L211.47 129.545L214.094 128.993Z" fill="#A0616A"/>
<path d="M206.605 109.915C208.16 109.915 209.422 108.654 209.422 107.099C209.422 105.543 208.16 104.282 206.605 104.282C205.049 104.282 203.788 105.543 203.788 107.099C203.788 108.654 205.049 109.915 206.605 109.915Z" fill="#2F2E41"/>
<path d="M203.492 106.358C203.492 105.662 203.749 104.991 204.215 104.474C204.68 103.957 205.32 103.63 206.012 103.557C205.913 103.546 205.814 103.541 205.715 103.541C204.968 103.541 204.252 103.838 203.724 104.366C203.196 104.894 202.899 105.611 202.899 106.358C202.899 107.105 203.196 107.821 203.724 108.349C204.252 108.877 204.968 109.174 205.715 109.174C205.814 109.174 205.913 109.169 206.012 109.158C205.32 109.085 204.68 108.758 204.215 108.241C203.749 107.724 203.492 107.053 203.492 106.358Z" fill="#2F2E41"/>
<path d="M211.122 110.243L207.273 108.228L201.959 109.052L200.859 113.909L203.596 113.803L204.361 112.019V113.774L205.624 113.725L206.357 110.885L206.815 113.909L211.305 113.817L211.122 110.243Z" fill="#2F2E41"/>
<path d="M195.446 178.827C195.446 178.827 197.405 179.749 197.982 180.095C198.558 180.441 200.863 179.749 200.402 181.824C199.941 183.898 197.982 185.858 197.982 185.858C197.982 185.858 197.06 186.895 197.06 187.586C197.06 188.278 194.754 193.58 191.988 193.349C189.222 193.119 189.683 190.353 189.683 190.353L190.26 187.356C190.26 187.356 191.412 182.285 191.643 182.4C191.873 182.515 192.449 183.322 192.449 183.322C192.449 183.322 195.331 182.17 195.446 178.827Z" fill="#D0CDE1"/>
<path d="M224.181 175.375C224.181 175.375 222.222 176.297 221.646 176.643C221.069 176.989 218.764 176.297 219.225 178.372C219.686 180.446 221.646 182.406 221.646 182.406C221.646 182.406 222.568 183.443 222.568 184.135C222.568 184.826 224.873 190.128 227.639 189.897C230.405 189.667 229.944 186.901 229.944 186.901L229.368 183.904C229.368 183.904 228.215 178.833 227.985 178.948C227.754 179.063 227.178 179.87 227.178 179.87C227.178 179.87 224.297 178.718 224.181 175.375Z" fill="#D0CDE1"/>
<path d="M208.99 142.524V141.428H208.746V140.941C208.746 140.829 208.724 140.718 208.681 140.615C208.638 140.511 208.576 140.417 208.496 140.338C208.417 140.259 208.323 140.196 208.22 140.153C208.116 140.11 208.006 140.088 207.894 140.088H204.972C204.746 140.088 204.529 140.178 204.369 140.338C204.209 140.498 204.119 140.715 204.119 140.941V149.098C204.119 149.324 204.209 149.541 204.369 149.701C204.529 149.861 204.746 149.951 204.972 149.951H207.894C208.12 149.951 208.337 149.861 208.496 149.701C208.656 149.541 208.746 149.324 208.746 149.098V143.985H208.99V142.889H208.746V142.524H208.99Z" fill="#D0CDE1"/>
<path d="M206.554 143.01C206.823 143.01 207.041 142.792 207.041 142.523C207.041 142.254 206.823 142.036 206.554 142.036C206.285 142.036 206.067 142.254 206.067 142.523C206.067 142.792 206.285 143.01 206.554 143.01Z" fill="#3F3D56"/>
<path d="M194.349 126.645L191.863 136.863C191.863 136.863 190.897 139.072 193.106 140.453C195.315 141.834 200.286 143.629 200.286 143.629C200.286 143.629 204.704 149.704 205.257 147.219C205.809 144.733 201.943 141.558 201.943 141.558L195.177 137.277L197.801 130.097L194.349 126.645Z" fill="#A0616A"/>
<path d="M212.299 139.487C212.299 139.487 214.37 139.21 214.232 141.558C214.094 143.905 211.333 144.181 211.333 144.181C211.333 144.181 210.09 149.428 208.295 148.462C206.5 147.495 209.261 142.248 209.261 142.248L211.609 140.453L212.299 139.487Z" fill="#A0616A"/>
<path d="M198.974 125.748L201.184 121.191L196.765 122.71C196.765 122.71 194.28 123.953 194.142 126.853C194.004 129.752 197.317 131.271 197.317 131.271C197.317 131.271 197.87 135.413 197.594 135.966C197.317 136.518 197.594 138.727 197.594 138.727C197.594 138.727 202.91 137.277 205.533 139.072C208.156 140.867 210.297 139.832 210.297 139.832C210.297 139.832 210.159 136.38 211.263 135.828C212.368 135.275 213.334 132.652 212.368 130.995C212.368 130.995 214.577 131.271 214.439 129.2C214.301 127.129 213.196 125.334 211.401 124.505C209.606 123.677 209.408 123.544 209.408 123.544L211.954 128.233V129.476C211.954 129.476 207.447 126.599 202.988 126.36C201.534 126.293 200.105 126.763 198.974 127.681L198.974 127.681V125.748Z" fill="#2F2E41"/>
</g>
<defs>
<clipPath id="clip0">
<rect width="250" height="193.357" fill="white"/>
</clipPath>
</defs>
</svg>
