<svg width="250" height="159" viewBox="0 0 250 159" fill="none" xmlns="http://www.w3.org/2000/svg">
<g clip-path="url(#clip0)">
<path d="M205.185 127.122H19.494V127.566H205.185V127.122Z" fill="#3F3D56"/>
<path d="M168.801 0.221924H92.0402V55.0197H168.801V0.221924Z" fill="#4B3081"/>
<path d="M1.52393 88.0759C1.52393 88.0759 31.0304 0.665619 121.547 54.576C212.063 108.486 248.669 91.8474 248.669 91.8474" fill="#F2F2F2"/>
<path d="M176.345 141.986H93.3713V142.43H176.345V141.986Z" fill="#3F3D56"/>
<path d="M223.349 134.665H156.936C156.936 134.665 155.59 114.921 163.555 114.696C171.52 114.472 170.623 123.447 180.607 111.106C190.591 98.7663 202.707 99.4394 204.278 106.731C205.848 114.023 201.249 119.857 209.663 118.062C218.076 116.267 230.192 120.979 223.349 134.665Z" fill="#856FB3"/>
<path d="M189.021 134.669L188.797 134.66C189.32 121.661 192.042 113.309 194.234 108.591C196.614 103.469 198.907 101.395 198.93 101.375L199.079 101.542C199.057 101.563 196.79 103.616 194.43 108.703C192.25 113.401 189.542 121.719 189.021 134.669Z" fill="#F2F2F2"/>
<path d="M213.058 134.696L212.843 134.634C215.436 125.732 221.544 120.111 221.605 120.055L221.756 120.221C221.695 120.277 215.633 125.857 213.058 134.696Z" fill="#F2F2F2"/>
<path d="M167.397 134.68L167.174 134.649C168.054 128.303 166.465 123.379 164.976 120.366C163.365 117.104 161.526 115.322 161.508 115.305L161.663 115.143C161.681 115.161 163.549 116.97 165.178 120.267C166.68 123.308 168.284 128.278 167.397 134.68Z" fill="#F2F2F2"/>
<path d="M66.4986 144.648H0.085919C0.085919 144.648 -1.26029 124.904 6.70475 124.68C14.6698 124.455 13.7723 133.43 23.7566 121.09C33.741 108.75 45.8568 109.423 47.4274 116.715C48.9979 124.007 44.3984 129.84 52.8122 128.045C61.226 126.25 73.3418 130.962 66.4986 144.648Z" fill="#856FB3"/>
<path d="M32.1709 144.653L31.9468 144.644C32.4695 131.645 35.1921 123.292 37.3839 118.575C39.7637 113.452 42.057 111.379 42.0799 111.358L42.229 111.526C42.2065 111.546 39.9399 113.599 37.5791 118.687C35.3994 123.385 32.6917 131.703 32.1709 144.653Z" fill="#F2F2F2"/>
<path d="M56.2076 144.68L55.9922 144.617C58.5858 135.715 64.6933 130.094 64.7548 130.039L64.9055 130.205C64.8446 130.26 58.7828 135.841 56.2076 144.68Z" fill="#F2F2F2"/>
<path d="M10.5463 144.664L10.324 144.633C11.2039 138.287 9.61445 133.363 8.12604 130.35C6.51444 127.088 4.67563 125.306 4.65723 125.288L4.81246 125.126C4.83114 125.144 6.69839 126.953 8.32719 130.251C9.82949 133.292 11.434 138.261 10.5463 144.664Z" fill="#F2F2F2"/>
<path d="M250 157.738H5.73914V158.182H250V157.738Z" fill="#3F3D56"/>
<path d="M207.668 128.054V132.037L210.988 132.258L210.766 127.611L207.668 128.054Z" fill="#A0616A"/>
<path d="M208.332 129.824L206.119 129.382C206.119 129.382 203.021 134.914 201.029 135.356C199.287 135.744 195.172 137.147 196.691 139.123C196.919 139.407 197.214 139.629 197.55 139.769C197.885 139.909 198.251 139.963 198.613 139.927L208.11 139.118C208.11 139.118 211.872 139.339 211.872 137.127V129.824H208.332Z" fill="#2F2E41"/>
<path d="M207.945 107.435L206.992 129.041L213.029 130.63L207.945 107.435Z" fill="#2F2E41"/>
<path d="M210.169 136.667V142.387L214.935 142.704L214.618 136.032L210.169 136.667Z" fill="#A0616A"/>
<path d="M200.319 79.7909L202.861 83.6038L208.58 117.92L209.533 138.574H219.066L216.842 88.37C216.842 88.37 221.29 82.9683 218.113 77.5667L200.319 79.7909Z" fill="#2F2E41"/>
<path d="M211.123 139.209L207.945 138.574C207.945 138.574 203.497 146.517 200.637 147.153C198.186 147.698 192.466 149.643 194.284 152.389C194.601 152.847 195.035 153.211 195.54 153.445C196.046 153.678 196.605 153.772 197.159 153.716L210.805 152.554C210.805 152.554 216.206 152.872 216.206 149.695V139.209H211.123Z" fill="#2F2E41"/>
<path d="M211.44 36.2598C215.125 36.2598 218.113 33.2724 218.113 29.5872C218.113 25.902 215.125 22.9146 211.44 22.9146C207.755 22.9146 204.768 25.902 204.768 29.5872C204.768 33.2724 207.755 36.2598 211.44 36.2598Z" fill="#A0616A"/>
<path d="M207.628 33.0824V42.6147C207.628 42.9325 214.936 41.9792 214.936 41.9792C214.936 41.9792 215.253 33.0824 215.253 32.1292L207.628 33.0824Z" fill="#A0616A"/>
<path d="M215.571 37.2131C215.571 37.2131 211.44 36.2598 204.132 41.026H202.861L202.543 48.3341C202.543 48.3341 198.095 53.1003 198.73 55.0068C198.73 55.0068 193.329 61.3617 195.553 63.9036C195.553 63.9036 190.469 69.9408 192.693 72.4827C192.693 72.4827 187.292 79.4731 190.469 80.4264C190.469 80.4264 197.459 80.4264 201.272 81.0619C205.085 81.6973 220.973 78.2022 220.973 78.2022C220.973 78.2022 221.29 69.9408 220.973 69.9408H220.655C220.655 69.9408 221.926 62.3149 221.29 61.9972C221.29 61.9972 221.608 53.4181 220.655 53.1003L215.571 37.2131Z" fill="#3F3D56"/>
<path d="M214.552 44.5308C213.386 44.6895 212.28 45.14 211.334 45.8404C210.389 46.5408 209.637 47.4685 209.146 48.5375C208.227 50.5618 207.92 52.8105 208.263 55.0069C209.216 61.3618 211.44 63.2683 211.44 63.2683C211.44 63.2683 209.216 64.2215 209.852 65.1747C210.487 66.128 209.216 66.128 209.216 66.128C209.216 66.128 209.216 66.4457 208.263 67.0812C207.31 67.7167 206.674 67.3989 206.356 67.7167C206.039 68.0344 204.768 67.7167 204.768 67.7167C204.768 67.7167 200.955 74.3893 204.768 75.0248C208.581 75.6603 210.169 72.4829 211.758 72.8006C213.347 73.1183 220.973 70.5764 220.337 64.5392C219.702 58.5021 216.842 44.2036 214.618 44.5213L214.552 44.5308Z" fill="#D0CDE1"/>
<path d="M205.545 23.2292C205.708 22.5731 206.022 21.9644 206.464 21.4523C206.905 20.9402 207.46 20.539 208.085 20.2811C209.335 19.778 211.143 18.3302 212.277 19.0588C212.783 19.384 213.218 19.8156 213.744 20.1075C214.595 20.5791 215.6 20.6452 216.56 20.8027C218.973 21.1988 220.994 23.8614 222.68 25.6323C224.366 27.4031 225.339 29.9013 225.036 32.3276C224.837 33.9282 224.117 35.4101 223.641 36.9512C223.165 38.4924 222.952 40.2424 223.723 41.6591C224.608 43.2839 226.52 44.0293 227.811 45.3544C228.708 46.3172 229.274 47.5417 229.427 48.8491C229.579 50.1564 229.309 51.4781 228.656 52.6212C228.368 53.1014 228.007 53.5522 227.856 54.0915C227.705 54.6308 227.839 55.3085 228.336 55.5675C228.563 55.6562 228.797 55.7235 229.037 55.7686C229.833 56.009 230.318 56.8258 230.53 57.6298C230.742 58.4338 230.761 59.2835 231.022 60.0728C231.661 62.0006 233.568 63.167 235.335 64.1684C231.844 64.0744 228.298 63.9865 224.921 64.8711C223.469 65.2514 221.793 65.7726 220.579 64.8908C219.747 64.2863 219.429 63.1834 219.406 62.155C219.382 61.1265 219.596 60.1037 219.574 59.0753C219.527 56.8524 218.335 54.7235 216.578 53.3615C215.538 52.5555 214.315 51.9972 213.331 51.1229C212.495 50.3631 211.866 49.4035 211.502 48.334C211.139 47.2646 211.053 46.1203 211.252 45.0085C211.404 44.2103 211.707 43.4255 211.662 42.6141C211.573 41.0131 210.178 39.7604 209.879 38.185C209.565 36.5301 210.507 34.9188 210.769 33.2548C210.89 32.2419 210.872 31.2173 210.715 30.2093C210.518 28.5369 210.22 26.8023 209.229 25.4411C208.296 24.1608 207.005 23.311 205.424 23.2174C204.915 23.1872 205.628 22.7503 205.424 23.2174" fill="#2F2E41"/>
<path d="M210.963 31.3347C211.314 31.3347 211.599 30.7656 211.599 30.0637C211.599 29.3618 211.314 28.7927 210.963 28.7927C210.612 28.7927 210.328 29.3618 210.328 30.0637C210.328 30.7656 210.612 31.3347 210.963 31.3347Z" fill="#A0616A"/>
<path d="M32.0289 113.256L34.4693 137.66L38.6845 136.995L40.4594 113.7L32.0289 113.256Z" fill="#FFB8B8"/>
<path d="M39.3499 134.554L33.5817 135.442L34.2473 142.541C34.2473 142.541 32.2506 143.65 33.5817 147.2C34.9128 150.75 34.9128 151.637 34.9128 151.637L39.4826 151.195C41.2535 151.023 45.5098 149.427 46.1164 147.754C46.3681 147.061 43.6822 146.916 43.1214 146.756C41.5684 146.312 39.3499 134.554 39.3499 134.554Z" fill="#2F2E41"/>
<path d="M53.7705 112.369L56.2109 136.773L60.4261 136.107L62.2009 112.812L53.7705 112.369Z" fill="#FFB8B8"/>
<path d="M49.888 33.7217C53.6863 33.7217 56.7654 30.6426 56.7654 26.8443C56.7654 23.0459 53.6863 19.9668 49.888 19.9668C46.0896 19.9668 43.0105 23.0459 43.0105 26.8443C43.0105 30.6426 46.0896 33.7217 49.888 33.7217Z" fill="#FFB8B8"/>
<path d="M51.7738 31.614C51.7738 31.614 49.9989 36.273 51.7738 37.8259C53.5486 39.3789 40.0155 39.3789 40.0155 39.3789L45.5618 29.3955L51.7738 31.614Z" fill="#FFB8B8"/>
<path d="M64.8631 113.922C61.979 119.024 33.8036 115.475 33.8036 115.475L28.9228 112.369L26.9261 111.26C26.9261 111.26 28.2573 89.9616 30.6977 76.8723C33.138 63.7829 39.3499 62.8955 39.3499 62.8955L39.3721 62.6382L39.5718 60.2333C39.5718 60.2333 39.3876 60.0358 39.0704 59.6786C37.0937 57.4446 29.9944 48.9809 31.1414 43.8161C32.4725 37.8261 42.4559 34.942 48.4459 34.7201C54.436 34.4983 59.5386 39.8228 59.5386 39.8228L58.6734 43.4501L54.8797 59.3459L54.822 59.6786L54.2141 63.1174C55.33 63.1861 56.0511 63.4324 56.5147 63.7363C57.5286 64.3975 57.3201 65.3359 57.3201 65.3359L60.7167 87.2195L64.8631 113.922Z" fill="#3F3D56"/>
<path d="M26.9259 84.6372C26.9259 84.6372 25.9454 94.3084 28.3214 94.5754C30.6974 94.8424 30.0319 84.6372 30.0319 84.6372H26.9259Z" fill="#FFB8B8"/>
<path d="M34.2473 41.1539C34.2473 41.1539 30.4758 40.932 29.8103 45.1472C29.1447 49.3624 28.4792 65.5578 28.4792 65.5578L24.7076 85.7464L32.4725 86.6338L37.5751 56.0181L34.2473 41.1539Z" fill="#3F3D56"/>
<path d="M66.416 85.0808C66.416 85.0808 67.969 93.955 65.5286 94.1768C63.0882 94.3987 62.2008 85.5245 62.2008 85.5245L66.416 85.0808Z" fill="#FFB8B8"/>
<path d="M48.0638 16.5456C47.4563 16.5128 46.847 16.5539 46.2494 16.6682C45.5922 16.8418 44.9611 17.1022 44.3727 17.4426C41.6243 18.902 38.9073 20.8037 37.6173 23.6355C36.5581 25.9607 36.5947 28.6356 36.9406 31.1672C37.0519 31.9816 37.1926 32.8144 37.0207 33.6182C36.6668 35.2725 35.1055 36.384 34.3965 37.92C33.6691 39.4957 33.9226 41.3823 34.65 42.9581C34.8575 43.4077 35.1085 43.8911 34.9926 44.3727C34.9175 44.6185 34.7917 44.8458 34.6234 45.04C34.0513 45.7842 33.3914 46.4644 32.8992 47.2637C32.407 48.0629 32.0895 49.0263 32.2959 49.9419C32.509 50.8877 33.2318 51.6218 33.9232 52.3013C34.5721 52.9389 35.3355 53.6225 36.244 53.5734C36.7905 53.5438 37.2818 53.2476 37.7473 52.9597C39.1428 52.0969 40.6793 51.0265 40.8984 49.4005C41.3258 50.8554 43.0459 51.4889 44.5588 51.5915C45.8438 51.6787 47.1886 51.5218 48.2895 50.8531C49.3903 50.1843 50.1913 48.9255 50.0506 47.6451C49.9407 46.6457 49.3014 45.6066 49.7519 44.7077C50.0938 44.0253 50.9124 43.7671 51.5551 43.3554C52.1932 42.9289 52.6858 42.3177 52.9668 41.6035C53.2479 40.8894 53.304 40.1063 53.1277 39.3594C52.7284 37.8029 51.3127 36.4484 51.6041 34.8682C51.776 33.936 52.5184 33.212 52.8306 32.3171C53.2031 31.2493 52.9218 30.059 52.4578 29.0277C51.9939 27.9963 51.3521 27.0471 50.9564 25.9877C50.771 25.5696 50.7068 25.1078 50.7713 24.655C50.971 23.6999 52.0447 23.1989 53.0142 23.0884C53.9836 22.9778 55 23.1028 55.9083 22.7464C56.7501 22.4161 57.787 21.3609 57.6343 20.3668C57.4903 19.4296 56.176 18.7177 55.4452 18.2854C53.2426 16.9826 50.5834 16.6015 48.0638 16.5456Z" fill="#2F2E41"/>
<path d="M39.3726 62.6382L39.5723 60.2333C39.5723 60.2333 39.3882 60.0359 39.0709 59.6787H54.8225L54.2146 63.1174C55.3306 63.1862 53.8619 62.7026 54.3256 63.0065C50.4232 62.6737 43.4104 62.6538 39.3726 62.6382Z" fill="#2F2E41"/>
<path opacity="0.1" d="M60.7167 87.2196L57.5419 87.5213L54.2141 63.1174C55.33 63.1862 56.0511 63.4325 56.5147 63.7364C57.5286 64.3975 57.3201 65.336 57.3201 65.336L60.7167 87.2196Z" fill="black"/>
<path d="M54.2143 39.3789L59.5388 39.8226L68.4129 86.6337L59.0951 87.5211L52.4395 51.1371L54.2143 39.3789Z" fill="#3F3D56"/>
<path opacity="0.1" d="M36.5769 65.0032L32.0289 86.6339L35.912 65.0032H36.5769Z" fill="black"/>
<path d="M60.8697 134.554L55.1015 135.442L55.7671 142.541C55.7671 142.541 53.7704 143.65 55.1015 147.2C56.4326 150.75 56.4326 151.637 56.4326 151.637L61.0023 151.195C62.7733 151.023 67.0296 149.427 67.6362 147.754C67.8879 147.061 65.202 146.916 64.6412 146.756C63.0882 146.312 60.8697 134.554 60.8697 134.554Z" fill="#2F2E41"/>
<path d="M52.4397 28.6923C52.758 28.5085 52.7678 27.9294 52.4614 27.3989C52.1551 26.8683 51.6488 26.5872 51.3304 26.771C51.0121 26.9548 51.0023 27.5339 51.3087 28.0644C51.615 28.595 52.1214 28.8761 52.4397 28.6923Z" fill="#FFB8B8"/>
<path d="M180.782 55.2415H80.0601V0H180.782V55.2415ZM80.5038 54.7978H180.338V0.443707H80.5038V54.7978Z" fill="#3F3D56"/>
<path d="M130.421 14.1204C128.424 12.1239 125.715 11.0024 122.891 11.0027C120.068 11.0029 117.359 12.1249 115.362 14.1217C113.366 16.1185 112.244 18.8268 112.243 21.6507C112.243 24.4747 113.365 27.1831 115.361 29.1803L130.421 44.2402L145.481 29.1803C147.477 27.1831 148.599 24.4747 148.599 21.6507C148.598 18.8268 147.477 16.1185 145.48 14.1217C143.483 12.1249 140.775 11.0029 137.951 11.0027C135.127 11.0024 132.418 12.1239 130.421 14.1204Z" fill="#FAF0D2"/>
</g>
<defs>
<clipPath id="clip0">
<rect width="250" height="158.182" fill="white"/>
</clipPath>
</defs>
</svg>
