<svg width="250" height="183" viewBox="0 0 250 183" fill="none" xmlns="http://www.w3.org/2000/svg">
<g clip-path="url(#clip0)">
<path d="M183.865 0.104248H0.0783691V117.81H183.865V0.104248Z" fill="#E6E6E6"/>
<path d="M178.61 14.8674H5.33398V110.846H178.61V14.8674Z" fill="white"/>
<path d="M183.787 0H0V7.80795H183.787V0Z" fill="#644A98"/>
<path d="M5.80237 5.43896C6.6016 5.43896 7.24951 4.79105 7.24951 3.99182C7.24951 3.19259 6.6016 2.54468 5.80237 2.54468C5.00313 2.54468 4.35522 3.19259 4.35522 3.99182C4.35522 4.79105 5.00313 5.43896 5.80237 5.43896Z" fill="white"/>
<path d="M11.2953 5.43896C12.0945 5.43896 12.7424 4.79105 12.7424 3.99182C12.7424 3.19259 12.0945 2.54468 11.2953 2.54468C10.4961 2.54468 9.84814 3.19259 9.84814 3.99182C9.84814 4.79105 10.4961 5.43896 11.2953 5.43896Z" fill="white"/>
<path d="M16.7882 5.43896C17.5874 5.43896 18.2353 4.79105 18.2353 3.99182C18.2353 3.19259 17.5874 2.54468 16.7882 2.54468C15.989 2.54468 15.3411 3.19259 15.3411 3.99182C15.3411 4.79105 15.989 5.43896 16.7882 5.43896Z" fill="white"/>
<path d="M60.5436 22.7615H26.6533V59.5294H60.5436V22.7615Z" fill="#E6E6E6"/>
<path d="M108.917 22.7615H75.0266V59.5294H108.917V22.7615Z" fill="#E6E6E6"/>
<path d="M157.29 22.7615H123.399V59.5294H157.29V22.7615Z" fill="#E6E6E6"/>
<path d="M60.5436 66.1846H26.6533V102.952H60.5436V66.1846Z" fill="#E6E6E6"/>
<path d="M108.917 66.1846H75.0266V102.952H108.917V66.1846Z" fill="#E6E6E6"/>
<path d="M157.29 66.1846H123.399V102.952H157.29V66.1846Z" fill="#E6E6E6"/>
<path d="M83.2177 75.6343L89.4098 73.1863L90.1298 85.4265C90.1298 85.4265 91.4258 89.1706 90.9938 90.6106C90.9938 90.6106 91.2818 93.0587 90.5618 93.2027C89.8418 93.3467 87.8258 93.6347 87.6818 93.4907C87.5378 93.3467 87.5378 92.9147 87.5378 92.9147C87.5378 92.9147 86.0977 93.9227 85.9537 95.0747C85.9537 95.0747 79.9056 96.9468 79.7616 95.2187C79.6176 93.4907 82.7857 92.0507 82.7857 92.0507L85.2337 88.3066L83.2177 75.6343Z" fill="white"/>
<path d="M96.3219 75.6343L102.514 73.1863L103.234 85.4265C103.234 85.4265 104.53 89.1706 104.098 90.6106C104.098 90.6106 104.386 93.0587 103.666 93.2027C102.946 93.3467 100.93 93.6347 100.786 93.4907C100.642 93.3467 100.642 92.9147 100.642 92.9147C100.642 92.9147 99.202 93.9227 99.058 95.0747C99.058 95.0747 93.0099 96.9468 92.8658 95.2187C92.7218 93.4907 95.8899 92.0507 95.8899 92.0507L98.338 88.3066L96.3219 75.6343Z" fill="white"/>
<path d="M96.9281 28.3666C96.9281 28.3666 95.6096 32.0506 97.1373 33.712L95.8637 38.0885C95.8637 38.0885 100.389 51.6636 99.0959 53.5598C99.0959 53.5598 94.2692 55.9732 84.6157 52.6979L88.5374 37.4851L87.9772 31.0638L88.7529 28.0471L90.4768 27.8748C90.4768 27.8748 89.4425 31.7534 91.3387 32.3567C93.2349 32.9601 95.0848 27.9716 95.0848 27.9716L96.9281 28.3666Z" fill="#644A98"/>
<path d="M36.0378 52.1496L37.7017 52.8303L45.6428 42.3933L48.1386 54.6454L49.8025 54.3429C50.8698 43.78 51.7402 33.0059 50.6722 27.9102L44.5084 27.6455L41.7101 36.5698L40.3487 42.6202L36.0378 52.1496Z" fill="white"/>
<path d="M137.023 27.8257C137.023 27.8257 134.753 30.9826 134.863 32.2564C134.974 33.5302 136.414 54.2993 136.414 54.2993L139.792 54.4655L138.796 39.5118L139.626 35.4687L141.676 54.2993L145.829 54.4101L142.119 29.9857L141.399 27.8257L137.023 27.8257Z" fill="white"/>
<path d="M149.858 78.6824C149.255 77.9589 148.219 77.5677 147.223 77.3563C147.253 77.2658 144.196 76.6345 144.145 76.7646L142.993 75.8469L139.454 77.6848L137.465 76.3309L136.541 76.6587C136.579 76.4958 133.673 76.999 133.673 76.999C133.118 77.0189 132.409 77.0537 131.616 77.1147C128.837 77.3285 128.623 84.5256 128.623 84.5256C129.901 84.0025 131.265 83.7171 132.646 83.6833L133.397 92.2928C137.26 91.9614 141.312 92.347 145.511 93.2904L147.48 86.523L152.067 84.7394C152.067 84.7394 151.283 80.3926 149.858 78.6824Z" fill="#644A98"/>
<path d="M51.4366 74.5834C50.9398 73.9872 50.0859 73.6649 49.2657 73.4907C49.2903 73.4162 46.7717 72.896 46.7296 73.0032L45.7803 72.2471L42.8643 73.7614L41.2255 72.6458L40.4642 72.916C40.4952 72.7817 38.1011 73.1963 38.1011 73.1963C37.6437 73.2127 37.0596 73.2414 36.4057 73.2917C34.1158 73.4678 33.9397 79.398 33.9397 79.398C34.9933 78.967 36.1166 78.7318 37.2546 78.7039L37.8736 96.0683C41.0569 95.7952 44.3954 96.113 47.855 96.8903L49.4777 81.0437L53.2567 79.5741C53.2567 79.5741 52.6109 75.9925 51.4366 74.5834Z" fill="white"/>
<path d="M174.743 174.635L151.818 179.327L151.295 179.274L131.149 177.24V151.709L155.811 147.54L173.702 149.626L173.708 149.739V149.793L174.743 174.635Z" fill="#E6E6E6"/>
<path opacity="0.1" d="M174.743 174.635L151.818 179.327L151.295 179.274V153.1L173.708 149.739L174.743 174.635Z" fill="black"/>
<path opacity="0.05" d="M173.708 149.793L173.702 149.799L151.295 153.101L131.149 151.709L155.811 147.54L173.702 149.626L173.708 149.739V149.793Z" fill="black"/>
<path d="M147.861 161.529L133.923 160.62L133.496 167.162L147.434 168.072L147.861 161.529Z" fill="white"/>
<path d="M144.451 163.449L137.055 162.966L136.906 165.242L144.302 165.725L144.451 163.449Z" fill="#856FB3"/>
<path d="M205.815 174.635L182.89 179.327L182.367 179.274L162.221 177.24V151.709L186.883 147.54L204.773 149.626L204.78 149.739V149.793L205.815 174.635Z" fill="#856FB3"/>
<path opacity="0.1" d="M205.815 174.635L182.89 179.327L182.367 179.274V153.1L204.78 149.739L205.815 174.635Z" fill="black"/>
<path opacity="0.05" d="M204.78 149.793L204.773 149.799L182.367 153.101L162.221 151.709L186.883 147.54L204.773 149.626L204.78 149.739V149.793Z" fill="black"/>
<path d="M178.933 161.529L164.995 160.62L164.568 167.162L178.506 168.072L178.933 161.529Z" fill="white"/>
<path d="M175.523 163.449L168.127 162.966L167.978 165.242L175.374 165.725L175.523 163.449Z" fill="#856FB3"/>
<path d="M222.405 47.2124C222.405 47.2124 226.45 57.6618 219.034 57.6618C211.618 57.6618 230.494 68.1111 237.91 62.0438C245.326 55.9764 240.944 55.6393 240.944 55.6393C240.944 55.6393 231.169 56.6505 231.506 47.8866L222.405 47.2124Z" fill="#FFB8B8"/>
<path d="M227.674 50.3575C234.258 50.3575 239.595 45.0202 239.595 38.4363C239.595 31.8524 234.258 26.5151 227.674 26.5151C221.09 26.5151 215.753 31.8524 215.753 38.4363C215.753 45.0202 221.09 50.3575 227.674 50.3575Z" fill="#2F2E41"/>
<path d="M220.382 90.6953L207.573 123.729C207.573 123.729 201.169 133.841 203.528 143.953C205.888 154.066 212.372 172.47 212.372 172.47C212.372 172.47 217.27 173.716 216.933 169.334C216.596 164.952 217.143 143.708 212.087 137.977L232.517 114.628L233.191 141.257C233.191 141.257 231.843 153.392 232.18 158.785C232.517 164.178 233.191 173.279 233.191 173.279L237.236 172.605C237.236 172.605 242.693 147.778 242.018 139.688C242.018 139.688 254.542 100.38 241.733 90.9421L220.382 90.6953Z" fill="#2F2E41"/>
<path d="M213.78 172.415C213.78 172.415 212.13 171.995 211.94 173.508C211.75 175.02 208.281 181.747 211.903 182.084C215.525 182.421 216.778 179.032 217.384 176.65C217.991 174.268 218.221 174.131 218.727 173.675C219.234 173.219 220.439 170.718 218.927 170.528C217.414 170.338 216.639 168.85 216.639 168.85C216.639 168.85 216.162 173.022 213.78 172.415Z" fill="#2F2E41"/>
<path d="M235.831 171.245C235.831 171.245 232.773 170.808 232.991 171.901C233.209 172.993 232.554 177.581 232.991 178.018C233.428 178.455 234.302 179.329 234.302 179.984C234.302 180.64 234.52 182.824 238.234 182.169C241.948 181.514 241.075 178.237 240.856 177.8C240.638 177.363 238.016 175.178 238.234 173.867C238.453 172.556 237.142 170.371 235.831 171.245Z" fill="#2F2E41"/>
<path d="M227.821 51.6654C232.381 51.6654 236.078 47.9686 236.078 43.4083C236.078 38.848 232.381 35.1511 227.821 35.1511C223.261 35.1511 219.564 38.848 219.564 43.4083C219.564 47.9686 223.261 51.6654 227.821 51.6654Z" fill="#FFB8B8"/>
<path d="M235.719 54.7966C235.719 54.7966 238.599 60.4947 229.918 60.6562C227.249 60.7059 224.076 58.7611 222.765 56.4356C221.994 55.0656 221.799 56.9577 220.55 56.8191C218.187 56.5564 215.662 57.5369 213.402 58.7385C213.11 58.8934 212.882 59.1448 212.755 59.4498C212.628 59.7548 212.61 60.0944 212.706 60.4106C214.42 66.0959 219.313 93.4439 220.068 94.9329C221.997 98.7353 242.873 92.3673 242.873 92.3673C243.159 82.0213 239.404 67.5466 246.009 57.0195C244.556 55.9278 242.884 55.1638 241.108 54.78C239.331 54.3963 237.493 54.4019 235.719 54.7966Z" fill="#644A98"/>
<path d="M235.542 37.0586L229.492 33.8899L221.138 35.1861L219.41 42.8203L223.712 42.6547L224.914 39.85V42.6085L226.9 42.5321L228.052 38.0669L228.772 42.8203L235.83 42.6761L235.542 37.0586Z" fill="#2F2E41"/>
<path d="M228.301 29.6526C230.958 29.6526 233.111 27.4989 233.111 24.8423C233.111 22.1856 230.958 20.032 228.301 20.032C225.644 20.032 223.491 22.1856 223.491 24.8423C223.491 27.4989 225.644 29.6526 228.301 29.6526Z" fill="#2F2E41"/>
<path d="M222.236 23.3782C222.236 22.2292 222.647 21.1182 223.395 20.2461C224.143 19.374 225.179 18.7983 226.314 18.6232C225.629 18.5184 224.929 18.5628 224.263 18.7536C223.596 18.9444 222.979 19.277 222.453 19.7286C221.927 20.1802 221.505 20.7401 221.216 21.37C220.926 21.9999 220.776 22.685 220.776 23.3782C220.776 24.0714 220.926 24.7564 221.216 25.3864C221.505 26.0163 221.927 26.5762 222.453 27.0278C222.979 27.4794 223.596 27.8119 224.263 28.0027C224.929 28.1935 225.629 28.238 226.314 28.1331C225.179 27.9581 224.143 27.3824 223.395 26.5103C222.647 25.6382 222.236 24.5272 222.236 23.3782Z" fill="#2F2E41"/>
<path d="M250 137.861L227.075 142.554L226.552 142.5L206.406 140.467V114.936L231.068 110.766L248.958 112.853L248.965 112.966V113.019L250 137.861Z" fill="#E6E6E6"/>
<path opacity="0.1" d="M250 137.861L227.075 142.554L226.552 142.501V116.327L248.965 112.966L250 137.861Z" fill="black"/>
<path opacity="0.05" d="M248.965 113.019L248.958 113.026L226.552 116.327L206.406 114.936L231.068 110.766L248.958 112.853L248.965 112.966V113.019Z" fill="black"/>
<path d="M223.118 124.756L209.179 123.846L208.752 130.389L222.691 131.299L223.118 124.756Z" fill="white"/>
<path d="M219.707 126.676L212.311 126.193L212.163 128.469L219.559 128.952L219.707 126.676Z" fill="#856FB3"/>
<path d="M214.288 108.379C214.288 108.379 205.861 115.121 209.569 117.48C213.276 119.84 217.658 108.379 217.658 108.379H214.288Z" fill="#FFB8B8"/>
<path d="M214.652 58.4449C214.215 57.953 208.703 60.7641 209.521 64.4312L209.905 89.8401C209.905 89.8401 207.883 110.739 212.939 110.739C217.995 110.739 217.399 111.442 218.073 109.756C218.747 108.071 218.928 93.7927 218.928 93.7927L214.652 58.4449Z" fill="#644A98"/>
<path d="M240.723 106.099C240.723 106.099 245.105 117.559 248.813 115.2C252.52 112.84 244.093 106.099 244.093 106.099H240.723Z" fill="#FFB8B8"/>
<path d="M241.733 91.7972C241.733 91.7972 239.634 105.79 240.308 107.476C240.982 109.161 240.385 108.458 245.442 108.458C250.498 108.458 248.475 87.5596 248.475 87.5596L248.86 62.1507C249.677 58.4836 244.165 55.6725 243.729 56.1644L238.883 72.698L241.733 91.7972Z" fill="#644A98"/>
</g>
<defs>
<clipPath id="clip0">
<rect width="250" height="182.29" fill="white"/>
</clipPath>
</defs>
</svg>
