<svg width="250" height="123" viewBox="0 0 250 123" fill="none" xmlns="http://www.w3.org/2000/svg">
<g clip-path="url(#clip0)">
<path d="M249.969 121.472C251.704 123.046 179.437 123.046 181.177 121.472C179.442 119.899 251.709 119.899 249.969 121.472Z" fill="#E6E6E6"/>
<path d="M225.982 75.5547C229.807 80.9612 230.817 111.732 231.042 121.595C231.048 121.818 231.054 122.028 231.057 122.228H240.738C240.856 122.017 240.966 121.809 241.07 121.595C246.808 110.268 243.625 96.6872 243.457 96.0002C243.893 98.1593 241.922 104.417 239.693 110.479C238.334 91.8407 226.709 76.4957 225.982 75.5547Z" fill="#E6E6E6"/>
<path d="M44.1312 15.4102C36.5518 26.1243 34.5497 87.1028 34.1035 106.649C34.0921 107.09 34.0806 107.507 34.0749 107.902H14.889C14.6545 107.484 14.4371 107.072 14.2312 106.649C2.85918 84.2026 9.1687 57.2886 9.50045 55.9271C8.63671 60.2059 12.5437 72.6075 16.9598 84.6202C19.654 47.6841 42.6897 17.275 44.1312 15.4102Z" fill="#E6E6E6"/>
<path d="M133.258 107.271C136.617 111.145 -3.30883 111.145 0.0598699 107.27C-3.29865 103.397 136.627 103.397 133.258 107.271Z" fill="#E6E6E6"/>
<path d="M205.515 105.1C204.977 105.101 204.966 106.775 205.515 106.775H225.606C225.841 106.783 226.035 106.414 226.039 105.952C226.044 105.48 225.846 105.092 225.606 105.1H205.515Z" fill="#3F3D56"/>
<path d="M211.858 98.8622C211.16 98.8622 211.156 100.537 211.858 100.537H219.254C219.557 100.545 219.807 100.176 219.812 99.7134C219.818 99.2413 219.564 98.8537 219.254 98.8622H211.858Z" fill="#856FB3"/>
<path d="M205.515 111.57C204.977 111.57 204.966 113.245 205.515 113.245H225.606C225.841 113.252 226.035 112.884 226.039 112.421C226.044 111.949 225.846 111.561 225.606 111.57H205.515Z" fill="#3F3D56"/>
<path d="M229.898 90.573H201.248C200.941 90.5731 200.648 90.6949 200.431 90.9115C200.214 91.1281 200.093 91.4219 200.093 91.7283V120.379C200.093 120.685 200.214 120.979 200.431 121.196C200.648 121.412 200.941 121.534 201.248 121.534H229.898C230.205 121.534 230.499 121.412 230.715 121.196C230.932 120.979 231.054 120.685 231.054 120.379V91.7283C231.054 91.4219 230.932 91.1281 230.715 90.9115C230.499 90.6949 230.205 90.5731 229.898 90.573ZM230.592 120.379C230.591 120.563 230.518 120.739 230.388 120.868C230.258 120.998 230.082 121.072 229.898 121.072H201.248C201.064 121.072 200.888 120.998 200.758 120.868C200.628 120.739 200.555 120.563 200.555 120.379V91.7283C200.555 91.5446 200.628 91.3686 200.758 91.2387C200.888 91.1089 201.064 91.0356 201.248 91.0351H229.898C230.082 91.0356 230.258 91.1089 230.388 91.2387C230.518 91.3686 230.591 91.5446 230.592 91.7283V120.379Z" fill="#3F3D56"/>
<path d="M190.331 67.831L192.655 66.6688L190.718 61.4391L190.208 58.8017C190.141 58.4591 189.986 58.1399 189.758 57.8759C189.53 57.612 189.236 57.4126 188.906 57.2977C188.577 57.1828 188.223 57.1564 187.88 57.2211C187.537 57.2859 187.217 57.4395 186.952 57.6666C186.559 58.0032 186.313 58.4792 186.264 58.9941C186.216 59.509 186.37 60.0226 186.693 60.4264L188.587 62.795L190.331 67.831Z" fill="#A0616A"/>
<path d="M189.555 67.2498L189.984 68.5916L191.908 74.6192C192.096 75.2101 192.451 75.7341 192.93 76.1284C193.409 76.5227 193.991 76.7705 194.607 76.8421C195.223 76.9136 195.847 76.8059 196.403 76.5319C196.959 76.2578 197.425 75.8291 197.744 75.297L203.98 64.6081C204.08 64.4415 204.165 64.2666 204.235 64.0853C204.536 63.2943 204.521 62.4176 204.193 61.6373C203.865 60.8571 203.248 60.2333 202.472 59.8957C201.696 59.558 200.819 59.5325 200.025 59.8243C199.23 60.1162 198.579 60.7029 198.206 61.4627L194.398 69.5744L192.655 65.7007L189.555 67.2498Z" fill="#E6E6E6"/>
<path d="M190.453 106.185L194.714 106.573L197.038 89.7213C204.7 91.0103 211.928 91.4232 218.18 89.8639C218.708 89.734 219.204 89.4962 219.636 89.1656C220.068 88.8349 220.427 88.4185 220.691 87.9425C220.954 87.4665 221.116 86.9412 221.167 86.3995C221.218 85.8578 221.156 85.3115 220.986 84.7948C220.238 82.5616 218.919 80.1686 217.376 77.7124L207.11 81.3925L206.723 82.9421L195.773 81.5561C195.22 81.4861 194.659 81.5319 194.125 81.6905C193.59 81.8492 193.095 82.1172 192.67 82.4777C192.245 82.8381 191.899 83.283 191.655 83.7842C191.411 84.2853 191.274 84.8317 191.253 85.3887L190.453 106.185Z" fill="#2F2E41"/>
<path d="M185.812 109.45C185.771 109.162 185.814 108.868 185.935 108.603C186.055 108.338 186.25 108.114 186.494 107.956L190.868 105.809L194.166 106.225L194.945 109.018C194.978 109.217 194.97 109.42 194.922 109.616C194.874 109.812 194.786 109.996 194.665 110.156C194.543 110.317 194.39 110.452 194.215 110.552C194.039 110.651 193.846 110.714 193.645 110.737L187.491 110.75C187.097 110.795 186.702 110.684 186.388 110.441C186.075 110.198 185.868 109.843 185.812 109.45Z" fill="#2F2E41"/>
<path d="M189.377 104.031L193.638 104.418L195.962 87.5668C203.624 88.8557 210.852 89.2686 217.104 87.7094C217.632 87.5794 218.128 87.3417 218.56 87.011C218.992 86.6804 219.351 86.264 219.615 85.788C219.878 85.312 220.04 84.7866 220.091 84.2449C220.142 83.7033 220.08 83.1569 219.91 82.6403C219.162 80.4071 217.843 78.014 216.3 75.5579L206.034 79.238L205.647 80.7875L194.697 79.4015C194.144 79.3315 193.583 79.3773 193.049 79.536C192.514 79.6946 192.019 79.9627 191.594 80.3231C191.169 80.6836 190.823 81.1285 190.579 81.6296C190.335 82.1308 190.198 82.6772 190.177 83.2341L189.377 104.031Z" fill="#2F2E41"/>
<path d="M184.736 107.296C184.695 107.008 184.738 106.714 184.859 106.449C184.98 106.184 185.174 105.959 185.418 105.801L189.793 103.655L193.09 104.071L193.869 106.863C193.902 107.062 193.894 107.266 193.846 107.461C193.798 107.657 193.71 107.841 193.589 108.002C193.467 108.163 193.314 108.297 193.139 108.397C192.963 108.497 192.77 108.56 192.569 108.582L186.416 108.596C186.022 108.64 185.626 108.529 185.312 108.286C184.999 108.044 184.792 107.688 184.736 107.296Z" fill="#2F2E41"/>
<path d="M197.124 57.932C200.012 57.932 202.354 55.5906 202.354 52.7023C202.354 49.8141 200.012 47.4727 197.124 47.4727C194.236 47.4727 191.895 49.8141 191.895 52.7023C191.895 55.5906 194.236 57.932 197.124 57.932Z" fill="#A0616A"/>
<path d="M197.318 63.3554L203.322 62.5807L200.998 55.4141H195.187L197.318 63.3554Z" fill="#A0616A"/>
<path d="M195.684 70.5815C195.989 71.4273 196.43 72.2174 196.991 72.92C197.79 73.9011 198.751 74.7391 199.831 75.398C200.02 75.5199 200.215 75.6367 200.417 75.7517L201.571 76.7345L205.646 80.2057L216.881 75.9451C214.403 70.4386 211.311 66.0856 207.769 62.5796C207.033 61.5001 205.984 60.6721 204.763 60.2072C203.541 59.7424 202.207 59.6629 200.94 59.9797L196.737 61.0304C195.241 64.5591 194.686 67.8038 195.684 70.5815Z" fill="#E6E6E6"/>
<path d="M186.533 55.5125C186.467 55.4479 186.381 55.4077 186.29 55.3987C186.198 55.3896 186.106 55.4123 186.029 55.4629C185.926 55.5714 182.562 57.5651 182.773 57.7629C182.767 57.8228 182.774 57.8835 182.794 57.9403C182.814 57.9971 182.847 58.0487 182.89 58.0911L190.709 65.8766C190.747 65.9144 190.792 65.9444 190.842 65.9646C190.892 65.9848 190.945 65.995 190.999 65.9944C191.156 66.1954 193.719 63.2749 193.848 63.2189C193.922 63.1419 193.963 63.0388 193.961 62.932C193.96 62.8252 193.916 62.7233 193.84 62.6485L186.533 55.5125Z" fill="#3F3D56"/>
<path d="M183.56 57.6799L183.878 57.477C183.846 57.5367 183.835 57.6054 183.847 57.6721C183.858 57.7388 183.892 57.7997 183.942 57.8453C183.992 57.891 184.056 57.9186 184.123 57.924C184.19 57.9294 184.258 57.9121 184.314 57.875L186.373 56.4594C186.42 56.4268 186.456 56.3821 186.478 56.3302C186.5 56.2783 186.507 56.2212 186.499 56.1654C186.491 56.1096 186.467 56.0571 186.431 56.0139C186.395 55.9707 186.347 55.9385 186.293 55.9207C186.375 55.893 186.507 55.7275 186.595 55.8317L193.522 62.639C193.769 62.7591 191.005 65.1541 191.004 65.2482C190.797 65.4781 183.692 57.8562 183.541 57.851C183.529 57.8393 183.52 57.8251 183.515 57.8095C183.51 57.7939 183.508 57.7773 183.509 57.7609C183.511 57.7445 183.517 57.7287 183.525 57.7147C183.534 57.7006 183.546 57.6887 183.56 57.6799Z" fill="white"/>
<path d="M191.555 61.136L189.43 63.1394L184.375 58.1459L186.94 56.4761L191.555 61.136Z" fill="#856FB3"/>
<path d="M184.572 59.3781C184.693 59.2897 184.154 58.8968 184.13 58.8321C184.116 58.8187 184.098 58.8113 184.078 58.8113C184.059 58.8113 184.04 58.8187 184.026 58.8321C183.906 58.9205 184.445 59.3135 184.468 59.3781C184.482 59.3915 184.501 59.399 184.52 59.3989C184.54 59.3989 184.558 59.3915 184.572 59.3781Z" fill="#E6E6E6"/>
<path d="M185.317 60.0187C185.251 59.9942 184.861 59.457 184.771 59.5767C184.65 59.6651 185.19 60.0581 185.213 60.1228C185.279 60.191 185.386 60.0853 185.317 60.0187Z" fill="#E6E6E6"/>
<path d="M191.01 62.8556C191 63.4996 192.012 63.4996 192.002 62.8556C192.012 62.2116 191 62.2115 191.01 62.8556Z" fill="#856FB3"/>
<path opacity="0.2" d="M196.991 72.9202C197.791 73.9014 198.751 74.7393 199.832 75.3982C200.02 75.5202 200.215 75.6369 200.417 75.7519L201.571 76.7347C203.86 73.7253 203.731 64.582 203.731 64.582L200.246 64.9306L196.991 72.9202Z" fill="black"/>
<path d="M190.151 70.5219L192.476 69.3597L190.539 64.13L190.028 61.4927C189.962 61.15 189.807 60.8308 189.578 60.5668C189.35 60.3029 189.056 60.1035 188.727 59.9886C188.397 59.8737 188.043 59.8473 187.7 59.912C187.358 59.9768 187.038 60.1304 186.773 60.3575C186.38 60.6941 186.133 61.1701 186.085 61.685C186.037 62.1999 186.19 62.7135 186.513 63.1173L188.408 65.4859L190.151 70.5219Z" fill="#A0616A"/>
<path d="M192.476 68.3912L189.377 69.9408L191.729 77.31C191.898 77.8392 192.2 78.3157 192.608 78.6935C193.015 79.0712 193.513 79.3373 194.053 79.466C194.72 79.6246 195.419 79.5669 196.05 79.3013C196.682 79.0356 197.212 78.5758 197.564 77.9884L203.801 67.2988C204.243 66.5622 204.379 65.682 204.181 64.8462C203.983 64.0104 203.466 63.2852 202.74 62.8256C202.35 62.5784 201.912 62.4162 201.454 62.3494C200.997 62.2827 200.531 62.313 200.086 62.4383C199.642 62.5636 199.228 62.7812 198.873 63.0768C198.518 63.3724 198.23 63.7395 198.026 64.1541L194.219 72.2651L192.476 68.3912Z" fill="#E6E6E6"/>
<path d="M195.156 50.6654C194.73 51.0208 194.249 51.3046 193.732 51.5059C193.472 51.6047 193.194 51.6456 192.917 51.6257C192.64 51.6058 192.371 51.5257 192.128 51.3908C191.862 51.1996 191.652 50.9405 191.521 50.6405C191.389 50.3405 191.341 50.0106 191.38 49.6854C191.469 49.0347 191.73 48.4196 192.137 47.9042C192.839 46.9278 193.762 46.1313 194.831 45.5798C195.899 45.0282 197.083 44.7372 198.286 44.7306C199.488 44.7239 200.675 45.0018 201.75 45.5415C202.825 46.0812 203.756 46.8675 204.469 47.836C204.989 48.4845 205.308 49.2702 205.389 50.0972C205.463 51.5501 204.469 52.9064 204.575 54.3573C204.665 55.5844 205.546 56.6357 206.589 57.2881C207.633 57.9406 208.838 58.2714 210.005 58.6633C211.171 59.0551 212.35 59.5386 213.214 60.4154C214.077 61.2922 214.553 62.6528 214.079 63.7883C213.69 64.7214 212.765 65.3148 211.837 65.7167C209.349 66.7819 206.555 66.8868 203.994 66.0111C203.05 65.6838 202.019 65.029 202.005 64.0299C201.998 63.5963 202.194 63.1892 202.311 62.7716C202.428 62.3541 202.45 61.8561 202.156 61.5372C201.791 61.1418 201.118 61.2329 200.682 61.5483C200.246 61.8637 199.963 62.342 199.604 62.7421C198.921 63.5018 197.887 63.9871 196.876 63.844C195.865 63.7009 194.951 62.8396 194.909 61.8192C194.837 60.0664 197.033 58.969 197.272 57.2311C197.431 56.0704 196.675 55.0084 196.021 54.0369C195.366 53.0653 194.757 51.848 195.215 50.7698" fill="#2F2E41"/>
<path d="M122.281 106.54H35.9913C35.5676 106.539 35.1615 106.371 34.8619 106.071C34.5623 105.772 34.3938 105.366 34.3933 104.942V31.1529C34.3938 30.7292 34.5623 30.3231 34.8619 30.0235C35.1615 29.7239 35.5676 29.5554 35.9913 29.5549H122.281C122.705 29.5554 123.111 29.7239 123.41 30.0235C123.71 30.3231 123.878 30.7292 123.879 31.1529V104.942C123.878 105.366 123.71 105.772 123.41 106.071C123.111 106.371 122.705 106.539 122.281 106.54ZM35.9913 30.1941C35.7371 30.1944 35.4934 30.2955 35.3136 30.4752C35.1339 30.655 35.0328 30.8987 35.0325 31.1529V104.942C35.0328 105.196 35.1339 105.44 35.3136 105.62C35.4934 105.799 35.7371 105.9 35.9913 105.901H122.281C122.535 105.9 122.779 105.799 122.959 105.62C123.138 105.44 123.239 105.196 123.24 104.942V31.1529C123.239 30.8987 123.138 30.655 122.959 30.4752C122.779 30.2955 122.535 30.1944 122.281 30.1941H35.9913Z" fill="#3F3D56"/>
<path d="M49.3989 99.9274C52.9938 99.9274 55.9081 97.0131 55.9081 93.4182C55.9081 89.8232 52.9938 86.9089 49.3989 86.9089C45.8039 86.9089 42.8896 89.8232 42.8896 93.4182C42.8896 97.0131 45.8039 99.9274 49.3989 99.9274Z" fill="#E6E6E6"/>
<path d="M64.4322 89.0786C64.1447 89.079 63.8692 89.1935 63.6661 89.3969C63.463 89.6003 63.3489 89.876 63.3489 90.1635C63.3489 90.4509 63.463 90.7266 63.6661 90.9301C63.8692 91.1335 64.1447 91.2479 64.4322 91.2484H115.576C115.864 91.2484 116.14 91.1341 116.343 90.9306C116.547 90.7272 116.661 90.4512 116.661 90.1635C116.661 89.8758 116.547 89.5998 116.343 89.3964C116.14 89.1929 115.864 89.0786 115.576 89.0786H64.4322Z" fill="#E6E6E6"/>
<path d="M64.4323 95.5879C64.1446 95.5879 63.8686 95.7022 63.6652 95.9056C63.4617 96.1091 63.3474 96.385 63.3474 96.6728C63.3474 96.9605 63.4617 97.2364 63.6652 97.4399C63.8686 97.6433 64.1446 97.7576 64.4323 97.7576H86.4396C86.5822 97.7578 86.7235 97.7299 86.8553 97.6755C86.9871 97.6211 87.1069 97.5412 87.2078 97.4404C87.3087 97.3397 87.3887 97.22 87.4434 97.0883C87.498 96.9566 87.5261 96.8154 87.5261 96.6728C87.5261 96.5302 87.498 96.389 87.4434 96.2572C87.3887 96.1255 87.3087 96.0058 87.2078 95.9051C87.1069 95.8043 86.9871 95.7245 86.8553 95.67C86.7235 95.6156 86.5822 95.5877 86.4396 95.5879H64.4323Z" fill="#E6E6E6"/>
<path d="M142.783 80.8031H56.493C56.0693 80.8026 55.6632 80.634 55.3636 80.3345C55.064 80.0349 54.8955 79.6288 54.895 79.2051V41.3367C54.8955 40.9131 55.064 40.5069 55.3636 40.2073C55.6632 39.9078 56.0693 39.7393 56.493 39.7388H142.783C143.206 39.7393 143.612 39.9078 143.912 40.2073C144.212 40.5069 144.38 40.9131 144.381 41.3367V79.2051C144.38 79.6288 144.212 80.0349 143.912 80.3345C143.612 80.6341 143.206 80.8026 142.783 80.8031Z" fill="#856FB3"/>
<path d="M74.0657 52.9382C73.7783 52.9387 73.5027 53.0531 73.2996 53.2565C73.0965 53.46 72.9824 53.7357 72.9824 54.0231C72.9824 54.3106 73.0965 54.5863 73.2996 54.7897C73.5027 54.9931 73.7783 55.1076 74.0657 55.108H125.21C125.497 55.1076 125.773 54.9931 125.976 54.7897C126.179 54.5863 126.293 54.3106 126.293 54.0231C126.293 53.7357 126.179 53.46 125.976 53.2565C125.773 53.0531 125.497 52.9387 125.21 52.9382H74.0657Z" fill="white"/>
<path d="M74.0657 59.2241C73.7783 59.2245 73.5027 59.339 73.2996 59.5424C73.0965 59.7458 72.9824 60.0215 72.9824 60.309C72.9824 60.5964 73.0965 60.8721 73.2996 61.0756C73.5027 61.279 73.7783 61.3934 74.0657 61.3939H125.21C125.497 61.3934 125.773 61.279 125.976 61.0756C126.179 60.8721 126.293 60.5964 126.293 60.309C126.293 60.0215 126.179 59.7458 125.976 59.5424C125.773 59.339 125.497 59.2245 125.21 59.2241H74.0657Z" fill="white"/>
<path d="M74.0657 65.4341C73.7783 65.4345 73.5027 65.549 73.2996 65.7524C73.0965 65.9558 72.9824 66.2315 72.9824 66.519C72.9824 66.8064 73.0965 67.0821 73.2996 67.2855C73.5027 67.4889 73.7783 67.6034 74.0657 67.6038H96.0731C96.2157 67.604 96.3569 67.5761 96.4887 67.5217C96.6205 67.4673 96.7403 67.3874 96.8412 67.2866C96.9421 67.1859 97.0222 67.0662 97.0768 66.9345C97.1314 66.8028 97.1595 66.6616 97.1595 66.519C97.1595 66.3764 97.1314 66.2352 97.0768 66.1034C97.0222 65.9717 96.9421 65.852 96.8412 65.7513C96.7403 65.6505 96.6205 65.5706 96.4887 65.5162C96.3569 65.4618 96.2157 65.4339 96.0731 65.4341H74.0657Z" fill="white"/>
<path d="M142.941 84.8837C146.536 84.8837 149.451 81.9694 149.451 78.3745C149.451 74.7795 146.536 71.8652 142.941 71.8652C139.346 71.8652 136.432 74.7795 136.432 78.3745C136.432 81.9694 139.346 84.8837 142.941 84.8837Z" fill="#3F3D56"/>
<path d="M142.399 81.2525L140.333 78.5963L141.534 77.6617L142.512 78.9196L145.817 75.4312L146.922 76.478L142.399 81.2525Z" fill="white"/>
<path d="M132.199 11.4719L121.622 13.8924L117.153 5.46382L126.197 1.93286L132.199 11.4719Z" fill="#2F2E41"/>
<path d="M140.988 71.3351L144.952 67.7329L136.403 48.4493L128.933 39.2543L141.138 44.5368L142.408 57.9875L148.477 60.0755L147.69 43.2813C147.641 42.234 147.292 41.2229 146.685 40.3682C146.078 39.5135 145.237 38.8514 144.265 38.4606L134.252 34.4385L132.459 26.913L122.006 26.7634C118.757 32.4155 117.306 37.39 119.65 40.933L130.527 51.5409L140.988 71.3351Z" fill="#2F2E41"/>
<path d="M142.837 68.8672C142.837 68.8672 143.4 67.1833 144.283 67.5709C145.167 67.9585 147.64 69.9219 147.64 69.9219C147.64 69.9219 151.773 70.5065 149.185 72.004C146.596 73.5016 145.584 73.4084 145.501 73.1966C145.419 72.9847 144.747 72.5145 144.747 72.5145L143.771 73.1394L142.123 73.294C142.123 73.294 139.965 69.6392 140.66 69.5423C141.354 69.4454 142.873 69.5852 142.837 68.8672Z" fill="#2F2E41"/>
<path d="M145.443 58.541C145.443 58.541 147.162 58.0943 147.319 59.046C147.476 59.9977 147.181 63.1422 147.181 63.1422C147.181 63.1422 148.946 66.9242 146.279 65.5723C143.611 64.2205 143.137 63.3212 143.269 63.1364C143.402 62.9516 143.429 62.1323 143.429 62.1323L142.373 61.6551L141.344 60.3585C141.344 60.3585 143.23 56.5562 143.69 57.0851C144.15 57.6141 144.861 58.963 145.443 58.541Z" fill="#2F2E41"/>
<path d="M123.265 10.6842C125.381 10.6842 127.096 8.96892 127.096 6.85298C127.096 4.73704 125.381 3.02173 123.265 3.02173C121.149 3.02173 119.434 4.73704 119.434 6.85298C119.434 8.96892 121.149 10.6842 123.265 10.6842Z" fill="#FFB9B9"/>
<path d="M122.82 19.4778L132.12 18.1352C130.732 15.6223 129.301 13.3321 127.377 13.5882C125.666 12.3904 125.567 10.4649 126 8.29956L121.345 9.54395C121.754 10.8787 121.596 12.0508 120.505 12.9557C122.029 15.1015 123.016 17.2675 122.82 19.4778Z" fill="#FFB9B9"/>
<path d="M122.117 27.6341C125.421 31.9368 128.81 33.6369 132.454 27.4863L132.754 24.7418C135.093 21.7931 134.408 19.2451 131.557 16.9843L130.181 13.7511L128.109 13.417C128.382 13.7322 128.555 14.1213 128.607 14.535C128.659 14.9488 128.587 15.3686 128.401 15.7415C128.214 16.1144 127.921 16.4237 127.559 16.6302C127.197 16.8367 126.781 16.9313 126.365 16.9019L125.616 16.849C125.339 16.8294 125.068 16.755 124.819 16.6302C124.57 16.5053 124.348 16.3325 124.167 16.1216L120.983 12.4265L119.642 12.7851C119.49 12.8257 119.354 12.9128 119.254 13.0341C119.154 13.1554 119.094 13.305 119.083 13.462L118.648 19.6199C120.563 21.7408 121.664 24.4519 122.117 27.6341Z" fill="#E6E6E6"/>
<path d="M120.638 25.0127L113.318 23.5265L118.18 19.0032L116.329 15.6572L108.472 24.0145C108.337 24.168 108.247 24.3556 108.211 24.5569C108.175 24.7582 108.195 24.9654 108.269 25.156C108.343 25.3466 108.468 25.5132 108.63 25.6379C108.792 25.7625 108.985 25.8403 109.188 25.8628L119.829 27.0413L120.266 28.967C120.324 29.2232 120.443 29.4616 120.613 29.6621C120.782 29.8626 120.998 30.0194 121.241 30.119C121.484 30.2187 121.747 30.2584 122.009 30.2348C122.271 30.2112 122.523 30.125 122.744 29.9834C122.949 29.8524 123.122 29.6773 123.25 29.471C123.379 29.2647 123.46 29.0324 123.488 28.7908C123.515 28.5492 123.489 28.3046 123.41 28.0746C123.331 27.8446 123.202 27.6351 123.032 27.4612L120.638 25.0127Z" fill="#FFB9B9"/>
<path d="M132.017 36.9093L131.046 39.4388C130.951 39.6859 130.909 39.9504 130.924 40.2147C130.939 40.479 131.01 40.7372 131.132 40.9721C131.254 41.207 131.424 41.4133 131.632 41.5775C131.84 41.7416 132.08 41.8598 132.337 41.9242C132.638 41.9997 132.952 41.9993 133.253 41.9228C133.554 41.8464 133.831 41.6964 134.059 41.4863C134.287 41.2762 134.46 41.0127 134.561 40.7195C134.662 40.4262 134.689 40.1124 134.638 39.8063L134.227 37.3038L135.578 27.2956L134.371 20.6843L131.616 21.5301L132.532 27.6843L132.017 36.9093Z" fill="#FFB9B9"/>
<path d="M130.978 22.2362L135.142 20.612L132.821 15.5263C132.573 14.983 132.182 14.5173 131.69 14.1793C131.197 13.8413 130.622 13.6436 130.026 13.6075L128.958 13.5427L130.978 22.2362Z" fill="#E6E6E6"/>
<path d="M117.26 20.161L121.7 18.6579L120.135 13.332C120.084 13.1596 119.973 13.0108 119.823 12.9125C119.673 12.8142 119.492 12.7726 119.314 12.7954C119.163 12.8146 119.022 12.8789 118.908 12.9797L114.372 17.0036C115.24 18.4321 116.164 18.4679 117.26 20.161Z" fill="#E6E6E6"/>
<path d="M125.81 0.633071C125.81 0.633071 128.154 1.07381 128.695 3.99607C128.78 4.48888 128.796 4.99113 128.741 5.48821C128.687 6.05072 128.766 7.2388 129.987 8.63774C130.784 9.54508 131.527 10.4988 132.211 11.4938L129.763 12.1456L128.669 8.08917C128.138 6.12252 127.321 4.24467 126.244 2.51604L126.221 2.47995C126.221 2.47995 125.408 4.65272 123.229 4.95059L123.901 4.06581C123.901 4.06581 121.353 5.53867 119.909 5.9886C119.745 6.03998 119.597 6.13533 119.482 6.26438C119.368 6.39343 119.291 6.5513 119.259 6.72096C119.228 6.89063 119.243 7.06568 119.304 7.22724C119.364 7.3888 119.468 7.53076 119.603 7.63783C119.614 7.64588 119.624 7.65394 119.635 7.662C120.696 8.46843 122.862 10.3926 122.007 12.254C121.151 14.1154 122.149 14.4548 122.149 14.4548L120.309 13.7548L119.466 13.3941L119.552 14.0168L115.44 14.103C115.44 14.103 114.329 14.0962 116.303 11.1305C116.303 11.1305 116.779 10.0185 116.388 9.16897C116.074 8.5256 115.918 7.81683 115.932 7.10118C116.056 4.1112 117.316 -1.97162 125.81 0.633071Z" fill="#2F2E41"/>
</g>
<defs>
<clipPath id="clip0">
<rect width="250" height="122.652" fill="white"/>
</clipPath>
</defs>
</svg>
