<svg width="250" height="195" viewBox="0 0 250 195" fill="none" xmlns="http://www.w3.org/2000/svg">
<g clip-path="url(#clip0)">
<path d="M73.0423 0L33.2262 21.5666C33.9071 22.7388 34.3457 24.0357 34.5162 25.3804C34.6866 26.7252 34.5854 28.0905 34.2185 29.3955C33.8517 30.7004 33.2266 31.9185 32.3803 32.9774C31.534 34.0363 30.4838 34.9146 29.2919 35.5602C28.1 36.2058 26.7906 36.6056 25.4414 36.7359C24.0921 36.8662 22.7304 36.7243 21.437 36.3187C20.1436 35.9131 18.9447 35.252 17.9115 34.3745C16.8782 33.4971 16.0316 32.4212 15.4218 31.2105L1.8457 38.5641L37.0121 103.488L108.209 64.9238L73.0423 0Z" fill="#F2F2F2"/>
<path d="M23.8623 34.873C28.4019 34.873 32.0819 31.1929 32.0819 26.6533C32.0819 22.1137 28.4019 18.4336 23.8623 18.4336C19.3227 18.4336 15.6426 22.1137 15.6426 26.6533C15.6426 31.1929 19.3227 34.873 23.8623 34.873Z" fill="#644A98"/>
<path d="M173.022 173.806L216.071 159.764C215.613 158.488 215.415 157.134 215.489 155.78C215.564 154.427 215.909 153.102 216.505 151.884C217.101 150.667 217.935 149.581 218.959 148.692C219.982 147.803 221.173 147.128 222.462 146.708C223.75 146.287 225.11 146.13 226.461 146.245C227.812 146.36 229.125 146.745 230.325 147.377C231.524 148.009 232.584 148.875 233.442 149.924C234.301 150.973 234.94 152.184 235.321 153.485L250 148.697L227.103 78.5005L150.125 103.61L173.022 173.806Z" fill="#F2F2F2"/>
<path d="M226.198 164.667C230.738 164.667 234.418 160.987 234.418 156.447C234.418 151.908 230.738 148.228 226.198 148.228C221.658 148.228 217.978 151.908 217.978 156.447C217.978 160.987 221.658 164.667 226.198 164.667Z" fill="#644A98"/>
<path d="M227.894 38.5107H29.1331V128.811H227.894V38.5107Z" fill="#3F3D56"/>
<path d="M224.615 41.7896H32.4121V123.766H224.615V41.7896Z" fill="white"/>
<path d="M205.067 119.856H186.402V126.162H205.067V119.856Z" fill="#3F3D56"/>
<path d="M185.393 124.649H171.772V126.415H185.393V124.649Z" fill="#644A98"/>
<path d="M48.0508 72.8149H121.451L132.831 78.3588L150.963 87.1923L162.818 64.9956H196.365" stroke="#3F3D56" stroke-width="2" stroke-miterlimit="10"/>
<path d="M76.9126 72.8145L82.3546 85.6784H95.723" stroke="#3F3D56" stroke-width="2" stroke-miterlimit="10"/>
<path d="M97.314 72.8145L115.902 62.7251H129.018" stroke="#3F3D56" stroke-width="2" stroke-miterlimit="10"/>
<path d="M76.8055 75.0847C78.0593 75.0847 79.0756 74.0683 79.0756 72.8145C79.0756 71.5608 78.0593 70.5444 76.8055 70.5444C75.5518 70.5444 74.5354 71.5608 74.5354 72.8145C74.5354 74.0683 75.5518 75.0847 76.8055 75.0847Z" fill="#644A98"/>
<path d="M97.9933 75.0847C99.247 75.0847 100.263 74.0683 100.263 72.8145C100.263 71.5608 99.247 70.5444 97.9933 70.5444C96.7395 70.5444 95.7231 71.5608 95.7231 72.8145C95.7231 74.0683 96.7395 75.0847 97.9933 75.0847Z" fill="#644A98"/>
<path d="M132.802 78.3638L134.315 100.813H147.431" stroke="#3F3D56" stroke-width="2" stroke-miterlimit="10"/>
<path d="M158.063 73.8973L143.648 62.7251H157.268" stroke="#3F3D56" stroke-width="2" stroke-miterlimit="10"/>
<path d="M181.874 64.9956L195.86 76.0939H208.977" stroke="#3F3D56" stroke-width="2" stroke-miterlimit="10"/>
<path d="M132.802 80.634C134.055 80.634 135.072 79.6176 135.072 78.3639C135.072 77.1101 134.055 76.0938 132.802 76.0938C131.548 76.0938 130.531 77.1101 130.531 78.3639C130.531 79.6176 131.548 80.634 132.802 80.634Z" fill="#644A98"/>
<path d="M181.735 67.2653C182.989 67.2653 184.005 66.249 184.005 64.9952C184.005 63.7415 182.989 62.7251 181.735 62.7251C180.481 62.7251 179.465 63.7415 179.465 64.9952C179.465 66.249 180.481 67.2653 181.735 67.2653Z" fill="#644A98"/>
<path d="M158.025 76.0934C159.279 76.0934 160.295 75.0771 160.295 73.8233C160.295 72.5696 159.279 71.5532 158.025 71.5532C156.771 71.5532 155.755 72.5696 155.755 73.8233C155.755 75.0771 156.771 76.0934 158.025 76.0934Z" fill="#644A98"/>
<path d="M82.6069 87.6963H95.7231" stroke="#3F3D56" stroke-width="2" stroke-miterlimit="10"/>
<path d="M204.195 22.7733C206.25 22.7733 207.916 21.107 207.916 19.0515C207.916 16.9959 206.25 15.3296 204.195 15.3296C202.139 15.3296 200.473 16.9959 200.473 19.0515C200.473 21.107 202.139 22.7733 204.195 22.7733Z" stroke="#3F3D56" stroke-width="2" stroke-miterlimit="10"/>
<path d="M38.3397 194.266C59.5141 194.266 76.6794 191.104 76.6794 187.203C76.6794 183.303 59.5141 180.141 38.3397 180.141C17.1653 180.141 0 183.303 0 187.203C0 191.104 17.1653 194.266 38.3397 194.266Z" fill="#F2F2F2"/>
<path d="M64.6702 124.518L57.8303 127.968L58.273 128.85L65.1126 125.399L64.6702 124.518Z" fill="#856FB3"/>
<path d="M63.5583 118.099L63.251 119.943C63.251 119.943 63.7119 132.695 60.3318 128.7C56.9517 124.706 59.2563 119.328 59.2563 119.328L60.1782 117.792L63.5583 118.099Z" fill="#FBBEBE"/>
<path d="M43.8922 59.1011C43.8922 59.1011 43.2777 65.554 42.9704 65.8613C42.6631 66.1685 47.5796 72.0069 47.5796 72.0069L51.8815 68.0122C51.8815 68.0122 51.5742 62.1739 52.4961 60.9448C53.4179 59.7156 43.8922 59.1011 43.8922 59.1011Z" fill="#FBBEBE"/>
<path opacity="0.1" d="M43.8922 59.1011C43.8922 59.1011 43.2777 65.554 42.9704 65.8613C42.6631 66.1685 47.5796 72.0069 47.5796 72.0069L51.8815 68.0122C51.8815 68.0122 51.5742 62.1739 52.4961 60.9448C53.4179 59.7156 43.8922 59.1011 43.8922 59.1011Z" fill="black"/>
<path d="M32.5229 176.79V182.321L30.3718 182.629L27.2991 181.707L28.2207 175.868L32.5229 176.79Z" fill="#3F3D56"/>
<path d="M29.7573 179.555C29.7573 179.555 28.8355 177.097 27.2991 177.405C25.7627 177.712 25.4554 179.555 25.4554 179.555C25.4554 179.555 24.2263 184.165 22.3826 185.701C20.5389 187.237 18.6952 191.232 22.3826 191.847C26.0699 192.461 29.1428 190.925 29.1428 190.618C29.1428 190.31 30.0646 188.467 31.601 188.159C33.1374 187.852 34.3665 187.545 34.3665 186.316C34.3665 185.087 33.4447 183.857 33.4447 183.857C33.4447 183.857 33.1374 178.029 32.5228 178.792C32.0978 179.395 31.7855 180.07 31.601 180.785L29.7573 179.555Z" fill="#2F2E41"/>
<path d="M45.736 174.025L44.5068 178.634L47.5796 179.248L49.1159 177.712L49.4231 173.717L45.736 174.025Z" fill="#3F3D56"/>
<path d="M45.4286 178.019C45.4286 178.019 46.6577 177.097 47.2723 177.097H48.1941C48.1941 177.097 48.1941 174.946 49.7305 174.946C51.267 174.946 50.9597 176.483 50.9597 176.483C50.9597 176.483 54.3398 181.706 55.2616 182.628C56.1835 183.55 61.1 186.316 57.1053 187.545C53.1106 188.774 50.3451 188.774 48.5014 186.623C48.5014 186.623 46.6577 185.701 45.4286 185.701C44.1995 185.701 42.6631 185.087 42.6631 184.165C42.6631 183.243 43.5849 181.399 43.5849 181.399C43.5849 181.399 44.1995 175.868 44.5068 176.483C44.814 177.097 45.4286 178.019 45.4286 178.019Z" fill="#2F2E41"/>
<path d="M32.2155 103.35V113.49C32.2155 113.49 28.8354 133.156 28.8354 139.609C28.8354 146.062 23.6116 176.79 26.0699 177.404C28.5281 178.019 34.3665 178.941 34.6737 178.019C34.981 177.097 37.132 147.905 37.4393 147.598C37.7466 147.291 44.1995 123.016 44.1995 123.016L45.4286 123.323L46.0431 150.978C46.0431 150.978 42.9703 175.868 44.5067 175.868C46.0431 175.868 52.496 175.561 52.496 173.717C52.496 171.873 55.8761 137.765 55.8761 137.765C55.8761 137.765 59.8708 110.724 58.3344 107.959C56.798 105.193 56.798 103.657 56.798 103.657L32.2155 103.35Z" fill="#2F2E41"/>
<path d="M48.9623 63.864C52.3564 63.864 55.1079 61.1125 55.1079 57.7184C55.1079 54.3242 52.3564 51.5728 48.9623 51.5728C45.5681 51.5728 42.8167 54.3242 42.8167 57.7184C42.8167 61.1125 45.5681 63.864 48.9623 63.864Z" fill="#FBBEBE"/>
<path d="M47.5797 68.3198C47.5797 68.3198 43.7387 65.0934 43.4314 63.8643C43.4314 63.8643 41.4341 65.8616 41.4341 66.1689C41.4341 66.4761 32.8302 67.398 30.6792 69.8562C28.5283 72.3145 26.6846 77.5383 26.6846 77.5383L31.9084 87.3713C31.9084 87.3713 32.2156 92.9023 32.2156 93.5169C32.2156 94.1314 30.6792 103.964 31.2938 104.272C31.9084 104.579 38.054 107.652 43.2778 107.037C48.5015 106.423 53.7253 105.501 55.2617 105.501C56.7981 105.501 58.0272 106.115 58.0272 105.501C58.0272 104.886 57.1054 103.657 57.1054 103.043C57.1054 102.428 56.7981 100.892 56.7981 99.9698C56.7981 99.0479 56.1836 97.5115 56.1836 96.2824C56.1836 95.0533 62.9437 78.4601 62.9437 78.4601C62.9437 78.4601 62.6365 73.2363 57.72 70.7781C52.8035 68.3198 52.1889 67.398 52.1889 67.398C52.1889 67.398 52.0931 65.5543 51.8337 65.5543C51.5743 65.5543 50.6525 68.3198 48.1943 68.6271L47.5797 68.3198Z" fill="#D1C1F2"/>
<path d="M30.9863 109.188L33.1374 112.568L38.6684 111.339L34.6738 106.73L30.9863 109.188Z" fill="#FBBEBE"/>
<path d="M61.1 76.0015L62.9437 78.4597C62.9437 78.4597 66.6311 96.282 66.0165 102.735C65.402 109.188 64.7874 114.104 64.7874 114.104C64.7874 114.104 66.0165 118.714 65.0947 118.714C64.1728 118.714 58.6418 119.021 58.6418 118.099C58.6418 117.177 59.2563 111.339 59.2563 111.339L57.7199 97.8184L54.3398 93.2092L61.1 76.0015Z" fill="#D1C1F2"/>
<path d="M44.7883 54.7347C45.165 54.575 45.6005 54.7045 46.0039 54.6364C46.4777 54.5564 46.9016 54.2054 47.38 54.2497C47.6067 54.2918 47.8269 54.3633 48.0351 54.4625C48.1396 54.5115 48.2529 54.539 48.3682 54.5431C48.4836 54.5472 48.5985 54.528 48.7062 54.4865C48.7576 54.4627 48.803 54.4277 48.8391 54.3841C48.8752 54.3406 48.9013 54.2896 48.9152 54.2347C48.9292 54.1799 48.9308 54.1226 48.9199 54.0671C48.909 54.0115 48.8859 53.9591 48.8522 53.9136C49.257 53.878 49.6396 53.7133 49.9437 53.4438C50.0043 53.3809 50.0746 53.3281 50.152 53.2875C50.2422 53.264 50.3363 53.2592 50.4283 53.2736C50.5204 53.2879 50.6086 53.321 50.6873 53.3709L51.3905 53.695C51.5489 53.7509 51.6882 53.8506 51.7923 53.9824C51.8759 54.1128 51.8923 54.2882 52.0108 54.388C52.1619 54.5154 52.3879 54.4531 52.5851 54.4656C52.7643 54.483 52.9307 54.5656 53.053 54.6976C53.1753 54.8297 53.2448 55.002 53.2485 55.1819C53.2457 55.3882 53.1706 55.6414 53.3338 55.7677C53.4285 55.8409 53.5629 55.8292 53.6738 55.8742C53.9612 55.9909 53.9623 56.391 53.9198 56.6983C53.8774 57.0055 53.8984 57.4109 54.1938 57.5055C54.4018 57.5721 54.6144 57.4301 54.8305 57.3984C55.1565 57.3507 55.4582 57.5546 55.7484 57.7106C56.0386 57.8666 56.4242 57.9719 56.6757 57.759C56.9098 57.561 56.8948 57.1987 56.8304 56.8989C56.738 56.4691 56.5863 56.0542 56.3795 55.6663C56.303 55.5521 56.258 55.4198 56.2488 55.2827C56.2664 55.1861 56.3042 55.0944 56.3597 55.0135C56.4153 54.9327 56.4874 54.8645 56.5712 54.8135C56.9268 54.5324 57.3358 54.2493 57.4509 53.8109C57.5354 53.4891 57.4404 53.1498 57.4477 52.8172C57.4567 52.4124 57.6176 52.0095 57.5421 51.6117C57.4053 50.8908 56.603 50.5438 56.0851 50.024C55.3734 49.3098 55.1423 48.1673 54.3024 47.6094C53.6305 47.1631 52.7516 47.2164 51.9864 46.9611C51.1459 46.6805 50.4692 46.0361 49.6401 45.7234C49.1875 45.5565 48.7037 45.4918 48.2231 45.534C47.7426 45.5761 47.2774 45.7241 46.8608 45.9672C46.6134 46.1507 46.3373 46.2917 46.0437 46.3847C45.7964 46.4133 45.5465 46.4104 45.2999 46.3761C44.8099 46.3508 44.3215 46.4516 43.8815 46.6687C43.7131 46.736 43.5728 46.859 43.4841 47.0172C43.3357 47.3469 43.5513 47.8623 43.2259 48.02C43.0742 48.0935 42.8951 48.0231 42.7266 48.0268C42.3988 48.034 42.1467 48.3191 41.9908 48.6075C41.8692 48.9123 41.6946 49.1932 41.4752 49.4373C41.0746 49.7881 40.3467 49.8461 40.2421 50.3683C40.2402 50.5893 40.2527 50.8103 40.2796 51.0297C40.2494 51.4924 39.7542 51.8441 39.78 52.3071C39.8098 52.8411 40.4884 53.1021 40.6697 53.6052C40.8078 53.9884 40.6261 54.4027 40.501 54.7902C40.376 55.1778 40.3383 55.6746 40.6612 55.9227C40.7879 56.02 40.9507 56.0599 41.0798 56.1539C41.414 56.3969 41.4098 56.8874 41.3727 57.299C41.3513 57.3844 41.3512 57.4738 41.3723 57.5593C41.3935 57.6448 41.4353 57.7238 41.4941 57.7893C41.5493 57.8227 41.611 57.844 41.675 57.8517C41.739 57.8594 41.804 57.8533 41.8655 57.8339C42.0662 57.7853 42.2548 57.6961 42.4198 57.572C42.5847 57.4478 42.7226 57.2913 42.8249 57.1119C42.9326 56.934 42.9542 56.7772 43.1497 56.6828C43.2824 56.6187 43.4435 56.6759 43.5785 56.5927C44.2209 56.1972 43.9998 55.0688 44.7883 54.7347Z" fill="#2F2E41"/>
<path d="M27.6063 76.6162L26.6845 77.5381C26.6845 77.5381 21.1534 94.1312 22.9971 97.8186C24.8408 101.506 28.5282 110.724 29.7573 110.417C30.9864 110.11 35.2884 107.344 35.2884 107.037C35.2884 106.73 30.0646 98.1259 30.0646 98.1259C30.0646 98.1259 29.45 96.2822 29.7573 95.9749C30.0646 95.6676 30.0646 95.9749 29.7573 95.3604C29.45 94.7458 29.45 95.3604 30.0646 94.7458C30.6791 94.1312 30.6791 94.1312 30.6791 93.824C30.6791 93.5167 32.5228 85.8346 32.5228 85.8346L27.6063 76.6162Z" fill="#D1C1F2"/>
<path d="M32.3689 112.722L39.1293 110.571L40.051 112.722L32.6764 114.258L32.3689 112.722Z" fill="#2F2E41"/>
<path opacity="0.1" d="M32.3689 112.722L39.1293 110.571L40.051 112.722L32.6764 114.258L32.3689 112.722Z" fill="black"/>
<path opacity="0.1" d="M41.5874 66.3223L46.8112 70.6241L47.4259 69.7022L41.5874 66.3223Z" fill="black"/>
<path opacity="0.1" d="M52.0351 67.5518L48.3479 69.7026L48.6551 70.6245L52.0351 67.5518Z" fill="black"/>
</g>
<defs>
<clipPath id="clip0">
<rect width="250" height="194.266" fill="white"/>
</clipPath>
</defs>
</svg>
