<svg width="250" height="187" viewBox="0 0 250 187" fill="none" xmlns="http://www.w3.org/2000/svg">
<g clip-path="url(#clip0)">
<path d="M87.3625 57.1914H119.623" stroke="#3F3D56" stroke-width="2" stroke-miterlimit="10"/>
<path d="M48.9299 92.7953C50.6748 88.2301 50.9276 84.0852 49.4944 83.5374C48.0612 82.9896 45.4849 86.2464 43.74 90.8116C41.9951 95.3768 41.7424 99.5217 43.1755 100.069C44.6087 100.617 47.185 97.3605 48.9299 92.7953Z" fill="#2F2E41"/>
<path d="M248.974 114.098C252.484 140.218 247.705 166.366 223.397 176.548C199.089 186.73 171.129 175.279 160.947 150.971C150.765 126.663 174.789 112.118 186.525 88.521C210.356 40.6022 238.075 32.9845 248.974 114.098Z" fill="#F2F2F2"/>
<path d="M205.213 183.16C226.247 183.16 243.298 180.841 243.298 177.979C243.298 175.118 226.247 172.798 205.213 172.798C184.179 172.798 167.128 175.118 167.128 177.979C167.128 180.841 184.179 183.16 205.213 183.16Z" fill="#3F3D56"/>
<path d="M180.298 164.792L181.731 169.975L191.016 167.408L189.583 162.226L180.298 164.792Z" fill="#2F2E41"/>
<path d="M180.938 170.891C181.832 170.644 182.023 168.51 181.364 166.125C180.704 163.74 179.445 162.007 178.55 162.254C177.656 162.501 177.465 164.635 178.125 167.02C178.784 169.405 180.044 171.139 180.938 170.891Z" fill="#2F2E41"/>
<path d="M209.605 146.968C210.262 142.125 209.562 138.032 208.041 137.826C206.521 137.62 204.756 141.379 204.1 146.222C203.443 151.065 204.144 155.158 205.664 155.364C207.184 155.57 208.949 151.811 209.605 146.968Z" fill="#2F2E41"/>
<path d="M205.12 180.86C214.895 180.86 222.818 172.937 222.818 163.162C222.818 153.387 214.895 145.463 205.12 145.463C195.345 145.463 187.421 153.387 187.421 163.162C187.421 172.937 195.345 180.86 205.12 180.86Z" fill="#2F2E41"/>
<path d="M180.298 161.656L181.731 166.838L191.016 164.272L189.583 159.089L180.298 161.656Z" fill="#2F2E41"/>
<path d="M180.938 167.755C181.832 167.507 182.023 165.373 181.364 162.988C180.704 160.603 179.445 158.87 178.55 159.117C177.656 159.365 177.465 161.498 178.125 163.884C178.784 166.269 180.044 168.002 180.938 167.755Z" fill="#2F2E41"/>
<path d="M209.767 159.072C213.108 159.072 215.816 156.364 215.816 153.023C215.816 149.682 213.108 146.974 209.767 146.974C206.427 146.974 203.719 149.682 203.719 153.023C203.719 156.364 206.427 159.072 209.767 159.072Z" fill="white"/>
<path d="M211.702 152.368C212.815 152.368 213.718 151.465 213.718 150.351C213.718 149.238 212.815 148.335 211.702 148.335C210.588 148.335 209.685 149.238 209.685 150.351C209.685 151.465 210.588 152.368 211.702 152.368Z" fill="#3F3D56"/>
<path d="M225.558 175.324C232.108 174.997 237.124 168.871 236.762 161.642C236.4 154.412 230.798 148.818 224.248 149.146C217.699 149.473 216.671 154.615 217.033 161.844C217.394 169.073 219.009 175.652 225.558 175.324Z" fill="#F0C864"/>
<path d="M197.887 155.674C196.821 155.76 195.764 155.419 194.95 154.726C194.135 154.033 193.629 153.045 193.543 151.979C193.457 150.914 193.797 149.857 194.49 149.042C195.182 148.228 196.17 147.721 197.236 147.635C199.456 147.455 200.061 149.217 200.241 151.437C200.421 153.657 200.106 155.494 197.887 155.674Z" fill="white"/>
<path d="M11.0813 80.8812H110.214L125.583 88.3688L150.071 100.299L166.082 70.3208H211.39" stroke="#3F3D56" stroke-width="2" stroke-miterlimit="10"/>
<path d="M49.9168 87.0836C51.6101 87.0836 52.9827 85.7109 52.9827 84.0176C52.9827 82.3243 51.6101 80.9517 49.9168 80.9517C48.2235 80.9517 46.8508 82.3243 46.8508 84.0176C46.8508 85.7109 48.2235 87.0836 49.9168 87.0836Z" fill="#856FB3"/>
<path d="M78.5325 83.9469C80.2258 83.9469 81.5985 82.5742 81.5985 80.8809C81.5985 79.1876 80.2258 77.8149 78.5325 77.8149C76.8392 77.8149 75.4666 79.1876 75.4666 80.8809C75.4666 82.5742 76.8392 83.9469 78.5325 83.9469Z" fill="#856FB3"/>
<path d="M125.544 91.4415C127.237 91.4415 128.61 90.0688 128.61 88.3755C128.61 86.6822 127.237 85.3096 125.544 85.3096C123.85 85.3096 122.478 86.6822 122.478 88.3755C122.478 90.0688 123.85 91.4415 125.544 91.4415Z" fill="#856FB3"/>
<path d="M191.632 73.3868C193.325 73.3868 194.698 72.0141 194.698 70.3208C194.698 68.6276 193.325 67.2549 191.632 67.2549C189.939 67.2549 188.566 68.6276 188.566 70.3208C188.566 72.0141 189.939 73.3868 191.632 73.3868Z" fill="#856FB3"/>
<path d="M159.61 85.3096C161.303 85.3096 162.676 83.937 162.676 82.2437C162.676 80.5504 161.303 79.1777 159.61 79.1777C157.916 79.1777 156.544 80.5504 156.544 82.2437C156.544 83.937 157.916 85.3096 159.61 85.3096Z" fill="#856FB3"/>
<path d="M95.7903 133.567C97.616 133.567 99.096 132.087 99.096 130.261C99.096 128.436 97.616 126.956 95.7903 126.956C93.9646 126.956 92.4846 128.436 92.4846 130.261C92.4846 132.087 93.9646 133.567 95.7903 133.567Z" stroke="#3F3D56" stroke-width="2" stroke-miterlimit="10"/>
<path d="M38.0854 186.521C59.1194 186.521 76.1708 184.201 76.1708 181.339C76.1708 178.478 59.1194 176.158 38.0854 176.158C17.0514 176.158 0 178.478 0 181.339C0 184.201 17.0514 186.521 38.0854 186.521Z" fill="#3F3D56"/>
<path d="M36.0254 173.722C45.8 173.722 53.7239 165.798 53.7239 156.024C53.7239 146.249 45.8 138.325 36.0254 138.325C26.2508 138.325 18.3269 146.249 18.3269 156.024C18.3269 165.798 26.2508 173.722 36.0254 173.722Z" fill="#2F2E41"/>
<path d="M33.337 169.914H27.9602V179.547H33.337V169.914Z" fill="#2F2E41"/>
<path d="M44.0906 169.914H38.7139V179.547H44.0906V169.914Z" fill="#2F2E41"/>
<path d="M32.4408 181.339C34.9154 181.339 36.9215 180.587 36.9215 179.659C36.9215 178.731 34.9154 177.979 32.4408 177.979C29.9663 177.979 27.9602 178.731 27.9602 179.659C27.9602 180.587 29.9663 181.339 32.4408 181.339Z" fill="#2F2E41"/>
<path d="M43.1945 181.115C45.6691 181.115 47.6751 180.363 47.6751 179.435C47.6751 178.507 45.6691 177.755 43.1945 177.755C40.7199 177.755 38.7139 178.507 38.7139 179.435C38.7139 180.363 40.7199 181.115 43.1945 181.115Z" fill="#2F2E41"/>
<path d="M36.4734 157.592C39.8141 157.592 42.5223 154.884 42.5223 151.543C42.5223 148.202 39.8141 145.494 36.4734 145.494C33.1327 145.494 30.4246 148.202 30.4246 151.543C30.4246 154.884 33.1327 157.592 36.4734 157.592Z" fill="white"/>
<path d="M36.4736 153.559C37.5871 153.559 38.4898 152.657 38.4898 151.543C38.4898 150.43 37.5871 149.527 36.4736 149.527C35.36 149.527 34.4573 150.43 34.4573 151.543C34.4573 152.657 35.36 153.559 36.4736 153.559Z" fill="#3F3D56"/>
<path d="M18.8574 139.564C17.4283 133.164 21.9965 126.697 29.0607 125.12C36.1248 123.543 43.01 127.452 44.4391 133.852C45.8681 140.252 41.1864 142.613 34.1223 144.19C27.0581 145.768 20.2864 145.965 18.8574 139.564Z" fill="#F0C864"/>
<path d="M29.9766 122.867C39.7512 122.867 47.6751 114.943 47.6751 105.169C47.6751 95.3941 39.7512 87.4702 29.9766 87.4702C20.202 87.4702 12.2781 95.3941 12.2781 105.169C12.2781 114.943 20.202 122.867 29.9766 122.867Z" fill="#2F2E41"/>
<path d="M27.2881 119.059H21.9114V128.692H27.2881V119.059Z" fill="#2F2E41"/>
<path d="M38.0418 119.059H32.665V128.692H38.0418V119.059Z" fill="#2F2E41"/>
<path d="M26.392 130.484C28.8666 130.484 30.8726 129.732 30.8726 128.804C30.8726 127.876 28.8666 127.124 26.392 127.124C23.9174 127.124 21.9114 127.876 21.9114 128.804C21.9114 129.732 23.9174 130.484 26.392 130.484Z" fill="#2F2E41"/>
<path d="M37.1457 130.26C39.6203 130.26 41.6263 129.508 41.6263 128.58C41.6263 127.652 39.6203 126.899 37.1457 126.899C34.6711 126.899 32.665 127.652 32.665 128.58C32.665 129.508 34.6711 130.26 37.1457 130.26Z" fill="#2F2E41"/>
<path d="M30.4246 106.737C33.7653 106.737 36.4734 104.029 36.4734 100.688C36.4734 97.3473 33.7653 94.6392 30.4246 94.6392C27.0839 94.6392 24.3757 97.3473 24.3757 100.688C24.3757 104.029 27.0839 106.737 30.4246 106.737Z" fill="white"/>
<path d="M30.4245 102.704C31.5381 102.704 32.4408 101.802 32.4408 100.688C32.4408 99.5746 31.5381 98.6719 30.4245 98.6719C29.3109 98.6719 28.4082 99.5746 28.4082 100.688C28.4082 101.802 29.3109 102.704 30.4245 102.704Z" fill="#3F3D56"/>
<path d="M12.8083 88.7095C11.3792 82.3094 15.9474 75.8425 23.0116 74.2651C30.0758 72.6877 36.9609 76.5973 38.39 82.9973C39.8191 89.3974 35.1374 91.7578 28.0732 93.3352C21.009 94.9125 14.2373 95.1095 12.8083 88.7095Z" fill="#F0C864"/>
<path d="M18.0375 100.749C18.695 99.3623 15.6483 96.5407 11.2325 94.4464C6.81664 92.352 2.70392 91.778 2.04643 93.1643C1.38895 94.5505 4.43568 97.3721 8.8515 99.4665C13.2673 101.561 17.38 102.135 18.0375 100.749Z" fill="#2F2E41"/>
<path d="M21.283 111.553C21.283 113.286 25.7431 116.706 30.6923 116.706C35.6415 116.706 40.2819 111.829 40.2819 110.097C40.2819 108.365 35.6415 110.433 30.6923 110.433C25.7431 110.433 21.283 109.821 21.283 111.553Z" fill="white"/>
<path d="M215.43 126.513H187.173V140.887H215.43V126.513Z" fill="#644A98"/>
<path d="M213.218 128.847H184.961V143.221H213.218V128.847Z" stroke="#3F3D56" stroke-width="2" stroke-miterlimit="10"/>
<path d="M58.8315 44.5825H50.7664V52.6477H58.8315V44.5825Z" fill="#644A98"/>
<path d="M56.8151 41.894H48.75V49.9592H56.8151V41.894Z" stroke="#3F3D56" stroke-width="2" stroke-miterlimit="10"/>
<path d="M202.984 60.146C212.759 60.146 220.683 52.2221 220.683 42.4475C220.683 32.6729 212.759 24.749 202.984 24.749C193.21 24.749 185.286 32.6729 185.286 42.4475C185.286 52.2221 193.21 60.146 202.984 60.146Z" fill="#2F2E41"/>
<path d="M209.82 65.1145L215.11 64.1567L213.394 54.6774L208.104 55.6352L209.82 65.1145Z" fill="#2F2E41"/>
<path d="M199.239 67.031L204.529 66.0732L202.813 56.594L197.522 57.5517L199.239 67.031Z" fill="#2F2E41"/>
<path d="M202.047 69.0261C203.935 67.4269 204.98 65.5563 204.38 64.8482C203.781 64.14 201.764 64.8624 199.875 66.4617C197.987 68.061 196.942 69.9315 197.542 70.6396C198.142 71.3478 200.159 70.6254 202.047 69.0261Z" fill="#2F2E41"/>
<path d="M212.408 67.1501C214.297 65.5509 215.341 63.6804 214.742 62.9722C214.142 62.2641 212.125 62.9865 210.237 64.5857C208.348 66.185 207.304 68.0555 207.903 68.7636C208.503 69.4718 210.52 68.7494 212.408 67.1501Z" fill="#2F2E41"/>
<path d="M201.745 44.167C205.086 44.167 207.794 41.4589 207.794 38.1182C207.794 34.7775 205.086 32.0693 201.745 32.0693C198.404 32.0693 195.696 34.7775 195.696 38.1182C195.696 41.4589 198.404 44.167 201.745 44.167Z" fill="white"/>
<path d="M199.259 37.9662C200.373 37.9662 201.275 37.0634 201.275 35.9499C201.275 34.8363 200.373 33.9336 199.259 33.9336C198.146 33.9336 197.243 34.8363 197.243 35.9499C197.243 37.0634 198.146 37.9662 199.259 37.9662Z" fill="#3F3D56"/>
<path d="M216.946 23.1931C217.212 16.6409 211.565 11.0911 204.333 10.7973C197.101 10.5035 191.022 15.577 190.756 22.1293C190.49 28.6815 195.517 30.1702 202.749 30.464C209.981 30.7578 216.68 29.7454 216.946 23.1931Z" fill="#F0C864"/>
<path d="M195.268 41.2C195.611 39.7045 192.027 37.607 187.263 36.5151C182.499 35.4231 178.359 35.7503 178.017 37.2458C177.674 38.7413 181.258 40.8388 186.022 41.9307C190.785 43.0227 194.925 42.6955 195.268 41.2Z" fill="#2F2E41"/>
<path d="M230.009 46.9774C230.352 45.4819 226.768 43.3844 222.004 42.2924C217.241 41.2005 213.101 41.5276 212.758 43.0231C212.415 44.5186 215.999 46.6161 220.763 47.7081C225.527 48.8 229.666 48.4729 230.009 46.9774Z" fill="#2F2E41"/>
<path d="M207.845 49.4219C207.939 49.943 207.93 50.4776 207.818 50.9951C207.706 51.5127 207.493 52.003 207.191 52.4382C206.889 52.8734 206.505 53.2448 206.059 53.5314C205.614 53.818 205.116 54.014 204.595 54.1083C204.074 54.2027 203.54 54.1935 203.022 54.0812C202.505 53.9689 202.014 53.7558 201.579 53.4541C201.144 53.1523 200.772 52.7678 200.486 52.3224C200.199 51.8771 200.003 51.3797 199.909 50.8586C199.512 48.6671 201.207 47.8916 203.398 47.4949C205.59 47.0981 207.448 47.2304 207.845 49.4219Z" fill="white"/>
<path d="M159.646 22.1792L180.032 37.8614" stroke="#3F3D56" stroke-width="2" stroke-miterlimit="10"/>
<path d="M150.012 30.4683C158.426 30.4683 165.246 23.6477 165.246 15.2342C165.246 6.82056 158.426 0 150.012 0C141.599 0 134.778 6.82056 134.778 15.2342C134.778 23.6477 141.599 30.4683 150.012 30.4683Z" fill="#644A98"/>
<path d="M202.962 151.173C203.619 146.33 202.918 142.237 201.398 142.031C199.878 141.825 198.113 145.584 197.457 150.427C196.8 155.27 197.501 159.363 199.021 159.569C200.541 159.775 202.306 156.016 202.962 151.173Z" fill="#2F2E41"/>
<path d="M15.416 179.161C17.1093 179.161 18.482 177.788 18.482 176.095C18.482 174.401 17.1093 173.029 15.416 173.029C13.7228 173.029 12.3501 174.401 12.3501 176.095C12.3501 177.788 13.7228 179.161 15.416 179.161Z" fill="#644A98"/>
<path d="M65.5524 172.504H57.4873V180.57H65.5524V172.504Z" fill="#644A98"/>
<path d="M57.534 180.953C59.2273 180.953 60.5999 179.58 60.5999 177.887C60.5999 176.193 59.2273 174.821 57.534 174.821C55.8407 174.821 54.468 176.193 54.468 177.887C54.468 179.58 55.8407 180.953 57.534 180.953Z" fill="#644A98"/>
<path d="M103.493 60.1998C105.186 60.1998 106.559 58.8271 106.559 57.1338C106.559 55.4405 105.186 54.0679 103.493 54.0679C101.8 54.0679 100.427 55.4405 100.427 57.1338C100.427 58.8271 101.8 60.1998 103.493 60.1998Z" fill="#856FB3"/>
<path d="M163.032 153.638C163.841 153.638 164.497 152.983 164.497 152.174C164.497 151.365 163.841 150.71 163.032 150.71C162.224 150.71 161.568 151.365 161.568 152.174C161.568 152.983 162.224 153.638 163.032 153.638Z" fill="#644A98"/>
<path d="M170.206 176.475V159.805" stroke="#3F3D56" stroke-width="2" stroke-miterlimit="10"/>
<path d="M170.206 162.162C171.508 162.162 172.563 161.107 172.563 159.805C172.563 158.503 171.508 157.447 170.206 157.447C168.904 157.447 167.848 158.503 167.848 159.805C167.848 161.107 168.904 162.162 170.206 162.162Z" fill="#3F3D56"/>
<path d="M170.206 170.079C170.206 170.079 169.869 162.836 162.965 163.677L170.206 170.079Z" fill="#3F3D56"/>
</g>
<defs>
<clipPath id="clip0">
<rect width="250" height="186.521" fill="white"/>
</clipPath>
</defs>
</svg>
