<svg width="250" height="338" viewBox="0 0 250 338" fill="none" xmlns="http://www.w3.org/2000/svg">
<g clip-path="url(#clip0)">
<path d="M250 80.1828H248.146V29.3947C248.146 25.5346 247.386 21.7122 245.909 18.1459C244.431 14.5795 242.266 11.3391 239.537 8.60953C236.807 5.87998 233.567 3.71477 230 2.23755C226.434 0.760322 222.612 3.04429e-06 218.751 0H111.15C107.29 -9.13255e-06 103.467 0.7603 99.9012 2.23752C96.3348 3.71473 93.0944 5.87992 90.3648 8.60947C87.6353 11.339 85.47 14.5795 83.9928 18.1458C82.5156 21.7121 81.7553 25.5345 81.7552 29.3947V308.022C81.7552 315.818 84.8522 323.294 90.3648 328.807C95.8773 334.319 103.354 337.416 111.15 337.416H218.751C226.547 337.416 234.024 334.32 239.536 328.807C245.049 323.294 248.146 315.818 248.146 308.022V116.335H250L250 80.1828Z" fill="#3F3D56"/>
<path d="M219.937 7.64748H205.892C206.538 9.23106 206.784 10.9492 206.61 12.6505C206.435 14.3518 205.845 15.9841 204.891 17.4036C203.937 18.823 202.648 19.9861 201.139 20.7904C199.63 21.5946 197.946 22.0154 196.236 22.0155H134.592C132.882 22.0154 131.198 21.5946 129.689 20.7904C128.179 19.9861 126.891 18.8231 125.937 17.4036C124.983 15.9841 124.393 14.3518 124.218 12.6505C124.044 10.9492 124.29 9.23104 124.936 7.64746H111.818C105.996 7.64746 100.412 9.96021 96.2955 14.0769C92.1787 18.1937 89.866 23.7771 89.866 29.5991V307.817C89.866 310.7 90.4338 313.555 91.5369 316.218C92.6401 318.881 94.2571 321.301 96.2955 323.339C98.3339 325.378 100.754 326.995 103.417 328.098C106.08 329.201 108.935 329.769 111.818 329.769H219.937C222.82 329.769 225.674 329.201 228.338 328.098C231.001 326.995 233.421 325.378 235.459 323.339C237.498 321.301 239.115 318.881 240.218 316.218C241.321 313.555 241.889 310.7 241.889 307.817V29.5991C241.889 26.7164 241.321 23.8619 240.218 21.1986C239.115 18.5353 237.498 16.1153 235.459 14.0769C233.421 12.0385 231.001 10.4216 228.338 9.31844C225.674 8.21527 222.82 7.64748 219.937 7.64748Z" fill="white"/>
<path d="M228.135 62.3521H103.62V275.064H228.135V62.3521Z" fill="#E6E6E6"/>
<path d="M61.8035 107.548C67.5111 112.304 56.0958 127.103 56.0958 127.103C56.0958 127.103 83.2072 128.16 81.0668 128.16C78.9264 128.16 77.1428 105.698 77.1428 105.698C77.1428 105.698 56.0958 102.791 61.8035 107.548Z" fill="#FFB8B8"/>
<path d="M50.7805 167.741L75.3527 176.55L88.7978 182.114C88.7978 182.114 97.6067 206.222 101.779 216.886C105.952 227.549 92.5068 244.703 92.5068 244.703C92.5068 244.703 93.8977 249.803 92.5068 252.121C91.7878 253.304 91.1675 254.545 90.6523 255.83C90.1887 256.757 85.0888 256.294 79.5253 255.83C73.9618 255.366 79.0617 246.558 79.0617 246.558C79.0617 246.558 83.6979 228.013 84.1616 227.549C84.5945 227.116 85.8362 223.852 84.488 222.668C83.233 221.629 82.2019 220.347 81.4573 218.898C80.8334 217.65 80.0259 216.503 79.0617 215.495C79.0617 215.495 64.3672 193.824 57.1102 188.896C49.8532 183.968 33.0017 189.824 33.0017 189.824C33.0017 189.824 41.0444 202.049 41.0444 204.831C41.0444 207.613 41.508 209.004 42.8989 209.931C44.2897 210.858 43.8261 212.713 43.8261 214.567C43.8261 216.422 45.217 220.131 47.5351 221.985C49.8532 223.84 50.3169 225.694 49.8532 229.403C49.3896 233.112 36.8717 231.258 36.8717 231.258L30.8446 219.667C30.8446 219.667 21.5721 204.831 15.545 189.068C12.5314 181.186 15.6609 175.855 19.5437 172.493C23.285 169.32 28.0997 167.7 32.9983 167.966L54.7921 168.96L39.1899 164.496L50.7805 167.741Z" fill="#2F2E41"/>
<path d="M131.915 126.478L158.341 114.424C158.341 114.424 167.614 98.661 162.05 96.8065C156.487 94.952 151.851 110.715 151.851 110.715L132.842 114.424L131.915 126.478Z" fill="#FFB8B8"/>
<path d="M27.1355 134.824C27.1355 134.824 13.6903 146.878 13.2267 148.269C12.7631 149.66 4.41784 153.369 0.708832 146.878C-3.00017 140.387 9.05409 140.851 9.05409 140.851L17.3994 130.188L27.1355 134.824Z" fill="#FFB8B8"/>
<path d="M13.5293 127.698L27.9017 138.361L51.5466 130.016C47.1518 143.776 50.595 158.348 36.1597 166.788L90.8675 185.333C86.0256 165.839 93.6724 149.7 100.227 130.016C110.61 124.665 123.633 125.931 137.781 130.016V111.007L80.2914 114.253L71.3953 119.035L60.8191 116.107C45.5094 113.625 26.3817 119.049 13.5293 127.698Z" fill="#856FB3"/>
<path d="M48.9261 228.94C50.317 229.867 52.6351 238.676 53.0988 241.921C53.5624 245.167 49.3898 246.558 47.0716 247.021C44.7535 247.485 45.2171 248.876 43.8263 250.267C42.4354 251.658 37.3355 252.121 30.3811 250.73C23.4267 249.339 33.6265 240.531 34.5537 240.067C35.481 239.603 38.2627 228.94 38.2627 228.94C38.2627 228.94 47.5353 228.013 48.9261 228.94Z" fill="#2F2E41"/>
<path d="M87.4068 254.439L91.1158 264.175L94.6227 269.436C95.5775 270.838 96.2217 272.429 96.5121 274.101C96.8025 275.773 96.7323 277.487 96.3064 279.13C95.7158 281.304 94.4915 283.358 92.043 284.111C86.0159 285.966 82.3069 274.375 82.3069 274.375C82.3069 274.375 79.0615 267.884 76.7434 261.857C74.4252 255.83 78.5979 252.585 78.5979 252.585L87.4068 254.439Z" fill="#2F2E41"/>
<path d="M69.6251 113.43C75.7693 113.43 80.7502 108.449 80.7502 102.305C80.7502 96.1606 75.7693 91.1797 69.6251 91.1797C63.4809 91.1797 58.5 96.1606 58.5 102.305C58.5 108.449 63.4809 113.43 69.6251 113.43Z" fill="#FFB8B8"/>
<path d="M82.2367 99.5554C82.7278 98.1521 82.9177 96.6611 82.794 95.1795C82.6704 93.6979 82.2359 92.259 81.519 90.9565C80.0899 88.4222 77.3379 86.0465 72.0471 85.9125C60.5036 85.6201 55.5014 94.3238 56.1518 96.876C56.8021 99.4283 59.129 105.501 59.129 105.501C59.129 105.501 57.6861 99.6534 60.572 99.0687C63.4578 98.484 74.6406 96.1451 77.8872 98.7764C78.8131 99.4853 79.5346 100.427 79.9781 101.505C80.4217 102.584 80.5715 103.761 80.4124 104.916L82.2367 99.5554Z" fill="#2F2E41"/>
<path d="M166.062 314.221C172.719 314.221 178.116 308.824 178.116 302.167C178.116 295.509 172.719 290.113 166.062 290.113C159.405 290.113 154.008 295.509 154.008 302.167C154.008 308.824 159.405 314.221 166.062 314.221Z" fill="#E6E6E6"/>
</g>
<defs>
<clipPath id="clip0">
<rect width="250" height="337.417" fill="white"/>
</clipPath>
</defs>
</svg>
