<svg width="230" height="164" viewBox="0 0 230 164" fill="none" xmlns="http://www.w3.org/2000/svg">
<g clip-path="url(#clip0)">
<path d="M19.5464 163.44C30.3362 163.44 39.0831 162.392 39.0831 161.1C39.0831 159.807 30.3362 158.76 19.5464 158.76C8.75663 158.76 0.00976562 159.807 0.00976562 161.1C0.00976562 162.392 8.75663 163.44 19.5464 163.44Z" fill="#E6E6E6"/>
<path d="M230 0.101562H51.0176V114.73H230V0.101562Z" fill="#E6E6E6"/>
<path d="M224.882 14.4788H56.1353V107.948H224.882V14.4788Z" fill="white"/>
<path d="M229.923 0H50.9409V7.60383H229.923V0Z" fill="#644A98"/>
<path d="M56.5914 5.29665C57.3698 5.29665 58.0007 4.66568 58.0007 3.88734C58.0007 3.109 57.3698 2.47803 56.5914 2.47803C55.8131 2.47803 55.1821 3.109 55.1821 3.88734C55.1821 4.66568 55.8131 5.29665 56.5914 5.29665Z" fill="white"/>
<path d="M61.9411 5.29665C62.7194 5.29665 63.3504 4.66568 63.3504 3.88734C63.3504 3.109 62.7194 2.47803 61.9411 2.47803C61.1627 2.47803 60.5317 3.109 60.5317 3.88734C60.5317 4.66568 61.1627 5.29665 61.9411 5.29665Z" fill="white"/>
<path d="M67.2907 5.29665C68.069 5.29665 68.7 4.66568 68.7 3.88734C68.7 3.109 68.069 2.47803 67.2907 2.47803C66.5123 2.47803 65.8813 3.109 65.8813 3.88734C65.8813 4.66568 66.5123 5.29665 67.2907 5.29665Z" fill="white"/>
<path d="M152.037 38.0115C152.008 38.116 151.991 38.2238 151.987 38.3323L152.037 38.0115Z" fill="#7F77FF"/>
<path d="M130.456 47.8869C130.446 47.652 130.404 47.5538 130.366 47.542C130.394 47.7601 130.42 47.9393 130.456 47.8869Z" fill="#7F77FF"/>
<path d="M130.02 52.845C130.013 52.9467 130.005 53.0408 129.992 53.1553C129.968 53.0516 129.977 52.9426 130.02 52.845Z" fill="#7F77FF"/>
<path d="M151.987 38.3323L151.855 39.1565C151.992 39.2142 151.957 38.7341 151.987 38.3323Z" fill="#7F77FF"/>
<path d="M159.43 30.6519L159.681 30.6513C159.756 30.6017 159.826 30.5444 159.889 30.4802L159.43 30.6519Z" fill="#7F77FF"/>
<path d="M169.25 31.0855C169.259 31.0267 169.285 30.972 169.326 30.9283C169.366 30.8846 169.419 30.854 169.476 30.8405C169.411 30.7485 169.335 30.6637 169.252 30.5874C169.13 30.5719 169.258 30.9293 169.25 31.0855Z" fill="#7F77FF"/>
<path d="M179.525 24.082C179.558 24.077 179.589 24.0721 179.614 24.0671L179.525 24.082Z" fill="#7F77FF"/>
<path d="M179.32 24.1163L179.525 24.082C179.457 24.0923 179.38 24.1031 179.32 24.1163Z" fill="#7F77FF"/>
<path d="M151.569 31.4963C151.544 31.4913 151.519 31.4942 151.496 31.5047C151.473 31.5152 151.454 31.5327 151.441 31.5547C151.486 31.5837 151.529 31.5539 151.569 31.4963Z" fill="#7F77FF"/>
<path d="M192.046 24.4832L192.066 24.6508C192.131 24.6714 192.198 24.6836 192.266 24.6871L192.046 24.4832Z" fill="#7F77FF"/>
<path d="M129.229 58.8665C129.231 58.8665 129.231 58.869 129.226 58.8741C129.226 58.8766 129.224 58.8792 129.221 58.8817C129.221 58.8868 129.183 58.8919 129.155 58.897C129.141 58.893 129.126 58.8904 129.112 58.8894C129.15 58.8843 129.188 58.8766 129.219 58.8741C129.224 58.869 129.226 58.8665 129.229 58.8665Z" fill="#7F77FF"/>
<path d="M100.589 98.2599C99.5859 97.9404 102.22 97.8497 100.711 97.4944C100.851 97.6344 99.3388 98.0522 100.589 98.2599Z" fill="#7F77FF"/>
<path d="M108.603 63.481C108.568 63.5672 108.514 63.6445 108.445 63.7074C108.522 63.5395 108.565 63.4886 108.603 63.481Z" fill="#7F77FF"/>
<path d="M123.447 59.6117C123.309 59.6077 123.172 59.5924 123.037 59.5659L123.447 59.6117Z" fill="#7F77FF"/>
<path d="M103.291 64.7439C103.151 64.7168 103.008 64.7169 102.868 64.744C102.897 64.7622 102.928 64.7768 102.961 64.7875C103.065 64.7441 103.179 64.7291 103.291 64.7439Z" fill="#7F77FF"/>
<path d="M103.291 64.7441C103.344 64.7534 103.4 64.7641 103.47 64.7728C103.411 64.7594 103.351 64.7498 103.291 64.7441Z" fill="#7F77FF"/>
<path d="M94.5269 64.7747C94.5742 64.802 94.6369 64.8225 94.6919 64.8467C94.7805 64.8407 94.884 64.8336 94.9753 64.8275L94.5269 64.7747Z" fill="#7F77FF"/>
<path d="M101.951 65.0151C101.95 65.0211 101.948 65.0269 101.944 65.0318C101.941 65.0366 101.936 65.0405 101.931 65.0431C101.941 65.0278 101.951 65.0151 101.951 65.0151Z" fill="#7F77FF"/>
<path d="M190.587 97.7412C190.529 97.7362 190.472 97.7314 190.409 97.7246C190.475 97.7332 190.533 97.738 190.587 97.7412Z" fill="#7F77FF"/>
<path d="M192.998 89.5325C192.996 89.5326 192.994 89.534 192.992 89.534C192.994 89.5437 192.996 89.5409 192.998 89.5325Z" fill="#7F77FF"/>
<path d="M122.684 59.8433C122.776 59.8259 122.865 59.7995 122.951 59.7644C123.137 59.8127 122.883 59.8102 122.684 59.8433Z" fill="#7F77FF"/>
<path d="M192.738 58.1858C192.752 58.1255 192.766 58.0576 192.783 57.9749C192.767 58.0461 192.753 58.1156 192.738 58.1858Z" fill="#7F77FF"/>
<path d="M193.198 85.2799C193.226 85.2189 193.265 85.1637 193.313 85.117L193.348 85.2442C193.376 84.9829 193.359 84.7188 193.297 84.4633C193.353 84.1241 193.385 83.7816 193.394 83.4381C193.664 83.2931 193.539 81.983 193.554 81.3521C193.198 81.4029 193.254 80.5914 192.967 81.3317C192.987 81.2885 193 81.5047 193.015 81.8914C193.021 81.9821 193.033 82.0723 193.053 82.161C193.043 82.1483 193.033 82.133 193.02 82.1178C193.028 82.5324 193.035 83.0743 193.046 83.6899C192.803 83.1489 192.754 82.5404 192.908 81.9677C192.679 81.6446 192.443 81.2859 192.333 81.0849C192.832 80.22 193.102 78.5512 193.407 78.3197C193.208 76.3889 193.274 73.7712 192.603 72.5553C192.516 72.0058 192.796 71.9244 192.903 71.7183C192.969 72.0363 192.959 72.4128 193.056 72.5858C192.883 71.4868 192.99 69.3321 192.519 69.0701C192.73 67.6862 192.951 69.8486 192.875 67.9457L193.018 68.2027C193.755 64.5267 191.888 62.2016 192.738 58.1848C192.705 58.3349 192.674 58.4239 192.618 58.4646C193.043 53.738 192.219 48.7215 192.893 44.056C193.028 42.7306 192.73 42.5856 192.501 41.7766L192.885 41.4892L192.443 40.1053C192.117 38.1439 193.384 36.7092 192.771 34.2238L192.511 34.5443C192.562 33.6514 192.359 31.7181 192.656 31.8682C192.578 31.7834 192.524 31.679 192.501 31.566C192.478 31.4531 192.486 31.3359 192.524 31.2271L192.725 31.1991L192.379 29.0063C192.524 27.3095 193.178 29.2734 193.216 26.7931C193.14 25.8722 192.631 24.1703 192.496 24.5163C192.488 24.8877 192.371 25.4652 192.17 25.4932L192.066 24.6511C192.028 24.6409 191.992 24.6308 191.954 24.6181V24.4832H191.59C191.515 24.4511 191.433 24.4346 191.351 24.4346C191.269 24.4346 191.188 24.4511 191.112 24.4832H181.992L182.092 24.384L181.791 24.4832H180.504C180.542 24.4069 180.664 24.3433 180.919 24.3128C179.983 24.0508 180.089 24.501 179.288 24.2085C179.199 24.1627 179.237 24.1372 179.321 24.1169L178.405 24.2746C178.586 24.1627 178.255 23.9007 178.815 23.977C177.177 23.6717 176.172 24.3738 175.554 23.9719L175.691 23.9414C173.989 24.0737 174.709 24.2238 174.465 24.4832H173.402L173.188 24.3052L172.9 24.066C172.803 23.9761 172.696 23.896 172.582 23.8269C172.495 23.9497 172.417 24.079 172.348 24.2136C172.084 24.2009 171.539 24.1729 171.565 24.0152C171.099 24.15 171.196 24.1907 171.308 24.2314C171.43 24.2721 171.578 24.3102 171.389 24.4374C171.091 24.367 170.787 24.3253 170.481 24.3128C170.448 24.8775 170.489 25.5618 170.476 26.0833C170.463 26.6277 170.4 26.9788 170.15 27.0882C170.446 27.4927 170.379 26.007 170.585 27.2128C169.919 27.5512 170.697 28.6221 170.392 29.627C170.049 29.337 170.232 28.3398 169.924 29.3777C170.021 29.4802 170.092 29.6039 170.133 29.7389C170.162 29.8753 170.165 30.0159 170.143 30.1536C170.098 30.398 170.029 30.6374 169.937 30.8684C169.786 30.8307 169.63 30.8212 169.476 30.8404C169.629 31.0719 169.288 31.1203 168.777 31.1304C168.469 31.1304 168.115 31.133 167.754 31.133C167.375 31.1381 166.986 31.1482 166.62 31.1864C166.711 31.0312 163.87 30.9346 162.511 30.7666L162.549 30.6878C162.287 31.1559 160.886 31.0668 159.863 31.1635C159.904 30.8837 160.087 30.7743 160.641 30.6496L159.68 30.6522C159.453 30.8023 159.156 30.8811 158.532 30.9346L158.774 30.5835C158.136 30.5937 157.492 30.698 156.803 30.7692C156.457 30.8048 156.103 30.8302 155.729 30.8353C155.543 30.8379 155.353 30.8328 155.157 30.8226C155.06 30.8175 154.961 30.8099 154.862 30.7997C154.75 30.787 154.638 30.7743 154.526 30.7616C154.49 30.843 154.615 30.9422 154.694 31.0439C154.791 31.1425 154.88 31.2498 154.958 31.3645C154.981 31.3958 154.995 31.4325 154.999 31.4708C155.003 31.5092 154.997 31.5479 154.981 31.5833H154.091C154.093 31.4866 154.152 31.4001 154.34 31.3543C154.078 31.4291 153.803 31.4473 153.534 31.4077C153.737 31.311 153.974 31.2118 154.241 31.1126C153.274 30.9829 153.844 31.3594 153.165 31.3314C153.025 31.0821 152.514 31.1533 152.458 30.9549C152.648 30.9295 153.198 31.0567 153.442 30.96C152.936 30.9345 152.338 30.876 151.789 30.7946C151.756 31.0394 151.682 31.2769 151.57 31.4967C151.712 31.5095 151.908 31.7486 151.939 32.4024C151.949 33.2393 151.873 33.3741 151.778 33.4276C151.733 33.453 151.682 33.4556 151.633 33.5217C151.604 33.5667 151.581 33.6155 151.565 33.6667C151.539 33.7349 151.52 33.8057 151.509 33.8778C151.682 34.1882 151.501 35.0022 151.878 35.0251C151.875 35.3991 151.7 35.4678 151.598 35.6128C151.763 36.2742 151.646 38.7011 152.046 37.9557L152.071 37.7853C152.079 37.8183 152.081 37.8539 152.089 37.8946C152.193 38.5515 152.234 39.2168 152.211 39.8814C152.196 40.436 152.142 40.9626 152.091 41.4256C151.717 41.3925 151.371 41.3645 151.048 41.3493C150.886 41.3442 150.728 41.3391 150.57 41.3442L150.265 41.3518C150.158 41.3594 150.049 41.3645 149.942 41.3696L149.947 41.245C148.662 41.3874 147.087 41.3289 146.172 41.6011C145.793 41.5986 145.276 41.3696 145.439 41.2221C144.457 41.3162 144.348 41.4561 142.931 41.25C143.915 41.0313 142.59 41.0542 143.941 41.0898C142.666 40.9804 142.376 40.7794 141.008 41.1229C141.473 40.7998 140.049 40.7184 139.443 40.8125L140.336 41.044C139.709 41.0777 139.08 41.0743 138.453 41.0338L138.779 40.6115C137.477 40.3546 136.299 40.5734 135.2 40.7489C134.673 40.845 134.14 40.9003 133.605 40.9143L133.411 40.9117L133.165 40.899C132.974 40.8888 132.781 40.8735 132.585 40.8507C132.156 40.7995 131.731 40.7247 131.31 40.6268C130.852 40.7743 131.463 40.8252 132.025 40.8837C132.603 40.9422 133.127 41.0084 132.73 41.1814C131.889 41.1257 131.052 41.0178 130.224 40.8583C130.06 41.4127 129.945 41.9805 129.881 42.5551C129.85 42.8883 129.84 43.1911 129.84 43.4582C129.84 43.5904 129.842 43.7176 129.85 43.8346C129.853 43.8881 129.855 43.9669 129.86 43.9924C129.865 44.0229 129.87 44.056 129.875 44.0865C129.919 44.3067 129.988 44.521 130.082 44.725C130.324 45.241 130.413 45.8158 130.338 46.3811C130.489 46.1598 130.893 45.9537 131.033 47.2384C131.002 47.9507 130.784 48.3399 130.588 48.3755C130.478 48.3984 130.377 48.3094 130.318 48.1109C130.3 48.0606 130.288 48.0086 130.28 47.9558C130.267 47.6683 130.316 47.5309 130.366 47.5411C130.31 47.1544 130.247 46.6456 130.084 47.1214L130.234 47.2766C130.186 47.4945 130.154 47.7155 130.137 47.938C130.069 48.6223 130.028 49.4185 129.847 49.1361C129.972 49.912 130.066 49.6449 130.14 49.1285C129.98 50.5022 130.158 51.357 130.02 52.8451C130.104 52.5933 130.282 52.3593 130.28 52.6111C130.092 54.9362 130.567 53.6363 130.634 55.211C130.402 56.1064 130.084 54.8904 130.275 56.4753C130.12 57.4445 129.875 56.6813 129.753 56.2972C129.873 56.9564 129.875 57.6318 129.758 58.2916C129.751 58.3349 129.746 58.3781 129.738 58.4188C129.733 58.4493 129.728 58.4824 129.723 58.5129L129.713 58.5664C129.71 58.5816 129.708 58.5791 129.705 58.5842L129.685 58.6096C129.662 58.6353 129.636 58.6583 129.608 58.6783C129.573 58.6992 129.539 58.723 129.507 58.7495C129.481 58.709 129.45 58.6722 129.415 58.6401C129.43 58.6577 129.442 58.6784 129.449 58.7007C129.456 58.7231 129.458 58.7466 129.456 58.7699C129.487 58.7904 129.519 58.8091 129.552 58.8258C129.618 58.8598 129.687 58.8863 129.758 58.9047C129.708 58.9785 129.705 59.0522 129.606 58.9607C129.595 58.9527 129.584 58.9433 129.575 58.9327C129.664 59.0657 129.77 59.1863 129.891 59.2914C130.023 59.4262 130.181 59.5712 130.031 59.706C129.822 59.6543 129.604 59.6457 129.392 59.6806C129.339 59.6831 129.285 59.6831 129.234 59.6806C129.154 59.676 129.074 59.6667 128.995 59.6526C128.932 59.6481 128.87 59.6293 128.814 59.5976C128.759 59.5659 128.711 59.5221 128.675 59.4694C128.911 59.4873 129.082 59.4923 129.209 59.4898C129.278 59.4898 129.303 59.4796 129.323 59.4618C129.359 59.4313 129.334 59.3728 129.311 59.3117C129.267 59.2074 129.252 59.0904 129.329 59.0319C129.317 59.035 129.305 59.0367 129.293 59.037C129.27 59.0362 129.248 59.0319 129.227 59.0243C129.13 59.0166 129.031 59.0065 128.927 58.9963C128.86 58.9505 128.99 58.9123 129.112 58.8894C128.975 58.8614 128.853 58.8411 128.746 58.8258C128.535 58.7875 128.319 58.7875 128.107 58.8258C127.644 58.9352 127.744 59.3397 126.431 59.3321C126.665 59.1082 125.999 58.9047 125.696 58.953C126.446 58.9581 126.055 59.3295 125.368 59.5025C124.175 59.327 124.073 59.6323 123.447 59.6119L124.159 59.6959C123.918 59.9222 123.322 59.8917 122.493 59.963C122.47 59.907 122.534 59.8765 122.625 59.8536C121.768 59.9858 120.74 59.3957 119.613 59.6144C119.602 59.6149 119.591 59.6166 119.58 59.6195C118.985 59.4669 119.522 59.1972 118.998 59.0929C117.558 59.3855 117.438 58.7826 115.922 59.0243C116.36 59.3295 116.436 59.2558 115.368 59.5508L117.861 59.3372L116.261 59.7773C117.014 59.7823 117.848 59.5865 118.298 59.6399C117.535 59.8866 117.614 59.8103 117.975 60.0622C116.945 59.6068 115.935 60.3293 114.747 60.0215L114.783 59.2685C114.026 59.1484 113.256 59.1518 112.501 59.2787L112.211 59.3168L112.066 59.3346L112.027 59.3397L111.969 59.3448L111.849 59.355C111.537 59.3779 111.219 59.4033 110.89 59.4287C110.247 59.472 109.59 59.5025 108.84 59.4974C108.837 59.8332 108.827 60.1817 108.809 60.5455L108.929 59.5865L109.023 59.5966C109.012 59.6136 108.996 59.6269 108.977 59.6348C109.086 60.1066 109.122 60.5921 109.084 61.0746C109.084 61.1179 109.082 61.1637 109.082 61.2095V61.212C109.077 61.4511 109.069 61.7005 109.066 61.9497C109.066 62.0973 109.069 62.2423 109.074 62.3848C109.077 62.456 109.082 62.5247 109.084 62.5934L109.092 62.6926L109.102 62.7613C108.85 62.69 108.759 63.1606 108.603 63.4812C108.649 63.471 108.672 63.5728 108.687 63.733C108.703 63.7992 108.71 63.8806 108.728 63.9772C108.775 64.2418 108.9 64.4864 109.087 64.6794C109.048 64.7179 109.004 64.7513 108.957 64.7786C108.801 64.7202 108.648 64.6531 108.499 64.5776C108.343 64.5447 108.181 64.5634 108.036 64.631C108.003 64.6463 107.97 64.6641 107.937 64.6819C107.911 64.696 107.882 64.7055 107.853 64.7099C107.817 64.7201 107.782 64.7302 107.749 64.7404C107.609 64.7837 107.476 64.8294 107.347 64.8752C106.732 65.1295 106.068 65.2434 105.403 65.2085C105.945 64.9363 105.126 64.7582 106.334 64.5623C105.731 64.5598 105.192 64.514 105.182 64.687C105.116 64.6629 105.046 64.6526 104.976 64.6565C104.673 64.659 104.187 64.776 103.742 64.8294C103.529 64.8627 103.312 64.8627 103.098 64.8294C103.051 64.822 103.005 64.8083 102.961 64.7887C102.934 64.8008 102.908 64.8144 102.882 64.8294C102.757 64.9434 102.609 65.0298 102.448 65.0832C102.287 65.1367 102.117 65.156 101.949 65.1398C101.941 65.1351 101.934 65.1287 101.928 65.121C101.923 65.1134 101.919 65.1047 101.918 65.0955C101.916 65.0864 101.916 65.0769 101.918 65.0679C101.921 65.0589 101.925 65.0504 101.931 65.0431C101.796 65.1474 100.939 65.2059 101.486 65.4629C100.684 65.1245 99.6082 65.0889 98.5118 65.1042C97.0745 65.122 95.6066 65.2288 94.6908 64.8473C94.0345 64.888 93.312 64.9312 92.6023 64.9643C92.2487 64.977 91.8976 64.9923 91.5618 65.005C91.3939 65.0101 91.2286 65.0151 91.0709 65.0202C90.8928 65.0228 90.7223 65.0279 90.5595 65.0304C90.6104 64.9923 90.6104 64.9617 90.6384 64.9439C90.7007 64.9192 90.7693 64.9148 90.8343 64.9312C90.7885 64.9261 90.758 64.9185 90.702 64.9159C90.646 64.9108 90.5901 64.9083 90.5366 64.9032C90.4298 64.8981 90.3306 64.8956 90.239 64.893C90.0826 64.8923 89.9263 64.9008 89.7709 64.9185C89.5808 64.9369 89.3963 64.994 89.2291 65.0864C88.9696 65.3018 88.6453 65.4236 88.3082 65.4323C88.32 65.706 88.3063 65.9803 88.2675 66.2515C88.1657 66.4728 88.1021 66.5237 88.0589 66.4499C88.0096 66.2988 87.9847 66.1408 87.9851 65.9818C87.9622 65.5773 87.9698 65.1194 87.8935 65.4603C87.4814 65.2772 87.5094 66.2489 87.5806 67.3123C87.6162 67.9305 87.662 68.2001 87.6697 68.5893C87.6878 68.9439 87.6386 69.2986 87.5247 69.6349L87.4763 69.3296C87.194 70.2912 87.7892 71.6776 87.7307 73.2497C87.7307 73.2497 87.657 73.1734 87.6061 73.2396C88.0258 74.3156 88.1657 76.3507 88.2827 77.8618C87.9597 77.3912 88.1123 77.175 87.7841 77.4624C87.8299 78.1416 88.3107 77.264 88.4023 78.6174C88.2268 79.0575 88.0716 80.0343 87.7205 80.164L87.7002 78.887C87.2474 79.5408 87.718 80.538 87.6391 81.2121L87.4407 81.1257C87.5043 83.0819 88.0029 83.1099 87.9673 85.2112L88.1174 84.9949C88.6135 86.1448 87.8401 85.9591 88.209 87.1038L87.7053 87.4523C87.8274 88.2104 88.1912 90.1056 88.2853 91.4666C87.9139 90.6958 87.7231 89.1059 87.5018 88.1214C87.4992 88.8718 87.5399 90.6754 87.7867 91.0672C87.7384 90.7645 87.6162 90.3829 87.6926 90.0827C88.0869 91.0036 88.2802 92.217 88.2726 93.7154C87.9546 93.6289 87.8172 94.0156 87.7511 94.6159C87.7485 94.6541 87.7434 94.6923 87.7409 94.733C87.7384 94.7889 87.7333 94.8475 87.7307 94.906C87.7256 95.0255 87.7206 95.1476 87.7129 95.2748C87.7078 95.5292 87.7002 95.7989 87.6926 96.0736C87.6798 96.6358 87.6671 97.226 87.6544 97.7984C88.817 97.8365 89.8854 97.9205 90.5061 98.1825L90.7147 98.1647L90.8444 98.1494L91.0938 98.124C91.2591 98.1087 91.4245 98.096 91.5898 98.0858C91.9205 98.063 92.2512 98.0553 92.5845 98.0528C93.2484 98.0502 93.92 98.0782 94.6043 98.1163C95.9729 98.1927 97.395 98.3071 98.9391 98.2766C97.8453 97.5211 99.8397 98.2563 99.6514 97.4778C100.364 97.4295 100.638 97.4422 100.705 97.4906L100.6 97.4677C100.638 97.4778 100.669 97.4855 100.71 97.4956V97.4931L102.887 97.9561C103.404 98.1825 102.203 98.1265 102.269 98.302C103.844 98.3631 102.931 98.6328 103.971 98.8388C103.757 98.5615 104.518 98.4394 105.416 98.5463L104.152 98.1876C106.352 97.7729 106.054 98.8414 108.27 98.4292L107.568 98.676C108.708 98.531 111.765 98.6811 112.882 98.0553C113.083 98.1443 113.35 98.358 112.849 98.414C115.569 98.5081 118.901 97.75 121.015 98.1342L120.809 98.325C121.315 98.269 121.692 97.9663 122.328 98.1571C122.295 98.2359 122.122 98.3479 122.358 98.358C122.625 98.2944 123.704 98.0248 124.378 98.1367L123.803 98.3504C125.472 98.5081 126.652 98.2614 127.853 98.0222C128.592 97.8615 129.342 97.7535 130.097 97.6992C130.092 98.2588 132.178 98.442 133.221 98.531L133.183 98.6099C134.421 98.6327 135.659 98.5724 136.889 98.4292C137.833 98.325 138.749 98.1927 139.718 98.0833H139.72C139.781 98.0757 139.842 98.068 139.906 98.0604C140.13 98.035 140.359 98.0121 140.59 97.9892C140.662 97.9815 140.735 97.9739 140.809 97.9663C140.967 97.9536 141.127 97.9408 141.29 97.9281C142.099 98.1494 142.934 98.2674 143.773 98.2792C145.762 98.3759 148.265 98.297 150.158 98.5234C149.72 98.4216 150.229 98.0858 150.735 98.0299C151.364 98.1367 152.442 97.7017 152.486 98.0706C152.489 98.0986 152.487 98.127 152.481 98.1545L152.254 98.1443H152.241L152.244 98.1469C152.75 98.648 154.124 98.5158 155.197 98.5285L155.373 97.8569C158.184 98.8337 162.738 97.4982 164.272 98.3733C164.951 98.2054 165.79 98.2079 166.462 98.04L166.426 98.3987C168.137 98.5073 169.852 98.5243 171.565 98.4496L171.092 98.7091C172.402 98.732 172.745 97.6686 173.956 97.6483L174.317 98.1851C176.604 98.1774 178.917 98.6506 181.176 98.1621C181.14 98.241 181.071 98.3962 180.703 98.4191C181.743 98.4318 184.663 98.76 184.501 98.1138C184.75 98.4776 186.897 98.0807 188.065 97.8798L187.874 98.2334C188.395 98.007 188.662 97.862 188.983 97.7602C189.165 97.7027 189.351 97.6593 189.54 97.6305C189.657 97.6127 189.769 97.5949 189.929 97.5796C190.123 97.5643 190.341 97.5491 190.588 97.5313C191.026 97.5745 191.099 97.7704 190.586 97.7424C190.968 97.7928 191.356 97.7756 191.733 97.6915C192.049 97.5911 192.378 97.5388 192.71 97.5364C192.708 97.2805 192.722 97.0249 192.75 96.7706C192.827 97.0657 192.903 97.3786 192.977 97.7093C193.006 97.1648 192.983 96.6189 192.908 96.0787C192.847 95.7531 192.75 95.5114 192.621 95.0611C192.611 95.0001 192.603 94.9339 192.598 94.8653C192.593 94.8017 192.588 94.7381 192.583 94.6694C192.577 94.5575 192.575 94.4353 192.577 94.3132C192.585 94.06 192.61 93.8076 192.651 93.5577C192.73 93.0667 192.87 92.6495 193.03 92.563C192.834 92.4028 192.572 91.7566 192.664 91.0596C192.786 90.9655 192.862 91.2173 192.898 91.347C193.14 89.3704 192.486 88.4063 192.834 87.0479C192.887 87.0328 192.935 87.0035 192.972 86.9631C193.009 86.9227 193.035 86.8728 193.046 86.8189C193.038 88.2588 193.02 89.4391 192.997 89.5332C193.32 89.5154 193.379 88.2715 193.827 89.2738C193.58 88.2562 193.046 86.5162 193.198 85.2799ZM193.486 82.6469C193.537 83.0692 193.465 83.2091 193.392 83.2676C193.386 83.0692 193.374 82.8352 193.348 82.5299C193.336 82.5197 193.32 82.4943 193.305 82.4816C193.378 82.5203 193.441 82.5772 193.486 82.6469ZM178.924 24.4273C178.967 24.441 179.008 24.4597 179.046 24.4832H178.507C178.637 24.4629 178.774 24.4451 178.924 24.4273V24.4273Z" fill="#FFE1A0"/>
<path d="M129.392 59.0012C129.375 59.0192 129.352 59.0301 129.328 59.0317C129.347 59.0181 129.369 59.0078 129.392 59.0012Z" fill="#7F77FF"/>
<path d="M122.625 59.8545C122.645 59.8514 122.665 59.8467 122.684 59.8428C122.664 59.8462 122.644 59.8501 122.625 59.8545Z" fill="#7F77FF"/>
<path d="M193.016 81.8912C193.003 81.834 192.995 81.7761 192.99 81.7178C192.958 81.8037 192.931 81.8854 192.909 81.9687L193.021 82.1177L193.016 81.8912Z" fill="#7F77FF"/>
<path d="M152.038 38.0114C152.047 37.9695 152.065 37.9297 152.088 37.8938C152.071 37.9312 152.06 37.9312 152.046 37.9553L152.038 38.0114Z" fill="#7F77FF"/>
<path d="M169.816 24.0544C169.931 24.0572 170.061 24.2229 170.036 25.4401L170.113 23.9444L170.674 23.9715C170.221 23.8334 169.472 23.6477 170.508 23.6145C170.151 23.5728 169.879 23.541 169.687 23.5186C169.602 24.2358 169.701 24.0575 169.816 24.0544Z" fill="#7F77FF"/>
<path d="M169.836 30.2796C169.804 29.9946 169.754 29.9866 169.702 30.02C169.65 30.0563 169.597 30.129 169.558 30.0935C169.683 30.4311 169.715 30.5948 169.836 30.2796Z" fill="#7F77FF"/>
<path d="M145.069 41.0944L145.158 40.769C144.479 40.8159 145.151 40.8951 145.069 41.0944Z" fill="#7F77FF"/>
<path d="M133.324 40.5075L133.38 40.5031L133.485 40.494L133.903 40.4584L134.199 40.4119L133.633 40.4709L133.35 40.5003L132.888 40.5299L133.236 40.512L133.324 40.5075Z" fill="#7F77FF"/>
<path d="M96.1177 64.4587L96.3228 64.8592C96.7815 64.7874 96.8778 64.3372 96.1177 64.4587Z" fill="#7F77FF"/>
<path d="M87.7428 84.9734C87.6202 85.2014 87.5453 85.452 87.5225 85.71C87.4998 85.9679 87.5297 86.2277 87.6105 86.4737C87.6381 85.8752 87.7943 85.2782 87.7428 84.9734Z" fill="#7F77FF"/>
<path d="M156.174 98.4967L157.183 98.3849L156.709 98.3625L156.174 98.4967Z" fill="#7F77FF"/>
<path d="M161.122 65.6586C161.061 68.7449 160.629 71.8127 159.838 74.7963C156.754 86.1929 148.319 94.486 143.773 98.279C142.934 98.2672 142.099 98.1493 141.29 97.9279C141.127 97.9407 140.967 97.9534 140.809 97.9661C140.735 97.9737 140.662 97.9814 140.59 97.989C140.359 98.0119 140.13 98.0348 139.906 98.0602C139.843 98.0678 139.781 98.0755 139.72 98.0831H139.718C138.247 94.2373 137.192 90.2453 136.571 86.1751L136.569 86.1726V86.17C135.782 80.95 135.655 74.8242 137.311 68.7036C138.021 66.1135 139.002 63.6056 140.239 61.222C146.151 49.749 156.375 42.9136 156.375 42.9136C156.375 42.9136 161.427 53.2901 161.122 65.6586Z" fill="white"/>
<path d="M130.02 52.845C130.013 52.9467 130.005 53.0408 129.992 53.1553C129.968 53.0516 129.977 52.9426 130.02 52.845Z" fill="white"/>
<path d="M122.684 59.8433C122.776 59.8259 122.865 59.7995 122.951 59.7644C123.137 59.8127 122.883 59.8102 122.684 59.8433Z" fill="white"/>
<path d="M123.037 59.5659L123.447 59.6117C123.309 59.6077 123.172 59.5924 123.037 59.5659Z" fill="white"/>
<path d="M129.155 58.897C129.141 58.893 129.126 58.8904 129.112 58.8894C129.15 58.8843 129.188 58.8766 129.219 58.8741C129.224 58.869 129.226 58.8665 129.229 58.8665C129.231 58.8665 129.231 58.869 129.226 58.8741C129.226 58.8766 129.224 58.8792 129.221 58.8817C129.221 58.8868 129.183 58.8919 129.155 58.897Z" fill="white"/>
<path d="M129.392 59.0012C129.375 59.0192 129.352 59.0301 129.328 59.0317C129.347 59.0181 129.369 59.0078 129.392 59.0012Z" fill="white"/>
<path d="M143.918 86.1548C143.918 86.1598 143.915 86.1649 143.915 86.17C143.3 90.2008 142.259 94.1549 140.809 97.9661C140.735 97.9737 140.662 97.9813 140.59 97.989C140.359 98.0119 140.13 98.0348 139.906 98.0602C139.842 98.0678 139.781 98.0755 139.72 98.0831H139.718C138.749 98.1925 137.833 98.3248 136.889 98.4291C132.389 94.7073 123.77 86.3455 120.649 74.7962C119.854 71.8122 119.422 68.7434 119.361 65.656C119.315 63.6388 119.399 61.6206 119.613 59.6142C120.74 59.3955 121.768 59.9856 122.625 59.8534C122.534 59.8763 122.47 59.9068 122.493 59.9628C123.322 59.8915 123.918 59.922 124.159 59.6957L123.447 59.6117C124.073 59.6321 124.175 59.3268 125.368 59.5023C126.054 59.3293 126.446 58.9579 125.696 58.9528C125.998 58.9045 126.665 59.108 126.431 59.3319C127.744 59.3395 127.644 58.935 128.107 58.8256H128.746C128.853 58.8409 128.975 58.8612 129.112 58.8892C128.99 58.9121 128.86 58.9503 128.927 58.9961C129.031 59.0063 129.13 59.0164 129.227 59.0241C129.248 59.0317 129.27 59.036 129.293 59.0368C129.305 59.0365 129.317 59.0348 129.328 59.0317C129.252 59.0902 129.267 59.2072 129.311 59.3115C129.334 59.3726 129.359 59.4311 129.323 59.4616C129.303 59.4794 129.278 59.4896 129.209 59.4896C129.082 59.4921 128.911 59.4871 128.675 59.4692C128.711 59.5219 128.759 59.5657 128.814 59.5974C128.87 59.6291 128.931 59.6479 128.995 59.6524C129.074 59.6665 129.154 59.6758 129.234 59.6804C129.285 59.6829 129.339 59.6829 129.392 59.6804C129.604 59.6455 129.822 59.6541 130.031 59.7058C130.181 59.571 130.023 59.426 129.891 59.2912C129.77 59.1861 129.664 59.0655 129.575 58.9325C129.584 58.9431 129.594 58.9525 129.606 58.9605C129.705 59.052 129.708 58.9783 129.758 58.9045C129.687 58.8861 129.618 58.8596 129.552 58.8256H129.738V58.4186C129.746 58.3779 129.751 58.3347 129.758 58.2914C129.875 57.6316 129.873 56.9562 129.753 56.297C129.875 56.6811 130.12 57.4443 130.275 56.4751C130.084 54.8902 130.402 56.1062 130.633 55.2108C130.567 53.6361 130.092 54.936 130.28 52.6109C130.282 52.359 130.104 52.5931 130.02 52.8449C130.158 51.3568 129.98 50.502 130.14 49.1283C130.066 49.6447 129.972 49.9118 129.847 49.1359C130.028 49.4183 130.069 48.6221 130.137 47.9377C130.196 47.9937 130.257 48.0522 130.318 48.1107C130.407 48.1972 130.499 48.2863 130.588 48.3753C133.757 51.4865 137.474 55.8416 140.239 61.222C140.24 61.222 140.24 61.2221 140.24 61.2222C140.241 61.2223 140.241 61.2225 140.241 61.2227C140.241 61.223 140.241 61.2232 140.242 61.2236C140.242 61.2239 140.242 61.2242 140.242 61.2245C141.481 63.6065 142.464 66.1136 143.172 68.7036C144.826 74.8191 144.701 80.9347 143.918 86.1548Z" fill="white"/>
<path d="M108.603 63.481C108.568 63.5672 108.514 63.6445 108.445 63.7074C108.522 63.5395 108.565 63.4886 108.603 63.481Z" fill="#3F3D56"/>
<path d="M101.951 65.0151C101.95 65.0211 101.948 65.0269 101.944 65.0318C101.941 65.0366 101.936 65.0405 101.931 65.0431C101.941 65.0278 101.951 65.0151 101.951 65.0151Z" fill="#3F3D56"/>
<path d="M139.906 98.0603C139.842 98.0679 139.781 98.0756 139.72 98.0832H139.718C138.749 98.1926 137.833 98.3249 136.889 98.4292C135.659 98.5723 134.421 98.6327 133.183 98.6098L133.221 98.5309C132.178 98.4419 130.092 98.2587 130.097 97.6991C129.342 97.7534 128.592 97.8614 127.853 98.0221C122.351 96.2312 115.943 93.1989 110.7 88.0958C103.31 80.9042 99.9745 71.2959 98.5117 65.1041C99.6081 65.0888 100.684 65.1244 101.486 65.4628C100.939 65.2058 101.796 65.1473 101.931 65.043C101.925 65.0503 101.921 65.0588 101.918 65.0678C101.916 65.0768 101.916 65.0863 101.918 65.0954C101.919 65.1046 101.923 65.1133 101.928 65.1209C101.934 65.1286 101.94 65.135 101.949 65.1397C102.117 65.1558 102.287 65.1366 102.448 65.0831C102.609 65.0297 102.757 64.9433 102.882 64.8293H104.976V64.6564C105.046 64.6525 105.116 64.6628 105.182 64.6869C105.192 64.5139 105.731 64.5597 106.334 64.5622C105.126 64.7581 105.945 64.9362 105.403 65.2084C106.068 65.2433 106.732 65.1294 107.347 64.8751C107.476 64.8293 107.609 64.7836 107.749 64.7403C107.782 64.7301 107.817 64.72 107.853 64.7098C107.882 64.7054 107.911 64.6959 107.937 64.6818C107.97 64.664 108.003 64.6462 108.036 64.6309C108.181 64.5633 108.343 64.5446 108.499 64.5775C108.648 64.653 108.801 64.7201 108.957 64.7785C109.004 64.7512 109.048 64.7178 109.087 64.6793C108.9 64.4863 108.775 64.2417 108.728 63.9771C108.71 63.8805 108.703 63.7991 108.687 63.7329C108.672 63.5727 108.649 63.4709 108.603 63.4811C108.759 63.1605 108.85 62.6899 109.102 62.7612L109.092 62.6925L109.084 62.5932C109.082 62.5246 109.077 62.4559 109.074 62.3847C109.069 62.2422 109.066 62.0972 109.066 61.9496C109.069 61.7003 109.077 61.451 109.082 61.2119C112.664 62.3047 116.112 63.7954 119.362 65.6561C122.125 67.2405 124.683 69.1604 126.975 71.3723C131.565 75.8393 134.589 81.2375 136.568 86.1701V86.1727L136.571 86.1752C138.105 90.0061 139.223 93.9906 139.906 98.0603Z" fill="#3F3D56"/>
<path d="M152.241 98.1443H152.254C152.251 98.1461 152.247 98.1469 152.244 98.1468L152.241 98.1443Z" fill="#3F3D56"/>
<path d="M183.051 58.8994C183.051 58.8994 181.606 76.5897 169.787 88.0957C164.495 93.2471 158.021 96.2871 152.486 98.0704C152.442 97.7015 151.364 98.1365 150.735 98.0297C150.229 98.0856 149.72 98.4214 150.158 98.5232C148.265 98.2968 145.762 98.3756 143.773 98.279C142.934 98.2672 142.099 98.1492 141.29 97.9279C141.127 97.9406 140.967 97.9533 140.809 97.9661C140.735 97.9737 140.662 97.9813 140.59 97.9889C141.276 93.9372 142.391 89.97 143.918 86.1547C145.902 81.2272 148.927 75.8341 153.508 71.3747C155.801 69.1624 158.358 67.2425 161.122 65.6586C171.71 59.5176 183.051 58.8994 183.051 58.8994Z" fill="#3F3D56"/>
<path d="M16.7498 48.6897C16.7498 48.6897 13.2066 55.7761 7.73073 57.3866C2.25489 58.9972 20.9372 57.3866 20.9372 57.3866C20.9372 57.3866 19.9709 52.2329 21.2593 51.5887C22.5477 50.9445 16.7498 48.6897 16.7498 48.6897Z" fill="#A0616A"/>
<path d="M11.0249 36.5154C10.8322 34.8364 11.7505 33.352 13.076 33.1998C13.0911 33.1981 13.1059 33.199 13.1209 33.1976C12.9552 33.1732 12.787 33.1705 12.6206 33.1894C11.2951 33.3415 10.3768 34.826 10.5695 36.505C10.76 38.1649 11.9654 39.3912 13.2737 39.2718C12.1516 39.1088 11.1931 37.9803 11.0249 36.5154Z" fill="#2F2E41"/>
<path d="M12.213 38.7918C10.6123 38.2498 9.66153 36.7859 10.0895 35.5222C10.0943 35.5079 10.1014 35.4949 10.1066 35.4807C10.0138 35.6202 9.9396 35.7711 9.88573 35.9296C9.45779 37.1934 10.4086 38.6572 12.0093 39.1993C13.5919 39.7351 15.2152 39.1682 15.6654 37.934C15.0393 38.8793 13.6097 39.2648 12.213 38.7918Z" fill="#2F2E41"/>
<path d="M1.13721 69.8346L1.61068 83.4776L9.01918 100.871C9.01918 100.871 7.08653 109.89 10.9518 109.568C14.8171 109.246 11.2739 100.549 11.2739 100.549L7.73074 82.1892L7.08653 67.05L1.13721 69.8346Z" fill="#A0616A"/>
<path d="M21.9033 53.5214C25.817 53.5214 28.9897 50.3487 28.9897 46.435C28.9897 42.5213 25.817 39.3486 21.9033 39.3486C17.9896 39.3486 14.8169 42.5213 14.8169 46.435C14.8169 50.3487 17.9896 53.5214 21.9033 53.5214Z" fill="#A0616A"/>
<path d="M27.7012 58.6752L20.7176 55.8853C20.7176 55.8853 19.3264 56.0983 15.4611 56.4205C11.5958 56.7426 9.87949 56.4387 9.87949 56.4387C9.87949 56.4387 1.6104 59.3194 1.93251 60.93C2.25462 62.5405 5.79782 87.9871 7.40836 86.6987C9.0189 85.4102 9.98523 85.0881 9.98523 85.0881L27.7012 83.4776V58.6752Z" fill="#CFCCE0"/>
<path d="M3.22109 60.2856H2.17284C2.17284 60.2856 0.966326 60.9299 0.966326 62.8625C0.966326 64.7952 0 70.5931 0 70.5931H5.15374L3.22109 60.2856Z" fill="#CFCCE0"/>
<path d="M12.7231 63.3459L8.83265 57.0612C8.74405 56.9181 8.61624 56.8034 8.46439 56.7308C8.31254 56.6582 8.14304 56.6307 7.97602 56.6516L6.96149 56.7784C6.83674 56.794 6.71678 56.8361 6.60971 56.902C6.50263 56.9679 6.41094 57.056 6.34081 57.1604C6.27068 57.2647 6.22374 57.3829 6.20317 57.5069C6.1826 57.631 6.18887 57.758 6.22156 57.8794L8.21363 65.2785C8.21363 65.2785 11.3634 78.3497 8.33903 85.3427L8.21363 88.4704C8.21363 88.4704 5.31466 98.1336 5.95886 105.542C6.60307 112.951 6.92519 119.393 6.92519 119.393C6.92519 119.393 5.31464 124.224 5.95886 125.835C6.15213 126.318 6.11347 127.033 5.96466 127.798C5.05632 132.463 4.82183 137.235 4.95025 141.986L4.99253 143.551C4.99253 143.551 2.73776 145.484 4.67042 145.806C6.60309 146.128 12.7231 146.772 12.7231 146.772C12.7231 146.772 14.0116 144.517 13.3674 144.195L15.3 133.566C15.3 133.566 18.5211 129.056 18.199 126.157C18.199 126.157 19.1653 121.325 18.199 119.071L18.5211 104.898L19.8095 121.97L17.8769 143.229C17.8769 143.229 15.3 145.161 16.9106 145.806C18.5211 146.45 28.5065 149.671 28.5065 148.06C28.5065 146.45 27.8622 145.806 27.8622 145.806L32.0497 102.321L29.7949 84.2829C29.7949 84.2829 14.6558 82.9945 15.9442 65.9227C15.9442 65.9227 19.648 58.2302 23.3043 56.7787C23.3459 56.7633 23.3815 56.7351 23.4061 56.6983C23.4307 56.6614 23.443 56.6178 23.4413 56.5735C23.4396 56.5292 23.424 56.4866 23.3967 56.4518C23.3693 56.4169 23.3317 56.3916 23.2891 56.3794L21.8048 55.9553C21.7643 55.9432 21.7212 55.944 21.6812 55.9575C21.0371 56.1756 15.4525 58.1904 12.7231 63.3459Z" fill="#644A98"/>
<path d="M20.1321 145.483L20.0806 145.946C19.7342 148.897 18.7748 151.743 17.2641 154.301C16.5429 155.541 15.9907 156.941 16.2668 158.046C16.911 160.623 16.5889 161.589 16.5889 161.589H21.7426V160.622L24.62 161.407C25.2616 161.592 25.9452 161.571 26.5742 161.347C27.2185 161.106 27.8627 160.623 27.8627 159.656C27.8627 158.851 27.2475 158.102 26.5299 157.501C25.0168 156.26 23.9207 154.585 23.3892 152.702L23.3532 152.57L25.2858 145.483L20.1321 145.483Z" fill="#2F2E41"/>
<path d="M6.76439 145.645L6.71294 146.108C6.36651 149.058 5.40715 151.904 3.8964 154.463C3.17518 155.702 2.62299 157.102 2.89909 158.207C3.54331 160.784 3.22119 161.75 3.22119 161.75H8.37493V160.784L11.2523 161.568C11.8939 161.754 12.5775 161.733 13.2066 161.508C13.8508 161.267 14.495 160.784 14.495 159.817C14.495 159.012 13.8799 158.263 13.1622 157.662C11.6492 156.422 10.553 154.746 10.0216 152.863L9.98548 152.731L11.9181 145.645H6.76439Z" fill="#2F2E41"/>
<path d="M23.3336 47.6306C23.3336 47.6306 28.4099 44.6979 30.3756 44.5201C30.3756 44.5201 30.948 43.2316 30.3308 41.9917C30.3308 41.9917 30.0313 38.0138 25.066 38.1683C25.066 38.1683 19.2014 34.9914 17.2326 36.2885C15.2638 37.5856 10.88 43.8094 12.7317 47.5291C12.7317 47.5291 10.5911 48.6061 10.4893 48.0264C10.3874 47.4466 8.79717 49.0039 10.8967 50.3454C10.8967 50.3454 7.95795 53.3203 10.8146 55.1823C10.8146 55.1823 10.6839 52.5438 12.341 51.7461C13.9981 50.9484 12.5478 51.7863 12.5478 51.7863C12.5478 51.7863 9.71086 55.341 13.9479 56.7247C13.9479 56.7247 12.3668 54.9241 13.9571 53.3668C13.9571 53.3668 13.4645 57.004 16.3941 57.387C16.3941 57.387 14.8829 55.2267 15.6781 54.448C15.6781 54.448 16.0156 57.1267 17.6697 57.4483L18.9102 57.6895L19.3298 55.5313C19.3298 55.5313 18.1501 58.2883 20.9079 58.4512C20.9079 58.4512 19.5746 54.2724 21.3397 51.8158C23.1048 49.3592 23.3336 47.6306 23.3336 47.6306Z" fill="#2F2E41"/>
<path d="M15.4545 38.5525C16.4749 37.2053 16.4398 35.4601 15.3762 34.6546C14.3126 33.849 12.6233 34.2881 11.6029 35.6354C10.5825 36.9826 10.6176 38.7277 11.6812 39.5333C12.7448 40.3388 14.4341 39.8997 15.4545 38.5525Z" fill="#2F2E41"/>
<path d="M16.1583 36.9395C15.5174 37.1822 14.9598 37.604 14.5517 38.1546C14.1888 38.6266 13.947 39.1805 13.8477 39.7676C14.4885 39.5248 15.0462 39.103 15.4542 38.5524C15.8172 38.0804 16.0589 37.5266 16.1583 36.9395Z" fill="#856FB3"/>
<path d="M40.7514 98.2982L40.3423 97.7522L43.3122 95.5266C43.6647 95.2617 43.9412 94.9087 44.1138 94.5029C44.2864 94.0972 44.3491 93.6532 44.2956 93.2155L42.8243 81.3345C42.7186 80.472 42.8421 79.5968 43.1823 78.7971C43.5225 77.9975 44.0674 77.3016 44.7622 76.7795L47.9993 74.3537C48.6135 73.8946 49.3846 73.6979 50.1436 73.8066C50.9027 73.9154 51.5876 74.3208 52.0481 74.9338L52.7978 75.9343L52.2518 76.3435L51.5021 75.343C51.1502 74.8745 50.6269 74.5647 50.0469 74.4816C49.467 74.3986 48.8777 74.5489 48.4085 74.8997L45.1713 77.3255C44.5727 77.7754 44.1031 78.375 43.8099 79.0641C43.5168 79.7532 43.4103 80.5073 43.5014 81.2506L44.9726 93.1316C45.0408 93.6886 44.9611 94.2536 44.7414 94.7699C44.5218 95.2862 44.1699 95.7355 43.7214 96.0726L40.7514 98.2982Z" fill="#CFCCE0"/>
<path d="M41.8105 99.3054L44.2319 96.1164L43.4134 95.0247L39.783 96.5998L23.9346 107.551L26.74 111.295L41.8105 99.3054Z" fill="#CFCCE0"/>
<path d="M53.2255 74.2136L50.1679 76.5048C49.3322 77.131 49.1624 78.3161 49.7887 79.1518L63.9741 98.0819C64.6003 98.9176 65.7855 99.0874 66.6212 98.4612L69.6787 96.17C70.5144 95.5437 70.6842 94.3586 70.0579 93.5229L55.8725 74.5929C55.2463 73.7572 54.0611 73.5874 53.2255 74.2136Z" fill="#E6E6E6"/>
<path opacity="0.2" d="M70.0581 93.523L69.6197 92.938L69.5321 92.821C69.6809 93.0197 69.7892 93.2458 69.8507 93.4863C69.9123 93.7268 69.9258 93.9771 69.8906 94.2228C69.8554 94.4686 69.7721 94.705 69.6455 94.9185C69.519 95.1321 69.3516 95.3186 69.1529 95.4675L66.0947 97.7592C65.6935 98.0599 65.1893 98.1888 64.6929 98.1177C64.1966 98.0466 63.7489 97.7813 63.4482 97.38L63.5359 97.497L63.9743 98.082C64.2749 98.4832 64.7227 98.7486 65.219 98.8197C65.7153 98.8908 66.2195 98.7618 66.6208 98.4612L69.6789 96.1695C70.0802 95.8688 70.3455 95.4211 70.4166 94.9248C70.4877 94.4285 70.3588 93.9243 70.0581 93.523Z" fill="black"/>
<path d="M60.9872 81.0259C60.9606 80.9998 60.9382 80.9787 60.9375 80.9903C60.9629 81.0209 60.9797 81.029 60.9872 81.0259Z" fill="#7F77FF"/>
<path d="M60.5063 80.2664C60.5036 80.2484 60.494 80.2321 60.4795 80.2209L60.5063 80.2664Z" fill="#7F77FF"/>
<path d="M63.9649 85.064C63.9366 85.073 63.991 85.1336 64.0268 85.1917L63.9649 85.064Z" fill="#7F77FF"/>
<path d="M65.4609 86.9897L65.4864 87.0236C65.5025 87.0277 65.5189 87.0301 65.5355 87.0307L65.4609 86.9897Z" fill="#7F77FF"/>
<path d="M66.4067 88.3993C66.424 88.3993 66.4411 88.4028 66.4569 88.4097C66.4728 88.4165 66.4871 88.4264 66.499 88.4389C66.5136 88.4272 66.5243 88.4114 66.5297 88.3935C66.5083 88.3596 66.4415 88.3924 66.4067 88.3993Z" fill="#7F77FF"/>
<path d="M69.3399 92.4741L69.3257 92.4989C69.3343 92.5097 69.344 92.5196 69.3547 92.5284L69.3399 92.4741Z" fill="#7F77FF"/>
<path d="M59.5771 78.8608L59.5804 78.8675C59.6127 78.8968 59.597 78.8782 59.5771 78.8608Z" fill="#7F77FF"/>
<path d="M50.9884 81.6633C50.9391 81.4886 51.2209 81.8338 51.126 81.586C51.1174 81.6222 50.8958 81.4688 50.9884 81.6633Z" fill="#7F77FF"/>
<path d="M57.2905 75.8828C57.2858 75.899 57.2849 75.916 57.2879 75.9326C57.2931 75.9271 57.2952 75.9147 57.2905 75.8828Z" fill="#7F77FF"/>
<path d="M56.0909 75.021C56.0497 75.0467 56.0133 75.0795 55.9834 75.1179C55.9902 75.1166 55.9968 75.1143 56.003 75.1111C56.0237 75.0738 56.0541 75.0426 56.0909 75.021Z" fill="#7F77FF"/>
<path d="M54.9004 76.1422C54.9107 76.1403 54.9209 76.1378 54.9309 76.1347L54.9638 76.1001L54.9004 76.1422Z" fill="#7F77FF"/>
<path d="M69.4103 92.5339C69.37 92.5827 69.291 92.6463 69.2555 92.625L69.3257 92.4991C69.3207 92.4933 69.3161 92.4867 69.3113 92.4804C69.3158 92.4745 69.3204 92.4689 69.3248 92.463L68.315 91.1155L68.3413 91.1171L68.2949 91.0887L68.1669 90.9178C68.1832 90.9143 68.204 90.9193 68.2344 90.9494C68.1824 90.7909 68.1197 90.8605 68.0859 90.7161C68.0844 90.6985 68.0926 90.7008 68.1044 90.7093L67.986 90.6051C68.0223 90.6157 68.0317 90.5387 68.0761 90.624C67.9597 90.3647 67.743 90.3149 67.746 90.1822L67.7652 90.1967C67.5709 89.983 67.619 90.0987 67.5523 90.0976L67.4445 89.9537L67.4721 89.7667L67.3859 89.7841C67.3644 89.7506 67.3221 89.6842 67.3562 89.6768C67.2241 89.5911 67.3436 89.7176 67.2512 89.6798C67.1945 89.4836 66.9083 89.2786 66.9836 89.1683C66.8943 89.1496 67.056 89.3424 66.9001 89.2043C66.9741 89.0762 66.7401 89.0296 66.6854 88.8526C66.7737 88.8534 66.8431 89.008 66.7885 88.8307C66.6304 88.8176 66.6055 88.5431 66.4991 88.439C66.4193 88.4901 66.2756 88.2065 66.1023 88.0277C65.9995 87.818 65.8834 87.6151 65.7547 87.4203L65.7714 87.4162C65.6684 87.4379 65.5406 87.2373 65.4214 87.1111C65.4711 87.0823 65.5078 87.0936 65.5843 87.1531L65.4867 87.0235C65.4218 87.0001 65.3653 86.9581 65.3242 86.9027L65.4057 86.8926C65.233 86.7279 65.0798 86.5439 64.9492 86.3441C64.9067 86.3627 64.913 86.4859 64.8562 86.4997L64.768 86.3821C64.7811 86.3766 64.7955 86.3754 64.8093 86.3787C64.8231 86.382 64.8354 86.3896 64.8446 86.4004C64.8257 86.3831 64.7668 86.3465 64.7487 86.2967L64.8675 86.3543C64.8129 86.2371 64.7873 86.3317 64.7312 86.2473C64.7735 86.2181 64.7156 86.1654 64.7569 86.1526C64.7763 86.1703 64.7928 86.236 64.8322 86.2549C64.7723 86.1699 64.7328 86.0724 64.7166 85.9697C64.6992 85.9952 64.6613 86.0112 64.6059 85.9483C64.4734 85.7777 64.6109 85.8521 64.5566 85.7355C64.4967 85.715 64.4436 85.5826 64.38 85.6258C64.3424 85.575 64.3641 85.5441 64.366 85.5122C64.272 85.443 64.0453 85.1002 64.0555 85.25L64.0684 85.2761L64.0547 85.2635C63.774 85.0162 63.6332 84.6286 63.389 84.3574L63.4099 84.3425C63.2752 84.1758 63.1279 84.0197 62.9693 83.8756C62.9309 83.8242 62.916 83.7263 62.957 83.7299C62.8465 83.6388 62.7581 83.524 62.6981 83.3941C62.8339 83.5007 62.6953 83.3243 62.8268 83.5111C62.7153 83.3254 62.719 83.2617 62.524 83.1186C62.6239 83.1422 62.493 82.9392 62.4159 82.869L62.4688 83.018C62.3996 82.9374 62.3363 82.852 62.2794 82.7623L62.3819 82.7547C62.2016 82.3387 61.7617 82.2256 61.7013 81.8514C61.5829 81.7943 61.8109 82.0686 61.6917 82.0275C61.6193 81.8783 61.5599 81.7231 61.5141 81.5636C61.3858 81.3126 61.2575 81.432 61.1094 81.1797C61.107 81.2279 61.0621 81.3054 60.9086 81.1489C60.796 80.9796 60.8625 80.8716 60.9592 80.9594C60.9904 80.9967 60.9967 81.0214 60.9871 81.026C61.0354 81.0718 61.0976 81.1327 61.0762 81.0484L61.0357 81.0458C61.0005 80.9463 60.8304 80.7248 60.9102 80.747C60.7947 80.6418 60.8304 80.7248 60.8857 80.8253C60.7654 80.5902 60.6428 80.499 60.5062 80.2666C60.5181 80.3109 60.5127 80.364 60.4875 80.3299C60.2823 79.9924 60.3369 80.2265 60.1663 80.0214C60.1132 79.8721 60.2887 79.9975 60.0964 79.8066C60.0237 79.6565 60.1411 79.7297 60.2002 79.7667C60.0616 79.6207 59.9537 79.4484 59.8829 79.2599L59.98 79.3479C59.9302 79.301 59.8854 79.2491 59.8462 79.1931L59.8409 79.2889C59.8042 79.222 59.766 79.1706 59.7874 79.1564C59.7084 79.1183 59.741 79.2656 59.6042 79.1751C59.5689 79.0757 59.3933 78.9499 59.438 78.8729C59.6057 79.1431 59.4828 78.7956 59.6542 79.0022C59.6084 78.9576 59.5702 78.9058 59.541 78.8488C59.5416 78.8343 59.561 78.8473 59.5772 78.861C59.454 78.5745 59.4195 78.805 59.2327 78.5525C59.2935 78.5568 59.2591 78.4417 59.2204 78.4066C59.2956 78.5085 59.1951 78.5013 59.0972 78.4295C59.0052 78.2468 58.9445 78.2704 58.8846 78.1835L58.9433 78.2899C58.8819 78.2849 58.8264 78.2008 58.7305 78.0971C58.7521 78.0659 58.8268 78.1843 58.8094 78.1347C58.651 78.0586 58.6654 77.8025 58.4913 77.6613C58.4559 77.562 58.5548 77.6015 58.5188 77.518C58.3248 77.3589 58.4111 77.269 58.218 77.0937C58.2126 77.1899 58.2325 77.1912 58.076 77.0831L58.3634 77.3938L58.1292 77.2317C58.2046 77.3339 58.3211 77.4229 58.3583 77.4901C58.2407 77.4175 58.2609 77.4188 58.2562 77.4983C58.2264 77.3034 58.0061 77.255 57.9359 77.0565L58.0625 76.9694C57.9361 76.6865 57.6775 76.5871 57.4732 76.25L57.5274 76.3668C57.4471 76.3613 57.3754 76.1781 57.2794 76.0913C57.3276 76.07 57.2949 75.9952 57.2879 75.9327C57.2614 75.9608 57.1185 75.7008 57.0151 75.7338L56.9642 75.5531C56.8082 75.2987 56.5985 75.3089 56.3949 75.0081C56.4377 75.0187 56.4367 74.9789 56.4444 74.9541C56.4531 74.9307 56.4713 74.9231 56.578 75.0322C56.4813 74.9023 56.3941 74.7703 56.3864 74.8192C56.3794 74.8031 56.3707 74.7879 56.3602 74.7738L56.3422 74.7505C56.3356 74.7436 56.3271 74.7632 56.319 74.7694L56.2093 74.9045C56.1555 74.9868 56.0854 75.0572 56.0034 75.1114C55.9673 75.1782 55.979 75.2419 55.8732 75.3393C55.855 75.3425 55.8576 75.3192 55.8576 75.3192C55.8623 75.351 55.7438 75.4757 55.8547 75.4488C55.5193 75.5489 55.2272 76.0567 54.9311 76.1347C54.7787 76.295 54.5901 76.4833 54.4397 76.6158C54.4395 76.5958 54.4236 76.596 54.4557 76.5753C54.2155 76.7191 54.4233 76.7995 54.1464 76.9603C53.9697 76.9993 54.2462 76.8189 54.149 76.8589C54.0076 76.7568 53.8727 77.1202 53.6443 77.1741L53.678 77.1344C53.5175 77.1912 53.4104 77.4299 53.1929 77.5806C53.1929 77.5806 53.194 77.5609 53.1787 77.5594C53.0294 77.7779 52.8462 77.9712 52.6362 78.1321C52.6624 78.0325 52.71 78.0368 52.6315 78.0102C52.5442 78.0837 52.7218 78.0784 52.5466 78.2256C52.4653 78.2392 52.3132 78.3081 52.254 78.2604L52.4271 78.1346C52.2854 78.123 52.2018 78.2951 52.0992 78.345L52.0884 78.3034C51.8259 78.4986 51.8759 78.5833 51.5758 78.7697L51.6229 78.7758C51.5138 78.9655 51.4554 78.813 51.3312 78.9784L51.2282 78.9212C51.0646 79.0805 50.8902 79.2284 50.7063 79.3637C50.8283 79.2119 50.9639 79.0715 51.1113 78.9441C50.963 79.0199 50.8289 79.1209 50.7151 79.2425C50.7543 79.2087 50.7968 79.1545 50.848 79.1431C50.726 79.3163 50.5613 79.455 50.3699 79.5457C50.3515 79.4436 50.1328 79.5425 49.8681 79.6719L49.7681 79.7209L49.7171 79.7457C49.7007 79.7542 49.6739 79.7603 49.6957 79.7776C49.7365 79.8358 49.7756 79.8935 49.8101 79.9485C49.8715 80.0347 49.9152 80.1322 49.9386 80.2354C49.9946 80.2989 50.0499 80.3619 50.1052 80.4247C50.1421 80.467 50.1772 80.5106 50.2112 80.5553C50.2792 80.6449 50.3425 80.7391 50.4056 80.8363C50.5318 81.0308 50.6575 81.2372 50.8186 81.4424C50.8315 81.2015 50.9134 81.5617 51.0214 81.4407C51.1013 81.5305 51.1271 81.5691 51.1262 81.5844L51.1164 81.5606L51.1262 81.5861L51.1266 81.5858L51.2712 81.937C51.2865 82.0346 51.1739 81.8655 51.152 81.8958C51.3018 82.116 51.165 82.0256 51.2368 82.1918C51.2607 82.1288 51.3574 82.217 51.431 82.3513L51.3616 82.1365C51.6522 82.3832 51.4475 82.4736 51.7393 82.7233L51.6282 82.6584C51.7671 82.7946 52.0528 83.2267 52.268 83.301C52.2738 83.3392 52.2659 83.4012 52.206 83.3404C52.4662 83.7197 52.9282 84.0776 53.0794 84.4106L53.0274 84.406C53.0878 84.4678 53.1754 84.4816 53.2084 84.591C53.1922 84.5962 53.1567 84.5866 53.1787 84.6197C53.2745 84.6849 53.3565 84.7685 53.4197 84.8657L53.3265 84.8142C53.5546 85.2035 53.8243 85.3008 54.0711 85.5857C53.9789 85.6535 54.1607 85.9581 54.2514 86.1101L54.2347 86.1149C54.5225 86.4733 54.8343 86.8116 55.1682 87.1275C55.2487 87.4421 55.7361 87.972 55.9695 88.3997C55.9419 88.3282 56.0481 88.3558 56.1087 88.4176C56.158 88.522 56.3598 88.6203 56.265 88.6689L56.2425 88.6354C56.2112 88.7654 56.3726 88.935 56.4792 89.0821L56.6071 89.0237C56.7321 89.5236 57.4121 89.9757 57.4245 90.2904C57.5207 90.3615 57.6055 90.4754 57.7011 90.5457L57.6385 90.585C57.7941 90.8296 57.9653 91.0639 58.151 91.2864L58.0609 91.2539C58.1899 91.434 58.3984 91.3504 58.5244 91.5112L58.4733 91.6263C58.7063 91.9344 58.8636 92.3052 59.1723 92.5509C59.1556 92.5555 59.1234 92.5655 59.0823 92.5181C59.1891 92.6653 59.4446 93.1256 59.5257 92.9823C59.4498 93.0448 59.757 93.307 59.9168 93.448L59.8393 93.4655C59.985 93.5136 60.1138 93.6025 60.2106 93.7216C60.238 93.7739 60.1948 93.7972 60.1632 93.7242C60.2493 93.9023 60.3089 93.8041 60.4192 94.0156L60.3295 93.9732C60.3539 94.0192 60.3872 94.0598 60.4275 94.0927C60.4679 94.1256 60.5144 94.15 60.5644 94.1645C60.663 94.2476 60.777 94.4788 60.7423 94.5417C60.7877 94.5494 60.8306 94.5678 60.8674 94.5954C60.9043 94.623 60.934 94.659 60.9542 94.7003C60.9439 94.7279 60.906 94.7028 60.887 94.69C61.0479 94.9869 61.2523 95.037 61.3332 95.2636C61.3262 95.2711 61.3215 95.2804 61.3195 95.2905C61.3174 95.3005 61.3183 95.3109 61.3218 95.3206C61.1641 95.1071 61.0391 94.9337 61.0553 94.9466C61.0019 94.9866 61.121 95.1652 60.9449 95.084C61.142 95.2049 61.3143 95.3622 61.4526 95.5475C61.4543 95.5595 61.4536 95.5717 61.4507 95.5835L61.4317 95.5706C61.4538 95.6095 61.4837 95.6433 61.5196 95.6699C61.5446 95.7224 61.5739 95.7727 61.6073 95.8204C61.5779 95.8733 61.7308 96.035 61.7928 96.1221C61.846 96.0712 61.9205 96.1903 61.8902 96.0491C61.8962 96.0659 61.8711 96.0382 61.826 95.9832C61.816 95.9715 61.8048 95.9608 61.7926 95.9513L61.8021 95.9532L61.6389 95.7435C61.6847 95.7642 61.7258 95.794 61.7597 95.8312C61.7935 95.8683 61.8193 95.9121 61.8356 95.9596C61.9061 95.9754 61.9809 95.9947 62.0195 96.0084C62.0256 96.1866 62.1506 96.4452 62.1239 96.5143C62.2381 96.6326 62.3588 96.7824 62.48 96.9129C62.5385 96.9763 62.6005 97.0364 62.6656 97.093C62.7259 97.1579 62.7982 97.2103 62.8786 97.2475C62.9117 97.2788 62.935 97.319 62.9457 97.3633C62.956 97.4013 62.9724 97.3976 62.9914 97.4081C62.9729 97.4193 62.9531 97.4281 62.9325 97.4342L62.8938 97.3918C62.8752 97.3685 62.8527 97.3487 62.8273 97.3331C62.8788 97.3673 62.9137 97.4934 63.014 97.4138L63.2726 97.3087C63.3327 97.2862 63.3902 97.2572 63.4439 97.2221C63.4811 97.1962 63.5051 97.1703 63.5071 97.1439C63.7424 97.0969 63.4143 97.2759 63.7119 97.1406L63.6816 97.1842C64.346 97.0844 64.54 96.5577 65.2461 96.3867C65.197 96.3999 65.1727 96.4069 65.156 96.3977C65.9136 96.0787 66.5132 95.4391 67.2047 95.0293C67.3977 94.9046 67.3721 94.8376 67.4437 94.7114L67.5328 94.7364L67.6458 94.5108C67.8376 94.2323 68.1977 94.2416 68.3975 93.8431L68.321 93.8469C68.434 93.7439 68.6177 93.4672 68.6478 93.5271C68.6446 93.5072 68.648 93.4867 68.6573 93.4688C68.6666 93.4508 68.6814 93.4363 68.6995 93.4273L68.7337 93.4506C68.7981 93.3416 68.8574 93.2289 68.9189 93.1188C69.1244 92.9131 69.0201 93.2604 69.2891 92.9313C69.3738 92.7959 69.4686 92.5033 69.4103 92.5339ZM68.0133 90.6937C68.0153 90.7009 68.0161 90.7084 68.0156 90.7159L67.9639 90.6469C67.98 90.6619 67.9958 90.6761 68.0133 90.6937ZM61.7066 95.9375L61.7188 95.9389C61.7037 95.9427 61.6877 95.9426 61.6726 95.9384C61.6217 95.8877 61.6189 95.8601 61.6251 95.8433C61.6462 95.8694 61.6717 95.8993 61.7066 95.9375V95.9375Z" fill="#FFE1A0"/>
<path d="M61.8261 95.9831C61.8339 95.9892 61.8412 95.996 61.848 96.0033C61.8447 95.9885 61.8406 95.9739 61.8357 95.9595L61.8022 95.9531L61.8261 95.9831Z" fill="#7F77FF"/>
<path d="M64.0513 85.2412C64.0539 85.2483 64.0552 85.2558 64.0549 85.2634C64.0546 85.2588 64.0549 85.2543 64.0556 85.2498L64.0513 85.2412Z" fill="#7F77FF"/>
<path d="M67.3594 89.5442C67.2175 89.2143 67.3521 89.6397 67.1436 89.3425L67.2927 89.5769C67.2862 89.5212 67.2784 89.4475 67.3594 89.5442Z" fill="#7F77FF"/>
<path d="M66.7108 88.6014C66.6337 88.5413 66.6148 88.5269 66.6616 88.6306C66.7613 88.7418 66.6933 88.6047 66.7108 88.6014Z" fill="#7F77FF"/>
<path d="M62.9399 83.6644L63.0021 83.6365C62.9257 83.5504 62.9809 83.6511 62.9399 83.6644Z" fill="#7F77FF"/>
<path d="M61.9501 82.1107L61.8159 81.9719L61.9124 82.0762L61.9501 82.1107Z" fill="#7F77FF"/>
<path d="M55.0552 75.9152L55.1357 75.9524C55.1825 75.8894 55.1321 75.8107 55.0552 75.9152Z" fill="#7F77FF"/>
<path d="M51.3574 78.8188C51.436 78.7883 51.5121 78.7516 51.5848 78.7088C51.5408 78.7077 51.4973 78.7171 51.4578 78.7363C51.4182 78.7554 51.3838 78.7837 51.3574 78.8188Z" fill="#7F77FF"/>
<path d="M56.5835 89.2102L56.7039 89.333L56.6597 89.2664L56.5835 89.2102Z" fill="#7F77FF"/>
<path d="M23.3623 68.8683L23.8358 82.5113L31.2443 99.9051C31.2443 99.9051 29.3116 108.924 33.1769 108.602C37.0422 108.28 33.499 99.583 33.499 99.583L29.9558 81.2228L29.3116 66.0837L23.3623 68.8683Z" fill="#A0616A"/>
<path d="M26.0908 59.3194L26.2679 58.1025L27.7013 58.6753L32.2109 65.7615L22.8696 70.5932L26.0908 59.3194Z" fill="#CFCCE0"/>
</g>
<defs>
<clipPath id="clip0">
<rect width="230" height="163.44" fill="white"/>
</clipPath>
</defs>
</svg>
