<svg width="143" height="194" viewBox="0 0 143 194" fill="none" xmlns="http://www.w3.org/2000/svg">
<path d="M140.895 193.018H2.40798C1.89863 193.017 1.41033 192.814 1.05017 192.454C0.690008 192.094 0.48741 191.606 0.486816 191.096V103.589C0.487387 103.079 0.689978 102.591 1.05014 102.231C1.41031 101.871 1.89863 101.668 2.40798 101.668H140.895C141.404 101.668 141.893 101.871 142.253 102.231C142.613 102.591 142.816 103.079 142.816 103.589V191.096C142.816 191.606 142.613 192.094 142.253 192.454C141.893 192.814 141.404 193.017 140.895 193.018V193.018Z" fill="#E6E6E6"/>
<path d="M15.1437 112.272C14.9254 112.272 14.7161 112.359 14.5617 112.513C14.4074 112.668 14.3206 112.877 14.3203 113.095V181.59C14.3206 181.809 14.4074 182.018 14.5617 182.172C14.7161 182.327 14.9254 182.413 15.1437 182.414H128.159C128.378 182.413 128.587 182.327 128.741 182.172C128.896 182.018 128.982 181.809 128.983 181.59V113.095C128.982 112.877 128.896 112.668 128.741 112.513C128.587 112.359 128.378 112.272 128.159 112.272H15.1437Z" fill="#8C979A"/>
<path d="M129.223 125.699H14.2275V129.816H129.223V125.699Z" fill="#FBFBFB"/>
<path d="M129.223 146.831H14.2275V151.223H129.223V146.831Z" fill="#FBFBFB"/>
<path d="M78.7925 135.219H30.0835V139.559H78.7925V135.219Z" fill="#FBFBFB"/>
<path d="M129.223 169.336H14.2275V173.453H129.223V169.336Z" fill="#FBFBFB"/>
<path d="M32.3414 112.251H27.9502V171.807H32.3414V112.251Z" fill="#FBFBFB"/>
<path d="M113.304 112.251H108.913V149.302H113.304V112.251Z" fill="#FBFBFB"/>
<path d="M80.3702 111.976H76.2534V182.51H80.3702V111.976Z" fill="#FBFBFB"/>
<path d="M55.6695 147.38H51.2783V182.51H55.6695V147.38Z" fill="#FBFBFB"/>
<path d="M78.3102 155.058C81.3732 155.058 83.8563 152.575 83.8563 149.512C83.8563 146.449 81.3732 143.966 78.3102 143.966C75.2472 143.966 72.7642 146.449 72.7642 149.512C72.7642 152.575 75.2472 155.058 78.3102 155.058Z" fill="#644A98"/>
<path d="M78.975 116.566C97.8697 116.566 113.187 101.248 113.187 82.3537C113.187 63.459 97.8697 48.1418 78.975 48.1418C60.0803 48.1418 44.7632 63.459 44.7632 82.3537C44.7632 101.248 60.0803 116.566 78.975 116.566Z" fill="#644A98"/>
<path d="M79.3093 137.969L68.5008 119.505L57.6924 101.042L79.0864 100.913L100.48 100.784L89.8948 119.376L79.3093 137.969Z" fill="#644A98"/>
<path d="M79.2493 94.4132C86.0284 94.4132 91.524 88.9176 91.524 82.1385C91.524 75.3593 86.0284 69.8638 79.2493 69.8638C72.4702 69.8638 66.9746 75.3593 66.9746 82.1385C66.9746 88.9176 72.4702 94.4132 79.2493 94.4132Z" fill="#FBFBFB"/>
<path d="M78.1838 0.175792C78.1838 0.175792 70.8632 -1.88636 68.698 8.11505C66.5327 18.1164 68.1824 23.1687 68.1824 23.1687L84.5249 21.2612C84.5249 21.2612 89.1648 3.21745 78.1838 0.175792Z" fill="#2F2E41"/>
<path d="M67.231 43.494C67.231 43.494 56.4928 44.5635 58.4055 48.8987C60.3181 53.2339 60.318 53.6164 60.318 53.6164L69.7535 70.4473L72.8137 67.2596C72.8137 67.2596 69.371 59.7368 69.371 57.3141C69.371 54.8915 65.8008 50.6838 65.8008 50.6838L72.0486 50.1738L67.231 43.494Z" fill="#FFB9B9"/>
<path d="M96.6578 48.6437L100.228 56.4216C100.228 56.4216 102.906 59.0992 105.838 69.8097C108.771 80.5203 109.408 80.1378 109.408 80.1378L104.946 81.0303C104.946 81.0303 99.973 69.4272 98.3154 68.5347C96.6578 67.6421 94.6178 59.4817 94.6178 59.4817L88.7524 52.0864L90.5375 48.1337L96.6578 48.6437Z" fill="#FFB9B9"/>
<path d="M92.3226 39.7182L97.8054 49.9188C97.8054 49.9188 90.92 46.7311 89.9 53.7439L83.6522 48.8987C83.6522 48.8987 74.9817 51.7038 69.754 50.6838C69.754 50.6838 71.284 45.8385 65.8013 43.6709L78.1694 42.1409L77.6594 39.4632L78.9344 36.9131L92.3226 39.7182Z" fill="#2F2E41"/>
<path d="M70.5187 68.1521C70.5187 68.1521 67.076 67.6421 67.9686 70.7023L69.7537 76.8226C69.7537 76.8226 67.4585 83.0704 71.0287 81.6678C74.5989 80.2653 76.894 71.5948 76.894 71.5948C76.894 71.5948 78.4241 64.9645 76.894 64.9645C75.364 64.9645 70.5187 63.9444 71.0287 64.9645C71.5387 65.9845 70.5187 68.1521 70.5187 68.1521Z" fill="#2F2E41"/>
<path d="M109.026 78.3527C109.026 78.3527 104.563 77.2052 103.543 78.9903C102.523 80.7753 102.778 86.6406 102.778 86.7681C102.778 86.8957 104.308 88.1707 104.818 88.1707C105.328 88.1707 108.516 93.9085 112.851 91.8684C117.186 89.8283 109.026 78.3527 109.026 78.3527Z" fill="#2F2E41"/>
<path d="M81.8021 11.5704C82.242 8.85946 80.401 6.30521 77.6901 5.86529C74.9792 5.42538 72.4249 7.26639 71.985 9.97731C71.5451 12.6882 73.3861 15.2425 76.097 15.6824C78.808 16.1223 81.3622 14.2813 81.8021 11.5704Z" fill="#FFB9B9"/>
<path d="M80.9742 11.7943C80.9742 11.7943 81.9943 17.1496 82.8868 17.9146C83.7794 18.6797 76.1289 19.8272 76.1289 19.8272C76.1289 19.8272 77.2765 16.1295 75.8739 14.2169C74.4714 12.3043 80.9742 11.7943 80.9742 11.7943Z" fill="#FFB9B9"/>
<path d="M94.3624 42.1409C93.4941 42.1409 91.2832 41.7813 88.8044 41.3185C86.6598 40.9181 84.3124 40.4425 82.461 40.0574C80.4783 39.6443 79.0617 39.3358 79.0617 39.3358C79.0617 39.3358 78.5517 42.5234 76.8941 42.1409C75.466 41.8119 71.1984 26.9052 70.0444 22.7854C69.9601 22.4846 69.9764 22.1645 70.0908 21.8738C70.2051 21.5831 70.4114 21.3377 70.6781 21.175L76.5396 17.5959L78.0416 18.1697C78.0416 18.1697 80.579 16.2086 82.0517 16.1691C83.5244 16.1296 86.0745 15.7471 86.0745 15.7471C86.0745 15.7471 89.0072 16.0021 89.5172 18.1697C90.0272 20.3373 90.2822 33.853 92.1948 36.2756C94.1074 38.6982 96.7851 42.1409 94.3624 42.1409Z" fill="#B3A3D4"/>
<path d="M76.5117 49.2812C76.5117 49.2812 76.5117 54.254 79.8269 53.4889C83.142 52.7239 80.0819 48.1337 80.0819 48.1337L76.5117 49.2812Z" fill="#FFB9B9"/>
<path d="M85.6923 49.7912C85.6923 49.7912 84.5448 55.6565 82.1221 54.764C79.6995 53.8714 82.1221 48.6437 82.1221 48.6437L85.6923 49.7912Z" fill="#FFB9B9"/>
<path opacity="0.15" d="M91.0472 35.8931C91.0472 35.8931 89.7989 38.8717 88.8044 41.3185C86.6597 40.9181 84.3123 40.4425 82.4609 40.0575C82.5939 39.7053 82.7806 39.3759 83.0143 39.0808C83.9069 38.0607 83.3968 37.8057 83.3968 37.8057C82.6318 36.2756 83.2693 34.2355 83.2693 34.2355C81.7393 30.1553 84.0344 25.0551 84.0344 25.0551L91.0472 35.8931Z" fill="black"/>
<path d="M84.4167 25.0549C84.4167 25.0549 82.1215 30.1552 83.6516 34.2354C83.6516 34.2354 83.0141 36.2755 83.7791 37.8056C83.7791 37.8056 84.2892 38.0606 83.3966 39.0807C82.5041 40.1007 81.739 43.6709 82.3765 44.4359C83.0141 45.201 81.484 46.6035 81.8665 47.3686C82.249 48.1336 81.229 49.1537 81.229 49.1537C81.229 49.1537 85.0542 49.9187 85.6917 51.0662C85.6917 51.0662 86.4567 50.1737 86.0742 49.1537C85.6917 48.1336 85.9467 47.7511 86.3293 47.1136C86.7118 46.476 87.8593 45.0735 87.9868 44.4359C88.1143 43.7984 91.4295 35.893 91.4295 35.893L89.8747 21.4866L84.4167 25.0549Z" fill="#B3A3D4"/>
<path d="M71.156 21.4849L70.9177 21.5282C70.5856 21.5884 70.2854 21.7639 70.07 22.0238C69.8546 22.2838 69.7378 22.6113 69.7403 22.9489C69.7494 24.2291 69.8215 26.5011 70.1359 29.6453C70.6459 34.7455 72.431 42.3959 72.8135 43.161C73.421 44.5147 74.1021 45.8343 74.8536 47.1137C76.0012 49.0263 76.2562 48.3887 76.0012 49.2813C75.9236 49.5271 75.9184 49.7901 75.9862 50.0388C76.0541 50.2875 76.1921 50.5115 76.3837 50.6839C76.3837 50.6839 78.6788 48.1337 80.974 49.5363C81.138 49.1757 81.2249 48.7849 81.229 48.3887C81.229 47.7512 81.6115 47.1137 80.974 46.7312C80.3364 46.3486 81.3565 44.691 80.3364 43.7985C79.3164 42.906 79.1889 43.0335 79.3164 42.1409C79.3759 41.5341 79.2884 40.9218 79.0614 40.3558L71.156 21.4849Z" fill="#B3A3D4"/>
<path d="M78.7532 4.38647C78.7532 4.38647 76.6911 9.85116 71.6388 12.1195L70.814 7.27348L78.7532 4.38647Z" fill="#2F2E41"/>
<path d="M81.7394 10.2006C82.1267 10.2006 82.4407 9.60118 82.4407 8.86177C82.4407 8.12236 82.1267 7.52295 81.7394 7.52295C81.3521 7.52295 81.0381 8.12236 81.0381 8.86177C81.0381 9.60118 81.3521 10.2006 81.7394 10.2006Z" fill="#FFB9B9"/>
</svg>
