<svg width="250" height="226" viewBox="0 0 250 226" fill="none" xmlns="http://www.w3.org/2000/svg">
<g clip-path="url(#clip0)">
<path d="M158.908 130.463L124.405 89.4164L55.1469 90.0494L13.1338 130.971L13.9827 131.517H13.6796V216.634H158.815V131.517L158.908 130.463Z" fill="#3F3D56"/>
<path d="M124.441 89.5038L81.3369 140.039V216.634H158.815V130.426L124.441 89.5038Z" fill="#856FB3"/>
<path d="M128.261 174.276H112.438V188.262H128.261V174.276Z" fill="white"/>
<path d="M128.261 150.068H112.438V163.832H128.261V150.068Z" fill="white"/>
<path d="M57.9417 170.565H42.1187V184.551H57.9417V170.565Z" fill="white"/>
<path d="M57.9417 146.357H42.1187V160.121H57.9417V146.357Z" fill="white"/>
<path d="M250 216.368H0V216.963H250V216.368Z" fill="#3F3D56"/>
<path d="M212.35 206.969L213.54 212.918L207.591 214.108L208.483 206.672L212.35 206.969Z" fill="#A0616A"/>
<path d="M231.089 205.78L229.601 213.216H222.463L225.437 204.292L231.089 205.78Z" fill="#A0616A"/>
<path d="M237.632 154.025L238.822 162.056L237.335 179.605L236.145 186.148L231.088 207.564C231.088 207.564 225.437 207.564 224.545 205.185L226.032 192.99C226.032 192.99 227.222 183.174 226.924 181.984C226.627 180.795 222.165 161.758 222.165 161.758C222.165 161.758 215.622 191.8 214.729 194.477C213.837 197.154 212.647 208.754 212.647 208.754C212.647 208.754 207.591 209.646 207.293 208.754C206.996 207.862 206.698 186.743 206.698 183.471C206.698 180.2 207.293 178.415 207.293 177.82C207.293 177.225 204.95 148.828 204.95 148.828L237.632 154.025Z" fill="#2F2E41"/>
<path d="M225.437 211.728C225.437 211.728 226.924 212.026 227.816 211.728C228.709 211.431 227.816 209.646 227.816 209.646H231.088C231.088 209.646 234.657 217.677 236.145 218.272C237.632 218.867 242.391 225.411 236.74 225.411C233.252 225.366 229.849 224.335 226.924 222.436C226.924 222.436 226.329 219.759 223.652 219.462C220.975 219.164 219.19 215.893 219.19 215.893L223.057 208.754C223.057 208.754 223.95 212.026 225.437 211.728Z" fill="#2F2E41"/>
<path d="M211.457 211.431C211.457 211.431 210.862 212.621 210.267 212.026C209.673 211.431 209.078 209.944 209.078 209.944C209.078 209.944 207.293 209.052 206.996 209.944C206.698 210.836 205.508 215.595 204.913 216.19C204.319 216.785 198.072 223.031 204.319 224.221C210.565 225.411 211.755 222.734 211.755 222.734C211.755 222.734 210.862 221.247 212.647 220.652C214.432 220.057 214.729 217.975 214.729 217.975L213.539 209.052C213.539 209.052 212.349 212.026 211.457 211.431Z" fill="#2F2E41"/>
<path d="M244.473 133.204L245.366 148.671C245.366 148.671 249.53 158.486 243.878 158.189C238.227 157.891 241.796 148.373 241.796 148.373L236.263 134.569L244.473 133.204Z" fill="#A0616A"/>
<path d="M198.667 128.742L197.775 144.209C197.775 144.209 193.611 154.025 199.262 153.727C204.913 153.43 201.344 143.912 201.344 143.912L206.877 130.108L198.667 128.742Z" fill="#A0616A"/>
<path d="M222.463 95.1312C226.734 95.1312 230.196 91.6688 230.196 87.3977C230.196 83.1266 226.734 79.6642 222.463 79.6642C218.191 79.6642 214.729 83.1266 214.729 87.3977C214.729 91.6688 218.191 95.1312 222.463 95.1312Z" fill="#A0616A"/>
<path d="M228.56 90.5209C228.56 90.5209 226.478 98.8493 230.642 100.931C234.806 103.013 217.555 105.988 216.365 100.931L216.96 98.5518C216.96 98.5518 219.339 95.5774 218.744 92.9004L228.56 90.5209Z" fill="#A0616A"/>
<path d="M223.95 101.08C223.95 101.08 218.817 101.559 217.219 98.1966C217.219 98.1966 205.211 98.998 202.534 110.003L206.995 138.558C206.995 138.558 202.236 146.886 202.831 147.778C202.831 147.778 199.857 156.107 227.221 156.404L239.119 155.809C239.28 154.119 239.18 152.413 238.822 150.753C238.227 148.076 234.955 129.337 234.955 129.337C234.955 129.337 243.878 115.357 242.986 113.275C242.093 111.193 240.664 102.983 229.184 99.6522C229.184 99.6522 229.006 101.378 223.95 101.08Z" fill="#CDAB3C"/>
<path d="M239.119 108.219L242.986 113.275C242.986 113.275 246.853 134.394 245.663 134.691C244.473 134.988 237.335 137.368 236.145 136.476C234.955 135.583 229.601 118.034 229.601 118.034L239.119 108.219Z" fill="#CDAB3C"/>
<path d="M207.59 106.731L202.534 110.003C202.534 110.003 195.098 130.824 197.18 131.717C199.262 132.609 210.862 132.014 210.862 132.014L207.59 106.731Z" fill="#CDAB3C"/>
<path d="M230.916 80.4769C230.916 80.4769 228.237 74.6731 223.103 76.0124C217.969 77.3518 215.067 79.3608 214.844 81.3698C214.621 83.3787 214.955 86.3922 214.955 86.3922C214.955 86.3922 215.513 82.2626 219.085 83.1555C220.985 83.6304 223.453 83.6633 225.347 83.59C225.718 83.5747 226.089 83.6353 226.436 83.768C226.783 83.9008 227.099 84.1029 227.366 84.362C227.632 84.6211 227.843 84.9318 227.985 85.2751C228.128 85.6184 228.198 85.9871 228.193 86.3587L228.1 92.7517C228.1 92.7517 235.536 87.9926 230.916 80.4769Z" fill="#2F2E41"/>
<path d="M194.44 82.7276H89.3883C88.8725 82.727 88.378 82.5218 88.0133 82.1571C87.6486 81.7924 87.4435 81.298 87.4429 80.7822V32.5456C87.4435 32.0299 87.6486 31.5354 88.0133 31.1707C88.378 30.806 88.8725 30.6008 89.3883 30.6002H194.44C194.956 30.6008 195.451 30.806 195.815 31.1707C196.18 31.5354 196.385 32.0299 196.386 32.5456V80.7822C196.385 81.298 196.18 81.7924 195.815 82.1571C195.451 82.5218 194.956 82.727 194.44 82.7276V82.7276ZM89.3883 31.3784C89.0788 31.3787 88.7821 31.5018 88.5633 31.7206C88.3445 31.9395 88.2214 32.2362 88.221 32.5456V80.7822C88.2214 81.0917 88.3445 81.3884 88.5633 81.6072C88.7821 81.826 89.0788 81.9491 89.3883 81.9494H194.44C194.75 81.9491 195.047 81.826 195.265 81.6072C195.484 81.3884 195.607 81.0917 195.608 80.7822V32.5456C195.607 32.2362 195.484 31.9395 195.265 31.7206C195.047 31.5018 194.75 31.3787 194.44 31.3784H89.3883Z" fill="#C1C7C9"/>
<path d="M104.933 55.6124C109.31 55.6124 112.858 52.0644 112.858 47.6878C112.858 43.3112 109.31 39.7632 104.933 39.7632C100.557 39.7632 97.0088 43.3112 97.0088 47.6878C97.0088 52.0644 100.557 55.6124 104.933 55.6124Z" fill="#856FB3"/>
<path d="M123.235 42.4048C123.062 42.4045 122.89 42.4385 122.729 42.5048C122.569 42.571 122.423 42.6683 122.3 42.7909C122.177 42.9136 122.08 43.0593 122.013 43.2197C121.947 43.38 121.913 43.5519 121.913 43.7255C121.913 43.8992 121.947 44.0711 122.013 44.2314C122.08 44.3918 122.177 44.5375 122.3 44.6602C122.423 44.7828 122.569 44.8801 122.729 44.9463C122.89 45.0126 123.062 45.0466 123.235 45.0463H185.5C185.85 45.0463 186.186 44.9071 186.434 44.6595C186.681 44.4118 186.82 44.0758 186.82 43.7255C186.82 43.3753 186.681 43.0393 186.434 42.7916C186.186 42.5439 185.85 42.4048 185.5 42.4048H123.235Z" fill="#C1C7C9"/>
<path d="M123.235 50.3293C123.062 50.3291 122.89 50.3631 122.729 50.4293C122.569 50.4956 122.423 50.5928 122.3 50.7155C122.177 50.8382 122.08 50.9838 122.013 51.1442C121.947 51.3046 121.913 51.4765 121.913 51.6501C121.913 51.8237 121.947 51.9956 122.013 52.156C122.08 52.3164 122.177 52.462 122.3 52.5847C122.423 52.7074 122.569 52.8046 122.729 52.8709C122.89 52.9371 123.062 52.9711 123.235 52.9709H150.028C150.201 52.9711 150.373 52.9371 150.534 52.8709C150.694 52.8046 150.84 52.7074 150.963 52.5847C151.086 52.462 151.183 52.3164 151.25 52.156C151.316 51.9956 151.351 51.8237 151.351 51.6501C151.351 51.4765 151.316 51.3046 151.25 51.1442C151.183 50.9838 151.086 50.8382 150.963 50.7155C150.84 50.5928 150.694 50.4956 150.534 50.4293C150.373 50.3631 150.201 50.3291 150.028 50.3293H123.235Z" fill="#C1C7C9"/>
<path d="M98.855 62.9984C97.8503 62.9984 97.0327 63.591 97.0327 64.3192C97.0327 65.0474 97.8503 65.6399 98.855 65.6399H184.761C185.765 65.6399 186.583 65.0474 186.583 64.3192C186.583 63.591 185.765 62.9984 184.761 62.9984H98.855Z" fill="#C1C7C9"/>
<path d="M98.855 70.923C97.8503 70.923 97.0327 71.5155 97.0327 72.2437C97.0327 72.9719 97.8503 73.5645 98.855 73.5645H184.761C185.765 73.5645 186.583 72.9719 186.583 72.2437C186.583 71.5155 185.765 70.923 184.761 70.923H98.855Z" fill="#C1C7C9"/>
<path d="M175.521 28.1869C183.304 28.1869 189.614 21.877 189.614 14.0934C189.614 6.30984 183.304 0 175.521 0C167.737 0 161.427 6.30984 161.427 14.0934C161.427 21.877 167.737 28.1869 175.521 28.1869Z" fill="#856FB3"/>
<path d="M175.521 37.0042L171.114 29.3715L166.707 21.7388H175.521H184.334L179.927 29.3715L175.521 37.0042Z" fill="#856FB3"/>
<path d="M175.634 19.062C178.427 19.062 180.691 16.7981 180.691 14.0055C180.691 11.2129 178.427 8.94897 175.634 8.94897C172.842 8.94897 170.578 11.2129 170.578 14.0055C170.578 16.7981 172.842 19.062 175.634 19.062Z" fill="#FBFBFB"/>
<path d="M228.695 88.8849C229.352 88.8849 229.884 88.2191 229.884 87.3977C229.884 86.5764 229.352 85.9105 228.695 85.9105C228.038 85.9105 227.505 86.5764 227.505 87.3977C227.505 88.2191 228.038 88.8849 228.695 88.8849Z" fill="#A0616A"/>
</g>
<defs>
<clipPath id="clip0">
<rect width="250" height="225.411" fill="white"/>
</clipPath>
</defs>
</svg>
