<svg width="250" height="224" viewBox="0 0 250 224" fill="none" xmlns="http://www.w3.org/2000/svg">
<g clip-path="url(#clip0)">
<path d="M202.908 223.506C228.916 223.506 250 220.352 250 216.46C250 212.569 228.916 209.414 202.908 209.414C176.9 209.414 155.816 212.569 155.816 216.46C155.816 220.352 176.9 223.506 202.908 223.506Z" fill="#E6E6E6"/>
<path d="M0 0H249.718V0.00020575C249.718 27.1677 244.367 54.0691 233.971 79.1686C223.574 104.268 208.336 127.074 189.125 146.284C169.915 165.495 147.109 180.733 122.01 191.13C96.9101 201.526 70.0087 206.877 42.8412 206.877H0V0Z" fill="#3F3D56"/>
<path d="M184.008 70.5492C195.197 70.5492 204.268 61.4784 204.268 50.289C204.268 39.0996 195.197 30.0288 184.008 30.0288C172.818 30.0288 163.748 39.0996 163.748 50.289C163.748 61.4784 172.818 70.5492 184.008 70.5492Z" fill="#F2F2F2"/>
<path d="M121.78 10.9263C122.739 10.9263 123.517 10.1488 123.517 9.18971C123.517 8.23062 122.739 7.45312 121.78 7.45312C120.821 7.45312 120.043 8.23062 120.043 9.18971C120.043 10.1488 120.821 10.9263 121.78 10.9263Z" fill="#F0C864"/>
<path d="M178.219 127.278C179.178 127.278 179.956 126.5 179.956 125.541C179.956 124.582 179.178 123.804 178.219 123.804C177.26 123.804 176.482 124.582 176.482 125.541C176.482 126.5 177.26 127.278 178.219 127.278Z" fill="#F0C864"/>
<path d="M184.008 10.9263C184.967 10.9263 185.744 10.1488 185.744 9.18971C185.744 8.23062 184.967 7.45312 184.008 7.45312C183.049 7.45312 182.271 8.23062 182.271 9.18971C182.271 10.1488 183.049 10.9263 184.008 10.9263Z" fill="#F2F2F2"/>
<path d="M208.32 94.5718C209.279 94.5718 210.056 93.7943 210.056 92.8352C210.056 91.8761 209.279 91.0986 208.32 91.0986C207.36 91.0986 206.583 91.8761 206.583 92.8352C206.583 93.7943 207.36 94.5718 208.32 94.5718Z" fill="#F2F2F2"/>
<path d="M139.146 57.814C140.105 57.814 140.882 57.0365 140.882 56.0774C140.882 55.1183 140.105 54.3408 139.146 54.3408C138.187 54.3408 137.409 55.1183 137.409 56.0774C137.409 57.0365 138.187 57.814 139.146 57.814Z" fill="#F2F2F2"/>
<path d="M47.396 46.2368C48.3551 46.2368 49.1326 45.4594 49.1326 44.5003C49.1326 43.5412 48.3551 42.7637 47.396 42.7637C46.4369 42.7637 45.6594 43.5412 45.6594 44.5003C45.6594 45.4594 46.4369 46.2368 47.396 46.2368Z" fill="#F2F2F2"/>
<path d="M80.1016 175.613C112.711 175.613 139.146 149.178 139.146 116.569C139.146 83.9595 112.711 57.5247 80.1016 57.5247C47.4925 57.5247 21.0576 83.9595 21.0576 116.569C21.0576 149.178 47.4925 175.613 80.1016 175.613Z" fill="#856FB3"/>
<path opacity="0.2" d="M77.4971 101.229C82.2926 101.229 86.1801 97.3412 86.1801 92.5457C86.1801 87.7503 82.2926 83.8628 77.4971 83.8628C72.7017 83.8628 68.8142 87.7503 68.8142 92.5457C68.8142 97.3412 72.7017 101.229 77.4971 101.229Z" fill="black"/>
<path opacity="0.2" d="M77.497 165.772C85.8091 165.772 92.5474 159.034 92.5474 150.722C92.5474 142.409 85.8091 135.671 77.497 135.671C69.1848 135.671 62.4465 142.409 62.4465 150.722C62.4465 159.034 69.1848 165.772 77.497 165.772Z" fill="black"/>
<path opacity="0.2" d="M33.7926 131.619C35.8707 131.619 37.5552 129.934 37.5552 127.856C37.5552 125.778 35.8707 124.094 33.7926 124.094C31.7146 124.094 30.03 125.778 30.03 127.856C30.03 129.934 31.7146 131.619 33.7926 131.619Z" fill="black"/>
<path opacity="0.2" d="M182.245 41.8385C183.35 41.8385 184.245 40.943 184.245 39.8383C184.245 38.7336 183.35 37.8381 182.245 37.8381C181.141 37.8381 180.245 38.7336 180.245 39.8383C180.245 40.943 181.141 41.8385 182.245 41.8385Z" fill="black"/>
<path opacity="0.2" d="M97.4418 81.4906C98.5465 81.4906 99.442 80.5951 99.442 79.4904C99.442 78.3857 98.5465 77.4902 97.4418 77.4902C96.3372 77.4902 95.4417 78.3857 95.4417 79.4904C95.4417 80.5951 96.3372 81.4906 97.4418 81.4906Z" fill="black"/>
<path opacity="0.2" d="M74.8922 121.778C76.3309 121.778 77.4971 120.612 77.4971 119.173C77.4971 117.735 76.3309 116.569 74.8922 116.569C73.4536 116.569 72.2874 117.735 72.2874 119.173C72.2874 120.612 73.4536 121.778 74.8922 121.778Z" fill="black"/>
<path opacity="0.2" d="M177.376 57.8192C178.481 57.8192 179.377 56.9237 179.377 55.819C179.377 54.7144 178.481 53.8188 177.376 53.8188C176.272 53.8188 175.376 54.7144 175.376 55.819C175.376 56.9237 176.272 57.8192 177.376 57.8192Z" fill="black"/>
<path opacity="0.2" d="M123.542 107.023C124.647 107.023 125.543 106.127 125.543 105.022C125.543 103.918 124.647 103.022 123.542 103.022C122.438 103.022 121.542 103.918 121.542 105.022C121.542 106.127 122.438 107.023 123.542 107.023Z" fill="black"/>
<path opacity="0.2" d="M195.301 56.8217C196.896 56.8217 198.19 55.5282 198.19 53.9326C198.19 52.337 196.896 51.0435 195.301 51.0435C193.705 51.0435 192.412 52.337 192.412 53.9326C192.412 55.5282 193.705 56.8217 195.301 56.8217Z" fill="black"/>
<path opacity="0.2" d="M107.024 128.311C108.62 128.311 109.913 127.018 109.913 125.422C109.913 123.826 108.62 122.533 107.024 122.533C105.429 122.533 104.135 123.826 104.135 125.422C104.135 127.018 105.429 128.311 107.024 128.311Z" fill="black"/>
<path opacity="0.2" d="M43.6335 96.3084C45.7115 96.3084 47.3961 94.6238 47.3961 92.5458C47.3961 90.4678 45.7115 88.7832 43.6335 88.7832C41.5554 88.7832 39.8708 90.4678 39.8708 92.5458C39.8708 94.6238 41.5554 96.3084 43.6335 96.3084Z" fill="black"/>
<path d="M92.8943 150.603C86.685 150.594 80.4811 150.236 74.3122 149.529C55.7578 147.422 38.6454 142.443 26.1275 135.509C13.4565 128.49 6.97265 120.272 7.87021 112.368C8.49204 106.892 13.7849 101.991 24.0511 97.3843C24.1911 97.3218 24.3503 97.3174 24.4936 97.372C24.6369 97.4267 24.7526 97.536 24.8154 97.676C24.8782 97.8159 24.8829 97.9751 24.8284 98.1185C24.774 98.2619 24.6649 98.3778 24.5251 98.4408C14.6639 102.865 9.59238 107.464 9.02059 112.499C8.17914 119.907 14.4538 127.719 26.6886 134.496C39.0765 141.358 56.0359 146.288 74.4428 148.378C92.8498 150.469 110.483 149.467 124.094 145.558C137.537 141.697 145.403 135.491 146.245 128.083C146.814 123.071 144.053 117.757 138.261 112.715C138.145 112.614 138.074 112.471 138.064 112.318C138.053 112.165 138.104 112.013 138.205 111.898C138.306 111.782 138.448 111.711 138.601 111.7C138.755 111.69 138.906 111.74 139.022 111.841C145.114 117.145 148.009 122.806 147.395 128.213C146.497 136.117 138.336 142.672 124.413 146.671C115.349 149.274 104.529 150.603 92.8943 150.603Z" fill="white"/>
<path d="M183.705 203.242L184.115 206.934L180.423 206.523V202.011L183.705 203.242Z" fill="#FFB8B8"/>
<path d="M222.268 203.242L221.858 206.934L225.55 206.523V202.011L222.268 203.242Z" fill="#FFB8B8"/>
<path d="M183.295 123.654L181.654 165.909C181.654 165.909 176.321 197.498 177.552 198.319C178.782 199.139 177.552 203.652 177.552 203.652L184.526 204.472C184.526 204.472 184.526 201.19 186.167 199.96C187.808 198.729 202.987 140.885 202.987 140.885L218.576 196.678C218.576 196.678 218.166 199.96 219.396 199.96C220.627 199.96 221.037 204.472 221.037 204.472H228.012V199.96C228.012 199.96 230.063 199.549 228.832 196.267C227.601 192.985 223.089 123.654 223.089 123.654L183.295 123.654Z" fill="#2F2E41"/>
<path d="M181.244 203.242C181.244 203.242 179.192 202.011 178.372 202.831C177.551 203.652 170.988 211.857 170.988 211.857C170.988 211.857 161.962 217.6 170.167 219.241C178.372 220.882 184.526 213.087 184.936 212.267C185.346 211.446 184.526 204.883 184.115 205.703C183.705 206.524 182.474 206.113 182.064 205.703C181.654 205.293 181.244 203.242 181.244 203.242Z" fill="#2F2E41"/>
<path d="M224.729 203.242C224.729 203.242 226.781 202.011 227.601 202.831C228.421 203.652 234.985 211.857 234.985 211.857C234.985 211.857 244.011 217.6 235.806 219.241C227.601 220.882 221.447 213.087 221.037 212.267C220.627 211.446 221.447 204.883 221.858 205.703C222.268 206.524 223.499 206.113 223.909 205.703C224.319 205.293 224.729 203.242 224.729 203.242Z" fill="#2F2E41"/>
<path d="M208.115 62.9384C212.759 62.9384 216.525 59.1731 216.525 54.5284C216.525 49.8837 212.759 46.1184 208.115 46.1184C203.47 46.1184 199.705 49.8837 199.705 54.5284C199.705 59.1731 203.47 62.9384 208.115 62.9384Z" fill="#FFB8B8"/>
<path d="M202.576 59.246L201.345 71.9636L211.191 74.0149L213.653 58.8359L202.576 59.246Z" fill="#FFB8B8"/>
<path d="M212.832 69.0919C212.832 69.0919 210.371 74.425 201.345 68.6816L184.525 123.654C184.525 123.654 207.089 137.192 221.447 126.936L216.524 71.5533L212.832 69.0919Z" fill="#B3A3D4"/>
<path d="M202.987 62.9382L195.192 61.7075L194.372 67.0407C194.372 67.0407 183.705 68.2714 182.475 72.3739L183.705 102.732C183.705 102.732 180.013 109.296 183.295 113.398C183.295 113.398 177.962 124.475 182.064 126.526C182.064 126.526 191.5 122.013 197.243 123.244C197.243 123.244 200.525 122.424 200.525 119.962C200.525 117.501 202.987 62.9382 202.987 62.9382Z" fill="#2F2E41"/>
<path d="M212.422 63.7588L216.935 64.9895L217.345 70.7329C217.345 70.7329 228.422 77.7071 228.832 81.8095C229.242 85.9119 220.627 105.604 220.627 105.604C220.627 105.604 223.909 111.347 222.678 115.039C222.678 115.039 228.011 125.706 224.729 128.577C224.729 128.577 218.576 130.218 217.755 127.757C216.935 125.295 209.55 96.9885 212.832 83.4505C212.832 83.4505 209.55 66.2202 212.422 63.7588Z" fill="#2F2E41"/>
<path d="M217.14 77.119H216.986V72.8889C216.986 72.5674 216.922 72.2491 216.799 71.952C216.676 71.655 216.496 71.3851 216.269 71.1578C216.041 70.9304 215.771 70.7501 215.474 70.627C215.177 70.504 214.859 70.4407 214.537 70.4407H205.575C205.254 70.4407 204.936 70.504 204.639 70.627C204.342 70.7501 204.072 70.9304 203.844 71.1578C203.617 71.3851 203.437 71.655 203.314 71.952C203.191 72.2491 203.127 72.5674 203.127 72.8889V96.0954C203.127 96.4169 203.191 96.7353 203.314 97.0323C203.437 97.3293 203.617 97.5992 203.844 97.8266C204.072 98.0539 204.342 98.2343 204.639 98.3573C204.936 98.4803 205.254 98.5436 205.575 98.5436H214.537C214.859 98.5436 215.177 98.4803 215.474 98.3573C215.771 98.2343 216.041 98.0539 216.269 97.8266C216.496 97.5992 216.676 97.3293 216.799 97.0323C216.922 96.7353 216.986 96.4169 216.986 96.0954V80.13H217.14V77.119Z" fill="white"/>
<path d="M221.037 93.7064C221.037 93.7064 217.755 83.0401 212.833 86.322C207.91 89.604 216.114 98.6293 216.114 98.6293L221.037 93.7064Z" fill="#FFB8B8"/>
<path d="M198.474 85.9119C198.474 85.9119 204.217 78.9378 207.089 82.2197C209.961 85.5017 202.166 92.886 202.166 92.886L198.474 85.9119Z" fill="#FFB8B8"/>
<path d="M183.705 71.9635C183.705 71.9635 181.654 71.5533 180.423 75.2455C179.193 78.9377 174.68 92.8859 174.68 95.3474C174.68 97.8089 176.321 107.655 185.346 106.014C194.372 104.373 205.038 92.8859 205.038 92.8859L199.295 84.2708L186.987 91.6552L183.705 71.9635Z" fill="#2F2E41"/>
<path opacity="0.1" d="M185.478 82.5992L187.192 91.4501L199.91 84.066L188.013 88.5787L185.39 82.071L185.478 82.5992Z" fill="black"/>
<path opacity="0.1" d="M221.653 91.4502L223.294 92.681L224.114 86.9375L221.653 91.4502Z" fill="black"/>
<path opacity="0.1" d="M183.5 107.039C183.5 107.039 195.55 103.761 201.217 96.5801C201.217 96.5801 195.397 106.219 183.5 107.039Z" fill="black"/>
<path opacity="0.1" d="M213.858 99.655C213.858 99.655 216.395 112.073 222.921 112.428C222.921 112.428 215.089 114.834 213.858 99.655Z" fill="black"/>
<path d="M227.191 80.1685C227.191 80.1685 228.422 80.9889 229.242 84.6811C230.063 88.3733 235.396 102.322 233.345 105.604C231.293 108.886 228.011 116.27 221.037 111.347L214.063 98.6294L221.037 92.0655L223.909 94.1168L227.191 80.1685Z" fill="#2F2E41"/>
<path d="M200.041 56.6612C200.041 56.6612 192.988 45.2301 200.5 44.6355C203.008 44.4602 205.456 43.7931 207.705 42.6724C210.195 41.4052 213.33 40.442 214.998 42.3927C215.726 43.2847 216.575 44.0709 217.52 44.7287C218.985 45.7005 220.68 47.2758 219.742 48.9657L218.203 51.7361L216.048 57.2769C216.55 54.887 216.562 52.8804 215.278 51.89C215.278 51.89 208.115 54.9385 204.505 49.4274C200.463 46.3952 199.177 55.9393 200.041 56.6612Z" fill="#2F2E41"/>
<path d="M210.166 80.7838C211.299 80.7838 212.217 79.8655 212.217 78.7326C212.217 77.5998 211.299 76.6814 210.166 76.6814C209.033 76.6814 208.115 77.5998 208.115 78.7326C208.115 79.8655 209.033 80.7838 210.166 80.7838Z" fill="#856FB3"/>
</g>
<defs>
<clipPath id="clip0">
<rect width="250" height="223.506" fill="white"/>
</clipPath>
</defs>
</svg>
