<svg width="250" height="214" viewBox="0 0 250 214" fill="none" xmlns="http://www.w3.org/2000/svg">
<g clip-path="url(#clip0)">
<path d="M177.395 49.977H176.24V18.3214C176.24 15.9154 175.766 13.533 174.845 11.3101C173.924 9.08725 172.575 7.06752 170.874 5.36622C169.172 3.66492 167.153 2.31538 164.93 1.39464C162.707 0.473901 160.324 1.89747e-06 157.918 0H90.8518C88.4458 -5.69221e-06 86.0634 0.473886 83.8405 1.39462C81.6177 2.31535 79.5979 3.66489 77.8966 5.36618C76.1953 7.06747 74.8458 9.0872 73.925 11.3101C73.0043 13.5329 72.5304 15.9153 72.5304 18.3213V191.986C72.5304 196.845 74.4607 201.505 77.8966 204.941C81.3325 208.377 85.9926 210.308 90.8517 210.308H157.918C162.777 210.308 167.438 208.377 170.873 204.941C174.309 201.506 176.24 196.845 176.24 191.986V72.5099H177.395L177.395 49.977Z" fill="#3F3D56"/>
<path d="M158.658 4.76661H149.903C150.306 5.75364 150.46 6.82453 150.351 7.88494C150.242 8.94534 149.874 9.96273 149.28 10.8475C148.685 11.7322 147.882 12.4572 146.941 12.9584C146.001 13.4597 144.951 13.7219 143.885 13.722H105.463C104.397 13.7219 103.348 13.4597 102.407 12.9584C101.466 12.4572 100.663 11.7322 100.069 10.8475C99.4741 9.96274 99.1062 8.94534 98.9974 7.88493C98.8886 6.82452 99.0423 5.75363 99.4449 4.7666H91.2683C87.6395 4.7666 84.1594 6.20811 81.5935 8.77401C79.0276 11.3399 77.5861 14.82 77.5861 18.4488V191.859C77.5861 193.656 77.94 195.435 78.6276 197.095C79.3151 198.755 80.323 200.263 81.5935 201.534C82.864 202.804 84.3723 203.812 86.0323 204.5C87.6923 205.187 89.4715 205.541 91.2683 205.541H158.658C160.455 205.541 162.234 205.187 163.894 204.5C165.554 203.812 167.062 202.804 168.333 201.534C169.603 200.263 170.611 198.755 171.299 197.095C171.986 195.435 172.34 193.656 172.34 191.859V18.4488C172.34 16.652 171.986 14.8728 171.299 13.2128C170.611 11.5528 169.603 10.0445 168.333 8.77402C167.062 7.50351 165.554 6.49569 163.894 5.8081C162.234 5.12051 160.455 4.76661 158.658 4.76661Z" fill="white"/>
<path d="M241.788 89.3026C240.372 93.4964 238.2 97.3176 233.773 97.3176C229.347 97.3176 226.008 93.7222 225.758 89.3026C225.44 83.6553 229.245 81.2641 233.773 81.2875C239.123 81.3152 243.47 84.3255 241.788 89.3026Z" fill="#2F2E41"/>
<path d="M241.577 89.1223H225.758V109.16H241.577V89.1223Z" fill="#2F2E41"/>
<path d="M242.042 104.051H243.387C244.382 105.468 245.057 107.084 245.367 108.787C245.677 110.491 245.613 112.241 245.182 113.918C243.686 119.599 244.883 120.645 244.883 120.645C244.883 120.645 246.829 126.797 244.736 136.067C242.643 145.336 246.677 147.855 246.677 147.855L242.939 140.38L240.846 120.645L242.042 104.051Z" fill="#E6E6E6"/>
<path d="M237.332 96.7996C237.332 96.7996 236.136 101.584 236.734 101.584C237.332 101.584 239.425 104.125 239.425 104.125L240.771 109.059L239.724 112.647L236.136 111.899L231.651 106.966L230.306 105.62L229.11 101.285C229.11 101.285 230.605 99.4906 229.558 97.9956C228.512 96.5005 237.332 96.7996 237.332 96.7996Z" fill="#FBBEBE"/>
<path d="M201.153 110.105L197.864 104.723C197.864 104.723 194.313 96.8677 191.772 99.7082C189.23 102.549 195.621 108.311 195.621 108.311L198.91 112.647L201.153 110.105Z" fill="#FBBEBE"/>
<path d="M244.808 156.899L242.416 174.391C242.416 174.391 242.715 175.737 239.725 180.67C236.735 185.604 228.661 196.368 228.661 196.368L226.269 191.883C226.269 191.883 229.11 177.68 234.043 174.69L233.445 153.162L244.808 156.899Z" fill="#FBBEBE"/>
<path d="M226.269 190.089L229.558 196.368C229.558 196.368 226.867 200.146 227.914 200.894C228.96 201.641 230.306 208.369 227.465 207.621C224.625 206.874 222.382 203.884 222.382 203.435C222.382 202.987 224.027 200.554 223.13 199.059C222.233 197.564 221.635 197.116 221.635 197.116L219.845 199.496L219.097 199.047L222.382 194.126C222.382 194.126 222.831 192.93 224.625 192.182L226.269 190.089Z" fill="#2F2E41"/>
<path d="M233.48 154.418C233.48 154.418 234.641 170.953 232.1 175.288V196.817L228.661 197.265C228.661 197.265 221.717 185.868 224.259 174.655C226.8 163.442 221.635 153.162 221.635 153.162L233.48 154.418Z" fill="#FBBEBE"/>
<path d="M232.623 100.462C236.091 100.462 238.902 97.6513 238.902 94.1834C238.902 90.7155 236.091 87.9043 232.623 87.9043C229.155 87.9043 226.344 90.7155 226.344 94.1834C226.344 97.6513 229.155 100.462 232.623 100.462Z" fill="#FBBEBE"/>
<path d="M238.977 110.703L232.698 102.78L229.11 100.388L227.615 102.331L223.429 103.527C223.429 103.527 220.738 104.125 217.897 107.414C215.056 110.703 209.973 112.647 209.973 112.647C209.973 112.647 200.854 109.657 200.854 109.059C200.854 108.461 196.518 113.095 197.565 114.889C198.611 116.683 203.599 122.165 210.925 121.118C218.25 120.071 221.037 119.075 221.037 119.075C221.037 119.075 222.382 125.953 226.269 127.298C230.156 128.644 242.864 129.541 242.864 129.541L245.555 120.571C245.555 120.571 248.545 116.683 244.509 111.002C244.509 111.002 244.431 107.825 243.997 105.711C243.828 104.888 243.606 104.227 243.312 103.976C242.266 103.079 236.734 101.584 236.734 101.584C236.734 101.584 237.631 104.574 238.08 104.723C238.528 104.873 239.575 109.956 238.977 110.703Z" fill="#E6E6E6"/>
<path d="M219.774 172.752C227.303 172.229 231.686 173.462 233.642 174.403C234.005 174.567 235.362 174.912 235.362 174.969C235.362 175.418 245.2 176.545 248.938 175.648C252.675 174.751 245.48 138.137 243.836 136.492C242.191 134.848 243.078 128.829 243.078 128.829C243.078 128.829 227.989 126.775 226.643 126.476C226.042 126.343 225.739 126.567 225.588 126.857C225.353 127.292 224.998 127.651 224.565 127.89C221.391 129.719 218.844 142.36 216.925 149.35C214.832 156.974 219.774 172.752 219.774 172.752Z" fill="#2F2E41"/>
<path d="M232.698 195.471C232.698 195.471 234.457 201.895 235.539 206.983C235.539 206.983 236.286 208.749 238.977 210.094C241.668 211.44 238.521 213.674 235.979 213.525C233.438 213.375 231.046 213.674 230.747 212.927C230.447 212.179 229.559 208.926 229.559 208.926L229.068 213.426L227.573 213.576L228.064 207.73C228.064 207.73 226.867 205.488 228.512 201.75L228.097 196.013C228.097 196.013 232.25 196.966 232.698 195.471Z" fill="#2F2E41"/>
<path opacity="0.1" d="M232.737 156.98C233.1 157.145 233.443 157.353 233.757 157.599C233.836 156.187 234.293 147.642 233.745 147.78L232.737 156.98Z" fill="black"/>
<path d="M230.024 85.5367C230.024 85.5367 229.954 85.1496 227.235 86.1695C224.515 87.1894 222.885 94.7156 224.244 99.135C224.792 100.916 224.347 102.2 223.619 103.099C220.889 106.47 221.964 111.534 225.941 113.268C226.053 113.317 226.167 113.365 226.284 113.413L227.984 114.433C227.984 114.433 225.817 111.582 226.902 107.935C227.843 104.827 227.96 101.528 227.239 98.3621C227.115 97.828 226.973 97.2775 226.813 96.7156C225.453 91.9562 226.114 92.5059 230.874 87.7465C230.874 87.7465 233.593 89.7862 235.973 90.8061C238.353 91.826 240.392 92.8458 238.693 96.2454C236.993 99.645 232.913 102.705 235.633 107.124C238.353 111.543 238.693 109.844 238.353 111.544L238.013 113.243L240.053 111.204L238.693 113.923C238.693 113.923 243.112 113.923 244.472 110.524L245.152 111.204C245.152 111.204 247.872 106.444 242.772 102.025C242.772 102.025 241.072 101.005 243.452 97.6052C245.832 94.2057 244.004 86.8966 240.945 85.5367C237.885 84.1769 230.024 85.5367 230.024 85.5367Z" fill="#2F2E41"/>
<path d="M18.5391 93.9916L18.2883 100.457L23.3172 100.652L23.568 94.1866L18.5391 93.9916Z" fill="#6C63FF"/>
<path d="M41.224 116.636C41.224 116.636 48.1883 113.309 48.0768 116.182C47.9654 119.056 41.0569 120.946 41.0569 120.946L41.224 116.636Z" fill="#FFB9B9"/>
<path d="M37.403 140.95C37.403 140.95 40.6886 148.992 41.9025 154.795C43.1165 160.598 44.9653 168.584 42.5872 174.248C40.2091 179.912 33.4479 196.558 33.3782 198.354C33.3086 200.15 33.9574 201.974 32.5205 201.918C31.0837 201.862 23.2648 199.401 22.9473 198.309C22.6299 197.218 25.615 194.455 25.615 194.455L32.9861 171.358L25.2955 156.31L19.7482 178.759L18.6618 206.777C18.6618 206.777 13.3294 205.131 12.5552 206.54C12.5552 206.54 10.1662 203.21 9.86268 201.759C9.55919 200.308 10.991 172.663 10.991 172.663C10.991 172.663 6.09631 141.175 10.0476 141.329C13.9988 141.482 29.4755 132.009 37.403 140.95Z" fill="#2F2E41"/>
<path d="M32.5768 200.481C32.5768 200.481 36.2216 208.537 36.5669 208.91C36.9121 209.283 39.2873 212.973 37.4913 212.903C35.6952 212.834 31.4544 210.87 28.333 207.871C25.2115 204.872 21.0961 199.676 21.4692 199.331C21.8424 198.986 24.3986 198.006 24.3986 198.006L32.5768 200.481Z" fill="#2F2E41"/>
<path d="M18.0135 204.953C18.0135 204.953 18.2334 208.559 18.8961 210.024C19.5588 211.488 19.4752 213.643 17.6792 213.574C15.8832 213.504 11.2413 213.51 11.2413 213.51C11.2413 213.51 10.9657 211.341 11.3388 210.995C11.712 210.65 13.302 205.849 12.6254 204.744C11.9488 203.638 18.0135 204.953 18.0135 204.953Z" fill="#2F2E41"/>
<path d="M15.3562 87.9324C15.3562 87.9324 11.5274 93.8996 10.0348 95.2807C8.5423 96.6618 12.7413 99.7026 12.7413 99.7026L20.2568 100.714C20.2568 100.714 20.1623 93.8747 20.5493 93.1702C20.9364 92.4657 15.3562 87.9324 15.3562 87.9324Z" fill="#FFB9B9"/>
<path d="M21.8886 95.7403C21.8886 95.7403 20.3404 98.5583 18.9036 98.5025C17.4667 98.4468 10.0348 95.2807 9.71742 94.1891C9.4 93.0976 7.25574 102.008 7.25574 102.008L25.441 134.011L29.8769 130.945L27.7276 112.155L25.9623 102.014L21.8886 95.7403Z" fill="white"/>
<path d="M9.04652 124.382C9.79764 125.841 10.1806 127.461 10.1622 129.102C10.1594 129.174 10.1566 129.245 10.1502 129.317C9.97813 132.642 8.75339 136.487 8.314 139.283C7.99517 141.289 8.0859 142.753 9.25972 143.097C12.1055 143.927 8.84479 144.52 19.8548 148.184C30.8649 151.849 32.7862 148.686 32.8141 147.967C32.842 147.249 31.2549 141.791 31.628 141.446C32.0011 141.101 36.8489 145.965 38.3136 145.303C39.7783 144.64 38.4808 140.992 38.4808 140.992C38.4808 140.992 35.1812 133.31 35.2509 131.514C35.3205 129.718 30.2528 121.247 30.2528 121.247L26.806 98.809C26.806 98.809 25.4806 95.8796 23.6985 95.4507C22.5758 95.2175 21.4064 95.4301 20.4377 96.0438L23.4199 102.635L26.5662 114.269L26.0399 118.565C26.0399 118.565 22.3811 110.869 19.9781 107.898C17.5751 104.926 12.4517 97.8926 12.4517 97.8926C12.4517 97.8926 11.2555 93.8566 12.1585 92.6505C13.0616 91.4408 8.3919 91.2597 6.40086 96.219C5.3456 98.8474 3.63232 102.767 2.55905 106.416C1.60267 109.649 1.15089 112.672 2.0984 114.399C3.54655 117.038 7.18938 120.507 9.04652 124.382Z" fill="#3F3D56"/>
<path opacity="0.1" d="M2.0984 114.399C3.54656 117.038 7.18938 120.507 9.04653 124.382C9.53159 122.634 10.1233 120.826 10.1233 120.826C10.1233 120.826 12.393 108.683 5.67949 105.545C4.56711 105.437 3.45457 105.748 2.55905 106.416C1.60266 109.649 1.1509 112.672 2.0984 114.399Z" fill="black"/>
<path d="M28.7494 113.634L34.441 115.294L42.3436 115.6L43.1565 122.467L30.1694 123.402C30.1694 123.402 26.9255 114.283 28.7494 113.634Z" fill="#3F3D56"/>
<path d="M19.4683 136.722C19.4683 136.722 27.0825 137.985 25.3446 140.277C23.6067 142.568 16.8615 140.159 16.8615 140.159L19.4683 136.722Z" fill="#FFB9B9"/>
<path opacity="0.1" d="M10.1499 129.317C9.97785 132.642 8.75311 136.487 8.31372 139.283C10.7393 141.579 13.0459 143.603 13.9152 143.637C15.7112 143.707 18.5988 143.459 19.6625 143.86C20.7262 144.261 21.35 137.45 21.35 137.45C21.35 137.45 20.7152 135.267 17.8833 134.078C15.9719 133.273 12.308 131.092 10.1499 129.317Z" fill="black"/>
<path d="M5.7631 103.389C5.7631 103.389 -0.315549 102.434 0.0128421 112.52C0.341233 122.605 -0.627908 129.043 1.81689 130.937C4.2617 132.83 12.2031 141.412 13.9991 141.482C15.7951 141.552 18.6827 141.304 19.7464 141.705C20.8101 142.106 21.4339 135.295 21.4339 135.295C21.4339 135.295 20.7991 133.112 17.9672 131.923C15.1354 130.734 8.4637 126.518 8.51941 125.081C8.57512 123.644 10.207 118.671 10.207 118.671C10.207 118.671 12.4766 106.528 5.7631 103.389Z" fill="#3F3D56"/>
<path d="M20.7163 96.7684C25.0841 96.7684 28.6248 93.2276 28.6248 88.8599C28.6248 84.4922 25.0841 80.9514 20.7163 80.9514C16.3486 80.9514 12.8079 84.4922 12.8079 88.8599C12.8079 93.2276 16.3486 96.7684 20.7163 96.7684Z" fill="#FFB9B9"/>
<path d="M26.0414 77.5247C26.2322 77.689 26.4606 77.8036 26.7064 77.8584C26.8298 77.8804 26.9568 77.8526 27.0598 77.7813C27.1629 77.7099 27.2335 77.6007 27.2563 77.4775C27.3984 77.8721 27.6627 78.2111 28.0108 78.4452C28.3802 78.6377 28.9514 78.4763 29.0047 78.0631C29.0586 78.3768 29.1974 78.6698 29.406 78.9102C29.5147 79.0252 29.6645 79.0927 29.8227 79.098C29.9809 79.1033 30.1348 79.0459 30.2509 78.9384C30.0892 79.8226 30.189 80.7318 30.1382 81.6292C30.0874 82.5265 29.8481 83.4778 29.1701 84.0679C28.1814 84.9285 26.6946 84.7161 25.3939 84.5531C25.1972 84.5118 24.9932 84.523 24.8022 84.5854C24.3152 84.7929 24.3373 85.4708 24.3307 86.0001C24.291 86.9289 23.9234 87.8135 23.2933 88.4968C22.6631 89.1802 21.8112 89.6182 20.8887 89.7329C20.3725 89.8126 19.8457 89.6841 19.4242 89.3755C19.0549 89.0625 18.8663 88.5524 18.4431 88.3172C17.7548 87.9348 16.92 88.4926 16.4168 89.0982C15.9135 89.7039 15.4176 90.4489 14.638 90.5597C13.6069 90.7063 12.8216 89.6556 12.4363 88.688C11.9047 87.3319 11.65 85.8831 11.6873 84.427C11.7245 82.971 12.0529 81.5371 12.6531 80.2099C14.8061 75.5169 22.1604 74.7747 26.0414 77.5247Z" fill="#2F2E41"/>
<path d="M49.0617 112.258C51.6518 109.341 55.9926 109.559 59.3444 110.867C63.4922 112.485 66.4935 116.085 69.8428 118.864C71.5658 120.344 73.5002 121.559 75.5819 122.468C77.658 123.33 79.8628 123.843 82.1065 123.984C86.4736 124.277 90.8141 123.108 94.4427 120.66C97.8437 118.342 100.466 115.052 101.967 111.219C102.148 110.752 102.309 110.277 102.453 109.796C102.614 109.261 101.778 109.032 101.617 109.566C100.427 113.464 98.038 116.887 94.7899 119.348C91.3327 121.957 87.084 123.299 82.7555 123.148C80.5266 123.075 78.3265 122.622 76.2497 121.809C74.159 120.949 72.2188 119.761 70.5024 118.29C67.1397 115.508 64.1498 111.969 60.0559 110.228C56.7359 108.815 52.4538 108.385 49.4332 110.724C49.0772 111 48.7476 111.308 48.4488 111.645C48.0794 112.061 48.6904 112.676 49.0618 112.258H49.0617Z" fill="#2F2E41"/>
<path d="M189.391 96.7449C188.848 93.147 185.685 90.7871 182.412 89.7403C178.07 88.3512 173.562 89.4038 169.19 90.0735C166.836 90.4341 164.449 90.6719 162.072 90.3985C158.961 90.0227 155.987 88.8946 153.409 87.1119C150.831 85.3292 148.726 82.9455 147.276 80.1667C145.321 76.2986 144.714 71.8889 145.551 67.6366C145.658 67.1033 145.791 66.5756 145.943 66.0533C145.969 65.944 145.952 65.8287 145.895 65.7319C145.838 65.6351 145.745 65.5643 145.637 65.5344C145.528 65.5045 145.412 65.5179 145.314 65.5717C145.215 65.6255 145.141 65.7156 145.107 65.8229C143.903 70.0223 144.089 74.4984 145.636 78.5837C147.153 82.57 149.922 85.957 153.527 88.2364C157.184 90.546 161.481 91.6312 165.796 91.3347C168.306 91.1694 170.775 90.6651 173.259 90.2968C175.465 89.9697 177.757 89.7131 179.977 90.0573C183.286 90.5703 187.061 92.3247 188.246 95.7083C188.389 96.1201 188.492 96.5443 188.556 96.9754C188.639 97.5252 189.474 97.2916 189.391 96.7449V96.7449Z" fill="#2F2E41"/>
<path d="M124.963 153.048C124.077 152.163 123.026 151.46 121.869 150.981C120.712 150.502 119.472 150.255 118.22 150.255C116.968 150.255 115.728 150.502 114.571 150.981C113.414 151.46 112.363 152.163 111.477 153.048C110.592 153.934 109.889 154.985 109.41 156.142C108.931 157.299 108.684 158.539 108.684 159.791C108.684 161.043 108.931 162.283 109.41 163.44C109.889 164.597 110.592 165.648 111.477 166.533L124.963 180.019L138.448 166.533C139.334 165.648 140.037 164.597 140.516 163.44C140.996 162.283 141.243 161.043 141.243 159.79C141.243 158.538 140.997 157.297 140.517 156.14C140.038 154.983 139.336 153.931 138.45 153.046C137.564 152.16 136.513 151.458 135.356 150.978C134.199 150.499 132.958 150.253 131.706 150.253C130.453 150.253 129.213 150.5 128.056 150.98C126.899 151.459 125.848 152.162 124.963 153.048Z" fill="#644A98"/>
<path d="M197.391 43.7683H114.314V60.1707H197.391V43.7683Z" fill="#E6E6E6"/>
<path d="M116.085 58.3998H195.62V45.5396H116.085V58.3998Z" fill="white"/>
<path d="M123.048 56.7625C125.754 56.7625 127.947 54.5689 127.947 51.8631C127.947 49.1572 125.754 46.9636 123.048 46.9636C120.342 46.9636 118.148 49.1572 118.148 51.8631C118.148 54.5689 120.342 56.7625 123.048 56.7625Z" fill="#644A98"/>
<path d="M183.119 49.946H134.764V51.0111H183.119V49.946Z" fill="#E6E6E6"/>
<path d="M183.119 52.7151H134.764V53.7802H183.119V52.7151Z" fill="#E6E6E6"/>
<path d="M144.798 86.5364H61.7209V102.939H144.798V86.5364Z" fill="#E6E6E6"/>
<path d="M63.4919 101.168H143.027V88.3074H63.4919V101.168Z" fill="white"/>
<path d="M70.455 99.5305C73.1609 99.5305 75.3544 97.337 75.3544 94.6311C75.3544 91.9252 73.1609 89.7317 70.455 89.7317C67.7491 89.7317 65.5555 91.9252 65.5555 94.6311C65.5555 97.337 67.7491 99.5305 70.455 99.5305Z" fill="#644A98"/>
<path d="M130.526 92.7139H82.1713V93.779H130.526V92.7139Z" fill="#E6E6E6"/>
<path d="M130.526 95.4832H82.1713V96.5483H130.526V95.4832Z" fill="#E6E6E6"/>
</g>
<defs>
<clipPath id="clip0">
<rect width="250" height="213.576" fill="white"/>
</clipPath>
</defs>
</svg>
