<svg width="250" height="158" viewBox="0 0 250 158" fill="none" xmlns="http://www.w3.org/2000/svg">
<g clip-path="url(#clip0)">
<path d="M14.1315 147.524C14.0773 147.436 12.7995 145.302 12.3565 140.872C11.9502 136.807 12.2114 129.956 15.7646 120.399C22.496 102.294 14.2133 87.6856 14.1287 87.54L14.5373 87.303C14.5588 87.3399 16.696 91.0644 17.9586 96.9951C19.6268 104.858 19.0194 113.033 16.2074 120.563C9.48755 138.637 14.4834 147.194 14.5346 147.278L14.1315 147.524Z" fill="#3F3D56"/>
<path d="M11.4993 86.4771C13.1947 86.4771 14.5691 85.1026 14.5691 83.4072C14.5691 81.7118 13.1947 80.3374 11.4993 80.3374C9.80391 80.3374 8.4295 81.7118 8.4295 83.4072C8.4295 85.1026 9.80391 86.4771 11.4993 86.4771Z" fill="#856FB3"/>
<path d="M21.181 97.8115C22.8764 97.8115 24.2508 96.4371 24.2508 94.7417C24.2508 93.0463 22.8764 91.6719 21.181 91.6719C19.4856 91.6719 18.1112 93.0463 18.1112 94.7417C18.1112 96.4371 19.4856 97.8115 21.181 97.8115Z" fill="#3F3D56"/>
<path d="M14.5691 105.368C16.2646 105.368 17.639 103.994 17.639 102.298C17.639 100.603 16.2646 99.2285 14.5691 99.2285C12.8737 99.2285 11.4993 100.603 11.4993 102.298C11.4993 103.994 12.8737 105.368 14.5691 105.368Z" fill="#856FB3"/>
<path d="M22.5979 111.744C24.2933 111.744 25.6677 110.369 25.6677 108.674C25.6677 106.979 24.2933 105.604 22.5979 105.604C20.9025 105.604 19.5281 106.979 19.5281 108.674C19.5281 110.369 20.9025 111.744 22.5979 111.744Z" fill="#856FB3"/>
<path d="M12.2078 121.662C13.9032 121.662 15.2776 120.287 15.2776 118.592C15.2776 116.896 13.9032 115.522 12.2078 115.522C10.5123 115.522 9.13794 116.896 9.13794 118.592C9.13794 120.287 10.5123 121.662 12.2078 121.662Z" fill="#3F3D56"/>
<path d="M15.986 147.637C15.986 147.637 12.9162 140.08 22.1256 134.413L15.986 147.637Z" fill="#3F3D56"/>
<path d="M12.2104 147.5C12.2104 147.5 10.8133 139.464 0 139.533L12.2104 147.5Z" fill="#3F3D56"/>
<path d="M250 129.871H31.9575V129.234H249.682L250 129.871Z" fill="#2F2E41"/>
<path d="M54.8833 7.60376H54.8833C62.8308 7.60376 69.2736 14.7538 69.2736 23.5738V34.7797H65.8271L63.8319 30.6278L64.3307 34.7797H42.1784L40.3645 31.0052L40.818 34.7797H38.3239V25.981C38.3239 15.8316 45.7378 7.60376 54.8833 7.60376Z" fill="#2F2E41"/>
<path d="M79.3061 27.5902L75.5575 14.6905C75.5575 14.6905 73.0752 6.66184 68.9411 6.8421C64.807 7.02236 71.4736 16.5842 71.4736 16.5842L74.3644 24.4234L74.9827 27.362L79.3061 27.5902Z" fill="#A0616A"/>
<path d="M63.9475 57.1367L67.4489 64.4579L53.4432 74.0072L46.1221 67.641C46.1221 67.641 46.7587 63.1846 44.8488 61.5931C42.939 60.0015 63.9475 57.1367 63.9475 57.1367Z" fill="#A0616A"/>
<path d="M60.128 28.1705C60.128 28.1705 55.3533 35.1733 55.9899 36.1283C56.6265 37.0832 44.8491 34.2184 44.8491 34.2184C44.8491 34.2184 50.897 26.2606 50.897 24.0325L60.128 28.1705Z" fill="#A0616A"/>
<path opacity="0.2" d="M60.128 28.1705C60.128 28.1705 55.3533 35.1733 55.9899 36.1283C56.6265 37.0832 44.8491 34.2184 44.8491 34.2184C44.8491 34.2184 50.897 26.2606 50.897 24.0325L60.128 28.1705Z" fill="black"/>
<path d="M57.0578 29.0918C61.1921 29.0918 64.5436 25.7403 64.5436 21.606C64.5436 17.4716 61.1921 14.1201 57.0578 14.1201C52.9234 14.1201 49.5719 17.4716 49.5719 21.606C49.5719 25.7403 52.9234 29.0918 57.0578 29.0918Z" fill="#A0616A"/>
<path d="M47.0768 28.1704L58.2177 32.6268V35.1732C58.2177 35.1732 65.2205 34.2183 66.8121 35.1732C68.4036 36.1282 70.9501 43.131 70.9501 43.131C70.9501 43.131 77.3163 52.6803 75.0882 53.6352C72.86 54.5902 68.7219 55.5451 67.1304 57.7733C65.5388 60.0014 53.443 60.3198 53.443 60.3198C53.443 60.3198 48.9867 61.593 47.0768 63.5029C45.167 65.4127 41.3472 63.5029 41.3472 63.5029L39.4374 32.6268L45.4853 30.7169L47.0768 28.1704Z" fill="#856FB3"/>
<path d="M65.2209 36.4465L68.7223 35.4916C68.7223 35.4916 74.1336 34.5367 74.1336 33.9C74.1336 33.2634 73.497 32.6268 74.1336 32.6268C74.7702 32.6268 76.0434 32.6268 75.4068 31.6719C74.7702 30.7169 75.7251 29.1254 74.4519 28.4888C73.1786 27.8521 72.2237 27.5338 72.8603 27.2155C73.497 26.8972 71.2688 21.8042 71.2688 21.8042L73.1786 20.8493L75.4068 24.3507L75.7251 19.5761L79.2265 18.9395L80.4998 24.669C80.4998 24.669 86.866 32.9451 82.4097 37.4014C77.9533 41.8578 69.3589 45.3592 69.3589 45.3592L65.2209 36.4465Z" fill="#856FB3"/>
<path d="M65.2212 62.8663L67.4494 61.593C67.4494 61.593 75.4071 70.824 75.4071 98.8353C75.4071 126.847 73.8156 139.579 72.8606 139.261C71.9057 138.942 66.4944 141.171 65.5395 140.216C64.5846 139.261 58.2184 92.7874 58.2184 92.7874C58.2184 92.7874 38.1648 140.852 34.9817 140.852C31.7986 140.852 26.7056 139.897 26.7056 137.987C26.7056 136.078 36.2549 110.613 36.2549 110.613C36.2549 110.613 42.3028 66.0494 45.1676 65.731L46.1944 65.1058L53.762 70.1874L65.2212 62.8663Z" fill="#2F2E41"/>
<path d="M67.4487 139.261H70.3135C70.3135 139.261 72.86 141.807 73.8149 147.855C74.7699 153.903 75.7248 157.723 71.5868 157.723C67.4487 157.723 64.9023 156.768 65.2206 154.54C65.5389 152.311 64.5839 151.357 64.5839 151.357C64.5839 151.357 62.9924 148.492 63.3107 146.9C63.629 145.309 64.5839 140.216 64.5839 140.216L67.4487 139.261Z" fill="#2F2E41"/>
<path d="M34.6627 139.897C34.6627 139.897 37.8458 148.173 35.6177 150.083C33.3895 151.993 32.4346 152.311 32.4346 152.311C32.4346 152.311 29.2514 152.948 28.9331 153.903C28.6148 154.858 24.1585 158.359 20.0204 156.449C15.8824 154.54 18.4289 150.401 18.4289 150.401L27.9782 138.624C27.9782 138.624 31.4796 139.261 31.4796 139.897C31.4796 140.534 34.6627 139.897 34.6627 139.897Z" fill="#2F2E41"/>
<path d="M51.1915 71.3945C52.0292 70.6204 53.0662 70.0953 54.1859 69.8782L53.8661 71.3789C53.7751 71.8062 53.6855 72.2599 53.8325 72.6713C54.0896 73.3911 54.9333 73.6799 55.6723 73.8747C56.5073 74.0948 57.4594 74.4127 57.7645 75.2205C58.0249 75.9101 57.6915 76.678 57.2852 77.2929C56.9034 77.8705 56.4526 78.3993 55.9427 78.8676C55.0197 79.7151 53.7506 80.3783 52.5429 80.0442C52.1826 79.9233 51.8324 79.7741 51.4957 79.598C50.6312 79.2032 49.6915 78.9867 48.8417 78.5612C47.1064 77.6924 45.9135 76.0493 44.7899 74.467C44.7167 74.3882 44.6603 74.2953 44.6241 74.194C44.5879 74.0927 44.5726 73.9851 44.5793 73.8778C44.6062 73.781 44.6525 73.6908 44.7154 73.6125C45.3655 72.696 46.7542 70.9537 47.8113 72.1397C48.1438 72.5129 48.4036 72.89 48.9548 72.8925C49.8995 72.8968 50.5708 71.9703 51.1915 71.3945Z" fill="#A0616A"/>
<path d="M41.666 33.2633L39.4378 32.6267C39.4378 32.6267 35.2997 32.6267 34.0265 38.9929C32.7533 45.3591 31.1617 65.4127 32.7533 68.5958C34.3448 71.7789 42.3026 78.4634 42.3026 78.4634L48.6688 72.4155L44.8491 68.5958C44.8491 68.5958 43.8941 68.9141 43.8941 67.6408C43.8941 66.3676 45.1674 67.0042 43.8941 66.3676C42.6209 65.731 42.9392 66.6859 42.6209 65.731C42.3026 64.776 41.666 33.2633 41.666 33.2633Z" fill="#856FB3"/>
<path d="M50.5391 12.4437C51.8263 10.7863 53.7247 9.73657 55.8439 9.73657H56.0956C60.9483 9.73657 64.8821 14.1277 64.8821 19.5444V19.5444H63.2561L62.9935 17.5456L62.6085 19.5444H52.9648L52.1568 17.8534L52.3588 19.5444H50.4616C49.5764 23.941 50.8484 28.3376 54.2777 32.7342H51.0459L49.43 29.3522L49.834 32.7342H43.6734L42.4614 24.9556C42.4614 19.1301 45.8462 14.1902 50.5391 12.4437Z" fill="#2F2E41"/>
<path d="M147.504 0C125.563 0 107.715 17.8477 107.715 39.7888C107.709 45.4052 108.898 50.9586 111.204 56.0799C117.439 69.92 131.362 79.5776 147.504 79.5776C158.055 79.5717 168.172 75.3778 175.632 67.9173C183.093 60.4567 187.287 50.3396 187.293 39.7888C187.293 17.8477 169.442 0 147.504 0ZM180.423 55.7839C177.419 61.9589 172.739 67.1653 166.919 70.8095C161.098 74.4537 154.371 76.3889 147.504 76.3945C131.993 76.3945 118.703 66.6955 113.384 53.0432C111.736 48.8189 110.892 44.3234 110.898 39.7888C110.898 19.6047 127.32 3.1831 147.504 3.1831C167.688 3.1831 184.109 19.6047 184.109 39.7888C184.116 45.3318 182.856 50.803 180.423 55.7839Z" fill="#3F3D56"/>
<path d="M182.346 58.986C178.91 65.2195 173.865 70.4176 167.737 74.0392C161.609 77.6607 154.622 79.5732 147.504 79.5775C131.363 79.5775 117.44 69.92 111.204 56.0799C111.888 55.0326 112.615 54.0204 113.385 53.0432C118.703 66.6955 131.993 76.3945 147.504 76.3945C154.371 76.3889 161.099 74.4536 166.919 70.8095C172.74 67.1653 177.419 61.9589 180.424 55.7838C181.111 56.8184 181.752 57.8858 182.346 58.986Z" fill="#856FB3"/>
<path d="M138.536 43.4282C139.617 43.4211 140.668 43.7897 141.508 44.4709C142.348 45.1522 142.925 46.1038 143.142 47.1635C143.358 48.2231 143.2 49.325 142.695 50.2811C142.189 51.2372 141.367 51.9881 140.37 52.4058C139.372 52.8235 138.26 52.8819 137.224 52.5712C136.189 52.2605 135.293 51.5998 134.69 50.702C134.086 49.8042 133.814 48.725 133.918 47.6485C134.022 46.572 134.496 45.565 135.26 44.7994C135.689 44.3656 136.198 44.021 136.761 43.7856C137.323 43.5502 137.926 43.4287 138.536 43.4282ZM138.536 41.4387C137.224 41.438 135.941 41.8263 134.85 42.5545C133.759 43.2828 132.909 44.3182 132.406 45.5299C131.903 46.7416 131.771 48.0751 132.026 49.3618C132.282 50.6486 132.913 51.8307 133.84 52.7588C134.767 53.6869 135.948 54.3193 137.235 54.5759C138.521 54.8325 139.855 54.7018 141.067 54.2005C142.279 53.6991 143.316 52.8496 144.045 51.7592C144.775 50.6689 145.164 49.3867 145.165 48.0749C145.161 46.3172 144.462 44.6325 143.22 43.3889C141.978 42.1454 140.294 41.4442 138.536 41.4387ZM152.355 31.9533C152.654 31.9549 152.951 31.8971 153.227 31.7834C153.504 31.6696 153.755 31.5022 153.966 31.2908C154.178 31.0794 154.345 30.8281 154.459 30.5516C154.573 30.275 154.631 29.9787 154.629 29.6797C154.632 29.3822 154.575 29.0871 154.463 28.8117C154.35 28.5363 154.184 28.2861 153.974 28.0757C153.763 27.8653 153.513 27.699 153.238 27.5865C152.962 27.4739 152.667 27.4174 152.37 27.4203C152.071 27.4175 151.774 27.4738 151.497 27.586C151.22 27.6982 150.968 27.864 150.756 28.074C150.543 28.284 150.374 28.534 150.258 28.8095C150.143 29.0851 150.083 29.3808 150.082 29.6797C150.081 29.9785 150.139 30.2746 150.253 30.5509C150.367 30.8271 150.534 31.0782 150.746 31.2895C150.957 31.5008 151.208 31.6682 151.484 31.7822C151.76 31.8961 152.057 31.9543 152.355 31.9533ZM157.109 43.4282C158.19 43.4211 159.241 43.7897 160.081 44.4709C160.921 45.1522 161.498 46.1038 161.715 47.1635C161.931 48.2231 161.773 49.325 161.267 50.2811C160.762 51.2372 159.94 51.9882 158.942 52.4058C157.945 52.8235 156.833 52.8819 155.797 52.5712C154.761 52.2605 153.865 51.5998 153.262 50.702C152.659 49.8043 152.387 48.725 152.491 47.6485C152.595 46.572 153.069 45.565 153.833 44.7994C154.261 44.3656 154.771 44.021 155.334 43.7856C155.896 43.5502 156.499 43.4287 157.109 43.4282ZM157.109 41.4387C155.798 41.4387 154.516 41.8275 153.426 42.5559C152.336 43.2843 151.486 44.3196 150.984 45.531C150.482 46.7423 150.351 48.0752 150.607 49.3611C150.863 50.647 151.494 51.8282 152.421 52.7553C153.348 53.6824 154.53 54.3137 155.815 54.5695C157.101 54.8253 158.434 54.694 159.646 54.1923C160.857 53.6906 161.892 52.8409 162.621 51.7507C163.349 50.6606 163.738 49.3789 163.738 48.0678C163.732 46.3114 163.032 44.6284 161.79 43.3864C160.548 42.1444 158.865 41.4442 157.109 41.4387V41.4387Z" fill="#856FB3"/>
<path d="M155.78 36.5147H152.369L150.273 32.2445C150.104 31.945 149.868 31.6889 149.583 31.4963C149.298 31.3036 148.973 31.1797 148.632 31.1342C148.291 31.0888 147.944 31.1231 147.619 31.2343C147.293 31.3456 146.998 31.5309 146.756 31.7756L141.662 36.6852C141.245 37.1108 141.008 37.6809 141.001 38.2768C141.001 39.5131 141.896 39.9536 142.316 40.2023C145.549 42.0638 146.685 42.2699 146.685 43.2006V47.8829C146.685 48.1844 146.805 48.4736 147.018 48.6868C147.231 48.9 147.521 49.0197 147.822 49.0197C148.124 49.0197 148.413 48.9 148.626 48.6868C148.839 48.4736 148.959 48.1844 148.959 47.8829V41.4883C148.959 40.5504 146.799 39.7831 145.527 38.7883L149.002 35.1292C150.33 37.1542 150.941 38.7883 151.702 38.7883H155.78C156.081 38.7883 156.371 38.6686 156.584 38.4554C156.797 38.2422 156.917 37.953 156.917 37.6515C156.917 37.35 156.797 37.0609 156.584 36.8477C156.371 36.6345 156.081 36.5147 155.78 36.5147L155.78 36.5147Z" fill="#856FB3"/>
<path d="M116.414 98.2102C115.435 98.2102 114.624 101.061 114.467 104.8H95.6271C95.4699 101.061 94.6591 98.2102 93.6798 98.2102C92.588 98.2102 91.7029 101.751 91.7029 106.118C91.7029 110.485 92.588 114.026 93.6798 114.026C94.6591 114.026 95.4699 111.174 95.6271 107.436H114.467C114.624 111.174 115.435 114.026 116.414 114.026C117.506 114.026 118.391 110.485 118.391 106.118C118.391 101.751 117.506 98.2102 116.414 98.2102Z" fill="#856FB3"/>
<path d="M125.592 94.4427C122.799 89.4379 118.278 85.6225 112.875 83.711C107.472 81.7994 101.558 81.9228 96.2395 84.058C90.921 86.1932 86.5631 90.1938 83.9818 95.3107C81.4006 100.428 80.7729 106.31 82.2165 111.856C83.66 117.403 87.0757 122.233 91.824 125.442C96.5723 128.651 102.328 130.02 108.012 129.291C113.697 128.563 118.921 125.787 122.706 121.484C126.492 117.181 128.579 111.646 128.577 105.915C128.575 101.899 127.548 97.95 125.592 94.4427ZM105.01 127.595C100.726 127.591 96.539 126.318 92.9784 123.936C89.4179 121.554 86.6435 118.17 85.0058 114.211C83.368 110.253 82.9406 105.897 83.7774 101.696C84.6142 97.4946 86.6777 93.6356 89.7071 90.6066C92.7365 87.5776 96.5959 85.5147 100.797 84.6785C104.999 83.8423 109.354 84.2704 113.312 85.9087C117.271 87.547 120.654 90.322 123.036 93.8828C125.418 97.4437 126.69 101.631 126.693 105.915C126.707 108.766 126.156 111.592 125.071 114.229C123.987 116.866 122.39 119.261 120.374 121.278C118.357 123.294 115.961 124.89 113.324 125.974C110.687 127.059 107.861 127.609 105.01 127.595Z" fill="#3F3D56"/>
<path d="M128.577 105.915C128.579 110.16 127.434 114.327 125.263 117.974C123.091 121.622 119.975 124.615 116.242 126.638C112.51 128.66 108.3 129.636 104.059 129.463C99.8173 129.289 95.7014 127.973 92.1464 125.653C91.74 124.646 91.4019 123.612 91.1342 122.559C95.188 125.945 100.339 127.734 105.619 127.589C110.899 127.444 115.944 125.375 119.806 121.772C123.668 118.169 126.081 113.279 126.591 108.022C127.101 102.765 125.674 97.5023 122.577 93.2236C123.608 93.5619 124.615 93.9692 125.591 94.4428C127.554 97.9475 128.582 101.898 128.577 105.915Z" fill="#856FB3"/>
<path d="M189.999 82.3469C186.904 82.3469 183.839 82.9565 180.98 84.1409C178.12 85.3253 175.522 87.0613 173.334 89.2497C171.145 91.4382 169.409 94.0363 168.225 96.8956C167.04 99.755 166.431 102.82 166.431 105.915C166.431 109.01 167.04 112.074 168.225 114.934C169.409 117.793 171.145 120.391 173.334 122.579C175.522 124.768 178.12 126.504 180.98 127.688C183.839 128.873 186.904 129.482 189.999 129.482C190.151 129.482 190.301 129.482 190.454 129.476C196.664 129.356 202.575 126.79 206.903 122.335C211.231 117.88 213.625 111.897 213.565 105.686C213.505 99.4753 210.996 93.5393 206.583 89.1688C202.17 84.7983 196.21 82.3467 189.999 82.3469ZM194.802 127.057C191.827 127.732 188.743 127.773 185.752 127.175C182.76 126.577 179.929 125.355 177.442 123.588C174.955 121.821 172.869 119.549 171.321 116.921C169.772 114.293 168.795 111.368 168.454 108.336C168.113 105.305 168.416 102.236 169.342 99.3291C170.269 96.4226 171.798 93.7443 173.83 91.4692C175.862 89.1942 178.352 87.3735 181.136 86.1263C183.92 84.8791 186.935 84.2334 189.986 84.2313H189.999C195.331 84.231 200.476 86.1955 204.451 89.7495C208.426 93.3035 210.952 98.1976 211.547 103.497C212.141 108.796 210.762 114.128 207.673 118.474C204.584 122.82 200.002 125.876 194.802 127.057Z" fill="#3F3D56"/>
<path d="M194.802 127.057C193.439 128.01 191.982 128.821 190.454 129.476C190.301 129.482 190.151 129.482 189.998 129.482C184.166 129.482 178.54 127.319 174.21 123.411C169.879 119.504 167.152 114.129 166.554 108.327C165.957 102.525 167.533 96.7071 170.977 91.9994C174.421 87.2916 179.488 84.0282 185.198 82.8401C186.838 83.1374 188.442 83.6036 189.986 84.2311C186.935 84.2334 183.92 84.8793 181.136 86.1266C178.352 87.3739 175.863 89.1946 173.831 91.4696C171.799 93.7446 170.27 96.4228 169.344 99.3292C168.418 102.235 168.115 105.305 168.456 108.336C168.797 111.367 169.774 114.292 171.322 116.92C172.871 119.548 174.957 121.82 177.443 123.587C179.93 125.354 182.761 126.576 185.752 127.174C188.743 127.772 191.827 127.732 194.802 127.057Z" fill="#856FB3"/>
<path d="M201.625 104.912C200.998 104.881 200.377 105.056 199.857 105.41C199.338 105.765 198.949 106.279 198.75 106.875H196.429L194.734 101.78C194.671 101.589 194.55 101.423 194.387 101.305C194.224 101.187 194.028 101.124 193.827 101.124H193.809C193.605 101.127 193.408 101.196 193.247 101.321C193.085 101.446 192.969 101.619 192.914 101.816L190.259 111.082L187.139 92.341C187.102 92.1241 186.993 91.9263 186.828 91.7807C186.663 91.6351 186.453 91.5507 186.233 91.5416C186.014 91.5325 185.798 91.5993 185.621 91.7307C185.445 91.8622 185.319 92.0503 185.265 92.2635L182.103 106.875H178.559C178.306 106.875 178.063 106.976 177.884 107.155C177.705 107.334 177.604 107.577 177.604 107.83C177.604 108.083 177.705 108.326 177.884 108.505C178.063 108.684 178.306 108.785 178.559 108.785H182.855C183.067 108.785 183.274 108.714 183.442 108.583C183.609 108.452 183.728 108.269 183.78 108.063L186.011 97.1918L189.072 115.563C189.107 115.777 189.214 115.972 189.376 116.117C189.538 116.261 189.744 116.346 189.961 116.356H190.015C190.222 116.356 190.424 116.288 190.589 116.164C190.755 116.039 190.876 115.863 190.933 115.664L193.899 105.306L194.835 108.128C194.899 108.319 195.021 108.484 195.184 108.602C195.346 108.72 195.542 108.784 195.742 108.785H198.791C198.974 109.268 199.283 109.692 199.687 110.014C200.09 110.335 200.573 110.542 201.085 110.611C201.596 110.681 202.116 110.611 202.591 110.409C203.066 110.207 203.478 109.881 203.783 109.465C204.087 109.048 204.274 108.557 204.323 108.044C204.372 107.53 204.281 107.012 204.06 106.546C203.839 106.08 203.496 105.682 203.067 105.394C202.639 105.107 202.141 104.94 201.625 104.912Z" fill="#856FB3"/>
</g>
<defs>
<clipPath id="clip0">
<rect width="250" height="157.723" fill="white"/>
</clipPath>
</defs>
</svg>
