<svg width="250" height="147" viewBox="0 0 250 147" fill="none" xmlns="http://www.w3.org/2000/svg">
<g clip-path="url(#clip0)">
<path d="M196.351 4.10815H196.351C190.372 4.10815 185.526 9.48681 185.526 16.1217V24.5514H188.118L189.619 21.4282L189.244 24.5514H205.908L207.273 21.7121L206.932 24.5514H208.808V17.9326C208.808 10.2976 203.231 4.10815 196.351 4.10815Z" fill="#2F2E41"/>
<path d="M132.544 146.639C197.413 146.639 250 143.109 250 138.755C250 134.401 197.413 130.871 132.544 130.871C67.6755 130.871 15.0889 134.401 15.0889 138.755C15.0889 143.109 67.6755 146.639 132.544 146.639Z" fill="#3F3D56"/>
<path d="M53.4176 135.944C53.3659 135.86 52.147 133.825 51.7245 129.598C51.3369 125.721 51.5861 119.186 54.9754 110.069C61.3964 92.7993 53.4957 78.8647 53.4149 78.7259L53.8047 78.4998C53.8252 78.535 55.8639 82.0877 57.0682 87.745C58.6596 95.2453 58.0801 103.044 55.3978 110.227C48.9878 127.467 53.7533 135.629 53.8021 135.709L53.4176 135.944Z" fill="#3F3D56"/>
<path d="M50.9068 77.7118C52.524 77.7118 53.8351 76.4007 53.8351 74.7835C53.8351 73.1663 52.524 71.8552 50.9068 71.8552C49.2895 71.8552 47.9785 73.1663 47.9785 74.7835C47.9785 76.4007 49.2895 77.7118 50.9068 77.7118Z" fill="#856FB3"/>
<path d="M60.1421 88.5238C61.7594 88.5238 63.0704 87.2127 63.0704 85.5955C63.0704 83.9783 61.7594 82.6672 60.1421 82.6672C58.5249 82.6672 57.2139 83.9783 57.2139 85.5955C57.2139 87.2127 58.5249 88.5238 60.1421 88.5238Z" fill="#3F3D56"/>
<path d="M53.8351 95.7318C55.4524 95.7318 56.7634 94.4207 56.7634 92.8035C56.7634 91.1863 55.4524 89.8752 53.8351 89.8752C52.2179 89.8752 50.9069 91.1863 50.9069 92.8035C50.9069 94.4207 52.2179 95.7318 53.8351 95.7318Z" fill="#856FB3"/>
<path d="M61.4937 101.814C63.1109 101.814 64.422 100.503 64.422 98.8853C64.422 97.2681 63.1109 95.957 61.4937 95.957C59.8765 95.957 58.5654 97.2681 58.5654 98.8853C58.5654 100.503 59.8765 101.814 61.4937 101.814Z" fill="#856FB3"/>
<path d="M51.5826 111.274C53.1998 111.274 54.5108 109.963 54.5108 108.346C54.5108 106.729 53.1998 105.418 51.5826 105.418C49.9653 105.418 48.6543 106.729 48.6543 108.346C48.6543 109.963 49.9653 111.274 51.5826 111.274Z" fill="#3F3D56"/>
<path d="M55.1867 136.052C55.1867 136.052 52.2584 128.844 61.0432 123.438L55.1867 136.052Z" fill="#3F3D56"/>
<path d="M51.5852 135.921C51.5852 135.921 50.2525 128.256 39.9377 128.322L51.5852 135.921Z" fill="#3F3D56"/>
<path d="M191.126 19.259C191.126 19.259 194.505 27.1428 190 28.7196L194.505 43.5862L202.163 43.1357L204.19 38.1801L203.74 30.7468L203.064 25.7913C203.064 25.7913 198.334 26.9176 198.784 18.5833L191.126 19.259Z" fill="#FFB8B8"/>
<path d="M189.324 28.4943C189.324 28.4943 181.891 27.8186 182.567 33.2246C183.242 38.6306 183.918 39.7569 183.918 39.7569L184.594 47.8659L180.539 50.3437H176.71C176.71 50.3437 164.997 53.0467 170.853 55.975C176.71 58.9033 178.737 53.7225 178.737 53.7225C178.737 53.7225 189.549 53.7225 190.225 51.9205C190.901 50.1185 189.324 28.4943 189.324 28.4943Z" fill="#FFB8B8"/>
<path d="M203.74 26.2418C203.74 26.2418 210.723 23.764 211.173 29.1701C211.624 34.5761 211.624 35.0266 211.624 35.0266L212.975 42.6852C212.975 42.6852 215.678 49.4427 215.678 51.47C215.678 53.4972 217.706 59.8043 217.706 59.8043C217.706 59.8043 220.409 68.5891 217.48 68.3638C214.552 68.1386 214.102 58.9033 214.102 58.9033L208.02 46.7397L206.218 39.3064L203.74 26.2418Z" fill="#FFB8B8"/>
<path d="M190.45 27.5932H188.648L188.422 37.0538C188.422 37.0538 185.494 41.1083 189.098 44.7124L189.999 50.5689L206.443 49.8932L207.569 43.8114C207.569 43.8114 209.821 38.8558 206.668 34.3508L203.74 25.1155H202.163C202.163 25.1155 205.815 38.5806 198.108 38.8558C191.801 39.0811 190.45 27.5932 190.45 27.5932Z" fill="#856FB3"/>
<path d="M190.901 49.4427L189.549 53.9477C189.549 53.9477 161.393 133.236 169.953 135.264C178.512 137.291 190.45 139.994 191.577 137.967C192.703 135.939 198.56 76.6981 198.56 76.6981C198.56 76.6981 197.659 138.642 200.587 138.642C203.515 138.642 222.887 139.093 224.013 136.165C225.139 133.236 213.877 54.8487 207.344 53.0467L205.542 48.9922L190.901 49.4427Z" fill="#2F2E41"/>
<path d="M207.119 47.1902L189.324 47.8659C189.324 47.8659 188.512 53.9477 189.324 53.9477C189.549 53.9477 208.02 55.5245 207.794 52.8215C207.569 50.1185 207.119 47.1902 207.119 47.1902Z" fill="#3F3D56"/>
<path d="M115.104 90.1006C115.105 94.8912 113.754 99.5849 111.206 103.642C108.659 107.699 105.019 110.955 100.703 113.036C100.701 113.036 100.701 113.036 100.699 113.038C99.9253 113.412 99.1329 113.745 98.3247 114.036C98.1963 114.085 98.0657 114.13 97.9328 114.173C97.6625 114.27 97.3877 114.358 97.1106 114.441C96.5407 114.617 95.9626 114.772 95.3762 114.908H95.3739L95.3582 114.912L95.3221 114.919C95.2455 114.937 95.1667 114.955 95.0879 114.971C94.6509 115.068 94.2094 115.151 93.7634 115.221C92.4037 115.444 91.0281 115.555 89.6503 115.554C88.9115 115.554 88.1771 115.523 87.4541 115.459C87.4149 115.458 87.3757 115.454 87.337 115.448C85.3543 115.269 83.3993 114.858 81.512 114.225C81.2326 114.13 80.9533 114.031 80.6785 113.925C76.3316 112.289 72.5154 109.494 69.6431 105.844C66.7709 102.193 64.9522 97.8268 64.384 93.2168C63.8157 88.6069 64.5197 83.9294 66.4195 79.6908C68.3193 75.4523 71.3426 71.8144 75.162 69.1711C78.9813 66.5279 83.4511 64.98 88.0872 64.6951C92.7233 64.4103 97.3489 65.3994 101.463 67.5552C105.577 69.7111 109.023 72.9515 111.428 76.9256C113.832 80.8996 115.103 85.4558 115.104 90.1006Z" fill="#3F3D56"/>
<path d="M86.6256 90.3862C86.6256 90.3862 92.5957 87.7848 95.3998 90.5327C98.2039 93.2807 87.892 92.3762 86.6256 90.3862Z" fill="#3F3D56"/>
<path d="M96.9346 78.049C94.9283 74.6591 90.9591 74.5011 90.9591 74.5011C90.9591 74.5011 87.0913 74.0065 84.6101 79.1694C82.2975 83.9817 79.1057 88.6281 84.0963 89.7547L84.9977 86.949L85.556 89.9635C86.2665 90.0147 86.9794 90.0268 87.6912 90C93.0357 89.8275 98.1255 90.0505 97.9617 88.1327C97.7438 85.5832 98.865 81.3109 96.9346 78.049Z" fill="#2F2E41"/>
<path d="M97.9325 114.173C98.0654 114.13 98.1961 114.085 98.3244 114.036L98.2952 113.995L97.9325 113.975L95.5854 113.849H95.5831L95.1889 113.829L93.3216 113.727L89.2558 113.506L87.0776 113.389L86.9672 113.383H86.9402L85.4062 113.299L84.9062 113.272L84.4309 115.016C85.39 115.217 86.3603 115.362 87.3367 115.448C87.3755 115.454 87.4146 115.458 87.4538 115.459C88.1768 115.522 88.9112 115.554 89.65 115.554C91.0278 115.555 92.4035 115.444 93.7631 115.221C94.2091 115.151 94.6506 115.067 95.0876 114.971C95.1664 114.955 95.2453 114.937 95.3218 114.919L95.3579 114.912L95.3736 114.908H95.3759C95.9616 114.772 96.5397 114.617 97.1103 114.441L97.9325 114.173Z" fill="#2F2E41"/>
<path d="M87.6212 85.4111C87.6212 85.4111 88.5257 91.3811 86.7166 92.1048C84.9075 92.8284 90.3348 95.9039 90.3348 95.9039H93.4103L95.4003 91.7429C95.4003 91.7429 93.5912 88.4866 94.6767 85.4111C95.7622 82.3356 87.6212 85.4111 87.6212 85.4111Z" fill="#A0616A"/>
<path d="M97.9327 114.173V93.0086C97.9327 93.0086 97.7029 90.835 95.8807 91.4003C95.6944 91.4599 95.5135 91.5352 95.3401 91.6256C95.0383 91.7886 94.7505 91.9762 94.4796 92.1865C94.376 92.2653 94.2701 92.3509 94.1597 92.4433C94.1507 92.45 94.1417 92.459 94.1327 92.4658C90.6954 95.3603 89.0691 93.3713 88.7064 93.0086C88.5735 92.878 88.2266 92.5063 87.8369 92.0874V92.0851C87.668 91.9049 87.4923 91.7157 87.3256 91.531C86.8098 90.9746 86.3548 90.4768 86.3548 90.4768L84.546 91.9229L84.9875 102.888L85.0911 105.474V105.476L85.1249 106.28V106.285L85.4065 113.299L85.4493 114.358C86.0616 114.553 86.6833 114.717 87.3121 114.849C87.4968 114.887 87.6928 114.926 87.8933 114.962C89.461 115.245 91.4342 115.392 92.6866 114.718C92.9396 114.583 93.2051 114.472 93.4795 114.387C94.0243 114.224 94.5911 114.145 95.1599 114.155C95.2815 114.157 95.4009 114.162 95.5203 114.169H95.5225C96.0596 114.207 96.5915 114.298 97.1105 114.441L97.9327 114.173Z" fill="#3F3D56"/>
<path d="M89.2555 113.506C88.8462 114.032 88.39 114.519 87.8927 114.962C87.7396 115.101 87.5864 115.236 87.431 115.369C87.3994 115.396 87.3679 115.421 87.3364 115.448C85.3537 115.269 83.3987 114.858 81.5114 114.225C81.232 114.13 80.9527 114.031 80.6779 113.925C80.8518 113.485 80.9882 113.031 81.0856 112.567C82.3313 106.729 78.7092 97.8673 78.3939 96.4459C78.279 95.9346 78.7025 95.2251 79.3805 94.4705C80.8604 92.8284 83.5521 90.9723 84.5455 90.4768C85.2987 90.1398 86.1424 90.0621 86.9444 90.256H86.9467C87.1982 90.3076 87.4447 90.3815 87.6832 90.4768V90.479C87.6855 90.5128 87.7103 90.7696 87.7531 91.2088C87.7756 91.4498 87.8026 91.7427 87.8364 92.0851V92.0873C87.8972 92.727 87.9738 93.5244 88.0639 94.4344V94.4367C88.6068 100.043 89.5889 109.801 89.9718 111.461C90.1137 112.076 89.7984 112.788 89.2555 113.506Z" fill="#D0CDE1"/>
<path d="M97.9327 114.173C98.0656 114.13 98.1963 114.085 98.3247 114.036C99.1328 113.745 99.9253 113.412 100.699 113.038C99.541 109.655 102.963 98.899 103.942 95.5698V95.5652C104.057 95.1756 104.138 94.8872 104.174 94.7273C104.537 93.0987 99.0185 91.5625 98.8383 91.1999C98.6986 90.9251 96.4573 90.648 95.4009 90.5331C95.0743 90.4971 94.8603 90.4768 94.8603 90.4768C94.581 90.693 94.367 91.3148 94.2003 92.218C94.1846 92.2901 94.171 92.3667 94.1598 92.4433C94.0404 93.1415 93.948 93.9862 93.8737 94.9345C93.4637 100.106 93.6034 108.278 93.2295 111.644C93.1538 112.339 93.1849 113.042 93.3218 113.727C93.3629 113.95 93.4156 114.17 93.4795 114.387C93.5582 114.67 93.653 114.949 93.7633 115.221C94.2093 115.151 94.6508 115.068 95.0878 114.971C95.1667 114.955 95.2455 114.937 95.3221 114.919L95.3581 114.912L95.3739 114.908H95.3761C95.9618 114.772 96.5399 114.617 97.1106 114.441L97.9327 114.173Z" fill="#D0CDE1"/>
<path d="M96.5761 83.6924C96.7759 83.6924 96.9379 83.3684 96.9379 82.9688C96.9379 82.5691 96.7759 82.2451 96.5761 82.2451C96.3762 82.2451 96.2142 82.5691 96.2142 82.9688C96.2142 83.3684 96.3762 83.6924 96.5761 83.6924Z" fill="#A0616A"/>
<path d="M85.9022 83.6924C86.1021 83.6924 86.2641 83.3684 86.2641 82.9688C86.2641 82.5691 86.1021 82.2451 85.9022 82.2451C85.7024 82.2451 85.5404 82.5691 85.5404 82.9688C85.5404 83.3684 85.7024 83.6924 85.9022 83.6924Z" fill="#A0616A"/>
<path d="M97.9325 114.173C98.0654 114.13 98.1961 114.085 98.3245 114.036C99.1326 113.745 99.9251 113.411 100.699 113.038C100.698 113.039 100.699 113.04 100.699 113.042C100.699 113.043 100.7 113.044 100.701 113.045C100.701 113.041 100.701 113.038 100.703 113.036C102.055 105.9 103.487 98.2659 103.942 95.5697V95.5652C104.021 95.0967 104.071 94.7791 104.084 94.6371C104.264 92.8284 99.7413 92.8284 99.7413 92.8284L99.0205 96.4707L97.9325 101.974L97.5586 103.863L95.5831 113.849L95.5201 114.169L95.3737 114.908H95.3759C95.9616 114.772 96.5397 114.617 97.1104 114.441L97.9325 114.173Z" fill="#D0CDE1"/>
<path d="M87.3366 115.448C85.3539 115.269 83.3989 114.858 81.5116 114.225C81.3696 113.678 81.2277 113.124 81.0858 112.567C79.3266 105.663 77.671 98.3584 77.671 96.9889C77.671 95.8559 78.4617 95.0382 79.3807 94.4706C80.2554 93.9596 81.2047 93.5887 82.1941 93.3713C82.1941 93.3713 82.7707 95.7703 83.5996 99.2301C84.0434 101.077 84.557 103.226 85.0908 105.474V105.476C85.7125 108.085 86.3635 110.824 86.9671 113.383C87.064 113.797 87.1601 114.206 87.2555 114.608V114.617C87.2568 114.62 87.2576 114.623 87.2577 114.626C87.2757 114.7 87.2938 114.775 87.3118 114.849C87.3523 115.025 87.3929 115.198 87.4312 115.369C87.4402 115.399 87.4469 115.428 87.4537 115.46C87.4145 115.458 87.3753 115.454 87.3366 115.448Z" fill="#D0CDE1"/>
<path opacity="0.2" d="M83.1882 98.708L87.2587 114.627C87.2587 114.627 85.3592 100.698 83.1882 98.708Z" fill="black"/>
<path opacity="0.2" d="M93.7634 115.221L95.0879 114.964V114.971C94.6509 115.067 94.2094 115.151 93.7634 115.221Z" fill="black"/>
<path opacity="0.2" d="M99.0209 96.4707L97.9329 101.974L97.559 103.863L95.5858 113.849H95.5836L95.5227 114.169H95.5205L95.3763 114.908H95.3741L95.3583 114.912L95.3223 114.919L95.088 114.964C95.1083 114.712 95.1331 114.441 95.1601 114.155C95.1691 114.049 95.1781 113.941 95.1894 113.829C95.6128 109.227 96.5161 101.278 97.9329 97.9484C98.2663 97.1645 98.629 96.6374 99.0209 96.4707Z" fill="black"/>
<path d="M91.2392 88.3056C94.1367 88.3056 96.4856 85.9567 96.4856 83.0592C96.4856 80.1616 94.1367 77.8127 91.2392 77.8127C88.3417 77.8127 85.9928 80.1616 85.9928 83.0592C85.9928 85.9567 88.3417 88.3056 91.2392 88.3056Z" fill="#A0616A"/>
<path d="M96.0478 77.722L92.1264 75.668L86.7111 76.5082L85.5907 81.4567L88.3798 81.3495L89.1589 79.5315V81.3195L90.4458 81.27L91.1927 78.3755L91.6596 81.4567L96.2345 81.3634L96.0478 77.722Z" fill="#2F2E41"/>
<path d="M50.9071 57.8897C50.9071 61.9308 49.9449 65.9138 48.1 69.5092C46.2551 73.1046 43.5806 76.209 40.2978 78.5655C39.4013 79.2125 38.4629 79.7994 37.4889 80.3225C32.1535 83.1785 25.9767 84.0455 20.0612 82.7687C18.8018 82.4985 17.5652 82.131 16.3626 81.6695C12.029 80.013 8.23046 77.2036 5.37758 73.545C2.5247 69.8864 0.725935 65.5177 0.175667 60.9111C-0.3746 56.3044 0.344559 51.6349 2.25543 47.4073C4.1663 43.1797 7.1962 39.5547 11.0177 36.924C14.8392 34.2934 19.307 32.7571 23.9382 32.4813C28.5694 32.2055 33.188 33.2006 37.2947 35.3591C41.4014 37.5175 44.8402 40.7573 47.2393 44.7282C49.6384 48.6992 50.9067 53.2503 50.9071 57.8897Z" fill="#3F3D56"/>
<path d="M23.8479 56.2297C27.081 56.2297 29.7019 53.6088 29.7019 50.3757C29.7019 47.1426 27.081 44.5217 23.8479 44.5217C20.6148 44.5217 17.9939 47.1426 17.9939 50.3757C17.9939 53.6088 20.6148 56.2297 23.8479 56.2297Z" fill="#FFB8B8"/>
<path d="M21.5612 54.8577C21.5612 54.8577 22.2929 58.3335 22.2929 58.6994C22.2929 59.0653 25.7687 60.7117 25.7687 60.7117L28.8786 60.1629L29.9763 56.87C29.9763 56.87 28.1469 54.1259 28.1469 53.0283L21.5612 54.8577Z" fill="#FFB8B8"/>
<path d="M25.4535 83.343C23.6407 83.344 21.833 83.1514 20.061 82.7686C19.9732 80.9778 19.9146 79.0046 19.9146 79.0046L18.1306 73.8283L14.4275 63.0906L22.0523 57.2701C22.0523 57.2701 23.9399 60.3448 26.6834 59.4302C27.4464 59.1987 28.1168 58.7321 28.5989 58.0971C29.0811 57.462 29.3504 56.6909 29.3684 55.8938L38.392 59.0653L36.8333 71.7132L36.7454 72.4205L37.4887 80.3223C33.7895 82.3115 29.6537 83.3496 25.4535 83.343Z" fill="#D0CDE1"/>
<path d="M18.7715 45.6593C18.7715 45.6593 20.6302 41.6323 24.1925 42.5616C27.7549 43.4909 29.7684 44.8849 29.9233 46.2788C30.0781 47.6728 29.8458 49.7638 29.8458 49.7638C29.8458 49.7638 29.4586 46.8984 26.9805 47.5179C24.5023 48.1375 20.6302 47.6728 20.6302 47.6728L20.0106 53.2487C20.0106 53.2487 19.3136 52.2419 18.5392 52.8615C17.7648 53.481 16.2934 46.8984 18.7715 45.6593Z" fill="#2F2E41"/>
<path d="M11.0529 78.8787L12.2309 68.9451C12.0485 65.1023 14.4271 63.0908 14.4271 63.0908H17.1707L19.1822 69.8596L18.1303 73.8286L16.8058 78.8224L16.4386 79.372C16.4386 79.372 16.8058 79.9194 16.6211 80.1041C16.4386 80.2865 16.2562 81.0186 16.2562 81.0186C16.2562 81.0186 16.2945 81.2799 16.362 81.6696C14.4876 80.9538 12.7053 80.0168 11.0529 78.8787Z" fill="#D0CDE1"/>
<path d="M44.7959 74.4344C43.468 75.9872 41.9577 77.3743 40.2976 78.5655C40.0477 78.1219 39.8381 77.6568 39.6714 77.1757L36.8333 71.7134L34.9164 68.0282L35.2813 58.5159L38.392 59.0655C38.392 59.0655 40.2211 60.8945 40.9531 63.0907L42.4173 69.6748L44.7937 74.4321L44.7959 74.4344Z" fill="#D0CDE1"/>
<path d="M175.246 43.2483C175.248 47.6182 174.124 51.9148 171.983 55.7241C169.842 59.5334 166.755 62.7268 163.021 64.9964C162.571 65.2712 162.111 65.5302 161.643 65.778C160.944 66.1474 160.226 66.4853 159.492 66.7849V66.7871C159.257 66.884 159.023 66.9763 158.787 67.0642C158.676 67.107 158.564 67.1498 158.451 67.1903C155.674 68.1913 152.744 68.7027 149.792 68.7018C147.854 68.7032 145.921 68.4841 144.033 68.0485C143.051 67.8214 142.085 67.5355 141.138 67.1926H141.136C139.934 66.7573 138.767 66.2317 137.644 65.6203C137.352 65.4627 137.063 65.2982 136.779 65.127C136.581 65.0099 136.388 64.8905 136.194 64.7689C132.453 62.4051 129.393 59.107 127.315 55.1998C125.238 51.2926 124.215 46.9114 124.347 42.4882C124.48 38.065 125.763 33.7528 128.07 29.9769C130.378 26.2009 133.63 23.0917 137.505 20.956C141.381 18.8202 145.746 17.7317 150.171 17.7978C154.596 17.8638 158.927 19.0822 162.737 21.3328C166.547 23.5833 169.704 26.7882 171.898 30.6314C174.092 34.4746 175.245 38.8232 175.246 43.2483Z" fill="#3F3D56"/>
<path d="M146.858 39.5325C146.858 39.5325 147.009 43.45 146.105 44.354C145.201 45.258 150.625 48.4222 150.625 48.4222L153.789 43.45C153.789 43.45 152.584 41.3406 152.885 39.5325L146.858 39.5325Z" fill="#A0616A"/>
<path d="M149.495 41.7174C152.491 41.7174 154.919 39.2888 154.919 36.2931C154.919 33.2974 152.491 30.8689 149.495 30.8689C146.499 30.8689 144.071 33.2974 144.071 36.2931C144.071 39.2888 146.499 41.7174 149.495 41.7174Z" fill="#A0616A"/>
<path d="M158.688 65.8072C158.721 66.2262 158.755 66.6452 158.787 67.0641C158.676 67.1069 158.564 67.1497 158.451 67.1903C155.674 68.1912 152.744 68.7026 149.793 68.7017C147.854 68.7032 145.922 68.484 144.033 68.0485C143.052 67.8213 142.085 67.5355 141.138 67.1925L141.136 67.2128C141.134 67.2062 141.134 67.1991 141.136 67.1925C141.171 66.7331 141.257 66.279 141.393 65.8388V65.8365C141.519 65.3725 141.69 64.8364 141.886 64.244C142.098 63.611 142.112 62.228 142.066 60.9283C142.062 60.8292 142.06 60.7278 142.055 60.631C142.037 60.2097 142.015 59.8065 141.992 59.4484C141.94 58.6397 141.886 58.0653 141.886 58.0653L138.571 49.1747L146.578 43.3271C147.051 44.8611 148.065 44.807 148.065 44.807C152.363 45.1021 153.153 42.1333 153.178 42.0364V42.0342L160.87 47.0663L157.708 54.7496C157.708 54.7496 157.836 56.0516 158.019 58.0383C158.046 58.3311 158.073 58.6397 158.104 58.9618C158.28 60.9125 158.494 63.343 158.688 65.8072Z" fill="#D0CDE1"/>
<path d="M142.262 59.4957L142.104 60.64L142.066 60.9283L141.397 65.8163L141.392 65.8366V65.8388L141.138 67.1926L141.136 67.2129C141.133 67.2063 141.133 67.1992 141.136 67.1926C139.934 66.7573 138.767 66.2317 137.644 65.6203C137.351 65.4627 137.063 65.2982 136.779 65.127C136.966 64.5439 137.187 63.9723 137.441 63.4151L137.901 59.8381L138.043 58.7434L141.991 59.4484L142.262 59.4957Z" fill="#A0616A"/>
<path d="M140.756 48.9497L138.571 49.1757C138.571 49.1757 137.14 59.7982 137.592 59.7982C138.044 59.7982 143.167 61.0035 143.317 60.7022C143.468 60.4009 140.756 48.9497 140.756 48.9497Z" fill="#D0CDE1"/>
<path d="M145.31 30.7329L144.332 30.3774C144.332 30.3774 146.377 28.3329 149.221 28.5106L148.421 27.7106C148.421 27.7106 150.377 26.9995 152.155 28.8662C153.089 29.8475 154.17 31.0009 154.845 32.3003H155.892L155.455 33.1744L156.984 34.0485L155.414 33.8915C155.563 34.6461 155.512 35.4265 155.266 36.1553L154.91 37.1331C154.91 37.1331 153.488 34.2886 153.488 33.933V34.8219C153.488 34.8219 152.51 34.0219 152.51 33.4886L151.977 34.1108L151.71 33.133L148.421 34.1108L148.954 33.3108L146.91 33.5774L147.71 32.5996C147.71 32.5996 145.399 33.7552 145.31 34.733C145.221 35.7108 144.065 36.9553 144.065 36.9553L143.532 36.0664C143.532 36.0664 142.732 32.0663 145.31 30.7329Z" fill="#2F2E41"/>
<path d="M163.021 64.9963C162.571 65.2711 162.111 65.5301 161.643 65.7779C160.945 66.1473 160.226 66.4852 159.492 66.7848V66.787C159.257 66.8839 159.023 66.9762 158.787 67.0641C158.676 67.1069 158.564 67.1497 158.451 67.1902L158.688 65.8072L157.615 58.9933L157.48 58.1396L158.019 58.0383L163.055 57.0854V63.2641C163.055 63.2641 163.069 63.9331 163.021 64.9963Z" fill="#A0616A"/>
<path d="M157.932 46.6895L160.871 47.0661C160.871 47.0661 164.411 57.8393 163.507 58.2913C162.603 58.7433 156.727 59.0446 156.727 59.0446L157.932 46.6895Z" fill="#D0CDE1"/>
<path d="M41.8968 45.9513C46.0021 45.9513 49.3301 42.6233 49.3301 38.518C49.3301 34.4127 46.0021 31.0847 41.8968 31.0847C37.7915 31.0847 34.4635 34.4127 34.4635 38.518C34.4635 42.6233 37.7915 45.9513 41.8968 45.9513Z" fill="#856FB3"/>
<path d="M107.22 78.6127C111.325 78.6127 114.653 75.2847 114.653 71.1794C114.653 67.0741 111.325 63.7461 107.22 63.7461C103.114 63.7461 99.7864 67.0741 99.7864 71.1794C99.7864 75.2847 103.114 78.6127 107.22 78.6127Z" fill="#856FB3"/>
<path d="M168.263 32.6615C172.368 32.6615 175.696 29.3335 175.696 25.2282C175.696 21.1229 172.368 17.7949 168.263 17.7949C164.158 17.7949 160.83 21.1229 160.83 25.2282C160.83 29.3335 164.158 32.6615 168.263 32.6615Z" fill="#856FB3"/>
<path d="M194.607 21.8388C198.102 21.8388 200.936 19.0052 200.936 15.5097C200.936 12.0143 198.102 9.18066 194.607 9.18066C191.112 9.18066 188.278 12.0143 188.278 15.5097C188.278 19.0052 191.112 21.8388 194.607 21.8388Z" fill="#FFB8B8"/>
<path d="M199.429 7.41729C198.908 6.71778 198.233 6.14769 197.456 5.75125C196.679 5.35481 195.822 5.1427 194.949 5.13135H194.737C190.639 5.13135 187.317 8.83932 187.317 13.4133V13.4134H188.69L188.912 11.7255L189.237 13.4134H197.381L198.063 11.9854L197.892 13.4134H199.494C200.242 17.126 199.168 20.8386 196.272 24.5512H199.001L200.366 21.6954L200.024 24.5512H205.227L206.25 17.9827C206.25 13.0635 203.392 8.89213 199.429 7.41729Z" fill="#2F2E41"/>
<path d="M200.924 8.10905C203.164 8.10905 204.979 6.29378 204.979 4.05453C204.979 1.81527 203.164 0 200.924 0C198.685 0 196.87 1.81527 196.87 4.05453C196.87 6.29378 198.685 8.10905 200.924 8.10905Z" fill="#2F2E41"/>
</g>
<defs>
<clipPath id="clip0">
<rect width="250" height="146.639" fill="white"/>
</clipPath>
</defs>
</svg>
