<svg width="250" height="136" viewBox="0 0 250 136" fill="none" xmlns="http://www.w3.org/2000/svg">
<g clip-path="url(#clip0)">
<path d="M125.802 135.945C193.592 135.945 248.546 132.307 248.546 127.819C248.546 123.331 193.592 119.693 125.802 119.693C58.0126 119.693 3.05835 123.331 3.05835 127.819C3.05835 132.307 58.0126 135.945 125.802 135.945Z" fill="#F2F2F2"/>
<path d="M121.098 38.8613C101.1 38.8613 86.741 51.6917 86.741 81.6292C86.741 115.558 101.1 124.54 121.098 124.54C141.096 124.54 156.31 114.703 156.31 81.6292C156.31 46.2744 141.096 38.8613 121.098 38.8613ZM121.229 113.277C107.378 113.277 100.142 105.151 100.142 81.6511C100.142 60.9157 107.674 49.981 121.526 49.981C135.377 49.981 142.909 57.1636 142.909 81.6511C142.909 104.559 135.081 113.277 121.229 113.277Z" fill="#2F2E41"/>
<path d="M74.7659 100.875H66.4974V76.5265C66.4974 75.2332 65.9837 73.9929 65.0692 73.0785C64.1547 72.164 62.9145 71.6503 61.6212 71.6502H59.6838C59.0434 71.6502 58.4093 71.7764 57.8177 72.0214C57.2261 72.2665 56.6885 72.6257 56.2357 73.0785C55.783 73.5313 55.4238 74.0688 55.1787 74.6604C54.9337 75.252 54.8075 75.8861 54.8075 76.5265V100.875H31.485C31.0052 100.875 30.5336 100.751 30.1158 100.515C29.6981 100.279 29.3484 99.939 29.1008 99.5281C28.8531 99.1172 28.7159 98.6492 28.7024 98.1696C28.6889 97.69 28.7996 97.215 29.0237 96.7908L53.708 50.0713C54.0158 49.4888 54.2023 48.85 54.2563 48.1934C54.3104 47.5369 54.2309 46.8762 54.0225 46.2512C53.8142 45.6263 53.4814 45.05 53.0442 44.5572C52.607 44.0644 52.0744 43.6653 51.4787 43.384L50.0216 42.6959C48.8901 42.1616 47.5965 42.0827 46.4085 42.4756C45.2205 42.8684 44.2289 43.7029 43.6391 44.8064L13.5333 101.125C13.0207 102.084 12.7524 103.155 12.7524 104.242C12.7524 105.11 12.9235 105.97 13.2558 106.772C13.588 107.575 14.0751 108.304 14.6891 108.918C15.3031 109.531 16.032 110.019 16.8342 110.351C17.6364 110.683 18.4962 110.854 19.3645 110.854H54.8075V126.251C54.8075 127.018 54.9587 127.778 55.2525 128.487C55.5462 129.196 55.9767 129.841 56.5195 130.384C57.0622 130.926 57.7066 131.357 58.4157 131.651C59.1249 131.944 59.8849 132.096 60.6525 132.096H60.6525C61.42 132.096 62.1801 131.944 62.8892 131.651C63.5984 131.357 64.2427 130.926 64.7855 130.384C65.3282 129.841 65.7588 129.196 66.0525 128.487C66.3462 127.778 66.4974 127.018 66.4974 126.251V110.854H74.7659C76.0892 110.854 77.3583 110.328 78.2941 109.393C79.2298 108.457 79.7555 107.188 79.7555 105.865C79.7555 104.541 79.2298 103.272 78.2941 102.336C77.3583 101.401 76.0892 100.875 74.7659 100.875Z" fill="#856FB3"/>
<path d="M227.875 100.875H219.607V76.5265C219.607 75.2332 219.093 73.9929 218.178 73.0785C217.264 72.164 216.024 71.6502 214.73 71.6502H212.793C212.153 71.6502 211.518 71.7764 210.927 72.0214C210.335 72.2665 209.798 72.6257 209.345 73.0785C208.892 73.5313 208.533 74.0688 208.288 74.6604C208.043 75.252 207.917 75.8861 207.917 76.5265V100.875H184.594C184.114 100.875 183.643 100.751 183.225 100.515C182.807 100.279 182.458 99.939 182.21 99.5281C181.962 99.1172 181.825 98.6492 181.812 98.1696C181.798 97.69 181.909 97.215 182.133 96.7908L206.817 50.0713C207.125 49.4888 207.311 48.85 207.365 48.1935C207.42 47.5369 207.34 46.8762 207.132 46.2512C206.923 45.6263 206.59 45.05 206.153 44.5572C205.716 44.0644 205.184 43.6653 204.588 43.384L203.131 42.6959C201.999 42.1616 200.706 42.0827 199.518 42.4756C198.33 42.8684 197.338 43.7029 196.748 44.8064L166.642 101.125C166.13 102.084 165.862 103.155 165.862 104.242C165.862 105.996 166.558 107.677 167.798 108.918C169.038 110.158 170.72 110.854 172.474 110.854H207.917V126.251C207.917 127.801 208.532 129.287 209.629 130.384C210.725 131.48 212.211 132.096 213.762 132.096C215.312 132.096 216.798 131.48 217.895 130.384C218.991 129.287 219.607 127.801 219.607 126.251V110.854H227.875C229.198 110.854 230.467 110.328 231.403 109.393C232.339 108.457 232.865 107.188 232.865 105.865C232.865 104.541 232.339 103.272 231.403 102.336C230.467 101.401 229.198 100.875 227.875 100.875Z" fill="#856FB3"/>
<path d="M77.0467 98.0239H68.7782V73.6754C68.7782 73.035 68.6521 72.4009 68.407 71.8093C68.162 71.2177 67.8028 70.6802 67.35 70.2274C66.8972 69.7746 66.3596 69.4154 65.768 69.1703C65.1764 68.9253 64.5423 68.7992 63.902 68.7992H61.9645C60.6713 68.7992 59.431 69.3129 58.5165 70.2274C57.602 71.1418 57.0883 72.3821 57.0883 73.6754V98.0239H33.7658C33.286 98.0239 32.8143 97.8999 32.3966 97.6639C31.9788 97.4279 31.6292 97.0879 31.3815 96.677C31.1339 96.2661 30.9967 95.7981 30.9832 95.3185C30.9697 94.8389 31.0803 94.3639 31.3045 93.9397L55.9888 47.2202C56.2965 46.6377 56.4831 45.9989 56.5371 45.3424C56.5912 44.6858 56.5116 44.0251 56.3033 43.4002C56.0949 42.7752 55.7621 42.1989 55.3249 41.7061C54.8877 41.2133 54.3552 40.8142 53.7595 40.5329L52.3023 39.8448C51.1709 39.3105 49.8773 39.2316 48.6893 39.6245C47.5013 40.0173 46.5097 40.8518 45.9198 41.9553L15.8141 98.2738C15.3014 99.2329 15.0332 100.304 15.0332 101.391V101.391C15.0332 103.145 15.7298 104.826 16.9698 106.066C18.2098 107.306 19.8916 108.003 21.6453 108.003H57.0883V123.399C57.0883 124.167 57.2395 124.927 57.5332 125.636C57.827 126.345 58.2575 126.99 58.8002 127.532C59.343 128.075 59.9873 128.506 60.6965 128.8C61.4056 129.093 62.1657 129.244 62.9332 129.244H62.9332C64.4834 129.244 65.9701 128.629 67.0662 127.532C68.1624 126.436 68.7782 124.95 68.7782 123.399V108.003H77.0466C77.7019 108.003 78.3507 107.874 78.9561 107.623C79.5614 107.372 80.1115 107.005 80.5748 106.542C81.0381 106.078 81.4057 105.528 81.6564 104.923C81.9072 104.318 82.0362 103.669 82.0362 103.013V103.013C82.0362 102.358 81.9072 101.709 81.6564 101.104C81.4057 100.499 81.0381 99.9486 80.5748 99.4853C80.1115 99.022 79.5614 98.6544 78.9561 98.4037C78.3507 98.1529 77.7019 98.0239 77.0467 98.0239V98.0239Z" stroke="#3F3D56" stroke-miterlimit="10"/>
<path d="M232.152 98.0239H223.883V73.6754C223.883 72.3821 223.369 71.1418 222.455 70.2274C221.54 69.3129 220.3 68.7992 219.007 68.7992H217.069C216.429 68.7992 215.795 68.9253 215.203 69.1703C214.612 69.4154 214.074 69.7746 213.621 70.2274C213.169 70.6802 212.809 71.2177 212.564 71.8093C212.319 72.4009 212.193 73.035 212.193 73.6754V98.0239H188.871C188.391 98.0239 187.919 97.8999 187.502 97.6639C187.084 97.4279 186.734 97.0879 186.486 96.677C186.239 96.2661 186.102 95.7981 186.088 95.3185C186.075 94.8389 186.185 94.3639 186.409 93.9397L211.094 47.2202C211.401 46.6377 211.588 45.9989 211.642 45.3424C211.696 44.6858 211.617 44.0251 211.408 43.4002C211.2 42.7752 210.867 42.1989 210.43 41.7061C209.993 41.2133 209.46 40.8142 208.864 40.5329L207.407 39.8448C206.276 39.3105 204.982 39.2316 203.794 39.6245C202.606 40.0173 201.615 40.8518 201.025 41.9553L170.919 98.2738C170.406 99.2329 170.138 100.304 170.138 101.391C170.138 103.145 170.835 104.826 172.075 106.066C173.315 107.306 174.997 108.003 176.75 108.003H212.193V123.399C212.193 124.95 212.809 126.436 213.905 127.532C215.001 128.629 216.488 129.244 218.038 129.244V129.244C219.588 129.244 221.075 128.629 222.171 127.532C223.267 126.436 223.883 124.95 223.883 123.399V108.003H232.152C232.807 108.003 233.456 107.874 234.061 107.623C234.666 107.372 235.216 107.005 235.68 106.542C236.143 106.078 236.511 105.528 236.761 104.923C237.012 104.318 237.141 103.669 237.141 103.013V103.013C237.141 101.69 236.615 100.421 235.68 99.4853C234.744 98.5496 233.475 98.0239 232.152 98.0239V98.0239Z" stroke="#3F3D56" stroke-miterlimit="10"/>
<path d="M125.66 36.2954C105.661 36.2954 91.3027 49.1258 91.3027 79.0633C91.3027 112.992 105.661 121.974 125.66 121.974C145.658 121.974 160.872 112.137 160.872 79.0633C160.872 43.7085 145.658 36.2954 125.66 36.2954ZM125.791 110.712C111.94 110.712 104.703 102.585 104.703 79.0852C104.703 58.3498 112.236 47.4151 126.087 47.4151C139.939 47.4151 147.471 54.5977 147.471 79.0852C147.471 101.993 139.642 110.712 125.791 110.712V110.712Z" stroke="#3F3D56" stroke-miterlimit="10"/>
<path d="M109.63 7.24857C111.288 7.24857 112.632 5.90454 112.632 4.2466C112.632 2.58866 111.288 1.24463 109.63 1.24463C107.972 1.24463 106.628 2.58866 106.628 4.2466C106.628 5.90454 107.972 7.24857 109.63 7.24857Z" fill="#2F2E41"/>
<path d="M116.952 21.8192C121.602 21.8192 125.372 16.9348 125.372 10.9096C125.372 4.8844 121.602 0 116.952 0C112.301 0 108.531 4.8844 108.531 10.9096C108.531 16.9348 112.301 21.8192 116.952 21.8192Z" fill="#2F2E41"/>
<path opacity="0.1" d="M116.952 18.5244C112.734 18.5244 109.24 14.5057 108.627 9.26221C108.563 9.80903 108.531 10.3591 108.531 10.9096C108.531 16.9348 112.301 21.8192 116.952 21.8192C121.602 21.8192 125.372 16.9348 125.372 10.9096C125.372 10.3591 125.34 9.80903 125.276 9.26221C124.663 14.5057 121.17 18.5244 116.952 18.5244Z" fill="black"/>
<path d="M134.086 42.8589C133.905 43.602 133.125 44.1971 132.262 44.6129C130.446 45.487 128.207 45.7479 126.035 45.8355C125.481 45.8691 124.925 45.8589 124.372 45.8047C123.302 45.7012 122.297 45.2395 121.522 44.4944C121.466 44.4583 121.421 44.4088 121.39 44.3504C121.359 44.2921 121.343 44.2268 121.344 44.1607C121.345 44.0946 121.363 44.0299 121.396 43.9725C121.429 43.9151 121.476 43.867 121.532 43.8326C122.688 42.5624 124.618 41.7835 126.562 41.2228C128.036 40.7975 130.606 39.6961 132.214 39.8447C133.771 39.9887 134.314 41.9206 134.086 42.8589Z" fill="#3F3D56"/>
<path opacity="0.1" d="M134.086 42.8589C133.905 43.602 133.125 44.1971 132.262 44.6129C130.446 45.487 128.207 45.7479 126.035 45.8355C125.481 45.8691 124.925 45.8589 124.372 45.8047C123.302 45.7012 122.297 45.2395 121.522 44.4944C121.466 44.4583 121.421 44.4088 121.39 44.3504C121.359 44.2921 121.343 44.2268 121.344 44.1607C121.345 44.0946 121.363 44.0299 121.396 43.9725C121.429 43.9151 121.476 43.867 121.532 43.8326C122.688 42.5624 124.618 41.7835 126.562 41.2228C128.036 40.7975 130.606 39.6961 132.214 39.8447C133.771 39.9887 134.314 41.9206 134.086 42.8589Z" fill="black"/>
<path d="M111.003 37.305C110.449 38.3911 110.349 39.6527 110.724 40.8127C111.106 41.964 111.821 42.976 112.779 43.7206C115.128 45.6035 118.36 45.8625 121.371 45.8364C124.009 45.8134 126.643 45.6329 129.26 45.2957C130.137 45.218 130.999 45.0179 131.82 44.7013C132.802 44.2762 133.666 43.4965 134.016 42.4848C134.365 41.473 134.117 40.2341 133.286 39.5588C132.556 38.9656 131.55 38.884 130.611 38.8275L125.239 38.5047C125.77 37.9675 126.476 37.6637 127.123 37.2732C127.98 36.7552 128.55 35.8854 129.173 35.1012C130.134 33.953 131.179 32.8783 132.3 31.8861C132.475 32.8891 133.11 33.7127 133.856 34.4047C134.603 35.0968 135.464 35.6539 136.24 36.3128C138.12 37.9087 139.473 40.0747 141.45 41.5484C142.81 41.1911 144.082 40.5563 145.185 39.6841L144.416 38.2923C144.352 38.149 144.253 38.0246 144.127 37.9309C143.909 37.7971 143.629 37.8661 143.376 37.8282C142.701 37.727 142.407 36.9477 142.142 36.3187C141.415 34.5917 140.022 33.2518 138.833 31.8036C137.956 30.7345 137.177 29.5879 136.508 28.3777C136.108 27.656 135.742 26.9046 135.2 26.2828C134.658 25.661 133.899 25.1722 133.074 25.1704C132.345 25.1689 131.673 25.5389 131.046 25.9111C129.138 27.0448 127.301 28.2959 125.548 29.6571C124.63 30.3696 123.718 31.1223 122.642 31.5591C122.188 31.743 121.711 31.8687 121.276 32.0925C120.514 32.4845 119.936 33.1476 119.314 33.7363C117.095 35.8359 114.056 37.1962 111.003 37.305Z" fill="#3F3D56"/>
<path d="M122.237 22.361C122.212 23.0027 122.075 23.6353 121.833 24.2302C121.71 24.527 121.528 24.7952 121.297 25.0183C121.066 25.2414 120.792 25.4146 120.491 25.5269C120.064 25.6414 119.616 25.6559 119.183 25.5694C118.804 25.5299 118.44 25.4058 118.117 25.2062C117.613 24.8599 117.362 24.2419 117.27 23.6372C117.179 23.0331 117.22 22.4159 117.161 21.8074C117.104 21.316 117.01 20.8294 116.881 20.3518C116.842 20.1929 116.802 20.0348 116.762 19.8766C116.723 19.7185 116.685 19.5603 116.65 19.4022C116.618 19.2536 116.588 19.1042 116.562 18.9541C116.541 18.8274 116.522 18.7 116.508 18.5719C116.495 18.192 116.432 17.8155 116.32 17.4524C116.215 17.2168 116.083 16.994 115.927 16.7883C115.861 16.6931 115.796 16.5979 115.737 16.4991C115.565 16.2422 115.486 15.9349 115.511 15.627C115.518 15.5794 115.529 15.5326 115.545 15.4872C115.551 15.4696 115.558 15.452 115.565 15.4352C115.631 15.4173 115.691 15.3836 115.741 15.337C115.791 15.2905 115.829 15.2324 115.851 15.1679C115.876 15.0294 115.864 14.8867 115.817 14.7542C115.762 14.5692 115.687 14.3907 115.593 14.2219C115.532 14.1106 115.323 13.91 115.322 13.7826C115.319 13.5264 115.82 13.3199 116.023 13.2188C116.642 12.9088 117.332 12.7688 118.023 12.8132C118.466 12.8432 118.946 12.9794 119.191 13.3506C119.41 13.6852 119.381 14.1187 119.475 14.5075C119.485 14.564 119.509 14.6171 119.544 14.662C119.592 14.7055 119.652 14.7332 119.716 14.7411C119.825 14.7626 119.936 14.7671 120.046 14.7542H120.047C120.076 14.7519 120.104 14.7478 120.133 14.7418C120.304 14.7102 120.466 14.6404 120.606 14.5375C120.697 14.5133 120.788 14.4936 120.881 14.4782C120.884 14.4778 120.888 14.4771 120.892 14.476C121.258 15.6336 121.306 16.8747 121.606 18.0535C121.755 18.64 121.968 19.2191 121.998 19.8224C122 19.8488 122.001 19.8759 122.002 19.903C122.006 20.097 121.991 20.2925 121.999 20.4858C122.001 20.5728 122.011 20.6595 122.028 20.745C122.061 20.8825 122.102 21.0179 122.15 21.1506L122.152 21.1572C122.166 21.1997 122.179 21.2429 122.19 21.2861C122.198 21.3176 122.206 21.3483 122.212 21.3798L122.212 21.382C122.267 21.7055 122.275 22.0351 122.237 22.361Z" fill="#FBBEBE"/>
<path d="M117.098 14.7902C119.484 14.7902 121.418 12.8561 121.418 10.4703C121.418 8.08448 119.484 6.15039 117.098 6.15039C114.712 6.15039 112.778 8.08448 112.778 10.4703C112.778 12.8561 114.712 14.7902 117.098 14.7902Z" fill="#FBBEBE"/>
<path d="M144.524 34.0071C144.399 32.8285 143.98 31.7001 143.306 30.7254C143.418 31.3917 143.53 32.0577 143.643 32.7235C143.503 32.764 143.354 32.7628 143.215 32.72C143.076 32.6772 142.952 32.5947 142.859 32.4826C142.677 32.2555 142.538 31.9973 142.448 31.7204C141.958 30.5021 141.316 29.3501 140.538 28.2916C137.788 28.0624 135.069 26.9224 132.651 25.5935C130.232 24.2653 127.968 22.6728 125.581 21.2882C125.167 21.0381 124.736 20.8179 124.291 20.6293C123.544 20.3298 122.706 20.1746 121.998 19.8224C121.95 19.7989 121.903 19.7741 121.856 19.7484C121.696 19.6614 121.544 19.5597 121.403 19.4446C121.327 19.3827 121.255 19.3162 121.186 19.2454C120.833 18.8344 120.553 18.3659 120.358 17.8601C119.978 17.0196 119.843 16.0055 119.464 15.1649C119.638 15.002 119.834 14.8638 120.046 14.7542H120.046C120.077 14.7381 120.108 14.7227 120.139 14.708C120.289 14.6374 120.446 14.5803 120.606 14.5374C120.697 14.5133 120.788 14.4935 120.88 14.4781C120.884 14.4778 120.888 14.477 120.891 14.4759C121.319 14.4062 121.758 14.4409 122.169 14.577C122.771 14.7805 123.278 15.1869 123.784 15.5713C124.606 16.1504 125.395 16.7757 126.146 17.4442C126.563 17.844 126.944 18.2833 127.392 18.6465C127.765 18.9343 128.159 19.1949 128.569 19.4263C130.998 20.8731 133.427 22.3196 135.856 23.7659C136.678 24.2558 137.501 24.7456 138.305 25.264C139.526 26.0518 140.704 26.9056 141.88 27.7586C142.574 28.2608 143.267 28.7634 143.96 29.2661C144.187 29.4112 144.387 29.5956 144.549 29.8109C144.693 30.0553 144.782 30.3277 144.811 30.6097C144.984 31.7489 144.886 32.9131 144.524 34.0071Z" fill="#FBBEBE"/>
<path d="M123.308 25.61C123.016 26.9169 121.695 27.707 121.005 28.855C120.147 30.2799 120.497 31.9361 120.819 33.5681C120.23 34.0755 119.641 34.5829 119.052 35.0903C118.727 35.3693 118.402 35.6497 118.052 35.8965C117.542 36.2384 117.008 36.5447 116.456 36.8132C115.935 37.0812 115.413 37.3494 114.892 37.6178C114.407 37.8903 113.894 38.1079 113.361 38.2666C112.334 38.5302 111.243 38.3456 110.226 38.0403C110.107 38.0089 109.991 37.9619 109.884 37.9005C109.82 37.8627 109.765 37.8126 109.721 37.7533C109.621 37.5737 109.585 37.3654 109.618 37.1624C109.721 35.452 110.139 33.7775 110.556 32.1154C110.779 31.1183 111.078 30.1399 111.451 29.1889C111.818 28.374 112.239 27.5849 112.711 26.8269C113.233 25.8731 113.852 24.9754 114.557 24.1478C114.9 23.8292 115.189 23.4568 115.412 23.0451C115.672 22.452 115.571 21.7718 115.624 21.126C115.664 20.6408 115.793 20.1671 116.004 19.7283V19.7276C116.117 19.4912 116.253 19.2665 116.41 19.0569C116.481 19.2224 116.552 19.3876 116.623 19.5526C116.67 19.6609 116.716 19.7691 116.762 19.8769C116.822 20.0161 116.882 20.1547 116.941 20.2928C117.111 20.6897 117.282 21.0863 117.452 21.4826C117.636 21.9818 117.897 22.4487 118.228 22.8657C118.379 23.0793 118.583 23.25 118.819 23.3613C119.056 23.4725 119.317 23.5205 119.578 23.5005C119.839 23.4805 120.09 23.3933 120.307 23.2472C120.524 23.1012 120.699 22.9014 120.816 22.6673C121.062 22.2304 121.24 21.7586 121.345 21.2681C121.489 20.6709 121.509 20.0502 121.403 19.445C121.227 18.2793 120.731 17.0888 120.371 16.0059C120.224 15.6448 120.139 15.2616 120.12 14.8724C120.121 14.8287 120.125 14.7851 120.133 14.7421C120.135 14.7311 120.137 14.7194 120.14 14.7084C120.29 14.6378 120.446 14.5807 120.606 14.5378C120.697 14.5137 120.788 14.4939 120.881 14.4785C121.198 16.1948 121.515 17.911 121.833 19.6273C121.84 19.6675 121.848 19.7078 121.856 19.7488C121.901 19.9948 121.947 20.2408 121.999 20.4861C122.045 20.7087 122.094 20.9306 122.15 21.1509L122.152 21.1575C122.171 21.2322 122.191 21.3062 122.212 21.3801L122.212 21.3823C122.269 21.5844 122.332 21.785 122.403 21.9827C122.833 23.174 123.584 24.3733 123.308 25.61Z" fill="#856FB3"/>
<path d="M140.84 43.9767C140.826 44.2285 140.875 44.4797 140.982 44.7082C141.252 45.2023 141.901 45.3146 142.462 45.3608C145.741 45.6303 149.04 45.5298 152.297 45.0612C152.474 45.0491 152.645 44.9959 152.797 44.9058C153.26 44.5812 152.975 43.79 152.469 43.5368C151.964 43.2835 151.364 43.3445 150.809 43.2349C150.258 43.0961 149.733 42.8685 149.255 42.561C148.13 41.9146 147.022 41.2407 145.929 40.5393C145.279 40.1217 144.512 39.6761 143.779 39.9237C141.796 40.5948 140.827 41.8368 140.84 43.9767Z" fill="#3F3D56"/>
<path d="M116.667 19.3108V19.3116C116.662 19.3423 116.657 19.3723 116.65 19.4023C116.642 19.4521 116.632 19.5027 116.623 19.5524C116.532 20.0174 116.421 20.4801 116.293 20.9399C115.941 22.2103 115.47 23.4601 115.003 24.6917C113.75 27.9938 112.496 31.2962 111.242 34.5989C110.926 35.4307 110.61 36.2632 110.251 37.0781C110.131 37.3497 110.007 37.6236 109.884 37.9003C109.443 38.891 109.02 39.9139 108.879 40.9682C108.748 41.6621 108.733 42.3729 108.835 43.0718C108.975 43.763 109.395 44.438 110.051 44.6936C110.372 44.8188 110.831 44.9864 110.743 45.3196C110.696 45.5026 110.488 45.592 110.301 45.6227C110.055 45.662 109.802 45.6466 109.562 45.5775C109.323 45.5084 109.101 45.3874 108.913 45.223C108.562 44.9118 108.293 44.4278 107.826 44.3758C107.503 44.3407 107.206 44.534 106.91 44.6694C105.704 45.2208 104.298 44.8349 103.031 44.4432C103.13 43.9299 103.646 43.5916 104.157 43.4891C104.669 43.3859 105.199 43.4591 105.721 43.4452C105.888 43.4541 106.054 43.4114 106.196 43.3229C106.323 43.206 106.412 43.0534 106.452 42.8851C106.788 41.8886 107.038 40.8652 107.2 39.826C107.368 38.7402 107.438 37.6375 107.678 36.5648C107.865 35.7279 108.154 34.9174 108.401 34.0959C108.88 32.4044 109.273 30.6899 109.578 28.9589C109.733 28.2397 109.844 27.5118 109.91 26.7791C109.952 26.1714 109.932 25.5608 109.991 24.9553C110.089 24.1675 110.253 23.3893 110.482 22.6291C110.706 21.7995 110.93 20.9704 111.153 20.1418C111.485 18.9154 111.841 17.6414 112.681 16.6881C112.973 16.3525 113.331 16.0804 113.733 15.8887C114.134 15.6971 114.57 15.5898 115.015 15.5737C115.182 15.5735 115.348 15.5915 115.511 15.6272C115.538 15.6338 115.565 15.6404 115.592 15.6477C115.769 15.6941 115.94 15.7645 116.098 15.8571C116.357 15.6923 116.489 15.7502 116.661 16.0043C116.812 16.2731 116.883 16.5794 116.866 16.8873C116.88 17.6997 116.814 18.5116 116.667 19.3108Z" fill="#FBBEBE"/>
<path d="M116.952 20.2817L116.941 20.2927L116.881 20.352L116.293 20.9399L116.004 19.7281L115.015 15.5737C115.182 15.5735 115.348 15.5914 115.511 15.6272C115.518 15.5796 115.529 15.5327 115.545 15.4873L115.592 15.6477L115.927 16.7884L116.562 18.9542L116.667 19.3108V19.3115L116.952 20.2817Z" fill="#6C63FF"/>
<path d="M120.687 7.02779C120.687 7.41247 120.61 7.79328 120.463 8.14846C120.315 8.50364 120.099 8.82621 119.826 9.09775C119.727 9.19659 119.622 9.28807 119.51 9.37148C119.004 9.75237 118.389 9.95853 117.756 9.95882H114.243C113.467 9.95762 112.723 9.64844 112.175 9.09916C111.626 8.54989 111.318 7.80541 111.318 7.02921C111.318 6.25302 111.626 5.50855 112.175 4.95927C112.723 4.40999 113.467 4.10081 114.243 4.09961H117.756C118.532 4.10163 119.276 4.41069 119.825 4.95931C120.375 5.50794 120.684 6.25155 120.687 7.02779Z" fill="#2F2E41"/>
<path d="M123.98 7.24857C125.638 7.24857 126.982 5.90454 126.982 4.2466C126.982 2.58866 125.638 1.24463 123.98 1.24463C122.323 1.24463 120.979 2.58866 120.979 4.2466C120.979 5.90454 122.323 7.24857 123.98 7.24857Z" fill="#2F2E41"/>
<path opacity="0.1" d="M123.907 1.24463C123.871 1.24463 123.834 1.24609 123.798 1.24741C124.574 1.27564 125.31 1.60398 125.849 2.16336C126.388 2.72273 126.69 3.46952 126.69 4.2466C126.69 5.02369 126.388 5.77047 125.849 6.32985C125.31 6.88922 124.574 7.21757 123.798 7.2458C123.834 7.24711 123.871 7.24857 123.907 7.24857C124.704 7.24857 125.467 6.93229 126.03 6.36932C126.593 5.80634 126.909 5.04278 126.909 4.2466C126.909 3.45043 126.593 2.68687 126.03 2.12389C125.467 1.56091 124.704 1.24463 123.907 1.24463Z" fill="black"/>
<path opacity="0.1" d="M109.63 1.24463C109.667 1.24463 109.703 1.24609 109.74 1.24741C108.963 1.27564 108.228 1.60398 107.688 2.16336C107.149 2.72273 106.847 3.46952 106.847 4.2466C106.847 5.02369 107.149 5.77047 107.688 6.32985C108.228 6.88922 108.963 7.21757 109.74 7.2458C109.703 7.24711 109.667 7.24857 109.63 7.24857C108.834 7.24787 108.071 6.93128 107.509 6.36838C106.946 5.80548 106.63 5.04232 106.63 4.2466C106.63 3.45089 106.946 2.68772 107.509 2.12482C108.071 1.56192 108.834 1.24533 109.63 1.24463Z" fill="black"/>
<path opacity="0.1" d="M119.51 9.37158C119.004 9.75247 118.389 9.95863 117.756 9.95892H114.243C113.611 9.95863 112.995 9.75247 112.49 9.37158H119.51Z" fill="black"/>
<path d="M142.193 31.1234C142.193 31.1234 142.95 33.3041 143.643 32.7234L143.091 29.873L142.193 31.1234Z" fill="#FBBEBE"/>
<path d="M234.287 97.6248C234.992 97.881 235.746 97.9701 236.492 97.8848C237.237 97.7996 237.952 97.5425 238.581 97.1338C239.21 96.725 239.735 96.1758 240.115 95.5294C240.496 94.8829 240.721 94.157 240.773 93.4088C240.825 92.6606 240.702 91.9105 240.415 91.2178C240.127 90.525 239.683 89.9084 239.117 89.4167C238.55 88.9249 237.878 88.5714 237.151 88.384C236.425 88.1967 235.665 88.1805 234.932 88.3369L235.053 90.8295L233.874 88.6933C232.716 89.2372 231.822 90.2183 231.388 91.421C231.233 91.8424 231.14 92.2834 231.109 92.7311C231.035 93.7813 231.305 94.8273 231.878 95.7103C232.451 96.5934 233.297 97.2655 234.287 97.6248Z" fill="#57B894"/>
<path d="M240.122 126.535C239.706 124.415 241.51 122.536 243.291 121.314C245.073 120.093 247.155 118.893 247.763 116.819C248.637 113.84 246.034 111.112 244.009 108.759C242.506 107.013 241.215 105.094 240.164 103.044C239.742 102.222 239.355 101.363 239.244 100.446C239.084 99.1255 239.509 97.8114 239.936 96.5517C241.36 92.3553 242.883 88.194 244.504 84.0679" stroke="#3F3D56" stroke-miterlimit="10"/>
<path d="M234.486 96.9832C235.191 97.2394 235.946 97.3284 236.691 97.2432C237.436 97.158 238.151 96.9009 238.78 96.4922C239.409 96.0834 239.934 95.5342 240.315 94.8878C240.695 94.2413 240.92 93.5154 240.972 92.7672C241.024 92.019 240.901 91.2689 240.614 90.5761C240.327 89.8834 239.882 89.2668 239.316 88.7751C238.75 88.2833 238.077 87.9298 237.351 87.7424C236.624 87.5551 235.865 87.5389 235.131 87.6953L235.252 90.1879L234.073 88.0517C232.916 88.5956 232.021 89.5767 231.587 90.7794C231.433 91.2008 231.339 91.6418 231.309 92.0895C231.234 93.1397 231.504 94.1857 232.077 95.0687C232.651 95.9518 233.496 96.6239 234.486 96.9832V96.9832Z" stroke="#3F3D56" stroke-miterlimit="10"/>
<path d="M239.53 83.2072C239.807 82.4439 240.271 81.7625 240.88 81.2259C241.489 80.6892 242.224 80.3144 243.016 80.1362L243.415 82.5059L244.154 80.0171C245.18 80.0323 246.175 80.3733 246.995 80.9909C247.815 81.6085 248.418 82.4707 248.716 83.453C249.014 84.4354 248.992 85.487 248.653 86.4561C248.315 87.4252 247.677 88.2616 246.832 88.8445C245.987 89.4275 244.979 89.7269 243.952 89.6994C242.926 89.6719 241.935 89.3191 241.123 88.6917C240.31 88.0644 239.718 87.1951 239.432 86.2092C239.146 85.2234 239.18 84.1721 239.53 83.2072H239.53Z" fill="#57B894"/>
<path d="M239.796 82.3512C240.073 81.5879 240.537 80.9066 241.146 80.3699C241.755 79.8332 242.49 79.4585 243.282 79.2802L243.681 81.6499L244.42 79.1611C245.446 79.1764 246.441 79.5174 247.261 80.135C248.081 80.7526 248.684 81.6148 248.982 82.5971C249.28 83.5794 249.258 84.631 248.919 85.6001C248.581 86.5692 247.943 87.4056 247.098 87.9886C246.253 88.5715 245.245 88.8709 244.219 88.8434C243.192 88.816 242.202 88.4631 241.389 87.8357C240.576 87.2084 239.984 86.3391 239.698 85.3533C239.412 84.3675 239.446 83.3162 239.796 82.3512H239.796Z" stroke="#3F3D56" stroke-miterlimit="10"/>
<path d="M243.159 108.807C244.277 109.212 245.505 109.192 246.609 108.751C247.713 108.309 248.616 107.476 249.145 106.412C249.675 105.347 249.794 104.125 249.481 102.978C249.167 101.831 248.442 100.839 247.445 100.192L246.877 102.105L246.474 99.7071C246.47 99.7052 246.466 99.7036 246.461 99.7024C245.864 99.4851 245.229 99.3877 244.593 99.4159C243.958 99.444 243.334 99.5971 242.757 99.8664C242.181 100.136 241.663 100.516 241.234 100.985C240.805 101.455 240.472 102.004 240.255 102.602C240.038 103.2 239.941 103.835 239.97 104.471C239.998 105.106 240.152 105.73 240.421 106.306C240.691 106.882 241.072 107.4 241.541 107.829C242.011 108.258 242.561 108.59 243.159 108.807H243.159Z" fill="#57B894"/>
<path d="M243.389 107.94C244.507 108.346 245.735 108.326 246.839 107.884C247.943 107.442 248.846 106.61 249.376 105.545C249.905 104.48 250.025 103.258 249.711 102.111C249.398 100.964 248.673 99.9725 247.675 99.3254L247.107 101.238L246.704 98.8404C246.7 98.8385 246.696 98.8369 246.692 98.8357C246.094 98.6184 245.459 98.521 244.824 98.5492C244.188 98.5773 243.564 98.7304 242.988 98.9997C242.412 99.269 241.894 99.6493 241.465 100.119C241.035 100.588 240.703 101.138 240.486 101.736C240.269 102.334 240.172 102.969 240.2 103.604C240.229 104.24 240.382 104.863 240.652 105.44C240.921 106.016 241.302 106.533 241.772 106.962C242.241 107.391 242.791 107.724 243.389 107.94H243.389Z" stroke="#3F3D56" stroke-miterlimit="10"/>
<path d="M238.117 116.849C238.309 117.943 238.872 118.937 239.71 119.665C240.548 120.393 241.611 120.811 242.721 120.849C243.831 120.886 244.92 120.541 245.805 119.87C246.691 119.2 247.319 118.246 247.584 117.168C247.849 116.089 247.736 114.953 247.263 113.948C246.789 112.944 245.985 112.132 244.985 111.65C243.984 111.169 242.849 111.045 241.768 111.301C240.688 111.557 239.728 112.177 239.05 113.057L241.208 116.304L238.26 114.581C238.031 115.314 237.982 116.092 238.117 116.849Z" fill="#57B894"/>
<path d="M238.316 116.207C238.509 117.301 239.071 118.295 239.909 119.024C240.748 119.752 241.811 120.17 242.921 120.207C244.03 120.244 245.119 119.899 246.005 119.229C246.89 118.559 247.518 117.604 247.784 116.526C248.049 115.448 247.935 114.311 247.462 113.307C246.989 112.302 246.185 111.491 245.184 111.009C244.184 110.527 243.048 110.404 241.967 110.66C240.887 110.916 239.927 111.536 239.25 112.415L241.407 115.663L238.459 113.939C238.23 114.673 238.182 115.451 238.316 116.207V116.207Z" stroke="#3F3D56" stroke-miterlimit="10"/>
<path d="M2.09602 109.422C2.55914 109.591 3.05503 109.649 3.54462 109.593C4.03421 109.537 4.5041 109.368 4.91726 109.1C5.33042 108.831 5.67556 108.47 5.92546 108.045C6.17537 107.621 6.32322 107.144 6.35736 106.652C6.39149 106.161 6.31098 105.668 6.12217 105.213C5.93336 104.758 5.64141 104.352 5.26933 104.029C4.89725 103.706 4.45521 103.474 3.97806 103.351C3.50091 103.228 3.00169 103.217 2.51974 103.32L2.59939 104.958L1.82456 103.554C1.06411 103.911 0.476634 104.556 0.191227 105.346C0.0898668 105.623 0.0282474 105.913 0.00820693 106.207C-0.0407005 106.897 0.136658 107.584 0.513404 108.164C0.890151 108.745 1.44575 109.186 2.09602 109.422Z" fill="#57B894"/>
<path d="M5.92974 128.417C5.65622 127.024 6.84141 125.789 8.01211 124.987C9.18281 124.184 10.5507 123.396 10.9501 122.034C11.5242 120.076 9.81423 118.283 8.48331 116.737C7.49588 115.59 6.64792 114.33 5.95716 112.983C5.65685 112.454 5.4523 111.876 5.35294 111.276C5.248 110.408 5.52676 109.545 5.8076 108.717C6.74315 105.96 7.74342 103.226 8.80841 100.515" stroke="#3F3D56" stroke-miterlimit="10"/>
<path d="M2.22688 109C2.69 109.169 3.1859 109.227 3.67548 109.171C4.16506 109.115 4.63496 108.946 5.04812 108.678C5.46128 108.409 5.80641 108.048 6.05632 107.624C6.30623 107.199 6.45407 106.722 6.48821 106.23C6.52234 105.739 6.44183 105.246 6.25302 104.791C6.06421 104.336 5.77226 103.931 5.40018 103.607C5.02811 103.284 4.58607 103.052 4.10892 102.929C3.63177 102.806 3.13255 102.795 2.65061 102.898L2.73025 104.536L1.95542 103.132C1.19497 103.49 0.607493 104.134 0.322086 104.924C0.220727 105.201 0.159109 105.491 0.139067 105.785C0.0901566 106.475 0.267514 107.162 0.644261 107.743C1.02101 108.323 1.57661 108.764 2.22688 109V109Z" stroke="#3F3D56" stroke-miterlimit="10"/>
<path d="M5.54089 99.9494C5.72264 99.448 6.02768 99.0003 6.4279 98.6477C6.82813 98.2951 7.31067 98.0489 7.83105 97.9318L8.09302 99.4887L8.57873 97.8535C9.25311 97.8635 9.90686 98.0876 10.4456 98.4933C10.9843 98.8991 11.3802 99.4656 11.576 100.111C11.7718 100.756 11.7574 101.447 11.5349 102.084C11.3125 102.721 10.8934 103.27 10.3383 103.653C9.78314 104.036 9.12063 104.233 8.44642 104.215C7.77221 104.197 7.12118 103.965 6.58732 103.553C6.05346 103.141 5.66441 102.57 5.47632 101.922C5.28823 101.274 5.31084 100.583 5.54089 99.9494Z" fill="#57B894"/>
<path d="M5.71545 99.3869C5.8972 98.8855 6.20224 98.4378 6.60247 98.0852C7.00269 97.7326 7.48523 97.4864 8.00561 97.3693L8.26758 98.9262L8.75329 97.291C9.42767 97.301 10.0814 97.5251 10.6202 97.9308C11.1589 98.3366 11.5547 98.9031 11.7505 99.5485C11.9464 100.194 11.932 100.885 11.7095 101.522C11.487 102.158 11.068 102.708 10.5128 103.091C9.95769 103.474 9.29519 103.67 8.62098 103.652C7.94677 103.634 7.29574 103.403 6.76188 102.99C6.22802 102.578 5.83897 102.007 5.65088 101.359C5.46279 100.712 5.4854 100.021 5.71545 99.3869V99.3869Z" stroke="#3F3D56" stroke-miterlimit="10"/>
<path d="M7.9249 116.769C8.65936 117.035 9.46618 117.022 10.1916 116.732C10.917 116.441 11.5102 115.894 11.8582 115.195C12.2062 114.495 12.2847 113.692 12.0786 112.939C11.8725 112.185 11.3963 111.534 10.7408 111.109L10.3676 112.365L10.103 110.79C10.1003 110.789 10.0976 110.788 10.0949 110.787C9.70201 110.644 9.28485 110.58 8.86723 110.598C8.44961 110.617 8.03972 110.717 7.66098 110.894C7.28224 111.071 6.94208 111.321 6.65993 111.629C6.37779 111.938 6.15919 112.299 6.01664 112.692C5.87409 113.085 5.81037 113.502 5.82913 113.92C5.8479 114.337 5.94877 114.747 6.12598 115.126C6.3032 115.504 6.55329 115.844 6.86196 116.126C7.17062 116.408 7.53182 116.626 7.9249 116.769Z" fill="#57B894"/>
<path d="M8.07614 116.199C8.81061 116.466 9.61742 116.453 10.3428 116.162C11.0682 115.872 11.6614 115.325 12.0094 114.626C12.3575 113.926 12.4359 113.123 12.2298 112.37C12.0238 111.616 11.5476 110.964 10.8921 110.539L10.5189 111.796L10.2542 110.221C10.2516 110.219 10.2489 110.218 10.2461 110.218C9.85334 110.075 9.43635 110.011 9.01895 110.03C8.60155 110.049 8.19191 110.149 7.81343 110.326C7.04905 110.684 6.45796 111.33 6.17021 112.124C5.88245 112.917 5.92159 113.792 6.27903 114.556C6.63646 115.321 7.2829 115.912 8.07614 116.199V116.199Z" stroke="#3F3D56" stroke-miterlimit="10"/>
<path d="M4.61236 122.053C4.73864 122.771 5.10816 123.425 5.65895 123.903C6.20973 124.382 6.90829 124.656 7.63746 124.681C8.36663 124.705 9.08207 124.478 9.66379 124.038C10.2455 123.598 10.6582 122.971 10.8325 122.262C11.0068 121.554 10.9323 120.807 10.6213 120.147C10.3104 119.487 9.78194 118.954 9.12464 118.637C8.46735 118.321 7.72117 118.24 7.01124 118.408C6.30132 118.576 5.67082 118.983 5.22549 119.561L6.64311 121.695L4.70611 120.562C4.55593 121.045 4.52377 121.556 4.61236 122.053Z" fill="#57B894"/>
<path d="M4.74346 121.631C4.86974 122.35 5.23926 123.003 5.79005 123.481C6.34084 123.96 7.03939 124.234 7.76856 124.259C8.49773 124.283 9.21317 124.057 9.7949 123.616C10.3766 123.176 10.7893 122.549 10.9636 121.84C11.1379 121.132 11.0634 120.385 10.7524 119.725C10.4415 119.065 9.91304 118.532 9.25574 118.215C8.59845 117.899 7.85227 117.818 7.14235 117.986C6.43242 118.154 5.80192 118.562 5.3566 119.139L6.77422 121.273L4.83721 120.141C4.68703 120.623 4.65488 121.134 4.74346 121.631V121.631Z" stroke="#3F3D56" stroke-miterlimit="10"/>
<path d="M111.911 79.3741C114.096 79.3741 115.867 77.0822 115.867 74.2549C115.867 71.4277 114.096 69.1357 111.911 69.1357C109.727 69.1357 107.956 71.4277 107.956 74.2549C107.956 77.0822 109.727 79.3741 111.911 79.3741Z" fill="#2F2E41"/>
<path d="M133.435 79.4903C135.62 79.4903 137.391 77.1984 137.391 74.3711C137.391 71.5439 135.62 69.252 133.435 69.252C131.25 69.252 129.479 71.5439 129.479 74.3711C129.479 77.1984 131.25 79.4903 133.435 79.4903Z" fill="#2F2E41"/>
<path d="M130.41 89.4961C130.41 91.809 127.18 93.6845 123.197 93.6845C119.213 93.6845 115.983 91.809 115.983 89.4961C115.983 87.4926 118.405 85.8173 121.642 85.4077C122.157 85.3398 122.677 85.3063 123.197 85.3077C124.067 85.3049 124.936 85.3985 125.786 85.5869C128.49 86.1896 130.41 87.7137 130.41 89.4961Z" fill="#2F2E41"/>
<path d="M112.842 78.2105C115.027 78.2105 116.798 75.9186 116.798 73.0913C116.798 70.2641 115.027 67.9722 112.842 67.9722C110.657 67.9722 108.886 70.2641 108.886 73.0913C108.886 75.9186 110.657 78.2105 112.842 78.2105Z" stroke="#3F3D56" stroke-miterlimit="10"/>
<path d="M134.366 78.3272C136.55 78.3272 138.321 76.0353 138.321 73.208C138.321 70.3808 136.55 68.0889 134.366 68.0889C132.181 68.0889 130.41 70.3808 130.41 73.208C130.41 76.0353 132.181 78.3272 134.366 78.3272Z" stroke="#3F3D56" stroke-miterlimit="10"/>
<path d="M124.127 92.5209C128.111 92.5209 131.341 90.6457 131.341 88.3325C131.341 86.0193 128.111 84.144 124.127 84.144C120.144 84.144 116.914 86.0193 116.914 88.3325C116.914 90.6457 120.144 92.5209 124.127 92.5209Z" stroke="#3F3D56" stroke-miterlimit="10"/>
<path d="M125.872 85.9361C125.874 86.2287 125.765 86.511 125.565 86.7253C125.471 86.828 125.357 86.9101 125.23 86.9665C125.102 87.0229 124.965 87.0523 124.825 87.0529H122.499C122.212 87.043 121.941 86.9199 121.744 86.7106C121.548 86.5013 121.443 86.2228 121.451 85.9361C121.45 85.7092 121.517 85.4871 121.642 85.2982C122.157 85.2257 122.677 85.1901 123.197 85.1915C124.069 85.1886 124.938 85.2886 125.786 85.4893C125.844 85.6312 125.873 85.783 125.872 85.9361Z" fill="white"/>
<path d="M112.842 72.8586C113.484 72.8586 114.005 72.3377 114.005 71.6952C114.005 71.0526 113.484 70.5317 112.842 70.5317C112.199 70.5317 111.678 71.0526 111.678 71.6952C111.678 72.3377 112.199 72.8586 112.842 72.8586Z" fill="white"/>
<path d="M134.482 72.8586C135.125 72.8586 135.645 72.3377 135.645 71.6952C135.645 71.0526 135.125 70.5317 134.482 70.5317C133.839 70.5317 133.319 71.0526 133.319 71.6952C133.319 72.3377 133.839 72.8586 134.482 72.8586Z" fill="white"/>
<path opacity="0.3" d="M135.645 83.7951C136.288 83.7951 136.809 83.2742 136.809 82.6317C136.809 81.9891 136.288 81.4683 135.645 81.4683C135.003 81.4683 134.482 81.9891 134.482 82.6317C134.482 83.2742 135.003 83.7951 135.645 83.7951Z" fill="#6C63FF"/>
<path opacity="0.3" d="M107.257 83.7951C107.9 83.7951 108.421 83.2742 108.421 82.6317C108.421 81.9891 107.9 81.4683 107.257 81.4683C106.615 81.4683 106.094 81.9891 106.094 82.6317C106.094 83.2742 106.615 83.7951 107.257 83.7951Z" fill="#6C63FF"/>
</g>
<defs>
<clipPath id="clip0">
<rect width="250" height="135.945" fill="white"/>
</clipPath>
</defs>
</svg>
