<svg width="250" height="203" viewBox="0 0 250 203" fill="none" xmlns="http://www.w3.org/2000/svg">
<g clip-path="url(#clip0)">
<path d="M97.4462 200.684L250 123.75L187.592 0L29.5096 72.334L97.4462 200.684Z" fill="#F2F2F2"/>
<path opacity="0.4" d="M204.461 157.249C209.615 157.249 213.794 153.07 213.794 147.915C213.794 142.76 209.615 138.581 204.461 138.581C199.306 138.581 195.127 142.76 195.127 147.915C195.127 153.07 199.306 157.249 204.461 157.249Z" fill="#B3A3D4"/>
<path opacity="0.4" d="M187.186 158.92C190.802 158.92 193.733 155.989 193.733 152.373C193.733 148.757 190.802 145.825 187.186 145.825C183.57 145.825 180.638 148.757 180.638 152.373C180.638 155.989 183.57 158.92 187.186 158.92Z" fill="#B3A3D4"/>
<path d="M51.9543 149.967L26.6036 135.331L11.9674 160.681L37.3181 175.318L51.9543 149.967Z" fill="#F2F2F2"/>
<path d="M176.531 94.987C175.231 94.987 173.961 94.6016 172.88 93.8795C171.799 93.1574 170.957 92.1311 170.46 90.9304C169.962 89.7296 169.832 88.4083 170.086 87.1336C170.339 85.8589 170.965 84.688 171.884 83.769C172.803 82.8499 173.974 82.2241 175.249 81.9705C176.523 81.717 177.845 81.8471 179.045 82.3445C180.246 82.8418 181.273 83.6841 181.995 84.7648C182.717 85.8454 183.102 87.1159 183.102 88.4156C183.1 90.1578 182.407 91.8281 181.175 93.0601C179.943 94.292 178.273 94.985 176.531 94.987ZM176.531 82.4416C175.349 82.4416 174.194 82.792 173.212 83.4484C172.229 84.1049 171.464 85.0379 171.011 86.1295C170.559 87.2211 170.441 88.4222 170.672 89.5811C170.902 90.7399 171.471 91.8044 172.306 92.6398C173.142 93.4753 174.206 94.0443 175.365 94.2748C176.524 94.5053 177.725 94.387 178.817 93.9348C179.908 93.4827 180.841 92.717 181.498 91.7346C182.154 90.7522 182.505 89.5971 182.505 88.4156C182.503 86.8318 181.873 85.3133 180.753 84.1933C179.633 83.0734 178.115 82.4434 176.531 82.4416Z" fill="#3F3D56"/>
<path d="M63.9215 76.1691C62.6218 76.1691 61.3513 75.7837 60.2706 75.0616C59.1899 74.3395 58.3477 73.3132 57.8503 72.1125C57.3529 70.9117 57.2228 69.5904 57.4764 68.3157C57.7299 67.041 58.3558 65.8701 59.2748 64.9511C60.1938 64.0321 61.3647 63.4062 62.6394 63.1526C63.9142 62.8991 65.2354 63.0292 66.4362 63.5266C67.637 64.024 68.6633 64.8662 69.3853 65.9469C70.1074 67.0275 70.4928 68.298 70.4928 69.5977C70.4908 71.3399 69.7979 73.0103 68.5659 74.2422C67.334 75.4741 65.6637 76.1671 63.9215 76.1691ZM63.9215 63.6238C62.7399 63.6238 61.5849 63.9741 60.6025 64.6306C59.6201 65.287 58.8544 66.22 58.4022 67.3116C57.9501 68.4032 57.8318 69.6044 58.0623 70.7632C58.2928 71.922 58.8618 72.9865 59.6972 73.822C60.5327 74.6574 61.5972 75.2264 62.756 75.4569C63.9148 75.6874 65.116 75.5691 66.2076 75.1169C67.2992 74.6648 68.2322 73.8991 68.8886 72.9167C69.5451 71.9343 69.8954 70.7793 69.8954 69.5977C69.8937 68.0139 69.2637 66.4954 68.1437 65.3754C67.0238 64.2555 65.5053 63.6255 63.9215 63.6238Z" fill="#3F3D56"/>
<path d="M37.9346 180.415C36.635 180.415 35.3644 180.029 34.2838 179.307C33.2031 178.585 32.3609 177.559 31.8635 176.358C31.3661 175.157 31.236 173.836 31.4896 172.561C31.7431 171.287 32.369 170.116 33.288 169.197C34.207 168.278 35.3779 167.652 36.6526 167.398C37.9274 167.145 39.2486 167.275 40.4494 167.772C41.6502 168.27 42.6765 169.112 43.3985 170.192C44.1206 171.273 44.506 172.544 44.506 173.843C44.504 175.586 43.8111 177.256 42.5791 178.488C41.3472 179.72 39.6769 180.413 37.9346 180.415ZM37.9346 167.869C36.7531 167.869 35.5981 168.22 34.6157 168.876C33.6333 169.533 32.8676 170.466 32.4154 171.557C31.9633 172.649 31.845 173.85 32.0755 175.009C32.306 176.168 32.8749 177.232 33.7104 178.068C34.5459 178.903 35.6103 179.472 36.7692 179.703C37.928 179.933 39.1292 179.815 40.2208 179.363C41.3124 178.91 42.2454 178.145 42.9018 177.162C43.5582 176.18 43.9086 175.025 43.9086 173.843C43.9068 172.26 43.2769 170.741 42.1569 169.621C41.037 168.501 39.5185 167.871 37.9346 167.869Z" fill="#3F3D56"/>
<path d="M98.3642 73.5277C102.095 69.3391 103.071 64.1203 100.546 61.8712C98.0203 59.622 92.949 61.1942 89.2187 65.3828C85.4884 69.5713 84.5116 74.7901 87.0371 77.0393C89.5625 79.2884 94.6339 77.7162 98.3642 73.5277Z" fill="#2F2E41"/>
<path d="M113.057 114.857C127.739 114.857 139.641 102.955 139.641 88.2731C139.641 73.5911 127.739 61.689 113.057 61.689C98.3753 61.689 86.4731 73.5911 86.4731 88.2731C86.4731 102.955 98.3753 114.857 113.057 114.857Z" fill="#2F2E41"/>
<path d="M35.37 76.5571L10.6603 78.5788C9.6879 78.6583 8.77597 79.083 8.08927 79.7761C7.40257 80.4693 6.98638 81.3851 6.91586 82.3583L5.99324 95.0905C5.95263 95.6508 6.02794 96.2136 6.21448 96.7435C6.40101 97.2735 6.69476 97.7593 7.0774 98.1706C7.46004 98.582 7.92336 98.9101 8.43844 99.1345C8.95352 99.3588 9.50931 99.4746 10.0711 99.4746H21.2078V100.072H25.6883V99.4746H28.0779V100.072H32.5584V99.4746H34.9467C35.9949 99.4746 37.0029 99.0721 37.7628 98.3502C38.5227 97.6283 38.9763 96.6421 39.03 95.5954L39.7866 80.8414C39.8164 80.2595 39.7215 79.678 39.5083 79.1357C39.2951 78.5935 38.9684 78.1031 38.5502 77.6974C38.1319 77.2917 37.6318 76.98 37.0833 76.7834C36.5349 76.5867 35.9507 76.5096 35.37 76.5571Z" fill="#2F2E41"/>
<path d="M51.0774 116.799L16.1297 100.371L9.85706 110.228C9.85706 110.228 28.0292 121.828 28.9737 122.773C30.3179 124.117 44.8048 133.526 50.48 132.033C56.1553 130.539 53.467 118.293 51.0774 116.799Z" fill="#9F616A"/>
<path d="M74.9733 192.071L70.4928 202.227H116.875L113.505 191.474L74.9733 192.071Z" fill="#2F2E41"/>
<path d="M103.35 109.63C103.35 109.63 105.142 119.487 103.35 120.682C101.558 121.877 115.298 136.513 115.298 136.513L120.973 131.435L122.765 119.786C122.765 119.786 117.389 112.318 119.778 105.747C122.168 99.1755 103.35 109.63 103.35 109.63Z" fill="#9F616A"/>
<path d="M108.726 112.617C119.284 112.617 127.843 104.058 127.843 93.5005C127.843 82.9426 119.284 74.3838 108.726 74.3838C98.1683 74.3838 89.6095 82.9426 89.6095 93.5005C89.6095 104.058 98.1683 112.617 108.726 112.617Z" fill="#9F616A"/>
<path d="M113.804 129.643C113.804 129.643 106.337 118.292 102.155 117.396C97.9732 116.5 94.0901 117.098 91.7005 117.396C89.3109 117.695 81.2461 114.708 76.4669 116.799C71.6877 118.89 76.4669 143.383 76.4669 143.383C76.4669 143.383 71.0903 174.746 73.4799 182.811C75.8695 190.876 74.0773 192.37 72.8825 193.266C71.6877 194.162 100.064 202.227 100.064 202.227H126.947C126.947 202.227 126.947 193.564 129.635 191.474C132.323 189.383 132.025 145.175 132.025 145.175L140.986 127.851C140.986 127.851 139.492 121.279 133.22 120.981C126.947 120.682 121.348 117.389 121.348 117.389L117.09 129.643H113.804Z" fill="#B3A3D4"/>
<path d="M79.1551 118.293L76.4668 116.799C76.4668 116.799 71.3889 117.098 70.4928 116.799C69.5967 116.5 58.2462 112.916 53.7657 115.007C49.2852 117.098 46.2983 114.41 46.2983 114.41C46.2983 114.41 60.9345 126.955 43.0126 130.838C43.0126 130.838 43.3113 132.331 47.7917 133.228C52.2722 134.124 53.1683 135.02 54.9605 136.513C56.7527 138.007 60.3371 139.5 62.7267 140.098C65.1162 140.695 72.8824 145.773 74.0772 144.578C75.272 143.383 77.3629 139.202 77.3629 139.202L79.1551 118.293Z" fill="#B3A3D4"/>
<path d="M135.31 124.565L140.985 127.851C140.985 127.851 148.453 149.955 147.258 155.331C146.063 160.708 144.868 159.812 146.661 163.396C148.453 166.98 150.245 167.279 149.05 170.565C147.855 173.85 148.453 181.915 146.661 185.201C144.868 188.487 136.206 198.941 128.739 181.318C121.271 163.695 135.31 124.565 135.31 124.565Z" fill="#B3A3D4"/>
<path d="M146.064 170.266C146.064 170.266 141.882 161.903 140.986 161.305C140.09 160.708 135.908 140.098 135.908 140.098C135.908 140.098 142.479 129.345 136.505 124.565C136.505 124.565 147.557 109.033 143.973 109.332C140.389 109.63 133.22 120.981 133.22 120.981C133.22 120.981 131.577 120.533 132.174 118.143C132.772 115.754 135.012 107.241 133.22 106.942C131.428 106.643 127.843 119.487 127.843 119.487C127.843 119.487 120.525 132.78 122.765 137.409C124.069 140.008 125.566 142.504 127.246 144.877L132.324 181.915C132.324 181.915 142.181 193.863 146.064 170.266Z" fill="#9F616A"/>
<path d="M33.4543 82.1501C35.2689 82.1501 36.7399 81.4814 36.7399 80.6566C36.7399 79.8317 35.2689 79.1631 33.4543 79.1631C31.6396 79.1631 30.1686 79.8317 30.1686 80.6566C30.1686 81.4814 31.6396 82.1501 33.4543 82.1501Z" fill="#B3A3D4"/>
<path d="M13.4414 110.228H9.25964C9.25964 110.228 0 107.241 0 100.371C0 93.5007 2.68828 79.4619 11.0518 79.7606C19.4154 80.0592 11.6492 98.5786 11.6492 98.5786L16.7122 100.645L16.7271 106.942L13.4414 110.228Z" fill="#9F616A"/>
<path d="M105.59 89.468C114.993 89.468 122.616 85.5898 122.616 80.8058C122.616 76.0218 114.993 72.1436 105.59 72.1436C96.1868 72.1436 88.5641 76.0218 88.5641 80.8058C88.5641 85.5898 96.1868 89.468 105.59 89.468Z" fill="#2F2E41"/>
<path d="M128.59 94.8448C129.414 94.8448 130.083 93.3737 130.083 91.5591C130.083 89.7445 129.414 88.2734 128.59 88.2734C127.765 88.2734 127.096 89.7445 127.096 91.5591C127.096 93.3737 127.765 94.8448 128.59 94.8448Z" fill="#9F616A"/>
<path d="M141.838 83.3701C144.88 81.8928 145.36 76.6051 142.909 71.5597C140.459 66.5143 136.007 63.6218 132.965 65.0991C129.923 66.5763 129.443 71.864 131.893 76.9094C134.343 81.9548 138.795 84.8474 141.838 83.3701Z" fill="#2F2E41"/>
</g>
<defs>
<clipPath id="clip0">
<rect width="250" height="202.227" fill="white"/>
</clipPath>
</defs>
</svg>
