<svg width="250" height="229" viewBox="0 0 250 229" fill="none" xmlns="http://www.w3.org/2000/svg">
<g clip-path="url(#clip0)">
<path d="M60.8553 102.632C70.3022 102.632 77.9605 93.2798 77.9605 81.7436C77.9605 70.2074 70.3022 60.8555 60.8553 60.8555C51.4083 60.8555 43.75 70.2074 43.75 81.7436C43.75 93.2798 51.4083 102.632 60.8553 102.632Z" fill="#2F2E41"/>
<path d="M46.5461 214.967L36.6777 215.954C36.6777 215.954 33.3882 221.875 27.4672 221.875C21.5461 221.875 23.5198 228.454 32.0724 227.796C40.6251 227.138 49.8356 224.836 50.1645 224.178C50.4935 223.52 49.1777 214.638 46.5461 214.967Z" fill="#3F3D56"/>
<path opacity="0.1" d="M46.5461 214.967L36.6777 215.954C36.6777 215.954 33.3882 221.875 27.4672 221.875C21.5461 221.875 23.5198 228.454 32.0724 227.796C40.6251 227.138 49.8356 224.836 50.1645 224.178C50.4935 223.52 49.1777 214.638 46.5461 214.967Z" fill="black"/>
<path d="M32.7303 157.401C32.7303 157.401 43.9145 159.046 48.1908 164.309C52.4671 169.572 49.5066 144.243 49.5066 144.243L48.1908 132.73L39.3092 133.388L32.0724 148.191L32.7303 157.401Z" fill="#3F3D56"/>
<path opacity="0.1" d="M32.7303 157.401C32.7303 157.401 43.9145 159.046 48.1908 164.309C52.4671 169.572 49.5066 144.243 49.5066 144.243L48.1908 132.73L39.3092 133.388L32.0724 148.191L32.7303 157.401Z" fill="black"/>
<path d="M69.5725 91.6119C69.5725 91.6119 74.8357 77.1382 69.5725 76.8092C64.3093 76.4803 64.9672 90.954 64.9672 90.954L69.5725 91.6119Z" fill="#A0616A"/>
<path d="M1.64478 43.0923H12.333C12.5518 43.0923 12.7616 43.1792 12.9163 43.3339C13.071 43.4886 13.1579 43.6985 13.1579 43.9172V48.5173C13.1579 48.6257 13.1366 48.7329 13.0951 48.833C13.0537 48.9331 12.9929 49.0241 12.9163 49.1007C12.8397 49.1773 12.7488 49.238 12.6487 49.2795C12.5486 49.3209 12.4413 49.3423 12.333 49.3423H1.64478V43.0923Z" fill="#6C63FF"/>
<path d="M0.870286 43.0923H11.675C11.8938 43.0923 12.1037 43.1792 12.2584 43.3339C12.4131 43.4886 12.5 43.6985 12.5 43.9172V48.5173C12.5 48.6257 12.4787 48.7329 12.4372 48.833C12.3957 48.9331 12.335 49.0241 12.2584 49.1007C12.1818 49.1773 12.0908 49.238 11.9907 49.2795C11.8907 49.3209 11.7834 49.3423 11.675 49.3423H0.870286C0.639472 49.3423 0.418111 49.2506 0.254901 49.0874C0.0916906 48.9242 0 48.7028 0 48.472L0 43.9626C0 43.7318 0.0916906 43.5104 0.254901 43.3472C0.418111 43.184 0.639472 43.0923 0.870286 43.0923Z" fill="#2F2E41"/>
<path d="M9.86847 46.7103C10.2318 46.7103 10.5264 46.4158 10.5264 46.0524C10.5264 45.6891 10.2318 45.3945 9.86847 45.3945C9.50512 45.3945 9.21057 45.6891 9.21057 46.0524C9.21057 46.4158 9.50512 46.7103 9.86847 46.7103Z" fill="#6C63FF"/>
<path d="M9.0461 50.4936C9.0461 50.4936 0.822413 34.7041 0.164519 42.2699C-0.493376 49.8357 4.44083 56.0857 4.44083 56.0857L9.0461 50.4936Z" fill="#A0616A"/>
<path d="M56.9115 88.3521C56.9115 88.3521 64.1447 88.816 64.8026 92.7634C65.4605 96.7108 59.5394 108.882 59.5394 108.882L51.6447 108.224L50.6578 100.329L56.9115 88.3521Z" fill="#3F3D56"/>
<path d="M47.8617 76.8094C47.8617 76.8094 50.4932 90.2962 41.9406 84.7041C33.388 79.112 45.2301 94.5725 45.2301 94.5725C45.2301 94.5725 54.4406 96.8752 57.4011 93.9146C60.3617 90.9541 52.9603 90.4607 57.0722 78.7831C61.4925 66.2294 47.8617 76.8094 47.8617 76.8094Z" fill="#A0616A"/>
<path opacity="0.1" d="M47.8617 76.8094C47.8617 76.8094 50.4932 90.2962 41.9406 84.7041C33.388 79.112 45.2301 94.5725 45.2301 94.5725C45.2301 94.5725 54.4406 96.8752 57.4011 93.9146C60.3617 90.9541 52.9603 90.4607 57.0722 78.7831C61.4925 66.2294 47.8617 76.8094 47.8617 76.8094Z" fill="black"/>
<path d="M18.75 123.026C18.75 123.026 26.1513 176.809 28.4539 180.099C30.7566 183.388 38.6513 212.993 38.6513 212.993L47.2039 210.033C46.5937 206.447 46.483 202.794 46.875 199.178C47.5329 193.257 41.9408 177.467 41.9408 177.467L33.7171 128.783L18.75 123.026Z" fill="#2F2E41"/>
<path opacity="0.1" d="M18.75 123.026C18.75 123.026 26.1513 176.809 28.4539 180.099C30.7566 183.388 38.6513 212.993 38.6513 212.993L47.2039 210.033C46.5937 206.447 46.483 202.794 46.875 199.178C47.5329 193.257 41.9408 177.467 41.9408 177.467L33.7171 128.783L18.75 123.026Z" fill="black"/>
<path d="M16.9407 120.559L24.1776 141.283C24.1776 141.283 9.04599 168.586 21.546 177.467C21.546 177.467 36.0197 193.257 37.3355 207.072C37.3355 207.072 44.9013 206.415 45.8881 200.494C45.8881 200.494 38.9802 185.362 38.6513 180.099C38.3223 174.836 30.7565 168.586 30.7565 168.586C30.7565 168.586 45.2302 145.23 48.5197 141.283C51.8092 137.336 52.1381 122.204 43.9144 122.204C35.6907 122.204 16.9407 120.559 16.9407 120.559Z" fill="#2F2E41"/>
<path d="M45.2305 200.493C45.2305 200.493 39.6384 207.401 37.9937 206.415C37.9937 206.415 36.6779 220.559 33.7174 224.507C30.7568 228.454 39.9674 228.125 43.2568 224.507C46.5463 220.888 52.7963 207.072 52.7963 205.428C52.7963 203.783 47.2042 199.507 45.2305 200.493Z" fill="#3F3D56"/>
<path d="M53.454 82.4013C58.3591 82.4013 62.3355 78.4249 62.3355 73.5198C62.3355 68.6146 58.3591 64.6382 53.454 64.6382C48.5488 64.6382 44.5724 68.6146 44.5724 73.5198C44.5724 78.4249 48.5488 82.4013 53.454 82.4013Z" fill="#A0616A"/>
<path d="M43.9148 84.0461C43.9148 84.0461 44.2438 89.6382 49.178 90.954C54.1122 92.2698 58.0596 88.9803 58.0596 88.9803L59.3754 91.6119L55.099 102.138L47.2043 127.796C47.2043 127.796 23.849 131.086 21.8753 125.493C19.9017 119.901 25.1648 104.112 25.1648 104.112L32.7306 93.2566L35.6911 86.0198L38.9806 82.4014L43.9148 84.0461Z" fill="#F0C864"/>
<path d="M45.8885 85.3618C45.8885 85.3618 40.7899 80.2632 37.5004 80.2632C34.2109 80.2632 31.4149 78.125 31.4149 78.125C31.4149 78.125 20.5596 93.9145 13.9806 112.993C7.40169 132.072 -1.80883 137.993 2.79643 142.599C7.4017 147.204 14.6385 146.217 17.5991 151.151C20.5596 156.086 20.5596 155.428 22.5333 147.862C24.507 140.296 22.2043 119.572 31.7438 110.691C41.2833 101.809 45.8885 85.3618 45.8885 85.3618Z" fill="#3F3D56"/>
<path d="M32.4015 79.1119C32.4015 79.1119 19.2436 67.2698 17.5989 62.3356C15.9541 57.4014 9.70414 48.1908 8.38835 49.5066C7.07256 50.8224 -0.164286 53.7829 1.48045 56.0856C3.12519 58.3882 7.07256 61.3487 9.37519 69.5724C11.6778 77.7961 27.7962 88.3224 27.7962 88.3224L32.4015 79.1119Z" fill="#3F3D56"/>
<path d="M56.4144 88.3223C56.4144 88.3223 50.8223 88.6512 47.5329 106.085C44.2434 123.52 44.5723 164.309 47.5329 167.599C47.5329 167.599 50.4934 171.217 50.8223 164.638C51.1513 158.059 56.0855 127.467 54.7697 119.572C53.4539 111.678 56.4144 94.5723 60.6908 91.6117C64.9671 88.6512 56.4144 88.3223 56.4144 88.3223Z" fill="#3F3D56"/>
<path d="M53.454 102.796C53.454 102.796 64.3093 107.73 63.9803 111.349C63.6514 114.967 63.3224 122.204 49.8356 110.362L53.454 102.796Z" fill="#3F3D56"/>
<path d="M57.4016 102.796C57.4016 102.796 52.7963 113.651 58.7174 115.625C64.6384 117.599 66.2832 106.415 66.2832 106.415C66.2832 106.415 70.8884 93.9146 70.5595 91.283C70.2306 88.6514 63.6516 88.3225 62.9937 89.9672C62.3358 91.612 57.4016 102.796 57.4016 102.796Z" fill="#3F3D56"/>
<path d="M60.8552 97.0396C63.0353 97.0396 64.8026 90.5596 64.8026 82.566C64.8026 74.5724 63.0353 68.0923 60.8552 68.0923C58.6751 68.0923 56.9078 74.5724 56.9078 82.566C56.9078 90.5596 58.6751 97.0396 60.8552 97.0396Z" fill="#2F2E41"/>
<path d="M57.8947 72.0395C64.4349 72.0395 69.7368 69.4622 69.7368 66.2829C69.7368 63.1037 64.4349 60.5264 57.8947 60.5264C51.3545 60.5264 46.0526 63.1037 46.0526 66.2829C46.0526 69.4622 51.3545 72.0395 57.8947 72.0395Z" fill="#2F2E41"/>
<path opacity="0.1" d="M58.8816 71.3815C52.3413 71.3815 47.0395 68.8042 47.0395 65.6249C47.0395 64.5039 47.7009 63.4585 48.8412 62.5737C47.1024 63.5756 46.0526 64.8694 46.0526 66.2828C46.0526 69.4621 51.3545 72.0394 57.8947 72.0394C62.1288 72.0394 62.5141 71.3815 58.8816 71.3815Z" fill="black"/>
<path d="M73.8855 186.6C74.8214 187.099 75.8602 187.373 76.9201 187.401C77.98 187.43 79.032 187.211 79.9932 186.764C80.9544 186.316 81.7985 185.652 82.4589 184.822C83.1194 183.993 83.5782 183.021 83.7992 181.984C84.0202 180.947 83.9973 179.873 83.7323 178.846C83.4673 177.82 82.9675 176.869 82.2723 176.068C81.577 175.268 80.7054 174.64 79.726 174.233C78.7466 173.827 77.6862 173.654 76.6285 173.728L76.3043 177.241L75.0769 174.017C73.349 174.549 71.9031 175.745 71.0567 177.342C70.7573 177.902 70.5386 178.5 70.4072 179.121C70.0949 180.576 70.2655 182.094 70.8932 183.443C71.5209 184.793 72.5714 185.901 73.8855 186.6Z" fill="#57B894"/>
<path d="M76.3254 228.223C76.1627 225.173 79.06 222.9 81.7962 221.543C84.5323 220.186 87.6842 218.919 88.946 216.138C90.7593 212.141 87.657 207.806 85.2878 204.111C83.5301 201.369 82.1037 198.428 81.0382 195.351C80.6112 194.117 80.2394 192.837 80.2658 191.532C80.3039 189.651 81.1582 187.896 82.0061 186.218C84.8307 180.626 87.7861 175.103 90.8726 169.649" stroke="#3F3D56" stroke-miterlimit="10"/>
<path d="M74.2924 185.742C75.2282 186.24 76.2671 186.514 77.3269 186.543C78.3868 186.571 79.4388 186.353 80.4 185.905C81.3612 185.458 82.2053 184.793 82.8658 183.964C83.5263 183.134 83.9851 182.163 84.2061 181.126C84.427 180.089 84.4041 179.014 84.1391 177.988C83.8742 176.961 83.3744 176.01 82.6791 175.21C81.9839 174.409 81.1122 173.781 80.1328 173.375C79.1534 172.969 78.0931 172.795 77.0354 172.869L76.7111 176.382L75.4837 173.158C73.7559 173.69 72.3099 174.886 71.4636 176.484C71.1642 177.043 70.9455 177.642 70.8141 178.262C70.5018 179.718 70.6724 181.235 71.3001 182.585C71.9277 183.934 72.9782 185.043 74.2924 185.742Z" stroke="#3F3D56" stroke-miterlimit="10"/>
<path d="M84.0815 167.458C84.6199 166.445 85.4048 165.583 86.3637 164.953C87.3227 164.322 88.425 163.943 89.5689 163.851L89.6575 167.246L91.1854 163.909C92.6191 164.134 93.9443 164.809 94.9696 165.835C95.995 166.862 96.6675 168.189 96.89 169.623C97.1125 171.057 96.8735 172.524 96.2076 173.814C95.5416 175.103 94.4831 176.147 93.1849 176.796C91.8867 177.444 90.416 177.664 88.9851 177.422C87.5542 177.18 86.2371 176.49 85.2241 175.451C84.2111 174.412 83.5544 173.078 83.3491 171.641C83.1437 170.204 83.4002 168.74 84.0815 167.458Z" fill="#57B894"/>
<path d="M84.6235 166.313C85.1619 165.3 85.9468 164.438 86.9057 163.808C87.8647 163.177 88.967 162.798 90.1109 162.706L90.1995 166.101L91.7274 162.764C93.1611 162.989 94.4863 163.663 95.5116 164.69C96.537 165.717 97.2095 167.044 97.432 168.478C97.6545 169.912 97.4155 171.379 96.7496 172.669C96.0836 173.958 95.0251 175.002 93.7269 175.651C92.4287 176.299 90.958 176.519 89.5271 176.277C88.0962 176.035 86.7791 175.345 85.7661 174.306C84.753 173.267 84.0964 171.933 83.8911 170.496C83.6857 169.059 83.9421 167.595 84.6235 166.313Z" stroke="#3F3D56" stroke-miterlimit="10"/>
<path d="M84.0881 204.01C85.5725 204.799 87.2953 205.014 88.9282 204.615C90.5611 204.215 91.9899 203.229 92.9422 201.843C93.8946 200.458 94.3039 198.771 94.0922 197.103C93.8804 195.435 93.0624 193.904 91.7941 192.801L90.6201 195.365L90.5313 191.929C90.5261 191.926 90.5206 191.923 90.515 191.92C89.7211 191.498 88.8518 191.236 87.9566 191.149C87.0614 191.062 86.1579 191.153 85.2978 191.416C84.4376 191.679 83.6377 192.108 82.9437 192.68C82.2497 193.252 81.6752 193.955 81.253 194.75C80.8308 195.544 80.5693 196.413 80.4833 197.308C80.3973 198.204 80.4885 199.107 80.7518 199.967C81.0151 200.827 81.4453 201.627 82.0177 202.32C82.5902 203.014 83.2937 203.588 84.0881 204.01V204.01Z" fill="#57B894"/>
<path d="M84.5824 202.842C86.0667 203.631 87.7896 203.847 89.4225 203.447C91.0554 203.047 92.4842 202.061 93.4365 200.676C94.3889 199.29 94.7982 197.603 94.5864 195.936C94.3747 194.268 93.5567 192.736 92.2884 191.633L91.1143 194.198L91.0256 190.762C91.0204 190.758 91.0149 190.755 91.0092 190.753C90.2154 190.33 89.3461 190.068 88.451 189.982C87.5559 189.895 86.6525 189.986 85.7925 190.249C84.9325 190.512 84.1327 190.941 83.4388 191.513C82.7449 192.085 82.1705 192.788 81.7483 193.583C81.3262 194.377 81.0647 195.246 80.9787 196.141C80.8926 197.036 80.9838 197.94 81.247 198.799C81.5102 199.659 81.9402 200.459 82.5125 201.153C83.0848 201.846 83.7881 202.42 84.5824 202.842V202.842Z" stroke="#3F3D56" stroke-miterlimit="10"/>
<path d="M75.438 214.268C75.4904 215.837 76.0806 217.34 77.1097 218.526C78.1388 219.711 79.5442 220.507 81.0902 220.779C82.6363 221.051 84.2289 220.783 85.601 220.021C86.9731 219.258 88.0412 218.047 88.6263 216.59C89.2114 215.133 89.2778 213.52 88.8144 212.02C88.3509 210.52 87.3859 209.225 86.0811 208.352C84.7763 207.48 83.211 207.082 81.6479 207.226C80.0847 207.371 78.6187 208.048 77.4957 209.145L79.8723 214.118L76.0873 211.121C75.6219 212.103 75.3992 213.182 75.438 214.268Z" fill="#57B894"/>
<path d="M75.8442 213.409C75.8965 214.978 76.4867 216.481 77.5158 217.667C78.5449 218.852 79.9503 219.648 81.4964 219.92C83.0424 220.192 84.635 219.924 86.0071 219.162C87.3792 218.399 88.4474 217.188 89.0324 215.731C89.6175 214.274 89.6839 212.661 89.2205 211.161C88.7571 209.661 87.792 208.366 86.4872 207.493C85.1824 206.621 83.6172 206.223 82.054 206.367C80.4908 206.512 79.0248 207.189 77.9018 208.286L80.2785 213.259L76.4934 210.262C76.028 211.244 75.8054 212.323 75.8442 213.409V213.409Z" stroke="#3F3D56" stroke-miterlimit="10"/>
<path d="M1.48022 227.467H135.362" stroke="#3F3D56" stroke-miterlimit="10"/>
<path d="M212.664 37.3354H114.638V101.809H212.664V37.3354Z" fill="#F2F2F2"/>
<path d="M249.836 0.164551H90.954V125.493H249.836V0.164551Z" stroke="#3F3D56" stroke-miterlimit="10"/>
<path d="M91.1184 7.40137H250" stroke="#3F3D56" stroke-miterlimit="10"/>
<path d="M94.2434 5.75676C95.1517 5.75676 95.8881 5.02039 95.8881 4.11202C95.8881 3.20366 95.1517 2.46729 94.2434 2.46729C93.335 2.46729 92.5986 3.20366 92.5986 4.11202C92.5986 5.02039 93.335 5.75676 94.2434 5.75676Z" fill="#F86B75"/>
<path d="M98.8487 5.75676C99.7571 5.75676 100.493 5.02039 100.493 4.11202C100.493 3.20366 99.7571 2.46729 98.8487 2.46729C97.9404 2.46729 97.204 3.20366 97.204 4.11202C97.204 5.02039 97.9404 5.75676 98.8487 5.75676Z" fill="#FAD375"/>
<path d="M103.454 5.75676C104.362 5.75676 105.099 5.02039 105.099 4.11202C105.099 3.20366 104.362 2.46729 103.454 2.46729C102.546 2.46729 101.809 3.20366 101.809 4.11202C101.809 5.02039 102.546 5.75676 103.454 5.75676Z" fill="#8BCC55"/>
<path d="M94.9013 4.76994C95.8097 4.76994 96.5461 4.03357 96.5461 3.12521C96.5461 2.21684 95.8097 1.48047 94.9013 1.48047C93.993 1.48047 93.2566 2.21684 93.2566 3.12521C93.2566 4.03357 93.993 4.76994 94.9013 4.76994Z" stroke="#3F3D56" stroke-miterlimit="10"/>
<path d="M99.5066 4.76994C100.415 4.76994 101.151 4.03357 101.151 3.12521C101.151 2.21684 100.415 1.48047 99.5066 1.48047C98.5982 1.48047 97.8618 2.21684 97.8618 3.12521C97.8618 4.03357 98.5982 4.76994 99.5066 4.76994Z" stroke="#3F3D56" stroke-miterlimit="10"/>
<path d="M104.112 4.76994C105.02 4.76994 105.757 4.03357 105.757 3.12521C105.757 2.21684 105.02 1.48047 104.112 1.48047C103.203 1.48047 102.467 2.21684 102.467 3.12521C102.467 4.03357 103.203 4.76994 104.112 4.76994Z" stroke="#3F3D56" stroke-miterlimit="10"/>
<path d="M220.395 30.2632H122.368V94.7369H220.395V30.2632Z" stroke="#3F3D56" stroke-miterlimit="10"/>
<path d="M218.75 108.881H200.658V113.816H218.75V108.881Z" fill="#856FB3"/>
<path d="M220.395 107.566H202.303V112.5H220.395V107.566Z" stroke="#3F3D56" stroke-miterlimit="10"/>
<path d="M172.497 67.9427L164.928 60.1422C164.763 59.9757 164.565 59.8448 164.348 59.7573C164.13 59.6699 163.897 59.6279 163.663 59.6339H163.64C163.406 59.6279 163.173 59.6699 162.955 59.7573C162.737 59.8448 162.54 59.9757 162.375 60.1422L154.806 67.9427C154.639 68.099 154.506 68.2879 154.414 68.4978C154.323 68.7076 154.276 68.934 154.276 69.1628C154.276 69.3916 154.323 69.6179 154.414 69.8278C154.506 70.0377 154.639 70.2266 154.806 70.3828C155.152 70.7068 155.608 70.887 156.082 70.887C156.557 70.887 157.013 70.7068 157.359 70.3828L161.844 65.6946V77.7823C161.865 78.2477 162.064 78.6871 162.401 79.0091C162.738 79.331 163.186 79.5107 163.651 79.5107C164.117 79.5107 164.565 79.331 164.902 79.0091C165.239 78.6871 165.438 78.2477 165.459 77.7823V65.6946L169.944 70.3828C170.29 70.7068 170.746 70.887 171.22 70.887C171.694 70.887 172.151 70.7068 172.497 70.3828C172.664 70.2266 172.797 70.0377 172.888 69.8278C172.979 69.6179 173.026 69.3916 173.026 69.1628C173.026 68.934 172.979 68.7076 172.888 68.4978C172.797 68.2879 172.664 68.099 172.497 67.9427Z" fill="#856FB3"/>
</g>
<defs>
<clipPath id="clip0">
<rect width="250" height="228.231" fill="white"/>
</clipPath>
</defs>
</svg>
