<svg width="231" height="186" viewBox="0 0 231 186" fill="none" xmlns="http://www.w3.org/2000/svg">
<g clip-path="url(#clip0)">
<path d="M151.84 103.98C146.988 106.89 138.343 110.536 129.509 106.789L123.799 104.367L135.242 91.5392C126.111 81.4709 121.059 68.361 121.073 54.7684C121.087 41.1759 126.165 28.0764 135.317 18.0267C144.47 7.97703 157.038 1.69855 170.57 0.416756C184.102 -0.86504 197.626 2.94185 208.502 11.0943C219.379 19.2468 226.827 31.1598 229.393 44.508C231.958 57.8561 229.458 71.6814 222.379 83.2853C215.301 94.8892 204.152 103.439 191.109 107.265C178.066 111.092 164.066 109.921 151.84 103.98V103.98ZM129.915 54.7378C129.889 61.0036 131.161 67.2069 133.65 72.9575C136.138 78.7081 139.79 83.8815 144.374 88.1524L147.531 91.1186L140.33 99.1904C144.081 98.4293 147.348 96.4003 149.004 95.2218L151.277 93.6045L153.722 94.9477C160.479 98.6474 168.059 100.586 175.762 100.585C201.043 100.585 221.61 80.0183 221.61 54.7378C221.61 29.4574 201.043 8.89021 175.762 8.89021C150.482 8.89021 129.915 29.4574 129.915 54.7378V54.7378Z" fill="#3F3D56"/>
<path d="M125.47 54.7377C125.47 26.9619 147.987 4.44507 175.762 4.44507C203.538 4.44507 226.055 26.9619 226.055 54.7377C226.055 82.5136 203.538 105.03 175.762 105.03C167.309 105.043 158.99 102.914 151.581 98.8437C148.105 101.317 139.624 106.251 131.245 102.697L141.331 91.3917C136.317 86.6943 132.322 81.017 129.594 74.7117C126.866 68.4065 125.462 61.6079 125.47 54.7377Z" fill="#B3A3D4"/>
<path opacity="0.1" d="M217.487 54.8466C217.487 28.569 197.333 7.00234 171.64 4.75171C173.105 4.62339 174.586 4.55396 176.085 4.55396C203.861 4.55396 226.377 27.0707 226.377 54.8466C226.377 82.6225 203.861 105.139 176.085 105.139C174.589 105.139 173.109 105.069 171.647 104.941C197.337 102.687 217.487 81.1218 217.487 54.8466Z" fill="black"/>
<path d="M59.8682 173.847C47.3017 173.853 35.1149 169.54 25.3503 161.629C15.5858 153.719 8.83672 142.693 6.23432 130.399C3.63192 118.105 5.3343 105.29 11.0561 94.1015C16.778 82.9131 26.1716 74.0315 37.6627 68.9449C49.1538 63.8583 62.0441 62.876 74.1733 66.1626C86.3024 69.4491 96.9334 76.8048 104.285 86.9969C111.636 97.189 115.26 109.598 114.551 122.145C113.842 134.691 108.841 146.613 100.388 155.911L111.831 168.739L106.121 171.161C97.2872 174.908 88.6427 171.262 83.7907 168.352C76.3339 171.967 68.1551 173.846 59.8682 173.847ZM59.8682 73.262C34.5878 73.262 14.0206 93.8292 14.0206 119.11C14.0206 144.39 34.5878 164.957 59.8682 164.957C67.5719 164.958 75.1517 163.019 81.9089 159.32L84.3534 157.976L86.6263 159.594C88.2828 160.772 91.5496 162.801 95.3003 163.562L88.0996 155.49L91.256 152.524C95.8409 148.253 99.4924 143.08 101.981 137.329C104.469 131.579 105.741 125.375 105.716 119.11C105.716 93.8292 85.1486 73.262 59.8682 73.262Z" fill="#3F3D56"/>
<path d="M110.161 119.11C110.161 91.3337 87.6442 68.8169 59.8683 68.8169C32.0925 68.8169 9.57568 91.3337 9.57568 119.11C9.57568 146.885 32.0925 169.402 59.8683 169.402C68.3218 169.415 76.6407 167.286 84.0495 163.216C87.526 165.689 96.007 170.623 104.385 167.069L94.3001 155.764C99.3135 151.066 103.308 145.389 106.037 139.084C108.765 132.778 110.169 125.98 110.161 119.11Z" fill="#B3A3D4"/>
<path opacity="0.1" d="M18.4658 118.856C18.4658 92.578 38.6201 71.0114 64.3134 68.7607C62.8484 68.6324 61.3666 68.563 59.8683 68.563C32.0925 68.563 9.57568 91.0798 9.57568 118.856C9.57568 146.632 32.0925 169.148 59.8683 169.148C61.3643 169.148 62.8436 169.078 64.3064 168.95C38.6164 166.696 18.4658 145.131 18.4658 118.856Z" fill="black"/>
<path d="M187.569 38.7598C184.279 33.1998 177.768 32.9407 177.768 32.9407C177.768 32.9407 171.425 32.1294 167.355 40.5974C163.562 48.4903 158.327 56.111 166.512 57.9587L167.991 53.357L168.907 58.3013C170.072 58.3851 171.241 58.4051 172.409 58.3612C181.174 58.0781 189.522 58.4439 189.254 55.2984C188.896 51.1169 190.735 44.1097 187.569 38.7598Z" fill="#2F2E41"/>
<path d="M166.045 87.4518C165.948 88.0633 165.808 88.6672 165.625 89.2587C165.419 89.8377 165.101 90.3732 164.913 90.9582C164.313 92.8229 165.145 94.9019 166.474 96.3412C167.626 97.5844 169.113 98.4676 170.756 98.8843C171.966 99.1431 173.2 99.2728 174.437 99.2711C177.858 99.3871 181.366 99.4908 184.608 98.3915C185.632 98.0356 186.621 97.5863 187.563 97.0491C187.86 96.9075 188.122 96.7012 188.329 96.4454C188.546 96.0707 188.643 95.6383 188.606 95.2069C188.599 93.7567 188.305 92.314 188.374 90.8655C188.413 90.0632 188.563 89.2616 188.489 88.4617C188.387 87.5533 188.007 86.6988 187.4 86.015C186.793 85.3312 185.99 84.8516 185.1 84.6418C184.181 84.4443 183.227 84.5519 182.291 84.6419C179.861 84.8754 177.421 84.9846 174.98 84.9689C172.485 84.9529 170.007 84.5722 167.525 84.5324C166.791 84.5207 166.806 84.747 166.572 85.4573C166.357 86.111 166.181 86.777 166.045 87.4518Z" fill="#2F2E41"/>
<path d="M173.123 51.6445C173.004 52.2721 172.874 52.9226 172.497 53.4384C172.063 54.0318 171.355 54.3708 170.889 54.9387C170.186 55.7935 170.146 56.9963 170.143 58.1028C170.14 59.1222 170.161 60.2094 170.729 61.0555C171.134 61.5812 171.636 62.0239 172.208 62.3594C174.34 63.796 176.643 65.2584 179.214 65.3058C180.279 65.3254 181.42 65.0504 182.121 64.2482C182.424 63.8715 182.662 63.447 182.825 62.9923C183.482 61.3723 183.881 59.659 184.006 57.9153C184.1 57.0955 184.024 56.265 183.781 55.4763C183.469 54.6058 182.837 53.8895 182.42 53.0641C181.927 52.0827 181.746 50.9735 181.903 49.8863C181.924 49.8098 181.918 49.7284 181.885 49.656C181.851 49.6173 181.808 49.5871 181.76 49.5676C181.712 49.5482 181.66 49.5401 181.609 49.544L176.512 49.1771C176.038 49.1536 175.565 49.0995 175.097 49.0153C174.823 48.9594 174.097 48.5692 173.835 48.673C173.35 48.865 173.223 51.124 173.123 51.6445Z" fill="#A0616A"/>
<path opacity="0.1" d="M173.123 51.8034C173.004 52.431 172.874 53.0816 172.497 53.5973C172.063 54.1907 171.355 54.5298 170.889 55.0976C170.186 55.9524 170.146 57.1552 170.143 58.2618C170.14 59.2811 170.161 60.3683 170.729 61.2144C171.134 61.7401 171.636 62.1828 172.208 62.5183C174.34 63.9549 176.643 65.4173 179.214 65.4647C180.279 65.4843 181.42 65.2093 182.121 64.4071C182.424 64.0304 182.662 63.606 182.825 63.1512C183.482 61.5312 183.881 59.818 184.006 58.0742C184.1 57.2544 184.024 56.4239 183.781 55.6353C183.469 54.7647 182.837 54.0484 182.42 53.223C181.927 52.2416 181.746 51.1325 181.903 50.0453C181.924 49.9687 181.918 49.8873 181.885 49.815C181.851 49.7763 181.808 49.746 181.76 49.7266C181.712 49.7071 181.66 49.699 181.609 49.703L176.512 49.3361C176.038 49.3125 175.565 49.2584 175.097 49.1742C174.823 49.1183 174.097 48.7282 173.835 48.8319C173.35 49.024 173.223 51.283 173.123 51.8034Z" fill="black"/>
<path d="M177.997 52.3278C182.126 52.3278 185.474 48.9803 185.474 44.8509C185.474 40.7216 182.126 37.374 177.997 37.374C173.868 37.374 170.52 40.7216 170.52 44.8509C170.52 48.9803 173.868 52.3278 177.997 52.3278Z" fill="#A0616A"/>
<path d="M174.172 61.5973C174.541 62.025 174.986 62.3808 175.485 62.6467C176.005 62.8616 176.563 62.9679 177.126 62.9591C178.474 62.997 179.935 62.75 180.872 61.7811C182.081 60.532 182.041 58.5174 182.988 57.0603C183.065 56.9281 183.169 56.8142 183.294 56.7264C183.453 56.6399 183.632 56.5986 183.813 56.607C185.009 56.5958 186.052 57.3718 186.992 58.1113C187.435 58.416 187.815 58.803 188.111 59.2513C188.297 59.6142 188.425 60.0042 188.489 60.4069C188.955 62.6855 189.107 65.0153 189.257 67.3363C189.339 68.6183 189.422 69.9016 189.416 71.1862C189.396 75.4187 188.412 79.5804 187.434 83.6983C187.308 84.2289 187.135 84.822 186.653 85.0761C186.438 85.1728 186.207 85.2292 185.971 85.2425C183.169 85.5715 180.361 85.901 177.54 85.9445C176.44 85.9614 175.339 85.9348 174.239 85.8645C174.05 85.862 173.862 85.8293 173.683 85.7676C173.44 85.6509 173.231 85.4736 173.077 85.2527C171.551 83.3299 171.461 80.6716 171.471 78.217C171.495 72.2156 171.709 66.2189 172.114 60.2271C172.148 59.7325 172.155 59.1319 171.798 58.7428C172.492 59.7712 173.287 60.7274 174.172 61.5973Z" fill="white"/>
<path d="M172.588 52.9641C172.336 53.4212 170.474 54.5564 170.114 54.9352C168.106 57.052 164.441 56.9726 162.604 59.2398C161.958 60.0375 161.622 61.0398 161.375 62.0363C161.026 63.4456 160.84 64.9825 161.425 66.3114C161.988 67.5901 163.173 68.4741 163.977 69.6162C164.861 70.8703 165.258 72.393 165.638 73.879C165.919 74.9762 166.203 76.1006 166.093 77.228C165.969 78.5097 165.349 79.6834 164.982 80.918C164.616 82.1526 164.553 83.623 165.4 84.5933C166.022 85.3061 166.998 85.5887 167.93 85.7477C169.125 85.9271 170.329 86.032 171.537 86.0616C172.603 86.1087 173.778 86.1179 174.598 85.4344C175.244 84.8951 175.526 84.02 175.562 83.1787C175.598 82.3375 175.423 81.5036 175.314 80.6688C175.2 79.8033 175.156 78.9303 175.12 78.0581C174.956 74.1449 174.933 70.2291 175.053 66.3109C175.113 65.4965 175.073 64.6779 174.934 63.8732C174.705 62.8251 174.139 61.8884 173.666 60.9253C172.721 59.1115 172.293 57.0728 172.429 55.0322C172.572 52.9351 173.487 51.3375 172.588 52.9641Z" fill="white"/>
<path d="M183.088 53.1231C183.472 53.5185 184.779 53.6488 185.269 53.9034C185.729 54.116 186.209 54.2823 186.702 54.3998C188.487 54.9147 190.185 55.6938 191.739 56.7114C192.062 56.9003 192.347 57.1469 192.581 57.4389C192.827 57.8397 192.986 58.288 193.047 58.7545C193.287 59.9413 193.527 61.1424 193.473 62.3519C193.416 63.6358 193.03 64.8793 192.646 66.1058L191.212 70.6889C190.142 74.1099 189.065 77.5645 188.764 81.1362C188.598 83.1157 188.672 85.1082 188.985 87.0699C189.014 87.1653 189.023 87.2659 189.011 87.365C188.998 87.4641 188.965 87.5594 188.913 87.6446C188.818 87.7379 188.694 87.7951 188.562 87.8061C187.87 87.9143 187.2 87.5615 186.573 87.2493C184.657 86.2958 182.612 85.6268 180.503 85.2632C181.328 84.0722 181.963 82.7614 182.389 81.3769C182.63 80.4977 182.82 79.6053 182.958 78.7041L183.625 74.8471C183.896 73.4373 184.087 72.0133 184.197 70.5819C184.248 70.0447 184.216 69.503 184.104 68.9752C183.951 68.4729 183.747 67.9875 183.495 67.5262C182.396 65.2401 181.881 62.6313 182.313 60.1318C182.502 59.038 182.87 57.9427 182.717 56.8433C182.569 55.7862 182.722 54.9647 182.451 53.9186C181.338 49.6233 182.364 52.3794 183.088 53.1231Z" fill="white"/>
<path d="M162.585 62.8542C162.084 63.8939 161.247 64.7797 160.961 65.8981C160.851 66.4207 160.803 66.9549 160.82 67.489C160.77 68.2938 160.85 69.1014 161.056 69.8811C161.215 70.3743 161.474 70.8292 161.66 71.3127C161.92 71.9882 162.036 72.7106 162 73.4335C161.95 74.435 161.61 75.4072 161.583 76.4096C161.541 77.986 162.271 79.4679 162.982 80.8753C163.161 80.4318 163.435 80.0328 163.784 79.7063C164.134 79.3797 164.55 79.1334 165.005 78.9846C165.459 78.8358 165.941 78.7881 166.416 78.8448C166.89 78.9015 167.347 79.0613 167.754 79.313C167.917 79.1129 167.994 78.8565 167.969 78.5997C168.022 76.7708 168.072 74.9419 168.121 73.113C168.198 70.2843 168.271 67.4179 167.621 64.6641C167.327 63.4207 166.87 62.1821 166.032 61.2177C165.591 60.7099 164.093 59.3724 163.368 59.9413C163.043 60.1971 163.119 60.8935 163.067 61.2461C162.989 61.8035 162.827 62.3458 162.585 62.8542Z" fill="white"/>
<path d="M193.62 59.858C193.822 60.6078 193.908 61.3838 193.876 62.1595C193.885 63.7405 193.864 65.3213 193.813 66.9019C193.821 67.7126 193.717 68.5205 193.505 69.3029C193.343 69.8117 193.093 70.2888 192.926 70.7959C192.426 72.3156 192.699 73.9639 192.742 75.5635C192.772 76.0812 192.728 76.6006 192.611 77.1057C192.347 78.0973 191.636 78.8985 191.141 79.797C190.67 80.6504 190.386 81.6069 189.823 82.403C189.261 83.199 188.288 83.8298 187.344 83.5854C186.629 83.4003 186.122 82.7675 185.77 82.118C185.003 80.6899 184.741 79.0449 185.026 77.4492C185.379 75.5078 186.519 73.7855 186.93 71.8557C187.495 69.2056 186.637 66.471 186.662 63.7615C186.651 63.3368 186.708 62.913 186.833 62.5068C187.049 61.8879 187.512 61.3936 187.94 60.8973C188.475 60.277 188.972 59.6249 189.428 58.9447C189.734 58.4877 190.15 57.3123 190.694 57.2146C191.906 56.9964 193.319 58.921 193.62 59.858Z" fill="white"/>
<path d="M156.292 86.2731C155.621 86.1046 154.93 86.0311 154.239 86.0549C153.513 86.095 152.803 86.2893 152.158 86.6248C151.513 86.9603 150.946 87.4294 150.496 88.0007C150.046 88.5721 149.723 89.2327 149.548 89.9387C149.373 90.6446 149.351 91.3797 149.482 92.0951C149.649 92.87 149.923 93.618 150.295 94.318C150.84 95.4229 151.493 96.5252 152.501 97.2332C153.108 97.6225 153.762 97.9338 154.447 98.1597L159.755 100.159C160.536 100.454 161.317 100.748 162.106 101.021C166.068 102.39 170.199 103.211 174.384 103.461C175.657 103.581 176.941 103.516 178.196 103.268C178.499 103.229 178.777 103.079 178.976 102.847C179.078 102.67 179.137 102.473 179.151 102.27L179.477 99.9836C179.551 99.6652 179.541 99.3333 179.45 99.0196C179.3 98.6353 178.925 98.3935 178.567 98.1881C175.077 96.1837 171.003 95.0779 168.065 92.3268C167.374 91.6792 166.795 90.6526 165.955 90.2127C165.002 89.7138 163.88 89.4291 162.895 88.9694C160.742 87.9644 158.625 86.8095 156.292 86.2731Z" fill="#2F2E41"/>
<path opacity="0.1" d="M161.591 89.3561C163.468 89.944 171.389 94.0172 172.747 95.4394C172.565 95.5049 166.39 92.0443 166.205 91.9887C164.506 91.5222 162.843 90.9361 161.227 90.2346C160.906 90.0858 159.137 89.3863 159.217 88.9803C159.307 88.5222 161.258 89.2517 161.591 89.3561Z" fill="black"/>
<path d="M184.999 104.647C185.106 104.655 185.212 104.624 185.297 104.56C185.334 104.512 185.362 104.457 185.378 104.398C185.394 104.339 185.398 104.278 185.39 104.217L185.381 101.102C184.485 100.675 183.483 100.538 182.5 100.407L177.91 99.7935C178.016 99.8075 177.193 101.77 177.319 102.032C177.541 102.494 179.241 102.903 179.721 103.121C181.388 103.879 183.121 104.713 184.999 104.647Z" fill="#A0616A"/>
<path d="M170.6 101.091C169.734 101.229 168.767 101.351 168.205 102.026C167.494 102.881 167.797 104.156 168.136 105.216C168.157 105.353 168.205 105.484 168.277 105.602C168.349 105.72 168.445 105.822 168.557 105.903C168.67 105.983 168.797 106.04 168.932 106.07C169.067 106.101 169.207 106.104 169.343 106.079C170.133 106.129 170.974 106.168 171.665 105.781C171.977 105.574 172.278 105.35 172.566 105.11C173.076 104.772 173.635 104.516 174.225 104.352C175.308 104.012 176.423 103.782 177.553 103.666C177.998 103.646 178.439 103.568 178.864 103.435C179.077 103.367 179.271 103.25 179.431 103.095C179.591 102.939 179.713 102.749 179.788 102.539C179.948 101.973 179.619 101.395 179.303 100.899C178.939 100.248 178.467 99.6651 177.907 99.1737C177.052 98.5095 176.629 99.0194 175.768 99.4444C174.138 100.249 172.396 100.804 170.6 101.091Z" fill="#A0616A"/>
<path d="M168.336 101.872L162.834 100.246C162.174 100.016 161.484 99.8823 160.786 99.849C160.437 99.8347 160.088 99.8951 159.764 100.026C159.44 100.157 159.147 100.356 158.906 100.609C158.479 101.11 158.357 101.795 158.251 102.444L158.023 103.832C157.872 104.532 157.829 105.252 157.896 105.965C157.933 106.322 158.05 106.665 158.24 106.97C158.429 107.274 158.685 107.531 158.989 107.722C159.75 108.137 160.684 107.934 161.533 107.761C163.25 107.41 164.996 107.223 166.747 107.201C167.406 107.194 168.097 107.202 168.679 106.893C169.016 106.693 169.3 106.413 169.505 106.079C169.71 105.744 169.83 105.364 169.855 104.972C169.964 103.786 169.568 102.236 168.336 101.872Z" fill="#2F2E41"/>
<path d="M187.162 100.455C187.875 100.33 188.505 99.9244 189.188 99.6851C190.15 99.3483 191.193 99.3483 192.212 99.352C192.587 99.3178 192.963 99.3932 193.296 99.5692C193.745 99.868 193.86 100.466 193.936 101L194.397 104.221C194.52 104.822 194.533 105.441 194.435 106.046C194.299 106.643 193.893 107.219 193.3 107.373C192.581 107.56 191.875 107.1 191.196 106.798C189.498 106.044 187.525 106.237 185.754 105.673C185.585 105.639 185.425 105.569 185.284 105.469C185.144 105.369 185.027 105.24 184.94 105.09C184.879 104.911 184.858 104.722 184.876 104.534C184.907 103.498 184.688 102.084 185 101.095C185.28 100.205 186.366 100.455 187.162 100.455Z" fill="#2F2E41"/>
<path d="M198.806 84.9766C199.905 84.7009 201.045 84.6231 202.171 84.7467C203.071 84.8458 203.998 85.0962 204.655 85.719C205.455 86.477 205.712 87.6493 205.733 88.7509C205.768 90.9449 205.041 93.0832 203.674 94.8003C203.341 95.2346 202.944 95.6166 202.497 95.9334C202.015 96.2349 201.502 96.4823 200.966 96.6714L189.078 101.36C185.95 102.594 182.812 103.831 179.55 104.644C179.461 104.687 179.364 104.712 179.265 104.717C179.166 104.722 179.067 104.707 178.974 104.674C178.881 104.64 178.795 104.588 178.723 104.521C178.65 104.453 178.592 104.372 178.551 104.282C177.509 102.794 176.635 101.196 175.945 99.5159C175.913 99.476 175.89 99.4288 175.879 99.3783C175.869 99.3278 175.871 99.2755 175.884 99.2258C175.898 99.1761 175.924 99.1305 175.959 99.0929C175.995 99.0552 176.038 99.0266 176.087 99.0095L184.496 94.1783C185.112 93.8567 185.687 93.4607 186.207 92.9991C186.57 92.6469 186.868 92.2327 187.086 91.7758C187.26 91.4118 187.276 90.5527 187.499 90.2836C187.717 90.0202 188.462 89.9991 188.807 89.8955C189.292 89.7467 189.768 89.5669 190.231 89.3572C192.112 88.5158 193.787 87.2932 195.59 86.3079C196.601 85.7297 197.682 85.2824 198.806 84.9766Z" fill="#2F2E41"/>
<path opacity="0.1" d="M194.039 88.5843C192.594 89.6693 190.724 90.6667 189.292 91.7803C188.803 92.1603 180.658 96.7399 180.542 97.3482C181.878 97.5733 190.387 91.6207 191.604 91.0267C192.822 90.4328 193.901 89.5951 194.97 88.7637C195.243 88.5518 196.398 87.9148 195.616 87.6781C195.175 87.5448 194.364 88.3674 194.039 88.5843Z" fill="black"/>
<path d="M184.099 53.2283H171.418C170.903 53.2283 170.408 53.4329 170.044 53.7972C169.68 54.1615 169.475 54.6556 169.475 55.1708V55.8822H169.337V57.473H169.475V58.5866H169.337V59.5411H169.475V71.2791C169.475 71.7943 169.68 72.2884 170.044 72.6527C170.408 73.017 170.903 73.2217 171.418 73.2217H184.099C184.614 73.2217 185.108 73.017 185.472 72.6527C185.836 72.2884 186.041 71.7943 186.041 71.2791V55.1708C186.041 54.6556 185.836 54.1615 185.472 53.7972C185.108 53.4329 184.614 53.2283 184.099 53.2283Z" fill="#D0CDE1"/>
<path d="M186.114 38.2238L179.682 34.8547L170.8 36.233L168.963 44.3492L173.537 44.1731L174.815 41.1914V44.1242L176.926 44.043L178.151 39.2956L178.917 44.3492L186.42 44.196L186.114 38.2238Z" fill="#2F2E41"/>
<path d="M164.268 83.9252C164.559 84.4197 164.972 84.8311 165.468 85.1195C165.794 85.2682 166.149 85.3405 166.507 85.3309C166.864 85.3213 167.215 85.2301 167.532 85.0642C168.165 84.7247 168.684 84.205 169.022 83.571C169.721 82.3366 169.865 80.8596 169.778 79.4438C169.691 78.028 169.389 76.6338 169.255 75.2217C169.157 74.1951 169.15 73.1624 169.142 72.1313C169.118 71.9145 169.163 71.6956 169.272 71.5063C169.458 71.3205 169.7 71.1998 169.961 71.162C171.372 70.7429 172.308 69.4206 172.98 68.1109C173.428 67.2364 173.818 66.2805 173.731 65.3016C173.645 64.3228 172.941 63.3366 171.964 63.2368C171.158 63.1544 170.413 63.6664 169.832 64.2306C168.365 65.6628 167.423 67.5465 167.156 69.579C167.028 70.5743 167.065 71.5967 166.794 72.5629C166.216 74.626 164.407 75.8909 163.506 77.7473C162.513 79.7929 163.061 82.1152 164.268 83.9252Z" fill="#A0616A"/>
<path d="M190.882 76.0432C190.676 76.5217 190.376 76.9541 190.001 77.315C189.625 77.6758 189.181 77.9578 188.695 78.1442C188.091 78.387 187.424 78.4278 186.794 78.2606C186.482 78.174 186.194 78.0166 185.953 77.8006C185.711 77.5846 185.523 77.3158 185.402 77.0151C185.306 76.7123 185.253 76.3973 185.245 76.0796C185.155 74.6884 185.19 73.2547 185.695 71.9553C185.89 71.4541 186.153 70.9788 186.306 70.4635C186.458 69.8684 186.535 69.257 186.537 68.643L186.703 64.8469C186.73 64.5713 186.711 64.2931 186.646 64.0238C186.481 63.4745 185.967 63.1176 185.496 62.79C184.359 61.9989 183.235 61.0758 182.683 59.8046C182.494 59.4219 182.426 58.9904 182.489 58.568C182.645 57.8142 183.405 57.3262 184.157 57.1618C184.649 57.0542 185.158 57.0474 185.652 57.1416C186.147 57.2359 186.618 57.4293 187.036 57.7102C187.454 57.9911 187.81 58.3538 188.084 58.7762C188.358 59.1987 188.544 59.6723 188.63 60.1685C188.705 60.5969 188.704 61.0344 188.747 61.4671C188.84 62.3848 189.131 63.2694 189.313 64.1735C189.762 66.4006 189.529 68.7028 189.973 70.9295C190.345 72.7913 191.744 74.0061 190.882 76.0432Z" fill="#A0616A"/>
<path d="M177.928 61.7681C178.806 61.7681 179.519 61.0558 179.519 60.1773C179.519 59.2987 178.806 58.5864 177.928 58.5864C177.049 58.5864 176.337 59.2987 176.337 60.1773C176.337 61.0558 177.049 61.7681 177.928 61.7681Z" fill="#644A98"/>
<path d="M5.19324 117.352C7.78497 117.352 9.88599 115.251 9.88599 112.659C9.88599 110.068 7.78497 107.967 5.19324 107.967C2.6015 107.967 0.500488 110.068 0.500488 112.659C0.500488 115.251 2.6015 117.352 5.19324 117.352Z" fill="#2F2E41"/>
<path d="M22.2038 126.591L19.8401 124.293L15.0938 125.768L15.5496 131.263L25.3088 130.81L22.3107 126.736L22.2038 126.591Z" fill="#FBBEBE"/>
<path d="M17.0342 126.543C21.2243 126.543 24.621 123.147 24.621 118.957C24.621 114.766 21.2243 111.37 17.0342 111.37C12.844 111.37 9.44727 114.766 9.44727 118.957C9.44727 123.147 12.844 126.543 17.0342 126.543Z" fill="#FBBEBE"/>
<path d="M64.1339 136.329C64.1339 136.329 73.4545 152.346 75.6727 154.751C76.7276 155.934 77.8515 157.055 79.0385 158.105C79.0385 158.105 77.9955 161.564 76.3346 161.441C75.388 161.384 74.4596 161.155 73.5949 160.766C73.5949 160.766 72.8536 158.844 71.5606 158.001C70.2676 157.159 59.7036 146.766 59.9505 143.444C60.1975 140.123 64.1339 136.329 64.1339 136.329Z" fill="#2F2E41"/>
<path d="M30.9404 159.186C30.9404 159.186 40.8783 166.9 54.3843 159.652L55.5482 158.796C55.5482 158.796 53.584 163.214 53.4017 164.412C53.1904 165.801 48.0765 173.938 47.242 174.328C46.4075 174.718 46.2236 175.078 46.2236 175.078L49.765 178.976L51.0744 178.012C51.0744 178.012 56.1801 170.778 57.6734 169.455C59.1668 168.132 66.2816 154.485 66.2816 154.485C66.2816 154.485 69.0019 149.343 62.213 148.956C55.4242 148.57 52.3003 150.42 52.3003 150.42L40.2518 152.334L30.9404 159.186Z" fill="#2F2E41"/>
<path d="M79.1537 157.348L84.1803 160.826C84.1803 160.826 90.5931 162.835 86.6428 164.172C82.6926 165.509 72.2829 165.993 72.0467 164.148C71.8105 162.303 72.4573 159.399 72.9766 159.558C73.4959 159.717 77.1004 160.653 79.1537 157.348Z" fill="#2F2E41"/>
<path d="M51.5193 176.817L52.4497 181.926C52.4497 181.926 55.0951 186.986 51.9188 185.416C48.7425 183.846 42.1984 177.883 43.1647 176.633C44.1311 175.383 46.2639 174.027 46.4805 174.434C46.6971 174.842 48.3002 177.569 51.5193 176.817Z" fill="#2F2E41"/>
<path d="M41.9346 154.011C41.9346 154.011 35.1791 161.899 31.0777 159.983C26.9763 158.067 10.1968 135.875 12.1127 131.774C14.0287 127.673 14.6711 128.546 14.6711 128.546L23.3349 129.347L20.8421 125.35C20.8421 125.35 22.006 124.493 23.1151 125.696C24.2242 126.898 28.677 129.901 30.2283 134.142C31.7795 138.384 36.3337 138.172 36.3337 138.172L41.9346 154.011Z" fill="white"/>
<path d="M69.2153 137.748L57.5049 150.178L47.0146 131.657L56.9874 119.608L69.2153 137.748Z" fill="#3F3D56"/>
<path d="M68.3314 137.613L57.7547 148.537L48.1704 131.704L56.96 120.638L68.3314 137.613Z" fill="white"/>
<path d="M56.9312 149.704L57.5049 150.178L57.137 150.898L40.7622 155.771L40.6074 155.21L41.3524 154.44L56.9312 149.704Z" fill="#B3B3B3"/>
<path d="M57.6505 150.071L40.6939 155.373L30.3574 135.842L47.0148 131.657L57.6505 150.071Z" fill="#D0CDE1"/>
<path d="M56.3739 147.422L55.6463 147.958L47.5723 133.938L48.4067 133.549L56.3739 147.422Z" fill="#3F3D56"/>
<path d="M54.7049 148.202L47.5319 150.341L39.3892 135.924L46.4854 134.29L54.7049 148.202Z" fill="#3F3D56"/>
<path d="M34.4973 137.505L35.9824 137.085C35.9824 137.085 44.2646 136.148 44.3855 138.751C44.5064 141.353 34.8708 140.146 34.8708 140.146L33.5859 138.4L34.4973 137.505Z" fill="#FBBEBE"/>
<path d="M41.7615 149.205L43.8286 148.356C43.8286 148.356 50.0683 145.559 48.2783 143.736C46.4884 141.913 40.968 145.079 40.968 145.079L39.9111 146.081L41.7615 149.205Z" fill="#FBBEBE"/>
<path d="M39.919 145.178C39.919 145.178 43.2847 148.532 42.5188 149.32C41.753 150.108 29.1943 160.471 26.0811 157.155C22.9679 153.839 7.8 137.191 13.7021 135.763C19.6041 134.335 21.1635 137.673 21.1635 137.673L28.955 151.003L39.919 145.178Z" fill="white"/>
<path d="M29.8414 134.988L35.3702 136.863L35.2799 140.854L29.4326 140.223L29.8414 134.988Z" fill="white"/>
<path opacity="0.2" d="M34.8242 147.245L28.8674 150.732L22.0615 140.264L28.6311 148.887L34.8242 147.245Z" fill="black"/>
<path d="M13.7039 125.789C18.6921 125.789 22.7359 121.746 22.7359 116.757C22.7359 111.769 18.6921 107.725 13.7039 107.725C8.71565 107.725 4.67188 111.769 4.67188 116.757C4.67188 121.746 8.71565 125.789 13.7039 125.789Z" fill="#2F2E41"/>
<path d="M62.5059 138.536L56.1816 129.284L58.8625 125.966L65.4339 135.484L62.5059 138.536Z" fill="#644A98"/>
<path d="M62.3277 142.256L52.6997 128.259L53.1746 127.685L62.7575 141.715L62.3277 142.256Z" fill="#E6E6E6"/>
<path d="M61.0875 143.617L51.4595 129.62L51.9343 129.046L61.5173 143.077L61.0875 143.617Z" fill="#E6E6E6"/>
<path d="M60.0303 144.619L50.4023 130.622L50.8772 130.048L60.4602 144.079L60.0303 144.619Z" fill="#E6E6E6"/>
<path d="M17.7036 110.728H20.4977C21.9123 110.728 23.2691 111.29 24.2694 112.29C25.2697 113.29 25.8317 114.647 25.8317 116.062H17.7036V110.728Z" fill="#2F2E41"/>
<path d="M56.1914 107.333L55.6848 107.295C55.6652 107.559 55.6511 107.823 55.6344 108.088L53.3608 108.012L55.7457 112.481L58.4242 108.181L56.1423 108.105C56.1586 107.847 56.1722 107.589 56.1914 107.333Z" fill="#3F3D56"/>
<path d="M69.5264 70.9044L69.9302 71.2128C70.5359 70.4194 71.1686 69.6274 71.8107 68.8586L71.4207 68.533C70.7739 69.3074 70.1366 70.1052 69.5264 70.9044Z" fill="#3F3D56"/>
<path d="M73.418 66.2475L73.793 66.59C74.467 65.852 75.1667 65.119 75.8726 64.4112L75.5129 64.0525C74.8017 64.7654 74.0969 65.5039 73.418 66.2475Z" fill="#3F3D56"/>
<path d="M77.7021 61.9518L78.0457 62.3261C78.7828 61.6493 79.5438 60.9808 80.3075 60.3391L79.9809 59.9502C79.2114 60.5966 78.4447 61.2702 77.7021 61.9518Z" fill="#3F3D56"/>
<path d="M66.0591 75.8881L66.4885 76.1595C67.0224 75.3148 67.5831 74.4698 68.1549 73.6479L67.7379 73.3577C67.1618 74.1858 66.597 75.0371 66.0591 75.8881Z" fill="#3F3D56"/>
<path d="M82.3447 58.051L82.654 58.4538C83.4478 57.8443 84.2644 57.2455 85.0811 56.674L84.7899 56.2578C83.967 56.8337 83.1443 57.4369 82.3447 58.051Z" fill="#3F3D56"/>
<path d="M63.0449 81.1611L63.4966 81.3933C63.9543 80.5033 64.4382 79.6115 64.935 78.743L64.4939 78.4907C63.9935 79.3658 63.5059 80.2643 63.0449 81.1611Z" fill="#3F3D56"/>
<path d="M58.1451 95.4604L57.6532 95.3337C57.4022 96.3085 57.1698 97.3024 56.9624 98.2881L57.4595 98.3928C57.6654 97.4145 57.8961 96.4278 58.1451 95.4604Z" fill="#3F3D56"/>
<path d="M87.311 54.5748L87.5836 55.0034C88.4257 54.4676 89.2913 53.9434 90.1568 53.4452L89.9033 53.0049C89.0314 53.5069 88.1592 54.035 87.311 54.5748Z" fill="#3F3D56"/>
<path d="M56.9046 101.353L56.4033 101.27C56.2402 102.262 56.097 103.273 55.9775 104.274L56.4821 104.334C56.6005 103.34 56.7428 102.337 56.9046 101.353Z" fill="#3F3D56"/>
<path d="M60.5093 86.6834L60.9798 86.8746C61.3565 85.9475 61.7595 85.0159 62.1774 84.1056L61.7158 83.8936C61.2946 84.8107 60.8887 85.7493 60.5093 86.6834Z" fill="#3F3D56"/>
<path d="M58.4746 92.4132L58.9605 92.5615C59.2535 91.6029 59.5719 90.6385 59.9068 89.6951L59.4281 89.5251C59.0906 90.4755 58.7698 91.4473 58.4746 92.4132Z" fill="#3F3D56"/>
<path d="M121.675 44.4494C122.671 44.4149 123.685 44.4011 124.688 44.4105L124.693 43.9026C123.683 43.8931 122.661 43.9069 121.658 43.9416L121.675 44.4494Z" fill="#3F3D56"/>
<path d="M92.562 51.5518L92.7957 52.0027C93.6828 51.5431 94.5909 51.0977 95.4951 50.6789L95.2815 50.218C94.3707 50.64 93.4557 51.0887 92.562 51.5518Z" fill="#3F3D56"/>
<path d="M133.696 45.0826C134.687 45.2229 135.687 45.3871 136.668 45.5708L136.762 45.0715C135.773 44.8864 134.765 44.7209 133.767 44.5796L133.696 45.0826Z" fill="#3F3D56"/>
<path d="M139.617 46.1907C140.59 46.4179 141.572 46.6704 142.535 46.9411L142.672 46.452C141.702 46.1792 140.713 45.925 139.733 45.696L139.617 46.1907Z" fill="#3F3D56"/>
<path d="M145.415 47.8208C146.364 48.1338 147.319 48.4726 148.254 48.828L148.435 48.3533C147.492 47.9951 146.53 47.6537 145.574 47.3384L145.415 47.8208Z" fill="#3F3D56"/>
<path d="M127.7 44.5029C128.7 44.5553 129.711 44.6307 130.704 44.7267L130.753 44.2212C129.753 44.1243 128.734 44.0484 127.726 43.9956L127.7 44.5029Z" fill="#3F3D56"/>
<path d="M115.61 44.417L115.672 44.9213C116.662 44.7995 117.67 44.6979 118.668 44.6196L118.628 44.113C117.623 44.192 116.607 44.2944 115.61 44.417Z" fill="#3F3D56"/>
<path d="M103.759 46.9584L103.91 47.4436C104.864 47.1481 105.838 46.87 106.805 46.6171L106.677 46.1257C105.703 46.3804 104.721 46.6605 103.759 46.9584Z" fill="#3F3D56"/>
<path d="M98.0562 49.0066L98.249 49.4767C99.1726 49.0977 100.116 48.7349 101.053 48.3982L100.882 47.9202C99.9372 48.2592 98.9867 48.6249 98.0562 49.0066Z" fill="#3F3D56"/>
<path d="M109.628 45.4237L109.735 45.9205C110.711 45.7113 111.706 45.5209 112.693 45.3548L112.608 44.8538C111.614 45.0212 110.612 45.2129 109.628 45.4237Z" fill="#3F3D56"/>
<path d="M155.834 51.969L152.995 47.7737L151.997 49.8284C151.755 49.7205 151.515 49.6103 151.274 49.5058L151.072 49.9721C151.307 50.0741 151.54 50.181 151.775 50.2856L150.781 52.3306L155.834 51.969Z" fill="#3F3D56"/>
</g>
<defs>
<clipPath id="clip0">
<rect width="230" height="185.718" fill="white" transform="translate(0.5)"/>
</clipPath>
</defs>
</svg>
