<svg width="250" height="126" viewBox="0 0 250 126" fill="none" xmlns="http://www.w3.org/2000/svg">
<g clip-path="url(#clip0)">
<path d="M227.085 66.0106L203.401 77.22L224.362 61.546C220.955 56.2284 217.128 51.1921 212.917 46.4855L110.202 72.016L202.983 36.6232C198.743 32.8824 194.24 29.4504 189.51 26.3538L32.9953 51.5641C16.3775 72.3446 7.31858 98.1576 7.30579 124.766H242.902C242.893 104.13 237.436 83.8622 227.085 66.0106Z" fill="#F2F2F2"/>
<path d="M176.7 19.0758C160.631 11.2382 142.983 7.17695 125.104 7.20227C88.7164 7.20227 56.1839 23.702 34.5757 49.6264C71.5776 41.5189 136.001 27.4844 176.7 19.0758Z" fill="#F2F2F2"/>
<path d="M31.3319 100.163C40.6851 117.509 60.5357 124.955 60.5357 124.955C60.5357 124.955 65.222 104.278 55.8689 86.9323C46.5158 69.5865 26.6651 62.1404 26.6651 62.1404C26.6651 62.1404 21.9788 82.8173 31.3319 100.163Z" fill="#4B3081"/>
<path d="M37.7608 94.4564C54.647 104.616 61.1504 124.795 61.1504 124.795C61.1504 124.795 40.2759 128.503 23.3896 118.343C6.50342 108.184 0 88.0048 0 88.0048C0 88.0048 20.8746 84.2971 37.7608 94.4564Z" fill="#F0C864"/>
<path d="M164.483 55.7175H40.1844V58.3805H164.483V55.7175Z" fill="#3F3D56"/>
<path d="M164.483 69.0322H40.1844V71.6952H164.483V69.0322Z" fill="#3F3D56"/>
<path d="M164.483 81.6812H40.1844V85.6756H164.483V81.6812Z" fill="#3F3D56"/>
<path d="M59.6137 47.626L59.4257 124.763L62.1878 124.77L62.3759 47.6328L59.6137 47.626Z" fill="#3F3D56"/>
<path d="M141.098 47.8248L140.91 124.962L143.672 124.969L143.86 47.8315L141.098 47.8248Z" fill="#3F3D56"/>
<path d="M247.225 37.8007C243.502 41.5566 234.516 44.533 230.76 40.81C227.004 37.0871 229.901 28.0747 233.624 24.3188C235.412 22.5152 237.843 21.4957 240.383 21.4845C242.922 21.4733 245.362 22.4714 247.166 24.2592C248.969 26.047 249.989 28.4781 250 31.0176C250.011 33.5571 249.013 35.9971 247.225 37.8007Z" fill="#F0C864"/>
<path d="M230.766 42.1153C230.71 41.789 230.554 41.4883 230.319 41.2552C230.083 41.0222 229.781 40.8686 229.455 40.8158L230.754 39.5049L232.065 40.8043L230.766 42.1153Z" fill="#6C63FF"/>
<path d="M231.412 41.5643C231.084 41.4616 230.786 41.2824 230.541 41.0416C230.296 40.8007 230.112 40.505 230.004 40.1789L230.266 40.093C230.361 40.3773 230.522 40.635 230.735 40.845C230.949 41.0549 231.209 41.211 231.495 41.3004L231.412 41.5643Z" fill="#2F2E41"/>
<path d="M202.908 69.0337L202.711 68.8388L230.411 41.0293L230.608 41.2242L202.908 69.0337Z" fill="#2F2E41"/>
<path opacity="0.4" d="M247.527 32.4151C248.469 31.4649 248.591 30.0582 247.799 29.2732C247.007 28.4883 245.602 28.6223 244.66 29.5726C243.718 30.5228 243.596 31.9295 244.388 32.7145C245.18 33.4995 246.586 33.3654 247.527 32.4151Z" fill="white"/>
<path d="M235.075 27.558C232.587 32.2246 224.833 37.6556 220.167 35.1676C215.5 32.6797 215.688 23.2149 218.176 18.5484C219.37 16.3074 221.407 14.6329 223.836 13.8931C226.265 13.1533 228.889 13.4089 231.13 14.6037C233.371 15.7984 235.046 17.8344 235.785 20.2639C236.525 22.6933 236.27 25.3171 235.075 27.558Z" fill="#F0C864"/>
<path d="M220.547 36.4162C220.4 36.1196 220.164 35.8764 219.872 35.7207C219.58 35.5649 219.246 35.5045 218.918 35.5478L219.787 33.9189L221.416 34.7873L220.547 36.4162Z" fill="#6C63FF"/>
<path d="M221.009 35.7028C220.665 35.6985 220.328 35.6126 220.024 35.4522C219.72 35.2918 219.459 35.0614 219.262 34.7801L219.489 34.6223C219.661 34.8675 219.889 35.0683 220.154 35.2081C220.419 35.3478 220.713 35.4226 221.013 35.4261L221.009 35.7028Z" fill="#2F2E41"/>
<path d="M201.589 70.1991L201.345 70.069L219.896 35.4778L220.14 35.6079L201.589 70.1991Z" fill="#2F2E41"/>
<path opacity="0.4" d="M233.819 22.3126C234.449 21.1319 234.161 19.7495 233.177 19.2249C232.194 18.7004 230.886 19.2322 230.256 20.4129C229.627 21.5936 229.914 22.976 230.898 23.5006C231.882 24.0252 233.19 23.4933 233.819 22.3126Z" fill="white"/>
<path d="M228.965 53.5712C225.242 57.3271 216.255 60.3035 212.499 56.5805C208.743 52.8576 211.641 43.8452 215.363 40.0893C216.249 39.1963 217.301 38.4863 218.461 38C219.62 37.5137 220.864 37.2605 222.122 37.255C223.379 37.2494 224.626 37.4916 225.789 37.9677C226.953 38.4438 228.012 39.1445 228.905 40.0297C229.798 40.9149 230.508 41.9674 230.994 43.127C231.481 44.2866 231.734 45.5307 231.739 46.7881C231.745 48.0456 231.503 49.2918 231.027 50.4557C230.551 51.6195 229.85 52.6782 228.965 53.5712Z" fill="#F0C864"/>
<path d="M212.505 57.8858C212.449 57.5595 212.293 57.2588 212.058 57.0258C211.823 56.7927 211.521 56.6391 211.194 56.5863L212.493 55.2754L213.804 56.5749L212.505 57.8858Z" fill="#6C63FF"/>
<path d="M213.152 57.3348C212.824 57.2321 212.526 57.053 212.281 56.8121C212.036 56.5712 211.852 56.2755 211.744 55.9495L212.006 55.8635C212.101 56.1478 212.262 56.4056 212.475 56.6155C212.689 56.8254 212.949 56.9815 213.235 57.0709L213.152 57.3348Z" fill="#2F2E41"/>
<path d="M212.152 56.8015L199.804 69.2522L200.001 69.447L212.349 56.9963L212.152 56.8015Z" fill="#2F2E41"/>
<path opacity="0.4" d="M229.267 48.1859C230.209 47.2356 230.331 45.8289 229.539 45.044C228.747 44.259 227.342 44.393 226.4 45.3433C225.458 46.2936 225.336 47.7003 226.128 48.4852C226.92 49.2702 228.325 49.1362 229.267 48.1859Z" fill="white"/>
<path d="M190.031 13.0743C187.216 8.31728 181.646 8.09558 181.646 8.09558C181.646 8.09558 176.218 7.40151 172.737 14.6466C169.491 21.3996 165.012 27.9197 172.016 29.5005L173.281 25.5634L174.064 29.7936C175.061 29.8654 176.061 29.8825 177.06 29.8449C184.56 29.6027 191.702 29.9157 191.473 27.2245C191.167 23.6469 192.74 17.6516 190.031 13.0743Z" fill="#2F2E41"/>
<path d="M183.578 117.387C183.335 118.472 182.902 119.527 182.878 120.639C182.855 121.75 183.392 122.987 184.455 123.312C184.963 123.427 185.49 123.432 186 123.326C186.563 123.249 187.161 123.158 187.589 122.784C188.189 122.259 188.258 121.365 188.263 120.568C188.291 116.603 187.808 112.655 187.327 108.719C187.32 108.658 184.745 108.598 184.487 108.717C183.736 109.061 183.804 109.907 183.794 110.626C183.763 112.879 184.076 115.163 183.578 117.387Z" fill="#2F2E41"/>
<path d="M166.114 117.387C166.356 118.472 166.79 119.527 166.814 120.639C166.837 121.75 166.3 122.987 165.237 123.312C164.729 123.427 164.202 123.432 163.692 123.326C163.129 123.249 162.531 123.158 162.103 122.784C161.503 122.259 161.434 121.365 161.428 120.568C161.401 116.603 161.884 112.655 162.365 108.719C162.372 108.658 164.947 108.598 165.205 108.717C165.956 109.061 165.888 109.907 165.898 110.626C165.929 112.879 165.616 115.163 166.114 117.387Z" fill="#2F2E41"/>
<path d="M174.732 56.4679C175.983 57.0654 177.415 57.1432 178.802 57.1279C181.875 57.0932 184.931 56.6538 187.889 55.8208C188.456 55.6864 188.999 55.4668 189.5 55.1695C189.627 55.1019 189.726 54.9937 189.783 54.8625C189.809 54.7567 189.81 54.6465 189.785 54.5405L189.306 51.3497C189.311 51.2888 189.301 51.2276 189.277 51.1713C189.253 51.115 189.216 51.0653 189.169 51.0261C189.122 50.987 189.067 50.9597 189.007 50.9464C188.947 50.9331 188.886 50.9343 188.826 50.9499C186.221 50.9614 183.618 51.114 181.029 51.4067C179.714 51.5555 178.403 51.7402 177.097 51.961C176.405 52.078 174.396 52.1004 174.047 52.839C173.839 53.2786 174.259 54.052 174.366 54.4797C174.425 54.7169 174.589 56.3996 174.732 56.4679Z" fill="#FFB8B8"/>
<path d="M180.575 55.6789C178.376 55.597 176.204 55.1575 174.146 54.3776C174.056 54.3433 173.938 54.3147 173.876 54.3885C173.851 54.4252 173.836 54.4683 173.834 54.5128L173.306 58.5051C172.758 62.646 171.312 66.7396 170.368 70.8083C169.788 73.3058 169.208 75.8034 168.602 78.2947C167.985 80.8322 167.341 83.3657 166.525 85.8467C164.292 92.6341 160.814 98.9463 156.27 104.461C155.745 105.097 155.172 105.83 155.28 106.648C155.42 107.707 156.585 108.26 157.59 108.623C156.66 109.034 156.718 110.501 157.46 111.195C158.202 111.89 159.294 112.02 160.306 112.115L163.768 112.442C164.654 112.526 165.586 112.603 166.4 112.244C166.926 112.012 167.362 111.614 167.872 111.349C169.678 110.414 171.831 111.326 173.751 111.995C176.43 112.927 179.254 113.369 182.09 113.299C183.275 113.27 184.656 113.024 185.197 111.969C185.406 111.562 185.451 111.091 185.627 110.668C185.759 110.387 185.945 110.135 186.174 109.927C186.404 109.718 186.673 109.558 186.965 109.454C187.257 109.35 187.567 109.305 187.877 109.322C188.187 109.339 188.49 109.417 188.77 109.552C189.751 110.08 190.222 111.255 191.152 111.868C191.899 112.361 192.84 112.427 193.733 112.479L198.817 112.772C199.015 112.417 199.109 112.012 199.087 111.606C199.065 111.2 198.928 110.808 198.692 110.476C199.675 110.495 200.641 110.226 201.474 109.704C202.306 109.182 202.968 108.429 203.379 107.536C203.791 106.643 203.933 105.65 203.788 104.678C203.644 103.706 203.22 102.798 202.567 102.063C201.847 101.253 201.318 100.29 201.021 99.2479C199.367 93.0539 199.228 86.5423 197.705 80.3148C197.4 79.0677 197.039 77.8312 196.846 76.562C196.601 74.9561 196.628 73.3232 196.565 71.6999C196.418 67.8793 195.778 64.0936 194.661 60.437C193.906 57.9695 192.91 55.5242 191.259 53.5416C190.854 53.003 190.329 52.5659 189.726 52.2646C189.111 51.9962 188.343 51.9927 187.813 52.4044C187.506 52.6429 187.306 52.9919 187.038 53.2736C186.461 53.8806 185.614 54.1324 184.807 54.3601C183.184 54.8187 182.261 55.7411 180.575 55.6789Z" fill="#3F3D56"/>
<path d="M166.4 54.9331C166.295 55.4595 166.176 55.9828 166.055 56.5059C165.337 59.6344 164.593 62.7572 163.826 65.8742C163.693 66.5096 163.492 67.1291 163.228 67.7221C162.749 68.7042 161.937 69.4859 161.393 70.4334C160.848 71.3809 160.623 72.671 161.325 73.5086C161.774 74.0443 162.489 74.2624 163.167 74.4335C163.81 74.5959 164.542 74.7267 165.097 74.364C165.689 73.9778 165.843 73.1918 165.93 72.4903C166.297 69.5125 166.397 66.4794 167.219 63.5937C167.493 62.6297 167.847 61.6903 168.199 60.7522L170.284 55.2077C170.804 53.8245 171.331 52.4045 171.336 50.9268C171.352 50.7855 171.339 50.6423 171.298 50.5063C171.256 50.3703 171.187 50.2443 171.094 50.1362C170.984 50.0472 170.857 49.9826 170.72 49.9467C169.841 49.6635 167.583 49.4315 166.989 50.3949C166.696 50.8702 166.839 51.9684 166.775 52.5265C166.684 53.3335 166.559 54.1357 166.4 54.9331Z" fill="#FFB8B8"/>
<path d="M192.492 51.5485C193.874 55.4594 195.402 59.3145 197.076 63.1137C197.289 63.5626 197.466 64.0276 197.606 64.5043C197.718 64.929 197.769 65.367 197.842 65.8001C198.222 68.0544 199.331 70.3158 201.312 71.457C201.656 71.6831 202.058 71.8045 202.47 71.8067C203.288 71.7593 203.871 70.964 204.096 70.176C204.253 69.6245 204.296 69.0468 204.224 68.478C204.216 68.3327 204.167 68.1926 204.083 68.0741C203.983 67.9756 203.861 67.9029 203.727 67.8624C202.518 67.383 201.284 66.7152 200.673 65.5658C200.405 64.9933 200.222 64.3843 200.13 63.7586L198.948 57.755C198.808 57.0412 198.667 56.3266 198.473 55.6255C198.314 55.0514 198.12 54.4878 197.925 53.9247L196.635 50.1844L195.685 47.4307C195.679 47.3751 195.661 47.3214 195.633 47.2729C195.605 47.2245 195.568 47.1824 195.523 47.1492C195.478 47.116 195.426 47.0925 195.372 47.0802C195.317 47.0679 195.261 47.0671 195.206 47.0777L192.548 47.0754C190.785 47.0739 192.168 50.63 192.492 51.5485Z" fill="#FFB8B8"/>
<path d="M180.102 25.1223C183.464 25.1223 186.189 22.3971 186.189 19.0354C186.189 15.6737 183.464 12.9485 180.102 12.9485C176.741 12.9485 174.016 15.6737 174.016 19.0354C174.016 22.3971 176.741 25.1223 180.102 25.1223Z" fill="#FFB8B8"/>
<path d="M176.907 26.4292C176.559 26.966 175.991 27.3129 175.442 27.6416C174.413 28.3006 173.327 28.8658 172.197 29.3305C171.18 29.7134 170.081 29.9438 169.196 30.5749C168.267 31.2371 167.67 32.2845 167.342 33.3772C167.015 34.4699 166.931 35.6186 166.85 36.7564C166.816 36.991 166.835 37.2304 166.906 37.4566C167.042 37.7946 167.39 37.992 167.724 38.1393C169.421 38.8891 171.321 39.0024 173.175 39.0738C176.886 39.2167 180.601 39.2357 184.315 39.2546C185.762 39.3531 187.211 39.1111 188.547 38.5482L191.092 37.6341C191.45 37.5238 191.791 37.3639 192.105 37.1591C193.181 36.382 193.222 34.785 192.888 33.5001C192.635 32.5245 192.184 31.5344 191.338 30.9859C190.848 30.7111 190.324 30.504 189.778 30.3701C187.961 29.7995 186.263 28.9003 184.769 27.7172C184.409 27.4571 184.098 27.1347 183.851 26.7653C183.396 26.0101 183.454 25.0675 183.454 24.1854C183.471 24.0472 183.459 23.907 183.42 23.7733C183.381 23.6396 183.315 23.5154 183.226 23.4081C183.047 23.2777 182.831 23.2078 182.609 23.2085C181.165 23.0648 179.668 22.9555 178.246 23.3164C177.36 23.541 177.273 23.5908 177.309 24.4572C177.337 25.1349 177.286 25.8443 176.907 26.4292Z" fill="#FFB8B8"/>
<path d="M188.787 12.6157L183.284 9.7334L175.685 10.9126L174.113 17.8566L178.027 17.7062L179.12 15.1548V17.6641L180.926 17.5945L181.974 13.533L182.629 17.8566L189.049 17.7256L188.787 12.6157Z" fill="#2F2E41"/>
<path opacity="0.1" d="M182.203 38.6874C181.959 34.9919 177.446 34.6703 177.401 34.6674L177.409 34.5294C177.453 34.5321 181.476 34.8172 182.231 37.9425C182.334 36.7747 182.789 34.6317 184.733 34.5293L184.74 34.6675C182.211 34.8006 182.34 38.6412 182.341 38.68L182.203 38.6874Z" fill="black"/>
<path d="M180.886 37.6209L167.161 34.9239C167.091 34.8966 167.015 34.8852 166.94 34.8904C166.864 34.8956 166.791 34.9173 166.725 34.9541C166.659 34.9909 166.602 35.0417 166.558 35.103C166.514 35.1643 166.484 35.2346 166.47 35.3089L165.973 36.338C165.536 37.1329 165.274 38.0115 165.203 38.9155L164.897 41.2127C164.882 41.5998 164.756 41.9744 164.535 42.292C164.385 42.4486 164.211 42.579 164.018 42.6779C163.556 42.906 163.137 43.214 162.782 43.5878C162.454 43.9845 162.292 44.5675 162.533 45.022C162.923 45.7559 164.033 45.726 164.605 46.3289C165.132 46.8842 165.03 47.7884 164.726 48.491C164.53 48.9447 164.259 49.3962 164.282 49.8899C164.313 50.1665 164.414 50.4305 164.576 50.6573C164.737 50.884 164.953 51.0661 165.204 51.1863C165.709 51.4209 166.254 51.5551 166.81 51.5815C167.988 51.7002 169.174 51.7347 170.357 51.6848C170.952 51.6932 171.543 51.5784 172.092 51.3478C172.625 51.0865 173.07 50.5682 173.08 49.9749C173.096 48.9968 171.985 48.2237 172.125 47.2557C172.135 47.1598 172.17 47.0683 172.227 46.9906C172.417 46.7562 172.79 46.8526 173.081 46.772C173.544 46.644 173.735 46.0581 173.632 45.5894C173.528 45.1206 173.223 44.7272 172.991 44.3072C172.576 43.5599 172.394 42.7059 172.469 41.8546C173.524 42.1126 172.16 43.0857 172.309 44.1619C172.677 46.8029 173.866 49.8222 173.388 52.4454C173.349 52.5616 173.337 52.6848 173.351 52.8063C173.365 52.9279 173.406 53.0449 173.47 53.1491C173.568 53.2463 173.691 53.3145 173.825 53.3462C175.574 53.8947 177.429 53.1598 179.23 52.8221C180.486 52.6147 181.757 52.5195 183.03 52.5378C184.906 52.5246 186.782 52.5796 188.656 52.7028C189.129 52.7339 189.626 52.7651 190.054 52.5624C190.482 52.3596 190.797 51.8341 190.599 51.404C192.074 51.3757 193.461 52.3046 194.931 52.1802C196.515 52.0461 197.719 50.7529 198.756 49.5485C199.044 49.2679 199.252 48.915 199.357 48.5268C199.434 48.084 199.24 47.6458 199.091 47.2222C198.924 46.7497 198.808 46.2609 198.744 45.7639C198.677 45.453 198.715 45.1288 198.85 44.8413C199.042 44.5177 199.435 44.366 199.661 44.066C200.119 43.4592 199.694 42.5589 199.094 42.092C198.494 41.625 197.733 41.3708 197.209 40.8201C196.476 40.0501 196.373 38.8994 196.189 37.8521C196.027 36.9288 195.755 35.9877 195.139 35.2813C194.522 34.5749 193.487 34.1652 192.616 34.513C192.349 34.6403 192.089 34.7823 191.837 34.9382C191.322 35.1841 190.776 35.3598 190.214 35.4606C187.084 36.1667 184.034 38.2395 180.886 37.6209Z" fill="#856FB3"/>
<path d="M160.59 68.873C160.59 68.873 167.773 71.851 165.495 73.6028C163.218 75.3545 158.488 71.5007 158.663 70.9751C158.839 70.4496 157.963 69.2234 157.963 69.2234L160.59 68.873Z" fill="#9F616A"/>
<path d="M154.284 45.3997L156.562 47.5017L157.087 53.6329L158.839 60.1143C158.839 60.1143 161.817 66.2454 161.291 67.4717C160.766 68.6979 161.817 69.0482 161.817 69.0482L157.788 70.6248C157.788 70.6248 153.409 65.7199 153.409 64.6689C153.409 63.6178 154.284 45.3997 154.284 45.3997Z" fill="#856FB3"/>
<path d="M175.83 113.581C175.83 113.581 174.955 117.61 174.779 117.96C174.604 118.31 178.108 119.537 178.108 119.537L182.312 116.559C182.312 116.559 180.56 112.705 180.56 112.004L175.83 113.581Z" fill="#575A88"/>
<path d="M152.883 69.2234L154.109 70.6248C154.109 70.6248 179.51 73.7779 180.035 78.6828C180.561 83.5877 184.239 111.829 182.137 112.53C180.035 113.23 174.605 115.858 174.605 114.456C174.605 113.055 171.101 88.6678 171.802 85.1643C171.802 85.1643 141.497 81.3104 140.796 76.9311C140.095 72.5517 141.497 70.6248 141.497 70.6248L152.883 69.2234Z" fill="#2F2E41"/>
<path opacity="0.1" d="M152.883 69.2234L154.109 70.6248C154.109 70.6248 179.51 73.7779 180.035 78.6828C180.561 83.5877 184.239 111.829 182.137 112.53C180.035 113.23 174.605 115.858 174.605 114.456C174.605 113.055 171.101 88.6678 171.802 85.1643C171.802 85.1643 141.497 81.3104 140.796 76.9311C140.095 72.5517 141.497 70.6248 141.497 70.6248L152.883 69.2234Z" fill="black"/>
<path d="M175.481 117.61C175.481 117.61 174.78 116.033 174.429 116.559C174.079 117.084 172.853 123.215 174.079 123.215C175.305 123.215 186.517 126.018 188.093 125.668C189.67 125.317 192.648 125.843 192.297 124.091C191.947 122.339 190.195 122.164 190.195 122.164C190.195 122.164 183.714 118.31 183.363 116.383C183.013 114.456 181.086 115.508 181.086 115.508V116.734C181.086 116.734 177.407 119.537 175.481 117.61Z" fill="#2F2E41"/>
<path d="M142.197 32.0865C142.197 32.0865 143.423 38.0424 140.796 38.568C138.168 39.0935 144.124 42.597 144.124 42.597L147.978 44.6991L150.781 41.8963C150.781 41.8963 148.241 36.7286 150.168 32.8748C152.094 29.0209 142.197 32.0865 142.197 32.0865Z" fill="#9F616A"/>
<path d="M150.781 41.8963L147.978 44.6991L144.124 42.597C144.124 42.597 138.168 39.0935 140.796 38.568C142.486 38.2299 142.581 35.6443 142.435 33.8435C142.388 33.2539 142.308 32.6674 142.197 32.0865C142.197 32.0865 152.094 29.0209 150.168 32.8748C149.875 33.4699 149.672 34.1051 149.565 34.7597C148.975 38.2228 150.781 41.8963 150.781 41.8963Z" fill="#9F616A"/>
<path d="M160.59 113.542V117.571H167.247L167.772 115.995L167.072 111.791L160.59 113.542Z" fill="#575A88"/>
<path d="M133.088 72.7268C133.088 72.7268 133.088 83.0621 137.293 83.4125C141.497 83.7628 156.562 85.6898 156.562 85.6898C156.562 85.6898 157.438 102.857 159.014 108.462C160.591 114.068 159.189 114.418 160.591 114.769C161.992 115.119 167.948 113.893 167.773 112.667C167.598 111.44 166.897 80.4345 166.897 80.4345C166.897 80.4345 168.474 73.7779 147.453 70.6248L133.088 72.7268Z" fill="#2F2E41"/>
<path d="M161.116 116.345C161.116 116.345 160.065 114.068 159.89 114.769C159.715 115.47 157.613 121.601 159.715 122.126C161.817 122.652 168.474 125.455 172.853 125.279C177.232 125.104 177.758 124.929 177.758 124.929C177.758 124.929 178.984 123.177 177.407 122.126C175.831 121.075 169.349 114.944 168.999 114.243C168.649 113.543 166.021 113.017 166.021 114.243C166.021 115.47 162.342 117.922 161.116 116.345Z" fill="#2F2E41"/>
<path opacity="0.1" d="M150.168 34.294C149.875 34.8891 149.672 35.5243 149.565 36.1789C148.693 36.7061 148.11 36.5712 147.015 36.5712C145.391 36.5712 144.736 34.4954 143.686 33.4181C143.604 32.4179 142.198 33.5057 142.198 33.5057C142.198 33.5057 152.095 30.4401 150.168 34.294Z" fill="black"/>
<path d="M146.781 36.2222C150.486 36.2222 153.49 33.2187 153.49 29.5137C153.49 25.8087 150.486 22.8052 146.781 22.8052C143.076 22.8052 140.073 25.8087 140.073 29.5137C140.073 33.2187 143.076 36.2222 146.781 36.2222Z" fill="#9F616A"/>
<path d="M156.562 47.5019C156.562 47.5019 155.686 53.8082 155.16 56.0855C154.635 58.3627 153.934 68.8732 153.584 70.2746C153.233 71.676 151.131 72.0264 146.927 71.5008C146.663 71.4676 146.398 71.4477 146.132 71.4413C143.543 71.359 140.581 72.3277 137.839 73.0879C136.262 73.5259 134.758 73.8937 133.439 73.9533C131.442 74.0443 130.857 71.8302 130.925 69.4338C130.99 67.2038 131.622 64.8127 132.212 63.9683C133.276 62.4478 132.23 48.7964 132.622 44.2945V44.2927C132.682 43.606 132.775 43.133 132.913 42.9474C133.964 41.546 140.796 38.0425 141.562 38.1844C142.325 38.3263 148.854 42.4218 148.854 42.4218C150.431 42.4218 150.38 40.7121 150.38 40.7121C150.38 40.7121 151.482 42.7722 153.584 43.2977C155.686 43.8232 156.562 47.5019 156.562 47.5019Z" fill="#856FB3"/>
<path d="M144.851 70.2119C144.851 70.2119 156.135 70.5712 154.159 71.9118C152.182 73.2525 143.423 74.4787 143.248 72.7269C143.073 70.9752 144.851 70.2119 144.851 70.2119Z" fill="#9F616A"/>
<path opacity="0.1" d="M146.132 71.4412C146.168 72.1139 144.359 73.6292 143.774 74.654C143.45 75.2215 140.941 74.4735 137.839 73.0879C135.458 72.0194 133.149 70.7988 130.925 69.4338C130.99 67.2038 131.622 64.8127 132.212 63.9683C133.276 62.4478 132.23 48.7964 132.622 44.2945V44.2927C132.716 44.2452 132.813 44.2054 132.913 44.1736H135.015C142.197 47.5019 133.964 61.8662 133.964 61.8662C133.964 61.8662 144.825 70.8001 145.876 71.1505C145.945 71.1635 146.007 71.1992 146.054 71.2519C146.1 71.3046 146.128 71.3712 146.132 71.4412Z" fill="black"/>
<path d="M135.015 43.1226H132.913C132.913 43.1226 130.986 43.6481 129.41 47.1516C127.833 50.6551 122.052 61.5159 127.132 65.7201C132.212 69.9243 143.073 74.8291 143.774 73.6029C144.475 72.3767 146.927 70.4498 145.876 70.0994C144.825 69.7491 133.964 60.8152 133.964 60.8152C133.964 60.8152 142.197 46.4509 135.015 43.1226Z" fill="#856FB3"/>
<path d="M145.749 26.3921C145.749 26.3921 146.044 22.3166 149.675 23.9784C153.307 25.6401 153.07 21.0598 151.973 20.2504C150.875 19.4411 150.91 19.2407 146.896 19.7823C142.882 20.3238 135.089 21.2413 137.608 29.3126C140.128 37.3838 142.411 35.3075 142.411 35.3075C142.411 35.3075 140.408 28.0444 142.437 29.4282L144.467 30.8119L145.538 30.585L145.749 26.3921Z" fill="#2F2E41"/>
<path opacity="0.4" d="M103.519 14.7831C107.602 14.7831 110.911 11.4738 110.911 7.39155C110.911 3.30931 107.602 0 103.519 0C99.4372 0 96.1279 3.30931 96.1279 7.39155C96.1279 11.4738 99.4372 14.7831 103.519 14.7831Z" fill="#B3A3D4"/>
<path opacity="0.4" d="M89.8401 16.107C92.7038 16.107 95.0253 13.7856 95.0253 10.9219C95.0253 8.05827 92.7038 5.73682 89.8401 5.73682C86.9765 5.73682 84.655 8.05827 84.655 10.9219C84.655 13.7856 86.9765 16.107 89.8401 16.107Z" fill="#B3A3D4"/>
<path opacity="0.4" d="M219.231 92.5111C222.094 92.5111 224.416 90.1896 224.416 87.326C224.416 84.4623 222.094 82.1409 219.231 82.1409C216.367 82.1409 214.045 84.4623 214.045 87.326C214.045 90.1896 216.367 92.5111 219.231 92.5111Z" fill="#B3A3D4"/>
<path d="M243.377 125.238H7.30432V124.765H243.14L243.377 125.238Z" fill="#2F2E41"/>
</g>
<defs>
<clipPath id="clip0">
<rect width="250" height="125.698" fill="white"/>
</clipPath>
</defs>
</svg>
