<svg width="250" height="210" viewBox="0 0 250 210" fill="none" xmlns="http://www.w3.org/2000/svg">
<g clip-path="url(#clip0)">
<path d="M70.2039 47.3637C80.4005 47.3637 88.6664 39.0978 88.6664 28.9012C88.6664 18.7047 80.4005 10.4387 70.2039 10.4387C60.0074 10.4387 51.7415 18.7047 51.7415 28.9012C51.7415 39.0978 60.0074 47.3637 70.2039 47.3637Z" fill="#F0C864"/>
<path d="M178.013 34.2843H155.867V14.1519L178.013 34.2843Z" fill="#3F3D56"/>
<path d="M180.601 33.625H69.1934V187.542H180.601V33.625Z" fill="#E6E6E6"/>
<path d="M93.4144 44.417H80.3076V72.0349H93.4144V44.417Z" fill="white"/>
<path d="M113.688 44.417H100.582V72.0349H113.688V44.417Z" fill="white"/>
<path d="M91.6871 83.5615H78.5803V111.179H91.6871V83.5615Z" fill="white"/>
<path d="M113.688 83.5615H100.582V111.179H113.688V83.5615Z" fill="white"/>
<path d="M91.6871 119.781H78.5803V147.399H91.6871V119.781Z" fill="white"/>
<path d="M113.195 119.288H100.088V146.906H113.195V119.288Z" fill="white"/>
<path d="M132.244 159.986H119.137V187.604H132.244V159.986Z" fill="#CCCCCC"/>
<path d="M152.047 119.288H138.94V146.906H152.047V119.288Z" fill="white"/>
<path d="M174.047 119.288H160.94V146.906H174.047V119.288Z" fill="white"/>
<path d="M152.541 83.269H139.434V110.887H152.541V83.269Z" fill="white"/>
<path d="M174.541 83.269H161.434V110.887H174.541V83.269Z" fill="white"/>
<path d="M152.541 44.417H139.434V72.0349H152.541V44.417Z" fill="white"/>
<path d="M174.541 44.417H161.434V72.0349H174.541V44.417Z" fill="white"/>
<path d="M180.601 69.2007H69.1934V73.4136H180.601V69.2007Z" fill="#3F3D56"/>
<path d="M180.601 101.968H69.1934V104.308H180.601V101.968Z" fill="#3F3D56"/>
<path d="M180.601 94.478H69.1934V96.8185H180.601V94.478Z" fill="#3F3D56"/>
<path d="M80.1931 149.246V130.522H77.8526V149.246H80.1931Z" fill="#3F3D56"/>
<path d="M93.3003 149.246V130.522H90.9598V149.246H93.3003Z" fill="#3F3D56"/>
<path d="M106.407 149.246V130.522H104.066V149.246H106.407Z" fill="#3F3D56"/>
<path d="M119.514 149.246V130.522H117.173V149.246H119.514Z" fill="#3F3D56"/>
<path d="M132.62 149.246V130.522H130.28V149.246H132.62Z" fill="#3F3D56"/>
<path d="M145.728 149.246V130.522H143.387V149.246H145.728Z" fill="#3F3D56"/>
<path d="M158.834 149.246V130.522H156.493V149.246H158.834Z" fill="#3F3D56"/>
<path d="M171.941 149.246V130.522H169.601V149.246H171.941Z" fill="#3F3D56"/>
<path d="M80.4277 113.67V94.9463H78.0872V113.67H80.4277Z" fill="#3F3D56"/>
<path d="M93.5342 113.67V94.9463H91.1937V113.67H93.5342Z" fill="#3F3D56"/>
<path d="M106.641 113.67V94.9463H104.301V113.67H106.641Z" fill="#3F3D56"/>
<path d="M119.748 113.67V94.9463H117.407V113.67H119.748Z" fill="#3F3D56"/>
<path d="M132.855 113.67V94.9463H130.514V113.67H132.855Z" fill="#3F3D56"/>
<path d="M145.961 113.67V94.9463H143.621V113.67H145.961Z" fill="#3F3D56"/>
<path d="M159.069 113.67V94.9463H156.728V113.67H159.069Z" fill="#3F3D56"/>
<path d="M172.175 113.67V94.9463H169.835V113.67H172.175Z" fill="#3F3D56"/>
<path d="M80.4277 72.0092V53.2852H78.0872V72.0092H80.4277Z" fill="#3F3D56"/>
<path d="M93.5342 72.0092V53.2852H91.1937V72.0092H93.5342Z" fill="#3F3D56"/>
<path d="M106.641 72.0092V53.2852H104.301V72.0092H106.641Z" fill="#3F3D56"/>
<path d="M119.748 72.0092V53.2852H117.407V72.0092H119.748Z" fill="#3F3D56"/>
<path d="M132.855 72.0095V53.2854H130.514V72.0095H132.855Z" fill="#3F3D56"/>
<path d="M145.961 72.0092V53.2852H143.621V72.0092H145.961Z" fill="#3F3D56"/>
<path d="M159.069 72.0092V53.2852H156.728V72.0092H159.069Z" fill="#3F3D56"/>
<path d="M172.175 72.0092V53.2852H169.835V72.0092H172.175Z" fill="#3F3D56"/>
<path d="M180.601 59.8389H69.1934V62.1794H180.601V59.8389Z" fill="#3F3D56"/>
<path d="M180.601 52.3491H69.1934V54.6896H180.601V52.3491Z" fill="#3F3D56"/>
<path d="M180.601 109.926H69.1934V114.138H180.601V109.926Z" fill="#3F3D56"/>
<path d="M185.727 31.8931H64.0662V38.171H185.727V31.8931Z" fill="#3F3D56"/>
<path d="M93.4394 165.957V159.985H86.2729V165.957H92.8421H93.4394Z" fill="white"/>
<path d="M92.8421 170.735H86.2729V176.707H93.4394V170.735H92.8421Z" fill="white"/>
<path d="M105.384 159.986H98.2173V165.958H105.384V159.986Z" fill="white"/>
<path d="M105.384 170.735H98.2173V176.707H105.384V170.735Z" fill="white"/>
<path d="M151.889 165.957V159.985H144.722V165.957H151.291H151.889Z" fill="white"/>
<path d="M151.291 170.735H144.722V176.707H151.889V170.735H151.291Z" fill="white"/>
<path d="M163.832 159.986H156.666V165.958H163.832V159.986Z" fill="white"/>
<path d="M163.832 170.735H156.666V176.707H163.832V170.735Z" fill="white"/>
<path d="M180.601 145.501H69.1934V149.714H180.601V145.501Z" fill="#3F3D56"/>
<path d="M180.601 138.012H69.1934V140.352H180.601V138.012Z" fill="#3F3D56"/>
<path d="M180.601 130.522H69.1934V132.862H180.601V130.522Z" fill="#3F3D56"/>
<path d="M102.921 185.535C102.921 185.405 102.919 185.275 102.915 185.146C102.815 181.696 99.3923 180.76 97.5572 182.393C96.9781 181.891 96.237 181.614 95.47 181.614C94.703 181.614 93.9619 181.891 93.3828 182.393C91.5399 180.786 88.1851 181.655 88.0743 185.066C88.0701 185.195 88.0679 185.325 88.0676 185.455C88.073 186.173 88.117 186.889 88.1993 187.602H102.791C102.87 186.916 102.913 186.226 102.921 185.535Z" fill="#856FB3"/>
<path d="M160.914 185.535C160.914 185.405 160.912 185.275 160.908 185.146C160.808 181.696 157.385 180.76 155.55 182.393C154.971 181.891 154.23 181.614 153.463 181.614C152.696 181.614 151.955 181.891 151.376 182.393C149.533 180.786 146.178 181.655 146.067 185.066C146.063 185.195 146.061 185.325 146.061 185.455C146.066 186.173 146.11 186.889 146.192 187.602H160.784C160.863 186.916 160.906 186.226 160.914 185.535Z" fill="#856FB3"/>
<path d="M240.939 187.835H238.683L239.435 143.754H240.187L240.939 187.835Z" fill="#E6E6E6"/>
<path d="M242.82 116.001L246.463 110.372C245.382 107.388 244.135 104.467 242.725 101.623L240.37 103.526L242.235 100.643C240.458 97.1446 239.059 94.9402 239.059 94.9402C239.059 94.9402 231.753 106.453 229.313 118.642L233.987 125.866L228.812 121.686C228.628 123.106 228.533 124.536 228.528 125.968C228.528 140.404 233.243 152.106 239.059 152.106C244.875 152.106 249.59 140.404 249.59 125.968C249.59 121.493 248.577 116.81 247.18 112.479L242.82 116.001Z" fill="#E6E6E6"/>
<path d="M232.994 126.178H184.851V161.627H184.88V168.685L191.937 161.627H232.994V126.178Z" fill="#856FB3"/>
<path d="M172.112 201.885H129.399V203.573H172.112V201.885Z" fill="#E6E6E6"/>
<path d="M250 201.885H207.057V203.573H250V201.885Z" fill="#E6E6E6"/>
<path d="M94.5094 201.885H51.7415V203.573H94.5094V201.885Z" fill="#E6E6E6"/>
<path d="M249.824 187.565H0V188.036H249.824V187.565Z" fill="#3F3D56"/>
<path d="M195.943 195.695L200.973 195.697L200.973 194.899L195.943 194.896L195.943 195.695Z" fill="#3F3D56"/>
<path d="M159.578 195.077L160.615 195.317L200.054 195.338L200.409 194.511C201.027 193.094 201.24 191.533 201.022 190.002C200.852 188.861 200.427 187.727 199.46 187.234L197.71 175.577L175.89 175.538L167.448 182.347C167.448 182.347 163.466 182.275 161.303 184.969C160.522 185.97 160.061 187.183 159.98 188.45L159.895 189.852L159.578 195.077Z" fill="#856FB3"/>
<path d="M168.24 199.751C170.93 199.751 173.11 197.571 173.11 194.881C173.11 192.192 170.93 190.011 168.24 190.011C165.55 190.011 163.37 192.192 163.37 194.881C163.37 197.571 165.55 199.751 168.24 199.751Z" fill="#3F3D56"/>
<path d="M168.24 197.445C169.656 197.445 170.803 196.297 170.803 194.881C170.803 193.466 169.656 192.318 168.24 192.318C166.824 192.318 165.677 193.466 165.677 194.881C165.677 196.297 166.824 197.445 168.24 197.445Z" fill="#CCCCCC"/>
<path d="M192.271 199.764C194.96 199.764 197.141 197.584 197.141 194.894C197.141 192.205 194.96 190.024 192.271 190.024C189.581 190.024 187.401 192.205 187.401 194.894C187.401 197.584 189.581 199.764 192.271 199.764Z" fill="#3F3D56"/>
<path d="M192.27 197.457C193.686 197.457 194.834 196.31 194.834 194.894C194.834 193.479 193.686 192.331 192.27 192.331C190.855 192.331 189.707 193.479 189.707 194.894C189.707 196.31 190.855 197.457 192.27 197.457Z" fill="#CCCCCC"/>
<path d="M170.802 181.551L182.583 181.556H184.021L186.449 181.558V181.381L186.451 179.246L186.453 176.848H184.838L183.399 176.847L180.852 176.845H179.414L176.473 176.843L170.802 181.551Z" fill="white"/>
<path d="M188.366 181.559L194.593 181.563L194.594 180.341V178.206L194.596 176.853H193.684L192.246 176.852L188.368 176.85L188.366 181.559Z" fill="white"/>
<path d="M185.648 186.589L186.446 186.589L186.447 185.072L185.649 185.072L185.648 186.589Z" fill="#3F3D56"/>
<path d="M173.995 183.709L173.996 182.91L172.479 182.909L172.478 183.708L173.995 183.709Z" fill="#3F3D56"/>
<path d="M173.436 183.26L173.348 183.26C172.906 183.26 172.481 183.084 172.169 182.771C171.856 182.458 171.68 182.033 171.681 181.591C171.681 181.148 171.857 180.724 172.17 180.411C172.483 180.098 172.907 179.923 173.35 179.923L173.438 179.923L173.436 183.26Z" fill="#3F3D56"/>
<path d="M159.896 189.852C160.499 189.917 161.107 189.768 161.611 189.429C162.115 189.091 162.484 188.586 162.652 188.002C162.821 187.419 162.778 186.794 162.531 186.239C162.284 185.685 161.849 185.235 161.303 184.969C160.523 185.97 160.062 187.183 159.981 188.45L159.896 189.852Z" fill="#3F3D56"/>
<path d="M183.4 176.847L186.45 181.381L186.451 179.246L184.838 176.848L183.4 176.847Z" fill="#F2F2F2"/>
<path d="M192.246 176.852L194.594 180.341V178.206L193.684 176.853L192.246 176.852Z" fill="#F2F2F2"/>
<path d="M179.414 176.845L182.583 181.556H184.021L180.852 176.845H179.414Z" fill="#F2F2F2"/>
<path d="M115.472 0.294858L115.44 0.312585C115.088 0.504815 114.694 0.606233 114.294 0.607638C113.893 0.609043 113.499 0.51039 113.146 0.320631C113.125 0.309663 113.105 0.298833 113.085 0.288141C112.732 0.0998218 112.338 0.0019705 111.938 0.00335134C111.538 0.00473219 111.145 0.105303 110.794 0.296054L110.763 0.312585C110.412 0.504815 110.018 0.606233 109.617 0.607638C109.217 0.609043 108.822 0.51039 108.469 0.320631C108.448 0.309245 108.427 0.298007 108.406 0.286915C108.058 0.0994592 107.668 0.00100781 107.272 0.000307371C106.876 -0.000393073 106.486 0.0966799 106.137 0.282901C105.07 0.85755 103.627 1.84006 103.634 2.94965C103.634 2.99353 103.637 3.03737 103.641 3.08099C103.765 4.2333 107.524 4.52692 109.588 3.98386C111.128 4.33504 112.726 4.33504 114.265 3.98386C116.321 4.53561 120.156 4.2195 120.268 3.05397C120.272 3.0103 120.274 2.96645 120.274 2.92257C120.268 1.81238 118.812 0.84017 117.739 0.27361C117.388 0.0903473 116.998 -0.00360121 116.603 0.000105584C116.207 0.00381238 115.819 0.105059 115.472 0.294858Z" fill="#E6E6E6"/>
<path d="M219.016 38.3403L218.983 38.358C218.632 38.5502 218.238 38.6516 217.837 38.653C217.437 38.6545 217.042 38.5558 216.689 38.366C216.669 38.3551 216.649 38.3442 216.629 38.3336C216.276 38.1452 215.882 38.0474 215.482 38.0488C215.082 38.0501 214.689 38.1507 214.337 38.3415L214.307 38.358C213.955 38.5502 213.561 38.6516 213.161 38.653C212.76 38.6545 212.365 38.5558 212.013 38.366C211.991 38.3547 211.97 38.3434 211.95 38.3323C211.601 38.1449 211.211 38.0464 210.816 38.0457C210.42 38.045 210.03 38.1421 209.681 38.3283C208.613 38.903 207.171 39.8855 207.177 40.9951C207.178 41.0389 207.18 41.0828 207.185 41.1264C207.309 42.2787 211.067 42.5723 213.132 42.0293C214.671 42.3805 216.269 42.3805 217.809 42.0293C219.864 42.581 223.699 42.2649 223.811 41.0994C223.816 41.0557 223.818 41.0119 223.817 40.968C223.811 39.8578 222.356 38.8856 221.282 38.319C220.932 38.1358 220.542 38.0418 220.146 38.0455C219.751 38.0492 219.363 38.1505 219.016 38.3403Z" fill="#E6E6E6"/>
<path d="M37.6943 40.4641L37.6618 40.4818C37.3103 40.674 36.9164 40.7754 36.5158 40.7768C36.1151 40.7782 35.7205 40.6796 35.3677 40.4898C35.3474 40.4788 35.3271 40.468 35.307 40.4573C34.9542 40.269 34.5602 40.1712 34.1603 40.1725C33.7604 40.1739 33.367 40.2745 33.0155 40.4652L32.9852 40.4818C32.6337 40.674 32.2398 40.7754 31.8391 40.7768C31.4385 40.7782 31.0439 40.6796 30.6911 40.4898C30.67 40.4784 30.649 40.4672 30.6281 40.4561C30.2795 40.2686 29.8899 40.1702 29.4941 40.1695C29.0982 40.1688 28.7083 40.2659 28.359 40.4521C27.2919 41.0267 25.8494 42.0092 25.8557 43.1188C25.856 43.1627 25.8585 43.2066 25.8632 43.2502C25.9873 44.4025 29.7457 44.6961 31.8104 44.1531C33.3495 44.5042 34.9479 44.5042 36.487 44.1531C38.5429 44.7048 42.3778 44.3887 42.4899 43.2232C42.4941 43.1795 42.4961 43.1356 42.4958 43.0918C42.4895 41.9816 41.0342 41.0094 39.9604 40.4428C39.6102 40.2595 39.22 40.1656 38.8247 40.1693C38.4294 40.173 38.0411 40.2743 37.6943 40.4641Z" fill="#E6E6E6"/>
<path d="M30.994 204.464H25.9644V205.263H30.994V204.464Z" fill="#3F3D56"/>
<path d="M67.359 204.643L66.3213 204.883L26.8824 204.904L26.5277 204.078C25.9092 202.661 25.6969 201.099 25.9146 199.568C26.0844 198.427 26.5101 197.293 27.4768 196.801L29.227 185.144L51.0465 185.105L59.4884 191.914C59.4884 191.914 63.4705 191.842 65.6339 194.535C66.4144 195.537 66.8751 196.75 66.9563 198.017L67.0417 199.418L67.359 204.643Z" fill="#856FB3"/>
<path d="M58.6966 209.318C61.3863 209.318 63.5666 207.138 63.5666 204.448C63.5666 201.758 61.3863 199.578 58.6966 199.578C56.007 199.578 53.8267 201.758 53.8267 204.448C53.8267 207.138 56.007 209.318 58.6966 209.318Z" fill="#3F3D56"/>
<path d="M58.6969 207.011C60.1125 207.011 61.2601 205.864 61.2601 204.448C61.2601 203.033 60.1125 201.885 58.6969 201.885C57.2814 201.885 56.1338 203.033 56.1338 204.448C56.1338 205.864 57.2814 207.011 58.6969 207.011Z" fill="#CCCCCC"/>
<path d="M34.6659 209.331C37.3555 209.331 39.5359 207.151 39.5359 204.461C39.5359 201.771 37.3555 199.591 34.6659 199.591C31.9763 199.591 29.7959 201.771 29.7959 204.461C29.7959 207.151 31.9763 209.331 34.6659 209.331Z" fill="#3F3D56"/>
<path d="M34.6662 207.024C36.0818 207.024 37.2293 205.876 37.2293 204.461C37.2293 203.045 36.0818 201.898 34.6662 201.898C33.2506 201.898 32.103 203.045 32.103 204.461C32.103 205.876 33.2506 207.024 34.6662 207.024Z" fill="#CCCCCC"/>
<path d="M56.1344 191.118L44.3535 191.123H42.9154L40.4875 191.125V190.947L40.4858 188.812L40.4841 186.415H42.0995L43.5375 186.413L46.0848 186.411H47.5228L50.4637 186.41L56.1344 191.118Z" fill="white"/>
<path d="M38.5703 191.126L32.3442 191.129L32.3425 189.908V187.773L32.3408 186.42H33.2525L34.6905 186.418L38.5686 186.417L38.5703 191.126Z" fill="white"/>
<path d="M41.2876 194.638H40.4893V196.155H41.2876V194.638Z" fill="#3F3D56"/>
<path d="M54.4594 193.273L54.459 192.475L52.9421 192.476L52.9425 193.274L54.4594 193.273Z" fill="#3F3D56"/>
<path d="M53.5 189.489H53.5878C53.8069 189.489 54.0239 189.532 54.2264 189.616C54.4288 189.7 54.6127 189.823 54.7677 189.978C54.9226 190.133 55.0455 190.317 55.1294 190.519C55.2132 190.722 55.2564 190.939 55.2564 191.158C55.2564 191.6 55.0806 192.025 54.7677 192.338C54.4548 192.651 54.0304 192.826 53.5878 192.826H53.5V189.489H53.5Z" fill="#3F3D56"/>
<path d="M67.0415 199.418C66.4378 199.484 65.8302 199.334 65.3259 198.996C64.8215 198.658 64.4528 198.152 64.2845 197.569C64.1163 196.985 64.1594 196.361 64.4062 195.806C64.653 195.251 65.0877 194.801 65.6338 194.535C66.4142 195.537 66.875 196.75 66.9561 198.017L67.0415 199.418Z" fill="#3F3D56"/>
<path d="M43.5378 186.413L40.4878 190.947L40.4861 188.812L42.0997 186.415L43.5378 186.413Z" fill="#F2F2F2"/>
<path d="M34.6905 186.418L32.3425 189.908V187.773L33.2525 186.42L34.6905 186.418Z" fill="#F2F2F2"/>
<path d="M47.5224 186.411L44.3531 191.123H42.915L46.0844 186.411H47.5224Z" fill="#F2F2F2"/>
<path d="M207.236 151.458L201.088 143.554L204.663 140.773L207.573 144.515L217.407 134.135L220.696 137.25L207.236 151.458Z" fill="white"/>
<path d="M1.78394 135.148H49.9271V170.597H49.8979V177.654L42.8403 170.597H1.78394V135.148Z" fill="#856FB3"/>
<path d="M24.4907 161.271L18.3428 153.367L21.9181 150.586L24.8289 154.329L34.6624 143.949L37.9507 147.064L24.4907 161.271Z" fill="white"/>
</g>
<defs>
<clipPath id="clip0">
<rect width="250" height="209.331" fill="white"/>
</clipPath>
</defs>
</svg>
