<svg width="250" height="324" viewBox="0 0 250 324" fill="none" xmlns="http://www.w3.org/2000/svg">
<g clip-path="url(#clip0)">
<path d="M98.4497 32.566C108.745 32.566 117.091 26.0562 117.091 18.0259C117.091 9.99565 108.745 3.48584 98.4497 3.48584C88.1544 3.48584 79.8083 9.99565 79.8083 18.0259C79.8083 26.0562 88.1544 32.566 98.4497 32.566Z" fill="#3F3D56"/>
<path d="M135.732 94.0807C150.558 94.0807 162.576 82.0622 162.576 67.2368C162.576 52.4113 150.558 40.3928 135.732 40.3928C120.907 40.3928 108.888 52.4113 108.888 67.2368C108.888 82.0622 120.907 94.0807 135.732 94.0807Z" fill="#3F3D56"/>
<path d="M220.92 311.998C224.625 311.998 227.629 308.995 227.629 305.29C227.629 301.585 224.625 298.581 220.92 298.581C217.215 298.581 214.211 301.585 214.211 305.29C214.211 308.995 217.215 311.998 220.92 311.998Z" fill="#3F3D56"/>
<path d="M185.878 311.998C189.583 311.998 192.587 308.995 192.587 305.29C192.587 301.585 189.583 298.581 185.878 298.581C182.173 298.581 179.169 301.585 179.169 305.29C179.169 308.995 182.173 311.998 185.878 311.998Z" fill="#3F3D56"/>
<path d="M196.317 143.484H193.333V225.881H196.317V143.484Z" fill="#3F3D56"/>
<path d="M212.346 143.484H209.363V225.881H212.346V143.484Z" fill="#3F3D56"/>
<path d="M194.062 145.72L193.315 143.484C193.315 143.484 201.517 133.792 213.074 141.605L212.327 144.964H209.344C209.344 144.964 204.5 140.9 196.298 145.542L194.062 145.72Z" fill="#3F3D56"/>
<path d="M143.935 131.739H117.091V166.039H143.935V131.739Z" fill="#FBBEBE"/>
<path d="M162.577 122.043H154.374V138.448H162.577V122.043Z" fill="#FBBEBE"/>
<path d="M120.633 298.581L117.279 308.649C117.279 308.649 115.785 316.104 120.633 316.476C125.482 316.847 133.318 315.357 133.318 315.357C133.318 315.357 134.436 312.003 133.318 309.02C132.2 306.037 128.845 297.834 128.845 297.834L120.633 298.581Z" fill="#3C354C"/>
<path d="M145.983 298.952C145.983 298.952 140.764 312.003 144.865 314.239C148.966 316.476 154.562 314.611 159.034 316.476C163.506 318.341 175.81 313.868 175.81 313.868C175.81 313.868 177.304 309.767 169.102 308.649C169.102 308.649 160.176 301.936 160.176 300.446C160.176 298.957 154.956 298.952 154.956 298.952H145.983Z" fill="#3C354C"/>
<path d="M144.865 150.197C144.865 150.197 114.296 156.535 110.57 154.67C106.845 152.805 103.115 180.039 103.115 180.039C103.115 180.039 101.621 196.444 106.84 218.439C112.06 240.435 106.84 251.25 106.84 251.25C106.84 251.25 107.587 272.127 113.182 281.824C118.778 291.52 118.773 300.465 118.773 300.465C118.773 300.465 129.578 301.583 129.959 298.971C129.959 298.971 125.482 288.533 126.229 278.841C126.975 269.149 123.992 250.503 123.992 250.503C123.992 250.503 128.841 227.013 128.094 218.087C127.347 209.161 130.706 190.125 132.566 193.479C134.426 196.834 139.279 213.239 139.279 216.598C139.279 219.957 141.159 242.319 142.263 243.813C143.367 245.307 143.005 249.779 142.634 252.016C142.263 254.252 142.263 271.028 144.123 279.978C145.983 288.927 144.499 298.99 144.87 300.484C145.241 301.978 156.056 300.855 156.427 298.243C156.427 298.243 157.921 282.214 158.668 279.978C159.415 277.741 159.767 249.366 159.767 249.366C159.767 249.366 160.509 227.37 161.256 225.134C162.003 222.898 163.135 174.8 158.273 169.229C153.411 163.657 155.29 149.469 155.29 149.469L144.865 150.197Z" fill="#3F3D56"/>
<path d="M119.736 85.2485C118.355 87.8512 116.964 90.4773 116.1 93.3008C115.236 96.1242 114.935 99.1826 115.748 102.02C116.329 103.792 117.138 105.482 118.153 107.047C118.961 108.542 119.985 109.91 121.193 111.106C124.011 113.68 128.108 114.197 131.913 114.601C132.566 114.71 133.233 114.699 133.882 114.568C134.402 114.417 134.883 114.154 135.291 113.798C136.959 112.388 137.715 110.237 138.326 108.16C139.778 103.222 140.819 98.1716 141.436 93.0612C141.579 92.2532 141.579 91.4263 141.436 90.6183C141.107 89.2089 139.979 88.1143 139.162 86.9022C138.183 85.4538 137.624 83.7629 137.546 82.0164C137.513 81.166 137.546 80.2264 137.01 79.5781C136.654 79.2252 136.222 78.9585 135.747 78.7983C133.525 77.8587 131.307 76.9191 129.08 76.0171C127.737 75.4627 125.322 73.9876 123.913 75.0775C122.705 76.0171 123.288 78.1969 122.771 79.503C121.977 81.4855 120.732 83.3694 119.736 85.2485Z" fill="#FBBEBE"/>
<path opacity="0.1" d="M119.736 85.2485C118.355 87.8512 116.964 90.4773 116.1 93.3008C115.236 96.1242 114.935 99.1826 115.748 102.02C116.329 103.792 117.138 105.482 118.153 107.047C118.961 108.542 119.985 109.91 121.193 111.106C124.011 113.68 128.108 114.197 131.913 114.601C132.566 114.71 133.233 114.699 133.882 114.568C134.402 114.417 134.883 114.154 135.291 113.798C136.959 112.388 137.715 110.237 138.326 108.16C139.778 103.222 140.819 98.1716 141.436 93.0612C141.579 92.2532 141.579 91.4263 141.436 90.6183C141.107 89.2089 139.979 88.1143 139.162 86.9022C138.183 85.4538 137.624 83.7629 137.546 82.0164C137.513 81.166 137.546 80.2264 137.01 79.5781C136.654 79.2252 136.222 78.9585 135.747 78.7983C133.525 77.8587 131.307 76.9191 129.08 76.0171C127.737 75.4627 125.322 73.9876 123.913 75.0775C122.705 76.0171 123.288 78.1969 122.771 79.503C121.977 81.4855 120.732 83.3694 119.736 85.2485Z" fill="black"/>
<path d="M134.426 86.0707C141.634 86.0707 147.477 80.2276 147.477 73.0198C147.477 65.812 141.634 59.969 134.426 59.969C127.218 59.969 121.375 65.812 121.375 73.0198C121.375 80.2276 127.218 86.0707 134.426 86.0707Z" fill="#FBBEBE"/>
<path d="M139.007 105.934C136.536 106.822 133.985 107.587 131.359 107.681C129.391 107.701 127.428 107.491 125.51 107.056C121.545 106.268 117.652 105.157 113.868 103.735C113.06 105.328 112.844 107.146 112.774 108.931C112.572 114.329 113.647 119.684 114.061 125.073C114.582 131.923 114.061 138.922 115.823 145.556C115.924 144.429 116.363 143.358 117.082 142.483C117.68 141.838 118.396 141.312 119.191 140.933C122.746 139.095 126.841 138.585 130.738 139.496C132.998 140.031 135.399 141.032 137.541 140.134C138.819 139.594 139.744 138.457 140.454 137.264C141.658 135.111 142.517 132.782 143 130.363C144.409 124.143 144.597 117.711 144.766 111.332C144.813 109.626 145.546 104.557 144.132 103.307C143.141 102.438 142.85 103.679 142.136 104.327C141.207 105.06 140.144 105.606 139.007 105.934Z" fill="#F2F2F2"/>
<path d="M120.638 83.5291C119.769 82.8479 118.482 83.0593 117.523 83.6371C116.565 84.215 115.79 85.0136 114.817 85.5398C112.121 87.0009 108.499 85.9297 105.938 87.6304C103.533 89.2324 103.12 92.5303 102.932 95.4148C102.462 102.744 102.058 110.124 100.296 117.255C99.8263 119.135 99.2625 121.061 99.4411 122.996C99.5816 124.102 99.8431 125.189 100.221 126.238L102.532 133.459C103.603 136.813 104.689 140.219 104.801 143.738C104.914 147.256 104.087 150.601 103.265 153.96C101.64 160.578 100.583 167.322 100.103 174.119C99.9578 176.369 99.8967 178.718 100.808 180.781C101.748 182.937 103.655 184.539 105.666 185.756C107.677 186.973 109.861 187.912 111.829 189.204C115.78 191.802 118.952 195.894 123.574 196.96C125.693 197.43 127.91 197.242 130.043 196.829C130.043 196.829 128.836 141.995 125.477 134.163C122.118 126.332 119.139 92.4082 119.139 91.2901C119.139 90.172 120.638 83.5291 120.638 83.5291Z" fill="#CDAB3C"/>
<path d="M138.781 85.3237C138.781 85.3237 156.422 85.3237 159.034 94.6444C161.646 103.965 151.579 119.252 151.579 119.252C151.579 119.252 155.68 149.45 157.54 152.434C159.401 155.417 158.663 161.36 158.663 161.36C160.014 165.45 160.27 169.824 159.405 174.044C157.916 180.753 152.321 192.685 152.321 192.685C152.321 192.685 144.865 192.685 143 197.158C141.135 201.63 140.764 177.769 140.764 177.769C140.764 177.769 134.055 134.149 134.426 131.542C134.798 128.935 136.663 107.305 137.41 101.339C138.157 95.3726 139.782 87.5599 138.781 85.3237Z" fill="#CDAB3C"/>
<path d="M152.321 91.29C152.321 91.29 160.899 93.8974 160.899 96.8806C160.899 99.8637 163.526 115.893 163.526 121.112C163.526 126.332 162.407 127.079 163.526 128.944C164.644 130.809 151.598 130.062 151.598 130.062L149.225 108.813L152.321 91.29Z" fill="#CDAB3C"/>
<path d="M101.616 118.134C101.616 118.134 118.397 119.252 121.38 117.011C124.364 114.77 137.039 119.994 138.157 122.978C139.275 125.961 120.258 126.332 117.279 126.332C114.301 126.332 100.127 130.809 100.127 130.809L101.616 118.134Z" fill="#A0616A"/>
<path d="M67.0724 291.802C67.0724 291.802 59.2504 311.533 63.3141 313.882C67.3778 316.231 110.228 314.559 110.228 314.559C110.228 314.559 117.364 310.143 109.208 307.08C109.208 307.08 102.405 306.742 97.9894 304.021C93.5734 301.301 88.4667 296.204 88.4667 296.204C88.4667 296.204 88.1285 288.725 85.4084 290.426C84.5947 290.962 83.9023 291.662 83.3756 292.481C82.8488 293.301 82.4995 294.222 82.35 295.185L67.0724 291.802Z" fill="#3F3D56"/>
<path opacity="0.1" d="M67.0724 291.802C67.0724 291.802 59.2504 311.533 63.3141 313.882C67.3778 316.231 110.228 314.559 110.228 314.559C110.228 314.559 117.364 310.143 109.208 307.08C109.208 307.08 102.405 306.742 97.9894 304.021C93.5734 301.301 88.4667 296.204 88.4667 296.204C88.4667 296.204 88.1285 288.725 85.4084 290.426C84.5947 290.962 83.9023 291.662 83.3756 292.481C82.8488 293.301 82.4995 294.222 82.35 295.185L67.0724 291.802Z" fill="black"/>
<path d="M55.0033 297.834C55.0033 297.834 46.4295 319.445 50.902 322.066C55.3744 324.687 102.354 322.813 102.354 322.813C102.354 322.813 110.185 317.969 101.236 314.61C101.236 314.61 93.7799 314.239 88.9316 311.256C84.0834 308.273 78.4929 302.668 78.4929 302.668C78.4929 302.668 78.1217 294.466 75.1385 296.331C74.2458 296.918 73.4861 297.686 72.9084 298.585C72.3306 299.484 71.9477 300.494 71.7842 301.55L55.0033 297.834Z" fill="#3F3D56"/>
<path d="M99.0088 160.636L93.7894 207.615C93.7894 207.615 91.9103 229.987 86.3338 234.83C86.3338 234.83 86.3338 241.915 84.4547 244.151L81.8426 273.607C81.8426 273.607 85.5728 284.412 85.2017 286.291C84.8305 288.17 86.6909 294.118 86.3197 294.865C85.9486 295.612 68.4207 294.865 68.4207 294.865L72.1508 234.84L83.7077 151.329L99.0088 160.636Z" fill="#3C354C"/>
<path opacity="0.1" d="M99.0088 160.636L93.7894 207.615C93.7894 207.615 91.9103 229.987 86.3338 234.83C86.3338 234.83 86.3338 241.915 84.4547 244.151L81.8426 273.607C81.8426 273.607 85.5728 284.412 85.2017 286.291C84.8305 288.17 86.6909 294.118 86.3197 294.865C85.9486 295.612 68.4207 294.865 68.4207 294.865L72.1508 234.84L83.7077 151.329L99.0088 160.636Z" fill="black"/>
<path d="M89.6879 159.142C89.6879 159.142 85.5866 197.543 83.7215 205.746C82.549 211.147 81.8013 216.632 81.4853 222.151C81.4853 222.151 81.1142 234.084 77.7552 237.438C76.775 238.409 76.0048 239.571 75.4925 240.852C74.9801 242.132 74.7365 243.505 74.7767 244.884C74.7767 244.884 71.4177 282.538 73.2827 287.015C75.1478 291.492 77.0129 295.218 75.1619 298.196C73.3109 301.175 52.7904 301.179 52.7904 298.943C52.7904 296.707 52.7904 294.842 51.6723 293.724C50.5542 292.606 51.6723 285.521 51.6723 285.521C51.6723 285.521 47.1999 252.34 51.3012 242.648C55.4024 232.956 57.2675 206.474 57.2675 206.474C57.2675 206.474 54.2843 176.276 50.5542 171.427C46.824 166.579 51.3012 149.432 51.3012 149.432L89.6879 159.142Z" fill="#3C354C"/>
<path d="M79.1926 39.8901C79.6248 40.8766 80.6631 41.4263 81.6074 41.9477C87.0805 44.9638 91.6609 49.3376 96.1709 53.6597C95.0452 49.8409 95.2861 45.749 96.8521 42.0887C97.3877 40.8437 98.0971 39.5001 97.7118 38.1988C97.4253 37.2592 96.6125 36.5451 95.8327 35.9344C93.9911 34.5102 92.0663 33.1972 90.0683 32.0022C88.659 31.166 85.8026 28.9439 84.2006 29.1835C84.1161 31.3492 84.0738 33.2848 83.1248 35.2908C82.8899 35.7888 79.3571 40.2659 79.1926 39.8901Z" fill="#A0616A"/>
<path d="M98.2617 44.682C106.704 44.682 113.549 37.8378 113.549 29.395C113.549 20.9522 106.704 14.1079 98.2617 14.1079C89.8189 14.1079 82.9746 20.9522 82.9746 29.395C82.9746 37.8378 89.8189 44.682 98.2617 44.682Z" fill="#A0616A"/>
<path d="M99.0089 65.5641C99.0089 65.5641 101.616 52.5133 94.1606 48.0408C86.705 43.5684 78.1313 38.349 78.1313 38.349C78.1313 38.349 75.5193 37.9732 74.4012 43.5684C74.4012 43.5684 53.1525 47.6697 50.9116 67.8003C48.6706 87.9309 52.4055 117.387 52.4055 117.387C52.4055 117.387 49.0512 143.113 44.9499 156.906C44.9499 156.906 41.5909 159.889 56.5068 155.417C71.4227 150.944 97.5149 168.101 97.5149 168.101C97.5149 168.101 100.127 165.489 100.127 163.624C100.127 161.759 103.11 150.939 103.11 150.939C103.11 150.939 105.718 105.083 106.836 99.8636C107.954 94.6442 102.363 66.3111 99.0089 65.5641Z" fill="#3F3D56"/>
<path d="M75.8951 91.2902C75.8951 91.2902 96.3969 79.3575 92.2956 64.0704C88.1943 48.7834 79.2494 43.9398 79.2494 43.9398C79.2494 43.9398 64.7094 39.0916 52.4055 54.745L53.1525 61.8295C53.1525 61.8295 66.5744 34.6144 81.1145 51.7619C95.6546 68.9093 75.8951 91.2902 75.8951 91.2902Z" fill="#856FB3"/>
<path d="M53.8944 55.4966V116.631L50.0844 137.485L48.3039 147.205H35.2719L17.0063 140.491V95.3913C17.0063 95.3913 32.2887 65.1884 37.1369 59.5979C41.9852 54.0073 53.8944 55.4966 53.8944 55.4966Z" fill="#856FB3"/>
<path opacity="0.1" d="M50.0797 137.49L48.3039 147.21H35.2531L16.9875 140.501L50.0797 137.49Z" fill="black"/>
<path d="M49.4221 124.467L81.4854 85.3188L53.1476 125.961L50.1644 126.703L49.4221 124.467Z" fill="#856FB3"/>
<path d="M94.6583 30.9735C95.5274 30.3862 96.6174 30.2782 97.6603 30.1748C98.7032 30.0715 99.7932 29.9305 100.625 29.2916C102.067 28.1829 102.175 26.0406 103.232 24.5608C104.759 22.4139 107.808 22.1555 110.443 22.2588C112.055 22.3246 113.788 22.4232 115.141 21.5541C116.494 20.685 117.161 18.9703 117.631 17.3871C118.19 15.5079 118.547 13.2153 117.161 11.8247C116.222 10.857 114.7 10.6643 113.638 9.81402C112.576 8.9637 112.083 7.50264 111.486 6.22951C110.805 4.67425 109.728 3.32488 108.362 2.31614C106.361 0.90676 103.805 0.615489 101.367 0.638979C98.9288 0.662468 96.4811 0.986624 94.0617 0.685957C92.0792 0.441665 90.1014 -0.216042 88.1282 0.0752296C85.6101 0.446366 83.529 2.34902 82.284 4.57114C81.0391 6.79326 80.5129 9.33013 79.9961 11.82L78.5867 18.5991C78.1545 20.7038 77.7176 22.8602 78.0512 24.9789C78.7465 29.3762 82.6364 32.8714 82.9041 37.311C83.1599 36.0845 83.7161 34.9406 84.523 33.9821C85.3298 33.0236 86.362 32.2803 87.5269 31.8191C87.8184 31.6767 88.1489 31.6354 88.4665 31.7016C88.8517 31.8285 89.0772 32.2137 89.3215 32.5379C89.9604 33.3882 91.9664 34.6754 93.0798 34.0741C94.1416 33.5338 93.3805 31.8426 94.6583 30.9735Z" fill="#3F3D56"/>
<path d="M192.216 220.661C192.216 220.661 182.148 221.033 180.659 232.59C179.17 244.146 180.659 297.834 180.659 297.834C180.659 297.834 192.216 306.408 206.385 305.29C220.554 304.172 243.292 300.07 243.292 300.07V237.118C243.292 227.722 235.456 220.06 226.069 220.6C225.848 220.6 225.599 220.629 225.397 220.652L192.216 220.661Z" fill="#3C354C"/>
<path d="M206.756 313.864C210.461 313.864 213.464 310.86 213.464 307.155C213.464 303.45 210.461 300.446 206.756 300.446C203.05 300.446 200.047 303.45 200.047 307.155C200.047 310.86 203.05 313.864 206.756 313.864Z" fill="#3F3D56"/>
<path d="M243.291 310.88C246.996 310.88 250 307.877 250 304.172C250 300.467 246.996 297.463 243.291 297.463C239.586 297.463 236.583 300.467 236.583 304.172C236.583 307.877 239.586 310.88 243.291 310.88Z" fill="#3F3D56"/>
<path d="M56.1357 100.611C56.1357 100.611 53.5236 117.011 64.3335 115.522C64.3335 115.522 69.9288 114.775 70.6757 115.522C71.4227 116.269 99.0089 111.421 102.739 107.319C102.739 107.319 107.212 105.83 109.448 108.066C111.684 110.303 134.055 112.539 127.352 105.825C120.648 99.1121 110.204 97.6229 110.204 97.6229L96.0352 98.3651C96.0352 98.3651 88.5795 100.606 84.1071 98.3651C79.6347 96.1242 66.9456 96.8994 66.9456 96.8994L56.1357 100.611Z" fill="#A0616A"/>
<path d="M71.4181 48.7878C71.4181 48.7878 54.6418 50.667 54.6418 74.8848V105.825C54.6418 105.825 63.9625 101.724 65.8276 102.095C67.6927 102.466 75.1483 97.2469 75.1483 97.2469C75.1483 97.2469 83.722 77.121 82.975 71.5305C82.2281 65.94 82.6039 49.5301 71.4181 48.7878Z" fill="#3F3D56"/>
<path d="M148.219 108.809L131.443 120.741L141.882 121.859L156.422 109.556L148.219 108.809Z" fill="#3F3D56"/>
<path d="M161.271 126.708C161.271 126.708 165.372 139.392 159.781 143.113C154.191 146.833 144.866 130.062 144.866 130.062C144.866 130.062 134.798 118.134 141.511 115.522C148.225 112.91 150.963 124.283 150.963 124.283L159.767 131.927L161.271 126.708Z" fill="#FBBEBE"/>
<path d="M135.733 72.8319C143.968 72.8319 150.644 68.5747 150.644 63.3233C150.644 58.0718 143.968 53.8147 135.733 53.8147C127.497 53.8147 120.821 58.0718 120.821 63.3233C120.821 68.5747 127.497 72.8319 135.733 72.8319Z" fill="#3F3D56"/>
<path d="M138.34 51.2075C144.31 51.2075 149.15 46.3677 149.15 40.3976C149.15 34.4274 144.31 29.5876 138.34 29.5876C132.37 29.5876 127.53 34.4274 127.53 40.3976C127.53 46.3677 132.37 51.2075 138.34 51.2075Z" fill="#3F3D56"/>
<path d="M98.2616 27.3465C106.188 27.3465 112.614 24.0085 112.614 19.8909C112.614 15.7733 106.188 12.4353 98.2616 12.4353C90.3351 12.4353 83.9094 15.7733 83.9094 19.8909C83.9094 24.0085 90.3351 27.3465 98.2616 27.3465Z" fill="#3F3D56"/>
<path d="M84.8398 33.684C87.6186 33.684 89.8713 28.0912 89.8713 21.1922C89.8713 14.2932 87.6186 8.70044 84.8398 8.70044C82.061 8.70044 79.8083 14.2932 79.8083 21.1922C79.8083 28.0912 82.061 33.684 84.8398 33.684Z" fill="#3F3D56"/>
<path d="M9.94571 316.076C11.3551 313.488 9.75779 310.317 7.935 308.005C6.1122 305.694 3.88539 303.307 3.93237 300.352C4.00284 296.124 8.48935 293.63 12.0739 291.389C14.7343 289.726 17.1881 287.753 19.3838 285.512C20.3053 284.651 21.0657 283.633 21.6294 282.505C22.3717 280.851 22.3529 278.972 22.3059 277.159C22.1493 271.127 21.8502 265.101 21.4086 259.081" stroke="#3F3D56" stroke-width="4" stroke-miterlimit="10"/>
<path d="M28.2249 258.747C28.1749 257.643 27.8474 256.569 27.2726 255.625C26.6979 254.681 25.8943 253.896 24.9363 253.345L23.4612 256.267L23.5081 252.734C22.171 252.341 20.7436 252.383 19.432 252.854C18.1203 253.325 16.9921 254.201 16.2102 255.354C15.4283 256.508 15.033 257.88 15.0814 259.273C15.1298 260.666 15.6193 262.007 16.4794 263.104C17.3396 264.2 18.5258 264.995 19.867 265.374C21.2081 265.753 22.635 265.696 23.9417 265.211C25.2483 264.727 26.3673 263.839 27.1371 262.678C27.9069 261.516 28.2878 260.14 28.2249 258.747Z" fill="#57B894"/>
<path d="M16.4802 303.378C15.7886 304.718 14.6572 305.78 13.2758 306.386C11.8943 306.992 10.3467 307.104 8.89223 306.704C7.43778 306.304 6.16493 305.417 5.28699 304.19C4.40905 302.964 3.97938 301.473 4.06999 299.967C4.16059 298.462 4.76597 297.033 5.78465 295.92C6.80334 294.808 8.17343 294.08 9.66532 293.857C11.1572 293.635 12.6802 293.932 13.9791 294.699C15.278 295.466 16.2738 296.656 16.7996 298.069L12.6796 301.419L17.2131 300.367C17.2141 301.415 16.9628 302.448 16.4802 303.378Z" fill="#57B894"/>
<path d="M13.1916 290.576C12.3261 290.618 11.4608 290.489 10.6454 290.196C9.83005 289.903 9.08062 289.451 8.4402 288.868C7.79978 288.284 7.281 287.58 6.91368 286.795C6.54635 286.01 6.3377 285.16 6.29974 284.295C6.24773 283.263 6.44261 282.234 6.8682 281.293C7.26296 280.412 7.84613 279.628 8.57665 278.996C9.30716 278.365 10.1673 277.901 11.0963 277.638L11.0634 280.358L12.5527 277.403C13.4181 277.361 14.2834 277.49 15.0988 277.783C15.9142 278.076 16.6637 278.527 17.3041 279.111C17.9445 279.695 18.4633 280.399 18.8306 281.184C19.1979 281.969 19.4066 282.818 19.4445 283.684C19.4831 284.445 19.3877 285.207 19.1627 285.934C18.7659 287.228 17.9796 288.368 16.911 289.199C15.8424 290.03 14.5435 290.511 13.1916 290.576Z" fill="#57B894"/>
<path d="M29.2164 279.926C28.2043 279.963 27.1973 279.766 26.2738 279.35C25.3504 278.934 24.5355 278.311 23.8926 277.528C23.2498 276.746 22.7963 275.825 22.5676 274.838C22.3389 273.852 22.3411 272.826 22.5741 271.84C22.8071 270.855 23.2646 269.936 23.9108 269.156C24.5571 268.376 25.3747 267.757 26.2999 267.345C27.2252 266.933 28.233 266.74 29.2449 266.782C30.2568 266.823 31.2455 267.098 32.1338 267.584L30.9687 270.779L33.3646 268.477C34.3333 269.353 35.019 270.498 35.3344 271.766C35.6498 273.034 35.5806 274.367 35.1356 275.595C34.6906 276.823 33.89 277.891 32.8358 278.662C31.7816 279.433 30.5216 279.873 29.2164 279.926Z" fill="#57B894"/>
<path opacity="0.1" d="M27.3372 260.505C25.8197 260.674 24.3352 261.148 22.8084 261.242C21.2816 261.336 19.6044 260.97 18.6413 259.781C18.1199 259.142 17.8568 258.334 17.4199 257.639C17.0032 256.99 16.4338 256.453 15.7615 256.074C15.3602 256.906 15.1386 257.813 15.1111 258.736C15.0836 259.66 15.2508 260.578 15.6019 261.433C15.953 262.287 16.4801 263.057 17.1488 263.695C17.8175 264.332 18.6129 264.821 19.4832 265.13C20.3534 265.439 21.2791 265.561 22.1998 265.489C23.1206 265.417 24.0158 265.152 24.8272 264.71C25.6385 264.269 26.3479 263.662 26.9091 262.929C27.4702 262.195 27.8706 261.351 28.0842 260.453C27.8352 260.462 27.5862 260.481 27.3372 260.505Z" fill="black"/>
<path opacity="0.1" d="M29.2163 279.926C28.0819 279.975 26.9539 279.731 25.9411 279.218C24.9284 278.704 24.0651 277.938 23.4347 276.994C22.8043 276.049 22.428 274.958 22.3421 273.826C22.2563 272.694 22.4638 271.558 22.9446 270.53C23.4704 270.882 23.9221 271.333 24.2741 271.859C24.7439 272.569 25.0258 273.386 25.5801 274.039C26.6043 275.246 28.3613 275.641 29.9492 275.566C31.5371 275.491 33.078 275.044 34.6471 274.899C34.8679 274.899 35.0934 274.861 35.3142 274.857C34.9877 276.25 34.2156 277.499 33.1151 278.413C32.0146 279.328 30.6458 279.859 29.2163 279.926Z" fill="black"/>
<path opacity="0.1" d="M13.1916 290.576C12.3261 290.618 11.4609 290.489 10.6455 290.196C9.83005 289.903 9.08062 289.452 8.4402 288.868C7.79978 288.284 7.28101 287.58 6.91368 286.795C6.54635 286.01 6.3377 285.161 6.29974 284.295C6.24773 283.263 6.44261 282.234 6.8682 281.293C7.41627 281.649 7.89404 282.103 8.27758 282.632C8.78965 283.355 9.10911 284.187 9.68696 284.854C10.8004 286.094 12.6701 286.531 14.3567 286.489C16.0432 286.447 17.5607 286.052 19.1815 285.93C18.7844 287.228 17.9956 288.371 16.9232 289.203C15.8509 290.034 14.5474 290.514 13.1916 290.576Z" fill="black"/>
<path opacity="0.1" d="M16.4802 303.378C16.127 304.167 15.6218 304.878 14.9936 305.472C14.3653 306.066 13.6262 306.53 12.8185 306.839C12.0108 307.147 11.1503 307.293 10.2861 307.269C9.42196 307.244 8.57105 307.05 7.78198 306.697C6.99291 306.344 6.28115 305.838 5.68731 305.21C5.09347 304.582 4.6292 303.843 4.32099 303.035C4.01278 302.227 3.86669 301.367 3.89104 300.503C3.91539 299.639 4.10971 298.788 4.46291 297.999C5.00507 298.355 5.49249 298.789 5.90986 299.286C6.53469 300.052 6.94811 300.916 7.67159 301.635C9.01989 302.96 11.195 303.514 13.1353 303.556C14.2527 303.561 15.3696 303.501 16.4802 303.378Z" fill="black"/>
<path d="M0 313.098C0 313.098 5.20529 312.938 6.7744 311.82C8.3435 310.702 14.7609 309.368 15.1696 311.162C15.5783 312.957 22.9869 320.088 17.1145 320.116C11.2421 320.145 3.46236 319.2 1.89795 318.237C0.333542 317.274 0 313.098 0 313.098Z" fill="#656380"/>
<path opacity="0.2" d="M17.2179 319.492C11.3408 319.539 3.56571 318.576 2.00131 317.613C0.808033 316.889 0.33355 314.282 0.173821 313.079H0C0 313.079 0.328855 317.274 1.87917 318.247C3.42948 319.219 11.2186 320.164 17.0957 320.126C18.7917 320.126 19.3742 319.511 19.346 318.613C19.1252 319.144 18.4816 319.482 17.2179 319.492Z" fill="black"/>
</g>
<defs>
<clipPath id="clip0">
<rect width="250" height="323.457" fill="white"/>
</clipPath>
</defs>
</svg>
