<svg width="250" height="199" viewBox="0 0 250 199" fill="none" xmlns="http://www.w3.org/2000/svg">
<g clip-path="url(#clip0)">
<path d="M221.933 185.539L246.844 148.495L221.984 189.524L222.036 193.692C220.218 193.706 218.417 193.676 216.634 193.601L217.869 140.02L217.835 139.606L217.881 139.526L217.999 134.463L190.72 94.8567L217.967 130.674L218.064 131.744L218.997 91.2611L195.435 50.198L219.064 84.1494L218.817 0.279142L218.818 0L218.826 0.274533L220.39 66.3756L241.864 39.5253L220.46 72.0701L220.929 108.281L240.69 72.9405L221.002 113.605L221.263 133.74L250 84.5109L221.35 140.764L221.933 185.539Z" fill="#D0CDE1"/>
<path d="M126.652 198.457C184.975 198.457 232.255 196.048 232.255 193.076C232.255 190.104 184.975 187.695 126.652 187.695C68.3291 187.695 21.0491 190.104 21.0491 193.076C21.0491 196.048 68.3291 198.457 126.652 198.457Z" fill="#D0CDE1"/>
<path d="M188.355 196.838C190.12 196.838 191.552 195.407 191.552 193.641C191.552 191.876 190.12 190.445 188.355 190.445C186.59 190.445 185.158 191.876 185.158 193.641C185.158 195.407 186.59 196.838 188.355 196.838Z" fill="#3F3D56"/>
<path d="M188.791 127.239L180.364 104.863C180.364 104.863 181.671 100.65 178.184 100.94C174.697 101.231 165.398 104.427 165.398 104.427C165.398 104.427 162.201 104.718 166.56 109.222L174.116 132.906L176.586 131.744L168.449 108.205C168.449 108.205 168.013 106.607 169.612 106.171C171.21 105.735 177.313 103.12 177.894 104.718C178.475 106.316 186.03 129.274 186.03 129.274L188.791 127.239Z" fill="#3F3D56"/>
<path d="M166.124 142.641L182.398 191.316C183.714 192.189 185.143 192.88 186.645 193.369C188.003 193.836 189.403 194.17 190.825 194.367C191.355 194.409 191.888 194.367 192.404 194.242C200.772 192.572 229.475 177.222 229.475 177.222C229.475 177.222 214.799 131.453 212.329 125.931C209.859 120.41 204.338 122.444 204.338 122.444C204.338 122.444 176.448 129.975 172.445 131.374C172.362 131.403 172.289 131.43 172.227 131.453C170.464 132.089 168.941 133.256 167.869 134.793L167.868 134.795C163.799 137.265 166.124 142.641 166.124 142.641Z" fill="#856FB3"/>
<path opacity="0.2" d="M177.806 129.611L177.884 129.891C179.144 129.538 180.217 132.348 180.227 132.376L198.099 181.921L198.372 181.823L196.106 175.54L220.446 164.789L222.363 170.296L222.637 170.2L206.649 124.27L206.64 124.256C206.584 124.166 205.236 122.059 203.636 122.484L203.711 122.765C205.047 122.409 206.272 124.223 206.386 124.398L209.77 134.119L184.182 142.484L180.5 132.276C180.452 132.148 179.322 129.187 177.806 129.611ZM209.865 134.394L212.358 141.555L187.168 150.761L184.281 142.757L209.865 134.394ZM190.142 159.007L187.267 151.034L212.454 141.829L214.929 148.939L190.142 159.007ZM215.024 149.214L217.738 157.008L192.993 166.91L190.241 159.28L215.024 149.214ZM196.007 175.266L193.092 167.184L217.833 157.283L220.35 164.514L196.007 175.266Z" fill="black"/>
<path opacity="0.2" d="M167.868 140.897C169.321 143.222 185.594 191.898 185.594 191.898C185.896 192.421 186.248 192.914 186.645 193.369C188.003 193.836 189.403 194.17 190.825 194.368C191.355 194.409 191.888 194.367 192.404 194.243C191.405 193.882 189.172 192.716 188.064 189.282C186.611 184.778 170.628 137.265 170.628 137.265C170.628 137.265 171.128 133.682 172.445 131.375C172.362 131.404 172.289 131.43 172.227 131.453C170.464 132.089 168.941 133.256 167.869 134.793L167.868 134.795C167.868 134.795 166.415 138.573 167.868 140.897Z" fill="black"/>
<path d="M170.774 151.65L172.372 156.59C172.372 156.59 171.064 166.325 177.893 172.718L179.346 177.658L177.845 177.699L176.259 172.956C176.259 172.956 170.992 166.602 170.955 157.092L169.611 151.65H170.774Z" fill="#3F3D56"/>
<path d="M198.163 196.91C199.928 196.91 201.359 195.479 201.359 193.714C201.359 191.948 199.928 190.517 198.163 190.517C196.397 190.517 194.966 191.948 194.966 193.714C194.966 195.479 196.397 196.91 198.163 196.91Z" fill="#3F3D56"/>
<path d="M229.184 183.47C230.95 183.47 232.381 182.039 232.381 180.274C232.381 178.508 230.95 177.077 229.184 177.077C227.419 177.077 225.988 178.508 225.988 180.274C225.988 182.039 227.419 183.47 229.184 183.47Z" fill="#3F3D56"/>
<path d="M114.376 44.2568C114.376 44.2568 106.977 45.6021 106.641 48.6289C106.448 50.7546 106.448 52.8933 106.641 55.0189L114.376 44.2568Z" fill="#F0C864"/>
<path d="M156.752 114.883C156.752 114.883 135.228 122.618 121.103 115.892C106.978 109.165 89.8255 100.757 89.8255 100.757C89.8255 100.757 81.4176 101.43 82.4266 96.3854C83.4355 91.3407 90.1618 62.0813 105.632 52.3282C105.632 52.3282 115.049 40.2208 120.43 40.8935C125.811 41.5661 146.663 91.3407 146.663 91.3407L156.752 114.883Z" fill="#CDAB3C"/>
<path d="M168.187 96.7219L169.532 100.085C169.532 100.085 178.276 105.466 174.577 109.166C170.877 112.865 165.308 102.944 165.308 102.944L163.142 98.7398L168.187 96.7219Z" fill="#A0616A"/>
<path d="M94.5337 156.922L93.1885 180.128L100.251 183.155L102.942 155.24L94.5337 156.922Z" fill="#A0616A"/>
<path d="M123.121 156.922L132.537 169.029L135.228 177.101L141.954 176.765L143.636 168.693L134.219 159.276L123.121 156.922Z" fill="#A0616A"/>
<path d="M122.28 38.035C127.295 38.035 131.36 33.9695 131.36 28.9545C131.36 23.9395 127.295 19.874 122.28 19.874C117.265 19.874 113.199 23.9395 113.199 28.9545C113.199 33.9695 117.265 38.035 122.28 38.035Z" fill="#A0616A"/>
<path d="M120.43 35.8488L121.103 44.2567L131.865 40.8936C131.865 40.8936 127.829 34.5036 128.838 32.822L120.43 35.8488Z" fill="#A0616A"/>
<path d="M120.43 40.8935C120.43 40.8935 126.802 42.5751 130.51 38.5393L138.255 42.2388L128.165 79.906L106.977 74.1887L110.34 66.7897C110.34 66.7897 105.968 61.745 110.677 57.0366C110.677 57.0366 111.686 47.6198 114.713 45.6019C116.749 44.1987 118.662 42.6235 120.43 40.8935Z" fill="#D0CDE1"/>
<path d="M130.351 38.3713C130.351 38.3713 118.916 47.4518 131.36 74.357C143.804 101.262 154.229 124.132 158.265 122.786C162.301 121.441 176.09 111.015 171.381 107.316C166.673 103.616 146.83 91.8454 144.14 76.3749C141.449 60.9044 147.839 45.0976 147.839 45.0976L130.351 38.3713Z" fill="#F0C864"/>
<path d="M142.963 48.6287L171.886 97.3943L163.815 100.757L138.927 67.126L142.963 48.6287Z" fill="#F0C864"/>
<path d="M108.659 73.1797H106.305L97.5606 92.0133C97.5606 92.0133 81.0812 141.788 82.7628 151.877C84.4444 161.967 147 160.609 143.636 160.285C140.435 159.977 123.782 83.287 128.67 79.0652L108.659 73.1797Z" fill="#2F2E41"/>
<path d="M95.5422 177.437C95.5422 177.437 94.8696 174.747 92.1791 174.747C89.4886 174.747 89.4886 178.446 89.4886 178.446L81.7533 185.509C81.7533 185.509 75.0271 193.917 83.7712 193.917C92.5154 193.917 92.5154 191.899 92.5154 191.899C92.5154 191.899 94.8696 189.545 96.8875 190.89C98.9054 192.235 103.614 189.545 102.941 188.199C102.269 186.854 101.264 178.151 100.589 179.644C99.9143 181.137 95.5422 177.437 95.5422 177.437Z" fill="#2F2E41"/>
<path d="M140.272 173.401C140.272 173.401 140.945 173.065 137.582 173.401C134.219 173.738 132.874 173.401 132.874 173.401L135.228 182.482C135.228 182.482 133.21 197.952 139.936 196.607C146.662 195.262 146.662 185.845 146.662 185.845C146.662 185.845 145.654 177.437 146.326 176.765C146.999 176.092 146.662 167.012 145.654 167.012C144.645 167.012 139.775 164.832 139.775 164.832C139.775 164.832 142.963 173.401 140.272 173.401Z" fill="#2F2E41"/>
<path d="M122.556 29.4981C121.991 28.6285 122.276 27.446 121.88 26.4877C121.258 24.9827 119.324 24.6302 117.701 24.4929C116.626 24.3549 115.538 24.3578 114.464 24.5015C113.989 24.5805 113.539 24.7686 113.149 25.0511C112.76 25.3336 112.441 25.7028 112.218 26.1295C111.978 26.611 112.039 25.1025 112.193 23.1659C112.348 21.1897 113.128 19.314 114.418 17.809C115.708 16.304 117.443 15.2474 119.372 14.7915C119.395 14.7861 119.417 14.7808 119.44 14.7756C121.415 14.3199 123.453 13.9845 125.466 14.221C127.48 14.4576 129.487 15.3269 130.744 16.918C131.318 17.6452 131.724 18.5027 132.366 19.1718C133.492 20.3473 135.162 20.775 136.696 21.3205C138.455 21.8876 140.074 22.8214 141.445 24.0601C142.772 25.3367 143.712 27.0861 143.74 28.9272C143.773 31.0749 142.406 33.2914 140.205 33.7148C139.822 33.7815 139.461 33.9376 139.149 34.1704C137.047 35.8002 139.445 37.5063 139.429 39.3411C139.415 40.8721 137.71 41.87 136.181 41.9414C134.751 41.9671 133.357 41.4947 132.237 40.6051C131.117 39.7155 130.342 38.4642 130.044 37.0655C129.813 35.8091 129.991 34.5186 130.141 33.25C130.313 31.7979 127.185 28.3785 129.251 30.8848C129.654 31.3612 129.927 31.9343 130.041 32.5478C130.385 34.55 128.563 35.2235 127.414 36.3329C126.783 36.9604 126.341 37.7522 126.137 38.6184C125.933 39.4845 125.976 40.3905 126.261 41.2334C125.314 40.3751 124.696 39.2129 124.514 37.9475C124.332 36.6821 124.597 35.3928 125.264 34.3021C125.634 33.7344 126.111 33.2406 126.462 32.661C127.009 31.7565 127.161 29.7891 125.628 29.8431C124.533 29.8817 123.397 30.7926 122.556 29.4981Z" fill="#2F2E41"/>
<path d="M46.1542 188.953C46.1542 188.953 32.6523 164.032 0 174.808L46.1542 188.953Z" fill="#D0CDE1"/>
<path d="M46.9682 188.344C46.9682 188.344 30.2705 167.12 54.371 140.642L46.9682 188.344Z" fill="#D0CDE1"/>
</g>
<defs>
<clipPath id="clip0">
<rect width="250" height="198.457" fill="white"/>
</clipPath>
</defs>
</svg>
