<svg width="250" height="167" viewBox="0 0 250 167" fill="none" xmlns="http://www.w3.org/2000/svg">
<g clip-path="url(#clip0)">
<path d="M163.698 140.351L119.121 124.474V124.25H118.492H44.8345H44.8156L0 140.351H0.128941V144.645H163.827V140.351H163.698Z" fill="#E6E6E6"/>
<path d="M194.907 166.766C225.334 166.766 250 164.755 250 162.275C250 159.794 225.334 157.784 194.907 157.784C164.48 157.784 139.814 159.794 139.814 162.275C139.814 164.755 164.48 166.766 194.907 166.766Z" fill="#E6E6E6"/>
<path d="M166.679 81.3486L163.918 83.938C163.918 83.938 156.437 90.0385 159.909 92.2765C163.382 94.5144 167.253 85.5415 167.253 85.5415L168.745 83.2264L166.679 81.3486Z" fill="#9F616A"/>
<path d="M182.681 36.8369L178.779 37.755C178.779 37.755 177.861 41.6567 178.091 45.3289C178.32 49.0011 177.193 55.8166 177.193 55.8166L174.547 61.9703L163.468 82.9295L170.355 85.9237L182.681 61.8538L183.829 46.4765L182.681 36.8369Z" fill="#E6E6E6"/>
<path d="M188.482 25.9349C195.229 25.9349 200.698 20.1292 200.698 12.9675C200.698 5.80574 195.229 0 188.482 0C181.736 0 176.267 5.80574 176.267 12.9675C176.267 20.1292 181.736 25.9349 188.482 25.9349Z" fill="#2F2E41"/>
<path d="M199.321 32.5908C202.87 32.5908 205.747 29.7136 205.747 26.1644C205.747 22.6152 202.87 19.738 199.321 19.738C195.772 19.738 192.895 22.6152 192.895 26.1644C192.895 29.7136 195.772 32.5908 199.321 32.5908Z" fill="#2F2E41"/>
<path d="M194.845 17.5576L198.288 26.5086L189.566 30.1809L188.801 28.4453L186.124 22.3774L194.845 17.5576Z" fill="#9F616A"/>
<path d="M206.551 66.6734L209.764 81.8213L214.125 115.789L210.912 146.773C210.912 146.773 201.272 149.987 197.6 144.019L201.961 118.543L193.239 88.4771L191.862 118.084L194.157 143.79C194.157 143.79 187.042 147.921 181.304 143.79L177.403 92.8379C177.403 92.8379 174.419 70.5751 181.304 63.2307L206.551 66.6734Z" fill="#2F2E41"/>
<path d="M187.96 23.4103C192.206 23.4103 195.648 19.968 195.648 15.7216C195.648 11.4753 192.206 8.03296 187.96 8.03296C183.713 8.03296 180.271 11.4753 180.271 15.7216C180.271 19.968 183.713 23.4103 187.96 23.4103Z" fill="#9F616A"/>
<path d="M187.96 30.6399L188.712 28.2436C188.712 28.2436 195.638 27.1025 197.652 24.8547L201.272 28.5743C201.272 28.5743 211.141 31.7875 212.518 33.1646C213.895 34.5417 207.009 55.8864 207.009 55.8864C207.009 55.8864 208.616 59.5586 205.862 61.1651C205.862 61.1651 209.993 67.362 206.78 68.0505C203.567 68.7391 180.386 63.9193 180.386 63.9193C180.386 63.9193 178.779 61.1652 182.451 60.0176C182.451 60.0176 181.074 56.8044 182.681 55.6568C184.288 54.5093 182.91 48.0829 182.91 48.0829C182.91 48.0829 178.091 38.4434 178.779 37.7548C179.468 37.0663 187.96 30.6399 187.96 30.6399Z" fill="#E6E6E6"/>
<path d="M210.452 86.8705L210.222 88.7066C210.222 88.7066 210.452 99.7232 206.321 99.2642C202.189 98.8051 204.714 88.018 204.714 88.018L205.403 85.4934L210.452 86.8705Z" fill="#9F616A"/>
<path d="M205.403 144.708C205.403 144.708 204.485 153.888 206.091 154.577C207.698 155.265 218.485 161.003 215.272 163.528C212.058 166.053 201.271 159.397 200.124 160.544C198.976 161.692 195.304 160.774 195.075 158.708C194.845 156.642 195.304 152.97 197.14 150.675C198.976 148.38 198.976 143.79 198.976 143.79L205.403 144.708Z" fill="#2F2E41"/>
<path d="M192.321 141.265L193.927 148.839C193.927 148.839 197.37 156.413 194.386 158.02C191.403 159.626 190.944 159.856 190.714 160.774C190.485 161.692 184.288 166.512 182.452 162.839C180.616 159.167 187.271 153.888 187.271 153.888L188.419 151.364L187.271 142.413L192.321 141.265Z" fill="#2F2E41"/>
<path d="M181.676 14.8785C186.508 11.6537 187.953 10.8829 193.492 12.1285L193.824 4.04736L179.51 7.05015L181.676 14.8785Z" fill="#2F2E41"/>
<path d="M210.452 33.3941L212.747 33.1646C212.747 33.1646 215.042 39.1319 215.042 42.1155V61.8537L211.37 87.7886L204.255 86.641L208.157 63.4602L207.01 49.46L210.452 33.3941Z" fill="#E6E6E6"/>
<path d="M235.628 70.0544H231.735V161.377H235.628V70.0544Z" fill="#3F3D56"/>
<path d="M244.461 44.604H222.903V73.3481H244.461V44.604Z" fill="#3F3D56"/>
<path d="M241.167 62.2697C241.028 62.2727 240.893 62.3182 240.78 62.4002L239.553 52.3811C239.503 51.9703 239.304 51.592 238.994 51.3176C238.684 51.0433 238.284 50.8918 237.87 50.8918H229.493C229.079 50.8918 228.68 51.0433 228.37 51.3176C228.06 51.592 227.861 51.9703 227.81 52.3811L226.584 62.4002C226.471 62.3182 226.336 62.2727 226.196 62.2697C225.535 62.2697 224.999 63.3421 224.999 64.6651C224.999 65.988 225.535 67.0604 226.196 67.0604C226.699 67.0604 227.128 66.4408 227.306 65.5633H240.057C240.235 66.4408 240.665 67.0604 241.167 67.0604C241.829 67.0604 242.365 65.988 242.365 64.6651C242.365 63.3421 241.829 62.2697 241.167 62.2697ZM229.789 62.8685C229.493 62.8685 229.204 62.7807 228.957 62.6162C228.711 62.4517 228.519 62.2179 228.406 61.9444C228.293 61.6708 228.263 61.3698 228.321 61.0794C228.379 60.789 228.521 60.5222 228.731 60.3129C228.94 60.1035 229.207 59.9609 229.497 59.9031C229.788 59.8454 230.089 59.875 230.362 59.9883C230.636 60.1016 230.869 60.2935 231.034 60.5397C231.198 60.7859 231.286 61.0754 231.286 61.3715C231.286 61.5681 231.248 61.7627 231.172 61.9444C231.097 62.126 230.987 62.291 230.848 62.4301C230.709 62.5691 230.544 62.6794 230.362 62.7546C230.18 62.8298 229.986 62.8685 229.789 62.8685ZM237.275 62.8685C236.979 62.8685 236.689 62.7807 236.443 62.6162C236.197 62.4517 236.005 62.2179 235.892 61.9444C235.778 61.6708 235.749 61.3698 235.806 61.0794C235.864 60.789 236.007 60.5222 236.216 60.3129C236.425 60.1035 236.692 59.9609 236.983 59.9031C237.273 59.8454 237.574 59.875 237.848 59.9883C238.121 60.1016 238.355 60.2935 238.519 60.5397C238.684 60.7859 238.772 61.0754 238.772 61.3715C238.772 61.5681 238.733 61.7627 238.658 61.9444C238.583 62.126 238.472 62.291 238.333 62.4301C238.194 62.5691 238.029 62.6793 237.848 62.7546C237.666 62.8298 237.471 62.8685 237.275 62.8685ZM239.071 57.149C239.071 57.2709 239.047 57.3917 239 57.5044C238.954 57.6171 238.885 57.7195 238.799 57.8058C238.713 57.8921 238.61 57.9605 238.498 58.0072C238.385 58.0538 238.264 58.0779 238.142 58.0779H229.221C229.099 58.0779 228.978 58.0538 228.866 58.0072C228.753 57.9605 228.65 57.8921 228.564 57.8058C228.478 57.7195 228.41 57.6171 228.363 57.5044C228.316 57.3917 228.292 57.2709 228.292 57.149V54.2161C228.292 54.0941 228.316 53.9733 228.363 53.8606C228.41 53.7479 228.478 53.6455 228.564 53.5593C228.65 53.473 228.753 53.4046 228.866 53.3579C228.978 53.3112 229.099 53.2872 229.221 53.2872H238.142C238.264 53.2872 238.385 53.3112 238.498 53.3579C238.61 53.4046 238.713 53.473 238.799 53.5593C238.885 53.6455 238.954 53.7479 239 53.8606C239.047 53.9733 239.071 54.0941 239.071 54.2161V57.149Z" fill="#F0C864"/>
<path d="M160.21 80.1678L161.084 81.8654C161.092 81.8811 161.094 81.8994 161.088 81.9162C161.083 81.933 161.071 81.9469 161.055 81.9551L161.013 81.9767L165.564 90.8202C165.69 91.0649 165.714 91.3496 165.63 91.6117C165.546 91.8738 165.361 92.0918 165.117 92.2178L159.591 95.0616C159.47 95.124 159.337 95.1618 159.202 95.1731C159.066 95.1843 158.929 95.1687 158.799 95.1271C158.67 95.0855 158.549 95.0187 158.445 94.9306C158.341 94.8425 158.256 94.7348 158.194 94.6136L153.802 86.0804L153.771 86.0961C153.76 86.1018 153.747 86.1029 153.736 86.0991C153.724 86.0954 153.714 86.0871 153.708 86.076L153.211 85.1099C153.208 85.1044 153.206 85.0984 153.206 85.0922C153.205 85.0861 153.206 85.0799 153.208 85.074C153.21 85.0681 153.213 85.0626 153.217 85.0579C153.221 85.0532 153.226 85.0493 153.231 85.0465L153.262 85.0308L153.074 84.6669L153.044 84.6827C153.032 84.6886 153.018 84.6897 153.006 84.6857C152.994 84.6816 152.983 84.6729 152.977 84.6612L152.487 83.7083C152.481 83.6967 152.48 83.6832 152.484 83.6708C152.488 83.6584 152.497 83.6481 152.508 83.6421L152.539 83.6263L152.283 83.1295L152.252 83.1456C152.247 83.1482 152.241 83.1498 152.236 83.1503C152.23 83.1508 152.224 83.1501 152.219 83.1484C152.213 83.1466 152.208 83.1438 152.204 83.1401C152.199 83.1364 152.196 83.1319 152.193 83.1268L151.926 82.6067C151.92 82.5964 151.919 82.5844 151.923 82.5734C151.926 82.5623 151.934 82.5531 151.944 82.5478L151.976 82.5317L151.434 81.4787C151.308 81.234 151.284 80.9494 151.368 80.6873C151.452 80.4253 151.637 80.2074 151.881 80.0815L157.407 77.2376C157.652 77.1117 157.936 77.0881 158.198 77.172C158.461 77.2559 158.678 77.4405 158.804 77.6852L160.079 80.1608L160.121 80.1391C160.136 80.1311 160.155 80.1296 160.171 80.1349C160.188 80.1403 160.202 80.1521 160.21 80.1678Z" fill="#3F3D56"/>
<path d="M158.457 78.095L165.162 91.124C165.242 91.2792 165.257 91.4598 165.204 91.6261C165.15 91.7923 165.033 91.9306 164.878 92.0105L159.588 94.7327C159.512 94.7724 159.428 94.7966 159.341 94.8038C159.255 94.811 159.169 94.8012 159.086 94.7748C159.004 94.7484 158.927 94.7061 158.862 94.6501C158.796 94.5942 158.741 94.5258 158.702 94.4489L151.996 81.4198C151.957 81.343 151.933 81.2591 151.926 81.1729C151.918 81.0867 151.928 81 151.955 80.9176C151.981 80.8353 152.023 80.759 152.079 80.693C152.135 80.627 152.204 80.5727 152.28 80.5331L153.072 80.1257L153.124 80.2273C153.19 80.3551 153.304 80.4516 153.441 80.4955C153.578 80.5393 153.727 80.527 153.855 80.4612L156.545 79.0767C156.672 79.0109 156.769 78.8971 156.813 78.7601C156.857 78.6232 156.844 78.4745 156.779 78.3466L156.726 78.245L157.57 77.8109C157.647 77.7713 157.731 77.7472 157.817 77.74C157.903 77.7329 157.99 77.7428 158.072 77.7692C158.155 77.7956 158.231 77.8379 158.297 77.8938C158.363 77.9497 158.417 78.0181 158.457 78.095Z" fill="#F0C864"/>
<path d="M110.322 110.502C109.794 110.514 109.282 110.686 108.855 110.997L104.21 73.0587C104.02 71.5029 103.266 70.0705 102.093 69.0317C100.919 67.9929 99.4055 67.4194 97.8381 67.4194H66.1179C64.5505 67.4194 63.0372 67.9929 61.8634 69.0317C60.6896 70.0705 59.9364 71.5029 59.7459 73.0587L55.1005 110.997C54.6735 110.686 54.1618 110.514 53.6339 110.502C51.1293 110.502 49.0989 114.563 49.0989 119.572C49.0989 124.582 51.1293 128.643 53.6339 128.643C55.5366 128.643 57.1631 126.296 57.8363 122.974H106.12C106.793 126.296 108.419 128.643 110.322 128.643C112.827 128.643 114.857 124.582 114.857 119.572C114.857 114.563 112.827 110.502 110.322 110.502ZM67.2391 112.77C66.1179 112.77 65.0219 112.437 64.0897 111.815C63.1574 111.192 62.4308 110.306 62.0018 109.27C61.5727 108.235 61.4605 107.095 61.6792 105.995C61.8979 104.896 62.4378 103.885 63.2306 103.093C64.0234 102.3 65.0335 101.76 66.1331 101.541C67.2328 101.322 68.3726 101.435 69.4084 101.864C70.4443 102.293 71.3296 103.019 71.9525 103.952C72.5754 104.884 72.9079 105.98 72.9079 107.101C72.9079 107.846 72.7613 108.583 72.4764 109.27C72.1915 109.958 71.7739 110.583 71.2475 111.11C70.7211 111.636 70.0962 112.054 69.4084 112.338C68.7207 112.623 67.9835 112.77 67.2391 112.77ZM95.5831 112.77C94.4619 112.77 93.3659 112.437 92.4337 111.815C91.5015 111.192 90.7749 110.306 90.3458 109.27C89.9168 108.235 89.8045 107.095 90.0232 105.995C90.242 104.896 90.7819 103.885 91.5747 103.093C92.3675 102.3 93.3776 101.76 94.4772 101.541C95.5768 101.322 96.7167 101.435 97.7525 101.864C98.7883 102.293 99.6737 103.019 100.297 103.952C100.919 104.884 101.252 105.98 101.252 107.101C101.252 107.846 101.105 108.583 100.82 109.27C100.536 109.958 100.118 110.583 99.5916 111.11C99.0652 111.636 98.4403 112.054 97.7525 112.338C97.0647 112.623 96.3276 112.77 95.5831 112.77ZM102.386 91.1124C102.386 91.5743 102.295 92.0317 102.118 92.4584C101.941 92.8851 101.682 93.2729 101.356 93.5995C101.029 93.9261 100.641 94.1852 100.214 94.362C99.7877 94.5387 99.3303 94.6297 98.8684 94.6297H65.0875C64.6256 94.6297 64.1683 94.5387 63.7415 94.362C63.3148 94.1852 62.927 93.9261 62.6004 93.5995C62.2738 93.2729 62.0148 92.8851 61.838 92.4584C61.6612 92.0317 61.5703 91.5743 61.5703 91.1124V80.0069C61.5703 79.545 61.6612 79.0876 61.838 78.6608C62.0148 78.2341 62.2738 77.8464 62.6004 77.5197C62.927 77.1931 63.3148 76.934 63.7415 76.7573C64.1683 76.5805 64.6256 76.4895 65.0875 76.4895H98.8684C99.3303 76.4895 99.7877 76.5805 100.214 76.7573C100.641 76.934 101.029 77.1931 101.356 77.5197C101.682 77.8464 101.941 78.2341 102.118 78.6608C102.295 79.0876 102.386 79.545 102.386 80.0069V91.1124Z" fill="#3F3D56"/>
<path d="M87.9159 69.2143H76.04L78.5851 65.397H85.3711L87.9159 69.2143Z" fill="#856FB3"/>
<path d="M80.5382 59.9036C87.8911 59.9036 93.8519 53.9429 93.8519 46.59C93.8519 39.2371 87.8911 33.2764 80.5382 33.2764C73.1853 33.2764 67.2246 39.2371 67.2246 46.59C67.2246 53.9429 73.1853 59.9036 80.5382 59.9036Z" fill="#856FB3"/>
<path d="M79.2695 52.2101L75.2847 47.0865L77.6019 45.2841L79.4888 47.7101L85.8626 40.9814L87.9941 43.0009L79.2695 52.2101Z" fill="white"/>
<path d="M83.1909 124.63H80.5073V126.24H83.1909V124.63Z" fill="white"/>
<path d="M83.1909 140.105H80.5073V136.639H83.1909V140.105ZM83.1909 133.173H80.5073V129.707H83.1909V133.173Z" fill="white"/>
<path d="M83.1909 143.571H80.5073V145.181H83.1909V143.571Z" fill="white"/>
</g>
<defs>
<clipPath id="clip0">
<rect width="250" height="166.766" fill="white"/>
</clipPath>
</defs>
</svg>
