<svg width="250" height="284" viewBox="0 0 250 284" fill="none" xmlns="http://www.w3.org/2000/svg">
<g clip-path="url(#clip0)">
<path d="M167.024 281.883C167.025 280.71 150.104 279.731 129.228 279.698C108.352 279.664 91.4277 280.589 91.4258 281.762C91.4239 282.936 108.345 283.914 129.221 283.948C150.097 283.981 167.022 283.057 167.024 281.883Z" fill="#E6E6E6"/>
<path d="M124.451 205.783C102.096 205.783 80.4328 198.032 63.1523 183.85C45.8718 169.668 34.0432 149.934 29.682 128.008C25.3208 106.083 28.6967 83.324 39.2347 63.6089C49.7726 43.8937 66.8205 28.4424 87.4736 19.8876C108.127 11.3328 131.107 10.2038 152.499 16.693C173.891 23.1822 192.372 36.8881 204.791 55.4754C217.211 74.0627 222.802 96.3813 220.61 118.628C218.419 140.876 208.582 161.675 192.775 177.482C183.823 186.482 173.175 193.618 161.448 198.476C149.72 203.334 137.145 205.817 124.451 205.783ZM124.451 13.3035C71.5966 13.3035 28.5967 56.3034 28.5967 109.158C28.5967 162.012 71.5966 205.012 124.451 205.012C177.305 205.012 220.305 162.012 220.305 109.158C220.305 56.3034 177.305 13.3035 124.451 13.3035V13.3035Z" fill="#E6E6E6"/>
<path d="M70.5169 112.276H63.1831V137.662H70.5169V112.276Z" fill="#3F3D56"/>
<path d="M75.3603 132.886L57.5235 111.667L21.7195 111.994L0 133.149L0.439022 133.431H0.282146V177.434H75.3121V133.431L75.3603 132.886Z" fill="#3F3D56"/>
<path d="M57.5417 111.712L35.2583 137.836V177.434H75.3118V132.867L57.5417 111.712Z" fill="#856FB3"/>
<path d="M59.5164 155.536H51.3364V162.766H59.5164V155.536Z" fill="#3F3D56"/>
<path d="M59.5164 143.021H51.3364V150.137H59.5164V143.021Z" fill="#3F3D56"/>
<path d="M59.5164 155.536H51.3364V162.766H59.5164V155.536Z" fill="white"/>
<path d="M59.5164 143.021H51.3364V150.137H59.5164V143.021Z" fill="white"/>
<path d="M23.1639 153.617H14.9839V160.848H23.1639V153.617Z" fill="#3F3D56"/>
<path d="M23.1639 141.103H14.9839V148.218H23.1639V141.103Z" fill="#3F3D56"/>
<path d="M23.1639 153.617H14.9839V160.848H23.1639V153.617Z" fill="white"/>
<path d="M23.1639 141.103H14.9839V148.218H23.1639V141.103Z" fill="white"/>
<path d="M186.817 0.609375H179.483V25.9955H186.817V0.609375Z" fill="#3F3D56"/>
<path d="M174.688 21.7646V91.2056H249.718V21.7646H249.561L250 21.4824L228.281 0.327243L192.477 0L174.64 21.2199L174.688 21.7646Z" fill="#3F3D56"/>
<path d="M174.688 21.2003V91.2056H214.742V26.1702L192.458 0.045105L174.688 21.2003Z" fill="#856FB3"/>
<path d="M198.664 43.8694H190.484V51.0995H198.664V43.8694Z" fill="#3F3D56"/>
<path d="M198.664 31.3547H190.484V38.4702H198.664V31.3547Z" fill="#3F3D56"/>
<path d="M198.664 43.8694H190.484V51.0995H198.664V43.8694Z" fill="white"/>
<path d="M198.664 31.3547H190.484V38.4702H198.664V31.3547Z" fill="white"/>
<path d="M235.016 41.9509H226.836V49.181H235.016V41.9509Z" fill="#3F3D56"/>
<path d="M235.016 29.4363H226.836V36.5518H235.016V29.4363Z" fill="#3F3D56"/>
<path d="M235.016 41.9509H226.836V49.181H235.016V41.9509Z" fill="white"/>
<path d="M235.016 29.4363H226.836V36.5518H235.016V29.4363Z" fill="white"/>
<path d="M198.664 69.3077H190.484V76.5379H198.664V69.3077Z" fill="white"/>
<path d="M198.664 56.7932H190.484V63.9086H198.664V56.7932Z" fill="white"/>
<path d="M235.016 67.3893H226.836V74.6194H235.016V67.3893Z" fill="white"/>
<path d="M235.016 54.8747H226.836V61.9902H235.016V54.8747Z" fill="white"/>
<path d="M128.9 81.1618C135.412 81.1618 140.69 75.8832 140.69 69.3717C140.69 62.8602 135.412 57.5817 128.9 57.5817C122.389 57.5817 117.11 62.8602 117.11 69.3717C117.11 75.8832 122.389 81.1618 128.9 81.1618Z" fill="#A0616A"/>
<path d="M116.792 90.7212L136.867 90.4026C135.14 85.6446 134.392 81.1897 135.592 77.3379L120.297 75.7447C122.364 80.7369 121.195 85.729 116.792 90.7212Z" fill="#A0616A"/>
<path d="M99.2658 169.746L102.599 178.636C102.885 179.399 102.995 180.216 102.919 181.028C102.843 181.839 102.584 182.622 102.161 183.318C101.739 184.015 101.164 184.606 100.479 185.048C99.795 185.49 99.0192 185.771 98.2106 185.87V185.87C97.4369 185.964 96.652 185.889 95.9101 185.651C95.1682 185.412 94.487 185.015 93.9135 184.487C93.34 183.959 92.888 183.313 92.5887 182.594C92.2893 181.874 92.1498 181.098 92.1798 180.319L92.5741 170.065L95.442 117.488L107.232 120.993L99.2658 169.746Z" fill="#A0616A"/>
<path d="M111.694 268.528L121.253 267.572L129.857 184.086L141.965 269.165L150.888 268.846L153.118 175.482H110.419L111.694 268.528Z" fill="#2F2E41"/>
<path d="M142.921 64.9106C142.921 64.9106 139.735 71.9209 137.504 72.2395C135.274 72.5582 131.45 76.0633 132.087 77.6566C132.724 79.2498 132.406 84.0296 126.033 83.3923C119.66 82.755 119.978 82.1177 119.978 82.1177C119.978 82.1177 109.782 62.68 120.297 57.5816C130.813 52.4833 140.053 56.3071 142.921 64.9106Z" fill="#2F2E41"/>
<path d="M151.375 264.286L150.992 272.329C150.992 272.329 156.829 281.433 149.552 281.433C149.48 281.433 149.624 281.433 149.552 281.433C144.29 281.417 139.533 283.785 140.156 278.559L141.034 271.18L142.566 263.137L151.375 264.286Z" fill="#2F2E41"/>
<path d="M111.773 264.286L112.156 272.329C112.156 272.329 106.319 281.433 113.596 281.433C113.668 281.433 113.524 281.433 113.596 281.433C118.858 281.417 123.615 283.785 122.993 278.559L122.114 271.18L120.582 263.137L111.773 264.286Z" fill="#2F2E41"/>
<path d="M106.914 179.306L154.393 177.075C145.538 148.66 145.472 125.41 156.623 104C156.623 101.761 155.967 99.57 154.736 97.699C153.505 95.8279 151.752 94.3586 149.695 93.4725L135.911 87.5347L118.385 88.4907L106.821 94.851C104.556 96.0965 102.688 97.9544 101.43 100.212C100.172 102.47 99.5749 105.036 99.707 107.617C109.831 131.785 110.41 155.618 106.914 179.306Z" fill="#CDAB3C"/>
<path d="M115.517 123.861L89.0693 119.4L93.4267 108.581C94.9589 104.777 97.2938 101.349 100.272 98.5292C103.25 95.7099 106.802 93.5663 110.684 92.2447L113.287 91.3585L115.517 123.861Z" fill="#CDAB3C"/>
<path d="M198.479 99.539L206.62 96.1468C207.444 95.8036 208.183 95.2847 208.786 94.6266C209.388 93.9684 209.84 93.1866 210.11 92.3359C210.379 91.4851 210.46 90.5858 210.346 89.7006C210.232 88.8155 209.927 87.9658 209.451 87.2108V87.2108C208.939 86.3983 208.243 85.7173 207.42 85.2227C206.597 84.7282 205.669 84.4338 204.711 84.3632C203.753 84.2927 202.792 84.4481 201.905 84.8167C201.018 85.1854 200.23 85.7572 199.604 86.4859L193.563 93.5232L169.883 110.516L153.786 103.833L151.868 117.185L171.979 122.423L198.479 99.539Z" fill="#A0616A"/>
<path d="M155.566 122.356L168.671 110.022L165.202 105.782C162.102 98.0845 154.973 94.919 147.118 92.2447L144.515 91.3585L142.461 112.335L155.566 122.356Z" fill="#CDAB3C"/>
</g>
<defs>
<clipPath id="clip0">
<rect width="250" height="283.949" fill="white"/>
</clipPath>
</defs>
</svg>
