<svg width="250" height="229" viewBox="0 0 250 229" fill="none" xmlns="http://www.w3.org/2000/svg">
<g clip-path="url(#clip0)">
<path d="M233.382 135.669C238.382 123.064 240.422 109.48 239.346 95.9621C238.269 82.4445 234.104 69.3545 227.172 57.6999L85.6077 77.3012L221.272 49.0279C213.018 38.2824 202.402 29.5803 190.246 23.5955C178.089 17.6106 164.719 14.5035 151.169 14.5147C102.316 14.5147 62.7131 54.1178 62.7131 102.971C62.7141 107.008 62.9892 111.041 63.5364 115.041L233.382 135.669Z" fill="#F2F2F2"/>
<path d="M68.6257 134.818C81.4113 167.934 113.545 191.427 151.169 191.427C186.475 191.427 216.945 170.74 231.132 140.829L68.6257 134.818Z" fill="#F2F2F2"/>
<path d="M228.945 165.583C228.945 200.345 177.693 228.522 114.473 228.522C80.5089 228.522 50.0002 220.391 29.0379 207.473C15.3602 199.048 5.74446 188.582 1.88707 177.017C0.642138 173.333 0.00478922 169.472 0 165.583C0 130.825 94.8631 -25.9639 114.473 102.648C134.082 231.259 228.945 130.825 228.945 165.583Z" fill="#856FB3"/>
<path opacity="0.1" d="M171.362 188.408C171.362 201.243 130.828 211.65 80.8245 211.65C61.5653 211.65 43.7111 210.106 29.0378 207.473C15.36 199.047 5.74436 188.582 1.88696 177.017C17.4101 169.944 46.9441 165.167 80.8245 165.167C130.828 165.167 171.362 175.574 171.362 188.408Z" fill="black"/>
<path d="M106.01 56.0256C98.8343 43.9018 84.6388 43.3367 84.6388 43.3367C84.6388 43.3367 70.806 41.5678 61.9324 60.0326C53.6614 77.2433 42.2465 93.8606 60.0946 97.8895L63.3185 87.8553L65.3151 98.6366C67.8563 98.8194 70.4056 98.8629 72.9516 98.7671C92.0656 98.15 110.269 98.9476 109.683 92.0888C108.903 82.9708 112.914 67.6912 106.01 56.0256Z" fill="#2F2E41"/>
<path d="M59.0754 162.2C58.8092 163.523 58.6123 164.869 58.1601 166.14C57.7111 167.403 57.0179 168.571 56.6073 169.846C55.2987 173.912 57.1128 178.446 60.0103 181.584C62.5229 184.295 65.7662 186.221 69.3489 187.129C71.9627 187.787 74.6805 187.881 77.3742 187.973C84.8332 188.226 92.4841 188.452 99.5519 186.055C101.785 185.279 103.942 184.299 105.995 183.128C106.644 182.819 107.215 182.369 107.667 181.811C108.206 181.044 108.275 180.048 108.27 179.111C108.255 175.948 107.614 172.803 107.766 169.644C107.85 167.895 108.177 166.147 108.016 164.402C107.651 160.447 104.51 156.907 100.626 156.073C98.6213 155.642 96.5417 155.877 94.5004 156.073C89.2018 156.582 83.8806 156.82 78.5577 156.786C73.119 156.751 67.7139 155.921 62.3023 155.835C60.702 155.809 60.7343 156.302 60.2248 157.851C59.7555 159.277 59.3717 160.729 59.0754 162.2Z" fill="#2F2E41"/>
<path d="M74.5101 84.121C74.2487 85.4895 73.9662 86.9081 73.1438 88.0327C72.1976 89.3266 70.6549 90.066 69.637 91.3042C68.1049 93.1681 68.017 95.7909 68.0106 98.2037C68.0048 100.426 68.05 102.797 69.2895 104.642C70.0939 105.84 71.3179 106.679 72.5142 107.485C77.1626 110.618 82.1856 113.807 87.7901 113.91C90.1122 113.953 92.6021 113.353 94.13 111.604C94.7897 110.782 95.3084 109.857 95.665 108.865C97.098 105.333 97.9667 101.597 98.2392 97.7947C98.3669 96.0058 98.3547 94.1647 97.7492 92.4766C97.0683 90.5783 95.6917 89.0164 94.7818 87.2166C93.7063 85.0765 93.3129 82.658 93.6547 80.2874C93.7 80.1204 93.686 79.943 93.6152 79.7852C93.5403 79.7007 93.447 79.6347 93.3424 79.5924C93.2378 79.55 93.1249 79.5324 93.0124 79.5409L81.8996 78.7409C80.8647 78.6895 79.834 78.5716 78.8142 78.388C78.2151 78.2662 76.6329 77.4153 76.0617 77.6416C75.0043 78.0604 74.7268 82.9862 74.5101 84.121Z" fill="#A0616A"/>
<path opacity="0.1" d="M74.5101 84.468C74.2487 85.8365 73.9662 87.255 73.1438 88.3796C72.1976 89.6736 70.6549 90.4129 69.637 91.6512C68.1049 93.5151 68.017 96.1379 68.0106 98.5507C68.0048 100.773 68.05 103.144 69.2895 104.989C70.0939 106.187 71.3179 107.026 72.5142 107.832C77.1626 110.965 82.1856 114.154 87.7901 114.257C90.1122 114.3 92.6021 113.7 94.13 111.951C94.7897 111.129 95.3084 110.204 95.665 109.212C97.098 105.68 97.9667 101.944 98.2392 98.1416C98.3669 96.3527 98.3547 94.5116 97.7492 92.8235C97.0683 90.9252 95.6917 89.3633 94.7818 87.5635C93.7063 85.4234 93.3129 83.0049 93.6547 80.6343C93.7 80.4673 93.686 80.2899 93.6152 80.1321C93.5403 80.0477 93.447 79.9817 93.3424 79.9393C93.2378 79.8969 93.1249 79.8793 93.0124 79.8878L81.8996 79.0879C80.8647 79.0364 79.834 78.9185 78.8142 78.7349C78.2151 78.6131 76.6329 77.7623 76.0617 77.9885C75.0043 78.4073 74.7268 83.3331 74.5101 84.468Z" fill="black"/>
<path d="M85.1372 85.6113C94.1414 85.6113 101.441 78.3119 101.441 69.3076C101.441 60.3033 94.1414 53.0039 85.1372 53.0039C76.1329 53.0039 68.8335 60.3033 68.8335 69.3076C68.8335 78.3119 76.1329 85.6113 85.1372 85.6113Z" fill="#A0616A"/>
<path d="M76.797 105.824C77.6468 106.712 78.5472 107.591 79.6607 108.112C80.7683 108.63 82.016 108.759 83.2382 108.793C86.1771 108.876 89.3631 108.337 91.4075 106.224C94.0429 103.501 93.9561 99.108 96.0218 95.9306C96.1882 95.6425 96.4153 95.3941 96.6874 95.2026C97.0339 95.0139 97.4255 94.9239 97.8196 94.9423C100.428 94.9179 102.701 96.6099 104.752 98.2225C105.671 98.9449 106.613 99.6932 107.192 100.708C107.598 101.499 107.875 102.35 108.015 103.228C109.033 108.197 109.363 113.277 109.69 118.338C109.87 121.133 110.051 123.932 110.038 126.733C109.993 135.962 107.848 145.037 105.715 154.016C105.44 155.173 105.064 156.466 104.012 157.02C103.543 157.231 103.039 157.354 102.526 157.383C96.416 158.101 90.2935 158.819 84.1423 158.914C81.7419 158.951 79.3424 158.893 76.9441 158.739C76.5312 158.734 76.1219 158.663 75.7315 158.528C75.2017 158.274 74.7464 157.887 74.4096 157.405C71.0823 153.213 70.8859 147.416 70.9072 142.064C70.9592 128.977 71.4268 115.901 72.3099 102.836C72.3828 101.758 72.3987 100.448 71.6217 99.5995C73.0208 101.839 74.9669 103.911 76.797 105.824Z" fill="#D0CDE1"/>
<path d="M73.3433 86.9988C72.7927 87.9956 68.733 90.4708 67.9492 91.2969C63.5702 95.9126 55.5779 95.7394 51.573 100.683C50.1639 102.423 49.4318 104.608 48.8934 106.781C48.1319 109.854 47.7253 113.205 49.001 116.103C50.2284 118.891 52.8124 120.819 54.5667 123.309C56.493 126.044 57.359 129.364 58.189 132.605C58.8019 134.997 59.4198 137.449 59.1811 139.907C58.9097 142.702 57.5572 145.261 56.7587 147.953C55.9602 150.645 55.8223 153.852 57.6687 155.967C59.0251 157.522 61.1528 158.138 63.1864 158.485C65.7822 158.927 68.4203 159.053 71.0509 159.169C73.3757 159.272 75.9382 159.292 77.7254 157.802C79.1355 156.626 79.7484 154.717 79.8278 152.883C79.9071 151.048 79.5254 149.23 79.2864 147.41C79.0385 145.523 78.9433 143.619 78.8636 141.717C78.5061 133.184 78.4573 124.646 78.7172 116.102C78.7714 114.324 78.8371 112.524 78.458 110.787C77.9594 108.501 76.7242 106.458 75.6935 104.358C73.6477 100.19 72.6802 96.1412 72.9965 91.5084C73.3086 86.9356 75.3028 83.4518 73.3433 86.9988Z" fill="#575A89"/>
<path d="M96.2375 87.3454C97.0762 88.2075 99.9262 88.4917 100.993 89.0468C101.973 89.5568 103.058 89.8233 104.119 90.1292C108.011 91.2519 111.713 92.9509 115.102 95.1697C115.806 95.5816 116.428 96.1193 116.938 96.7561C117.535 97.5864 117.752 98.6225 117.954 99.6249C118.477 102.213 119.002 104.832 118.884 107.469C118.76 110.269 117.916 112.98 117.08 115.655L113.954 125.648C111.621 133.108 109.272 140.641 108.616 148.429C108.253 152.745 108.414 157.09 109.097 161.368C109.166 161.798 109.223 162.291 108.939 162.621C108.733 162.824 108.462 162.949 108.174 162.973C106.665 163.209 105.205 162.44 103.838 161.759C99.6601 159.68 95.2014 158.221 90.6025 157.428C92.3996 154.831 93.7862 151.973 94.7135 148.954C95.2401 147.037 95.6548 145.091 95.9555 143.126L97.4096 134.715C97.9429 131.631 98.477 128.539 98.657 125.415C98.7669 124.244 98.6987 123.062 98.4546 121.911C98.1761 120.801 97.6225 119.784 97.1265 118.752C94.73 113.767 93.6056 108.078 94.5485 102.628C94.9612 100.243 95.7631 97.8546 95.4287 95.4573C95.1072 93.1523 95.4413 91.361 94.8499 89.0799C92.4217 79.7139 94.6595 85.7237 96.2375 87.3454Z" fill="#575A89"/>
<path d="M51.5318 108.565C50.4392 110.832 48.6127 112.763 47.991 115.202C47.7491 116.342 47.6455 117.506 47.6823 118.671C47.6676 120.426 47.658 122.217 48.1969 123.887C48.5439 124.963 49.1084 125.954 49.5151 127.009C50.0819 128.482 50.3345 130.057 50.2565 131.633C50.1467 133.817 49.4048 135.937 49.3469 138.123C49.2557 141.56 50.8456 144.792 52.3969 147.86C52.7874 146.893 53.3844 146.023 54.1463 145.311C54.9081 144.599 55.8163 144.062 56.8074 143.738C57.7984 143.413 58.8484 143.309 59.8839 143.433C60.9194 143.557 61.9153 143.905 62.802 144.454C63.2113 144.076 63.255 143.455 63.271 142.898C63.3857 138.91 63.4963 134.922 63.6029 130.934C63.7708 124.766 63.9308 118.516 62.5119 112.511C61.8713 109.8 60.8745 107.099 59.0472 104.996C58.085 103.889 54.8186 100.972 53.2391 102.213C52.5288 102.771 52.6948 104.289 52.5823 105.058C52.4124 106.274 52.0582 107.456 51.5318 108.565Z" fill="#575A89"/>
<path d="M119.204 102.031C119.721 103.64 119.752 105.36 119.762 107.05C119.783 110.497 119.737 113.944 119.625 117.391C119.568 119.155 119.488 120.944 118.953 122.626C118.6 123.736 118.056 124.776 117.692 125.882C116.6 129.196 117.196 132.79 117.29 136.278C117.356 137.407 117.26 138.539 117.004 139.641C116.428 141.803 114.879 143.55 113.798 145.509C112.771 147.37 112.152 149.456 110.926 151.191C109.7 152.927 107.577 154.303 105.52 153.77C103.961 153.366 102.853 151.986 102.087 150.57C100.416 147.456 99.8438 143.869 100.465 140.39C101.234 136.156 103.72 132.401 104.617 128.193C105.849 122.414 103.977 116.451 104.033 110.543C104.007 109.617 104.133 108.693 104.405 107.807C104.875 106.458 105.885 105.38 106.819 104.297C107.985 102.945 109.068 101.523 110.063 100.04C110.731 99.0432 111.638 96.4804 112.823 96.2673C115.468 95.7915 118.548 99.9881 119.204 102.031Z" fill="#575A89"/>
<path d="M37.8088 159.63C36.3463 159.263 34.8394 159.102 33.3323 159.154C31.7488 159.242 30.2021 159.665 28.7951 160.397C27.388 161.129 26.1528 162.151 25.1716 163.397C24.1904 164.643 23.4856 166.084 23.1043 167.623C22.7229 169.162 22.6736 170.765 22.9596 172.325C23.271 174.023 23.9705 175.624 24.7334 177.172C25.9206 179.581 27.3445 181.985 29.5422 183.529C30.8278 184.432 32.3158 184.995 33.7861 185.549L45.3612 189.91C47.0641 190.551 48.7672 191.193 50.4868 191.788C59.1264 194.774 68.1338 196.565 77.2586 197.11C80.038 197.275 82.8595 197.321 85.5709 196.689C86.2144 196.538 86.9008 196.315 87.2733 195.769C87.4939 195.385 87.624 194.955 87.6536 194.513L88.3659 189.526C88.4662 188.824 88.5627 188.085 88.3054 187.424C87.9791 186.586 87.1612 186.059 86.3814 185.611C78.7715 181.24 69.8861 178.829 63.4808 172.83C61.9729 171.418 60.711 169.18 58.8789 168.22C56.8014 167.133 54.3546 166.512 52.2072 165.509C47.5125 163.318 42.8968 160.8 37.8088 159.63Z" fill="#2F2E41"/>
<path opacity="0.1" d="M49.3646 166.353C53.4559 167.635 70.7295 176.516 73.6903 179.618C73.2934 179.761 59.8283 172.214 59.4243 172.093C55.7516 170.991 52.0585 169.881 48.5708 168.268C47.8691 167.944 44.0125 166.419 44.1871 165.533C44.3842 164.534 48.6383 166.125 49.3646 166.353Z" fill="black"/>
<path d="M100.406 199.696C100.638 199.713 100.869 199.645 101.055 199.505C101.136 199.4 101.196 199.28 101.231 199.152C101.266 199.024 101.275 198.89 101.257 198.759C101.251 196.494 101.245 194.23 101.238 191.965C99.2849 191.035 97.0998 190.736 94.955 190.45L84.9478 189.112C85.1777 189.143 83.3831 193.422 83.6583 193.994C84.1433 195.001 87.8496 195.893 88.8956 196.368C92.532 198.021 96.3106 199.838 100.406 199.696Z" fill="#A0616A"/>
<path d="M69.009 191.942C67.1195 192.243 65.0107 192.509 63.787 193.98C62.2353 195.845 62.8959 198.626 63.6361 200.936C63.7461 201.404 63.9669 201.838 64.2798 202.202C64.7849 202.7 65.5591 202.773 66.2673 202.818C67.9904 202.927 69.8242 203.013 71.3298 202.168C72.0428 201.767 72.632 201.182 73.2964 200.706C74.4066 199.967 75.627 199.409 76.9121 199.053C79.2745 198.31 81.7063 197.808 84.17 197.557C85.1358 197.458 86.1208 197.395 87.0292 197.053C87.9377 196.711 88.7789 196.032 89.0428 195.098C89.3915 193.864 88.674 192.605 87.9859 191.522C87.1287 190.174 86.2205 188.753 84.9424 187.761C83.0778 186.312 82.1554 187.424 80.2771 188.351C76.7221 190.106 72.9237 191.316 69.009 191.942Z" fill="#A0616A"/>
<path d="M64.0715 193.644L52.0742 190.098C50.6151 189.667 49.1311 189.232 47.6096 189.233C46.0881 189.234 44.4962 189.733 43.5094 190.891C42.5791 191.983 42.3129 193.475 42.0809 194.891L41.5848 197.919C41.3327 199.457 41.0801 201.026 41.307 202.569C41.534 204.111 42.3215 205.653 43.6904 206.4C45.3506 207.305 47.3854 206.863 49.2383 206.484C52.9809 205.719 56.7877 205.311 60.6075 205.265C62.0435 205.248 63.5497 205.266 64.8186 204.593C66.327 203.794 67.2294 202.104 67.3846 200.403C67.6206 197.817 66.7585 194.438 64.0715 193.644Z" fill="#2F2E41"/>
<path d="M105.122 190.554C106.677 190.281 108.05 189.397 109.54 188.876C111.638 188.141 113.911 188.141 116.134 188.149C116.949 188.152 117.818 188.171 118.497 188.623C119.476 189.275 119.727 190.579 119.894 191.743C120.229 194.085 120.563 196.426 120.898 198.767C121.087 200.089 121.275 201.445 120.98 202.747C120.685 204.049 119.798 205.303 118.507 205.639C116.938 206.047 115.4 205.045 113.918 204.387C110.216 202.741 105.913 203.162 102.052 201.932C101.336 201.704 100.569 201.355 100.276 200.662C100.144 200.272 100.097 199.858 100.138 199.448C100.204 197.19 99.7281 194.107 100.408 191.949C101.019 190.009 103.386 190.554 105.122 190.554Z" fill="#2F2E41"/>
<path d="M130.511 156.803C132.909 156.202 135.394 156.032 137.851 156.301C139.813 156.518 141.834 157.064 143.266 158.422C145.01 160.074 145.57 162.631 145.617 165.033C145.694 169.817 144.107 174.48 141.128 178.224C140.4 179.171 139.535 180.004 138.561 180.695C137.51 181.352 136.39 181.892 135.222 182.304L109.3 192.528C102.48 195.218 95.6364 197.916 88.5233 199.689C88.3288 199.783 88.1175 199.837 87.9018 199.848C87.6861 199.859 87.4704 199.827 87.2674 199.753C87.0644 199.68 86.8781 199.566 86.7196 199.419C86.5611 199.273 86.4336 199.096 86.3444 198.899C84.0732 195.655 82.1679 192.169 80.663 188.506C80.5918 188.419 80.5425 188.316 80.5195 188.206C80.4964 188.096 80.5003 187.982 80.5306 187.874C80.561 187.765 80.617 187.666 80.6939 187.584C80.7709 187.502 80.8664 187.44 80.9725 187.402L99.3074 176.867C100.621 176.113 101.949 175.347 103.039 174.296C103.832 173.528 104.48 172.625 104.955 171.629C105.335 170.835 105.371 168.962 105.856 168.375C106.331 167.801 107.957 167.755 108.708 167.529C109.767 167.204 110.805 166.812 111.813 166.355C115.915 164.52 119.567 161.854 123.499 159.706C125.704 158.445 128.06 157.47 130.511 156.803Z" fill="#2F2E41"/>
<path opacity="0.1" d="M120.117 164.67C116.967 167.036 112.888 169.211 109.766 171.639C108.701 172.468 90.9388 182.454 90.6876 183.78C93.6003 184.271 112.154 171.291 114.809 169.996C117.463 168.701 119.816 166.874 122.148 165.061C122.742 164.599 125.261 163.21 123.555 162.694C122.594 162.403 120.827 164.197 120.117 164.67Z" fill="black"/>
<path d="M98.4425 87.5747H70.7914C69.668 87.5747 68.5906 88.021 67.7962 88.8153C67.0019 89.6097 66.5556 90.6871 66.5556 91.8105V93.3616H66.2551V96.8304H66.5556V99.2586H66.2551V101.34H66.5556V126.935C66.5556 128.059 67.0019 129.136 67.7962 129.93C68.5906 130.725 69.668 131.171 70.7914 131.171H98.4425C99.5658 131.171 100.643 130.725 101.438 129.93C102.232 129.136 102.678 128.059 102.678 126.935V91.8105C102.678 90.6871 102.232 89.6097 101.438 88.8153C100.643 88.021 99.5658 87.5747 98.4425 87.5747Z" fill="#3F3D56"/>
<path d="M102.837 54.857L88.8126 47.5107L69.4454 50.5161L65.4385 68.2137L75.4132 67.8299L78.1997 61.328V67.7229L82.8021 67.5458L85.4736 57.1945L87.1429 68.2137L103.505 67.8797L102.837 54.857Z" fill="#2F2E41"/>
<path d="M55.2006 154.511C55.8936 155.545 56.7055 156.557 57.8185 157.115C59.2092 157.812 60.9259 157.688 62.3186 156.995C63.6993 156.254 64.8295 155.121 65.5662 153.738C67.0904 151.047 67.406 147.826 67.2158 144.739C67.0256 141.652 66.3665 138.612 66.0747 135.532C65.8626 133.294 65.8454 131.042 65.8283 128.794C65.8247 128.321 65.8323 127.812 66.1115 127.431C66.4491 126.97 67.0672 126.843 67.6149 126.68C70.6911 125.766 72.733 122.883 74.1968 120.027C75.1743 118.12 76.0243 116.036 75.8358 113.901C75.6473 111.767 74.113 109.617 71.9814 109.399C70.2239 109.219 68.6012 110.336 67.3335 111.566C64.1355 114.689 62.0803 118.797 61.498 123.228C61.2197 125.399 61.2994 127.628 60.7091 129.735C59.4487 134.234 55.5051 136.992 53.5399 141.04C51.3744 145.5 52.5696 150.564 55.2006 154.511Z" fill="#A0616A"/>
<path d="M113.233 137.324C112.784 138.367 112.131 139.31 111.312 140.097C110.494 140.884 109.525 141.499 108.465 141.905C107.147 142.435 105.693 142.524 104.32 142.159C103.639 141.97 103.011 141.627 102.485 141.156C101.958 140.685 101.547 140.099 101.284 139.443C101.074 138.783 100.959 138.096 100.942 137.403C100.745 134.37 100.821 131.243 101.923 128.41C102.348 127.317 102.921 126.281 103.256 125.157C103.639 123.876 103.7 122.523 103.759 121.187L104.121 112.91C104.181 112.309 104.139 111.702 103.998 111.115C103.637 109.917 102.517 109.139 101.49 108.425C99.0096 106.7 96.5584 104.687 95.3564 101.915C94.9886 101.067 94.7459 100.124 94.9326 99.2184C95.2715 97.5747 96.9303 96.5106 98.5698 96.1521C99.6426 95.9176 100.752 95.9026 101.83 96.1081C102.909 96.3136 103.935 96.7354 104.846 97.3479C105.758 97.9605 106.536 98.7512 107.133 99.6725C107.731 100.594 108.136 101.626 108.324 102.708C108.486 103.642 108.484 104.597 108.578 105.54C108.78 107.541 109.415 109.47 109.813 111.441C110.791 116.298 110.284 121.318 111.252 126.173C112.062 130.233 115.114 132.882 113.233 137.324Z" fill="#A0616A"/>
<path d="M84.9871 106.196C86.9029 106.196 88.4559 104.643 88.4559 102.727C88.4559 100.812 86.9029 99.2585 84.9871 99.2585C83.0713 99.2585 81.5182 100.812 81.5182 102.727C81.5182 104.643 83.0713 106.196 84.9871 106.196Z" fill="#D0CDE1"/>
<path d="M231.416 106.441C227.741 106.441 224.148 107.531 221.092 109.573C218.036 111.615 215.654 114.518 214.247 117.913C212.841 121.309 212.473 125.046 213.19 128.651C213.907 132.256 215.677 135.567 218.276 138.166C220.875 140.765 224.186 142.535 227.791 143.252C231.396 143.969 235.132 143.601 238.528 142.194C241.924 140.788 244.826 138.406 246.868 135.35C248.91 132.294 250 128.701 250 125.025C250 122.585 249.52 120.168 248.586 117.913C247.652 115.659 246.283 113.61 244.557 111.884C242.832 110.159 240.783 108.79 238.528 107.856C236.273 106.922 233.857 106.441 231.416 106.441ZM240.601 120.312C240.611 120.513 240.615 120.718 240.615 120.924C240.615 127.193 235.848 134.422 227.122 134.422C224.547 134.428 222.026 133.683 219.868 132.279C220.243 132.324 220.621 132.347 220.999 132.347C223.134 132.351 225.208 131.635 226.887 130.316C225.897 130.297 224.938 129.97 224.144 129.379C223.35 128.789 222.76 127.964 222.457 127.022C222.751 127.081 223.049 127.111 223.348 127.11C223.77 127.11 224.189 127.054 224.596 126.944C223.523 126.727 222.558 126.145 221.865 125.298C221.172 124.45 220.793 123.389 220.793 122.294V122.235C221.452 122.606 222.191 122.809 222.947 122.828C221.941 122.158 221.229 121.129 220.956 119.953C220.682 118.776 220.867 117.539 221.473 116.494C222.662 117.961 224.146 119.16 225.83 120.015C227.513 120.869 229.357 121.359 231.243 121.452C231.16 121.098 231.119 120.735 231.12 120.371C231.119 119.42 231.404 118.49 231.939 117.704C232.473 116.917 233.232 116.309 234.116 115.96C235.001 115.61 235.97 115.535 236.898 115.744C237.826 115.952 238.669 116.436 239.318 117.131C240.38 116.923 241.399 116.534 242.329 115.98C241.975 117.079 241.234 118.011 240.243 118.604C241.183 118.49 242.1 118.238 242.965 117.855C242.329 118.808 241.528 119.64 240.601 120.312Z" fill="#3F3D56"/>
<path d="M225.441 58.0529C227.264 58.0529 228.743 56.5745 228.743 54.7507C228.743 52.9269 227.264 51.4485 225.441 51.4485C223.617 51.4485 222.138 52.9269 222.138 54.7507C222.138 56.5745 223.617 58.0529 225.441 58.0529Z" fill="#3F3D56"/>
<path d="M229.568 46.4954H221.313C220.219 46.4986 219.171 46.9345 218.397 47.7079C217.624 48.4813 217.188 49.5294 217.185 50.6232V58.8787C217.188 59.9725 217.624 61.0206 218.397 61.794C219.171 62.5674 220.219 63.0033 221.313 63.0065H229.568C230.662 63.0033 231.71 62.5674 232.483 61.794C233.257 61.0205 233.693 59.9725 233.696 58.8787V50.6232C233.693 49.5294 233.257 48.4813 232.483 47.7079C231.71 46.9345 230.662 46.4986 229.568 46.4954H229.568ZM225.44 59.7043C224.461 59.7043 223.503 59.4138 222.688 58.8695C221.874 58.3252 221.239 57.5516 220.864 56.6465C220.489 55.7414 220.391 54.7454 220.582 53.7846C220.773 52.8237 221.245 51.9411 221.938 51.2484C222.631 50.5557 223.513 50.0839 224.474 49.8928C225.435 49.7016 226.431 49.7997 227.336 50.1746C228.241 50.5496 229.015 51.1844 229.559 51.999C230.103 52.8136 230.394 53.7713 230.394 54.7509C230.393 56.0645 229.871 57.3243 228.943 58.2531C228.014 59.182 226.754 59.7039 225.44 59.7043ZM230.806 50.6231C230.562 50.6231 230.322 50.5505 230.118 50.4144C229.915 50.2784 229.756 50.085 229.662 49.8587C229.569 49.6324 229.544 49.3834 229.592 49.1432C229.64 48.903 229.758 48.6823 229.931 48.5092C230.104 48.336 230.325 48.218 230.565 48.1703C230.805 48.1225 231.054 48.147 231.28 48.2407C231.507 48.3345 231.7 48.4932 231.836 48.6968C231.972 48.9005 232.045 49.1399 232.045 49.3848C232.045 49.5476 232.013 49.7088 231.951 49.8592C231.889 50.0096 231.798 50.1463 231.683 50.2613C231.568 50.3764 231.431 50.4676 231.281 50.5297C231.13 50.5918 230.969 50.6236 230.806 50.6232V50.6231Z" fill="#3F3D56"/>
<path d="M225.229 35.333C221.354 35.333 217.566 36.482 214.344 38.6347C211.123 40.7875 208.612 43.8472 207.129 47.427C205.646 51.0069 205.258 54.946 206.014 58.7464C206.77 62.5467 208.636 66.0375 211.376 68.7774C214.116 71.5173 217.606 73.3832 221.407 74.1391C225.207 74.8951 229.146 74.5071 232.726 73.0243C236.306 71.5414 239.366 69.0304 241.518 65.8086C243.671 62.5868 244.82 58.7991 244.82 54.9243C244.82 52.3515 244.313 49.804 243.329 47.427C242.344 45.0501 240.901 42.8904 239.082 41.0712C237.263 39.2519 235.103 37.8089 232.726 36.8243C230.349 35.8398 227.802 35.333 225.229 35.333ZM235.347 58.8786C235.343 60.4099 234.733 61.8772 233.65 62.96C232.567 64.0427 231.1 64.653 229.569 64.6575H221.313C219.782 64.653 218.314 64.0427 217.232 62.96C216.149 61.8772 215.538 60.4099 215.534 58.8786V50.6231C215.538 49.0918 216.149 47.6245 217.232 46.5417C218.314 45.4589 219.782 44.8486 221.313 44.8442H229.569C231.1 44.8486 232.567 45.4589 233.65 46.5417C234.733 47.6245 235.343 49.0918 235.347 50.6231L235.347 58.8786Z" fill="#3F3D56"/>
<path d="M145.76 0C141.947 0 138.22 1.13056 135.05 3.24872C131.88 5.36687 129.409 8.37749 127.95 11.8999C126.491 15.4222 126.109 19.2981 126.853 23.0375C127.597 26.7768 129.433 30.2116 132.129 32.9075C134.825 35.6034 138.26 37.4393 141.999 38.1831C145.738 38.9269 149.614 38.5452 153.136 37.0861C156.659 35.6271 159.669 33.1564 161.788 29.9863C163.906 26.8163 165.036 23.0893 165.036 19.2767C165.036 16.7453 164.538 14.2386 163.569 11.8999C162.6 9.56109 161.18 7.43604 159.39 5.64603C157.6 3.85602 155.475 2.4361 153.136 1.46736C150.798 0.498608 148.291 0 145.76 0ZM151.838 11.6642H149.37C147.685 11.6642 147.364 12.4611 147.364 13.6355V16.1311H151.376L150.852 20.0457H147.364V30.6712H142.89V20.0457H139.681V16.1311H142.89V13.237C142.89 9.76977 145.295 7.88235 148.392 7.88235C149.873 7.88235 151.467 7.9942 151.838 8.04312L151.838 11.6642Z" fill="#3F3D56"/>
</g>
<defs>
<clipPath id="clip0">
<rect width="250" height="228.523" fill="white"/>
</clipPath>
</defs>
</svg>
