<svg width="250" height="182" viewBox="0 0 250 182" fill="none" xmlns="http://www.w3.org/2000/svg">
<g clip-path="url(#clip0)">
<path d="M232.349 163.085H201.839V180.687H232.349V163.085Z" fill="#856FB3"/>
<path d="M169.698 176.615C169.424 177.546 169.297 178.632 169.865 179.419C170.18 179.814 170.594 180.117 171.064 180.297C172.275 180.771 173.578 180.962 174.873 180.856C175.122 180.868 175.369 180.828 175.601 180.739C175.833 180.65 176.044 180.514 176.221 180.339C179.227 177.85 181.26 174.382 181.964 170.543C182.02 170.345 182.01 170.133 181.933 169.942C181.834 169.793 181.695 169.676 181.533 169.602C180.864 169.183 180.143 168.854 179.388 168.623C175.258 167.557 170.721 173.133 169.698 176.615Z" fill="#2F2E41"/>
<path d="M213.011 163.561C213.566 164.205 214.25 164.726 215.018 165.09C215.404 165.268 215.825 165.357 216.25 165.35C216.675 165.343 217.093 165.239 217.472 165.048C218.608 164.401 218.93 162.898 218.84 161.594C218.672 159.181 217.52 157.007 216.195 155.037C215.776 154.413 214.849 152.558 214.035 152.534C213.648 152.524 212.202 153.926 211.809 154.192C210.373 155.167 209.379 155.865 209.678 157.736C210.011 159.824 211.606 162.058 213.011 163.561Z" fill="#2F2E41"/>
<path d="M200.424 63.784C194.312 63.3101 188.474 63.4857 182.352 63.1715C181.837 63.1451 182.085 69.0347 181.552 72.2329C181.278 73.8766 172.062 170.169 173.206 170.364C176.144 170.979 179.115 171.419 182.104 171.682C183.317 171.789 194.62 109.047 194.078 103.948C195.558 106.118 200.77 116.14 203.406 127.668C206.884 142.877 207.907 160.081 210.069 159.116C211.461 157.205 213.349 155.712 215.529 154.798C219.101 153.469 213.312 80.3056 207.194 76.942C207.119 74.8006 207.04 72.6066 206.233 70.6217C205.095 67.822 202.849 65.5865 200.424 63.784Z" fill="#2F2E41"/>
<path d="M249.884 181.22H81.469V180.58H250L249.884 181.22Z" fill="#3F3D56"/>
<path d="M138.179 86.3572H0V113.639H138.179V86.3572Z" fill="#E6E6E6"/>
<path d="M138.179 43.2495H0V70.5309H138.179V43.2495Z" fill="#E6E6E6"/>
<path d="M138.179 0H0V27.2814H138.179V0Z" fill="#E6E6E6"/>
<path d="M2.9458 24.3356H135.233V2.9458H2.9458V24.3356Z" fill="white"/>
<path d="M2.9458 67.6804H135.233V46.2905H2.9458V67.6804Z" fill="white"/>
<path d="M2.94556 110.693H135.233V89.303H2.94556V110.693Z" fill="white"/>
<path d="M14.5264 21.6124C19.027 21.6124 22.6754 17.964 22.6754 13.4634C22.6754 8.96288 19.027 5.31445 14.5264 5.31445C10.0259 5.31445 6.37744 8.96288 6.37744 13.4634C6.37744 17.964 10.0259 21.6124 14.5264 21.6124Z" fill="#856FB3"/>
<path d="M114.44 10.2749H34.0134V12.0464H114.44V10.2749Z" fill="#856FB3"/>
<path d="M114.44 14.8809H34.0134V16.6524H114.44V14.8809Z" fill="#856FB3"/>
<path d="M14.5264 65.2164C19.027 65.2164 22.6754 61.568 22.6754 57.0675C22.6754 52.5669 19.027 48.9185 14.5264 48.9185C10.0259 48.9185 6.37744 52.5669 6.37744 57.0675C6.37744 61.568 10.0259 65.2164 14.5264 65.2164Z" fill="#CCCCCC"/>
<path d="M114.44 53.8787H34.0134V55.6502H114.44V53.8787Z" fill="#CCCCCC"/>
<path d="M114.44 58.4846H34.0134V60.2562H114.44V58.4846Z" fill="#CCCCCC"/>
<path d="M14.5264 108.324C19.027 108.324 22.6754 104.676 22.6754 100.175C22.6754 95.6746 19.027 92.0261 14.5264 92.0261C10.0259 92.0261 6.37744 95.6746 6.37744 100.175C6.37744 104.676 10.0259 108.324 14.5264 108.324Z" fill="#CCCCCC"/>
<path d="M114.44 96.9863H34.0134V98.7578H114.44V96.9863Z" fill="#CCCCCC"/>
<path d="M114.44 101.592H34.0134V103.364H114.44V101.592Z" fill="#CCCCCC"/>
<path d="M198.917 17.0784C195.745 11.7187 189.47 11.4689 189.47 11.4689C189.47 11.4689 183.355 10.6869 179.432 18.8499C175.775 26.4584 170.729 33.8045 178.619 35.5856L180.045 31.1497L180.927 35.9159C182.051 35.9967 183.178 36.0159 184.303 35.9736C192.753 35.7007 200.8 36.0534 200.541 33.0212C200.197 28.9904 201.97 22.2356 198.917 17.0784Z" fill="#2F2E41"/>
<path d="M187.216 35.3397C187.231 35.9429 187.227 36.5792 186.927 37.1029C186.333 38.1412 184.882 38.2966 184.009 39.115C183.091 39.9756 182.988 41.3723 182.944 42.6296C182.898 43.9442 182.859 45.3018 183.339 46.5266C183.633 47.2012 184.004 47.8394 184.446 48.4281C184.979 49.1961 185.516 49.9607 186.059 50.7218C186.349 51.1505 186.672 51.5558 187.025 51.934C187.997 52.9239 189.33 53.4719 190.661 53.8628C191.521 54.1154 192.449 54.3122 193.303 54.0378C193.867 53.8175 194.387 53.4975 194.839 53.0931C195.498 52.6201 196.084 52.0522 196.578 51.4077C197.294 50.3684 197.492 49.0673 197.641 47.8137C198.08 44.1067 198.251 40.3729 198.152 36.6413C198.17 36.2347 198.097 35.8292 197.939 35.4543C197.497 34.5914 196.313 34.4072 195.69 33.665C195.157 33.0304 195.135 32.1248 195.139 31.296L195.151 29.186C195.17 29.0082 195.134 28.829 195.048 28.6719C194.971 28.5873 194.878 28.5189 194.774 28.4704C194.67 28.4219 194.558 28.3945 194.443 28.3895C193.132 28.1719 191.802 28.083 190.474 28.124C189.396 28.1569 187.329 28.0667 186.398 28.6667C185.553 29.2113 186.611 30.7154 186.807 31.5603C187.07 32.8031 187.207 34.0693 187.216 35.3397Z" fill="#FFB8B8"/>
<path d="M189.689 31.7162C194.399 31.7162 198.217 27.8979 198.217 23.1878C198.217 18.4777 194.399 14.6594 189.689 14.6594C184.978 14.6594 181.16 18.4777 181.16 23.1878C181.16 27.8979 184.978 31.7162 189.689 31.7162Z" fill="#FFB8B8"/>
<path d="M187.757 41.6319C183.356 27.683 181.037 47.2755 178.261 52.625C178.287 56.3134 178.387 66.5149 179.25 70.3816C182.601 85.4025 199.196 84.2233 204.186 71.5551C206.844 64.8069 200.947 48.0825 201.147 40.279C193.839 32.8742 193.388 56.3661 187.757 41.6319Z" fill="#856FB3"/>
<path d="M182.926 36.8473C173.388 41.4829 177.938 53.9374 174.481 62.0882C171.72 73.2709 164.698 76.7874 180.753 77.0477C184.212 66.8262 180.833 55.7232 185.55 45.3152C185.875 41.2388 187.273 39.7058 187.149 36.2538C186.225 34.8211 183.829 36.4034 182.926 36.8473Z" fill="#575A88"/>
<path d="M197.515 16.5618L191.315 13.314L182.754 14.6426L180.982 22.4666L185.392 22.2968L186.624 19.4224V22.2493L188.658 22.1712L189.839 17.595L190.577 22.4666L197.811 22.3188L197.515 16.5618Z" fill="#2F2E41"/>
<path d="M193.68 40.7732C198.589 40.2002 193.803 34.3048 197.7 34.405C209.367 32.4426 212.858 39.669 208.421 49.7551C204.353 57.8337 218.741 69.1821 210.703 73.7025C207.851 74.7497 203.766 78.0435 200.978 76.6094C196.502 65.3594 196.34 52.5057 193.68 40.7732Z" fill="#575A88"/>
<path d="M207.344 72.8895C205.634 73.7069 204.282 75.0068 203.138 76.517C202.896 76.8367 203.221 77.433 203.947 77.4232C204.622 77.4141 205.025 76.5481 205.701 76.539C205.907 78.3442 206.281 80.1262 206.817 81.8622C208.165 80.679 208.971 79.0134 209.743 77.3949L211.269 74.1956C211.829 73.0211 212.39 71.846 212.895 70.6467C213.032 70.3663 213.117 70.0631 213.145 69.7521C213.211 67.6882 211.177 67.6757 210.299 68.9674C209.339 70.3802 209.04 72.078 207.344 72.8895Z" fill="#FFB8B8"/>
<path d="M207.695 37.4062C208.999 38.7619 210.313 40.129 211.326 41.7146C212.339 43.3002 217.577 57.5605 217.79 57.8629C218.546 58.9791 217.663 61.8645 217.618 62.0297C217.53 62.5479 216.438 67.7219 216.164 68.8644C215.972 69.664 215.975 70.4965 215.849 71.309C215.724 72.1216 215.442 72.9571 214.816 73.4903C214.736 73.5668 214.638 73.6216 214.531 73.6496C214.184 73.7173 213.947 73.3157 213.826 72.9835C213.448 71.9493 213.066 70.8949 212.398 70.0187C211.731 69.1424 210.72 68.4562 209.619 68.4595C209.528 68.2417 209.49 68.0052 209.509 67.7698C209.528 67.5344 209.602 67.3069 209.727 67.1062C209.947 66.69 210.271 66.3373 210.514 65.934C210.823 65.3845 211.032 64.7851 211.134 64.1632C211.678 61.3061 211.13 58.3489 209.6 55.8758C209.244 55.2893 208.814 54.7514 208.32 54.2756C207.782 53.7717 207.153 53.3665 206.656 52.8219C205.891 51.9158 205.428 50.7928 205.333 49.6105C205.241 48.436 205.272 47.2552 205.426 46.0872C205.649 43.7693 205.936 41.4481 206.267 39.1431C206.293 38.8429 206.371 38.5494 206.497 38.2759C206.757 37.7911 207.197 37.6402 207.695 37.4062Z" fill="#575A88"/>
<path d="M179.221 69.4305C178.344 68.1388 176.309 68.1514 176.375 70.2153C176.403 70.5262 176.488 70.8294 176.625 71.1098C177.13 72.3091 177.691 73.4842 178.251 74.6588L179.777 77.858C180.549 79.4765 181.355 81.1421 182.703 82.3253C183.239 80.5893 183.613 78.8073 183.819 77.0022C184.495 77.0113 184.898 77.8772 185.574 77.8863C186.299 77.8961 186.624 77.2998 186.382 76.9801C185.238 75.4699 183.886 74.17 182.177 73.3526C180.48 72.5411 180.181 70.8433 179.221 69.4305Z" fill="#FFB8B8"/>
<path d="M183.022 38.7388C183.149 39.0123 183.227 39.3058 183.252 39.606C183.583 41.911 183.87 44.2322 184.094 46.5501C184.247 47.7181 184.279 48.8989 184.187 50.0734C184.092 51.2557 183.629 52.3787 182.863 53.2848C182.367 53.8294 181.738 54.2346 181.2 54.7385C180.706 55.2143 180.276 55.7522 179.92 56.3387C178.389 58.8118 177.842 61.769 178.386 64.6261C178.487 65.248 178.697 65.8474 179.005 66.3969C179.249 66.8002 179.572 67.1529 179.793 67.5691C179.917 67.7698 179.992 67.9973 180.011 68.2327C180.03 68.4681 179.992 68.7046 179.901 68.9224C178.799 68.9191 177.788 69.6053 177.121 70.4816C176.454 71.3578 176.072 72.4122 175.694 73.4464C175.572 73.7786 175.336 74.1802 174.989 74.1124C174.882 74.0845 174.784 74.0297 174.704 73.9532C174.078 73.42 173.796 72.5845 173.671 71.7719C173.545 70.9594 173.548 70.1269 173.356 69.3273C173.082 68.1848 171.989 63.0108 171.902 62.4926C171.857 62.3274 170.974 59.4419 171.73 58.3258C171.942 58.0234 177.181 43.7631 178.194 42.1775C179.207 40.5919 180.52 39.2248 181.825 37.8691C182.323 38.1031 182.763 38.254 183.022 38.7388Z" fill="#575A88"/>
</g>
<defs>
<clipPath id="clip0">
<rect width="250" height="181.22" fill="white"/>
</clipPath>
</defs>
</svg>
