<svg width="250" height="215" viewBox="0 0 250 215" fill="none" xmlns="http://www.w3.org/2000/svg">
<g clip-path="url(#clip0)">
<path d="M182.841 110.005C182.841 136.893 167.209 160.13 144.537 171.124C144.143 171.316 143.745 171.504 143.343 171.686C137.914 174.192 132.176 175.963 126.279 176.951C124.171 177.305 122.03 177.561 119.858 177.718C118.238 177.834 116.603 177.892 114.953 177.892C110.935 177.895 106.925 177.541 102.969 176.837C96.6304 175.709 90.4864 173.677 84.7243 170.806C62.402 159.688 47.0657 136.635 47.0657 110.005C47.0657 81.8055 64.2594 57.6213 88.7371 47.3665C89.8237 46.9094 90.9253 46.4815 92.0418 46.0827C92.192 46.0266 92.3421 45.9751 92.4922 45.9213C92.6759 45.8564 92.8596 45.7936 93.0434 45.7309C96.0058 44.7213 99.0348 43.9187 102.108 43.3291H102.111C102.272 43.2999 102.433 43.2686 102.595 43.2394C103.567 43.0602 104.548 42.9019 105.536 42.7645C105.884 42.7174 106.231 42.6703 106.581 42.63C107.123 42.5606 107.667 42.5023 108.214 42.4463C110.43 42.229 112.676 42.1192 114.953 42.1169C116.318 42.1169 117.673 42.1565 119.018 42.2357C119.977 42.2939 120.93 42.3701 121.877 42.4642H121.879C123.01 42.5807 124.132 42.7234 125.244 42.8922C125.322 42.9034 125.401 42.9168 125.477 42.928C127.995 43.3188 130.488 43.8529 132.945 44.5278C161.706 52.4121 182.841 78.7404 182.841 110.005Z" fill="#3F3D56"/>
<path d="M61.3571 31.8656C66.0887 33.0508 69.0862 37.3582 69.0862 37.3582C69.0862 37.3582 64.4122 39.744 59.6806 38.5589C54.949 37.3737 51.9515 33.0663 51.9515 33.0663C51.9515 33.0663 56.6255 30.6805 61.3571 31.8656Z" fill="#644A98"/>
<path d="M41.1496 10.1893C44.9805 13.2087 50.2217 12.9469 50.2217 12.9469C50.2217 12.9469 49.2517 7.78964 45.4208 4.7702C41.5899 1.75075 36.3488 2.01255 36.3488 2.01255C36.3488 2.01255 37.3187 7.16985 41.1496 10.1893Z" fill="#644A98"/>
<path d="M42.0482 8.26075C46.883 8.90683 50.3454 12.8502 50.3454 12.8502C50.3454 12.8502 45.9691 15.7461 41.1343 15.1C36.2995 14.4539 32.837 10.5105 32.837 10.5105C32.837 10.5105 37.2134 7.61467 42.0482 8.26075Z" fill="#F0C864"/>
<path d="M59.2234 13.0356C57.691 17.6664 59.724 22.5043 59.724 22.5043C59.724 22.5043 64.2416 19.8342 65.774 15.2033C67.3065 10.5725 65.2734 5.73462 65.2734 5.73462C65.2734 5.73462 60.7558 8.40477 59.2234 13.0356Z" fill="#F0C864"/>
<path d="M74.9144 47.1519C71.5064 50.6416 71.2119 55.881 71.2119 55.881C71.2119 55.881 76.4429 55.4625 79.8509 51.9728C83.2589 48.4831 83.5535 43.2437 83.5535 43.2437C83.5535 43.2437 78.3225 43.6622 74.9144 47.1519Z" fill="#F0C864"/>
<path d="M57.6622 89.6049L58.08 89.4427C57.2258 87.3002 57.0277 84.9521 57.5111 82.6968C58.2706 79.4097 60.5793 76.7353 62.8122 74.1489C63.2266 73.6689 63.6397 73.1903 64.0417 72.7096C65.7143 70.7571 67.1765 68.6337 68.4041 66.3747C72.8796 57.92 72.9141 46.7499 68.4965 36.4948C64.992 28.3595 58.7887 20.5306 49.5324 12.5608L49.2401 12.9004C58.4437 20.8248 64.6079 28.6007 68.0849 36.6721C72.4494 46.8037 72.4206 57.8292 68.008 66.1651C66.7951 68.3964 65.3505 70.4936 63.6981 72.4222C63.2974 72.901 62.8859 73.3777 62.4729 73.8561C60.2045 76.4838 57.8589 79.2008 57.0745 82.596C56.5711 84.9389 56.7757 87.3786 57.6622 89.6049Z" fill="#3F3D56"/>
<path d="M29.5995 8.51495C31.9506 8.51495 33.8565 6.60903 33.8565 4.25796C33.8565 1.90689 31.9506 0.000976562 29.5995 0.000976562C27.2484 0.000976562 25.3425 1.90689 25.3425 4.25796C25.3425 6.60903 27.2484 8.51495 29.5995 8.51495Z" fill="#3F3D56"/>
<path d="M204.82 72.7816C201.107 69.6193 195.859 69.6825 195.859 69.6825C195.859 69.6825 196.633 74.8728 200.347 78.0351C204.061 81.1974 209.308 81.1343 209.308 81.1343C209.308 81.1343 208.534 75.9439 204.82 72.7816Z" fill="#644A98"/>
<path d="M234.204 76.6331C229.521 75.2697 226.689 70.8519 226.689 70.8519C226.689 70.8519 231.45 68.6447 236.133 70.0081C240.816 71.3716 243.649 75.7894 243.649 75.7894C243.649 75.7894 238.888 77.9966 234.204 76.6331Z" fill="#644A98"/>
<path d="M235.251 74.7811C231.916 71.2216 226.695 70.6948 226.695 70.6948C226.695 70.6948 226.881 75.9392 230.216 79.4988C233.551 83.0583 238.772 83.5851 238.772 83.5851C238.772 83.5851 238.586 78.3407 235.251 74.7811Z" fill="#F0C864"/>
<path d="M221.386 63.5775C218.507 67.5154 213.389 68.6718 213.389 68.6718C213.389 68.6718 212.937 63.4435 215.816 59.5056C218.694 55.5677 223.813 54.4114 223.813 54.4114C223.813 54.4114 224.265 59.6396 221.386 63.5775Z" fill="#F0C864"/>
<path d="M184.503 70.6298C183.643 75.4312 179.55 78.7152 179.55 78.7152C179.55 78.7152 176.851 74.2147 177.711 69.4133C178.571 64.6119 182.664 61.3279 182.664 61.3279C182.664 61.3279 185.363 65.8284 184.503 70.6298Z" fill="#F0C864"/>
<path d="M159.975 109.338L159.865 108.903C162.105 108.354 164.131 107.151 165.685 105.447C167.919 102.919 168.755 99.4857 169.562 96.1657C169.712 95.5494 169.862 94.9351 170.019 94.3287C170.637 91.8329 171.515 89.4091 172.64 87.0974C176.921 78.5423 185.992 72.0241 196.905 69.6608C205.563 67.7861 215.539 68.2859 227.403 71.1886L227.297 71.6239C215.5 68.7377 205.59 68.2389 197 70.0988C186.218 72.4335 177.262 78.8632 173.041 87.298C171.93 89.5816 171.062 91.9759 170.453 94.4413C170.296 95.0456 170.147 95.6576 169.998 96.2716C169.177 99.6445 168.329 103.132 166.021 105.744C164.407 107.514 162.302 108.766 159.975 109.338Z" fill="#3F3D56"/>
<path d="M245.743 86.8443C248.094 86.8443 250 84.9384 250 82.5873C250 80.2362 248.094 78.3303 245.743 78.3303C243.392 78.3303 241.486 80.2362 241.486 82.5873C241.486 84.9384 243.392 86.8443 245.743 86.8443Z" fill="#3F3D56"/>
<path d="M190.445 59.9989C194.02 63.3176 194.571 68.5363 194.571 68.5363C194.571 68.5363 189.325 68.3744 185.751 65.0557C182.176 61.7371 181.625 56.5183 181.625 56.5183C181.625 56.5183 186.87 56.6802 190.445 59.9989Z" fill="#644A98"/>
<path d="M183.185 31.2673C185.086 35.7591 189.805 38.0555 189.805 38.0555C189.805 38.0555 191.44 33.0691 189.539 28.5773C187.637 24.0854 182.919 21.7891 182.919 21.7891C182.919 21.7891 181.283 26.7754 183.185 31.2673Z" fill="#644A98"/>
<path d="M184.902 30.0105C188.827 32.9065 189.96 38.0304 189.96 38.0304C189.96 38.0304 184.73 38.4588 180.805 35.5627C176.88 32.6667 175.747 27.5428 175.747 27.5428C175.747 27.5428 180.977 27.1144 184.902 30.0105Z" fill="#F0C864"/>
<path d="M197.649 42.4712C194.075 45.7903 193.525 51.0091 193.525 51.0091C193.525 51.0091 198.77 50.8466 202.344 47.5274C205.919 44.2083 206.469 38.9895 206.469 38.9895C206.469 38.9895 201.224 39.1521 197.649 42.4712Z" fill="#F0C864"/>
<path d="M194.958 79.9261C190.29 81.3415 187.507 85.7904 187.507 85.7904C187.507 85.7904 192.292 87.9446 196.96 86.5292C201.628 85.1138 204.411 80.6649 204.411 80.6649C204.411 80.6649 199.625 78.5107 194.958 79.9261Z" fill="#F0C864"/>
<path d="M159.382 108.811L159.826 108.87C160.11 106.581 161.068 104.428 162.579 102.685C164.828 100.17 168.14 98.9397 171.343 97.7495C171.937 97.5285 172.53 97.3083 173.114 97.0808C175.52 96.1761 177.825 95.0202 179.989 93.6324C187.985 88.3809 193.398 78.6101 194.469 67.4955C195.319 58.6783 193.657 48.8291 189.387 37.385L188.967 37.5417C193.213 48.9205 194.866 58.7045 194.023 67.4525C192.965 78.4333 187.627 88.0802 179.743 93.2578C177.605 94.6284 175.328 95.7699 172.951 96.6634C172.369 96.8899 171.779 97.1092 171.187 97.3294C167.933 98.5386 164.568 99.789 162.245 102.386C160.675 104.196 159.678 106.433 159.382 108.811Z" fill="#3F3D56"/>
<path d="M175.923 24.7608C178.274 24.7608 180.18 22.8549 180.18 20.5038C180.18 18.1527 178.274 16.2468 175.923 16.2468C173.572 16.2468 171.666 18.1527 171.666 20.5038C171.666 22.8549 173.572 24.7608 175.923 24.7608Z" fill="#3F3D56"/>
<path d="M112.39 9.40552H112.39C123.742 9.40552 132.945 19.6187 132.945 32.2173V48.2239H128.022L125.172 42.2933L125.885 48.2239H94.2422L91.6512 42.8325L92.2989 48.2239H88.7363V35.6559C88.7363 21.1582 99.3264 9.40552 112.39 9.40552Z" fill="#2F2E41"/>
<path d="M76.4592 124.784C76.4592 124.784 71.225 140.051 78.2039 139.615C85.1829 139.178 84.7467 123.04 84.7467 123.04L76.4592 124.784Z" fill="#FFB9B9"/>
<path d="M86.4915 53.686H81.6934L77.3316 95.996C77.3316 95.996 72.5335 96.4322 74.7145 101.23C76.8954 106.028 76.8954 104.284 76.4592 107.773C76.023 111.262 75.5868 113.007 75.5868 113.443C75.5868 113.88 77.7678 113.443 75.5868 116.497C73.4059 119.55 72.0974 120.859 72.0974 122.603C72.0974 124.348 74.2783 128.71 74.2783 128.71C74.2783 128.71 84.7467 121.731 85.6191 127.401L91.2895 97.7407L93.0342 76.8038L86.4915 53.686Z" fill="#644A98"/>
<path d="M132.727 59.3564H136.217L134.472 107.337L125.748 89.017L132.727 59.3564Z" fill="#644A98"/>
<path d="M144.941 166.99C144.927 167.772 144.879 168.546 144.795 169.313C144.753 169.723 144.7 170.131 144.636 170.537C144.605 170.734 144.573 170.929 144.537 171.124C144.143 171.316 143.745 171.504 143.343 171.686C137.915 174.192 132.176 175.963 126.279 176.951C124.171 177.305 122.031 177.561 119.858 177.718C118.238 177.834 116.603 177.892 114.954 177.892C110.936 177.895 106.925 177.541 102.969 176.837L99.577 141.795L114.373 139.519L123.378 138.132L133.953 136.506L137.939 135.892L139.27 135.688C139.27 135.688 144.549 140.588 144.941 161.87C144.97 163.481 144.97 165.188 144.941 166.99Z" fill="#856FB3"/>
<path d="M143.343 171.686C137.914 174.192 132.176 175.963 126.279 176.952L121.771 156.211L120.196 148.972L119.206 144.412C119.206 144.412 120.727 143.864 122.927 143.212C126.799 142.064 132.775 140.604 136.27 141.262C137.17 141.43 137.905 141.74 138.398 142.232C138.696 142.53 138.992 143.135 139.281 143.993C139.991 146.088 140.675 149.693 141.302 154.006C142.079 159.323 142.774 165.718 143.343 171.686Z" fill="#FFB9B9"/>
<path d="M115.061 44.3081C122.529 44.3081 128.583 38.2542 128.583 30.7864C128.583 23.3185 122.529 17.2646 115.061 17.2646C107.594 17.2646 101.54 23.3185 101.54 30.7864C101.54 38.2542 107.594 44.3081 115.061 44.3081Z" fill="#FFB9B9"/>
<path d="M105.684 37.9834C105.684 37.9834 107.429 48.888 97.3965 51.9413C87.3642 54.9946 118.77 99.0493 118.77 99.0493C118.77 99.0493 132.727 60.2288 129.238 56.7394C129.238 56.7394 116.589 54.9946 117.897 47.5795C119.206 40.1643 120.078 39.292 120.078 39.292L105.684 37.9834Z" fill="#FFB9B9"/>
<path d="M110.918 151.391L141.015 143.54L124.876 103.411L110.918 151.391Z" fill="#3F3D56"/>
<path d="M144.941 143.541V170.584C144.896 170.16 144.849 169.737 144.795 169.314C144.121 164.112 142.951 158.986 141.302 154.006C140.216 150.657 138.977 147.437 137.677 144.412C137.213 143.337 136.744 142.287 136.27 141.262C135.502 139.6 134.724 138.009 133.954 136.506C129.255 127.315 124.877 121.295 124.877 121.295L123.378 138.132L122.928 143.211L122.469 148.378L121.772 156.211L119.858 177.718C118.239 177.834 116.604 177.892 114.954 177.892C110.936 177.895 106.925 177.542 102.969 176.837C96.6309 175.709 90.487 173.678 84.7248 170.806L93.9065 96.4317C90.418 92.0694 93.4718 88.144 93.4718 88.144L92.3583 84.9266L81.6934 54.1217C81.7204 53.9725 81.764 53.8267 81.8234 53.6871C83.6203 49.4346 99.528 51.0948 99.528 51.0948C110.383 60.7178 117.898 90.3263 117.898 90.3263C128.276 73.0272 122.041 54.6819 121.933 54.3682L121.931 54.366V54.3637C124.221 52.8603 136.216 59.3556 136.216 59.3556L134.036 72.8771C135.782 82.4733 129.674 90.7609 129.674 90.7609L134.545 105.371L138.399 116.932L141.016 126.092C141.016 126.092 144.069 132.199 143.196 135.253C142.324 138.307 144.941 143.541 144.941 143.541Z" fill="#644A98"/>
<path d="M103.713 14.7444C105.776 12.087 108.82 10.4038 112.219 10.4038H112.622C120.403 10.4038 126.711 17.4446 126.711 26.13V26.13H124.103L123.682 22.9251L123.065 26.13H107.602L106.307 23.4186L106.63 26.13H103.588C102.169 33.1797 104.209 40.2293 109.707 47.279H104.525L101.934 41.8562L102.582 47.279H92.7038L90.7606 34.8065C90.7606 25.4657 96.1878 17.5449 103.713 14.7444Z" fill="#2F2E41"/>
<path d="M200.332 202.805L183.338 194.875V199.407H143.686V206.204H183.338V210.736L200.332 202.805Z" fill="#644A98"/>
<path d="M184.571 208.658V203.985H144.918V196.695H184.571V192.022L202.394 200.34L184.571 208.658ZM145.411 203.492H185.064V207.883L201.229 200.34L185.064 192.797V197.188H145.411V203.492Z" fill="#3F3D56"/>
<path d="M29.575 203.052L46.569 195.122V199.653H86.2216V206.451H46.569V210.983L29.575 203.052Z" fill="#644A98"/>
<path d="M45.3359 208.658L27.5123 200.34L45.3359 192.022V196.695H84.9885V203.985H45.3359L45.3359 208.658ZM28.6784 200.34L44.8428 207.883V203.492H84.4955V197.188H44.8428V192.797L28.6784 200.34Z" fill="#3F3D56"/>
<path d="M112.191 214.19C123.697 214.19 133.024 209.333 133.024 203.342C133.024 197.351 123.697 192.494 112.191 192.494C100.685 192.494 91.3575 197.351 91.3575 203.342C91.3575 209.333 100.685 214.19 112.191 214.19Z" fill="#644A98"/>
<path d="M115.612 203.405L111.232 197.565L112.81 196.381L115.826 200.402L129.691 186.537L131.086 187.932L115.612 203.405Z" fill="#F0C864"/>
<path d="M116.136 210.245C104.512 210.245 95.0558 205.269 95.0558 199.151C95.0558 193.033 104.512 188.056 116.136 188.056C127.759 188.056 137.216 193.033 137.216 199.151C137.216 205.269 127.759 210.245 116.136 210.245ZM116.136 188.549C104.784 188.549 95.5489 193.305 95.5489 199.151C95.5489 204.996 104.784 209.752 116.136 209.752C127.487 209.752 136.722 204.996 136.722 199.151C136.722 193.305 127.487 188.549 116.136 188.549Z" fill="#3F3D56"/>
<path d="M49.3097 166.36C51.3521 166.36 53.0079 164.704 53.0079 162.662C53.0079 160.619 51.3521 158.963 49.3097 158.963C47.2672 158.963 45.6115 160.619 45.6115 162.662C45.6115 164.704 47.2672 166.36 49.3097 166.36Z" fill="#3F3D56"/>
<path d="M6.6568 89.9298C10.3333 89.9298 13.3136 86.9495 13.3136 83.273C13.3136 79.5966 10.3333 76.6162 6.6568 76.6162C2.98035 76.6162 0 79.5966 0 83.273C0 86.9495 2.98035 89.9298 6.6568 89.9298Z" fill="#3F3D56"/>
<path d="M218.688 131.597C221.003 131.597 222.88 129.72 222.88 127.405C222.88 125.09 221.003 123.214 218.688 123.214C216.374 123.214 214.497 125.09 214.497 127.405C214.497 129.72 216.374 131.597 218.688 131.597Z" fill="#3F3D56"/>
</g>
<defs>
<clipPath id="clip0">
<rect width="250" height="214.19" fill="white"/>
</clipPath>
</defs>
</svg>
