<svg width="250" height="145" viewBox="0 0 250 145" fill="none" xmlns="http://www.w3.org/2000/svg">
<g clip-path="url(#clip0)">
<path d="M59.4297 144.592C92.2518 144.592 118.859 143.216 118.859 141.519C118.859 139.821 92.2518 138.445 59.4297 138.445C26.6076 138.445 0 139.821 0 141.519C0 143.216 26.6076 144.592 59.4297 144.592Z" fill="#E6E6E6"/>
<path d="M87.0691 78.4117L83.6523 76.7033L86.4997 69.0156L87.25 65.1386C87.3475 64.6349 87.5755 64.1656 87.9112 63.7776C88.2469 63.3896 88.6785 63.0965 89.1629 62.9276C89.6474 62.7587 90.1677 62.7199 90.6718 62.815C91.176 62.9102 91.6463 63.136 92.0358 63.4699C92.6131 63.9647 92.9755 64.6644 93.0467 65.4213C93.1178 66.1782 92.8921 66.9332 92.4172 67.5269L89.6317 71.0087L87.0691 78.4117Z" fill="#A0616A"/>
<path d="M88.2091 77.5574L87.5789 79.5298L84.7509 88.3905C84.474 89.2591 83.9524 90.0295 83.2486 90.6091C82.5449 91.1887 81.6888 91.553 80.7831 91.6582C79.8775 91.7634 78.9607 91.6051 78.1428 91.2022C77.3249 90.7993 76.6406 90.169 76.172 89.3869L67.004 73.6739C66.8573 73.4291 66.7322 73.1719 66.63 72.9055C66.187 71.7427 66.209 70.4539 66.6916 69.3069C67.1742 68.16 68.0801 67.2431 69.2212 66.7467C70.3622 66.2504 71.6507 66.2128 72.8187 66.6418C73.9868 67.0708 74.9446 67.9333 75.4932 69.0502L81.0903 80.9746L83.652 75.2801L88.2091 77.5574Z" fill="#E6E6E6"/>
<path d="M86.8901 134.794L80.626 135.363L77.2092 110.591C65.9464 112.486 55.321 113.093 46.1304 110.801C45.3538 110.61 44.6251 110.26 43.99 109.774C43.3548 109.288 42.8271 108.676 42.4398 107.976C42.0525 107.277 41.8141 106.504 41.7394 105.708C41.6648 104.912 41.7556 104.109 42.0061 103.349C43.1061 100.066 45.0439 96.5486 47.3124 92.938L62.4032 98.3479L62.9726 100.626L79.0689 98.5882C79.8817 98.4853 80.7071 98.5527 81.4925 98.7859C82.278 99.0191 83.0063 99.4132 83.6313 99.943C84.2562 100.473 84.7641 101.127 85.1227 101.864C85.4813 102.6 85.6828 103.404 85.7143 104.222L86.8901 134.794Z" fill="#2F2E41"/>
<path d="M93.7117 139.593C93.772 139.169 93.7095 138.737 93.5319 138.348C93.3542 137.959 93.0687 137.628 92.7092 137.396L86.2791 134.24L81.4311 134.852L80.2862 138.957C80.2378 139.249 80.2494 139.549 80.3203 139.837C80.3912 140.124 80.52 140.395 80.6988 140.631C80.8775 140.868 81.1026 141.065 81.3602 141.212C81.6177 141.359 81.9025 141.451 82.1971 141.485L91.2433 141.504C91.8225 141.569 92.4043 141.406 92.8652 141.049C93.326 140.693 93.6297 140.17 93.7117 139.593Z" fill="#2F2E41"/>
<path d="M88.4719 131.626L82.2078 132.195L78.791 107.424C67.5282 109.319 56.9028 109.926 47.7122 107.634C46.9356 107.442 46.2069 107.093 45.5717 106.607C44.9366 106.121 44.4089 105.509 44.0216 104.809C43.6343 104.109 43.3958 103.337 43.3212 102.541C43.2466 101.744 43.3374 100.941 43.5879 100.182C44.6879 96.899 46.6257 93.3811 48.8942 89.7705L63.985 95.1804L64.5544 97.4582L80.6506 95.4207C81.4635 95.3179 82.2889 95.3852 83.0743 95.6184C83.8597 95.8516 84.5881 96.2457 85.213 96.7755C85.838 97.3054 86.3459 97.9594 86.7045 98.6961C87.0631 99.4328 87.2646 100.236 87.2961 101.055L88.4719 131.626Z" fill="#2F2E41"/>
<path d="M95.2938 136.426C95.354 136.002 95.2916 135.57 95.1139 135.181C94.9363 134.791 94.6508 134.461 94.2913 134.229L87.8611 131.073L83.0132 131.685L81.8682 135.79C81.8198 136.082 81.8314 136.381 81.9023 136.669C81.9733 136.957 82.102 137.228 82.2808 137.464C82.4596 137.7 82.6846 137.898 82.9422 138.045C83.1998 138.191 83.4845 138.284 83.7791 138.317L92.8253 138.337C93.4045 138.402 93.9863 138.239 94.4472 137.882C94.9081 137.525 95.2118 137.003 95.2938 136.426Z" fill="#2F2E41"/>
<path d="M77.0833 63.8601C81.3291 63.8601 84.771 60.4182 84.771 56.1724C84.771 51.9265 81.3291 48.4846 77.0833 48.4846C72.8374 48.4846 69.3955 51.9265 69.3955 56.1724C69.3955 60.4182 72.8374 63.8601 77.0833 63.8601Z" fill="#A0616A"/>
<path d="M76.7985 71.8325L67.9717 70.6936L71.3884 60.1584H79.9304L76.7985 71.8325Z" fill="#A0616A"/>
<path d="M79.2001 82.4552C78.7524 83.6986 78.1034 84.86 77.2789 85.8929C76.1038 87.3352 74.6918 88.567 73.1035 89.5355C72.8268 89.7148 72.5399 89.8865 72.2427 90.0555L70.547 91.5003L64.5553 96.603L48.0405 90.3399C51.6832 82.2451 56.2275 75.8462 61.4353 70.6922C62.5172 69.1053 64.0596 67.8882 65.8546 67.2048C67.6496 66.5214 69.6109 66.4047 71.4743 66.8703L77.6529 68.4149C79.8508 73.6022 80.6679 78.372 79.2001 82.4552Z" fill="#E6E6E6"/>
<path d="M81.9113 70.7932C81.7992 70.9032 81.735 71.053 81.7327 71.21C81.7304 71.367 81.7902 71.5186 81.8991 71.6318C82.0892 71.7141 85.8566 76.0074 86.0878 75.7118C86.1667 75.7127 86.2449 75.6978 86.3179 75.668C86.3909 75.6383 86.4573 75.5943 86.5131 75.5386L98.0077 64.0939C98.0706 64.0314 98.1188 63.9557 98.1485 63.8721C98.1783 63.7886 98.1889 63.6995 98.1797 63.6113C98.4899 63.3206 93.5439 60.3899 93.3928 60.2304C93.2797 60.156 93.1446 60.1226 93.0099 60.1359C92.8752 60.1492 92.7492 60.2082 92.6528 60.3032L81.9113 70.7932Z" fill="#3F3D56"/>
<path d="M97.0224 63.4894L96.5546 63.1911C96.6013 63.279 96.6175 63.3799 96.6005 63.4779C96.5836 63.576 96.5345 63.6656 96.461 63.7326C96.3874 63.7997 96.2937 63.8404 96.1945 63.8483C96.0953 63.8562 95.9963 63.8308 95.9131 63.7763L92.8862 61.6953C92.8185 61.6474 92.7653 61.5816 92.7327 61.5053C92.7001 61.429 92.6893 61.3452 92.7015 61.2631C92.7137 61.181 92.7485 61.1039 92.8019 61.0404C92.8553 60.9769 92.9252 60.9295 93.004 60.9034C92.8842 60.8627 92.6905 60.6193 92.5605 60.7725L82.3777 70.7794C82.0149 70.956 86.0776 74.4766 86.0798 74.6149C86.383 74.9529 96.828 63.7486 97.0501 63.7409C97.0672 63.7237 97.0803 63.7029 97.0883 63.68C97.0963 63.657 97.0991 63.6326 97.0964 63.6085C97.0938 63.5844 97.0857 63.5611 97.0729 63.5405C97.0601 63.5199 97.0428 63.5024 97.0224 63.4894Z" fill="white"/>
<path d="M85.2698 68.5698L88.3934 71.5149L95.8237 64.174L92.0527 61.7197L85.2698 68.5698Z" fill="#856FB3"/>
<path d="M95.5347 65.9858C95.5553 66.0055 95.5827 66.0164 95.6111 66.0164C95.6396 66.0165 95.667 66.0055 95.6876 65.9859C95.7218 65.8908 96.5149 65.3132 96.3373 65.1832C96.3167 65.1636 96.2894 65.1526 96.2609 65.1526C96.2324 65.1526 96.205 65.1635 96.1844 65.1832C96.1502 65.2782 95.3571 65.8558 95.5347 65.9858Z" fill="#E6E6E6"/>
<path d="M94.593 67.0805C94.6271 66.9854 95.4204 66.4078 95.2427 66.2777C95.1104 66.1018 94.5378 66.8914 94.44 66.9275C94.3394 67.0254 94.4954 67.1807 94.593 67.0805Z" fill="#E6E6E6"/>
<path d="M86.0716 71.0978C86.0854 72.0445 84.5982 72.0445 84.6122 71.0977C84.5983 70.151 86.0855 70.151 86.0716 71.0978Z" fill="#856FB3"/>
<path opacity="0.2" d="M77.2792 85.8929C76.1041 87.3352 74.6921 88.567 73.1037 89.5355C72.8271 89.7148 72.5402 89.8865 72.243 90.0555L70.5472 91.5003C67.1813 87.0764 67.3708 73.6355 67.3708 73.6355L72.4941 74.1478L77.2792 85.8929Z" fill="black"/>
<path d="M87.3333 82.3675L83.9165 80.6592L86.7638 72.9714L87.5142 69.0944C87.6117 68.5907 87.8397 68.1214 88.1754 67.7334C88.511 67.3454 88.9427 67.0523 89.4271 66.8834C89.9115 66.7145 90.4318 66.6757 90.936 66.7708C91.4401 66.866 91.9105 67.0918 92.3 67.4257C92.8772 67.9205 93.2397 68.6202 93.3108 69.3771C93.382 70.134 93.1562 70.889 92.6813 71.4827L89.8958 74.9645L87.3333 82.3675Z" fill="#A0616A"/>
<path d="M83.9163 79.2355L88.472 81.5134L85.0147 92.3463C84.7665 93.1242 84.3214 93.8247 83.7227 94.38C83.124 94.9353 82.392 95.3265 81.5977 95.5156C80.6182 95.7488 79.5899 95.664 78.6619 95.2735C77.7338 94.883 76.9543 94.207 76.4363 93.3436L67.2685 77.6296C66.6188 76.5468 66.4183 75.2529 66.7097 74.0242C67.0012 72.7956 67.7615 71.7296 68.8283 71.0539C69.4021 70.6905 70.0459 70.452 70.7179 70.3539C71.39 70.2559 72.0751 70.3004 72.7288 70.4846C73.3825 70.6688 73.9901 70.9886 74.512 71.4232C75.0339 71.8577 75.4585 72.3973 75.7581 73.0068L81.3538 84.9302L83.9163 79.2355Z" fill="#E6E6E6"/>
<path d="M79.9763 53.1778C80.6027 53.7002 81.3099 54.1175 82.07 54.4134C82.8419 54.6725 83.7379 54.678 84.4268 54.2442C85.2393 53.7327 85.6101 52.6937 85.5268 51.7372C85.4436 50.7808 84.9743 49.8983 84.4138 49.1188C83.3819 47.6835 82.0251 46.5127 80.4542 45.7019C78.8834 44.8911 77.143 44.4633 75.3752 44.4535C73.6075 44.4438 71.8625 44.8522 70.2828 45.6456C68.7031 46.439 67.3334 47.5948 66.2856 49.0186C65.5664 49.9959 64.9964 51.1308 64.934 52.3427C64.8241 54.4784 66.2855 56.4721 66.1293 58.605C65.9971 60.4089 64.7023 61.9543 63.1688 62.9134C61.6353 63.8726 59.8631 64.3589 58.1484 64.9349C56.4338 65.5109 54.6999 66.2217 53.4308 67.5106C52.1618 68.7995 51.4618 70.7996 52.1584 72.4688C52.7308 73.8405 54.091 74.7129 55.4548 75.3036C59.112 76.8696 63.2199 77.0238 66.9842 75.7363C68.3719 75.2552 69.8874 74.2926 69.9084 72.824C69.9176 72.1865 69.6307 71.5881 69.4585 70.9743C69.2862 70.3605 69.254 69.6285 69.686 69.1597C70.2219 68.5784 71.2121 68.7123 71.8525 69.1759C72.4929 69.6395 72.9093 70.3428 73.4377 70.9309C74.4409 72.0477 75.9617 72.7611 77.4481 72.5508C78.9345 72.3404 80.278 71.0742 80.3395 69.5742C80.4451 66.9976 77.2169 65.3844 76.866 62.8296C76.6316 61.1233 77.7425 59.5622 78.7051 58.134C79.6677 56.7058 80.563 54.9164 79.8892 53.3313" fill="#2F2E41"/>
<path d="M38.5525 113.469C37.4956 113.468 36.4553 113.206 35.5242 112.706C34.5931 112.206 33.8001 111.484 33.216 110.603C32.6319 109.722 32.2747 108.71 32.1763 107.658C32.0779 106.606 32.2413 105.546 32.652 104.572L33.5956 104.971C33.1835 105.949 33.0697 107.027 33.2684 108.069C33.4671 109.112 33.9694 110.072 34.7123 110.83C35.4553 111.588 36.4056 112.109 37.4439 112.328C38.4821 112.547 39.562 112.455 40.5479 112.062L40.9281 113.014C40.1726 113.316 39.3662 113.47 38.5525 113.469Z" fill="#3F3D56"/>
<path d="M31.8913 106.767C31.1704 106.744 30.4867 106.441 29.985 105.923C29.4832 105.405 29.2026 104.712 29.2026 103.991V58.0098C29.4441 57.768 29.7349 57.581 30.0551 57.4617C30.3753 57.3424 30.7175 57.2935 31.0584 57.3183C31.3992 57.3431 31.7307 57.4411 32.0302 57.6056C32.3298 57.7701 32.5904 57.9972 32.7942 58.2715C45.8888 75.978 46.4656 91.856 34.0588 105.837C33.7878 106.142 33.4532 106.383 33.0786 106.544C32.704 106.704 32.2987 106.781 31.8913 106.767Z" fill="#856FB3"/>
<path d="M28.8184 103.991V58.1377C29.0516 58.138 29.2806 58.2005 29.4816 58.3187C29.6826 58.437 29.8485 58.6067 29.962 58.8105C35.9213 69.5069 40.3421 77.9821 40.2214 85.663C40.1135 92.5222 35.2947 95.6891 31.0913 102.708C30.8555 103.1 30.5222 103.424 30.1239 103.649C29.7256 103.873 29.2758 103.991 28.8184 103.991Z" fill="#3F3D56"/>
<path d="M48.4147 113.341H40.4736V111.291L46.8777 109.498L48.4147 113.341Z" fill="#3F3D56"/>
<path d="M45.5969 111.292H66.6022C66.6022 112.446 66.1434 113.554 65.3268 114.371C64.5101 115.187 63.4024 115.646 62.2475 115.646H49.9517C48.7967 115.646 47.6891 115.187 46.8724 114.371C46.0557 113.554 45.5969 112.446 45.5969 111.292Z" fill="#3F3D56"/>
<path d="M58.4049 115.134H55.5872V117.439H58.4049V115.134Z" fill="#3F3D56"/>
<path d="M59.6857 116.927H54.5625V123.843H59.6857V116.927Z" fill="#3F3D56"/>
<path d="M59.3015 127.558H54.9468V136.78H59.3015V127.558Z" fill="#3F3D56"/>
<path d="M61.607 128.582H52.6414L53.9222 122.947H61.607V128.582Z" fill="#3F3D56"/>
<path d="M53.666 128.07L35.4784 136.523L35.2223 137.804H32.6606L32.7831 135.845C32.8238 135.193 33.034 134.564 33.3929 134.019C33.7518 133.474 34.2469 133.033 34.8291 132.738L54.1783 122.947L53.666 128.07Z" fill="#3F3D56"/>
<path d="M60.5825 128.07L79.7947 136.523L80.0509 137.804H82.6125L82.49 135.845C82.4493 135.193 82.2391 134.564 81.8802 134.019C81.5213 133.474 81.0262 133.033 80.4441 132.738L61.6072 122.947L60.5825 128.07Z" fill="#3F3D56"/>
<path d="M33.6855 143.184C35.2417 143.184 36.5032 141.922 36.5032 140.366C36.5032 138.81 35.2417 137.548 33.6855 137.548C32.1292 137.548 30.8677 138.81 30.8677 140.366C30.8677 141.922 32.1292 143.184 33.6855 143.184Z" fill="#3F3D56"/>
<path d="M66.2179 143.184C67.7742 143.184 69.0357 141.922 69.0357 140.366C69.0357 138.81 67.7742 137.548 66.2179 137.548C64.6617 137.548 63.4001 138.81 63.4001 140.366C63.4001 141.922 64.6617 143.184 66.2179 143.184Z" fill="#3F3D56"/>
<path d="M81.3315 143.184C82.8877 143.184 84.1492 141.922 84.1492 140.366C84.1492 138.81 82.8877 137.548 81.3315 137.548C79.7752 137.548 78.5137 138.81 78.5137 140.366C78.5137 141.922 79.7752 143.184 81.3315 143.184Z" fill="#3F3D56"/>
<path d="M67.2427 138.573L65.1934 138.317L64.681 136.267L57.7646 127.814L60.8386 124.74L66.3096 133.056C66.9183 133.981 67.2427 135.064 67.2427 136.172V138.573Z" fill="#3F3D56"/>
<path d="M75.6557 111.932H41.6668C41.2242 111.932 40.7859 111.845 40.377 111.675C39.9681 111.506 39.5965 111.258 39.2836 110.945C38.9706 110.632 38.7223 110.26 38.5529 109.851C38.3836 109.442 38.2964 109.004 38.2964 108.561V106.734C38.2968 105.96 38.4681 105.196 38.7982 104.495C39.1282 103.795 39.6089 103.176 40.2058 102.683C45.9434 97.9416 50.5876 93.9095 56.9963 94.2309C62.5333 94.5085 69.5326 101.477 75.5682 103.626C76.5832 103.992 77.4602 104.662 78.0793 105.546C78.6983 106.429 79.0291 107.483 79.0262 108.561C79.0262 109.004 78.939 109.442 78.7696 109.851C78.6002 110.26 78.352 110.632 78.039 110.945C77.726 111.258 77.3545 111.506 76.9455 111.675C76.5366 111.845 76.0983 111.932 75.6557 111.932Z" fill="#856FB3"/>
<path d="M219.878 85.3509H124.211C123.742 85.3503 123.291 85.1635 122.959 84.8314C122.627 84.4993 122.44 84.049 122.44 83.5793V1.7716C122.44 1.30191 122.627 0.851622 122.959 0.519501C123.291 0.187381 123.742 0.000551845 124.211 0H219.878C220.348 0.000551846 220.798 0.187381 221.13 0.519501C221.462 0.851622 221.649 1.30191 221.65 1.7716V83.5793C221.649 84.049 221.462 84.4993 221.13 84.8314C220.798 85.1635 220.348 85.3503 219.878 85.3509ZM124.211 0.708644C123.929 0.708952 123.659 0.821037 123.46 1.02031C123.261 1.21959 123.149 1.48978 123.148 1.7716V83.5793C123.149 83.8611 123.261 84.1313 123.46 84.3306C123.659 84.5299 123.929 84.642 124.211 84.6423H219.878C220.16 84.642 220.43 84.5299 220.629 84.3306C220.829 84.1313 220.941 83.8611 220.941 83.5793V1.7716C220.941 1.48978 220.829 1.2196 220.629 1.02032C220.43 0.821041 220.16 0.708952 219.878 0.708644H124.211Z" fill="#E6E6E6"/>
<path d="M139.076 78.0198C143.062 78.0198 146.293 74.7888 146.293 70.8032C146.293 66.8176 143.062 63.5867 139.076 63.5867C135.09 63.5867 131.859 66.8176 131.859 70.8032C131.859 74.7888 135.09 78.0198 139.076 78.0198Z" fill="#E6E6E6"/>
<path d="M155.743 65.9922C155.424 65.9922 155.118 66.1189 154.892 66.3445C154.667 66.57 154.54 66.876 154.54 67.1949C154.54 67.5139 154.667 67.8199 154.892 68.0454C155.118 68.271 155.424 68.3977 155.743 68.3977H212.444C212.763 68.3977 213.069 68.271 213.295 68.0454C213.521 67.8199 213.647 67.5139 213.647 67.1949C213.647 66.876 213.521 66.57 213.295 66.3445C213.069 66.1189 212.763 65.9922 212.444 65.9922H155.743Z" fill="#E6E6E6"/>
<path d="M155.743 73.209C155.585 73.2088 155.428 73.2397 155.282 73.3C155.136 73.3604 155.003 73.4489 154.891 73.5606C154.779 73.6724 154.691 73.805 154.63 73.9511C154.57 74.0971 154.538 74.2537 154.538 74.4118C154.538 74.5698 154.57 74.7264 154.63 74.8724C154.691 75.0185 154.779 75.1512 154.891 75.2629C155.003 75.3746 155.136 75.4631 155.282 75.5235C155.428 75.5838 155.585 75.6148 155.743 75.6145H180.142C180.46 75.6141 180.766 75.4871 180.991 75.2616C181.216 75.0361 181.343 74.7304 181.343 74.4118C181.343 74.0931 181.216 73.7874 180.991 73.5619C180.766 73.3364 180.46 73.2095 180.142 73.209H155.743Z" fill="#E6E6E6"/>
<path d="M242.607 56.8173H146.94C146.47 56.8168 146.02 56.6299 145.688 56.2978C145.356 55.9657 145.169 55.5154 145.168 55.0457V13.0621C145.169 12.5925 145.356 12.1422 145.688 11.81C146.02 11.4779 146.47 11.2911 146.94 11.2905H242.607C243.077 11.2911 243.527 11.4779 243.859 11.81C244.191 12.1422 244.378 12.5925 244.378 13.0621V55.0457C244.378 55.5154 244.191 55.9657 243.859 56.2978C243.527 56.6299 243.077 56.8168 242.607 56.8173Z" fill="#856FB3"/>
<path d="M166.423 25.9243C166.104 25.9243 165.798 26.051 165.573 26.2766C165.347 26.5022 165.22 26.8081 165.22 27.1271C165.22 27.4461 165.347 27.752 165.573 27.9776C165.798 28.2031 166.104 28.3298 166.423 28.3298H223.125C223.444 28.3298 223.75 28.2031 223.975 27.9776C224.201 27.752 224.328 27.4461 224.328 27.1271C224.328 26.8081 224.201 26.5022 223.975 26.2766C223.75 26.051 223.444 25.9243 223.125 25.9243H166.423Z" fill="white"/>
<path d="M166.423 32.8936C166.104 32.8936 165.798 33.0203 165.573 33.2458C165.347 33.4714 165.22 33.7773 165.22 34.0963C165.22 34.4153 165.347 34.7212 165.573 34.9468C165.798 35.1724 166.104 35.2991 166.423 35.2991H223.125C223.444 35.2991 223.75 35.1724 223.975 34.9468C224.201 34.7212 224.328 34.4153 224.328 34.0963C224.328 33.7773 224.201 33.4714 223.975 33.2458C223.75 33.0203 223.444 32.8936 223.125 32.8936H166.423Z" fill="white"/>
<path d="M166.423 39.7783C166.104 39.7783 165.798 39.905 165.573 40.1306C165.347 40.3562 165.22 40.6621 165.22 40.9811C165.22 41.3001 165.347 41.606 165.573 41.8316C165.798 42.0571 166.104 42.1838 166.423 42.1838H190.822C191.141 42.1838 191.447 42.0571 191.673 41.8316C191.898 41.606 192.025 41.3001 192.025 40.9811C192.025 40.6621 191.898 40.3562 191.673 40.1306C191.447 39.905 191.141 39.7783 190.822 39.7783H166.423Z" fill="white"/>
<path d="M242.783 61.3414C246.769 61.3414 250 58.1104 250 54.1248C250 50.1392 246.769 46.9082 242.783 46.9082C238.798 46.9082 235.567 50.1392 235.567 54.1248C235.567 58.1104 238.798 61.3414 242.783 61.3414Z" fill="#3F3D56"/>
<path d="M242.181 57.3158L239.891 54.3707L241.223 53.3348L242.307 54.7291L245.971 50.8618L247.196 52.0225L242.181 57.3158Z" fill="white"/>
</g>
<defs>
<clipPath id="clip0">
<rect width="250" height="144.593" fill="white"/>
</clipPath>
</defs>
</svg>
