<svg width="619" height="237" viewBox="0 0 619 237" fill="none" xmlns="http://www.w3.org/2000/svg">
<g filter="url(#filter0_i)">
<path d="M112 208C167.228 208 212 163.228 212 108C212 52.7715 167.228 8 112 8C56.7715 8 12 52.7715 12 108C12 163.228 56.7715 208 112 208Z" fill="#D1C1F2"/>
</g>
<path d="M58.9931 167.722C53.1052 158.377 54.7252 129.506 54.7252 129.506C31.9682 124.646 29.5227 118.33 29.5227 118.33C28.1052 115.487 20.1769 117.045 20.5819 115.892C37.0461 90.4873 58.9931 104.919 55.3404 100.16C37.856 64.2645 55.5507 42.3175 52.9027 50.0433C59.1333 98.1586 101.244 100.347 111.672 100.145C113.16 99.8954 163.721 105.036 170.862 50.0433C168.222 42.3175 185.909 64.2645 168.425 100.16C164.772 104.919 186.719 90.4873 203.183 115.892C203.549 117.045 195.66 115.487 194.242 118.33C194.242 118.33 191.797 124.631 169.04 129.506C169.04 129.506 170.66 158.369 164.772 167.722L150.629 189.464L112.857 201.925L78.1993 192.579L58.9931 167.722Z" fill="#FBFBFB" stroke="#181138" stroke-width="4" stroke-miterlimit="10"/>
<path d="M147.498 91.3604C147.498 91.3604 158.915 101.049 170.333 96.228C173.58 110.434 169.141 129.507 169.141 129.507L170.535 147.42C170.535 147.42 118.3 159.001 111.805 100.177C139.235 102.061 147.498 91.3604 147.498 91.3604Z" fill="#644A98"/>
<path d="M56.4938 128.328L56.7664 121.755C56.7664 121.755 56.7664 117.015 48.0559 116.458C48.0559 116.458 34.0871 115.6 30.8026 117.417C30.3871 117.425 43.2522 129.99 56.4938 128.328Z" fill="#FFE1A0"/>
<path d="M167.55 128.558L167.335 121.32C167.335 121.32 167.335 116.283 176.346 115.692C176.346 115.692 190.796 114.78 194.194 116.711C194.624 116.719 181.248 130.325 167.55 128.558Z" fill="#FFE1A0"/>
<path d="M144.827 92.7856C144.827 92.7856 172.203 72.1859 171.657 51.0488C171.657 51.0488 185.434 70.0211 169.211 99.0165C165.691 99.8264 154.041 103.354 144.827 92.7856Z" fill="#CDAB3C"/>
<path d="M79.4761 92.7856C79.4761 92.7856 52.1085 72.1859 52.6458 51.0488C52.6458 51.0488 39.406 70.0208 55.6287 99.0161C59.149 99.8261 70.2627 103.354 79.4761 92.7856Z" fill="#CDAB3C"/>
<path d="M142.825 157.533C145.406 157.533 147.498 155.441 147.498 152.86C147.498 150.28 145.406 148.188 142.825 148.188C140.245 148.188 138.153 150.28 138.153 152.86C138.153 155.441 140.245 157.533 142.825 157.533Z" fill="#373D3F"/>
<path d="M386.464 63.3203C386.805 62.211 387.403 61.4003 388.256 60.8883C389.109 60.291 390.048 59.9923 391.072 59.9923C392.437 59.9923 393.589 60.419 394.528 61.2723C395.552 62.0403 396.064 63.107 396.064 64.4723C396.064 65.0696 395.936 65.7523 395.68 66.5203L366.752 148.056C366.325 149.251 365.6 150.189 364.576 150.872C363.552 151.469 362.4 151.768 361.12 151.768C359.925 151.768 358.816 151.469 357.792 150.872C356.768 150.189 356.043 149.251 355.616 148.056L330.528 77.1443L305.184 148.056C304.757 149.251 304.032 150.189 303.008 150.872C301.984 151.469 300.875 151.768 299.68 151.768C298.485 151.768 297.376 151.469 296.352 150.872C295.328 150.189 294.603 149.251 294.176 148.056L265.12 66.5203C264.864 65.8376 264.736 65.1976 264.736 64.6003C264.736 63.235 265.248 62.1256 266.272 61.2723C267.381 60.419 268.619 59.9923 269.984 59.9923C271.008 59.9923 271.947 60.291 272.8 60.8883C273.739 61.4003 274.379 62.211 274.72 63.3203L299.936 136.024L325.536 64.0883C325.963 62.8083 326.645 61.8696 327.584 61.2723C328.523 60.5896 329.547 60.2483 330.656 60.2483C331.765 60.2483 332.789 60.5896 333.728 61.2723C334.667 61.955 335.349 62.9363 335.776 64.2163L360.992 136.28L386.464 63.3203ZM458.636 152.024C452.236 152.024 446.092 151.085 440.204 149.208C434.401 147.245 429.751 144.643 426.252 141.4C424.972 140.205 424.332 138.712 424.332 136.92C424.332 135.725 424.673 134.701 425.356 133.848C426.039 132.909 426.849 132.44 427.788 132.44C428.897 132.44 430.092 132.909 431.372 133.848C439.308 139.992 448.353 143.064 458.508 143.064C465.847 143.064 471.479 141.656 475.404 138.84C479.329 136.024 481.292 132.013 481.292 126.808C481.292 123.821 480.353 121.432 478.476 119.64C476.599 117.763 474.124 116.269 471.052 115.16C467.98 114.051 463.841 112.899 458.636 111.704C451.639 110.083 445.879 108.376 441.356 106.584C436.919 104.792 433.292 102.232 430.476 98.9043C427.745 95.5763 426.38 91.2243 426.38 85.8483C426.38 80.7283 427.745 76.2056 430.476 72.2803C433.292 68.2696 437.175 65.1976 442.124 63.0643C447.159 60.8456 452.876 59.7363 459.276 59.7363C465.249 59.7363 470.796 60.675 475.916 62.5523C481.121 64.3443 485.473 66.947 488.972 70.3603C490.337 71.7256 491.02 73.219 491.02 74.8403C491.02 76.035 490.679 77.1016 489.996 78.0403C489.313 78.8936 488.503 79.3203 487.564 79.3203C486.625 79.3203 485.388 78.851 483.852 77.9123C479.671 74.499 475.788 72.1096 472.204 70.7443C468.62 69.379 464.311 68.6963 459.276 68.6963C452.193 68.6963 446.689 70.1896 442.764 73.1763C438.839 76.0776 436.876 80.1736 436.876 85.4643C436.876 89.987 438.583 93.4003 441.996 95.7043C445.495 97.923 450.828 99.8856 457.996 101.592C465.761 103.469 471.863 105.219 476.3 106.84C480.737 108.376 484.407 110.723 487.308 113.88C490.295 117.037 491.788 121.261 491.788 126.552C491.788 131.587 490.38 136.024 487.564 139.864C484.833 143.704 480.951 146.691 475.916 148.824C470.881 150.957 465.121 152.024 458.636 152.024ZM565.796 152.024C557.433 152.024 550.137 150.147 543.908 146.392C537.764 142.637 533.028 137.304 529.7 130.392C526.372 123.48 524.708 115.331 524.708 105.944C524.708 96.4723 526.329 88.2803 529.572 81.3683C532.9 74.371 537.636 69.0376 543.78 65.3683C550.009 61.6136 557.348 59.7363 565.796 59.7363C574.244 59.7363 581.54 61.6136 587.684 65.3683C593.913 69.0376 598.649 74.371 601.892 81.3683C605.22 88.2803 606.884 96.4296 606.884 105.816C606.884 115.203 605.22 123.395 601.892 130.392C598.564 137.304 593.785 142.637 587.556 146.392C581.412 150.147 574.159 152.024 565.796 152.024ZM565.796 143.064C575.353 143.064 582.777 139.864 588.068 133.464C593.444 126.979 596.132 117.763 596.132 105.816C596.132 93.8696 593.487 84.6963 588.196 78.2963C582.905 71.8963 575.439 68.6963 565.796 68.6963C556.239 68.6963 548.772 71.939 543.396 78.4243C538.105 84.8243 535.46 93.955 535.46 105.816C535.46 117.677 538.105 126.851 543.396 133.336C548.772 139.821 556.239 143.064 565.796 143.064Z" fill="#131516"/>
<path d="M80.5358 157.533C83.1166 157.533 85.2087 155.441 85.2087 152.86C85.2087 150.28 83.1166 148.188 80.5358 148.188C77.955 148.188 75.8629 150.28 75.8629 152.86C75.8629 155.441 77.955 157.533 80.5358 157.533Z" fill="#373D3F"/>
<path d="M59.1337 167.722C53.2381 158.377 54.8658 129.506 54.8658 129.506C32.101 124.646 29.6633 118.33 29.6633 118.33C28.2381 115.487 20.3175 117.045 20.7225 115.892C37.1789 90.4873 59.1337 104.919 55.4733 100.16C37.9967 64.2645 55.6758 42.3175 53.0356 50.0433C59.2661 98.1586 101.377 100.347 111.805 100.145C113.3 99.8954 163.853 105.036 170.995 50.0433C168.355 42.3175 186.034 64.2645 168.557 100.16C164.897 104.919 186.844 90.4873 203.308 115.892C203.682 117.045 195.793 115.487 194.367 118.33C194.367 118.33 191.93 124.631 169.165 129.506C169.165 129.506 170.793 158.369 164.897 167.722L157.958 178.009L151.019 188.296L112.857 200.367L77.0316 193.747L59.1337 167.722Z" stroke="#131516" stroke-width="4" stroke-miterlimit="10"/>
<mask id="mask0" mask-type="alpha" maskUnits="userSpaceOnUse" x="4" y="0" width="216" height="216">
<path d="M112 210C168.333 210 214 164.333 214 108C214 51.667 168.333 6 112 6C55.667 6 10 51.667 10 108C10 164.333 55.667 210 112 210Z" fill="#C4C4C4" stroke="#131516" stroke-width="4"/>
<path d="M112 212C169.438 212 216 165.438 216 108C216 50.5624 169.438 4 112 4C54.5624 4 8 50.5624 8 108C8 165.438 54.5624 212 112 212Z" stroke="#131516" stroke-width="8"/>
</mask>
<g mask="url(#mask0)">
<path d="M183.574 192.157C183.574 200.654 176.316 208.937 163.213 215.213C150.257 221.42 132.216 225.314 112.181 225.314C92.1455 225.314 74.1051 221.42 61.1482 215.213C48.0459 208.937 40.7878 200.654 40.7878 192.157C40.7878 183.66 48.0459 175.377 61.1482 169.101C74.1051 162.894 92.1455 159 112.181 159C132.216 159 150.257 162.894 163.213 169.101C176.316 175.377 183.574 183.66 183.574 192.157Z" fill="#644A98" stroke="#131516" stroke-width="4"/>
<path d="M94.9425 188.808C97.4764 187.626 98.2042 183.824 96.5682 180.316C94.9322 176.808 91.5518 174.921 89.0179 176.103C86.484 177.284 85.7562 181.086 87.3922 184.595C89.0282 188.103 92.4086 189.99 94.9425 188.808Z" fill="#B3A3D4"/>
<path d="M129.041 188.733C131.575 189.915 134.955 188.029 136.591 184.52C138.227 181.012 137.499 177.21 134.965 176.028C132.431 174.847 129.051 176.733 127.415 180.241C125.779 183.75 126.507 187.552 129.041 188.733Z" fill="#B3A3D4"/>
<path d="M112 212C169.438 212 216 165.438 216 108C216 50.5624 169.438 4 112 4C54.5624 4 8 50.5624 8 108C8 165.438 54.5624 212 112 212Z" stroke="#131516" stroke-width="8"/>
</g>
<defs>
<filter id="filter0_i" x="12" y="8" width="200" height="204" filterUnits="userSpaceOnUse" color-interpolation-filters="sRGB">
<feFlood flood-opacity="0" result="BackgroundImageFix"/>
<feBlend mode="normal" in="SourceGraphic" in2="BackgroundImageFix" result="shape"/>
<feColorMatrix in="SourceAlpha" type="matrix" values="0 0 0 0 0 0 0 0 0 0 0 0 0 0 0 0 0 0 127 0" result="hardAlpha"/>
<feOffset dy="4"/>
<feGaussianBlur stdDeviation="2"/>
<feComposite in2="hardAlpha" operator="arithmetic" k2="-1" k3="1"/>
<feColorMatrix type="matrix" values="0 0 0 0 0 0 0 0 0 0 0 0 0 0 0 0 0 0 0.25 0"/>
<feBlend mode="normal" in2="shape" result="effect1_innerShadow"/>
</filter>
</defs>
</svg>
