<svg width="619" height="237" viewBox="0 0 619 237" fill="none" xmlns="http://www.w3.org/2000/svg">
<g filter="url(#filter0_i)">
<path d="M116 211C171.228 211 216 166.228 216 111C216 55.7715 171.228 11 116 11C60.7715 11 16 55.7715 16 111C16 166.228 60.7715 211 116 211Z" fill="#D1C1F2"/>
</g>
<path d="M62.9931 170.722C57.1052 161.377 58.7252 132.506 58.7252 132.506C35.9682 127.646 33.5227 121.33 33.5227 121.33C32.1052 118.487 24.1769 120.045 24.5819 118.892C41.0461 93.4873 62.9931 107.919 59.3404 103.16C41.856 67.2645 59.5507 45.3175 56.9027 53.0433C63.1333 101.159 105.244 103.347 115.672 103.145C117.16 102.895 167.721 108.036 174.862 53.0433C172.222 45.3175 189.909 67.2645 172.425 103.16C168.772 107.919 190.719 93.4873 207.183 118.892C207.549 120.045 199.66 118.487 198.242 121.33C198.242 121.33 195.797 127.631 173.04 132.506C173.04 132.506 174.66 161.369 168.772 170.722L154.629 192.464L116.857 204.925L82.1993 195.579L62.9931 170.722Z" fill="#FBFBFB" stroke="#181138" stroke-width="4" stroke-miterlimit="10"/>
<path d="M151.498 94.3604C151.498 94.3604 162.915 104.049 174.333 99.228C177.58 113.434 173.141 132.507 173.141 132.507L174.535 150.42C174.535 150.42 122.3 162.001 115.805 103.177C143.235 105.061 151.498 94.3604 151.498 94.3604Z" fill="#644A98"/>
<path d="M60.4938 131.328L60.7664 124.755C60.7664 124.755 60.7664 120.015 52.0559 119.458C52.0559 119.458 38.0871 118.6 34.8026 120.417C34.3871 120.425 47.2522 132.99 60.4938 131.328Z" fill="#FFE1A0"/>
<path d="M171.55 131.558L171.335 124.32C171.335 124.32 171.335 119.283 180.346 118.692C180.346 118.692 194.796 117.78 198.194 119.711C198.624 119.719 185.248 133.325 171.55 131.558Z" fill="#FFE1A0"/>
<path d="M148.827 95.7856C148.827 95.7856 176.203 75.1859 175.657 54.0488C175.657 54.0488 189.434 73.0211 173.211 102.016C169.691 102.826 158.041 106.354 148.827 95.7856Z" fill="#CDAB3C"/>
<path d="M83.4761 95.7856C83.4761 95.7856 56.1085 75.1859 56.6458 54.0488C56.6458 54.0488 43.406 73.0208 59.6287 102.016C63.149 102.826 74.2627 106.354 83.4761 95.7856Z" fill="#CDAB3C"/>
<path d="M146.825 160.533C149.406 160.533 151.498 158.441 151.498 155.86C151.498 153.28 149.406 151.188 146.825 151.188C144.245 151.188 142.153 153.28 142.153 155.86C142.153 158.441 144.245 160.533 146.825 160.533Z" fill="#373D3F"/>
<path d="M84.5358 160.533C87.1166 160.533 89.2087 158.441 89.2087 155.86C89.2087 153.28 87.1166 151.188 84.5358 151.188C81.955 151.188 79.8629 153.28 79.8629 155.86C79.8629 158.441 81.955 160.533 84.5358 160.533Z" fill="#373D3F"/>
<path d="M63.1337 170.722C57.2381 161.377 58.8658 132.506 58.8658 132.506C36.101 127.646 33.6633 121.33 33.6633 121.33C32.2381 118.487 24.3175 120.045 24.7225 118.892C41.1789 93.4873 63.1337 107.919 59.4733 103.16C41.9967 67.2645 59.6758 45.3175 57.0356 53.0433C63.2661 101.159 105.377 103.347 115.805 103.145C117.3 102.895 167.853 108.036 174.995 53.0433C172.355 45.3175 190.034 67.2645 172.557 103.16C168.897 107.919 190.844 93.4873 207.308 118.892C207.682 120.045 199.793 118.487 198.367 121.33C198.367 121.33 195.93 127.631 173.165 132.506C173.165 132.506 174.793 161.369 168.897 170.722L161.958 181.009L155.019 191.296L116.857 203.367L81.0316 196.747L63.1337 170.722Z" stroke="#131516" stroke-width="4" stroke-miterlimit="10"/>
<mask id="path-11-outside-1" maskUnits="userSpaceOnUse" x="42.8083" y="160.271" width="147" height="55" fill="black">
<rect fill="white" x="42.8083" y="160.271" width="147" height="55"/>
<path fill-rule="evenodd" clip-rule="evenodd" d="M183.446 185.553C165.888 201.335 142.27 211 116.295 211C90.1541 211 66.3999 201.211 48.8083 185.25C60.1881 172.894 85.9862 164.271 115.989 164.271C146.237 164.271 172.211 173.036 183.446 185.553Z"/>
</mask>
<path fill-rule="evenodd" clip-rule="evenodd" d="M183.446 185.553C165.888 201.335 142.27 211 116.295 211C90.1541 211 66.3999 201.211 48.8083 185.25C60.1881 172.894 85.9862 164.271 115.989 164.271C146.237 164.271 172.211 173.036 183.446 185.553Z" fill="#644A98"/>
<path d="M183.446 185.553L186.12 188.528L189.092 185.856L186.422 182.881L183.446 185.553ZM48.8083 185.25L45.8661 182.54L43.1359 185.504L46.1206 188.212L48.8083 185.25ZM180.772 182.578C163.936 197.711 141.265 207 116.295 207V215C143.274 215 167.841 204.958 186.12 188.528L180.772 182.578ZM116.295 207C91.165 207 68.3646 197.592 51.4961 182.287L46.1206 188.212C64.4352 204.829 89.1433 215 116.295 215V207ZM51.7506 187.96C56.7965 182.481 65.3726 177.522 76.6286 173.938C87.8174 170.376 101.354 168.271 115.989 168.271V160.271C100.621 160.271 86.2574 162.477 74.2015 166.315C62.2128 170.132 52.1999 175.663 45.8661 182.54L51.7506 187.96ZM115.989 168.271C130.744 168.271 144.382 170.411 155.623 174.026C166.934 177.664 175.501 182.69 180.469 188.225L186.422 182.881C180.155 175.899 170.118 170.284 158.072 166.41C145.955 162.513 131.482 160.271 115.989 160.271V168.271Z" fill="#131516" mask="url(#path-11-outside-1)"/>
<circle cx="116" cy="111" r="104" stroke="#131516" stroke-width="8"/>
<ellipse cx="95.9802" cy="185.455" rx="5.06231" ry="7.00935" transform="rotate(-25 95.9802 185.455)" fill="#B3A3D4"/>
<ellipse cx="136.003" cy="185.381" rx="5.06231" ry="7.00935" transform="rotate(25 136.003 185.381)" fill="#B3A3D4"/>
<path d="M390.464 66.32C390.805 65.2107 391.403 64.4 392.256 63.888C393.109 63.2907 394.048 62.992 395.072 62.992C396.437 62.992 397.589 63.4187 398.528 64.272C399.552 65.04 400.064 66.1067 400.064 67.472C400.064 68.0693 399.936 68.752 399.68 69.52L370.752 151.056C370.325 152.251 369.6 153.189 368.576 153.872C367.552 154.469 366.4 154.768 365.12 154.768C363.925 154.768 362.816 154.469 361.792 153.872C360.768 153.189 360.043 152.251 359.616 151.056L334.528 80.144L309.184 151.056C308.757 152.251 308.032 153.189 307.008 153.872C305.984 154.469 304.875 154.768 303.68 154.768C302.485 154.768 301.376 154.469 300.352 153.872C299.328 153.189 298.603 152.251 298.176 151.056L269.12 69.52C268.864 68.8373 268.736 68.1973 268.736 67.6C268.736 66.2347 269.248 65.1253 270.272 64.272C271.381 63.4187 272.619 62.992 273.984 62.992C275.008 62.992 275.947 63.2907 276.8 63.888C277.739 64.4 278.379 65.2107 278.72 66.32L303.936 139.024L329.536 67.088C329.963 65.808 330.645 64.8693 331.584 64.272C332.523 63.5893 333.547 63.248 334.656 63.248C335.765 63.248 336.789 63.5893 337.728 64.272C338.667 64.9547 339.349 65.936 339.776 67.216L364.992 139.28L390.464 66.32ZM462.636 155.024C456.236 155.024 450.092 154.085 444.204 152.208C438.401 150.245 433.751 147.643 430.252 144.4C428.972 143.205 428.332 141.712 428.332 139.92C428.332 138.725 428.673 137.701 429.356 136.848C430.039 135.909 430.849 135.44 431.788 135.44C432.897 135.44 434.092 135.909 435.372 136.848C443.308 142.992 452.353 146.064 462.508 146.064C469.847 146.064 475.479 144.656 479.404 141.84C483.329 139.024 485.292 135.013 485.292 129.808C485.292 126.821 484.353 124.432 482.476 122.64C480.599 120.763 478.124 119.269 475.052 118.16C471.98 117.051 467.841 115.899 462.636 114.704C455.639 113.083 449.879 111.376 445.356 109.584C440.919 107.792 437.292 105.232 434.476 101.904C431.745 98.576 430.38 94.224 430.38 88.848C430.38 83.728 431.745 79.2053 434.476 75.28C437.292 71.2693 441.175 68.1973 446.124 66.064C451.159 63.8453 456.876 62.736 463.276 62.736C469.249 62.736 474.796 63.6747 479.916 65.552C485.121 67.344 489.473 69.9467 492.972 73.36C494.337 74.7253 495.02 76.2187 495.02 77.84C495.02 79.0347 494.679 80.1013 493.996 81.04C493.313 81.8933 492.503 82.32 491.564 82.32C490.625 82.32 489.388 81.8507 487.852 80.912C483.671 77.4987 479.788 75.1093 476.204 73.744C472.62 72.3787 468.311 71.696 463.276 71.696C456.193 71.696 450.689 73.1893 446.764 76.176C442.839 79.0773 440.876 83.1733 440.876 88.464C440.876 92.9867 442.583 96.4 445.996 98.704C449.495 100.923 454.828 102.885 461.996 104.592C469.761 106.469 475.863 108.219 480.3 109.84C484.737 111.376 488.407 113.723 491.308 116.88C494.295 120.037 495.788 124.261 495.788 129.552C495.788 134.587 494.38 139.024 491.564 142.864C488.833 146.704 484.951 149.691 479.916 151.824C474.881 153.957 469.121 155.024 462.636 155.024ZM569.796 155.024C561.433 155.024 554.137 153.147 547.908 149.392C541.764 145.637 537.028 140.304 533.7 133.392C530.372 126.48 528.708 118.331 528.708 108.944C528.708 99.472 530.329 91.28 533.572 84.368C536.9 77.3707 541.636 72.0373 547.78 68.368C554.009 64.6133 561.348 62.736 569.796 62.736C578.244 62.736 585.54 64.6133 591.684 68.368C597.913 72.0373 602.649 77.3707 605.892 84.368C609.22 91.28 610.884 99.4293 610.884 108.816C610.884 118.203 609.22 126.395 605.892 133.392C602.564 140.304 597.785 145.637 591.556 149.392C585.412 153.147 578.159 155.024 569.796 155.024ZM569.796 146.064C579.353 146.064 586.777 142.864 592.068 136.464C597.444 129.979 600.132 120.763 600.132 108.816C600.132 96.8693 597.487 87.696 592.196 81.296C586.905 74.896 579.439 71.696 569.796 71.696C560.239 71.696 552.772 74.9387 547.396 81.424C542.105 87.824 539.46 96.9547 539.46 108.816C539.46 120.677 542.105 129.851 547.396 136.336C552.772 142.821 560.239 146.064 569.796 146.064Z" fill="black"/>
<defs>
<filter id="filter0_i" x="16" y="11" width="200" height="204" filterUnits="userSpaceOnUse" color-interpolation-filters="sRGB">
<feFlood flood-opacity="0" result="BackgroundImageFix"/>
<feBlend mode="normal" in="SourceGraphic" in2="BackgroundImageFix" result="shape"/>
<feColorMatrix in="SourceAlpha" type="matrix" values="0 0 0 0 0 0 0 0 0 0 0 0 0 0 0 0 0 0 127 0" result="hardAlpha"/>
<feOffset dy="4"/>
<feGaussianBlur stdDeviation="2"/>
<feComposite in2="hardAlpha" operator="arithmetic" k2="-1" k3="1"/>
<feColorMatrix type="matrix" values="0 0 0 0 0 0 0 0 0 0 0 0 0 0 0 0 0 0 0.25 0"/>
<feBlend mode="normal" in2="shape" result="effect1_innerShadow"/>
</filter>
</defs>
</svg>
