<svg width="615" height="224" viewBox="0 0 615 224" fill="none" xmlns="http://www.w3.org/2000/svg">
<g filter="url(#filter0_i)">
<path d="M112 208C167.228 208 212 163.228 212 108C212 52.7715 167.228 8 112 8C56.7715 8 12 52.7715 12 108C12 163.228 56.7715 208 112 208Z" fill="#D1C1F2"/>
</g>
<path d="M58.9931 167.722C53.1052 158.377 54.7252 129.506 54.7252 129.506C31.9682 124.646 29.5227 118.33 29.5227 118.33C28.1052 115.487 20.1769 117.045 20.5819 115.892C37.0461 90.4873 58.9931 104.919 55.3404 100.16C37.856 64.2645 55.5507 42.3175 52.9027 50.0433C59.1333 98.1586 101.244 100.347 111.672 100.145C113.16 99.8954 163.721 105.036 170.862 50.0433C168.222 42.3175 185.909 64.2645 168.425 100.16C164.772 104.919 186.719 90.4873 203.183 115.892C203.549 117.045 195.66 115.487 194.242 118.33C194.242 118.33 191.797 124.631 169.04 129.506C169.04 129.506 170.66 158.369 164.772 167.722L150.629 189.464L112.857 201.925L78.1993 192.579L58.9931 167.722Z" fill="#FBFBFB" stroke="#181138" stroke-width="4" stroke-miterlimit="10"/>
<path d="M147.498 91.3604C147.498 91.3604 158.915 101.049 170.333 96.228C173.58 110.434 169.141 129.507 169.141 129.507L170.535 147.42C170.535 147.42 118.3 159.001 111.805 100.177C139.235 102.061 147.498 91.3604 147.498 91.3604Z" fill="#644A98"/>
<path d="M56.4938 128.328L56.7664 121.755C56.7664 121.755 56.7664 117.015 48.0559 116.458C48.0559 116.458 34.0871 115.6 30.8026 117.417C30.3871 117.425 43.2522 129.99 56.4938 128.328Z" fill="#FFE1A0"/>
<path d="M167.55 128.558L167.335 121.32C167.335 121.32 167.335 116.283 176.346 115.692C176.346 115.692 190.796 114.78 194.194 116.711C194.624 116.719 181.248 130.325 167.55 128.558Z" fill="#FFE1A0"/>
<path d="M144.827 92.7856C144.827 92.7856 172.203 72.1859 171.657 51.0488C171.657 51.0488 185.434 70.0211 169.211 99.0165C165.691 99.8264 154.041 103.354 144.827 92.7856Z" fill="#CDAB3C"/>
<path d="M79.4761 92.7856C79.4761 92.7856 52.1085 72.1859 52.6458 51.0488C52.6458 51.0488 39.406 70.0208 55.6287 99.0161C59.149 99.8261 70.2627 103.354 79.4761 92.7856Z" fill="#CDAB3C"/>
<path d="M142.825 157.533C145.406 157.533 147.498 155.441 147.498 152.86C147.498 150.28 145.406 148.188 142.825 148.188C140.245 148.188 138.153 150.28 138.153 152.86C138.153 155.441 140.245 157.533 142.825 157.533Z" fill="#373D3F"/>
<path d="M80.5358 157.533C83.1166 157.533 85.2087 155.441 85.2087 152.86C85.2087 150.28 83.1166 148.188 80.5358 148.188C77.955 148.188 75.8629 150.28 75.8629 152.86C75.8629 155.441 77.955 157.533 80.5358 157.533Z" fill="#373D3F"/>
<path d="M59.1337 167.722C53.2381 158.377 54.8658 129.506 54.8658 129.506C32.101 124.646 29.6633 118.33 29.6633 118.33C28.2381 115.487 20.3175 117.045 20.7225 115.892C37.1789 90.4873 59.1337 104.919 55.4733 100.16C37.9967 64.2645 55.6758 42.3175 53.0356 50.0433C59.2661 98.1586 101.377 100.347 111.805 100.145C113.3 99.8954 163.853 105.036 170.995 50.0433C168.355 42.3175 186.034 64.2645 168.557 100.16C164.897 104.919 186.844 90.4873 203.308 115.892C203.682 117.045 195.793 115.487 194.367 118.33C194.367 118.33 191.93 124.631 169.165 129.506C169.165 129.506 170.793 158.369 164.897 167.722L157.958 178.009L151.019 188.296L112.857 200.367L77.0316 193.747L59.1337 167.722Z" stroke="#131516" stroke-width="4" stroke-miterlimit="10"/>
<mask id="path-11-outside-1" maskUnits="userSpaceOnUse" x="38.8083" y="157.271" width="147" height="55" fill="black">
<rect fill="white" x="38.8083" y="157.271" width="147" height="55"/>
<path fill-rule="evenodd" clip-rule="evenodd" d="M179.446 182.553C161.888 198.335 138.27 208 112.295 208C86.1541 208 62.3999 198.211 44.8083 182.25C56.1881 169.894 81.9862 161.271 111.989 161.271C142.237 161.271 168.211 170.036 179.446 182.553Z"/>
</mask>
<path fill-rule="evenodd" clip-rule="evenodd" d="M179.446 182.553C161.888 198.335 138.27 208 112.295 208C86.1541 208 62.3999 198.211 44.8083 182.25C56.1881 169.894 81.9862 161.271 111.989 161.271C142.237 161.271 168.211 170.036 179.446 182.553Z" fill="#644A98"/>
<path d="M179.446 182.553L182.12 185.528L185.092 182.856L182.422 179.881L179.446 182.553ZM44.8083 182.25L41.8661 179.54L39.1359 182.504L42.1206 185.212L44.8083 182.25ZM176.772 179.578C159.936 194.711 137.265 204 112.295 204V212C139.274 212 163.841 201.958 182.12 185.528L176.772 179.578ZM112.295 204C87.165 204 64.3646 194.592 47.4961 179.287L42.1206 185.212C60.4352 201.829 85.1433 212 112.295 212V204ZM47.7506 184.96C52.7965 179.481 61.3726 174.522 72.6286 170.938C83.8174 167.376 97.354 165.271 111.989 165.271V157.271C96.6214 157.271 82.2574 159.477 70.2015 163.315C58.2128 167.132 48.1999 172.663 41.8661 179.54L47.7506 184.96ZM111.989 165.271C126.744 165.271 140.382 167.411 151.623 171.026C162.934 174.664 171.501 179.69 176.469 185.225L182.422 179.881C176.155 172.899 166.118 167.284 154.072 163.41C141.955 159.513 127.482 157.271 111.989 157.271V165.271Z" fill="#131516" mask="url(#path-11-outside-1)"/>
<circle cx="112" cy="108" r="104" stroke="#FBFBFB" stroke-width="8"/>
<ellipse cx="91.9802" cy="182.455" rx="5.06231" ry="7.00935" transform="rotate(-25 91.9802 182.455)" fill="#B3A3D4"/>
<ellipse cx="132.003" cy="182.381" rx="5.06231" ry="7.00935" transform="rotate(25 132.003 182.381)" fill="#B3A3D4"/>
<path d="M386.464 63.32C386.805 62.2107 387.403 61.4 388.256 60.888C389.109 60.2907 390.048 59.992 391.072 59.992C392.437 59.992 393.589 60.4187 394.528 61.272C395.552 62.04 396.064 63.1067 396.064 64.472C396.064 65.0693 395.936 65.752 395.68 66.52L366.752 148.056C366.325 149.251 365.6 150.189 364.576 150.872C363.552 151.469 362.4 151.768 361.12 151.768C359.925 151.768 358.816 151.469 357.792 150.872C356.768 150.189 356.043 149.251 355.616 148.056L330.528 77.144L305.184 148.056C304.757 149.251 304.032 150.189 303.008 150.872C301.984 151.469 300.875 151.768 299.68 151.768C298.485 151.768 297.376 151.469 296.352 150.872C295.328 150.189 294.603 149.251 294.176 148.056L265.12 66.52C264.864 65.8373 264.736 65.1973 264.736 64.6C264.736 63.2347 265.248 62.1253 266.272 61.272C267.381 60.4187 268.619 59.992 269.984 59.992C271.008 59.992 271.947 60.2907 272.8 60.888C273.739 61.4 274.379 62.2107 274.72 63.32L299.936 136.024L325.536 64.088C325.963 62.808 326.645 61.8693 327.584 61.272C328.523 60.5893 329.547 60.248 330.656 60.248C331.765 60.248 332.789 60.5893 333.728 61.272C334.667 61.9547 335.349 62.936 335.776 64.216L360.992 136.28L386.464 63.32ZM458.636 152.024C452.236 152.024 446.092 151.085 440.204 149.208C434.401 147.245 429.751 144.643 426.252 141.4C424.972 140.205 424.332 138.712 424.332 136.92C424.332 135.725 424.673 134.701 425.356 133.848C426.039 132.909 426.849 132.44 427.788 132.44C428.897 132.44 430.092 132.909 431.372 133.848C439.308 139.992 448.353 143.064 458.508 143.064C465.847 143.064 471.479 141.656 475.404 138.84C479.329 136.024 481.292 132.013 481.292 126.808C481.292 123.821 480.353 121.432 478.476 119.64C476.599 117.763 474.124 116.269 471.052 115.16C467.98 114.051 463.841 112.899 458.636 111.704C451.639 110.083 445.879 108.376 441.356 106.584C436.919 104.792 433.292 102.232 430.476 98.904C427.745 95.576 426.38 91.224 426.38 85.848C426.38 80.728 427.745 76.2053 430.476 72.28C433.292 68.2693 437.175 65.1973 442.124 63.064C447.159 60.8453 452.876 59.736 459.276 59.736C465.249 59.736 470.796 60.6747 475.916 62.552C481.121 64.344 485.473 66.9467 488.972 70.36C490.337 71.7253 491.02 73.2187 491.02 74.84C491.02 76.0347 490.679 77.1013 489.996 78.04C489.313 78.8933 488.503 79.32 487.564 79.32C486.625 79.32 485.388 78.8507 483.852 77.912C479.671 74.4987 475.788 72.1093 472.204 70.744C468.62 69.3787 464.311 68.696 459.276 68.696C452.193 68.696 446.689 70.1893 442.764 73.176C438.839 76.0773 436.876 80.1733 436.876 85.464C436.876 89.9867 438.583 93.4 441.996 95.704C445.495 97.9227 450.828 99.8853 457.996 101.592C465.761 103.469 471.863 105.219 476.3 106.84C480.737 108.376 484.407 110.723 487.308 113.88C490.295 117.037 491.788 121.261 491.788 126.552C491.788 131.587 490.38 136.024 487.564 139.864C484.833 143.704 480.951 146.691 475.916 148.824C470.881 150.957 465.121 152.024 458.636 152.024ZM565.796 152.024C557.433 152.024 550.137 150.147 543.908 146.392C537.764 142.637 533.028 137.304 529.7 130.392C526.372 123.48 524.708 115.331 524.708 105.944C524.708 96.472 526.329 88.28 529.572 81.368C532.9 74.3707 537.636 69.0373 543.78 65.368C550.009 61.6133 557.348 59.736 565.796 59.736C574.244 59.736 581.54 61.6133 587.684 65.368C593.913 69.0373 598.649 74.3707 601.892 81.368C605.22 88.28 606.884 96.4293 606.884 105.816C606.884 115.203 605.22 123.395 601.892 130.392C598.564 137.304 593.785 142.637 587.556 146.392C581.412 150.147 574.159 152.024 565.796 152.024ZM565.796 143.064C575.353 143.064 582.777 139.864 588.068 133.464C593.444 126.979 596.132 117.763 596.132 105.816C596.132 93.8693 593.487 84.696 588.196 78.296C582.905 71.896 575.439 68.696 565.796 68.696C556.239 68.696 548.772 71.9387 543.396 78.424C538.105 84.824 535.46 93.9547 535.46 105.816C535.46 117.677 538.105 126.851 543.396 133.336C548.772 139.821 556.239 143.064 565.796 143.064Z" fill="#FBFBFB"/>
<defs>
<filter id="filter0_i" x="12" y="8" width="200" height="204" filterUnits="userSpaceOnUse" color-interpolation-filters="sRGB">
<feFlood flood-opacity="0" result="BackgroundImageFix"/>
<feBlend mode="normal" in="SourceGraphic" in2="BackgroundImageFix" result="shape"/>
<feColorMatrix in="SourceAlpha" type="matrix" values="0 0 0 0 0 0 0 0 0 0 0 0 0 0 0 0 0 0 127 0" result="hardAlpha"/>
<feOffset dy="4"/>
<feGaussianBlur stdDeviation="2"/>
<feComposite in2="hardAlpha" operator="arithmetic" k2="-1" k3="1"/>
<feColorMatrix type="matrix" values="0 0 0 0 0 0 0 0 0 0 0 0 0 0 0 0 0 0 0.25 0"/>
<feBlend mode="normal" in2="shape" result="effect1_innerShadow"/>
</filter>
</defs>
</svg>
